<svg version="1.1" xmlns="http://www.w3.org/2000/svg" viewBox="0 0 1252 1199">
  <path d="M633 156c3.68 1.41 4.7 2.51 6.75 5.88 2.24 5.59 2.39 10.79 2.36 16.77v2.6c0 2.83 0 5.66-.01 8.49 0 1.96-.01 3.93-.01 5.9 0 5.16-.01 10.33-.02 15.5-.01 5.27-.02 10.55-.02 15.82-.01 10.35-.03 20.69-.05 31.04 3.77.47 7.55.95 11.32 1.42a3778.784 3778.784 0 0018.54 2.29c14.61 1.77 28.84 4.86 43.14 8.29.89.21 1.78.42 2.69.63 12.31 2.92 24.04 7 35.86 11.45 3.26 1.22 6.54 2.39 9.83 3.54 22.09 7.89 22.09 7.89 31.29 12.5 2.68 1.01 4.49 1.26 7.33.88 10.85-7.66 18.24-25.3 25.01-36.47 3.18-5.23 6.44-10.41 9.78-15.54 1.83-2.81 3.61-5.64 5.3-8.53 7.74-13.24 7.74-13.24 12.91-15.46 5.46-1.06 10.55-1.37 15.51 1.41 2.06 1.73 3.77 3.51 5.49 5.59.7.76 1.4 1.53 2.12 2.31 1.7 5.2.37 9.64-2 14.49-5.69 10.6-12.54 20.61-19.14 30.65-2.33 3.55-4.61 7.13-6.86 10.74a90.337 90.337 0 01-6.56 9.12c-3.03 3.82-5.59 7.81-8.06 12-.36.6-.73 1.2-1.1 1.82-1.32 2.31-2.39 4.21-2.43 6.91 3.24 6.16 8.25 9.88 13.78 13.84 5.23 3.83 10.29 7.7 15.06 12.11 1.94 1.78 3.91 3.51 5.9 5.23 11.34 9.91 21.78 20.55 30.85 32.59.96 1.26.96 1.26 1.93 2.55 2.88 3.94 4.79 6.74 5.51 11.64.59.07 1.17.14 1.78.22 3.06 1.07 3.93 2.63 5.78 5.28.69.99 1.39 1.98 2.1 3 3.63 5.39 7.14 10.85 10.64 16.32 3.01 4.69 6.16 9.28 9.34 13.86C936 437 936 437 936 440c6.66-2.02 12.79-4.66 19.02-7.75.94-.46 1.88-.92 2.84-1.4 2.99-1.46 5.97-2.94 8.95-4.41 1.96-.96 3.92-1.93 5.88-2.89a4443.02 4443.02 0 0033.16-16.47c1.07-.54 1.07-.54 2.16-1.08 1.81-.91 3.61-1.82 5.42-2.74 5.08-2.49 9.97-2.8 15.57-2.26 4.71 1.69 7.26 3.83 10 8 2.02 4.87 1.58 10.41-.19 15.25-3.07 4.66-7.3 7.18-12.19 9.71-1.05.55-2.1 1.09-3.19 1.66l-3.43 1.76c-1.2.61-2.39 1.23-3.59 1.85-9.92 5.09-19.94 9.95-30 14.77-10.19 4.88-20.32 9.9-30.41 15-.63 7.93 1.01 13.68 4.06 20.94 4.85 12.17 8.14 24.5 11.23 37.21.58 2.31 1.19 4.59 1.85 6.87 5.67 19.38 8.75 39.8 8.86 59.98 0 .67.01 1.34.01 2.03.07 10.99.05 21.98-.01 32.97 12.67 3.11 25.43 4.22 38.41 4.83 13.23.64 26.28 1.72 39.37 3.82 2.12.33 4.25.65 6.37.95 8.54 1.24 8.54 1.24 10.85 2.4v3l1.81.12c2.19.88 2.19.88 3.94 3.44 2.08 5.73 2.07 10.19-.37 15.69-1.89 3.9-4.6 5.72-8.38 7.75-2.82.44-5.12.62-7.94.56l-2.51-.02c-12.25-.34-24.43-2.31-36.56-3.95-8.44-1.14-16.87-2.18-25.37-2.9-.87-.08-1.74-.15-2.63-.23-3.95-.32-7.89-.53-11.84-.63-.7-.01-1.41-.03-2.13-.05-2.42.26-3.97.92-6.02 2.22-.98 2.57-.98 2.57-1.44 5.75-.24 1.27-.48 2.54-.73 3.84-.13.71-.26 1.41-.39 2.14-1.37 7.13-3.06 14.19-4.73 21.25-.47 2-.94 4-1.4 6-6.18 26.59-16.81 51.99-30.11 75.79-1.33 2.46-2.54 4.96-3.76 7.48-1.81 3.66-3.8 6.63-6.44 9.75-1.47 2.3-2.88 4.58-4.25 6.94-.36.59-.73 1.19-1.1 1.8-2.27 3.9-3.31 6.76-2.65 11.26 2.27 2.32 4.42 4.07 7 6l4.74 3.84c9.29 7.45 19.07 14.2 29.38 20.16 6.39 3.74 12.08 8.43 17.88 13 .79.53 1.57 1.06 2.38 1.61.54.46 1.07.92 1.62 1.39v3c.59.1 1.19.21 1.8.32 3.99 1.24 6.19 4.11 8.2 7.68 1.25 5.37.51 9.76-2.25 14.5-2.39 3.6-4.81 5.02-8.98 6.05-8.6 1.15-14.97-1.23-21.83-6.43-1.66-1.36-3.3-2.73-4.94-4.12-2.62-2.2-5.25-4.38-7.88-6.56-.72-.6-1.44-1.2-2.18-1.82-7.73-6.36-15.76-12.25-23.87-18.11-1.81-1.32-3.61-2.67-5.4-4.03-8.83-6.89-8.83-6.89-19.42-9.48-5.2 2.31-8.49 6.32-12.12 10.54-26.19 30.23-59.51 54.43-95.13 72.46-1.49.77-2.99 1.53-4.48 2.3-1.45.73-2.89 1.47-4.33 2.2-.67.34-1.33.68-2.01 1.03-3.02 1.5-5.85 2.87-9.18 3.47.85 6.59 1.91 12.44 4.81 18.44 1.49 3.21 2.76 6.49 4 9.81.26.68.51 1.35.77 2.05 1.76 4.73 3.34 9.5 4.88 14.3 3.5 10.87 7.78 21.15 12.71 31.44 2.56 6.04 2.41 12.52 1.83 18.96-1.69 3.56-1.69 3.56-4 6-.68.78-1.36 1.57-2.06 2.38-4.55 2.51-8.86 2.22-13.94 1.62-4.58-1.44-7.25-3.72-9.93-7.74-1.29-2.73-1.81-5.3-2.38-8.26-1.04-5.09-2.57-8.89-5.19-13.38-5.14-8.83-8.17-18.49-11.48-28.11-.46-1.34-.92-2.68-1.39-4.03-.33-.97-.33-.97-.68-1.97-2.08-5.98-4.43-11.83-7.02-17.6-1.54-3.51-2.05-6.1-1.93-9.91-6.54 1.47-13.06 2.99-19.55 4.68-48.08 12.53-95.21 12.69-144.45 9.32-.05.61-.09 1.21-.14 1.84-.54 6.23-1.65 12.11-3.13 18.17-1.94 8.22-3.62 16.45-5.08 24.76-.19 1.07-.38 2.14-.57 3.24-.77 4.39-1.53 8.77-2.28 13.16-.57 3.26-1.14 6.52-1.71 9.79-.17.98-.34 1.95-.51 2.96-2.95 16.77-2.95 16.77-8.58 22.08-5.58 2.72-11.69 2.69-17.69 1.44-4.37-2.72-7.74-6.21-9.03-11.26-.3-3.45-.05-6.39.47-9.8.16-1.11.32-2.22.48-3.36.55-3.13 1.32-6.17 2.13-9.24 2.23-8.77 3.63-17.68 5.14-26.59.59-3.47 1.19-6.93 1.78-10.4.14-.83.29-1.67.44-2.53 1.1-6.38 2.35-12.72 3.68-19.06.88-4.71 1.31-9.42 1.6-14.2l-1.82-.12c-6.55-.52-12.48-1.86-18.74-3.82-.99-.31-1.99-.61-3.01-.93-31.63-10.1-61.93-24.82-89.62-43.07-1-.65-2-1.31-3.02-1.99-7.57-5.06-15-10.43-21.55-16.78-1.61-1.6-1.61-1.6-4.24-3.29-7.14.25-9.71 3.02-14.4 8-3.06 3.53-5.92 7.18-8.72 10.91-7.85 10.43-16.64 20.04-25.63 29.5-3.43 3.61-6.74 7.27-9.93 11.09-3.39 3.84-6.63 6.28-11.81 6.7-7.03.12-11.47-.41-16.82-5.32-2.37-4.04-3.02-7.23-2.69-11.88 2.62-7.46 7.2-12.96 12.69-18.5.71-.73 1.41-1.47 2.14-2.22 4.64-4.78 9.35-9.49 14.09-14.17 2.49-2.52 4.8-5.16 7.1-7.85 2.6-2.97 5.29-5.86 7.98-8.76 6.63-7.13 6.63-7.13 13-14.5.44-.53.89-1.06 1.34-1.61 1.88-2.46 2.65-4.16 2.85-7.27-2.63-6.9-8.42-11.33-13.88-16.06-6.94-6.11-11.86-13.45-16.98-21.09-1.81-2.69-3.72-5.3-5.64-7.91A592.85 592.85 0 01332 810c-.52-.71-1.04-1.42-1.58-2.15-4.37-6.07-7.97-12.31-11.36-18.97-.52-1.01-1.03-2.02-1.57-3.06l-3.09-6.06c-1.2-2.36-2.41-4.72-3.63-7.07C291.5 735.28 291.5 735.28 292 723c-11.16 2.27-22.05 5.1-32.96 8.36-6.43 1.91-12.88 3.64-19.42 5.2-7.41 1.78-14.6 3.96-21.8 6.47-8.38 2.93-17.79 5.16-26.26 1.47-4.31-4.2-7.23-8.07-8.06-14.12.92-6.23 3.49-10.08 8.35-13.91 6.69-4.56 14.97-6.37 22.75-8.2 2.03-.5 4.05-.99 6.08-1.48 1.05-.25 2.09-.51 3.17-.76 28.23-6.01 28.23-6.01 55.15-16.03-.44-9.63-1.45-19.08-2.9-28.62-2.24-15.31-2.29-30.62-2.29-46.06 0-3.48-.02-6.97-.03-10.45-.06-20.11 1.9-39.34 5.34-59.12.29-1.64.57-3.29.84-4.93L282 529c-15.69-5.29-31.54-10.1-47.5-14.5-8.92-2.47-17.82-5.02-26.69-7.69-1.09-.32-2.18-.64-3.31-.97-12.63-3.84-12.63-3.84-15.78-8.88-1.68-5.47-2.56-10.41-.72-15.96 2.57-4.14 5.45-7.14 10-9 14.33-1.46 29.3 4.96 42.67 9.35 10.81 3.54 21.7 6.72 32.64 9.82 1.25.36 2.51.71 3.8 1.08 1.11.31 2.23.63 3.38.95 2.51.8 2.51.8 3.51 1.8 1.51.23 3.04.41 4.56.56 1.24.13 1.24.13 2.51.26.63.06 1.27.12 1.93.18.11-.7.23-1.4.35-2.12.72-3.2 1.83-5.98 3.13-9 .5-1.18 1-2.35 1.52-3.56.54-1.25 1.08-2.51 1.62-3.76.28-.63.55-1.27.84-1.92 14.71-33.99 33.87-66.71 59.12-93.98 4-4.4 7.74-8.99 11.42-13.66.48-.57.96-1.15 1.45-1.74 2.43-3.15 3.29-6.15 3.05-10.14-1.75-7.45-8.19-13.13-13.27-18.54-2.99-3.2-5.81-6.46-8.54-9.89-7.44-9.23-15.68-17.82-24.19-26.07-10.75-10.72-10.75-10.72-11.06-18.31.4-5.19 2.16-8.69 5.56-12.62 4.44-2.5 8.93-3.22 14-2.69 6.94 2.26 11.26 6.92 16 12.25l4 4.39c.65.72 1.31 1.44 1.98 2.19 2.66 2.86 5.44 5.58 8.26 8.29 1.87 2 3.3 4.07 4.76 6.38 2.57 4.06 5.54 7.22 8.99 10.54 5.35 5.23 9.93 11.05 14.33 17.08 1.89 2.11 2.96 3.05 5.68 3.88 6.05-.09 9.28-2.37 13.62-6.25 8.4-7.12 17.6-12.7 27.03-18.33 2.13-1.29 4.23-2.62 6.32-3.97 13.1-8.2 27.58-13.96 42.26-18.6 6.41-2.03 12.58-4.35 18.77-6.97 10.01-4.16 20.23-6.78 30.79-9.15 3.26-.74 6.51-1.52 9.76-2.29 17.26-4.01 34.49-6.26 52.09-8.05 3.15-.37 6.24-.86 9.36-1.39.01-1.13.01-2.25.02-3.41.06-10.63.13-21.25.22-31.87.04-5.47.08-10.93.11-16.39.02-5.27.06-10.54.11-15.81.02-2.01.03-4.02.04-6.03.01-2.82.04-5.64.07-8.46 0-.82-.01-1.65-.01-2.51.08-4.9.75-8.27 3.44-12.52 5.62-5.07 9.6-5.63 17-5zM501 314c-1.22.5-2.44 1-3.7 1.51-22.02 9.11-41.79 21.98-61.3 35.49-1.31.91-1.31.91-2.65 1.83-2.19 1.52-4.37 3.06-6.54 4.61-.61.43-1.22.86-1.85 1.3-1.8 1.28-1.8 1.28-3.96 3.26v3c-.66.19-1.32.37-2 .56-7.35 3.53-12.92 10.29-18.57 16.04-2.73 2.75-5.48 5.34-8.49 7.78-8.81 7.56-15.21 17.75-21.17 27.6-2.82 4.61-5.87 8.92-9.15 13.21-6.25 8.28-11.26 17.21-16.24 26.3-1.24 2.25-2.49 4.48-3.75 6.72C331.5 481.42 323.64 500.95 318 521c-.25.88-.5 1.75-.76 2.65-8.33 29.22-12.47 57.4-12.43 87.79v2.49c.03 14.43.51 28.73 2.19 43.07.11.94.22 1.88.33 2.86 3.2 26.26 11.35 52.83 21.67 77.14l1.01 2.42c8.62 20.49 19.07 40.29 32.38 58.13 1.24 1.67 2.49 3.34 3.73 5.01.93 1.24.93 1.24 1.87 2.5a105.3 105.3 0 019.66 15.66c1.97 3.32 4.53 5.76 7.34 8.38 2 1.89 3.78 3.87 5.57 5.96 5.72 6.59 11.52 11.82 18.65 16.87 2.58 1.92 4.89 3.93 7.23 6.13 17.87 16.41 38.98 30.1 60.62 40.97 1.86.93 3.7 1.88 5.55 2.83C514.1 917.94 549.74 930.22 585 934c1.41.17 1.41.17 2.85.34 39.43 4.53 79.85 3.24 118.15-7.34.64-.18 1.27-.35 1.93-.53 17.68-4.91 34.82-10.37 51.45-18.23 2.63-1.24 5.27-2.44 7.92-3.63 14.14-6.45 27.76-13.98 40.7-22.61v-3c.78-.19 1.57-.37 2.38-.56 8.84-3.51 15.9-10.26 23.04-16.39 3.94-3.37 7.94-6.65 11.96-9.93.65-.53 1.3-1.07 1.98-1.62 3.13-2.54 6.27-4.94 9.62-7.2.99-.76 1.99-1.52 3.02-2.3v-3c.58-.26 1.17-.52 1.77-.79 7.91-4.3 13.79-13.25 19.23-20.21.43-.55.86-1.09 1.31-1.65 6.3-7.99 11.41-16.17 16-25.25 2.57-5.07 5.37-9.85 8.5-14.6 20.02-31.02 31.18-66.88 38.44-102.75.17-.85.35-1.7.52-2.57 3.44-16.97 5.57-33.38 5.44-50.71-.02-2.4-.02-4.81-.02-7.21-.04-15.08-.29-30.02-3.44-44.82-.46-2.24-.91-4.48-1.37-6.72-.23-1.11-.46-2.23-.7-3.38-.66-3.23-1.26-6.47-1.84-9.72-4.25-23.36-12.29-44.94-21.84-66.62-.36-.83-.72-1.66-1.1-2.51-5.33-12.1-11.78-23.44-18.54-34.8-2.43-4.09-4.77-8.22-7.04-12.4-6.25-11.52-14.1-21.19-23.02-30.81a278.88 278.88 0 01-5.86-6.54l-1.69-1.93c-1.23-1.41-2.45-2.84-3.65-4.27-6.2-7.18-13.19-13.19-20.41-19.29-2.11-1.81-4.15-3.69-6.19-5.57-10.5-9.35-22.43-16.98-34.28-24.47-1.61-1.02-3.2-2.05-4.79-3.08-32.23-20.82-68.23-33.6-105.68-41.14-.96-.2-1.91-.39-2.9-.59-18.27-3.45-36.77-3.93-55.32-3.86-3.46.01-6.92 0-10.39-.01-42.1-.03-81.3 7.9-120.14 24.27z" fill="#2A0000"/>
  <path d="M814.293 454.387c2.03 1.43 3.86 2.95 5.71 4.61.65.57 1.3 1.13 1.98 1.71 19.89 18.32 27.79 51.18 29.02 77.29.19 5.01.17 9.99 0 15l-.09 2.71c-.89 22.68-5.34 49.3-18.91 68.29h-3c-.04.68-.09 1.36-.13 2.07-1.22 4.09-3.64 7.14-6.87 9.93h-3c-.1.61-.19 1.22-.28 1.84-1.33 3.98-5.15 5.36-8.72 7.16-11.55 4.8-23.32 5.61-35.1 1.34-6.64-3.06-11.97-8.01-16.9-13.34-.52-.52-1.04-1.05-1.58-1.59-14.71-15.61-20.75-37.61-23.42-58.41-.1-.72-.19-1.44-.29-2.18-.88-7.57-.91-15.14-.9-22.75v-2.08c.05-19.18.32-40.24 10.5-57.15 1.27-2.13 2.39-4.2 3.46-6.42 6.14-12.49 14.45-22.71 26.23-30.42.63-.43 1.27-.86 1.92-1.31 12.24-6.86 29.1-3.12 40.37 3.7zm-31.29 28.61c-9.28 10.41-14.73 24.43-17 38-.2 1.14-.39 2.27-.59 3.44-4.19 28.01-4.45 59.19 12.75 83.18 4.62 6.22 4.62 6.22 11.04 10.2 3.29.19 5.88-.85 8.86-2.13 7.49-6.85 11.51-16.3 14.94-25.69l1.09-2.94c10.19-30.07 7.24-62.13-5.09-91.06-2.15-4.11-4.83-7.61-8-11-.47-.56-.93-1.13-1.41-1.71-1.97-2.28-3.64-3.3-6.47-4.35-4.27.09-6.95 1.34-10.12 4.06z" fill="#2B0000"/>
  <path d="M480.188 451.688c.93 0 1.86.01 2.82.01 7.01.12 13.37.89 19.99 3.3.77.28 1.54.56 2.33.85 15.53 6.3 26.68 16.59 33.34 31.91 7.31 17.5 7.16 34.71.12 52.27-7.34 14.82-20.29 25.69-35.79 30.97-16.39 4.99-37.25 3.45-52.69-4-14.12-8.83-22.95-21.36-28.31-37-3.22-14.14-2.52-32.39 4.63-45.12 12.61-19.13 29.78-33.34 53.56-33.19zm-23.19 44.31c-5.14 7.75-5.95 15.9-5 25 1.21 3.39 2.88 6.11 5 9 .75 1.05 1.49 2.11 2.25 3.19 6.29 6.43 13.02 10.27 22.06 11.12 10.7-.9 18.92-5.41 26.43-13.08 4.5-6.06 5.2-13.88 5.26-21.23-1.54-9.76-6.32-16.24-13.87-22.31-15.65-8.45-30.35-5.01-42.13 8.31zM671.555 775.18c10.56 7.86 18.51 17.95 21.07 31.01 1.26 12.84.28 26.1-7.62 36.81-8.99 10.69-20.23 17.67-34 20-15.72 1.2-27.67-3.21-39.7-13.25-7.25-6.75-13.66-15.59-14.47-25.79-.32-16.87 1.89-28.72 13.17-41.96 18-16.93 40.46-20.32 61.55-6.82zm-39.37 29.88c-4.2 5.64-3.8 11.06-3.18 17.94 1.54 3.57 1.54 3.57 4 6 .59.76 1.19 1.53 1.81 2.31 3.51 2.71 6.89 2.93 11.24 2.47 5.01-.98 7.65-2.76 10.95-6.78.76-.91 1.52-1.81 2.31-2.75 2.21-4.26 2.37-7.54 1.69-12.25-2.07-5.97-5.96-9.4-11.5-12.31-7.09-1.95-12.57-.21-17.32 5.37zM604 378.438c18.59 12.56 31 29.27 35.54 51.17 5.95 31.2 5.95 31.2-.54 43.39-2.43 2.95-4.29 4.82-8.17 5.24-5.87.17-9.19-.28-13.83-4.24-.6-.49-1.2-.99-1.81-1.5-2.37-2.98-2.34-6.67-2.55-10.36-1.16-18.01-3.25-33.75-16.64-47.14v-3c-.52-.07-1.05-.15-1.59-.23-3.4-1.08-6.11-3.09-9.03-5.08-6.35-4.19-12.52-7.45-19.93-9.34-7.05-1.81-12.76-4.93-16.65-11.32-1.63-4.13-1.16-8.49-.18-12.71 2.48-4.18 5.88-6.63 10.26-8.63 15.24-3.35 32.4 5.99 45.12 13.75zM515 656c3.4 2.95 4.31 5.54 4.94 9.88.27 4.81-.31 7.97-2.94 12.12-5.16 4.65-11.05 7.68-17.25 10.69-8.65 4.38-15.08 9.28-21.75 16.31-.72.72-1.44 1.43-2.19 2.17-12.07 12.57-18.19 28.55-22.87 45.02-1.49 4.96-2.62 7.86-6.94 10.81-4.85 1.71-10.63 1.51-15.62.44-3.81-2.3-6.4-4.38-8.38-8.44-3.48-20.1 7.87-40.52 18-57 2.91-4.1 6.34-7.56 10-11 1.18-1.36 2.35-2.74 3.5-4.12 13.02-14.82 40.51-39.05 61.5-26.88z" fill="#2A0000"/>
</svg>
