<svg version="1.1" xmlns="http://www.w3.org/2000/svg" viewBox="0 0 1252 1199">
  <path d="M629 40c3.09 0 5.24.38 7.66 2.36 4.12 4.18 7.65 8.5 10.96 13.33.77 1.09.77 1.09 1.54 2.21 1.63 2.36 3.24 4.73 4.84 7.1.53.79 1.07 1.58 1.62 2.4 8.41 12.53 16.07 25.4 23.38 38.6.53.94 1.05 1.89 1.59 2.86C709.21 160.31 734.96 219.13 736 279l.06 3.11c1.02 59.82-7.96 118.59-36.07 171.99-1.03 1.97-2.03 3.96-3.03 5.95-12.18 23.99-28.49 45.76-44.96 66.95-.73.94-.73.94-1.47 1.9-4.79 6.19-9.66 12.29-14.78 18.22-5.45 6.34-10.42 13.01-15.4 19.71-3.15 4.25-6.32 8.45-9.66 12.55-9.73 12.03-17.94 25.06-26.15 38.16-1.26 2.02-2.54 4.02-3.83 6.02-44.18 69.68-55.36 156.74-37.8 236.62C553.6 906.25 573.23 950.83 598 991c.53.86 1.05 1.72 1.59 2.6 7.77 12.63 15.94 24.98 24.73 36.93.55.75 1.1 1.51 1.67 2.29 1.06 1.45 2.13 2.9 3.22 4.33 3.16 4.36 4.5 7.45 4.79 12.85-2.92.88-4.39 1.3-7.18-.08-10.55-8.55-17.13-19.3-23.82-30.92-.86-1.49-1.73-2.99-2.59-4.48-1.38-2.38-2.75-4.76-4.12-7.14-2.34-4.06-4.71-8.09-7.17-12.09C555.6 940.72 535.38 879.97 531 816c-.06-.78-.11-1.55-.17-2.35-1.8-25.67-.93-51.32.91-76.95.22-3.13.41-6.25.59-9.38 3.28-48.74 30.44-98.55 58.67-137.32.59-.81 1.17-1.62 1.77-2.46 6.56-9.09 13.28-17.98 20.41-26.63 3.87-4.7 7.59-9.49 11.26-14.35 4.44-5.87 9.03-11.59 13.75-17.25 5.02-6.02 9.71-12.17 14.19-18.6 1.93-2.75 3.91-5.45 5.92-8.14 8.16-10.85 15.7-21.93 22.7-33.57.39-.64.78-1.29 1.18-1.95C703.3 431.81 716.45 393.44 723 353c.17-1.02.33-2.04.5-3.09 2.55-16.51 2.78-32.99 2.81-49.66.01-1.53.01-1.53.01-3.1.04-19.14-.4-38.68-4.44-57.46-.22-1.02-.43-2.03-.65-3.08-2.69-12.41-6.37-24.52-10.23-36.61-.33-1.05-.66-2.1-1-3.19-5.89-18.67-13.79-36.25-22.12-53.93-1.32-2.83-2.63-5.66-3.94-8.49-13.6-29.24-32.01-55.77-51.29-81.53l-1.96-2.67c-.53-.71-1.07-1.42-1.62-2.15-1.32-2.51-1.35-4.24-1.07-7.04l1-1z" fill="#2A0000"/>
  <path d="M816.25 290.438c2.75.56 2.75.56 3.93 1.98 41.04 67.66 52.12 161.57 33.57 237.94-.61 2.43-1.24 4.86-1.88 7.29-.79 3.05-1.54 6.11-2.27 9.18-10.54 42.83-33.02 82.38-59.6 117.17-1.35 1.79-2.7 3.57-4.05 5.35-9.99 13.2-20.18 26.21-30.54 39.12-3.6 4.49-7.13 9.04-10.62 13.62-2.2 2.88-4.44 5.72-6.73 8.53-6.32 7.74-12.1 15.62-17.52 24.02-1.82 2.79-3.67 5.55-5.52 8.32-35.11 52.63-50.31 107.83-53.98 170.7-.06.9-.11 1.81-.17 2.74-.1 1.7-.2 3.4-.29 5.11-.27 4.48-.92 8.27-2.58 12.49h-6c-2.17-6.93-2.16-13.15-1.81-20.37l.15-3.59c4.03-81.15 36.87-148.78 85.66-212.04.63-.81 1.26-1.63 1.9-2.47 5.75-7.49 11.51-14.93 17.66-22.09 65.54-76.3 100.78-165.03 94.75-269.69-3.4-41.92-16.35-85.84-36.47-122.88-1.32-2.94-1.02-5.7-.84-8.87 1-1 1-1 3.25-1.56zM620.5 179.75c2.5.25 2.5.25 4.5 2.25.21 2.4.28 4.66.25 7.06-.01.77-.01 1.55-.02 2.34-.77 45.42-7.72 90.95-27.18 132.35-1.08 2.31-2.14 4.64-3.21 6.96-13.44 29.18-30.79 55.87-51.01 80.78-2.65 3.27-5.22 6.6-7.77 9.95-3.76 4.93-7.63 9.76-11.56 14.56a615.97 615.97 0 00-13.84 17.54c-1.98 2.59-3.99 5.15-6 7.71-7.11 9.01-13.9 18.15-20.28 27.7-1.45 2.15-2.91 4.28-4.38 6.42-26.1 38.2-41.67 80.84-50.38 126.13-.23 1.23-.47 2.45-.72 3.71-3.46 18.94-4.31 38.01-4.28 57.23.01 1.04.01 2.08.01 3.15.04 17.78 1.11 34.9 4.37 52.41.32 1.74.32 1.74.65 3.52 2.58 13.52 6.03 26.58 10.72 39.53 2.05 5.73 3.2 10.87 3.63 16.95-2.69.5-2.69.5-6 0-5.12-6.65-7.21-14.09-9.5-22.06-.19-.66-.39-1.32-.59-2-4.61-15.77-8.25-31.62-10.66-47.88-.12-.78-.23-1.56-.35-2.36-1.99-14.62-2.11-29.35-2.09-44.07 0-.93 0-1.85.01-2.8.17-80.51 27.45-147.95 75.18-211.83.43-.58.86-1.16 1.31-1.75 5.93-7.9 12.15-15.56 18.4-23.21 8.32-10.2 16.48-20.49 24.32-31.06 1.87-2.52 3.76-5.02 5.69-7.49 14.1-18.25 27.89-37.88 38.28-58.49.52-1.01 1.03-2.03 1.57-3.07 23.32-45.95 33.42-93.66 35.66-144.94.04-.83.07-1.65.11-2.5.08-1.6.14-3.19.19-4.79.34-7.49.34-7.49 4.97-7.95z" fill="#2A0000"/>
</svg>
