<svg version="1.1" xmlns="http://www.w3.org/2000/svg" viewBox="0 0 1252 1199">
  <path d="M663.023 463.91c2.37 1.3 4.81 2.34 7.29 3.4 10.28 4.67 18.55 10.92 26.69 18.69.6.53 1.2 1.06 1.82 1.6 4.11 3.74 7.2 8.07 10.3 12.65.41.6.82 1.19 1.24 1.81 5.86 8.9 9.33 18.47 12.14 28.69l1.83 6.39c.76 2.68 1.53 5.35 2.27 8.03 6.32 22.33 19.22 43.55 32.22 62.63 1.18 2.2 1.18 2.2 1.18 6.2l4 1 1 6c.59.06 1.17.12 1.78.18 3.18 1.18 3.91 3 5.65 5.88 3.35 5.25 6.98 10.08 10.94 14.88 4.01 4.85 7.95 9.73 11.75 14.75 4.63 6.06 9.51 11.88 14.47 17.67 2.37 2.77 4.74 5.55 7.09 8.33l1.39 1.63c4.58 5.42 8.98 10.97 13.39 16.52 1.82 2.26 3.47 4.11 5.85 5.78.56.46 1.11.91 1.69 1.38v4c.85.12.85.12 1.73.25 2.99.99 4.4 2.55 6.58 4.81.72.74 1.44 1.47 2.17 2.23 2 2.15 3.94 4.33 5.87 6.55 3.48 3.99 7.07 7.87 10.71 11.72 1.32 1.41 2.65 2.82 3.97 4.23.66.7 1.33 1.4 2.01 2.13 2.42 2.57 4.83 5.16 7.24 7.74 1.15 1.23 2.29 2.46 3.44 3.68 3.03 3.25 6.06 6.5 9.07 9.77 6.48 7.01 13.04 13.73 20.16 20.1 3.57 3.22 6.92 6.63 10.3 10.04 4.16 4.2 8.33 8.3 12.84 12.12 2.27 1.94 4.46 3.94 6.66 5.94 2.77 2.53 5.58 4.98 8.52 7.31.82.66.82.66 1.66 1.33 1.55 1.24 3.12 2.47 4.7 3.69 2.55 2.55 3.11 3.82 3.37 7.36.9.25 1.8.49 2.73.75 3.49 1.34 4.96 2.58 7.45 5.31 5.63 5.89 11.87 10.86 18.28 15.86 5.43 4.26 10.48 8.78 15.5 13.51 3.78 3.52 7.71 6.72 11.85 9.82 20.52 15.49 31.42 36.8 36.8 61.55 2.34 19.21.54 38.97-8.61 56.2-.38.83-.75 1.66-1.14 2.51-2.41 5.3-5.43 9.92-8.93 14.55-.42.57-.84 1.15-1.28 1.74-1.83 2.35-3.14 4-5.96 5.07-.56.04-1.12.09-1.69.13-.08.57-.16 1.14-.25 1.72-2.25 6.77-10.77 12.74-16.75 16.28-2.4.63-4.51.85-7 1v3c-21.83 9.89-41.43 13.85-65.02 8.45-2-.45-4-.86-6.01-1.26-19.08-4.02-33.41-15-47.52-27.98-3.41-3.07-6.97-5.94-10.54-8.83-8.41-6.86-16.61-13.91-24.57-21.29-2.27-2.1-2.27-2.1-4.65-3.75-.56-.44-1.12-.88-1.69-1.34v-2l-1.79-.82c-2.2-1.17-3.75-2.39-5.59-4.06-2.69-2.42-5.41-4.79-8.19-7.11-.62-.53-1.25-1.05-1.9-1.59-1.26-1.06-2.52-2.11-3.78-3.16-3.1-2.61-5-4.57-6.75-8.26-1.32-.71-2.65-1.37-4-2-9.09-7.43-17.21-16.13-25.44-24.47-4.44-4.49-8.92-8.82-13.7-12.93-12.99-11.18-25.87-23.29-36.93-36.39-3.47-3.97-7.12-7.78-10.73-11.63-3.3-3.52-6.54-7.07-9.7-10.71-2.19-2.51-4.36-4.65-7-6.68-.83-.72-1.65-1.45-2.5-2.19v-4c-.6-.09-1.19-.19-1.8-.29-2.69-.87-3.67-1.98-5.45-4.15-.52-.62-1.05-1.23-1.58-1.87-1.17-1.69-1.17-1.69-1.17-3.69-.58-.25-1.17-.49-1.77-.74-2.61-1.47-4.1-3.11-6.05-5.39-3.08-3.59-3.08-3.59-6.26-7.1-.63-.69-1.27-1.37-1.92-2.08-.58-.62-1.16-1.23-1.75-1.87-1.25-1.82-1.25-1.82-1.25-5.82l-1.78-.27c-7.04-2.31-12.45-12.51-16.94-18.29-3.17-4.07-6.43-8.03-9.78-11.94-22.5-26.34-22.5-26.34-22.5-33.5-.59-.07-1.18-.14-1.78-.22-4.89-1.72-7.43-7.62-10.22-11.78-.48-.7-.95-1.4-1.44-2.12-1.54-2.26-3.05-4.54-4.56-6.82-.5-.73-.99-1.46-1.5-2.22-.45-.7-.91-1.4-1.38-2.12-.41-.62-.82-1.24-1.24-1.88-.88-1.84-.88-1.84-.88-5.84-.6-.06-1.19-.11-1.8-.17-3.21-1.21-3.84-3.09-5.45-6.08-2.39-4.3-4.82-8.52-7.44-12.69-18.14-29.46-34.86-60.79-45.3-93.89-.94-2.94-2.01-5.79-3.14-8.67-2.45-6.66-3.65-13.53-4.87-20.5-.21-1.07-.42-2.15-.63-3.25-4.94-27.62 1.75-52.4 16.63-75.75 4.24-5.91 4.24-5.91 7-8h3c.12-.59.24-1.19.36-1.8 2.57-8.88 13.08-13.99 20.64-18.2 23.16-12.51 60.2-18.52 84.02-5.09zM561.003 495c-11.67 14.55-19.9 30.99-22.32 49.56-.08.66-.17 1.32-.26 2-4.9 44.74 24.59 96.88 46.16 133.99 1.24 2.14 2.46 4.3 3.66 6.47 3.23 5.78 6.61 11.36 10.32 16.85 3.65 5.44 7.26 10.92 10.83 16.42.9 1.39 1.8 2.77 2.71 4.16l4.1 6.32c1.35 2.1 2.71 4.18 4.07 6.27.6.94.6.94 1.21 1.9 2.5 3.8 5.21 6.9 8.52 10.06 1.22 1.6 2.41 3.22 3.56 4.87 4.77 6.69 9.91 13.05 15.07 19.44 1.76 2.18 3.5 4.37 5.24 6.56 4.25 5.32 8.58 10.56 12.92 15.81 5.19 6.29 5.19 6.29 7.72 9.44 4.77 5.91 9.76 11.54 14.92 17.1 2.67 2.89 5.26 5.82 7.82 8.79 2.05 2.34 4.15 4.63 6.25 6.93 3.6 3.97 6.87 8.08 9.99 12.44.5.54.99 1.07 1.51 1.62h3c.26.58.53 1.17.81 1.77 3.57 6.69 9.89 12.02 15.27 17.25 1.92 1.98 1.92 1.98 3.92 4.98h3c.18.67.36 1.34.55 2.03 2.08 4.27 5.19 7.14 8.54 10.46.7.7 1.4 1.4 2.12 2.13 1.48 1.48 2.96 2.96 4.44 4.43 2.28 2.26 4.54 4.54 6.81 6.82 1.43 1.44 2.87 2.87 4.31 4.31.68.68 1.36 1.36 2.06 2.07l1.92 1.89 1.68 1.68c1.64 1.48 1.64 1.48 4.57 1.18.1.64.2 1.28.31 1.94.34 1.02.34 1.02.69 2.06l3 1 1.18 2.12c2.08 3.3 4.42 5.24 7.38 7.73 2.94 2.59 5.68 5.35 8.44 8.15 3.83 3.88 7.72 7.57 11.88 11.1 2.76 2.48 5.33 5.13 7.93 7.77 4.55 4.63 9.31 8.8 14.39 12.84 4.16 3.4 8.06 7.06 12 10.71a373 373 0 009.18 8.14c1.62 1.44 1.62 1.44 3.93 3.88 1.67 1.9 1.67 1.9 4.69 1.56v3c1.92 1.92 1.92 1.92 4.37 3.69.81.62 1.63 1.24 2.46 1.88 2.01 1.61 2.01 1.61 4.17 1.43v2c.8.27 1.61.54 2.43.81.85.39 1.7.79 2.57 1.19l1 3c.62.15 1.25.31 1.89.46 2.76.71 3.26 1.75 4.79 4.1 11.52 16.07 32.78 26.39 52.02 29.71 15.4 2.21 30.41 1.19 45.3-3.27 1.06-.32 2.12-.63 3.22-.96 9.45-3.39 17.05-9.81 24.78-16.04.88-.69 1.76-1.39 2.66-2.1 16.21-13.48 26.7-33.17 29.34-53.9 1.89-25.86-2.81-48.93-20-69-7.27-8.02-15.02-15.01-23.71-21.43-3.72-2.82-7.09-5.99-10.48-9.2-8.76-8.75-8.76-8.75-19.02-15.39-1.79-.98-1.79-.98-2.79-3.98-1.42-.95-2.83-1.89-4.27-2.79-3.24-2.27-5.87-5.19-8.61-8.02-4.21-4.29-8.42-8.47-13-12.35-3.48-3.02-6.84-6.17-10.21-9.32-2.86-2.66-5.77-5.26-8.74-7.81-5.62-4.89-10.73-10.29-15.9-15.65-1.15-1.17-1.15-1.17-2.32-2.37l-2.09-2.15c-1.85-1.86-1.85-1.86-4.86-1.54-.25-.74-.5-1.49-.75-2.25-1.37-3-2.71-4.67-5.25-6.75h-3c-.24-.72-.47-1.44-.71-2.19-1.54-3.35-3.42-5.26-6.06-7.83-.46-.46-.93-.92-1.42-1.4-1.49-1.47-3-2.93-4.5-4.39-5.78-5.64-11.5-11.25-16.75-17.4-2.54-2.91-5.3-5.59-8.06-8.29-4.07-4.02-8-8.06-11.71-12.42-2.33-2.7-4.75-5.33-7.17-7.96-.95-1.03-1.91-2.07-2.86-3.11-.47-.51-.93-1.02-1.41-1.54-9.36-10.19-18.26-20.65-26.6-31.68-3.52-4.61-7.4-8.83-11.36-13.07-3.24-3.68-5.98-7.63-8.7-11.7-.84-1-.84-1-1.69-2.02h-3c-.23-.85-.46-1.7-.69-2.58-1.51-3.94-3.71-6.85-6.31-10.11-12.95-16.75-24.75-34.78-35-53.31-.39-.7-.78-1.39-1.18-2.11-8.22-14.78-13.84-29.52-18.29-45.82-3.92-14.32-8.97-28.44-18.53-40.07h-3c-.26-.58-.52-1.17-.79-1.77-7.14-13.15-24.39-22.37-38.17-26.45-7.94-2.19-15.8-3.52-24.04-3.78-1.09-.05-2.17-.1-3.29-.16-26.07-.7-48.88 10.24-66.71 29.16zm91.688-394.992c1.14.99 1.14.99 2.31 1.99.76.65.76.65 1.54 1.31 1.69 1.45 3.36 2.91 5.02 4.38.54.46 1.08.93 1.63 1.41 1.5 1.35 1.5 1.35 3.81 3.9v4c.6.09 1.2.17 1.82.26 5.66 1.92 8.71 10.57 11.3 15.55 2.87 5.91 5.04 11.9 6.88 18.19.25.77.5 1.53.76 2.32 7.83 25.45 1.07 52.09-10.5 75.09-2.17 4.33-4.02 8.73-5.82 13.22-5.23 12.76-11.48 25.06-17.54 37.43-2.39 4.87-4.72 9.76-7.03 14.67-6.77 14.37-14.09 28.45-21.4 42.55-2.64 5.1-5.26 10.21-7.87 15.33-11.89 23.29-11.89 23.29-18.21 33.43-3.08 5-5.84 10.17-8.67 15.31-6.44 11.73-13.25 23.18-20.39 34.51-2.36 3.79-4.57 7.67-6.8 11.54-2.11 3.59-4.35 7.08-6.6 10.58-1.41 2.2-2.8 4.41-4.17 6.64-13.64 22.04-28.35 43.45-43.45 64.52a178.2 178.2 0 00-2.66 3.9c-1.14 1.7-2.39 3.34-3.65 4.96h-3c-.08.71-.16 1.41-.24 2.14-.97 3.65-2.66 5.72-5.01 8.67-.44.56-.88 1.11-1.33 1.68-1.46 1.85-2.94 3.68-4.42 5.51-.53.66-1.07 1.32-1.62 2.01-2.77 3.43-5.55 6.85-8.34 10.26-2.46 3.01-4.88 6.05-7.29 9.11-3.29 4.13-6.79 8.04-10.36 11.93-2.23 2.51-4.31 5.08-6.38 7.71-5.46 6.7-11.53 12.69-17.7 18.73-2.19 2.16-4.38 4.32-6.57 6.49-.52.5-1.04 1.01-1.57 1.54-2.74 2.71-5.28 5.48-7.69 8.49-.82.9-1.64 1.8-2.48 2.73h-4c-.07.57-.14 1.14-.21 1.73-1.09 3.14-2.91 4.49-5.42 6.65-1.35 1.17-1.35 1.17-2.73 2.36-.87.75-1.74 1.49-2.64 2.26-.69.64-1.37 1.27-2.08 1.92-4.46 4.08-4.46 4.08-8.92 4.08-.09.6-.18 1.2-.28 1.81-1.45 4.39-6.09 6.61-9.72 9.19-.55.4-1.1.79-1.67 1.2-19.07 13.65-39.36 27.16-62.33 32.8l-3.28.91c-22.48 5.88-47.17-.28-67.01-11.61-24.48-14.72-38.71-36.25-46.71-63.3-4.59-19.48-1.63-41.82 6-60 .32-.77.64-1.53.97-2.32 5.27-12.2 12.37-23.51 23.03-31.68.62-.55 1.24-1.1 1.88-1.67 6.7-5.8 14.19-9.93 21.85-14.31 6.98-4.07 12.93-8.54 18.81-14.07 2.46-1.95 2.46-1.95 6.46-1.95.1-.59.2-1.18.31-1.79.81-2.59 1.8-3.65 3.75-5.52.55-.53 1.1-1.07 1.66-1.61 1.33-1.21 2.67-2.41 4.03-3.58 4.98-4.28 9.58-8.77 14.06-13.56l2.11-2.25c5.61-6.05 10.75-12.36 15.73-18.94 1.92-2.48 3.89-4.91 5.87-7.35 5.65-6.97 10.96-14.12 16.11-21.47 2.06-2.9 4.15-5.78 6.24-8.66 9.03-12.44 17.69-25.01 25.77-38.09 1.91-3.06 3.84-6.11 5.77-9.15 5.78-9.11 11.47-18.27 17.06-27.5 1.07-1.77 2.15-3.55 3.23-5.32 7.94-13.03 15.6-26.18 22.96-39.56 3.05-5.55 6.14-11.07 9.38-16.51 10.69-17.99 19.87-36.89 29.19-55.61a484.58 484.58 0 017.77-15.03c3.77-6.96 7.05-13.82 9.74-21.29 1.46-3.71 3.19-7.22 5.01-10.77 3.05-5.97 5.9-12 8.62-18.13 1.15-2.56 2.3-5.11 3.45-7.67.79-1.78 1.59-3.56 2.37-5.33 5.43-12.18 11.29-23.01 19.81-33.31.85-1.05.85-1.05 1.72-2.12 32.72-36.23 93.31-37.94 129.97-7.87zm-76.19-10.76c-.73.11-1.46.22-2.21.33-4.61.81-8.33 2.25-12.45 4.45-2.47 1.3-5.04 2.24-7.65 3.22-12.16 5.02-24.62 14.9-32.19 25.75v4h-3c-6.1 12.01-12.16 23.99-17.44 36.38-5.18 12.04-11.02 23.81-16.69 35.63-1.83 3.8-3.63 7.61-5.43 11.42-14.35 30.48-30.03 60.47-47.14 89.49-4.26 7.24-8.36 14.55-12.43 21.89-5.49 9.9-11.32 19.5-17.46 29-2.34 3.63-4.62 7.29-6.91 10.94-.4.63-.8 1.27-1.21 1.92-1.85 2.96-3.65 5.94-5.37 8.99-1.61 2.8-3.29 5.41-5.17 8.03-3.42 4.82-6.7 9.72-9.95 14.65a98.513 98.513 0 01-3.5 4.88c-1.44 1.73-1.44 1.73-1.8 3.97-.17.6-.33 1.2-.5 1.81l-3 1a124.06 124.06 0 00-4.19 6.75c-9.35 15.53-21.09 29.58-32.5 43.63-1.26 1.56-2.52 3.13-3.77 4.7-3.99 4.98-8.1 9.61-12.67 14.05-1.75 1.75-3.34 3.55-4.93 5.43-9.02 10.45-19.03 20-29.94 28.44-.8.66-1.61 1.32-2.43 2.01-2.76 2.14-5.59 3.94-8.57 5.74-.57.35-1.13.69-1.71 1.05-2.84 1.73-5.7 3.44-8.57 5.11-22.7 13.41-37.87 31.86-44.53 57.59-5.9 24.89-1.22 46.44 11.34 68.15 3.81 6.03 8.52 11.24 13.47 16.35l2.42 2.54c7.08 6.94 14.85 11.27 23.72 15.56 1.51.73 3 1.5 4.49 2.28 15.02 7.51 38.19 6.89 54.11 2.71 21.87-7.3 41.18-20.05 59.26-34.09 1-.76 1.99-1.52 3.02-2.31 5.31-4.15 10.26-8.64 15.21-13.2 2.59-2.33 5.24-4.51 7.96-6.68 12.6-10.21 24-21.73 34.81-33.81.63-.7 1.25-1.4 1.9-2.12 1.72-1.95 3.41-3.91 5.1-5.88 1.59-1.83 3.18-3.67 4.77-5.5 1.12-1.29 2.23-2.58 3.35-3.87.53-.61 1.05-1.22 1.6-1.85.53-.62 1.07-1.24 1.62-1.87 1.13-1.3 2.26-2.58 3.4-3.86 4.12-4.65 7.96-9.46 11.7-14.42 4.24-5.62 8.54-11.16 13.07-16.55 1.62-2.07 1.62-2.07 2.51-4.78.32-.76.65-1.52.98-2.3l3-1c1.65-2.26 3.15-4.5 4.62-6.87.41-.64.82-1.28 1.24-1.94 1.7-2.7 3.13-5.15 4.14-8.19.58-.24 1.16-.47 1.76-.72 3.54-2.02 5.02-5.33 7.05-8.78.88-1.45 1.76-2.91 2.65-4.37.43-.7.86-1.41 1.3-2.14 1.63-2.62 3.42-5.12 5.24-7.61 2.4-3.34 4.04-6.32 5-10.38h3c1.76-3.09 2-4.23 2-8h3c1.33-1.45 1.33-1.45 2.47-3.47.48-.78.96-1.56 1.45-2.37.78-1.32.78-1.32 1.58-2.66.55-.91 1.11-1.83 1.68-2.77 1.96-3.24 3.89-6.48 5.82-9.73.37-.63.75-1.25 1.13-1.9 3.69-6.21 7.38-12.42 11.05-18.63 4-6.76 8.02-13.48 12.26-20.09 4.38-6.87 8.24-14 12.09-21.17 3.08-5.71 6.26-11.33 9.59-16.9 4.87-8.15 9.28-16.51 13.65-24.94 1.57-3.03 3.17-6.06 4.77-9.09 1.69-3.19 3.36-6.38 5.04-9.57 1-1.9 2-3.8 3-5.71 13.09-24.92 25.25-50.22 36.96-75.82 1.5-3.27 3-6.55 4.51-9.82 7.31-15.65 7.31-15.65 14.07-31.55.32-.77.63-1.55.95-2.35 7.51-19.84 7.22-43.27-1.32-62.77-1.2-2.59-2.46-5.14-3.75-7.69-.81-1.6-.81-1.6-1.63-3.24-4.34-8.04-9.97-14.34-16.37-20.76l-2.15-2.21c-6.66-6.43-14.71-10.54-22.85-14.79-.96-.52-1.92-1.04-2.92-1.57-15.3-7.7-33-7.74-49.58-5.18z" fill="#2A0000"/>
  <path d="M936.504 228.605c18.59 14.93 34.96 38.11 37.73 62.44.37 5.13.34 10.25.27 15.39l-.02 2.38c-.08 12.57-1.23 24.58-3.97 36.86-.74 3.37-1.34 6.75-1.95 10.14-.37 1.94-.74 3.89-1.11 5.84-.54 2.81-1.08 5.62-1.61 8.44-2.47 13-5.03 25.97-7.84 38.9-.4 1.86-.4 1.86-.81 3.74-6.41 29.66-13.6 59.08-21.59 88.35-1.29 4.71-2.51 9.43-3.71 14.17-2.79 10.9-5.86 21.7-9.02 32.49-.21.73-.42 1.46-.64 2.21-2.24 7.66-4.55 15.26-7.38 22.73-1.49 4.04-2.65 8.18-3.85 12.31-1.9 6.34-3.79 12.63-6.18 18.79-1.04 2.8-1.96 5.63-2.89 8.46-.97 2.92-1.95 5.84-2.93 8.75-.31.92-.62 1.83-.94 2.77-5.33 15.7-11.33 31.05-17.69 46.36-.35.86-.71 1.71-1.08 2.59-3.78 9.09-7.64 18.15-11.63 27.15-.32.73-.65 1.46-.98 2.22-1.8 4.02-3.68 7.99-5.68 11.91-5.43.42-5.43.42-7.88-1.37-.56-.68-1.11-1.36-1.69-2.06-.67-.82-1.35-1.64-2.04-2.48-3.5-4.51-6.96-9.03-10.4-13.58-5.1-6.71-10.47-13.14-15.99-19.51-.53-.6-1.06-1.21-1.6-1.83l-3.34-3.85c-.56-.64-1.12-1.28-1.69-1.94-.55-.64-1.11-1.28-1.68-1.93-3.86-4.45-7.64-8.95-11.33-13.54-1.77-2.17-3.55-4.33-5.35-6.47-19.63-23.55-37.04-50.65-45.98-80.21-.99-3.29-.99-3.29-2.5-6.58-1.74-4.13-2.94-8.26-4.1-12.58l-.63-2.31c-.98-3.62-1.93-7.24-2.83-10.88-.61-2.45-1.3-4.87-2.07-7.27-3.46-13.82-.65-27.83 3.39-41.16 1.25-4.3 2.25-8.65 3.27-13.01.31-1.33.31-1.33.63-2.69.61-2.58 1.21-5.16 1.81-7.75.16-.71.33-1.43.51-2.17 2.75-11.77 5.04-23.62 7.29-35.49 1.41-7.39 2.9-14.77 4.5-22.13 4.02-18.61 7.32-37.37 10.3-56.17.64-3.97 1.32-7.78 2.43-11.65 1.19-4.19 1.73-8.33 2.28-12.64 4.49-32.55 9.49-59.17 33.69-82.75.52-.58 1.04-1.16 1.58-1.75 11.45-12.32 25.85-17.88 41.42-23.25 1.2-.42 1.2-.42 2.42-.85 25.86-8.95 59.69.07 81.08 16.46zm-85.5-6.61c-1.25.37-1.25.37-2.51.74-13.73 4.78-25.3 14.2-35.49 24.26-.66.58-1.31 1.16-1.98 1.76-12.49 11.35-18.88 27.83-21.71 44.06-.21 1.13-.42 2.26-.63 3.43-1.31 7.21-2.43 14.42-3.23 21.7-.45 3.05-.45 3.05-1.41 6.29-1.55 5.61-2.11 11.29-2.81 17.06-.82 6.39-2.04 12.6-3.43 18.89-.87 4.12-1.62 8.26-2.34 12.41-.13.73-.25 1.46-.38 2.21-.52 2.99-1.03 5.99-1.53 8.98-.38 2.23-.77 4.46-1.15 6.68-.11.67-.22 1.34-.34 2.03-.69 3.99-1.75 7.68-3.06 11.5-.28 1.38-.52 2.76-.71 4.15-.17 1.12-.17 1.12-.33 2.27-.11.79-.22 1.58-.34 2.4-1.02 6.88-2.33 13.59-4 20.34-1.58 6.45-2.86 12.95-4.12 19.47-2.17 11.04-4.75 21.82-8.13 32.56-1.44 4.65-2.18 9.33-2.85 14.15-.52 2.66-.52 2.66-1.57 4.55-3.13 6.93 1.18 17.58 2.92 24.55.26 1.06.51 2.11.78 3.2 3.35 13.95 3.35 13.95 8.35 27.36.71 1.88 1.42 3.75 2.12 5.63.95 2.46 1.91 4.92 2.88 7.37.29.76.59 1.52.89 2.3 8.14 20.52 18.92 38.79 32.78 55.97 1.29 1.68 2.4 3.4 3.51 5.2.6.84 1.2 1.67 1.82 2.53h3c.24.74.49 1.47.75 2.23 1.36 3.03 2.89 4.81 5.18 7.21 3.87 4.17 7.45 8.46 10.94 12.94.47.59.93 1.19 1.41 1.8 1.84 2.38 3.66 4.75 5.35 7.24.45.52.9 1.05 1.37 1.58h3c.26.75.53 1.49.8 2.25 1.18 2.71 2.42 4.54 4.31 6.79.61.72 1.22 1.45 1.84 2.2.64.75 1.27 1.5 1.92 2.26 1.25 1.49 2.5 2.98 3.74 4.47.59.7 1.17 1.39 1.78 2.11 1.9 2.28 3.76 4.59 5.61 6.92 2.93-.04 2.93-.04 6-1 1.61-2.51 1.61-2.51 2.5-5.75 1.55-4.57 3.2-8.9 5.31-13.25 3.86-8.22 6.97-16.73 10.15-25.24 1.01-2.69 2.04-5.38 3.08-8.07 3.68-9.56 7.24-19.15 10.52-28.85 1.35-3.94 2.81-7.75 4.54-11.53 1.55-3.42 2.65-6.69 3.46-10.37.94-4.01 2.05-7.77 3.57-11.61 4.75-12.75 8.16-26.09 11.95-39.16.92-3.17 1.85-6.34 2.78-9.51 2.78-9.48 5.55-18.96 8.05-28.51.88-3.38 1.79-6.74 2.71-10.1 4.5-16.49 8.55-33.04 12.36-49.71.17-.77.35-1.54.53-2.33.88-3.86 1.76-7.72 2.63-11.57l.99-4.35c.24-1.05.24-1.05.48-2.13.93-4.04 1.91-8.05 2.94-12.05 1.78-7.04 3.11-14.15 4.45-21.28 1.68-8.89 3.42-17.75 5.34-26.59 2.39-11.05 4.17-22.11 5.57-33.32.52-4.07 1.1-8.01 2.14-11.97 4.5-17.89-1.62-40.52-10.53-56.23-9.01-14.92-21.29-26.17-36.52-34.52-.59-.32-1.17-.64-1.77-.97-19.78-10.69-44.74-12.55-66.23-6.03zM406.563 748.5l3.31-.06c10.31.08 20.16 2.02 30.24 4 4.67.91 9.35 1.77 14.03 2.63 1.85.34 3.7.69 5.55 1.03 1.38.25 1.38.25 2.78.51 1.86.34 3.72.69 5.58 1.04 10.32 1.94 20.57 3.73 31.04 4.66 4.51.42 8.56 1.42 12.91 2.69 2.46.38 4.93.72 7.41 1 .69.08 1.38.16 2.09.25l6.56.75c2.87.33 5.73.66 8.6 1 .7.08 1.4.16 2.13.25 5.72.67 11.41 1.48 17.11 2.32 4.11.57 8.22.99 12.35 1.37 3.58.35 7.16.7 10.75 1.06 1.65.16 1.65.16 3.34.33 3.51.36 7.02.73 10.53 1.11 1.11.11 2.23.22 3.37.33 8.17.9 13.54 2.32 19.07 8.73.76.88 1.52 1.76 2.3 2.67.79.93 1.58 1.87 2.39 2.83.84.97 1.68 1.93 2.54 2.93 6.88 8.08 6.88 8.08 7.46 13.07.56.06 1.12.12 1.7.18 3.31 1.18 4.81 3.25 7.11 5.88l1.33 1.51c1.3 1.47 2.58 2.95 3.86 4.43 1.18 1.35 2.37 2.71 3.56 4.06.82.95.82.95 1.66 1.91 2.09 2.38 4.21 4.74 6.34 7.09 3.05 3.38 6.04 6.78 8.95 10.27 2.53 2.84 5.28 5.47 7.98 8.15 1.57 1.54 3.13 3.09 4.69 4.64.8.79.8.79 1.62 1.59 2.35 2.34 4.35 4.52 6.2 7.29v3c.56.07 1.12.14 1.7.21 3.18 1.09 4.78 2.94 7.11 5.35.88.91 1.77 1.82 2.68 2.76 2.61 2.79 5.11 5.65 7.6 8.55 5.18 5.79 10.73 11.36 16.66 16.38 4.81 4.1 9.19 8.64 13.62 13.16 3.1 3.14 6.25 6.17 9.6 9.06 4.94 4.26 9.46 8.91 14.03 13.57 3.9 3.95 7.9 7.69 12.1 11.32 3.38 2.93 6.61 6.01 9.87 9.07 4.46 4.15 9.14 7.85 14.08 11.44 1.95 2.13 1.95 2.13 2.3 5.33-.35 2.8-.35 2.8-1.35 3.8-2.92.39-5.82.72-8.75 1-.78.08-1.55.16-2.35.25-19.42 1.93-38.96 1.95-58.46 1.94h-6.27c-21.12 0-42.11-.51-63.17-2.19-7.87-.61-15.72-1.09-23.61-1.29-10.89-.28-21.54-1.06-32.32-2.55-7.6-1.04-15.17-1.66-22.82-2.16-8.62-.58-17.08-1.42-25.59-2.82-8.37-1.36-16.77-2.23-25.2-3.09-5.75-.6-11.34-1.41-16.99-2.61-4.56-.88-9.17-1.3-13.79-1.79-10.88-1.23-21.63-2.95-32.41-4.89-5.7-1.02-11.39-1.98-17.14-2.76-7.05-.99-14.02-2.28-21.01-3.63-2.18-.42-4.36-.83-6.54-1.24-3.8-.72-7.6-1.44-11.4-2.17l-4.62-.87c-26.22-4.93-26.22-4.93-37.44-10.88-.6-.32-1.21-.63-1.83-.96-1.44-.75-2.87-1.52-4.29-2.29v-3c-.74-.12-1.48-.23-2.24-.35-11.53-2.71-21.25-14.74-27.45-24.34-1.49-2.41-2.91-4.85-4.31-7.31l-1.09-1.88c-12.83-22.65-15.68-47.69-9.11-72.96 2.92-10.29 6.8-20.51 13.2-29.16h3l.12-2c1.3-4.45 3.92-7.49 6.88-11 .48-.58.96-1.16 1.46-1.75 16.34-17.88 43.63-27.47 67.1-27.75zm-53.56 29.5c-1.16.67-1.16.67-2.34 1.36-14.7 9.04-23.28 27.74-27.48 43.95-.41 1.89-.8 3.79-1.18 5.69-.21.89-.41 1.78-.62 2.69-4.6 21.65 1.39 42.92 12.7 61.47 3.31 4.91 6.99 9.41 10.92 13.84.62.71 1.25 1.42 1.89 2.15 17.39 18.52 41.84 24.6 66.04 28.51 3.41.56 6.8 1.2 10.19 1.84.67.12 1.33.25 2.01.38 4.35.81 8.67 1.71 12.99 2.62 7.15 1.45 14.33 2.43 21.56 3.38 5.67.74 11.31 1.58 16.94 2.56 17.03 2.92 34.16 5.38 51.35 7.07 3.07.33 6.07.86 9.11 1.45 6.81 1.27 13.65 1.9 20.54 2.54l8.07.78c1.91.18 1.91.18 3.86.37 4.02.41 8.01.9 12.01 1.41 8.92 1.1 17.87 1.61 26.84 2.19 7.68.51 15.26 1.23 22.88 2.28 13.8 1.74 27.77 1.77 41.66 2.03 1.07.02 2.15.04 3.26.07 33.6.63 67.23.99 100.8-.63.63-1.9.63-1.9 1-4-1.34-2.02-1.34-2.02-3.32-3.75l-1.92-1.86c-1.65-1.6-1.65-1.6-3.76-1.39v-2c-1.31-1.12-2.68-2.17-4.06-3.19-5.59-4.33-10.48-9.21-15.41-14.27-3.05-3.11-6.13-6.1-9.43-8.94-5.43-4.68-10.37-9.82-15.39-14.93-3.42-3.45-6.83-6.83-10.52-9.99-5.14-4.41-9.89-9.23-14.67-14.02-1.58-1.59-3.17-3.18-4.77-4.77-4.94-4.93-9.77-9.91-14.31-15.23-1.99-2.29-4.14-4.41-6.32-6.54-4.01-3.9-4.01-3.9-5.12-6.12h-3c-.4-.88-.4-.88-.82-1.77-3.12-5.86-8.42-10.5-13.12-15.11-4.1-4.04-7.68-8.28-11.2-12.82-1.67-2.07-3.39-3.9-5.3-5.74-3.77-3.63-6.96-7.66-10.24-11.74-2.91-3.53-5.97-6.9-9.07-10.26-3.14-3.57-5.94-7.37-8.72-11.21-6.78-6.29-16.21-5.92-24.97-6.35-7.95-.48-15.79-.97-23.62-2.44-7.25-1.35-14.49-2.23-21.82-3-19.49-2.07-38.9-4.7-58.12-8.56-2.58-.51-5.17-1.01-7.75-1.5-.65-.12-1.3-.25-1.97-.38-5.49-1.02-11-1.83-16.53-2.62-6.47-.93-12.75-2.06-19.05-3.85-26.63-6.39-60.94-2.12-80.7 18.35zm617.005-18.656c11.16 6.18 22.51 14.03 30.99 23.66v4c.61.08 1.21.16 1.83.24 4.43 1.54 6.07 6.83 8.17 10.76.33.58.65 1.17.99 1.78 5.42 9.83 8.75 19.24 11.01 30.22.36 1.44.36 1.44.72 2.91 1.34 5.7 1.22 10.3.28 16.09-2.14.87-2.14.87-5 1-2.19-1.93-3.9-3.72-5.75-5.94-1.06-1.21-2.12-2.42-3.19-3.63-.51-.59-1.03-1.18-1.57-1.79-4.27-4.71-9.17-8.73-14.3-12.46-4.06-2.96-7.67-6.35-11.32-9.79-4.55-4.23-9.4-8.02-14.41-11.69-4.27-3.21-4.27-3.21-5.35-6.02-.05-.83-.05-.83-.11-1.68-.58-.1-1.16-.21-1.76-.31-2.64-.82-3.96-1.93-5.99-3.79-.69-.63-1.39-1.26-2.11-1.91-.7-.66-1.41-1.32-2.14-1.99-.66-.62-1.33-1.24-2.01-1.87-2.68-2.5-5.33-5.01-7.99-7.53l-2-1.88c-.65-.62-1.3-1.23-1.97-1.86-2.77-2.54-5.65-4.93-8.56-7.3-1.47-1.56-1.47-1.56-1.47-4.56-.57-.09-1.14-.18-1.73-.27-2.91-.94-4.36-2.39-6.52-4.55l-2.14-2.08c-1.61-2.1-1.61-2.1-1.61-6.1 16.17-5.39 40.23 1.26 55.01 8.34zm-34.01.66c1.31 3.91 2.79 6.37 6 9h3c.05.55.1 1.11.14 1.68 1.27 3.41 3.85 5.13 6.61 7.32 1.19.97 2.38 1.94 3.57 2.92.61.51 1.22 1.01 1.85 1.53 2.93 2.48 5.72 5.1 8.52 7.73 4.5 4.22 9.12 8.16 13.98 11.95 3.92 3.13 7.61 6.51 11.33 9.87 9.42 9.45 9.42 9.45 21 15-.85-17.09-11.74-31.26-22.56-43.82-1.51-1.5-1.51-1.5-4.44-1.18v-3c-2.22-1.6-4.38-2.97-6.75-4.32-.68-.39-1.37-.79-2.08-1.2-2.05-1.18-4.1-2.33-6.17-3.48-1.01-.58-2.02-1.16-3.07-1.75-6.96-3.73-23.17-12.13-30.93-8.25z" fill="#2A0000"/>
</svg>
