<svg version="1.1" xmlns="http://www.w3.org/2000/svg" viewBox="0 0 1024 1024">
  <path d="M0 0h1024v1024H0V0z" fill="#F3F3F3"/>
  <path d="M962 160l3 1c.92 2.55.92 2.55 1.68 5.96.29 1.27.58 2.53.87 3.83.3 1.38.59 2.76.89 4.15a1142.318 1142.318 0 013.16 15.07c.36 1.8.74 3.6 1.11 5.39 6.75 33.1 6.74 70.59-7.71 101.6-.3.66-.61 1.32-.92 2-11.64 24.67-30.68 42.33-56.08 52-1.23.48-1.23.48-2.49.96-11.07 3.98-22.31 4.45-33.95 4.42-.75-.01-1.5-.01-2.27-.01-16.66-.04-31.59-2.62-47.22-8.42-2.94-.91-5.04-1.03-8.07-.95-9.18 16.42-18.23 32.88-24.89 50.51-.24.64-.49 1.28-.74 1.94-1.21 3.18-2.39 6.37-3.53 9.57-.43 1.16-.86 2.31-1.3 3.5-.55 1.55-.55 1.55-1.12 3.13-1.42 2.35-1.42 2.35-4.08 3.19-.77.05-1.54.11-2.34.16 1.43-12.94 8.34-25.26 13.85-36.94 1.03-2.19 2.04-4.37 3.05-6.56 3.7-7.91 7.65-15.33 12.54-22.57 2.19-4.12 2.9-7.83 2.15-12.46-.24-.77-.48-1.54-.73-2.33-.27-.87-.53-1.74-.81-2.63-.28-.89-.57-1.78-.86-2.7-4.01-12.72-5.56-24.57-5.5-37.93v-2.07c.13-25.63 5.56-51.34 23.92-70.45L826 220l2.49-2.52c21.07-20.32 50.46-28.95 78.57-33.86 28.32-4.14 28.32-4.14 51.94-18.62 1.9-2.69 1.9-2.69 3-5zM578.36 495.313c2.68 2.12 5.17 4.33 7.64 6.69l2.78 2.51c12.64 11.89 19.84 25.81 24.39 42.45.55 2.03 1.17 4.04 1.83 6.04.11 1.63.18 3.26.21 4.89l.09 2.9c.05 2 .09 4 .13 6.01.22 6.79.91 11.41 5.77 16.51.82.7 1.64 1.4 2.49 2.12a931.8 931.8 0 002.71 2.36l4.54 3.85c10.69 9.14 20.47 19.23 29.06 30.36 1.08 1.37 2.15 2.74 3.23 4.11 16.21 20.77 16.21 20.77 15.77 27.89h-4c-1.24-1.35-1.24-1.35-2.3-3.27-.62-1.07-.62-1.07-1.25-2.17-.44-.78-.87-1.57-1.32-2.37-8.63-14.75-18.63-28.44-30.61-40.64-1.6-1.64-3.19-3.3-4.77-4.95-9.43-10.02-9.43-10.02-20.75-17.6-4.65.05-6.88 2.38-10.19 5.43-7.46 6.58-15.99 11.07-24.81 15.57-.62.31-1.23.63-1.87.95-21.48 10.82-46.95 14.21-70.15 6.73-31.4-10.84-50.71-34.23-65.48-63.12-10.9-21.31-20.93-38.03-42.5-49.56 1-3 1-3 3.41-4.3 1.06-.43 2.13-.86 3.22-1.3 1.78-.73 1.78-.73 3.6-1.48 1.3-.51 2.6-1.03 3.9-1.55 1.32-.53 2.64-1.07 3.97-1.6 2.68-1.09 5.37-2.16 8.06-3.23 3.44-1.38 6.86-2.78 10.29-4.19 11.03-4.5 21.81-8.22 33.55-10.35.89-.18 1.78-.35 2.7-.53 36.19-6.65 76.76 3.45 106.66 24.84zM352 118c-1.37 3.34-2.57 4.66-5.79 6.26-.77.39-1.54.78-2.33 1.19-.82.41-1.65.82-2.5 1.24-1.75.89-3.49 1.78-5.23 2.68-.87.44-1.74.89-2.64 1.34-6.3 3.23-12.46 6.62-18.51 10.29-.81.48-1.62.97-2.46 1.46-10.14 5.6-10.14 5.6-16.52 14.58.13 2.97.13 2.97 1.05 5.77 8.15 27.99 3.51 59.1-9.83 84.55-3.97 6.54-8.89 12.19-14.24 17.64-.6.61-1.2 1.23-1.82 1.86C258.23 279.08 240.03 286.6 223 291c-1.11.3-2.21.61-3.35.92-9.06 2.4-18.15 4.14-27.4 5.6-14.5 2.35-25.04 6.6-34.25 18.48-1.98-2.97-2.44-4.45-3.04-7.87-.16-.97-.33-1.94-.51-2.93-.17-1.02-.34-2.03-.51-3.08-.18-.97-.35-1.94-.53-2.95-2.16-12.61-2.65-25.21-2.66-37.98v-2.14c.01-10.35.59-19.98 3.25-30.05.29-1.31.57-2.62.84-3.94 4.04-18.56 12.56-36.89 25.8-50.61 2.04-2.11 3.85-4.28 5.67-6.57 7.24-8.3 17.55-13.94 27.69-17.88.72-.28 1.45-.57 2.19-.86 20.37-7.35 43.2-7.73 63.22.83 4.41 1.83 7.83 2.69 12.59 2.03 2.73-1.33 5.08-3.05 7.5-4.88 1.43-1.02 2.85-2.04 4.28-3.06.71-.52 1.42-1.04 2.16-1.57 9.56-6.91 19.56-13.12 29.68-19.18 1.05-.63 2.09-1.27 3.17-1.93.99-.58 1.98-1.17 3-1.77.88-.52 1.77-1.05 2.68-1.6 2.98-1.19 4.5-.93 7.53-.01zm30 636c4.55 3.58 5.52 7.84 7 13.19.26.89.51 1.79.77 2.71.77 2.69 1.5 5.39 2.23 8.1.2.74.4 1.47.61 2.23 4.73 17.51 6.64 35.21 6.77 53.33.01 1.23.02 2.45.04 3.71-.07 12.12-2.59 23.42-6.67 34.79-.45 1.28-.45 1.28-.92 2.58-4.18 11.4-9.73 21.24-17.83 30.36-.59.69-1.18 1.37-1.79 2.08-13.54 14.66-34.18 22.9-53.85 24.08-15.83.61-30.12-.81-45.36-5.16-.26.68-.52 1.36-.78 2.06-1.41 3.41-3.04 6.68-4.7 9.97-.34.67-.68 1.35-1.03 2.04-1.43 2.85-2.87 5.7-4.31 8.55-.71 1.4-1.41 2.8-2.12 4.2-.69 1.39-1.39 2.77-2.09 4.15-1.65 3.27-3.21 6.54-4.61 9.92-.5 1.18-.99 2.36-1.5 3.58l-1.25 3.17C249 976 249 976 245.82 976.85c-.93.05-1.86.1-2.82.15.6-3.82 1.73-6.79 3.52-10.22.52-1 1.04-2.01 1.58-3.04l1.71-3.24c.58-1.1 1.15-2.2 1.75-3.34 4.36-8.29 8.95-16.44 13.83-24.43 2.6-4.38 4.44-7.48 3.61-12.73-.72-2.64-.72-2.64-1.75-5.38-9.37-29.29-9.28-61.61 4.6-89.44 4.05-7.67 8.99-14.11 15.15-20.18l2.3-2.3c18.06-17.14 41.79-25.26 65.39-31.71 10.07-2.82 21.32-8.01 27.31-16.99zm484.125-4.062c1.54.01 3.09.01 4.63.01 3.75.01 7.5.03 11.25.05.42 27.53.42 27.53-2 41-.16.88-.31 1.75-.46 2.65-5.72 32.5-18.89 71.8-46.54 92.35-6.62 4.48-13.64 7.93-21 11-.86.36-1.71.72-2.58 1.09-8.08 3.07-15.68 3.5-24.2 3.38-2.22-.03-4.45-.02-6.67-.01-10.72-.01-20.77-1.14-30.43-6.14-3.92-2.04-6.71-3.23-11.12-2.32-2.73 2.37-4.83 5.14-7 8-.56.71-1.12 1.42-1.69 2.15-15 19.34-27.61 40.38-37.31 62.85h-2c.51-4.88 1.49-8.6 3.73-12.95.57-1.11 1.14-2.21 1.72-3.35.61-1.16 1.23-2.32 1.86-3.51.47-.9.47-.9.95-1.81 9.05-17.22 19.93-32.76 32.47-47.62 2.2-2.68 3.45-4.41 4.27-7.76-.5-4.93-1.63-9.57-2.87-14.37-5.68-22.5-4.45-44.61 5.87-65.63.45-.93.9-1.86 1.37-2.82 12.14-23.6 35.91-39.27 60.64-47.57 13-4.05 26.52-5.86 39.99-7.61.79-.11 1.58-.21 2.4-.33 8.21-.98 16.47-.78 24.72-.73z" fill="#333"/>
  <path d="M687 91c.37 14.02.01 27.28-3 41-.14.68-.29 1.36-.44 2.06-4.68 21.69-12.8 43.83-31.87 56.88-17.9 10.6-40.98 10.14-60.71 5.72-2.96-.77-2.96-.77-5.98-.66l-1 4h-2c.03-1.39.03-1.39.07-2.82.02-1.23.04-2.47.05-3.74l.08-3.69c-.05-3.72-.05-3.72-1.18-7.02-3.3-12.09-2.66-28.43 2.98-39.73 2.37-3.95 5.01-7.49 8-11 .6-.71 1.19-1.42 1.8-2.14 18.24-19.85 49.41-28.77 74.39-36.55.75-.24 1.51-.48 2.29-.74 5.56-1.65 10.74-1.82 16.52-1.57z" fill="#2B0101"/>
  <path d="M0 536c1.57.3 3.14.6 4.71.91.88.16 1.75.33 2.65.51C26.76 541.71 46.31 557.55 57 574c10.23 18.03 13.72 37.2 8.38 57.75-.74 2.43-1.53 4.85-2.38 7.25-.22.63-.44 1.26-.67 1.9-7.89 22.18-7.89 22.18-13.94 27.52-1.83 1.72-1.83 1.72-1.31 5.5.89 5.97 2.79 11.65 4.61 17.39C56.02 705.39 59.14 719.56 62 734c.19.88.37 1.76.56 2.67.52 2.76.54 5.34.5 8.14-.01.98-.02 1.95-.02 2.96-.02.74-.03 1.47-.04 2.23h-3c-1.53-6.43-2.64-12.86-3.65-19.39-2.16-13.87-4.99-27.25-9.35-40.61-.28-.87-.56-1.74-.85-2.63-1.67-5.14-3.39-10.26-5.15-15.37l-2.23-.06c-3.38-.1-6.76-.21-10.15-.32l-3.5-.09C6.59 670.9 6.59 670.9 0 666c-.62-2.4-.62-2.4-.6-5.3-.01-1.09-.02-2.19-.02-3.32.02-1.21.03-2.41.05-3.65v-3.85c0-3.48.03-6.96.06-10.43.03-3.64.04-7.28.04-10.91.02-6.89.06-13.77.11-20.66.06-7.83.08-15.67.11-23.51.05-16.12.14-32.25.25-48.37zm645.25 381.875l4.03.03c3.24.02 6.48.05 9.72.09-.8 3.5-2.12 6.3-3.75 9.5-4.13 8.8-6.11 18.07-8.25 27.5-4.82 21.02-12.6 39.12-31.19 51.32-20.51 11.9-42.75 12.18-65.81 11.68l-1 5h-2c.91-5.7.91-5.7 1.63-8 .51-2.07.51-2.07-.09-4.42-1.88-12.42-1.9-26.73 2.46-38.58.31-.92.61-1.85.93-2.81 7.13-19.47 20.83-32.58 39.26-41.37 8.52-3.85 17.67-6.01 26.81-7.82.84-.17 1.68-.34 2.54-.52 8.28-1.57 16.3-1.71 24.71-1.6z" fill="#2C0101"/>
  <path d="M950 526c9.94-.19 19.71.28 29.61 1.12 2.32.19 4.64.37 6.96.55 12.99 1.05 24.99 3.18 37.43 7.33v130c-16.53-2.36-30.24-12.94-41.03-25.33-13.49-18-18.57-40.2-21.61-62-2.2-15.64-5.68-30.23-10.7-45.25C950 530 950 530 950 526z" fill="#2B0000"/>
  <path d="M0 930c5.62 4.49 5.62 4.49 7.83 7.98.49.74.97 1.49 1.47 2.26.75 1.18.75 1.18 1.51 2.38 9.43 14.46 20.61 26.86 32.75 39.07.91.92.91.92 1.84 1.85 3.02 3.11 3.02 3.11 6.6 5.46 2.18-.06 2.18-.06 4.62-.38.82-.09 1.64-.18 2.48-.27 2.22-.27 4.43-.56 6.64-.87 20.42-2.54 42.52.57 59.62 12.81 8.14 6.5 15.73 13.94 19.64 23.71H0v-94zM43 0c13.21-.14 26.43-.25 39.64-.31 6.13-.03 12.27-.07 18.4-.14 5.92-.07 11.84-.1 17.76-.12 2.26-.01 4.52-.03 6.78-.06 3.16-.05 6.33-.05 9.49-.05.93-.02 1.87-.04 2.83-.07 6.21.06 6.21.06 8.77 2.04 2.54 2.98 4.41 6.4 6.13 9.91.72 1.43.72 1.43 1.45 2.9.74 1.5.74 1.5 1.5 3.02 3.99 7.91 8.08 15.02 13.8 21.77.48.7.96 1.39 1.45 2.11-1 3-1 3-2.88 4.01-.81.3-1.63.59-2.47.89-.91.33-1.81.66-2.75 1.01-.98.34-1.95.68-2.96 1.03-1 .35-2 .7-3.02 1.07-8.22 2.86-16.4 5.23-24.92 6.99-1.62.34-1.62.34-3.27.68-21.76 3.92-45.59 1.33-64.61-10.49C55.02 39.55 49.41 32.36 45 22c-.35-.7-.7-1.4-1.07-2.12-1.28-3.95-1.14-7.58-1.05-11.69 0-.79.01-1.58.02-2.39.03-1.93.06-3.87.1-5.8z" fill="#2C0101"/>
  <path d="M0 934c3.56 3.56 6.34 6.63 9.25 10.62 7.09 9.58 14.7 18.6 22.75 27.38 1 1.1 1.99 2.2 2.99 3.3 1.04 1.15 2.09 2.3 3.13 3.45.52.56 1.03 1.12 1.55 1.7 2.7 2.93 5.42 5.55 8.58 7.99C51 991 51 991 51.32 993.79c-.45 4.49-2.15 8.09-3.93 12.21-2.03 5.83-3.1 11.96-4.39 18H0v-90z" fill="#F3F3F3"/>
  <path d="M537 510c3.57 3.09 4.85 5.69 6.18 10.19.37 1.19.74 2.38 1.13 3.61l2.25 7.53c.37 1.19.74 2.38 1.12 3.61.33 1.09.65 2.18.99 3.3 1.63 3.38 2.99 4.16 6.33 5.76 1.28.64 1.28.64 2.58 1.28l2.74 1.29c1.02.48 2.05.96 3.1 1.45 1.08.51 2.16 1.02 3.27 1.54 10.68 5.08 21.09 10.5 31.31 16.44.92.52 1.85 1.05 2.8 1.59 2.2 1.41 2.2 1.41 3.68 2.93 2.04 1.99 4.28 2.97 6.83 4.23 4.39 2.33 7.09 4.47 10.08 8.37 1.93 2.26 4.07 3.93 6.42 5.76 12 9.58 22.88 20.93 32.19 33.12 1.07 1.37 2.14 2.73 3.21 4.1 16.23 20.77 16.23 20.77 15.79 27.9h-4c-1.24-1.35-1.24-1.35-2.3-3.27l-1.25-2.16c-.44-.79-.87-1.57-1.33-2.38-8.62-14.75-18.63-28.44-30.61-40.65-1.58-1.61-3.13-3.24-4.69-4.87-6.19-6.42-12.62-12.12-19.8-17.42-2.62-1.95-5.09-4-7.58-6.13-14.45-11.57-31.92-19.96-48.44-28.12-.97-.48-1.93-.95-2.93-1.45-.96-.45-1.91-.91-2.9-1.38-.85-.41-1.71-.82-2.59-1.24-4.17-1.5-8.21-1.36-12.58-.93-.07-.62-.15-1.23-.22-1.87-.59-2.29-.59-2.29-2.73-3.32-.83-.31-1.66-.63-2.52-.95-.9-.35-1.8-.7-2.73-1.06-.94-.34-1.89-.69-2.86-1.05-.95-.36-1.9-.73-2.88-1.1-2.35-.9-4.7-1.78-7.06-2.65v-2c4.14.58 7.74 1.52 11.62 3.07 1.02.4 2.03.8 3.08 1.22 1.05.42 2.1.84 3.18 1.27 1.06.43 2.13.85 3.24 1.29 2.63 1.04 5.25 2.09 7.88 3.15-.26-.7-.51-1.39-.78-2.11-2.11-5.76-4.14-11.53-5.97-17.39-.22-.69-.44-1.38-.67-2.09-.91-2.92-1.58-5.33-1.58-8.41z" fill="#300A0A"/>
  <path d="M733 892l2 3-1.09 1.37c-15.68 19.65-30.38 40.24-39.67 63.77-.67 1.65-1.45 3.26-2.24 4.86-1.49.5-1.49.5-3 1 .51-4.88 1.49-8.6 3.74-12.96.57-1.1 1.13-2.2 1.72-3.34.91-1.74.91-1.74 1.85-3.51.32-.6.63-1.2.95-1.81 9.06-17.24 19.95-32.78 32.49-47.65 2.22-2.49 2.22-2.49 3.25-4.73z" fill="#464646"/>
  <path d="M0 930c4.97 3.4 7.65 7.64 10.81 12.62 10.75 16.49 23.9 30.28 37.85 44.06 1.12 1.1 2.23 2.21 3.34 3.32-4.08 0-5.69-2.09-8.5-4.75-.53-.5-1.06-.99-1.61-1.5-5.6-5.31-10.8-10.95-15.89-16.75-.87-.98-1.74-1.97-2.64-2.98-5.63-6.44-10.86-13.17-15.98-20.02-.93-1.22-.93-1.22-1.87-2.47-.58-.77-1.15-1.54-1.74-2.34-.51-.69-1.02-1.38-1.55-2.08C.85 934.74.39 932.69 0 930z" fill="#441E1E"/>
  <path d="M291.813 153.625c.72.12 1.44.25 2.19.38-2.22 4.21-4.81 6.82-8.5 9.81-1.44 1.18-1.44 1.18-2.91 2.39-2.59 1.8-2.59 1.8-5.59 1.8 1.51-3.86 3.8-5.48 7-8 .85-1.07 1.68-2.16 2.5-3.26 2.5-2.74 2.5-2.74 5.31-3.12z" fill="#1C2513"/>
  <path d="M28 967c5.21 4.35 10.05 8.92 14.81 13.75.67.67 1.34 1.34 2.02 2.04 1.23 1.23 2.45 2.46 3.68 3.7 1.16 1.17 2.32 2.34 3.49 3.51-4.12 0-5.79-2.18-8.62-4.88-.53-.49-1.06-.98-1.6-1.49-4.86-4.59-9.68-9.34-13.78-14.63v-2z" fill="#634444"/>
  <path d="M407 493l2 1-4 2v6l-6-3c1-3 1-3 4.44-4.75 1.17-.41 2.35-.82 3.56-1.25z" fill="#515746"/>
  <path d="M435 482v5h-8v-2c6.88-3 6.88-3 8-3z" fill="#585D47"/>
</svg>
