<svg version="1.1" xmlns="http://www.w3.org/2000/svg" viewBox="0 0 1024 1024">
  <path d="M0 0h1024v1024H0V0z" fill="#2B0101"/>
  <path d="M0 0h628c-.69 6.89-1.18 11.51-3.31 17.75-.41 1.23-.82 2.46-1.24 3.73-3.24 7.87-9.04 14.06-14.45 20.52-.61.74-1.23 1.48-1.86 2.24-3.36 3.96-6.9 7.44-10.86 10.8-2.71 2.33-5.34 4.73-7.97 7.15-.5.46-1.01.92-1.53 1.4-2.74 2.51-5.44 5.04-8.12 7.61-14.69 14.02-14.69 14.02-24.72 14.11-1.65-.08-3.3-.17-4.94-.31v4h-2c-.29.74-.58 1.48-.88 2.24-.65 1.6-1.32 3.2-2.05 4.77-5.52 12.37-7.25 26.66-9.07 39.99-2.06-1.83-3.75-3.36-4.77-5.96-1.11-2.62-2.08-4.14-4.23-6.04-5.16-1.23-10.31-1.07-15.58-1l-4.62-.03c-4.04-.03-8.09-.01-12.13.02-4.13.02-8.26-.01-12.39-.03-8.09-.03-16.19-.01-24.28.04 2.85 2.31 5.5 4.44 8.79 6.08 1.03.53 1.03.53 2.08 1.06 1.09.55 1.09.55 2.19 1.11 26.91 13.96 47.11 33.93 60.94 60.75l.97 1.88c5.09 10.01 8.93 20.34 12.03 31.12.21.72.43 1.43.65 2.17 3.39 11.88 3.74 23.75 3.79 36.02 0 .75.01 1.51.02 2.28.04 9.03-.63 17.54-2.36 26.39-1.29 6.72-1.65 13.36-1.79 20.2-.03 1.17-.07 2.33-.1 3.53-.08 2.8-.15 5.61-.21 8.41h-2c-.26-1.48-.26-1.48-.52-2.99l-.73-3.89c-.35-1.91-.35-1.91-.7-3.86-.72-3.27-.72-3.27-2.86-4.67-2.34-.63-4.53-1-6.94-1.21-.8-.08-1.6-.15-2.42-.23L526 307c-.1.57-.2 1.15-.3 1.74C521.43 328 509.12 344.76 494 357c-.88.77-1.76 1.53-2.67 2.32-26.22 22.63-60.1 37.72-94.77 40.24-4.18.32-7.1.88-10.56 3.44-3.57 4.54-5.89 9.66-8 15h-3c.16-.74.32-1.48.49-2.24.72-5.29.67-10.52.68-15.85 0-1.18 0-2.35.01-3.57 0-2.49.01-4.98.01-7.47 0-3.76.02-7.53.03-11.29.45-19.53.45-19.53-3.22-38.58-.2-2.43-.36-4.87-.5-7.31-.26-4.64-.65-9.12-1.5-13.69l-3 1c-.88 2.37-1.56 4.62-2.19 7.06-1.99 7.29-4.29 14.42-6.75 21.56-2.67 7.86-5.04 15.71-7.06 23.76-8.46 33.46-18.51 66.96-46.69 89.12-5.79 4.67-9.38 8.85-10.31 16.5h-2l-1-2c-2.52-.48-2.52-.48-5.59-.68-1.17-.1-2.34-.2-3.54-.31-1.26-.11-2.51-.21-3.81-.32-14.85-1.43-28.61-3.97-42.06-10.69-.27.84-.54 1.68-.82 2.54-7.39 21.73-7.39 21.73-13.98 29.62-16.49 21.33-27.08 48.75-36.2 73.84-.36.98-.72 1.97-1.1 2.98-2.55 6.94-4.8 13.93-6.9 21.02-.36 1.23-.73 2.46-1.11 3.73-2.52 8.66-4.02 16.65-4.45 25.65-.05.83-.09 1.66-.13 2.51-.11 2.04-.21 4.07-.31 6.11h2c.25-.7.5-1.4.75-2.12 1.79-4.12 3.59-7.87 7.5-10.26.58-.2 1.16-.41 1.75-.62-.37 6.56-2.91 10.83-6.38 16.31-.53.87-1.06 1.74-1.6 2.63-2.69 4.39-5.44 8.72-8.26 13.02-.51.78-1.01 1.57-1.54 2.38-.95 1.48-1.92 2.94-2.92 4.4-3.53 5.5-4.07 9.81-3.3 16.26.48 2.01.99 4.02 1.51 6.03 1.58 6.7 1.88 12.97 1.78 19.83 0 1.16-.01 2.32-.01 3.51-.02 3.65-.05 7.3-.09 10.94-.02 2.5-.03 4.99-.04 7.48-.04 6.07-.09 12.14-.15 18.21.61-.03 1.21-.05 1.83-.08 17.41-.78 34.81-1.2 52.23-1.48 2.54-.05 5.07-.09 7.61-.13 6.11-.11 12.22-.21 18.33-.31-1.87-.49-3.75-.97-5.63-1.45l-3.16-.82c-4.95-1.12-9.91-1.54-14.96-1.92-1-.08-1.99-.16-3.02-.25-2.41-.19-4.82-.38-7.23-.56v-3c11.47-11.4 28.09-17.23 43.06-22.31.92-.32 1.84-.63 2.79-.95 3.03-.99 6.08-1.88 9.15-2.74.64-.18 1.28-.36 1.93-.54 12.55-3.41 24.55-4.11 37.51-3.96.96.01 1.92.01 2.91.02 15.84.11 31.14 1.04 46.65 4.48 1.07.24 2.15.47 3.25.72 34.28 7.82 66.69 23.29 91.75 48.28.85.83 1.7 1.65 2.57 2.5 16.91 17.39 25.96 39.94 30.06 63.48 3.11 17.64 7.73 34.94 14.87 51.4 2.7 6.34 3.19 11.79 2.5 18.62-5.18-.45-8.09-1.4-12.19-4.56-15.64-10.87-33.41-14.15-51.93-16.75-2.17-.32-4.34-.65-6.5-.97-4.19-.63-8.38-1.25-12.57-1.86-23.49-3.45-23.49-3.45-33.81-6.3-.8-.21-1.59-.43-2.41-.65-4.88-1.34-9.52-2.94-14.16-4.96-2.97-1.16-5.97-1.95-9.05-2.76-11.61-3.22-24.48-8.26-34.38-15.19l-1-3c-1-.08-1.99-.15-3.02-.23-4.51-.65-7.85-2.64-11.67-5.02-.65-.38-1.3-.77-1.97-1.16-3.98-2.43-6.44-4.89-9.34-8.59-2.34-1.43-2.34-1.43-4.94-2.56-15.4-8.05-26.45-23.49-36.99-36.87-2.05-2.54-4.16-5.02-6.29-7.49C234 755.39 234 755.39 234 749c-.97-.05-1.94-.1-2.94-.15-7.06-.38-14.05-.92-21.06-1.85-15.35-2.02-30.54-2.1-46-2v27h-2l.04 2.95c.08 10.98-.26 21.92-.68 32.89-.32 8.39-.49 16.76-.36 25.16 1.11.54 2.23 1.07 3.38 1.62 3.15 1.58 6.14 3.28 9.14 5.14 4.76 2.88 9.65 5.37 14.64 7.83 9.97 4.96 18.67 9.57 26.3 17.8 1.83 1.92 3.75 3.73 5.67 5.55 9.04 8.61 16.63 17.24 22.87 28.06.36.61.72 1.22 1.09 1.85 13.44 23.11 19.08 48.06 19.04 74.65 0 1.38 0 2.75.01 4.12 0 2.86 0 5.71-.01 8.57-.01 3.66 0 7.33 0 10.99.01 2.83.01 5.65 0 8.48 0 2.01.01 4.02.01 6.03 0 1.21-.01 2.42-.01 3.66v3.24C263 1023 263 1023 262 1024H0V0z" fill="#2B0101"/>
  <path d="M0 0h498l4 10c4.37 8.62 9.64 14.88 19 18 .09.97.17 1.94.26 2.94.86 8.53 2.51 16.34 5.24 24.49 1.9 5.68 3.53 11.44 5.19 17.19.85 2.97 1.71 5.94 2.58 8.9.59 2.02 1.17 4.04 1.75 6.07.84 2.73.84 2.73 3.98 4.41l-1.3 2.69c-2.37 5.53-3.54 11.4-4.89 17.25l-.82 3.52c-.67 2.84-1.33 5.69-1.99 8.54-2-1-2-1-3.16-4.23-.45-1.46-.89-2.93-1.34-4.39C515.46 80.91 496.65 40.5 463 23c-4.87-2.37-9.88-4.27-15-6-.68-.23-1.37-.46-2.08-.7-15.45-5.12-30.69-6.4-46.86-7.43-13.06-.82-25.68-1.77-38.35-5.21-3.89-.95-7.72-1.33-11.71-1.66 1.21 6.05 2.99 10.01 6.62 14.94 3.69 5.24 6.67 10.45 9.26 16.31 3.97 8.85 8.93 16.84 14.27 24.93 1.71 2.61 3.4 5.22 5.09 7.84C395.76 84.08 395.76 84.08 410 100c.67.67 1.33 1.35 2.02 2.04 5.27 5.04 11.4 7.93 17.98 10.96 7.74 3.62 7.74 3.62 10 7 .52 6.66-.83 12.6-2.38 19.06-3.42 14.46-4.99 28.5-4.99 43.32 0 2.42-.04 4.84-.08 7.26-.12 16.16 3.25 30.68 9.26 45.67.66 1.67.66 1.67 1.34 3.38 4.59 11.43 9.15 21.3 18.03 30.09 2.02 2.46 2.48 4.09 2.82 7.22-4.36 2.8-8.72 5.41-13.31 7.81-24.91 13.47-41.86 36.3-50.94 62.85-1.74 6.36-2.82 12.68-3.7 19.22-.16 1.23-.33 2.46-.5 3.73-.32 2.46-.62 4.91-.89 7.37-.93 7.4-2.44 13.76-6.66 20.02l-2 1-.12-2.94c-.91-21.55-2.58-42.28-7.59-63.32-4.39-18.72-.83-30.37 6.56-48.01 1.08-2.56 2.12-5.14 3.15-7.73-30.49 4-30.49 4-59 15-.95.47-1.91.95-2.89 1.43-6.71 3.46-12.38 7.67-18.11 12.57-.76.62-1.52 1.23-2.31 1.87-11.49 9.6-18.1 21.97-24.69 35.13-3.58-1.29-6.3-2.82-9.31-5.12-13.03-9.3-29.17-16.73-45.17-18.13-3.42-1.02-4.34-2.96-6.52-5.75-2.24-1.4-4.32-2.56-6.69-3.69-.69-.33-1.37-.66-2.08-1.01-24.78-11.73-50.8-20.77-77.94-24.95-1.72-.26-3.42-.56-5.13-.88-5.41-.8-10.86-.66-16.32-.66-2.1 0-4.2-.02-6.29-.03-1.34-.01-2.67-.01-4-.01-1.21 0-2.42-.01-3.66-.01-3.02-.06-3.02-.06-4.89 2.24-.36 7.21 2.39 11.6 6.29 17.38 7.3 10.86 12.12 22.46 16.71 34.68 7.62 20.24 17.09 36.33 33.44 50.55 1.58 1.41 3.12 2.85 4.65 4.32 14.19 13.56 30 25.72 48.53 32.63 5.76 2.28 8.29 5.19 11.38 10.44 3.68 5.88 7.74 11.23 12.25 16.5.53.62 1.06 1.25 1.61 1.89 2.7 3.25 2.7 3.25 6.14 5.61-2.52 17.02-11.76 31.73-21.56 45.56-24.36 34.65-34.97 77.27-43.42 118.15C159.46 667.06 129.86 715.8 98 749l-1.4 1.46c-6.14 6.4-12.53 12.19-19.6 17.54l-1-2c1.56-2.59 3.17-5.07 4.88-7.56C90.44 744 97.44 729.4 103 713c.26-.75.53-1.51.8-2.29 11.23-32.53 5.64-70.98-7.36-102.21C86.11 582.98 82.96 553.29 84 526c-4.63 1.22-6.82 2.39-9.56 6.31-3.15 4.31-6.44 7.92-10.44 11.46-6.59 5.83-12.85 11.93-19.05 18.15-1.64 1.65-3.29 3.29-4.94 4.93C34.47 572.39 29.05 578 24 584c-3.82 4.45-7.56 8.73-12.06 12.5-3.8 3.19-6.67 6.79-9.59 10.78-.67.85-.67.85-1.35 1.72H0V0zm712 531c7.22 1.98 13.85 5.4 20.54 8.68 14.92 7.29 28.92 11.71 45.46 13.32v2h11c5.54 25.37 6.15 50.82 6.48 76.7.4 30.43 4.96 56.01 24.52 80.3.82 1.02 1.64 2.05 2.49 3.1 8.89 10.88 18.63 20.87 29.65 29.61 2.64 2.12 5.2 4.3 7.75 6.53 17.93 15.63 38.63 33.59 62.11 39.76.72 3.1 1.43 6.2 2.13 9.31.54 2.29 1.11 4.58 1.74 6.85 3.25 12.25 3.89 24.45-.99 36.32-.93 2.67-1.04 4.72-.88 7.52 9.64.64 17.38-2.49 26.19-6.12 6.24-2.55 12.07-3.93 18.81-3.88l-.03 3.9c-.04 4.8-.06 9.6-.08 14.4-.01 2.08-.02 4.15-.04 6.22-.03 2.99-.04 5.98-.05 8.98-.01 1.37-.01 1.37-.03 2.77 0 5.84.75 11.09 2.23 16.73 2.25 10.12-3.09 17.01-8.17 25.29-12.85 21.02-17.28 47.87-12.77 72.09 2.78 10.92 5.9 21.76 8.94 32.62H629l1-5c.11-1.54.19-3.08.22-4.62.03-.89.05-1.78.07-2.7 1.76-35.65 1.76-35.65-7.29-69.68-.84-.64-1.68-1.28-2.55-1.95-4.23-3.54-4.42-8.87-5.45-14.11-.25-1.2-.5-2.41-.76-3.65-.77-3.76-1.51-7.52-2.24-11.29-.22-1.13-.44-2.26-.67-3.43-3.26-16.72-6.03-33.52-8.78-50.33-.51-2.98-1.06-5.95-1.63-8.93-1.67-9.15-2.08-18.29-2.09-27.58 0-1.03 0-2.07-.01-3.14 0-2.17-.01-4.35-.01-6.53 0-3.29-.02-6.57-.03-9.86-.05-15.57 1.22-30.12 4.78-45.32.26-1.1.51-2.2.78-3.33C615.12 707.76 633.78 665.67 653 624c.75-1.62 1.5-3.25 2.24-4.87 3.11-6.74 6.22-13.48 9.34-20.21 3.23-6.98 6.45-13.96 9.58-20.99C696.01 529 696.01 529 712 531z" fill="#F3F3F3"/>
  <path d="M479 560c5.7 4.03 10.65 8.42 15.5 13.44 4.43 4.5 8.85 8.88 13.68 12.96 2.21 1.94 4.26 4.01 6.32 6.1 4.01 4.05 8.12 7.86 12.5 11.5.49.41.97.82 1.47 1.24 10.89 9.14 22.12 15.93 35.53 20.76l1 2c2.24 1.05 4.45 1.99 6.75 2.88.68.26 1.37.53 2.07.81 5.63 2.17 11.32 4.01 17.11 5.7 5.55 1.64 11.08 3.35 16.61 5.04 4.17 1.28 8.35 2.55 12.55 3.73 6.41 1.84 11.45 3.98 16.91 7.84-1.38 3.6-2.97 7.08-4.61 10.57C617.44 696.69 604.46 731.1 598 766c-.19 1-.37 2-.56 3.04-1.73 10.44-1.79 20.78-1.75 31.34v2.83c.04 30.19.04 30.19 5.31 59.79 1.16 6.63 1.11 13.29 1 20-1.21-.07-2.43-.14-3.68-.22-5.77-.32-11.54-.56-17.32-.78-1.12-.05-2.24-.1-3.4-.14-3.45-.14-6.9-.22-10.35-.3-1.08-.04-2.16-.09-3.28-.14-10.45-.14-15.5 4.15-22.87 11.08-1.69 1.68-3.37 3.37-5.04 5.06-.88.89-1.76 1.78-2.66 2.7-14.03 14.37-24.37 30.21-32.34 48.62-.36.84-.73 1.68-1.11 2.55-5.44 13.03-7.15 25.33-7.26 39.38-.05 1.8-.05 1.8-.09 3.64-.07 10.8 1.92 18.39 4.4 29.55H262v-63c-3.07-21.46-7.9-40.47-18.44-59.5-.32-.59-.64-1.17-.97-1.77-6.36-10.96-14.58-20.23-23.53-29.11-.93-.95-1.87-1.9-2.8-2.86C210.6 862.1 205.09 857.7 198 854c-.98-.52-1.97-1.04-2.98-1.58-4.26-2.22-8.54-4.39-12.83-6.56-5.66-2.91-11.06-5.92-16.27-9.58-1.91-1.27-3.85-2.3-5.92-3.28-.19-13 .4-25.95 1-38.94.1-2.15.19-4.29.29-6.44.23-5.21.47-10.41.71-15.62h2l-1-28c23.97-.3 47.28 1.63 71 5 .38 1.18.76 2.37 1.16 3.59 1.69 4.49 4.11 7.54 7.34 11.03 1.09 1.22 2.17 2.45 3.25 3.67.82.92.82.92 1.65 1.86 2.48 2.87 4.79 5.85 7.1 8.85 10.92 14.04 21.78 28 37.87 36.33 2.63 1.67 2.63 1.67 4.55 4.11 2.53 3.12 5.43 4.85 8.89 6.75l1.79 1.03c3.07 1.73 5.66 2.85 9.1 3.77 3.71 1.14 4.61 2.32 7.3 5.01 3.24 1.86 6.61 3.43 10 5 .95.44 1.89.89 2.87 1.35 6.59 3.04 13.15 5.65 20.13 7.65 2.17.66 4.33 1.33 6.5 2l3.3 1c2.98.93 5.89 1.95 8.82 3 17.95 5.95 37.16 7.87 55.8 10.5 25.31 3.59 25.31 3.59 35.58 7.5.7.25 1.4.5 2.12.76 7.26 2.71 13.49 6.13 19.68 10.76 3.01 2.02 5.67 2.79 9.2 3.48-.28-8.59-1.92-15.52-5.19-23.44-6.03-15.39-10.37-30.61-13.37-46.87-6.22-33.57-22.23-61.09-50.56-81.19-2.29-1.52-4.57-3.02-6.88-4.5-.63-.4-1.25-.8-1.9-1.22-35.02-22.23-75.43-31.04-116.48-31.34-.91-.02-1.83-.03-2.77-.05-18.05-.24-34.64 3.29-51.6 9.42-1.43.51-1.43.51-2.88 1.03-13.62 4.96-26.39 10.49-37.37 20.16v1l1.78.12c12.17.86 23.57 2.14 35.22 5.88v1l-21.39.39-9.94.18c-17.23.32-34.44.51-51.67.43-.01-.64-.01-1.27-.02-1.92-.06-6.67-.15-13.34-.24-20.01-.04-2.48-.06-4.96-.09-7.45-.03-3.58-.08-7.17-.14-10.76 0-1.09-.01-2.18-.02-3.31-.13-6.83-1.08-13.03-2.8-19.65-1.54-6.49-1.67-11.68 1.55-17.62 1-1.61 2.03-3.2 3.07-4.78.54-.85 1.08-1.71 1.63-2.58 1.12-1.77 2.24-3.54 3.37-5.3 2.64-4.11 5.2-8.27 7.75-12.43.45-.72.91-1.45 1.37-2.19 2-3.22 3.63-6.15 5-9.7 3.08-6.48 8.87-9.26 15.07-12.24.69-.34 1.38-.67 2.09-1.02 15.6-7.56 30.04-13.7 47.53-8.12 8.61 3.23 16.89 7.09 25.14 11.15 18.96 9.32 37.93 17.72 58.74 21.93.81.18 1.63.35 2.46.54 8.66 1.69 17.18 1.77 25.97 1.72 2.5-.01 5 0 7.51.01 12.46.02 24.36-.6 36-5.46.76-.31 1.52-.62 2.3-.93 2.26-.94 4.51-1.9 6.76-2.88.65-.28 1.29-.56 1.96-.85 16.51-7.29 28.54-18.55 39.7-32.49 1.47-1.82 2.96-3.61 4.45-5.4 7.26-8.73 13.8-17.69 19.89-27.26z" fill="#F3F3F3"/>
  <path d="M628 0h239l3 7c1.86 3.53 3.9 6.95 5.94 10.38.57.96 1.14 1.93 1.74 2.93C883.01 29.2 888.81 37.68 895 46c.43.59.87 1.17 1.32 1.77 2.82 3.8 5.72 7.53 8.68 11.23.44.56.88 1.11 1.34 1.69 9.55 12.45 9.55 12.45 22.67 20.25 4.7 1.51 7.89 2.94 10.25 7.49 8.68 21.51 11.71 42.58 6.86 65.15-.75 3.54-1.42 7.08-2 10.65-3.56 21.98-9.92 43.48-19.12 63.77l-1.21 2.68c-1.25 2.69-2.54 5.35-3.85 8.01-.39.82-.78 1.64-1.18 2.49-1.11 2.16-2.14 4-3.76 5.82-3.41.73-3.41.73-7 1-2.34 1.46-4.33 2.84-6.44 4.56-.54.43-1.08.85-1.64 1.29-1.31 1.04-2.62 2.09-3.92 3.15 0-4.07 1.89-6.75 3.88-10.19.4-.71.8-1.41 1.22-2.14 2.86-4.99 5.88-9.87 8.96-14.73C924.7 206.73 934.42 183.05 931 155c-1.57-5.98-4.56-10.91-8-16-.59-.94-1.17-1.87-1.77-2.84-8.51-12.98-20.4-24.21-32.23-34.16-.85-.74-1.71-1.49-2.59-2.25C879.31 93.7 872.35 88.59 863 87l-.2 1.67c-2.42 20.11-6.9 36.96-18.18 54.08-6.68 10.18-12 20.79-16 32.31-.35 1.01-.35 1.01-.72 2.03-3.94 12.07-4.24 24.89-4.21 37.47-.02 1.3-.03 2.59-.05 3.92-.01 24 10.67 42.22 21.58 62.82 4.52 8.57 8.26 17.16 11.44 26.32 1.16 3.35 2.18 6.14 4.16 9.12.39.74.78 1.49 1.18 2.26-3.2 9.79-9.62 18.81-14.94 27.56-5.34 8.84-10.56 17.73-15.68 26.69-19.53 33.98-19.53 33.98-31.38 47.75l-1.35 1.57c-8.4 9.66-17.79 18.11-27.45 26.48-3.55 3.15-7.01 6.38-10.48 9.61-2.81 2.6-5.64 5.15-8.6 7.59-2.95 2.5-5.41 5.28-7.91 8.23-2.35 2.68-4.79 5.28-7.24 7.88-5.49 5.81-10.79 11.67-15.78 17.93-1.97 2.44-4.01 4.82-6.07 7.19-9.17 10.59-17.35 22.02-24.83 33.86-.43.55-.85 1.1-1.29 1.66h-2c-2.16-4.33-2.22-8.36-1-13 2.58-3.87 6.06-7 9.34-10.27 9.54-9.5 16.92-21.09 23.53-32.76 1.19-2.07 2.41-4.12 3.63-6.17 9.45-16.14 15.97-33.67 20.5-51.8.25-.96.25-.96.5-1.95 8.02-32.86 1.22-67.79-15.96-96.5-.52-.84-1.04-1.69-1.57-2.56l-1.55-2.58c-1.01-1.66-2.04-3.31-3.09-4.94-3.45-5.64-3.45-5.64-2.86-9.75 1.51-2.69 3.05-4.84 5.15-7.1.64-.68 1.27-1.37 1.92-2.08.48-.51.96-1.02 1.46-1.54-11.2-4.13-23.07-6.49-35-7-.68-.03-1.36-.07-2.06-.1-31.24-1.32-55.88 12.55-78.57 33.29-1.54 1.42-3.07 2.84-4.6 4.26a226.22 226.22 0 01-6.77 5.99c-10.24 8.94-18.82 18.75-27 29.56-16.46 21.71-16.46 21.71-25.35 23.78-6.29 1.47-12.11 4.18-18.03 6.72-1.18.5-2.37 1-3.59 1.51-5.97 2.3-5.97 2.3-11.03 5.99h-3c.59-3.3 1.61-5 3.88-7.44 3.23-3.57 6.39-7.19 9.5-10.87.47-.56.94-1.12 1.43-1.7 2.95-3.48 5.8-7.03 8.63-10.61 6.54-8.03 14.35-14.64 22.37-21.13 31.87-25.86 44.14-66.88 56.95-104.28.41-1.2.83-2.41 1.25-3.66.77-2.24 1.53-4.48 2.28-6.72l1-2.97c.29-.85.57-1.7.86-2.58C621 230 621 230 623 228c.63-1.71 1.26-3.42 1.83-5.15 1.83-2.89 4.09-4.5 7.17-5.85 3.6-.79 7.21-1.11 10.88-1.44 47.99-5.27 87.29-24.51 122.12-57.56.64-.59 1.28-1.18 1.94-1.78 8.63-8.17 15.14-17.94 21.06-28.16.45-.76.9-1.53 1.36-2.32 10.25-18.14 17.5-37.75 24.7-57.24l5.04-13.53c.4-1.09.81-2.18 1.23-3.31a551.69 551.69 0 019.8-24.4c2.27-5.38 3.76-10.52 4.87-16.26-4.21.53-8.43 1.06-12.64 1.6l-4.29.54c-7.48.94-14.92 1.96-22.34 3.38-4.26.75-8.55 1.27-12.84 1.82C744.27 23.32 704.02 33.12 673 58c-.52.41-1.04.83-1.57 1.25C645.58 79.99 629.12 108.97 625 142c-.25 4.84-.25 9.67-.24 14.51 0 1.38-.01 2.76-.02 4.14-.04 5.79-.06 11.57-.05 17.35.04 25.98-3.05 49.67-12.69 74-.28.72-.56 1.44-.85 2.18-4.47 11.37-4.47 11.37-8.15 13.82-1.03-2.84-1.93-5.65-2.55-8.61-2.36-11-7.69-19.83-13.9-29.07-2.42-3.63-4.73-7.32-7.05-11.01-5.2-8.26-10.44-16.51-15.69-24.75-3.3-5.17-6.57-10.35-9.81-15.56 7.16 12.79 14.62 25.31 22.51 37.66 2.53 3.98 5.02 8 7.49 12.03.44.72.89 1.43 1.35 2.17 2.81 4.6 5.29 9.29 7.65 14.14.47.9.93 1.8 1.41 2.72.4.77.8 1.55 1.21 2.34.41.78.81 1.55 1.23 2.35 2.52 5.69 3.43 10.83 3.4 17.03l.02 3.74c-1.86 26.7-19.51 53.04-37.27 71.82-.76.82-1.52 1.64-2.3 2.49-6.56 6.89-13.86 12.2-21.7 17.51-1-2-1-2-.26-4.61.38-1.04.75-2.07 1.14-3.14 2.73-7.62 3.27-14.5 3.33-22.52l.09-6.13c.04-3.19.07-6.38.1-9.57.1-10.86.36-21.32 2.52-31.98 1.55-7.87 1.63-15.68 1.58-23.67v-2.36c-.06-13.52-1.64-26.02-5.5-39.02-.35-1.31-.71-2.61-1.06-3.92-6.63-22.27-18.58-41.86-33.94-59.08-.64-.73-1.29-1.46-1.95-2.21-10.02-10.67-22.6-17.97-35.46-24.64-5.05-2.64-9.43-5.24-13.59-9.15v-1c8.99-.12 17.98-.19 26.97-.18 4.17 0 8.34-.01 12.52-.08 4.03-.06 8.06-.07 12.1-.04 1.53.01 3.07-.01 4.6-.05 12.04-.27 12.04-.27 16.58 3.89 2.01 2.74 3.71 5.42 5.23 8.46 1.51-1.51 1.34-3.02 1.58-5.13 1.74-14.18 3.94-27.46 11.42-39.87h2v-4c.68 0 1.36-.01 2.05-.01 14.17-.59 22.3-9.75 31.95-19.07 3.33-3.2 6.69-6.34 10.06-9.48.61-.57 1.22-1.14 1.84-1.73 2.67-2.5 5.33-4.89 8.18-7.18 3.33-2.88 5.89-5.98 8.54-9.47.47-.59.93-1.19 1.41-1.8 4.57-5.9 8.27-11.33 10.59-18.51.41-1.22.81-2.44 1.23-3.7C626.16 9.43 627.06 4.71 628 0z" fill="#F3F2F2"/>
  <path d="M498 0h130c-.69 6.89-1.18 11.51-3.31 17.75-.41 1.23-.82 2.46-1.24 3.73-3.24 7.87-9.04 14.06-14.45 20.52-.61.74-1.23 1.48-1.86 2.24-3.36 3.96-6.9 7.44-10.86 10.8-2.71 2.33-5.34 4.73-7.97 7.15-.5.46-1.01.92-1.53 1.4-2.74 2.51-5.44 5.04-8.12 7.61-14.69 14.02-14.69 14.02-24.72 14.11-1.65-.08-3.3-.17-4.94-.31v4h-2c-.29.74-.58 1.48-.88 2.24-.65 1.6-1.32 3.2-2.05 4.77-5.52 12.37-7.25 26.66-9.07 39.99-2.06-1.83-3.75-3.36-4.77-5.96-1.11-2.62-2.08-4.14-4.23-6.04-5.16-1.23-10.31-1.07-15.58-1l-4.62-.03c-4.04-.03-8.09-.01-12.13.02-4.13.02-8.26-.01-12.39-.03-8.09-.03-16.19-.01-24.28.04 2.85 2.31 5.5 4.44 8.79 6.08 1.03.53 1.03.53 2.08 1.06 1.09.55 1.09.55 2.19 1.11 26.91 13.96 47.11 33.93 60.94 60.75l.97 1.88c5.09 10.01 8.93 20.34 12.03 31.12.21.72.43 1.43.65 2.17 3.39 11.88 3.74 23.75 3.79 36.02l.02 2.28c.04 9.03-.63 17.54-2.36 26.39-1.29 6.72-1.65 13.36-1.79 20.2-.03 1.17-.07 2.33-.1 3.53-.08 2.8-.15 5.61-.21 8.41h-2c-.26-1.48-.26-1.48-.52-2.99l-.73-3.89c-.23-1.27-.46-2.55-.7-3.86-.72-3.27-.72-3.27-2.86-4.67-2.34-.63-4.53-1-6.94-1.21-.8-.08-1.6-.15-2.42-.23L526 307c-.1.57-.2 1.15-.3 1.74C521.43 328 509.12 344.76 494 357c-.88.77-1.76 1.53-2.67 2.32-26.22 22.63-60.1 37.72-94.77 40.24-4.18.32-7.1.88-10.56 3.44-3.57 4.54-5.89 9.66-8 15h-3c.16-.74.32-1.48.49-2.24.72-5.29.67-10.52.68-15.85 0-1.18 0-2.35.01-3.57 0-2.49.01-4.98.01-7.47 0-3.76.02-7.53.03-11.29.45-19.53.45-19.53-3.22-38.58-.2-2.43-.36-4.87-.5-7.31-.26-4.64-.65-9.12-1.5-13.69l-3 1c-.88 2.37-1.56 4.62-2.19 7.06-1.99 7.29-4.29 14.42-6.75 21.56-2.67 7.86-5.04 15.71-7.06 23.76-8.46 33.46-18.51 66.96-46.69 89.12-5.79 4.67-9.38 8.85-10.31 16.5h-2l-1-2c-2.52-.48-2.52-.48-5.59-.68-1.17-.1-2.34-.2-3.54-.31-1.26-.11-2.51-.21-3.81-.32-14.85-1.43-28.61-3.97-42.06-10.69-.27.91-.54 1.81-.81 2.75-1.09 2.96-2.17 4.87-4.19 7.25-1.08-3.97-.86-6.43.44-10.31.28-.89.57-1.77.87-2.68.23-.66.45-1.33.69-2.01-.86-.36-.86-.36-1.73-.72-8.06-4.55-15.42-15.38-19.4-23.63-3.59-6.92-8.89-8.81-15.78-11.64-17.12-7.03-31.54-19.36-44.86-31.98-2.16-2.04-4.34-4.02-6.58-5.96-17.52-15.33-26.04-34.32-33.63-55.99C108.1 317.11 103 306.83 96 297.5c-2.81-3.82-3.89-6.88-4.32-11.59.44-2.61 1.21-3.32 3.32-4.91 2.79-.39 2.79-.39 6.19-.4l3.78-.02c1.34.01 2.69.03 4.03.04l2.06.02c11.2.08 22 .87 32.94 3.36.74.17 1.48.33 2.25.5 18.73 4.33 36.96 10.73 54.69 18.12 1.07.45 2.14.89 3.24 1.35 15.56 6.65 15.56 6.65 19.82 13.03 3.16.74 3.16.74 6.94 1.19 16.32 2.62 33.02 10.66 45.85 21.08 2 1.94 2 1.94 4.21 1.73.5-1.05.99-2.1 1.5-3.18 3.83-7.96 7.67-15.12 13.5-21.82.8-1.03 1.61-2.06 2.44-3.12 3.26-3.67 6.77-6.78 10.56-9.88.86-.71 1.73-1.43 2.62-2.16 21.71-17.14 49.1-24.08 76.38-24.84-1.2 5.43-2.77 10.59-4.98 15.69-.36.84-.72 1.69-1.09 2.55-.73 1.67-1.47 3.33-2.24 4.97-5.16 11.97-2.62 24.13.19 36.41 3.31 14.99 5.48 29.32 6.24 44.63l.27 4.89c.21 3.96.41 7.91.61 11.86 5.29-8.42 6.37-17.04 7.5-26.69 1.85-15.57 5.28-29.17 12.81-43.12.48-.9.96-1.8 1.45-2.73 3.49-6.4 7.3-12.08 12.24-17.46.95-1.14.95-1.14 1.92-2.3 10.86-12.88 25.36-20.91 40.08-28.7-.51-3.8-1.11-5.51-4.06-7.94-13.06-12.47-19.28-34.14-23.94-51.06-.27-.92-.53-1.84-.81-2.79-2.5-9.54-2.7-18.68-2.63-28.46.01-1.25.01-1.25.01-2.52.07-18.08 2.61-35.14 6.89-52.7.8-3.74 1.02-6.72.54-10.53-2.98-3.77-6.19-5.08-10.62-6.75-6.81-2.74-12.01-6.28-17.38-11.25l-2.48-2.24C394.62 86.6 385.09 69.08 375 53c-.48-.77-.97-1.54-1.47-2.34-4.61-7.37-8.73-14.89-12.49-22.73-2.64-5.39-5.75-10.36-9.25-15.24C349.24 8.98 348.57 6.48 349 2c5.21-.26 9.48 0 14.51 1.41 6.5 1.69 12.93 2.5 19.61 3.15 1.21.13 2.41.25 3.65.38 7.25.73 14.5 1.32 21.76 1.83 31.78 2.22 60.03 11.28 81.94 35.43 18.61 21.92 31.9 51.32 39.53 78.8.24-1 .48-2.01.73-3.04 5.45-22.32 5.45-22.32 8.27-27.96-.62-.38-1.25-.77-1.89-1.16-2.64-2.3-3.02-3.88-3.86-7.26-.27-1.08-.55-2.16-.84-3.28l-.85-3.49c-.6-2.36-1.21-4.73-1.82-7.09-.29-1.15-.59-2.3-.89-3.49-1.42-5.38-3.1-10.67-4.81-15.96-.34-1.08-.69-2.16-1.04-3.27-.37-1.16-.75-2.33-1.13-3.52-.87-3.47-1.08-6.36-.99-9.92.01-1.05.03-2.1.05-3.18.03-1.18.03-1.18.07-2.38-.75-.12-1.49-.23-2.26-.36-8.13-1.91-12.63-8.78-17.08-15.35C500 9 500 9 498 0z" fill="#2B0000"/>
  <path d="M867 0h157v350l-11-6c-6.92-3.69-13.87-6.88-21.19-9.69-.71-.28-1.43-.57-2.17-.86-13.15-4.89-26.9-5.95-40.8-5.84-2.34.01-4.68 0-7.02-.02-23.71-.03-44.49 5.45-62.27 21.64-7.34 7.66-12.8 16.91-18.55 25.77-6.75 10.35-13.54 20.64-21 30.5-.52.69-1.03 1.38-1.56 2.08-6.27 8.13-13.44 12.26-22.44 16.98-2.13 1.13-4.25 2.25-6.38 3.38-.98.52-1.97 1.05-2.99 1.59a59.6 59.6 0 00-6.13 3.93c-2.5 1.54-2.5 1.54-4.88 1.29L794 434c.41-.6.82-1.21 1.24-1.83.54-.8 1.08-1.6 1.64-2.42.53-.79 1.06-1.58 1.61-2.39 1.33-2.08 2.46-4.14 3.51-6.36-2.48 1.98-2.48 1.98-5 4 1.6-3.72 3.96-6.42 6.56-9.5 12.95-16 22.65-34.95 32.75-52.83 4.7-8.31 9.56-16.48 14.8-24.46 6.45-9.43 6.45-9.43 8.89-20.21-.75-2.33-.75-2.33-1.8-4.72-1.31-3.13-2.57-6.24-3.71-9.44-4.84-13.17-11.33-25.34-18.05-37.62-9.29-17.02-13.84-31.71-13.75-51.22 0-1.02 0-1.02.01-2.07.16-28.92 8.5-51.71 24.11-75.93 8.99-13.97 12.92-28.99 14.83-45.41C862 89 862 89 863 87c12.44.23 21.07 9.53 29.57 17.66 2.12 1.99 4.31 3.91 6.49 5.84 10.04 9.08 18.7 18.07 25.94 29.5.72 1.09 1.44 2.19 2.18 3.31 7.77 13.74 6.65 31.15 3.32 46.19-5.61 18.76-15.73 35.42-26.29 51.75A135.21 135.21 0 00896 256c.95-.73 1.91-1.47 2.89-2.22 1.26-.95 2.53-1.9 3.8-2.84.62-.49 1.25-.97 1.89-1.47 4.76-3.51 4.76-3.51 8.38-3.28.67.27 1.35.54 2.04.81.26-.85.51-1.71.77-2.59 1.3-3.6 2.96-6.65 4.85-9.97 13.09-23.88 19.31-50.91 23.86-77.51.68-3.84 1.5-7.63 2.33-11.43 3.33-16.94-.7-34.26-6.88-50.17-1.32-3.4-1.93-5.62-1.93-9.33-.55-.14-1.09-.27-1.65-.41-6.66-1.9-11.14-5.12-16.35-9.59-.67-.54-1.34-1.07-2.03-1.62-5.82-4.8-10.38-10.43-14.97-16.38-.55-.71-1.1-1.42-1.67-2.15-8.65-11.15-16.64-22.55-23.97-34.61-1.35-2.22-2.72-4.42-4.1-6.62-.84-1.35-1.67-2.71-2.51-4.06-.38-.61-.77-1.22-1.16-1.84-2-3.3-2.59-4.74-2.59-8.72z" fill="#310707"/>
  <path d="M526 306c1.99.2 3.97.49 5.94.81 1.08.17 2.16.35 3.27.52C538 308 538 308 540 310c6.4 21.1-2.33 48.22-11.81 67.06-3.54 6.04-8.38 10.91-13.19 15.94-1.2 1.37-2.38 2.74-3.56 4.12-10.8 12.3-23.04 21.02-36.99 29.38-2.31 1.28-2.31 1.28-3.45 2.5 2.67-1.48 5.33-2.96 8-4.44.81-.45 1.62-.9 2.46-1.36 4.68-2.6 9.36-5.22 14.02-7.87 9.27-5.25 18.4-10 28.4-13.73 6.7-2.55 13.29-5.41 19.89-8.21 1.01-.42 2.01-.85 3.05-1.28.9-.38 1.8-.76 2.73-1.16 4.62-1.79 8.53-2.1 13.5-2.2l4.27-.09c.74-.02 1.49-.03 2.25-.05 28.78-.63 57.03-2.64 83.86-14.09 3.16-1.34 6.3-2.49 9.57-3.52.7 2.21.7 2.21 1 5-1.26 2.29-1.26 2.29-3.12 4.62-10.99 14.83-12.48 31.22-12.38 49.07 0 .84 0 1.68.01 2.54.05 12.57.84 23.97 5.49 35.77.51 1.41 1.03 2.82 1.54 4.23 3.56 9.41 8.22 18.2 12.96 27.05 7.63 14.3 13.67 26.9 13.88 43.34.01.89.02 1.77.04 2.68-.05 6.09-1.13 11.07-3.42 16.7l-.79 1.94c-.83 1.97-1.7 3.92-2.59 5.87-.34.76-.68 1.52-1.03 2.31-2.09 4.66-4.25 9.29-6.44 13.9-5.07 10.71-9.98 21.41-14.44 32.38-.36.89-.72 1.78-1.09 2.69-1.8 4.42-3.57 8.85-5.33 13.29-.65 1.62-1.3 3.25-1.95 4.88-.3.75-.59 1.51-.89 2.28-1.45 3.6-2.14 5.25-5.45 7.46-1.6-9.66-2.37-19.13-2.78-28.9-1.86-42.9-9.84-82.15-41.97-113.08-33.92-30.34-78.41-40.52-122.24-46.6-2.5-.35-5-.71-7.49-1.08-13.76-1.86-27.66-1.99-41.52-2.34l-1-5c6.93-3.57 13.95-6.78 21.12-9.81.96-.41 1.92-.82 2.9-1.23 2.33-.99 4.65-1.98 6.98-2.96-.64.25-1.28.5-1.94.76-17.25 6.73-34.6 13.09-52.06 19.24.82.04 1.64.09 2.49.14 3.73.21 7.47.44 11.2.67 1.94.11 1.94.11 3.92.22 1.87.12 1.87.12 3.78.24 1.14.07 2.29.14 3.47.21 5.69.95 8.66 3.7 11.95 8.27 7 10.01 14.86 22.51 16.54 34.8.46 2.59.46 2.59 2.6 4.28 2.35 2.49 2.82 4 3.51 7.32.22 1 .44 2 .67 3.03.22 1.05.45 2.11.68 3.2 2.99 12.88 6.75 23.95 16.19 33.62-9.45.51-18.34-1.05-27.56-2.81-1.2-.23-1.2-.23-2.42-.45-17.34-3.24-34.56-7.07-51.76-11.01-37.18-8.44-73.35-9.05-106.81 11.63a212.462 212.462 0 00-29.1 22.55c-10.68 9.51-22.1 15.45-35.88 19.08-4.43 1.29-8.55 3.06-12.75 4.96-2.91 1.12-5.64 1.64-8.72 2.05 1.66-4.15 4.66-7.07 7.69-10.25 1.1-1.17 2.2-2.34 3.29-3.51.53-.56 1.06-1.12 1.6-1.7 1.68-1.82 3.27-3.7 4.86-5.6 4.53-5.24 9.75-9.77 14.88-14.41 1.61-1.47 3.21-2.94 4.8-4.43 6.42-5.97 13.05-11.61 19.88-17.1 1.18-.97 2.36-1.95 3.54-2.92 10.57-8.71 21.42-16.99 32.46-25.08.6-.44 1.21-.89 1.83-1.34 15.57-11.34 32.62-20.56 49.35-30.05 6.66-3.79 13.28-7.63 19.82-11.61-.67.36-1.33.73-2.02 1.1-3.03 1.65-6.07 3.27-9.1 4.9-1.05.57-2.1 1.14-3.18 1.73-1.02.55-2.03 1.09-3.08 1.65-.93.5-1.87 1-2.83 1.52-3.12 1.23-5.46 1.31-8.79 1.1 2.12-4.14 4.32-7.48 7.5-10.88 15.79-17.4 26.62-38.76 35.67-60.26 2.5-5.75 4.54-9.4 9.83-12.86 2.95-.98 5.66-1.31 8.75-1.59 36.29-3.43 68.61-18.92 96.25-42.41.77-.62 1.54-1.25 2.33-1.89 9.64-8.05 16.3-17.89 22.17-28.86.42-.78.84-1.56 1.28-2.36 2.4-4.65 3.91-8.99 4.84-14.15C525 307 525 307 526 306z" fill="#F2F2F2"/>
  <path d="M151 677c3 2 3 2 3.68 3.79.14.72.27 1.45.42 2.19.16.82.32 1.65.48 2.49.24 1.35.24 1.35.48 2.72.17.93.34 1.86.52 2.82 2.8 16.22 3.82 32.55 3.42 48.99-1.29.12-2.58.24-3.9.37l-5.04.51c-.85.07-1.7.15-2.57.23-.81.09-1.62.17-2.45.26l-2.27.22c-.88.2-.88.2-1.77.41l-1 2h18c.09 6.27-.04 12.49-.43 18.76-.04.7-.09 1.4-.13 2.12-.09 1.49-.19 2.97-.28 4.46-1.19 19.27-1.47 38.49-1.42 57.79.01 4.26 0 8.53-.01 12.8-.01 3.38 0 6.75 0 10.13v4.72c-.11 47.24 15.99 89.21 40.32 129.07C213 1010.17 213 1010.17 213 1024H0V828c10-5 10-5 13.94-6.75 13.26-6.71 26.02-20.14 35.49-31.45 5.78-6.6 13.11-10.65 20.63-14.99C79.68 769.15 88.57 763.3 97 756c1.01-.83 2.01-1.67 3.05-2.52 19.66-16.97 31.01-40.55 42.91-63.14l1.85-3.49c.55-1.03 1.09-2.06 1.65-3.13 1.36-2.41 2.82-4.55 4.54-6.72z" fill="#F3F3F3"/>
  <path d="M1024 404c.09 27.31.16 54.62.21 81.93.02 12.69.05 25.37.09 38.05.04 11.05.07 22.1.08 33.15 0 5.85.01 11.7.04 17.56.03 5.5.04 11.01.03 16.51 0 2.03.01 4.05.03 6.07.02 2.76.01 5.52 0 8.28.01.8.02 1.61.04 2.44-.04 3.54-.14 5.54-2.41 8.33-.7.55-1.39 1.11-2.11 1.68-14.65 22.32-17.59 45.65-12.51 71.63 1.42 6.57 3.44 12.97 5.51 19.37.8 2.48 1.59 4.96 2.38 7.44.33 1.03.67 2.06 1.02 3.12.6 2.44.6 2.44-.4 4.44-1.05-.47-2.1-.94-3.18-1.43-10.69-4.87-10.69-4.87-21.82-8.57-.76-.2-1.53-.41-2.32-.62-14.1-3.14-27.49-3.17-40.13 4.24-4.34 2.78-8.09 6.04-11.73 9.69C935 729 935 729 933 729c-.16-.87-.32-1.74-.49-2.63-6.77-33.34-21.11-71.68-43.21-97.83-.87-1.03-1.73-2.08-2.59-3.13-8.66-10.64-19.32-17.91-30.71-25.41-1.18-.78-2.35-1.56-3.53-2.34-1.91-1.27-3.83-2.54-5.74-3.81-7.94-5.39-15.38-11.22-22.43-17.74-2.07-1.9-4.2-3.69-6.36-5.49-6.15-5.36-12.26-11.81-14.94-19.62 2.76-.92 4.46-1.13 7.31-1.18 40.19-.94 81.06-6 116.69-25.82 1.2-.64 2.39-1.28 3.59-1.93 17.73-9.67 33.4-22.39 47.24-37.06 1.33-1.39 2.75-2.71 4.17-4.01h3c-.98-2.12-.98-2.12-3-4a51.81 51.81 0 00-7.75-.56c-15.71-.11-30.15-5.15-44.83-10.18-24.54-8.36-48.26-11.63-74.14-11.52-3.11.01-6.21 0-9.31-.01-10.18-.01-19.98.14-29.97 2.27-1.05.21-1.05.21-2.13.43-19.7 4.22-39.1 14.2-54.87 26.57-1.21.94-1.21.94-2.44 1.89-2.55 2.01-5.05 4.06-7.56 6.11-.92.73-1.83 1.46-2.78 2.21-8.54 6.97-16.24 14.69-23.89 22.62l-2.61 2.67-2.32 2.41c-2.65 2.31-5.14 3.76-8.4 5.09l-2-1c5.74-8.66 11.9-16.63 18.7-24.48 1.93-2.25 3.76-4.58 5.61-6.9 4.33-5.31 8.97-10.3 13.68-15.27 2.95-3.13 5.83-6.27 8.57-9.6 11.89-13.7 27.92-22.49 43.68-30.94 11.97-6.46 24.03-13.28 35.12-21.19 4.24-2.61 7.82-2.3 12.64-1.62 6.06 1.6 11.57 4.27 17.19 7 33.05 15.42 80.03 15.56 114 3.88 14.56-5.32 28.27-13.06 41.92-20.34 4.79-2.54 4.79-2.54 5.89-2.54z" fill="#F3F2F2"/>
  <path d="M659 763c6.81-.27 12.75.33 19.31 2.12 1.3.34 1.3.34 2.63.69 4.28 1.13 8.54 2.32 12.79 3.58 1.61.47 3.22.95 4.83 1.42 1.26.37 1.26.37 2.54.75 7.81 2.25 15.71 4 23.63 5.75C775.46 788.52 823.88 806.67 862 843c.83.77 1.66 1.53 2.52 2.32 21.05 20.04 37.37 49.42 40.48 78.68.02 1.73.03 3.46.02 5.18 0 .91-.01 1.81-.01 2.74 0 .68-.01 1.37-.01 2.08-5.44.05-10.89.09-16.33.11-1.85.01-3.7.02-5.55.04-2.67.03-5.34.04-8 .05-1.24.01-1.24.01-2.49.03-4.62 0-8.29-.46-12.63-2.23.32.87.65 1.74.98 2.64.98 3.24 1.3 5.78 1.37 9.15.02 1.11.05 2.23.08 3.38l.06 3.6c.07 2.55.13 5.09.2 7.63.1 3.99.19 7.98.26 11.97.08 3.87.19 7.73.29 11.59.02 1.19.04 2.37.05 3.6.21 6.89.97 11.59 4.71 17.44 2.69 2.34 2.69 2.34 5.88 4 1.13.65 2.27 1.31 3.45 1.98 1.22.67 2.45 1.35 3.67 2.02 1.93 1.08 3.85 2.17 5.77 3.26 1.77 1 3.55 1.99 5.33 2.98 2.39 1.45 4.18 2.59 5.9 4.76v2h-32l-7-13c-4.53-3.02-6.85-4.52-11.72-5.97-1.63-.51-1.63-.51-3.29-1.02-1.15-.36-2.3-.71-3.49-1.07-18.66-5.99-35.69-14.35-51.5-25.94-.55-.4-1.1-.8-1.66-1.21-11.68-8.59-22.62-18.14-33.22-28.01-2.64-2.44-5.32-4.77-8.12-7.03-12.67-11.13-21.27-26.55-30-40.75-.87-1.39-1.74-2.79-2.61-4.18-9.44-15.28-16.27-31.06-22.35-47.95-.7-1.93-1.4-3.85-2.11-5.77-1.96-5.31-3.72-10.59-5.24-16.04-5.42-18.71-11.48-39.47-23.02-55.41-1.86-2.96-1.82-4.26-1.67-7.65z" fill="#2B0000"/>
  <path d="M368 318h3c1.72 4.51 2.3 8.44 2.5 13.25.29 5.25.79 10.2 2 15.31 1.58 7.69 1.65 15.25 1.63 23.08 0 1.19 0 2.39.01 3.63 0 2.52-.01 5.04-.01 7.56 0 3.86 0 7.71.01 11.57 0 2.45-.01 4.91-.01 7.36 0 1.15.01 2.31.01 3.49-.01 1.62-.01 1.62-.01 3.26v2.85c-.13 2.64-.13 2.64-.7 5.3-.65 2.48-.65 2.48.57 5.34-.54 1.8-.54 1.8-1.48 3.82-.36.75-.71 1.51-1.07 2.28-.6 1.22-.6 1.22-1.2 2.46-.61 1.27-.61 1.27-1.23 2.55-8.66 17.59-19.8 32.74-32.31 47.75-1.74 2.02-1.74 2.02-2.71 4.14 6.87-.36 11.88-3.32 17.81-6.62 1.88-1.05 3.76-2.08 5.65-3.11.82-.46 1.65-.92 2.5-1.39.67-.29 1.35-.58 2.04-.88l2 1c-2.01 1.15-4.03 2.3-6.04 3.45-1.84 1.05-3.68 2.11-5.52 3.16-4.89 2.79-9.78 5.58-14.68 8.35-29.52 16.67-56.87 35.37-82.67 57.42-2.89 2.46-5.83 4.86-8.78 7.24-7.22 5.89-14.1 12.07-20.61 18.72-1.75 1.71-3.58 3.27-5.45 4.85-8.4 7.25-15.66 15.91-22.25 24.81 1.68-.6 1.68-.6 3.4-1.21 1.51-.53 3.03-1.07 4.54-1.6.78-.28 1.57-.56 2.38-.85 3.76-1.32 7.51-2.63 11.3-3.84 14.42-4.81 25.17-10.56 36.44-20.92C280.52 552.74 303.7 539.07 332 534c1.41-.29 1.41-.29 2.85-.58 4.57-.61 9.1-.65 13.71-.67l2.71-.06c19.83-.11 39.42 5.01 58.65 9.31 23.56 5.27 47.06 10.35 71.08 13-1.26 5.31-2.98 8.9-6.25 13.38-.43.59-.87 1.18-1.31 1.79-5.31 7.16-11.02 13.99-16.75 20.81-1.57 1.88-3.13 3.77-4.68 5.67C434.46 618.03 409.9 633.16 382 636c-5.46.31-10.92.33-16.39.32-2.47-.01-4.95.02-7.42.04-10.14.04-19.3-.94-29.19-3.36-.87-.19-1.73-.39-2.62-.59-19.67-4.44-37.44-12.79-55.49-21.56-24.44-12.19-24.44-12.19-51.08-10.41-1.95.82-3.88 1.68-5.81 2.56-1.61.69-3.23 1.37-4.84 2.06-1.79.77-3.57 1.54-5.35 2.32-1.26.54-1.26.54-2.55 1.09-5.03 2.25-9.27 4.79-13.55 8.26-1.71 1.27-1.71 1.27-4.83 2.52-3.97 2.41-5.43 5.63-7.58 9.67-.65 1.03-.65 1.03-1.3 2.08h-2c-.52-12.37.61-23.1 4-35 .27-.99.55-1.98.83-3 1.02-3.57 2.18-7.01 3.49-10.48 1.3-3.45 2.5-6.92 3.67-10.41 7.41-21.84 17.01-42.15 28.01-62.42.42-.78.84-1.55 1.27-2.35 2.48-4.44 5.25-8.45 8.34-12.47 5.23-7.05 8.74-15.22 11.55-23.48 1.04-2.96 2.35-5.63 3.84-8.39 3.71.83 7.23 2.11 10.81 3.38 14.47 4.88 29.05 6.4 44.19 7.62l1 3h2l.06-3.5c1.03-7.81 7.51-12.23 13.32-16.88 28.39-22.76 37.14-61.88 45.63-95.58 3.69-14.55 8.3-29.15 13.99-43.04z" fill="#2B0101"/>
  <path d="M180 91c.88.27 1.75.55 2.65.83 28.18 8.95 54.06 22.39 78.87 38.31 5.3 3.4 10.67 6.64 16.09 9.84 2.12 1.26 4.22 2.54 6.32 3.85 7.55 4.64 15.46 8.04 23.65 11.37.75.31 1.49.61 2.26.93 1.41.57 2.83 1.12 4.26 1.66 1.66.66 3.29 1.43 4.9 2.21l1 3c-5.99 5.17-12.49 8.24-19.74 11.32-9.97 4.25-19.67 8.76-29.14 14.06-20.96 11.69-41.6 19.86-65.49 23.25-2.29.32-4.57.68-6.86 1.05-22.49 3.35-47.52 2.94-69.77-1.68-.86-.17-1.71-.34-2.6-.52-25.82-5.28-53-14.95-72.4-33.48l-1-3c1.15-1.66 1.15-1.66 2.94-3.5 9.32-10.2 15.84-19.46 15.42-33.7-.95-7.46-4.03-13.76-8.36-19.8v-2c-.59-.28-1.19-.56-1.8-.84-2.04-1.08-3.61-2.21-5.39-3.66C49.03 105.29 41.4 101.25 34 97c1.78-3.31 2.91-3.97 6.55-5.16 1.44-.32 2.88-.62 4.33-.9 1.41-.31 2.82-.61 4.24-.91 1.14-.24 1.14-.24 2.31-.48 2.98-.64 5.94-1.35 8.9-2.07C97.73 78.85 143.4 79.28 180 91zm683-4c12.44.23 21.07 9.53 29.57 17.66 2.12 1.99 4.31 3.91 6.49 5.84 10.04 9.08 18.7 18.07 25.94 29.5l2.18 3.31c7.77 13.74 6.65 31.15 3.32 46.19-5.61 18.76-15.73 35.42-26.29 51.75A135.21 135.21 0 00896 256c.95-.73 1.91-1.47 2.89-2.22 1.26-.95 2.53-1.9 3.8-2.84.62-.49 1.25-.97 1.89-1.47 4.76-3.51 4.76-3.51 8.38-3.28.67.27 1.35.54 2.04.81-1.27 2.64-2.64 5.05-4.33 7.44-.46.66-.92 1.31-1.4 1.99-.5.7-1 1.41-1.52 2.13-.53.75-1.06 1.49-1.6 2.26-4.55 6.39-9.19 12.7-13.86 19.01-9.58 12.95-18.95 26.05-28.29 39.17-1.87-.22-1.87-.22-4-1-1.16-1.99-1.16-1.99-2.05-4.53-.34-.91-.67-1.82-1.01-2.76-.31-.89-.62-1.79-.94-2.71-5.28-14.64-12.1-28.15-19.56-41.78-9.29-17.02-13.84-31.71-13.75-51.22 0-.68 0-1.36.01-2.07.16-28.92 8.5-51.71 24.11-75.93 8.99-13.97 12.92-28.99 14.83-45.41C862 89 862 89 863 87zM0 830c4.65 3.72 7.72 7.09 11.25 11.75.57.75 1.14 1.5 1.72 2.27 9.46 12.72 16.74 26.62 21.19 41.87 3.42 11.6 9.24 18.62 17.78 26.99 19.34 19.01 32.06 43.26 32.44 70.66-.05 30.13-.05 30.13-10.38 40.46H0V830zm1024-623c.18 6.39.3 12.77.38 19.16.04 2.17.09 4.34.15 6.51.08 3.13.12 6.26.15 9.39.04.96.08 1.92.11 2.91.01 7.66-2.71 11.49-7.79 17.03-1.28 1.78-2.55 3.57-3.81 5.38-15.14 20.8-36.24 34.64-61.38 40.18-.95.22-1.9.43-2.88.65-7.5 1.62-14.99 2.67-22.61 3.55-8.65 1.04-17.15 2.69-25.7 4.36-10.87 2.14-21.5 3.85-32.62 3.88 1.59-4.76 4.23-8.46 7.12-12.5.79-1.1.79-1.1 1.59-2.23 4.29-5.99 8.74-11.86 13.23-17.71 12.27-16.03 23.65-32.24 34.06-49.56.62-1.02 1.23-2.05 1.87-3.11.37-.62.74-1.25 1.13-1.89l2 2c.52-.33 1.04-.65 1.58-.99 11.15-6.94 22.14-13.32 34.42-18.01 1-.39 2-.77 3.04-1.17 17.69-6.08 37.35-7.85 55.96-7.83z" fill="#2B0000"/>
  <path d="M237 463c3.71.83 7.23 2.11 10.81 3.38 14.47 4.88 29.05 6.4 44.19 7.62.48 1.41.95 2.83 1.43 4.24.39 1.18.39 1.18.8 2.39 2.81 8.63 5.81 20.39 1.52 28.83-1.78 2.08-3.64 3.79-5.75 5.54-.65.63-1.3 1.26-1.98 1.9-4.88 4.62-10.23 8.47-15.72 12.32-5.67 3.99-11 8.31-16.3 12.78-1.05.87-2.1 1.75-3.15 2.62a432.552 432.552 0 00-30.33 27.89c-2.14 2.11-4.3 4.1-6.58 6.05-8.98 7.74-16.5 16.3-23.63 25.72-1.23 1.61-2.48 3.22-3.72 4.83-4.81 6.25-9 12.66-12.96 19.47-.81 1.2-.81 1.2-1.63 2.42h-2c-.52-12.37.61-23.1 4-35 .27-.99.55-1.98.83-3 1.02-3.57 2.18-7.01 3.49-10.48 1.3-3.45 2.5-6.92 3.67-10.41 7.41-21.84 17.01-42.15 28.01-62.42.42-.78.84-1.55 1.27-2.35 2.48-4.44 5.25-8.45 8.34-12.47 5.23-7.05 8.74-15.22 11.55-23.48 1.04-2.96 2.35-5.63 3.84-8.39z" fill="#F2F2F2"/>
  <path d="M1023 253h1v97l-11-6c-6.92-3.69-13.87-6.88-21.19-9.69-.71-.28-1.43-.57-2.17-.86-13.15-4.89-26.9-5.95-40.8-5.84-2.34.01-4.68 0-7.02-.02-23.71-.03-44.49 5.45-62.27 21.64-7.34 7.66-12.8 16.91-18.55 25.77-6.75 10.35-13.54 20.64-21 30.5-.52.69-1.03 1.38-1.56 2.08-6.27 8.13-13.44 12.26-22.44 16.98-2.13 1.13-4.25 2.25-6.38 3.38-.98.52-1.97 1.05-2.99 1.59a59.6 59.6 0 00-6.13 3.93c-2.5 1.54-2.5 1.54-4.88 1.29L794 434c3.16-4.99 6.55-9.76 10.16-14.44 6.47-8.43 12.08-17.17 17.5-26.31 1.29-2.17 2.61-4.33 3.95-6.48 9.24-14.93 17.94-30.18 26.62-45.45.49-.86.98-1.72 1.49-2.61.9-1.58 1.8-3.16 2.69-4.75 3.43-5.99 6.99-12.16 13.59-14.96 3.11-.5 6.23-.65 9.38-.81 9.54-.68 18.81-2.23 28.18-4.13 8.89-1.8 17.75-3.5 26.75-4.68 29.66-4.03 57.09-14.34 75.94-38.88 3.61-4.81 7.08-9.72 10.47-14.67C1022 254 1022 254 1023 253z" fill="#F1F1F1"/>
  <path d="M993.016 122.743c7.35-.6 12.72 2.7 18.98 6.19 1.05.57 2.1 1.13 3.18 1.71 7.57 4.1 7.57 4.1 8.82 5.36.1 2.21.12 4.42.12 6.63v2.1c0 2.3-.01 4.6-.02 6.9v4.77l-.03 12.58c-.01 4.27-.01 8.55-.02 12.83-.01 8.39-.03 16.79-.05 25.19-.82.08-1.64.16-2.48.24-3.1.31-6.2.63-9.3.94l-5.93.6c-28.06 2.86-51.7 10.37-75.31 25.97-1.98 1.25-1.98 1.25-2.98 1.25.48-6.91 2.05-12.38 4.69-18.75 6.44-16.33 10.7-32.6 13.49-49.93 2.33-13.9 7.68-22.94 19.03-31.39 3.6-2.49 7.24-4.93 10.92-7.31.67-.44 1.34-.88 2.03-1.34 5.02-3.16 9-3.79 14.86-4.54zM1006 0h18v98l-8 3c-2.2 1.18-2.2 1.18-3.96 2.49-.66.45-1.31.91-1.98 1.38-.66.48-1.32.95-2 1.44-1.4.99-2.8 1.98-4.2 2.96-.66.47-1.33.95-2.01 1.43-2.96 2.08-6 4.04-9.05 5.98-1.9 1.31-1.9 1.31-3.59 3.24-2.34 2.21-4.41 3.38-7.32 4.74-.98.46-1.96.93-2.98 1.41l-3.1 1.43c-1 .47-2 .95-3.04 1.43-5.89 2.77-11.81 5.46-17.77 8.07-1.01-14.19 1.82-27.64 4.39-41.55.68-3.87 1.25-7.75 1.78-11.64 4.25-31.28 16.43-55.25 39.22-77.14 2.02-2.09 3.8-4.4 5.61-6.67z" fill="#F3F2F2"/>
  <path d="M368 318h3c1.72 4.51 2.3 8.44 2.5 13.25.29 5.25.79 10.2 2 15.31 2.24 10.96 1.94 22.25 2.07 33.39.04 2.47.09 4.94.16 7.41.51 17.3-1.37 30.39-9.73 45.64-.42.78-.84 1.57-1.27 2.37-8.71 16.25-20.12 30.27-32.73 43.63a379.34 379.34 0 00-3.75 4.25c-.55.63-1.1 1.25-1.66 1.89-1.07 1.25-2.1 2.52-3.11 3.81-6.56 8.14-15.26 14.6-25.48 17.05l-.15-1.92c-.24-2.91-.48-5.81-.73-8.7-.07-1-.15-2-.23-3.03-.44-5.1-1.08-9.53-2.89-14.35-.78-4.01-.91-7.43 1.18-11.04 4.07-4.89 9.1-8.66 14.05-12.62 26.39-22.26 34.72-61.33 42.78-93.3 3.69-14.55 8.3-29.15 13.99-43.04z" fill="#F2F1F1"/>
  <path d="M0 0h74c-8.52 17.99-16.56 34.03-28 50-1.07 1.51-2.14 3.01-3.21 4.52-9.36 13.14-18.96 25.81-30.05 37.55-2.92 3.09-5.66 6.33-8.34 9.64C3 103 3 103 0 103V0z" fill="#2D0303"/>
  <path d="M900 0h61c9.7 22.63 7.67 40.56 1.76 63.95-1.04 4.19-1.99 8.39-2.88 12.61-.16.73-.31 1.46-.47 2.21-1.64 7.97-2.88 16.01-4.1 24.04-.16 1.02-.32 2.05-.48 3.1-.13.91-.27 1.82-.41 2.76C954 111 954 111 953 114l-3-1c-.94-2.41-.94-2.41-1.72-5.62-.29-1.18-.58-2.35-.88-3.56-.3-1.26-.59-2.52-.9-3.82-.47-1.92-.47-1.92-.94-3.87-1.62-6.78-3.12-13.56-4.25-20.44-4.12-24.9-14.28-45.74-31.82-63.87-2.21-2.3-3.47-3.75-4.49-6.82l-2-1c-2-1-2-1-3-4z" fill="#F2F1F1"/>
  <path d="M214 0h48c-1.04 9.4-2.44 18.68-4 28-.18 1.09-.36 2.18-.55 3.3-4.57 27.23-4.57 27.23-9.45 36.7-.39.77-.79 1.54-1.19 2.34-3.03 5.15-7.13 9.15-11.43 13.22-.57.54-1.13 1.08-1.71 1.63C229.49 89 229.49 89 225 89c-.1-1.13-.2-2.25-.3-3.41-2.4-26.75-4.85-53.43-10.18-79.78C214 3 214 3 214 0z" fill="#2C0101"/>
  <path d="M0 0h2c.87 1.36 1.75 2.73 2.62 4.09C10.05 11.6 17.36 16.96 25 22c11.94 7.97 11.94 7.97 14 12 2.09 10.98-3.99 21.25-9.88 30.1C20.89 75.35 11.15 85.47 1 95H0V0z" fill="#F3F2F2"/>
  <path d="M553 177c2.3 2.14 3.89 4.26 5.46 6.96.47.79.93 1.58 1.41 2.4.5.85.99 1.7 1.51 2.58 4.26 7.21 8.65 14.31 13.24 21.31 5.22 7.96 10.35 15.97 15.34 24.07.94 1.52 1.89 3.03 2.85 4.54 5.61 9.01 8.67 17.63 10.19 28.14 2.69-2.35 3.84-4.55 5.12-7.87.38-.96.75-1.92 1.14-2.91.39-1.02.78-2.04 1.18-3.1.4-1.03.8-2.06 1.21-3.13 2.76-7.24 5.3-14.5 7.35-21.99l2 2c-.43 6.7-3.41 13.48-5.63 19.75-.54 1.51-.54 1.51-1.08 3.06-.75 2.13-1.51 4.26-2.26 6.39-1.14 3.19-2.26 6.39-3.38 9.59-13.72 38.91-31.02 68.85-63.06 95.19-4.66 3.9-8.38 8.23-12.15 12.97-3.14 3.92-6.38 7.73-9.63 11.55-2.07 2.42-4.08 4.85-6.01 7.38-.59.7-1.19 1.4-1.8 2.12h-2l-2 6c.96-.5 1.92-.99 2.9-1.5 7.29-3.74 14.64-7.32 22.16-10.56l2.09-.94c4.76-2 7.81-2.15 12.85-1-3.83 3.39-8.36 4.88-13.06 6.69-1.82.71-3.63 1.43-5.44 2.14-.92.36-1.84.73-2.79 1.1-20.46 8.08-40.09 17.66-58.44 29.89L470 431l-3-1c.92-.53 1.84-1.07 2.79-1.62 13.06-7.65 25.26-15.86 36.21-26.38.63-.61 1.27-1.21 1.92-1.84 23.05-22.53 31.66-49.58 33.08-81.16h1v5h2c.06 3.33.09 6.67.12 10l.06 2.83c.04 5.79-.53 10.62-2.18 16.17l-.85 3.19-.77 2.81c-.27.95-.53 1.9-.79 2.88-.2.7-.39 1.4-.59 2.12 28.71-20.36 52.12-48.78 59.66-84.09 1.63-13.98-.24-25.37-8-37.17-1.49-2.45-2.74-4.9-4-7.48-2.46-4.98-5.27-9.61-8.28-14.26-1.07-1.66-2.13-3.32-3.18-4.98-.54-.83-1.07-1.67-1.62-2.53C553 181.06 553 181.06 553 177z" fill="#381010"/>
  <path d="M0 351c10.18 6.48 17.39 12.87 25.07 21.77a508.84 508.84 0 008.65 9.72c3.86 4.2 8.04 7.89 12.48 11.47 2.25 2.55 1.96 3.75 1.8 7.04l-3.01-.03c-3.74-.04-7.49-.06-11.23-.08-1.61-.01-3.22-.02-4.83-.04-2.33-.03-4.67-.04-7-.05l-2.12-.03c-6.9 0-12.73 1.14-19.81 2.23v-52z" fill="#2D0202"/>
  <path d="M997 835c.77 20.1-3.91 43.81-17.42 59.67-1.15 1.15-2.36 2.25-3.58 3.33-7.76-7.76-5.3-27.43-5.31-37.75-.01-.76-.01-1.51-.01-2.29-.01-2.19 0-4.38.02-6.57l.03-3.87c.61-7.86.61-7.86 3.27-10.52 7.6-2.22 15.14-2.22 23-2z" fill="#F0EFEF"/>
  <path d="M374 417h3c-.54 4.15-1.45 7.38-3.37 11.09-.73 1.41-.73 1.41-1.48 2.85-.78 1.49-.78 1.49-1.59 3l-1.64 3.1c-6.71 12.53-14.54 23.77-23.42 34.84-2.92 3.65-5.72 7.37-8.5 11.12 6.87-.36 11.88-3.32 17.81-6.62 1.88-1.05 3.76-2.08 5.65-3.11.82-.46 1.65-.92 2.5-1.39.67-.29 1.35-.58 2.04-.88l2 1c-2.01 1.15-4.03 2.3-6.04 3.45-1.84 1.05-3.68 2.11-5.52 3.16-4.89 2.79-9.78 5.58-14.68 8.35-29.52 16.67-56.87 35.37-82.66 57.41-2.92 2.49-5.88 4.91-8.85 7.32-4.88 3.96-9.59 8.09-14.25 12.31l-2-1c.51-.5 1.02-.99 1.54-1.5 3.25-3.21 6.42-6.37 9.27-9.94 4.12-4.87 9.18-8.64 14.19-12.56.69-.54 1.38-1.08 2.08-1.64 14.52-11.42 14.52-11.42 22.04-16.74 5.08-3.63 11.03-7.93 13.88-13.62.72-10.43-.59-19.87-3-30h2v-5h1c3.35 10.8 4.12 21.78 5 33 13.02-5.5 21.88-13.46 31-24 .63-.7 1.25-1.4 1.89-2.12 1.73-1.94 3.42-3.91 5.11-5.88.75-.86 1.49-1.71 2.26-2.59 13.39-15.64 26.13-33.76 32.74-53.41z" fill="#381010"/>
  <path d="M0 207c17 0 17 0 21 3-1.1 7.06-3.03 13.05-6.19 19.44-.4.82-.79 1.64-1.2 2.48C5.52 248.32 5.52 248.32 0 252v-45z" fill="#2D0303"/>
  <path d="M230 471l2 1c-.17 8.72-4.42 16.62-9.89 23.31-16.57 21.07-27.05 48.77-36.11 73.69-.36.98-.72 1.97-1.1 2.98a304.5 304.5 0 00-5.89 17.66c-.66 2.21-1.36 4.41-2.08 6.59-3.21 10.14-4.12 20.21-4.93 30.77-2.95-3.38-2.95-3.38-3.18-6.05.36-2.66.74-5.3 1.18-7.95.26-1.63.26-1.63.54-3.29 1.64-9.04 4.14-17.7 6.86-26.47 1.08-3.48 2.09-6.97 3.04-10.48 3.34-12.32 7.47-24.06 12.56-35.76.35-.81.7-1.61 1.06-2.45 6.07-13.86 13.66-26.33 22.56-38.55 5.33-7.45 10.47-16.28 13.38-25z" fill="#3A1313"/>
  <path d="M679 564c1.33 3.99-.09 6.05-1.8 9.65l-.94 2.03c-1.04 2.24-2.09 4.47-3.14 6.7-.73 1.57-1.46 3.15-2.19 4.72-1.53 3.31-3.06 6.61-4.6 9.91-3.66 7.84-7.28 15.69-10.89 23.55-.35.76-.7 1.53-1.07 2.31-15.59 33.68-15.59 33.68-29.37 68.13h-3c-1-2-1-2-.17-4.5.44-1.04.88-2.07 1.34-3.14.48-1.13.96-2.27 1.46-3.44l1.56-3.61c.49-1.17.99-2.34 1.5-3.55 4.09-9.57 4.09-9.57 6.67-13.9 1.89-2.75 1.89-2.75 1.64-5.86h2c.28-.73.57-1.47.86-2.22 1.02-2.49 2.15-4.81 3.4-7.19 2.97-5.87 5.35-11.96 7.76-18.08 6.73-17.06 14.41-33.6 22.38-50.1 1.13-2.42 2.18-4.81 3.18-7.28C677 565 677 565 679 564zM455 438c-21.4 9.71-21.4 9.71-32 14v4l29 1v1h-10v2l6 1-3 1v2l3 1c-1.11-.14-2.23-.29-3.38-.44-4.13-.53-8.27-.87-12.42-1.18C430 463 430 463 427 461c-3.1-.46-3.1-.46-6.64-.63-1.3-.09-2.59-.17-3.93-.26-1.37-.08-2.75-.16-4.12-.23l-4.15-.27c-3.38-.21-6.77-.41-10.16-.61 1.57-3.14 4.7-3.48 7.87-4.54l2.13-.73c1.51-.52 3.01-1.04 4.52-1.55 11.58-3.95 23.06-7.93 34.18-13.03 5-2.25 5-2.25 8.3-1.15z" fill="#3C1515"/>
  <path d="M546 85c1.01 2.96 1.4 5.11.09 8.03-.42.75-.84 1.51-1.28 2.28-5.68 10.51-7.09 22.98-8.32 34.71C536 133 536 133 534 136l-8-12c1.98-.5 1.98-.5 4-1 .24-1 .48-2.01.73-3.04 5.45-22.32 5.45-22.32 8.27-27.96l-2-2h5c.12-.64.25-1.28.38-1.94.3-1.02.3-1.02.62-2.06 2-1 2-1 3-1z" fill="#411A1A"/>
  <path d="M553 177c2.3 2.14 3.89 4.26 5.46 6.96l1.41 2.4c.5.85.99 1.7 1.51 2.58 4.26 7.21 8.65 14.31 13.24 21.31 5.22 7.96 10.35 15.97 15.34 24.07.94 1.52 1.89 3.03 2.85 4.54 6.99 11.23 10.18 20.92 8.19 34.14h-1c-.03-.65-.05-1.31-.08-1.98-.65-10.49-3.48-19.48-9.26-28.28-1.49-2.45-2.74-4.9-4-7.48-2.46-4.98-5.27-9.61-8.28-14.26-1.07-1.66-2.13-3.32-3.18-4.98-.54-.83-1.07-1.67-1.62-2.53C553 181.06 553 181.06 553 177z" fill="#553233"/>
  <path d="M964 61l2 1c-.16.8-.16.8-.32 1.63-2.11 10.77-4.11 21.55-5.73 32.41-.47 3.1-.96 5.98-1.95 8.96-1.49.5-1.49.5-3 1-.1-4.72.21-9.09 1.02-13.75.22-1.25.44-2.5.66-3.78.23-1.29.46-2.58.7-3.91.22-1.28.44-2.57.67-3.89 2.34-13.4 2.34-13.4 3.95-18.67l2-1z" fill="#441D1D"/>
  <path d="M471 470c5.36 1.57 10.09 3.96 15 6.56 1.24.66 1.24.66 2.51 1.33 7.43 3.97 14.51 8.4 21.49 13.11l-2 2c-4 0-5.8-1.73-9-4l1-2c-1.31-.16-1.31-.16-2.65-.33-3.44-.69-5.88-1.75-8.97-3.39-1.52-.81-1.52-.81-3.08-1.63-1.05-.57-2.1-1.13-3.18-1.71-1.06-.57-2.13-1.14-3.24-1.72-2.63-1.4-5.26-2.81-7.88-4.22v-4z" fill="#3E1818"/>
  <path d="M552 390c-2.71 2.17-5.21 3.65-8.45 4.9-.85.34-1.7.67-2.57 1.01l-2.67 1.03c-1.73.67-3.46 1.35-5.2 2.02-.85.33-1.7.66-2.57 1-3.25 1.33-6.4 2.84-9.54 4.41-2.39.75-3.67.44-6-.37 4.65-5.18 10.51-7.15 16.81-9.81 1.17-.52 2.33-1.03 3.53-1.56 1.13-.48 2.26-.97 3.43-1.46 1.03-.44 2.05-.88 3.11-1.34 3.71-.99 6.39-.59 10.12.17z" fill="#4F2C2D"/>
  <path d="M178 580l1 2h2c-.97 4.93-2.18 9.59-3.83 14.34-3.44 10.09-4.44 20.06-5.17 30.66-2.95-3.38-2.95-3.38-3.18-6.05 1.89-13.99 5.26-27.42 9.18-40.95z" fill="#452020"/>
  <path d="M1015 1014c4.4 1.35 6.47 3.16 9 7v3h-16c5.88-8.88 5.88-8.88 7-10z" fill="#EDEBEB"/>
  <path d="M295 472h1c3.56 10.82 3.71 21.71 4 33h-3c-.04-.76-.07-1.53-.11-2.32-.54-8.79-2-17.09-3.89-25.68h2v-5z" fill="#543232"/>
  <path d="M619 228l2 2c-1.16 7.3-3.65 14.12-6.12 21.06-.38 1.06-.75 2.12-1.13 3.2-.91 2.58-1.83 5.16-2.75 7.74l-3-1c3.67-11 7.33-22 11-33zM497 410l2 1c-3.08 4.47-6.77 6.96-11.44 9.63-.83.48-1.66.95-2.52 1.45l-2.6 1.48-5.13 2.94c-.76.44-1.51.87-2.29 1.31-1.71 1.01-3.37 2.09-5.02 3.19l-3-1c.92-.53 1.84-1.07 2.79-1.62 14.4-8.1 14.4-8.1 27.21-18.38z" fill="#462121"/>
  <path d="M513 494c2.44.81 2.44.81 5 2l1 3c2.02.73 2.02.73 4 1l1 5c-5.09-1.59-8.87-4.74-13-8l2-1v-2z" fill="#3C1515"/>
  <path d="M365 471l2 1c-3.37 1.94-6.75 3.88-10.12 5.81-.96.55-1.91 1.1-2.89 1.66-4.61 2.64-9.2 5.23-13.99 7.53 1.48-3.95 3.47-5.14 7.16-7.05 1.02-.53 2.04-1.07 3.09-1.62 1.08-.54 2.15-1.08 3.25-1.64 1.07-.57 2.14-1.13 3.25-1.71 5.89-3.04 5.89-3.04 8.25-3.98z" fill="#441E1E"/>
  <path d="M368 318h3c1.97 4.93 2.18 8.78 2 14h-1l-1-6-6 2c.31-1.48.62-2.96.94-4.44.17-.82.35-1.64.52-2.49C367 319 367 319 368 318z" fill="#A09797"/>
  <path d="M984 123v2a98.418 98.418 0 01-6 3.62c-1.11.64-2.23 1.27-3.38 1.92-.86.48-1.73.96-2.62 1.46l-1-2c2.15-2.36 4.2-3.79 7.06-5.19.69-.34 1.39-.69 2.1-1.04C982 123 982 123 984 123z" fill="#492424"/>
  <path d="M170 613c2 2 2 2 2.2 4.82l-.08 3.3c-.01 1.1-.03 2.2-.05 3.33-.02.84-.05 1.68-.07 2.55-2.07-2.28-2.98-3.44-3.07-6.58.12-.88.25-1.76.38-2.67.12-.89.24-1.78.37-2.7.1-.68.21-1.35.32-2.05z" fill="#5E3F3F"/>
  <path d="M525 503c2.87 1.29 4.98 2.57 7 5v2c-3.8-.54-5.47-2.2-8-5l1-2z" fill="#441E1E"/>
  <path d="M70 532l4 1-3 4-3-1 2-4z" fill="#D9D7D1"/>
</svg>
