<svg version="1.1" xmlns="http://www.w3.org/2000/svg" viewBox="0 0 1024 1024">
  <path d="M0 0h1024v1024H0V0z" fill="#2C0101"/>
  <path d="M0 0h628c-.75 8.3-1.57 13.68-4.81 20.94-.52 1.23-.52 1.23-1.04 2.49-1.87 4.31-3.56 7.44-7.15 10.57-.92 1.21-1.82 2.44-2.69 3.69-5.12 6.94-11.49 12.72-18.04 18.31-2.3 2.03-4.53 4.14-6.75 6.26-23.61 22.33-23.61 22.33-36.33 22.86-.72-.04-1.44-.08-2.19-.12v3c-.58.52-1.15 1.03-1.75 1.56-5.63 6.1-7.21 15.41-8.94 23.32-.21.95-.43 1.91-.65 2.9-1.46 6.73-2.5 13.31-2.66 20.22-2.37-2.79-4.34-5.53-6.06-8.75-1.61-3.5-1.61-3.5-4.94-4.25-1.77-.08-3.54-.11-5.31-.1-1.08.01-2.17.01-3.29.01l-3.55.03c-1.81 0-1.81 0-3.65.01-5.16.02-10.33.04-15.49.07-3.76.02-7.53.03-11.3.04l-3.53.03c-1.1 0-2.19 0-3.31.01-.96 0-1.91.01-2.9.01-2.66-.11-5.07-.54-7.67-1.11-1.44-.06-2.88-.09-4.31-.06L456 122c3.41 2.87 6.76 5.07 10.72 7.1 1.09.57 2.18 1.14 3.31 1.72 1.14.6 2.29 1.19 3.47 1.8 35.37 18.66 56.89 49.29 68.99 86.93 7.71 25.24 9.49 52.87 2.96 78.61-.67 4.2-.51 8.35-.44 12.6.02 1.95.03 3.89.05 5.83.03 3.05.06 6.09.11 9.13.04 2.95.07 5.9.09 8.85.02.9.04 1.79.05 2.72.03 6.37-1.21 11.72-3.31 17.71-.31.97-.63 1.94-.95 2.95-.24.71-.49 1.43-.74 2.17-.37 1.12-.37 1.12-.76 2.26-.18.54-.36 1.07-.55 1.62 28.45-21.67 54.74-50.94 60-88 .2-2.7.32-5.36.38-8.06.03-.69.07-1.38.11-2.09.19-11.62-6.94-21.76-12.93-31.23-.71-1.13-1.42-2.27-2.12-3.41-3.94-6.3-7.94-12.56-11.95-18.82-5.26-8.2-10.38-16.45-15.24-24.89-.5-.87-1-1.73-1.52-2.63-2.39-4.2-4.42-8.18-5.73-12.87 2.68 2.43 4.4 5.08 6.27 8.17l1.92 3.17c.68 1.13 1.36 2.25 2.06 3.41 5.42 8.91 10.95 17.73 16.69 26.44 21.93 33.42 21.93 33.42 25.55 50.61.3 2.16.3 2.16 1.51 3.2 4.67-10.42 9.16-20.87 12.81-31.69.4-1.15.4-1.15.81-2.32.86-2.65 1.63-5.31 2.38-7.99.54-1.77.54-1.77 1.09-3.58 4.1-14.74 3.25-29.76 2.97-44.92-.69-39.79-.69-39.79 6.13-59.12.3-.88.6-1.75.91-2.65 12.65-35.62 38.39-59.7 72.04-75.75 28.99-13.38 60.2-19.01 91.68-22.89 4.59-.58 9.13-1.24 13.67-2.11 5.54-1.04 11.08-1.62 16.7-2.1.95-.09 1.9-.18 2.88-.27 2.31-.21 4.62-.41 6.93-.61-.46 7.23-2.84 13.01-5.69 19.62-4.43 10.57-8.51 21.22-12.42 31.98-11.59 31.97-23.6 63.23-45.89 89.4-.61.73-1.22 1.46-1.84 2.22-4.03 4.76-8.4 8.77-13.16 12.78-1.08.94-2.16 1.88-3.23 2.82-31.58 27.56-69.47 42.64-111.2 46.63l-2.2.22c-1.99.19-3.98.35-5.98.51-4.43 1.07-5.71 2.11-8.39 5.82-1.64 3.98-2.86 8.05-4.06 12.19-2.06 6.86-4.17 13.57-6.91 20.19-1.63 4.13-2.98 8.34-4.38 12.54-11.76 35.26-26.38 66.27-55.95 89.89-4.39 3.56-8.56 7.35-12.7 11.19-.9.82-.9.82-1.83 1.66-4.23 4.02-7.69 8.55-11.18 13.21-3.55 4.69-7.42 9.02-11.5 13.26-2.19 2.31-3.47 3.8-4.49 6.87l5-1c-1 3-1 3-2.88 4.19-.81.38-1.63.76-2.47 1.16-.9.43-1.81.87-2.74 1.32-.98.46-1.96.92-2.97 1.39-6.78 3.28-13.34 6.62-19.63 10.75-20.13 13.04-42.07 22.44-64.31 31.19v2c.86.1 1.71.19 2.6.29 8.62 1.09 16.42 2.98 24.65 5.83 1.76.61 1.76.61 3.55 1.22 26.63 9.26 64.26 25.07 81.2 48.66-4.27-.54-6.68-1.95-10.07-4.56-26.9-20.22-56.89-39.12-90.93-43.44-1.94-.28-1.94-.28-3.92-.56-4.35-.6-8.71-1.05-13.08-1.44-.69-.07-1.37-.13-2.08-.2-28.23-2.38-55.09 16.08-78.3 29.9-4.18 2.47-8.4 4.83-12.68 7.12-15.51 8.33-29.61 18.84-43.3 29.87-2.22 1.78-4.48 3.53-6.72 5.28-12.81 9.98-25.37 20.2-37.16 31.37-1.97 1.86-3.96 3.7-5.96 5.54-9.9 9.19-19.43 18.49-27.8 29.12.81-.32.81-.32 1.64-.64 2.58-1 5.16-1.99 7.74-2.98.94-.37 1.89-.74 2.87-1.11 5.34-2.04 10.69-3.93 16.16-5.62 11.84-3.69 19.42-9.51 28.5-17.92 18.28-16.48 41.11-30.67 65.09-36.73.88-.23 1.76-.45 2.67-.68 6.8-1.43 13.6-1.52 20.52-1.57l2.75-.03c14.02.07 27.63 2.37 41.27 5.45 2.38.54 4.76 1.06 7.15 1.59 3.29.72 6.58 1.45 9.88 2.18 7.1 1.58 14.21 3.15 21.32 4.68.99.22.99.22 1.99.43 16.71 3.58 33.57 6.28 50.45 8.95-1.5 4.79-3.46 8.49-6.44 12.5-.44.6-.88 1.21-1.33 1.83-8.16 11.11-16.84 21.73-25.89 32.11-1.3 1.51-2.55 3.07-3.79 4.63-14.63 16.82-40.56 28.94-62.57 31.13-2.1.09-4.2.13-6.3.14-.77 0-1.55.01-2.34.02-2.49.02-4.98.02-7.46.02-.85-.01-1.7-.01-2.58-.01-13.47-.03-26.22-.95-39.3-4.37-.73-.18-1.46-.35-2.21-.54-15.18-3.71-29.41-10.18-43.31-17.24-.65-.33-1.3-.66-1.98-1-3.23-1.64-6.46-3.3-9.67-4.99-8.03-4.17-15.98-7.19-24.83-9.23-1.12-.31-2.24-.61-3.4-.93-10.77-2.38-17.97 1.23-27.41 5.93-1.45.68-2.9 1.37-4.35 2.04-6.75 3.2-13.19 6.52-19.25 10.93C186 619 186 619 184 619c-.12.74-.24 1.48-.36 2.24-.64 2.75-1.47 4.53-2.94 6.92-.48.78-.96 1.57-1.45 2.38-.51.83-1.03 1.66-1.56 2.52-.79 1.31-.79 1.31-1.6 2.64-2.81 4.62-5.66 9.21-8.55 13.78-.56.88-1.11 1.77-1.67 2.68-1.06 1.69-2.13 3.37-3.21 5.04-.48.77-.96 1.55-1.46 2.35-.42.67-.85 1.33-1.29 2.02-2.24 5.97-.8 11.43 1.07 17.27 3.28 11.63 2.44 23.7 2.27 35.66-.08 8.09-.16 16.17-.25 24.5l84-1c-9.36-4.68-20.44-5.32-30.76-5.79-2.84-.18-5.47-.57-8.24-1.21 12.53-13.54 35.78-20.93 53-26.44 1.04-.33 1.04-.33 2.09-.67 13.59-4.12 26.45-5.4 40.53-5.27.84.01 1.68.01 2.54.02 12.01.06 23.74.57 35.56 2.92 2.35.45 4.7.84 7.07 1.21 32.45 5.45 64.89 20.15 90.21 41.23 1.42 1.17 1.42 1.17 2.86 2.36 11.62 10.05 20.08 22.09 27.14 35.64.47.86.94 1.73 1.43 2.62 5.24 10.41 7.49 22.35 9.57 33.74 3.63 19.54 9.58 39.04 17.15 57.44 1.02 2.63 1.05 4.71.97 7.51-.01.89-.03 1.77-.05 2.68-.03.99-.03.99-.07 2.01-6.41-.48-10.99-3.6-15.89-7.51-2.46-1.74-4.89-2.8-7.67-3.93-.95-.39-1.9-.78-2.88-1.18-1.18-.46-2.35-.91-3.56-1.38-.71-.31-1.42-.62-2.16-.94-9.22-3.77-18.86-4.83-28.65-6.18-1.76-.26-3.52-.51-5.28-.77-6.29-.91-12.59-1.79-18.89-2.65-7.17-1-14.26-2.17-21.33-3.71-.99-.21-1.97-.43-2.98-.65-7.53-1.69-14.66-3.99-21.87-6.71-3.54-1.32-7.12-2.31-10.78-3.27-12.67-3.5-24.72-9.53-36.06-16.12v-2c-1.2-.08-1.2-.08-2.42-.17-4.89-1.14-8.6-3.5-12.83-6.14-.81-.49-1.63-.98-2.47-1.48-.78-.48-1.56-.95-2.36-1.45-.7-.43-1.41-.87-2.14-1.31-2.01-1.64-2.66-3.14-3.78-5.45-.85-.27-1.69-.54-2.56-.81-4.96-1.72-8.43-4.87-12.44-8.19-.6-.46-1.2-.93-1.82-1.41-5.01-4-8.81-8.85-12.79-13.85-2.76-3.44-5.58-6.84-8.39-10.24-1.21-1.47-2.42-2.94-3.62-4.41-2.02-2.44-4.04-4.88-6.07-7.31C234 753.97 234 753.97 234 749c-1.47.04-1.47.04-2.96.09-5.06 0-9.89-1.01-14.84-1.94-12.39-2.21-24.97-2.38-37.51-2.71-1.53-.05-3.06-.09-4.59-.13-3.7-.11-7.4-.21-11.1-.31.16.71.33 1.42.49 2.16.51 2.86.62 5.46.61 8.36-.01 1.02-.01 2.04-.01 3.1l-.03 3.19c0 1.08-.01 2.15-.01 3.26-.01 2.64-.03 5.29-.05 7.93h-2c.01.79.02 1.58.04 2.39 0 1.09.01 2.18.02 3.3.01 1.05.03 2.11.04 3.2-.03 3.32-.29 6.61-.57 9.92-.69 8.49-.88 16.99-1.09 25.5-.05 1.63-.09 3.26-.13 4.88-.11 3.94-.21 7.87-.31 11.81.74.27 1.48.55 2.25.83 2.56 1.09 4.53 2.28 6.78 3.89 5.56 3.79 11.47 6.76 17.47 9.78 19.37 9.77 19.37 9.77 25.56 16.44 2.53 2.64 5.08 5.09 7.88 7.44 26.1 22.69 40.45 59.64 43.06 93.62.14 4.43.14 8.85.13 13.28 0 1.87 0 1.87.01 3.78 0 3.29-.01 6.58-.01 9.86-.01 2.7 0 5.39 0 8.09.01 3.21.01 6.43 0 9.64 0 1.21.01 2.42.01 3.66 0 1.12-.01 2.23-.01 3.37v2.98C263 1022 263 1022 262 1024H0V0z" fill="#2C0101"/>
  <path d="M0 0h498l4 10c4.76 7.72 10.13 15.04 19 18 .08.88.16 1.76.25 2.66 1.16 10.5 3.86 20.03 7.19 30.03.98 3 1.96 6 2.93 9.01.24.71.47 1.43.71 2.16 1.71 5.28 3.05 10.59 4.17 16.03L537 90l3 1c-1.46 6.41-2.94 12.81-4.56 19.19-1.33 5.24-2.44 10.5-3.44 15.81-3.15-1.75-3.95-2.85-5.17-6.31-.35-1.37-.69-2.75-1.02-4.13-2.78-10.39-7.18-19.88-11.81-29.56-.49-1.05-.49-1.05-1-2.12-13.42-28.52-29.57-53.99-60.46-65.13-3.16-.98-6.34-1.87-9.54-2.75-3.31-1.05-6.62-2.11-9.93-3.17-5.45-1.48-10.81-1.91-16.43-2.07-10.82-.32-21.52-1.4-32.26-2.64-.73-.08-1.46-.16-2.22-.24-7.79-.88-15.35-1.92-22.87-4.23-3.41-.97-6.77-1.32-10.29-1.65 1.29 5.59 3.34 9.33 6.69 13.94 3.55 5.07 6.34 10 8.62 15.75 3.78 9.31 9.28 17.36 14.9 25.65 1.84 2.74 3.66 5.49 5.46 8.25 8.6 13.12 8.6 13.12 18.33 25.41.68.82 1.36 1.64 2.06 2.49 8.56 10.05 18.39 17.26 30.88 21.51 2.06 1 2.06 1 3.44 2.62 2.09 7.98-1.95 18.94-3.48 26.85-2.61 13.8-4.23 27.16-4.15 41.22-.01 1.31-.02 2.62-.02 3.97.02 12.93 2.18 24.18 6.33 36.4.4 1.17.79 2.35 1.2 3.55 5.19 15.01 10.86 30.2 22.74 41.2 2 2.19 2 2.19 2.08 4.1-1.74 3.37-5.01 4.3-8.33 5.78-26.86 12.68-44.65 34.49-54.94 62.04-2.99 8.37-4.63 16.65-5.76 25.43-.16 1.29-.33 2.58-.5 3.9-.32 2.58-.62 5.16-.89 7.74-.88 7.35-2.08 12.32-6.66 18.2h-1l-.12-3.29c-1.28-36.57-1.28-36.57-9.15-72.2-2.12-10.13-.12-17.43 4.15-26.7 2.93-6.56 5.65-12.76 7.12-19.81-32.92 2.23-62.36 10.1-86 34-.73.7-1.45 1.41-2.2 2.13-7.9 8.18-15.74 19.85-18.8 30.87-.45-.35-.9-.7-1.36-1.07-15.94-12.23-34.33-22.08-54.63-24.22-2.01-.71-2.01-.71-4.16-2.97-3.78-3.64-7.83-5.4-12.6-7.49-.96-.43-1.92-.86-2.91-1.3-11.23-4.91-22.72-9.05-34.34-12.95-.88-.3-1.77-.6-2.68-.91-19.75-6.59-40.37-10.26-61.2-10.28l-3.12-.03c-.99-.01-1.97-.01-2.99-.01-.89 0-1.78-.01-2.7-.01-2.59.09-2.59.09-5.31 2.24-1 5.68 1.45 8.95 4.5 13.44.93 1.43 1.85 2.87 2.78 4.31.46.72.92 1.44 1.4 2.18 5.99 9.41 10.11 18.92 13.76 29.45 13.53 38.9 45.02 69.11 81.62 87.67 1.89.87 3.79 1.73 5.69 2.57 5.62 2.69 8.03 5.04 10.78 10.57 1.77 3.39 3.95 6.36 6.28 9.37.43.55.85 1.1 1.29 1.66 3.92 4.98 8.27 9.45 12.9 13.78-2.7 11.73-6.35 21.6-12.67 31.84-1.44 2.34-2.85 4.69-4.26 7.04-.51.84-1.01 1.68-1.53 2.55-.51.84-1.02 1.69-1.54 2.57-1.03 1.71-2.06 3.43-3.09 5.14-.49.83-.99 1.66-1.5 2.51-.88 1.46-1.76 2.93-2.64 4.39-7.47 12.43-13.21 25.59-18.77 38.96-.43 1.04-.43 1.04-.88 2.1-3.94 9.66-6.19 19.82-8.64 29.93-1.43 5.85-3.06 11.62-4.74 17.4-1.27 4.53-2.21 9.02-3 13.66C161.5 670.16 123.47 733.9 80 766c-1.33 1-2.67 2-4 3l-2-1c.64-.94 1.29-1.87 1.95-2.84C88.25 746.89 99.09 727.31 105 706c.19-.67.38-1.33.57-2.02 8.15-30.8 1.49-66.08-9.57-95.23-2.93-7.78-4.85-15.79-6.75-23.87-.29-1.24-.59-2.48-.89-3.76-3.18-13.9-4.68-27.3-4.48-41.56 0-1.31.01-2.63.02-3.98.03-3.2.06-6.39.1-9.58-4.89 1.47-7.02 2.65-10.06 6.81-2.75 3.71-5.66 6.96-8.94 10.19-1.41 1.4-2.81 2.8-4.22 4.2-1.2 1.2-1.2 1.2-2.42 2.41l-9.45 9.42c-2.38 2.38-4.76 4.75-7.14 7.12-2.77 2.76-5.53 5.52-8.29 8.28-.85.84-1.69 1.68-2.56 2.54-4.29 4.29-8.43 8.64-12.37 13.25-2.77 3.17-5.79 6.09-8.8 9.03-1.22 1.19-2.43 2.38-3.64 3.58-.53.51-1.05 1.03-1.6 1.56-1.64 1.75-3.07 3.69-4.51 5.61V0z" fill="#CAC5CA"/>
  <path d="M663 371c.66 1.79.66 1.79 1 4-.97 1.61-.97 1.61-2.5 3.31-2.98 3.73-5.16 7.65-7.19 11.94l-1.7 3.58c-4.43 10.8-5.11 21.34-4.99 32.86.01.75.02 1.51.02 2.28.09 10.89.18 21.53 3.36 32.03.21.71.42 1.42.64 2.15 4.52 14.57 11.82 27.95 19.01 41.33 8.87 16.63 14.89 34.2 9.56 53.09-3.59 10.16-8.51 19.84-13.13 29.57-1.05 2.23-2.1 4.45-3.14 6.67-.81 1.72-.81 1.72-1.64 3.47-5.69 12.21-10.7 24.7-15.66 37.22-3.13 7.86-6.44 15.15-10.87 22.39-3.76 6.61-6.54 13.72-9.46 20.73-.34.82-.68 1.64-1.04 2.49-5.02 12.01-9.7 24.11-14.02 36.39-.24.69-.48 1.37-.73 2.08-4.53 12.91-8.4 25.89-11.14 39.3-.21.94-.41 1.89-.62 2.87-2.94 14.12-4.11 27.92-4.01 42.31 0 .76.01 1.52.01 2.3.08 20.25 1.93 39.98 5.88 59.84 1.18 6.02 1.6 11.67 1.36 17.8-14.08.17-14.08.17-20.69-.5-16.38-2.32-16.38-2.32-31.37 2.31A91.63 91.63 0 00546 889c-1.42 1.4-2.85 2.79-4.28 4.18-2.28 2.24-4.49 4.53-6.72 6.82l-5 5c-11.41 11.44-18.87 24.27-25.88 38.75-.45.93-.9 1.87-1.37 2.83-7 14.89-10.11 28.57-10.13 44.98-.02 1.25-.04 2.49-.07 3.77-.03 10.55 1.9 17.84 4.45 28.67H262v-59c-2.08-14.38-2.08-14.38-5.19-28.5-.2-.77-.41-1.54-.63-2.33-8.04-28.45-23.71-52.16-46.18-71.17-.9-.79-1.8-1.57-2.73-2.39-3.01-2.5-6.15-4.35-9.63-6.17l-1.79-.94c-1.86-.99-3.73-1.96-5.6-2.94-8.21-4.3-16.41-8.6-24.25-13.56-1.07-.57-2.14-1.14-3.24-1.73-2.76-2.27-2.76-2.27-3.47-5.52.02-1.28.03-2.56.05-3.88.01-.7.01-1.41.01-2.13.02-2.29.08-4.58.15-6.86.02-1.58.05-3.15.07-4.73.22-13.42 1.09-26.79 2.43-40.15h2l-1-28c36.1-.39 36.1-.39 51.69 1.7 2.39.31 4.78.55 7.19.78 10.82 1.25 10.82 1.25 14.03 4.4 1.26 2.32 2.15 4.66 3.09 7.12 4.03 5.98 8.98 11.36 13.66 16.84 3.49 4.1 6.84 8.29 10.15 12.54.93 1.17 1.85 2.35 2.77 3.53 1.36 1.73 2.71 3.47 4.06 5.21 5.97 7.41 13.72 13.51 22.29 17.61 2.07 1.27 2.07 1.27 4.36 3.62 3.13 3.07 6.38 5.13 10.15 7.34.96.58.96.58 1.94 1.18 2.97 1.76 5.61 3.13 8.91 4.21 2.71.92 2.71.92 4.08 2.32 3.41 3.35 8.23 5.01 12.51 7.04 1.04.49 2.08.99 3.15 1.5 7.24 3.38 14.24 6.05 21.97 8.06 2.17.66 4.34 1.32 6.5 2 1.08.33 2.17.66 3.29 1 2.05.64 4.1 1.29 6.14 1.96 18.82 6.1 37.99 9.05 57.55 11.47 3.7.47 7.39.96 11.08 1.45 1.14.13 2.28.27 3.46.41 8.23 1.11 15.35 3.5 22.98 6.71 2.14.84 4.29 1.67 6.44 2.5 3.31 1.38 6.04 2.64 8.68 5.06 3.9 3.3 8.13 4.72 12.88 6.44-.34-9.73-3.55-18.12-6.81-27.19-5.95-16.64-10.41-33.18-13.9-50.53-2.33-11.26-5.54-21.69-10.98-31.84l-1.31-2.48c-3.67-6.7-7.85-12.31-13-17.96-.91-1.13-.91-1.13-1.85-2.27-12.5-15.14-30.71-25.48-48.2-33.79-1.82-.88-3.62-1.79-5.42-2.71-27.84-13.86-59.31-19.63-90.22-19.55-2.44.01-4.88-.02-7.31-.04-14.2-.06-27.08 2.33-40.56 6.92-1.01.34-2.03.69-3.07 1.04-24.86 8.18-24.86 8.18-46.37 22.4 3.55 1.07 6.93 1.17 10.62 1.31 6.2.39 12.12 1.26 18.19 2.57.79.16 1.57.32 2.37.48 5.57 1.27 5.57 1.27 7.82 4.64h-85c-.25-24.5-.25-24.5-.3-32.13-.13-10.94-.54-21.04-3.85-31.52-1.23-4.85-1.68-9.21.17-13.99.47-.77.95-1.53 1.44-2.32.79-1.31.79-1.31 1.61-2.65.57-.91 1.15-1.83 1.74-2.77.59-.95 1.17-1.9 1.77-2.89 1.79-2.92 3.6-5.82 5.42-8.73 1.59-2.57 3.17-5.15 4.75-7.72l2.82-4.56c1.75-2.81 3.29-5.32 4.37-8.47 4-8.48 20.45-13.61 28.72-17.53 1.25-.6 2.5-1.21 3.74-1.83 9.61-4.77 16.24-5.52 26.6-2.89 1.11.24 2.23.49 3.37.74 9.31 2.29 17.44 6.39 25.87 10.8 29.9 15.61 59.2 25.9 93.26 25.96.84 0 1.68 0 2.54.01 13.5-.02 25.38-1.32 37.96-6.51 1.1-.42 1.1-.42 2.22-.86 16.7-6.47 31.4-16.01 42.49-30.22 1.96-2.5 3.99-4.91 6.07-7.31 5.3-6.12 10.27-12.47 15.16-18.92.64-.84 1.28-1.67 1.93-2.54 3.65-4.86 6.59-9.62 9.13-15.15-.97-.07-.97-.07-1.96-.15-26.05-2.17-51.63-8.47-77.1-14.1-7.53-1.67-15.07-3.28-22.63-4.81-.92-.19-1.84-.39-2.79-.58-33.06-6.61-64.44-1.14-92.75 17.07-11.75 7.86-22.79 16.54-32.99 26.33-8.03 6.47-16.56 9.83-26.34 12.86-10.59 3.34-10.59 3.34-20.75 7.76-.56.2-1.11.41-1.69.62l-2-1c.85-.94.85-.94 1.72-1.91 3.63-4.02 7.25-8.04 10.78-12.15 5.73-6.56 11.94-12.54 18.55-18.2 2.01-1.8 3.88-3.68 5.76-5.62 3.84-3.88 7.96-7.29 12.21-10.71 2.61-2.11 5.17-4.27 7.72-6.45 6.33-5.42 12.83-10.57 19.47-15.59 1.93-1.48 3.84-2.97 5.75-4.46 13.47-10.5 27.35-20.12 42.35-28.31 3.71-2.04 7.38-4.15 11.04-6.29 37.8-22.04 67.73-35.5 112.05-24.46 12.85 3.64 24.93 8.67 36.6 15.15 1.17.63 2.35 1.26 3.52 1.89 8.51 4.7 16.44 10.06 24.38 15.64 3.68 2.58 7.39 5.11 11.1 7.66 1.35.93 2.71 1.86 4.06 2.79.97.67 1.94 1.33 2.94 2.02l1-1c-5.98-5.58-12.15-10.4-19-14.88-.91-.6-1.83-1.2-2.77-1.82-20.78-13.57-42.55-25.53-66.78-31.65-2.4-.64-4.68-1.43-7.01-2.27-4.74-1.64-9.46-2.08-14.44-2.38v-4c.76-.31 1.53-.61 2.31-.93 21.26-8.55 41.77-17.68 61.37-29.66 12.42-7.57 25.31-14.05 38.51-20.16.93-.44 1.87-.87 2.84-1.32 1.92-.88 3.86-1.73 5.81-2.57 2.2-.95 4.39-1.95 6.56-2.98 12.34-5.58 24.82-5.36 38.16-5.5 29.84-.43 58.57-4.09 85.44-17.88z" fill="#CAC5CA"/>
  <path d="M713.477 531.613c7.9 2.71 15.25 6.67 22.68 10.45 17.05 8.67 34 11 52.84 12.94 5.98 20.82 7.05 43.3 7.28 64.89l.03 3.23c.04 4.31.07 8.63.07 12.95.08 26.23 3.81 48.46 19.62 69.93 1.15 1.57 1.15 1.57 2.31 3.17 8.72 11.76 18.59 22.3 29.69 31.83 1.13.98 2.26 1.95 3.39 2.93 6.75 5.85 13.58 11.57 20.61 17.07.99.78 1.97 1.55 2.98 2.36 13.01 10.23 27.14 20.91 42.99 26.3 1.89.67 1.89.67 5.03 2.34 1.24 2.82 1.24 2.82 1.75 6.25.21 1.24.42 2.49.63 3.78l.3 1.97c.53 3.28 1.3 6.51 2.01 9.75 2.34 11.88 1.75 21.38-3.69 32.25-.25 2.75-.25 2.75 0 5 8.49.91 15.19-2.1 22.89-5.18 3.39-1.32 6.8-2.53 10.24-3.7 1.18-.41 2.35-.82 3.57-1.24 3.26-.87 5.94-1.06 9.3-.88-.16.49-.32.98-.48 1.49-.73 3.55-.7 7.07-.72 10.68-.01.8-.01 1.61-.02 2.43-.01 1.71-.01 3.41-.02 5.11-.01 2.55-.04 5.1-.07 7.66-.06 9.17.64 17.53 2.64 26.47 1.18 5.54 1.54 9.38-1.01 14.62-.76 1.17-1.53 2.33-2.32 3.47-9.53 14.97-18.58 32.96-19 51.07-.05 1.3-.1 2.6-.15 3.94-.48 17.78 3.67 33.85 8.54 50.85.57 2.06 1.1 4.13 1.61 6.21h-330l1-7c.1-1.52.16-3.04.18-4.57.01-.82.03-1.65.04-2.5.01-.87.01-1.74.02-2.64.01-1.39.01-1.39.03-2.81l.03-5.88c.01-1.97.03-3.94.06-5.91.19-12.89-.83-24.29-4.36-36.69-.71-2.81-1.38-5.63-2.06-8.44-1.08-5.22-1.08-5.22-4.94-8.56-.78-2.57-1.4-5.01-1.93-7.63-.3-1.39-.6-2.77-.91-4.16-.17-.8-.34-1.59-.51-2.41-.48-2.08-1-4.15-1.55-6.21-2.94-11.18-4.81-22.41-6.53-33.84-.6-3.96-1.21-7.91-1.82-11.86-.14-.96-.29-1.92-.45-2.91-.8-5.14-1.72-10.21-2.86-15.28-3.5-15.69-3.91-30.93-3.94-46.95 0-1.11-.01-2.22-.01-3.35-.02-12.85.59-24.88 3.51-37.4.26-1.29.52-2.59.79-3.92 12.62-63.1 45.33-126.64 71.8-184.97 1.21-2.67 2.4-5.34 3.59-8.01 5.05-11.23 11.27-21.7 17.82-32.1.39-.62.78-1.24 1.18-1.88 4.05-6.3 9.34-6.23 16.3-4.51z" fill="#CAC5CA"/>
  <path d="M220 494c.99.5.99.5 2 1-.39.69-.78 1.37-1.19 2.08-19.7 34.7-34.28 68.66-43.07 107.66-.51 2.25-1.03 4.51-1.57 6.76l-.81 3.45c-.24 1.02-.49 2.04-.74 3.09-.9 4.29-1.33 8.59-1.62 12.96.81-1.5.81-1.5 1.64-3.03.73-1.3 1.45-2.6 2.17-3.91.36-.66.72-1.32 1.08-2 2.77-4.95 2.77-4.95 6.11-6.06.44 5.26-.8 8.08-3.5 12.56-.54.91-.54.91-1.1 1.84-1.12 1.88-2.26 3.74-3.4 5.6l-2 3.27c-2.79 4.56-5.6 9.11-8.5 13.6-.84 1.31-1.67 2.63-2.5 3.94-.4.6-.8 1.2-1.21 1.81-2.81 4.5-3.25 8.22-2.79 13.38.59 2.3 1.26 4.58 1.98 6.84 3.28 11.63 2.44 23.7 2.27 35.66-.08 8.09-.16 16.17-.25 24.5l84-1c-9.36-4.68-20.44-5.32-30.76-5.79-2.84-.18-5.47-.57-8.24-1.21 12.53-13.54 35.78-20.93 53-26.44.69-.22 1.38-.44 2.09-.67 13.59-4.12 26.45-5.4 40.53-5.27.84.01 1.68.01 2.54.02 12.01.06 23.74.57 35.56 2.92 2.35.45 4.7.84 7.07 1.21 32.45 5.45 64.89 20.15 90.21 41.23 1.42 1.17 1.42 1.17 2.86 2.36 11.62 10.05 20.08 22.09 27.14 35.64.47.86.94 1.73 1.43 2.62 5.24 10.41 7.49 22.35 9.57 33.74 3.63 19.54 9.58 39.04 17.15 57.44 1.02 2.63 1.05 4.71.97 7.51-.01.89-.03 1.77-.05 2.68-.03.99-.03.99-.07 2.01-6.41-.48-10.99-3.6-15.89-7.51-2.46-1.74-4.89-2.8-7.67-3.93-.95-.39-1.9-.78-2.88-1.18-1.18-.46-2.35-.91-3.56-1.38-.71-.31-1.42-.62-2.16-.94-9.22-3.77-18.86-4.83-28.65-6.18-1.76-.26-3.52-.51-5.28-.77-6.29-.91-12.59-1.79-18.89-2.65-7.17-1-14.26-2.17-21.33-3.71-.99-.21-1.97-.43-2.98-.65-7.53-1.69-14.66-3.99-21.87-6.71-3.54-1.32-7.12-2.31-10.78-3.27-12.67-3.5-24.72-9.53-36.06-16.12v-2c-1.2-.08-1.2-.08-2.42-.17-4.89-1.14-8.6-3.5-12.83-6.14-.81-.49-1.63-.98-2.47-1.48-.78-.48-1.56-.95-2.36-1.45-.7-.43-1.41-.87-2.14-1.31-2.01-1.64-2.66-3.14-3.78-5.45-.85-.27-1.69-.54-2.56-.81-4.96-1.72-8.43-4.87-12.44-8.19-.9-.7-.9-.7-1.82-1.41-5.01-4-8.81-8.85-12.79-13.85-2.76-3.44-5.58-6.84-8.39-10.24-1.21-1.47-2.42-2.94-3.62-4.41-2.02-2.44-4.04-4.88-6.07-7.31C234 753.97 234 753.97 234 749l-2.96.09c-5.06 0-9.89-1.01-14.84-1.94-12.39-2.21-24.97-2.38-37.51-2.71-1.53-.05-3.06-.09-4.59-.13-3.7-.11-7.4-.21-11.1-.31.16.71.33 1.42.49 2.16.51 2.86.62 5.46.61 8.36-.01 1.02-.01 2.04-.01 3.1l-.03 3.19c0 1.08-.01 2.15-.01 3.26-.01 2.64-.03 5.29-.05 7.93h-2l.04 2.39c0 1.09.01 2.18.02 3.3l.04 3.2c-.03 3.32-.29 6.61-.57 9.92-.69 8.49-.88 16.99-1.09 25.5-.05 1.63-.09 3.26-.13 4.88-.11 3.94-.21 7.87-.31 11.81.74.27 1.48.55 2.25.83 2.56 1.09 4.53 2.28 6.78 3.89 5.56 3.79 11.47 6.76 17.47 9.78 19.37 9.77 19.37 9.77 25.56 16.44 2.53 2.64 5.08 5.09 7.88 7.44 26.1 22.69 40.45 59.64 43.06 93.62.14 4.43.14 8.85.13 13.28 0 1.87 0 1.87.01 3.78 0 3.29-.01 6.58-.01 9.86-.01 2.7 0 5.39 0 8.09.01 3.21.01 6.43 0 9.64 0 1.21.01 2.42.01 3.66 0 1.12-.01 2.23-.01 3.37v2.98C263 1022 263 1022 262 1024H0c-.16-103.65-.16-103.65-.2-146.87 0-9.89-.01-19.79-.02-29.68v-3.76c-.02-20.03-.05-40.06-.09-60.09-.04-20.55-.06-41.11-.07-61.66 0-12.68-.02-25.37-.05-38.05-.02-8.7-.03-17.39-.02-26.08 0-5.02-.01-10.04-.03-15.06-.02-4.59-.02-9.19 0-13.78 0-1.66-.01-3.33-.02-4.99-.02-2.26-.01-4.52.01-6.78 0-1.25-.01-2.51-.01-3.8.86-5.86 4.46-9.62 8.58-13.64 1.15-1.14 1.15-1.14 2.33-2.3.79-.77 1.59-1.54 2.4-2.34 1.57-1.53 3.14-3.07 4.71-4.61.69-.68 1.38-1.35 2.1-2.04 1.96-2.04 3.81-4.1 5.65-6.24 3.78-4.35 7.8-8.43 11.89-12.49 1.14-1.13 1.14-1.13 2.29-2.29l7.17-7.14c1.62-1.6 3.23-3.21 4.84-4.82l8.87-8.84c.63-.63 1.27-1.26 1.92-1.91 1.53-1.52 3.06-3.03 4.59-4.54 3.09-3.15 5.76-6.65 8.41-10.18 1.25-1.57 1.25-1.57 3.75-4.02 2.66-.15 2.66-.15 5 0l.06 2.42c.1 3.72.21 7.43.32 11.14l.09 3.81c.43 14.1 2.48 27.6 5.72 41.32.15.65.3 1.29.46 1.96 2.09 8.92 4.6 17.55 7.78 26.14 11.09 30.15 15.76 64.95 6.57 96.21l-.67 2.28c-5.58 18.2-14.83 36.24-25.94 51.68-1.56 2.09-1.56 2.09-2.39 5.04 31.82-23.66 50.63-53.09 68.48-88.03 1.51-2.96 3.05-5.9 4.59-8.85 9.21-17.79 18.32-36.26 21.11-56.27 1.84-12.1 5.62-24.04 8.82-35.85l.81-3.02c7.36-27.12 20.36-58.87 38.19-80.98l2-1z" fill="#2B0001"/>
  <path d="M628 0h239l5 10c1.86 3.28 3.74 6.52 5.69 9.75.52.87 1.04 1.74 1.58 2.63 4.56 7.48 9.44 14.64 14.73 21.62.44.58.87 1.16 1.32 1.76 16.01 21.74 16.01 21.74 37.49 36.86 5.69 2.9 7.41 7.02 9.33 12.81.66 2.18 1.27 4.37 1.86 6.57.2.69.39 1.38.6 2.09 2.28 8.13 3.78 16.35 4.84 24.72.1.74.21 1.48.32 2.24.61 5.7-.45 10.36-1.96 15.85-1.29 5.01-1.87 10.1-2.55 15.22-3.93 27.2-12.61 52.55-25.25 76.88-.4.78-.8 1.56-1.21 2.37-1.15 2.05-2.22 3.87-3.79 5.63-3 .75-3 .75-6 1-2.65 1.74-2.65 1.74-5.06 3.94-3.22 2.8-5.89 4.68-9.94 6.06 1.35-4.46 3.11-8.28 5.44-12.31.34-.6.69-1.2 1.04-1.82 2.41-4.12 4.97-8.13 7.61-12.11 14.8-22.38 25.6-46.35 22.91-73.76-3.35-15.37-14.23-28.07-25-39l-1.53-1.57C887.48 99.29 887.48 99.29 866 88h-2c-.09.67-.18 1.35-.27 2.04-2.8 20.43-7.04 35.96-18.73 52.96-4.95 7.29-8.9 14.55-12.25 22.69-.32.75-.63 1.5-.96 2.28-5.71 14.46-7.48 29.06-7.37 44.51.02 2.72-.02 5.43-.05 8.15-.08 15.34 3.38 27.18 10.82 40.68.47.89.94 1.77 1.43 2.68 2.32 4.31 4.69 8.58 7.11 12.83 7.1 12.51 12.51 24.75 16.41 38.67.7 2.64.7 2.64 2.86 4.51-.35.54-.7 1.08-1.06 1.64-6.76 10.45-13.39 20.96-19.63 31.74-.56.96-1.12 1.93-1.7 2.93-1.2 2.08-2.41 4.16-3.61 6.24-26.16 45.09-26.16 45.09-40 61.45-.62.76-1.24 1.51-1.88 2.29-4.29 5.05-8.95 9.15-14.14 13.27-4.99 4.08-9.65 8.52-14.35 12.93-2.1 1.95-4.23 3.88-6.36 5.81-7.49 6.82-14.73 13.78-21.33 21.48-1.93 2.2-3.9 4.35-5.89 6.5-4.78 5.15-9.35 10.41-13.75 15.9-2.03 2.49-4.12 4.93-6.23 7.35-9.32 10.76-17.33 22.55-25.07 34.47-2.42-4.35-3.05-8.1-2-13 1.93-3.07 4.41-5.47 7-8 11.92-12.44 21.58-27.02 30-42l1.03-1.8c11.35-20 18.32-40.52 21.97-63.2.19-.99.38-1.99.57-3.01 4.54-31.59-6.78-67.17-24.95-92.8-1.73-2.6-2.64-4.25-3.43-7.31 1.08-3.82 3.14-5.59 6.08-8.17 1.81-1.79 2.73-3.39 3.73-5.71-2.56-.63-5.12-1.26-7.69-1.88-1.05-.26-1.05-.26-2.12-.52-19.88-4.77-42.75-7.06-62.19.4-1.14.41-2.27.82-3.45 1.25-14.98 5.9-27.65 15.04-39.55 25.75-.91.81-1.81 1.62-2.75 2.45-1.67 1.5-3.33 3-4.99 4.51a327.03 327.03 0 01-6.26 5.48c-10.27 9.01-18.52 19.03-26.74 29.85-1.22 1.61-2.45 3.21-3.68 4.82-1.19 1.55-2.37 3.11-3.55 4.67-7.11 9.29-13.6 13.28-24.65 17.22-2.33.86-4.66 1.72-6.98 2.59-1.11.41-2.21.82-3.35 1.24-4.77 1.83-9.35 3.96-13.93 6.21-2.12.96-2.12.96-4.12.96.57-3.26 1.41-4.7 3.88-6.88 3.55-3.38 6.51-7.05 9.5-10.93C530 380.21 534.81 374.5 540 369l1.95-2.07c4.46-4.61 9.27-8.63 14.25-12.65 31.37-25.58 43.79-61.01 56.38-98.2 1.3-3.82 2.6-7.63 4.03-11.39 1.09-2.89 2.09-5.77 3.04-8.71.28-.85.57-1.71.86-2.6.58-1.76 1.15-3.54 1.71-5.31 1.67-4.99 2.91-8.47 7.78-11.07 3.39-.72 3.39-.72 7.25-1.06 1.44-.15 2.88-.3 4.32-.46.74-.07 1.47-.15 2.23-.23 6.45-.74 12.83-2 19.2-3.25.83-.16 1.65-.32 2.51-.48 33.28-6.48 62.79-20.27 87.49-43.52 1.43-1.28 2.87-2.55 4.31-3.81l1.93-1.69c1.53-1.3 3.11-2.53 4.7-3.75 26.94-22.43 39.61-62.86 51.27-94.43.28-.74.55-1.49.83-2.25.28-.75.56-1.5.84-2.27.28-.75.56-1.5.84-2.28l1.68-4.53c3.78-10.26 7.7-20.44 11.97-30.51 1.61-3.81 3.06-7.35 3.63-11.48-12.21 1.69-24.39 3.53-36.55 5.52-6.06.98-12.12 1.84-18.22 2.57C739.34 24.03 697.47 36.39 666 64c-.86.73-1.72 1.46-2.61 2.21-17.55 15.18-27.44 35.51-34.14 57.35-.2.64-.4 1.27-.6 1.93-3.28 11.26-3.92 22.69-3.63 34.34.03 2.62.06 5.24.1 7.86.06 4.05.13 8.09.22 12.13.56 25.51-3.63 47.63-13.34 71.18-.32.77-.63 1.55-.96 2.34-.94 2.27-1.89 4.53-2.85 6.78-.29.69-.58 1.37-.88 2.07-2.07 4.69-2.07 4.69-4.31 5.81-.4-1.44-.4-1.44-.81-2.9-5.61-19.36-15.16-35.34-26.19-52.1-1.86-2.85-3.71-5.71-5.56-8.56-.43-.66-.86-1.32-1.3-2-5.87-9.05-11.49-18.25-17.14-27.44 6.48 14.07 14.66 26.96 23 40 6.19 9.69 12.32 19.39 18.12 29.31.47.79.93 1.57 1.4 2.37 3.96 6.84 5.86 12.51 5.79 20.51 0 .75-.01 1.51-.01 2.28-.14 6.25-1.17 11.64-3.3 17.53-.38 1.15-.76 2.3-1.15 3.49-5.76 16.9-14.14 32.99-25.85 46.51-.43.51-.87 1.02-1.31 1.54-8.93 10.43-18.99 19.19-30.69 26.46 3-10 3-10 3.74-12.14 2.03-6.13 2.63-11.44 2.45-17.86-.01-.93-.03-1.85-.04-2.8-.05-3.89-.13-7.78-.21-11.67-.25-12.62.51-24.17 3.06-36.53 6-38.97-6.34-81.16-29.09-112.92-1.91-2.43-3.87-4.77-5.91-7.08-.72-.84-1.44-1.68-2.18-2.54-12.66-14.48-27.55-23.52-44.44-32.3-.92-.48-1.83-.96-2.77-1.46-.81-.43-1.63-.85-2.47-1.29-2.33-1.53-3.61-3.1-5.14-5.41 1.4-.03 2.79-.05 4.19-.06.77-.01 1.55-.03 2.35-.04 2.46.1 2.46.1 4.77.6 2.82.52 5.36.6 8.23.57l3.28-.03c1.17-.02 2.33-.03 3.52-.05 2.47-.02 4.94-.03 7.41-.05 3.88-.03 7.76-.07 11.65-.11 3.75-.04 7.5-.07 11.26-.09 1.16-.02 2.32-.04 3.52-.05 1.62-.01 1.62-.01 3.28-.01l2.88-.03c3.2.42 5.06 1.48 7.66 3.35 1.58 2.26 1.58 2.26 2.81 4.69.42.81.84 1.61 1.27 2.45.3.61.61 1.23.92 1.86.13-1.28.13-1.28.26-2.58C537.96 99.5 537.96 99.5 546 89l3-1v-3c.58-.14 1.17-.27 1.77-.41 16.82-4.42 29.13-16.43 41.4-28.1 3.3-3.14 6.64-6.21 10.08-9.2 5.05-4.38 9.46-9.14 13.06-14.79.56-.82 1.12-1.65 1.69-2.5h2c.17-.53.34-1.07.52-1.62 1.35-4.17 2.82-8.22 4.54-12.26C626.5 10.16 626.5 10.16 628 0z" fill="#CAC5CA"/>
  <path d="M663 371c.66 1.79.66 1.79 1 4-.97 1.61-.97 1.61-2.5 3.31-2.98 3.73-5.16 7.65-7.19 11.94l-1.7 3.58c-4.43 10.8-5.11 21.34-4.99 32.86.01.75.02 1.51.02 2.28.09 10.89.18 21.53 3.36 32.03.21.71.42 1.42.64 2.15 4.52 14.57 11.82 27.95 19.01 41.33 8.87 16.63 14.89 34.2 9.56 53.09-3.59 10.16-8.51 19.84-13.13 29.57-7.43 15.74-14.22 31.65-20.7 47.8l-.99 2.47c-.62 1.52-1.23 3.04-1.83 4.57-1.85 4.58-4.02 8.77-6.56 13.02l-1-2c-1.66-.69-3.33-1.35-5-2-.7-.47-1.41-.94-2.13-1.42-3.73-2.05-7.44-2.91-11.56-3.89-8.2-2.06-16.16-4.54-24.15-7.28-3.65-1.25-7.33-2.38-11.04-3.47-6.23-1.88-12.16-4.32-18.12-6.94v-2c-1.15-.31-2.31-.62-3.5-.94-18.9-6.41-34-20.14-47.66-34.18-4.35-4.45-9.04-8.44-13.9-12.32-2.38-2.08-4.24-4.03-6.25-6.44-3.73-4.39-8.04-7.75-12.69-11.12.51-2.17 1-4 2-6-.97-.07-.97-.07-1.96-.15-26.05-2.17-51.63-8.47-77.1-14.1-7.53-1.67-15.07-3.28-22.63-4.81-.92-.19-1.84-.39-2.79-.58-33.06-6.61-64.44-1.14-92.75 17.07-11.75 7.86-22.79 16.54-32.99 26.33-8.03 6.47-16.56 9.83-26.34 12.86-10.59 3.34-10.59 3.34-20.75 7.76-.56.2-1.11.41-1.69.62l-2-1c.57-.63 1.14-1.26 1.72-1.91 3.63-4.02 7.25-8.04 10.78-12.15 5.73-6.56 11.94-12.54 18.55-18.2 2.01-1.8 3.88-3.68 5.76-5.62 3.84-3.88 7.96-7.29 12.21-10.71 2.61-2.11 5.17-4.27 7.72-6.45 6.33-5.42 12.83-10.57 19.47-15.59 1.93-1.48 3.84-2.97 5.75-4.46 13.47-10.5 27.35-20.12 42.35-28.31 3.71-2.04 7.38-4.15 11.04-6.29 37.8-22.04 67.73-35.5 112.05-24.46 12.85 3.64 24.93 8.67 36.6 15.15 1.17.63 2.35 1.26 3.52 1.89 8.51 4.7 16.44 10.06 24.38 15.64 3.68 2.58 7.39 5.11 11.1 7.66 1.35.93 2.71 1.86 4.06 2.79.97.67 1.94 1.33 2.94 2.02l1-1c-5.98-5.58-12.15-10.4-19-14.88-.91-.6-1.83-1.2-2.77-1.82-20.78-13.57-42.55-25.53-66.78-31.65-2.4-.64-4.68-1.43-7.01-2.27-4.74-1.64-9.46-2.08-14.44-2.38v-4c.76-.31 1.53-.61 2.31-.93 21.26-8.55 41.77-17.68 61.37-29.66 12.42-7.57 25.31-14.05 38.51-20.16.93-.44 1.87-.87 2.84-1.32 1.92-.88 3.86-1.73 5.81-2.57 2.2-.95 4.39-1.95 6.56-2.98 12.34-5.58 24.82-5.36 38.16-5.5 29.84-.43 58.57-4.09 85.44-17.88z" fill="#772030"/>
  <path d="M867 0h157v350c-9.59-5.33-9.59-5.33-13.75-8-5.8-3.49-11.88-5.77-18.25-8-.62-.22-1.23-.44-1.87-.67-13.77-4.92-26.21-6.68-40.8-6.65-2.56.01-5.12-.02-7.69-.04-23.97-.09-45.29 5.68-62.75 22.97-7.11 7.36-12.39 16.07-17.89 24.64-2.18 3.36-4.37 6.72-6.56 10.08-.53.81-1.07 1.63-1.62 2.47-4.89 7.43-10.13 14.59-15.59 21.62-1.11 1.43-2.2 2.89-3.27 4.35-2.1 2.39-3.9 3.6-6.71 5.06-.91.49-1.82.97-2.77 1.47-1.44.75-1.44.75-2.92 1.51-7.62 4.03-15.01 8.19-22.2 12.96L797 435l-3-1c.76-1.01 1.53-2.02 2.31-3.06 1.23-1.65 2.46-3.29 3.69-4.94.39-.52.78-1.04 1.19-1.58 17.38-23.13 31.62-48.23 46.01-73.29 2.74-4.76 5.49-9.51 8.24-14.25.46-.81.93-1.62 1.41-2.45L860 329l-4 2c1.45-4.11 3.51-7.43 6-11-.66-.98-.66-.98-1.33-1.98-2.03-3.67-3.14-7.34-4.36-11.33-2.93-9.1-6.78-17.29-11.31-25.69-.58-1.08-1.16-2.16-1.76-3.27-.32-.58-.63-1.17-.96-1.77-.66-1.23-1.32-2.46-1.99-3.69-1.66-3.09-3.33-6.17-5.01-9.25-6.33-11.68-11.56-22.68-11.65-36.15l-.04-2.63c-.02-2.79-.03-5.58-.03-8.36V213c.04-13.91.52-26.85 5.44-40 .3-.84.59-1.67.89-2.53 4.26-11.82 10.09-21.91 17.21-32.22 10.48-15.2 13.93-32.17 15.9-50.25 3.5-1.17 5.17-.68 8.52.69 11.23 5.93 20.55 15.75 29.59 24.49 1.73 1.67 3.47 3.31 5.22 4.96 10.19 9.71 18.69 20.57 23.67 33.86.36.9.73 1.79 1.11 2.71 1.18 4.34 1.23 8.38 1.2 12.85 0 .89-.01 1.78-.01 2.7-.42 22.91-11.79 44.76-24.21 63.5-5.17 7.79-10 15.83-14.09 24.24 1.52-1.06 3.04-2.12 4.56-3.19.91-.63 1.83-1.26 2.76-1.92 1.61-1.13 3.2-2.3 4.76-3.5 1.79-1.39 1.79-1.39 4.92-3.39 2.2.38 2.2.38 4 1 .23-.65.47-1.3.71-1.97 1.35-3.18 2.95-6.13 4.61-9.16 15.03-27.43 21.66-56.98 26.16-87.67.45-2.75 1.02-5.4 1.7-8.1.98-4.21.81-7.85.2-12.1a600 600 0 01-.3-2.19c-1.69-11.88-4.48-23.2-9.13-34.27C938 89 938 89 938 86c-.89-.26-1.77-.53-2.69-.8-15.68-5.69-28.33-22.45-37.99-35.43-1.32-1.77-2.67-3.53-4.02-5.28-7.04-9.24-13.03-19.01-18.86-29.04-1.02-1.74-2.07-3.46-3.13-5.17l-1.67-2.7c-.5-.8-1.01-1.61-1.53-2.44C867 3 867 3 867 0z" fill="#2E0303"/>
  <path d="M151 677c.99.5.99.5 2 1 .65 2.2.65 2.2 1.22 5.12.21 1.07.42 2.14.63 3.25.22 1.15.43 2.31.65 3.51.33 1.77.33 1.77.67 3.57 2.85 15.63 4.1 30.67 3.83 46.55l-18 1-1 3h18c-.27 5.14-.53 10.27-.8 15.41l-.27 5.22-.39 7.59-.12 2.29c-.19 3.62-.4 7.23-.67 10.85-.69 9.47-.94 18.89-.99 28.38 0 .77-.01 1.54-.01 2.33-.02 4.08-.04 8.17-.05 12.25 0 3.31-.02 6.62-.06 9.93-.18 19.95.32 39.1 4.36 58.75.14.72.29 1.43.43 2.17.77 3.82 1.68 7.57 2.69 11.33.45 1.66.45 1.66.9 3.35 7.25 26.04 18.97 48.08 33.17 70.88 3.16 5.13 6.04 10.28 8.62 15.71l1.12 2.21c3.45 7.22 4.28 13.01 6.07 21.35H0V828l16-7c3.34-2.28 6.06-4.32 9-7 .47-.43.95-.86 1.44-1.3 2.57-2.33 5.13-4.68 7.67-7.05 2.01-1.85 4.02-3.59 6.14-5.31 2.84-2.19 2.84-2.19 4.5-5.09 6.83-9.86 16.97-15.25 27.14-21.04 10.6-6.09 20.03-13.03 29.11-21.21 1.06-.93 1.06-.93 2.13-1.88 17.94-16.77 29.46-40.01 40.8-61.38 2.28-4.29 4.62-8.54 7.07-12.74zm873-273v210h-2l-.76 2.1c-1.42 3.31-3.19 6.25-5.05 9.34-13.61 23.27-12.78 46.79-6.38 72.06 1.77 6.45 3.96 12.71 6.35 18.96 1.95 5.22 1.95 5.22.84 8.54-.89-.45-1.77-.89-2.68-1.36-17.49-8.64-37.19-15.22-56.85-9.96-8.06 2.94-14.83 7.79-20.87 13.85C935 729 935 729 933 729c-.17-.62-.34-1.23-.52-1.87-4.08-14.71-8.72-28.99-14.48-43.13-.42-1.05-.85-2.09-1.28-3.17-13.95-34.24-29.92-60.27-61.53-80.71-19.31-12.68-39.2-27.47-53.19-46.12l1-3c6.74-1.19 13.48-1.26 20.31-1.44 64.58-1.99 112.61-19.57 157.95-66.98C983 481 983 481 985 481c-.67-2.04-.67-2.04-2-4-2.06-.64-2.06-.64-4.49-.62-.92-.04-1.85-.09-2.8-.14-1-.04-1.99-.07-3.02-.12-13.74-.84-26.29-4.26-39.13-9.12-25.31-9.55-52.32-13.19-79.23-13.19-2.56 0-5.12-.02-7.69-.03-13.52-.05-26.59.79-39.58 4.91l-2.55.79c-21.1 6.76-38.92 17.72-55.75 32.03-1.61 1.36-3.24 2.69-4.88 4-7.5 5.97-14.27 12.39-20.5 19.68-4.93 5.7-9.05 9.61-16.38 11.81 5.88-10.24 13.37-19.04 21-28 .57-.67 1.14-1.34 1.73-2.04 7.24-8.48 14.6-16.86 22.27-24.96.51-.54 1.02-1.08 1.55-1.63 11.16-11.7 22.46-20.05 36.88-27.35 8.39-4.29 16.46-9 24.51-13.9.59-.36 1.19-.72 1.8-1.09 6.12-3.71 12.09-7.43 17.66-11.94 3-2.04 5.09-1.67 8.6-1.09 6.14 1.51 11.78 3.22 17.23 6.45 5.02 2.86 10.05 4.29 15.65 5.61l3.14.76c38.73 8.97 77.84 10.44 113.6-8.56 3.81-2.02 7.63-4.01 11.45-6.01 2.05-1.06 4.09-2.14 6.13-3.21 1.41-.74 1.41-.74 2.84-1.5.84-.44 1.67-.88 2.53-1.34 6.47-3.2 6.47-3.2 8.43-3.2z" fill="#CAC5CA"/>
  <path d="M659 763c6.66-.33 12.23.85 18.62 2.62l3.07.83c4.88 1.31 9.75 2.67 14.61 4.04 9.95 2.78 19.92 5.28 30.01 7.51 60.16 13.26 116.71 35.21 154.69 86 .99 1.3.99 1.3 2 2.62 10.07 13.69 15.08 29.31 20 45.38.3.92.59 1.85.9 2.8 1.98 6.52 2.46 12.4 2.1 19.2-5.28.05-10.57.09-15.85.11-1.8.01-3.59.02-5.39.04-2.59.03-5.17.04-7.76.05-1.2.01-1.2.01-2.41.03-4.91 0-8.93-.66-13.59-2.23l1 3c1.07 7.5 1.1 15.1 1.21 22.66.02.97.03 1.93.04 2.93.06 4.03.12 8.06.15 12.09.03 2.97.07 5.95.12 8.92.01 1.34.01 1.34.01 2.71.14 7.21.58 14.9 5.99 20.12l3 1.65c1.08.62 2.17 1.25 3.29 1.89 1.13.61 2.27 1.21 3.44 1.84 2.24 1.26 4.47 2.51 6.7 3.77 1.05.59 2.1 1.17 3.18 1.77 3.51 2.02 6.72 4.11 9.87 6.65v2h-32l-3-7.12c-2.56-5.22-4.99-8.59-10.47-10.77-2.8-.92-5.6-1.77-8.44-2.54-31.26-8.59-60.1-28.45-83.64-50.3a209.5 209.5 0 00-6.51-5.77c-1.32-1.16-2.63-2.33-3.94-3.5-.75-.67-1.49-1.33-2.26-2.02-15.17-14.32-25.86-33.39-36.74-50.98-.48-.78-.96-1.55-1.46-2.35-13.27-21.75-20.17-46.71-27.83-70.84-5.47-17.09-11.65-33.99-21.75-48.97C659 767 659 767 659 763zM835 11c-.46 7.23-2.84 13.01-5.69 19.62-4.43 10.57-8.51 21.22-12.42 31.98-11.59 31.97-23.6 63.23-45.89 89.4-.91 1.1-.91 1.1-1.84 2.22-4.03 4.76-8.4 8.77-13.16 12.78-1.08.94-2.16 1.88-3.23 2.82-31.58 27.56-69.47 42.64-111.2 46.63l-2.2.22c-1.99.19-3.98.35-5.98.51-4.16 1.01-5.73 2.52-8.39 5.82-1.34 3.17-1.34 3.17-2 6h-3c.49-4.94 1.37-9.6 2.53-14.42 1.58-7.32 1.81-14.2 1.66-21.66-.02-1.97-.04-3.95-.05-5.92-.04-4.1-.11-8.2-.17-12.3-.29-19.74-.43-38.48 6.22-57.32.3-.88.6-1.75.91-2.65 12.65-35.62 38.39-59.7 72.04-75.75 28.99-13.38 60.2-19.01 91.68-22.89 5.56-.7 11.05-1.59 16.56-2.62 3.83-.69 7.68-1.16 11.56-1.59.73-.09 1.45-.18 2.2-.27 3.32-.38 6.51-.61 9.86-.61zm187 603h2v410h-65c-8.52-23.43-14.9-48.14-9-73 .41-1.83.41-1.83.82-3.7 3.46-14.07 10.25-27.89 18.52-39.76 2.33-3.57 2.22-6.46 1.66-10.54-.5-2.19-1-4.37-1.51-6.55-1.83-8.54-1.88-16.95-1.77-25.65.03-2.59.04-5.17.05-7.76 0-1.65.02-3.31.03-4.96 0-1.15 0-1.15.01-2.33.04-3.17.18-5.72 1.19-8.75-10.03.36-18.98 4.55-28.16 8.29-5.92 2.32-10.47 3.22-16.84 2.71l-1-1c.42-5.22 1.92-9.23 4-14 2.58-10.54.3-20.62-2-31l-1.62-7.56c-.24-1.1-.48-2.19-.73-3.32-3.9-18.76-4.4-41.16 5.89-57.98 8.05-11.81 17.75-20.45 31.46-25.14 4.07-.66 8.01-.72 12.12-.62l3.31.04c15.33.46 28.05 5.75 41.57 12.58-1.42-4.81-2.86-9.6-4.43-14.37-8.65-26.45-12.81-52.38-.57-78.63 3.04-5.84 6.35-11.52 10-17zM109.514 82.74c2.55.01 5.1 0 7.65-.01 10.76-.01 21.19.77 31.84 2.27.94.12 1.88.24 2.85.36 24.85 3.26 49.82 12.45 72.15 23.64 1.16.58 1.16.58 2.36 1.17 11.57 5.75 22.47 12.35 33.33 19.35 17.26 11.09 35.15 22.23 54.7 28.78 4.52 1.52 4.52 1.52 5.61 3.7-3.64 4.04-6.92 6.18-11.9 8.31l-4.11 1.8c-1.07.47-1.07.47-2.16.94-11.04 4.77-21.78 9.76-32.15 15.89-9.19 5.4-18.46 9.66-28.49 13.27-1.99.72-3.96 1.47-5.93 2.24-11.38 4.2-23.29 5.92-35.26 7.55-.75.11-1.5.21-2.28.32-46.57 5.62-99.14-1.75-137.4-30.45-2.66-2.14-5.03-4.34-7.32-6.87 1.52-3.73 3.79-5.81 6.75-8.5 7.89-7.87 11.79-15.34 12-26.5-.11-8.09-2.19-14.24-6.75-21-.73-1.07-1.45-2.14-2.19-3.25-8.39-8.2-18.46-13.5-28.81-18.75 2.29-3.44 2.86-3.53 6.7-4.5.95-.25 1.9-.49 2.89-.74 1.53-.38 1.53-.38 3.09-.76 1.05-.26 2.09-.52 3.17-.79 19.85-4.92 39.22-7.57 59.66-7.47z" fill="#2B0000"/>
  <path d="M663 371c.66 1.79.66 1.79 1 4-.97 1.61-.97 1.61-2.5 3.31-2.98 3.73-5.16 7.65-7.19 11.94l-1.7 3.58c-4.43 10.8-5.11 21.34-4.99 32.86.01.75.02 1.51.02 2.28.09 10.89.18 21.53 3.36 32.03.21.71.42 1.42.64 2.15 4.52 14.57 11.82 27.95 19.01 41.33 8.87 16.63 14.89 34.2 9.56 53.09-3.59 10.16-8.51 19.84-13.13 29.57-1.05 2.23-2.1 4.45-3.14 6.67-.54 1.14-1.07 2.28-1.62 3.45-5.83 12.54-10.99 25.36-16.12 38.21-.33.82-.66 1.65-1 2.5-.63 1.56-1.25 3.12-1.87 4.69-2.1 5.23-2.1 5.23-4.33 6.34-.73-5.36-1.2-10.66-1.43-16.07-.07-1.54-.14-3.08-.22-4.62-.03-.8-.07-1.59-.11-2.41-.71-15.09-1.78-29.99-4.24-44.9-.11-.7-.22-1.39-.33-2.11-5.34-33.3-22.97-61.64-50.05-81.7-19.76-14.17-42.1-23.25-65.56-29.25-.68-.18-1.36-.35-2.06-.53-10.45-2.68-20.84-4.84-31.56-6.11-2.63-.32-5.24-.71-7.85-1.1-12.59-1.84-25.03-2.66-37.73-2.99-5.32-.15-10.58-.59-15.86-1.21v-4c.76-.31 1.53-.61 2.31-.93 21.26-8.55 41.77-17.68 61.37-29.66 12.42-7.57 25.31-14.05 38.51-20.16.93-.44 1.87-.87 2.84-1.32 1.92-.88 3.86-1.73 5.81-2.57 2.2-.95 4.39-1.95 6.56-2.98 12.34-5.58 24.82-5.36 38.16-5.5 29.84-.43 58.57-4.09 85.44-17.88z" fill="#CAC5CA"/>
  <path d="M498 0h130c-.75 8.3-1.57 13.68-4.81 20.94-.35.82-.69 1.64-1.04 2.49-1.87 4.31-3.56 7.44-7.15 10.57-.92 1.21-1.82 2.44-2.69 3.69-5.12 6.94-11.49 12.72-18.04 18.31-2.3 2.03-4.53 4.14-6.75 6.26-23.61 22.33-23.61 22.33-36.33 22.86-.72-.04-1.44-.08-2.19-.12v3c-.58.52-1.15 1.03-1.75 1.56-5.63 6.1-7.21 15.41-8.94 23.32-.21.95-.43 1.91-.65 2.9-1.46 6.73-2.5 13.31-2.66 20.22-2.37-2.79-4.34-5.53-6.06-8.75-1.61-3.5-1.61-3.5-4.94-4.25-1.77-.08-3.54-.11-5.31-.1-1.08.01-2.17.01-3.29.01l-3.55.03c-1.2 0-2.41.01-3.65.01-5.16.02-10.33.04-15.49.07-3.76.02-7.53.03-11.3.04l-3.53.03c-1.1 0-2.19 0-3.31.01-.96 0-1.91.01-2.9.01-2.66-.11-5.07-.56-7.67-1.11-1.67.05-3.34.14-5 .25-3.61.01-4.69-.04-7.75-2.13-4.35-6.03-8.07-12.4-11.25-19.12h-2c.29.87.58 1.74.88 2.63.37 1.16.74 2.31 1.12 3.49.56 1.71.56 1.71 1.12 3.45.86 3.35 1.2 6 .88 9.43l-2 2-.81-2.75c-2.88-4.27-5.47-4.61-10.23-6.15-21.5-8-35.89-32.29-47.45-50.72-1.67-2.64-3.38-5.24-5.1-7.85-5.77-8.83-11.06-17.21-14.84-27.08-2.4-5.26-5.65-9.95-8.97-14.68-4.31-6.3-4.31-6.3-3.6-10.77 4.65-.26 8.32-.02 12.77 1.38 7.42 2.09 14.96 2.89 22.61 3.74.74.09 1.49.18 2.26.27 9.87 1.14 19.67 1.94 29.6 2.25 9.32.34 17.93 2.39 26.76 5.36.95.26 1.89.52 2.87.79 29.24 8.13 45.81 27.19 60.37 52.82C511.79 78.47 516.86 88.45 521 99c.28.71.56 1.42.85 2.15 2.49 6.38 4.83 12.79 6.96 19.29.82 3.34.82 3.34 2.19 4.56.23-1.2.46-2.4.7-3.63 2.07-10.44 4.65-20.37 8.3-30.37l-4-1c-.18-.64-.35-1.28-.53-1.95-3.96-14.43-8.16-28.75-12.82-42.97-1.28-4.09-1.76-7.52-1.71-11.83.01-.98.02-1.97.02-2.98L521 28c-.75-.11-1.5-.22-2.27-.33-7.36-1.8-11.73-8.71-15.67-14.73-.39-.59-.78-1.18-1.18-1.79-2.5-3.99-3.07-6.27-3.88-11.15zm301.871 551.652c3.25.53 4.1 2.29 6 4.91 13.29 17.08 29.79 29.57 47.65 41.51 21.79 14.56 21.79 14.56 30.48 23.93.71.75.71.75 1.43 1.52 21.58 23.23 32.76 55.67 42.69 85.17.38 1.11.76 2.23 1.15 3.38 1.49 4.54 2.85 8.86 3.35 13.63.12 1.09.25 2.18.38 3.3l2 1c-.38.44-.75.87-1.14 1.33-7.96 9.86-12.25 22-12.06 34.67.01.72.01 1.44.01 2.18.01 2.27.04 4.55.06 6.82l.03 4.66c.02 3.78.06 7.56.1 11.34-5.05-.73-9.11-2.24-13.63-4.56l-2.12-1.09c-6.42-3.32-12.39-7.13-18.25-11.35-.93-.67-1.85-1.33-2.81-2.01-8.32-6.11-16.25-12.7-24.17-19.31-1.81-1.5-3.62-3-5.44-4.5-21.61-17.92-40.89-37.26-52.58-63.18-.48-1.03-.95-2.06-1.45-3.12-6.53-15.37-6.15-32.7-6.18-49.07-.11-23.15-1.26-45.9-5.04-68.76-.49-3.01-.91-6.03-1.33-9.05h-11v-1c3.06-.34 6.12-.67 9.19-1 1.29-.15 1.29-.15 2.62-.29 1.67-.18 3.34-.35 5.01-.51 1.69-.16 3.37-.35 5.05-.55zM602 878c2.03 3.04 2.5 4.71 3.16 8.24.2 1.07.41 2.15.62 3.25.21 1.17.42 2.33.65 3.53.23 1.21.45 2.43.69 3.67.74 3.9 1.47 7.79 2.19 11.69.95 5.07 1.9 10.14 2.87 15.21.23 1.23.46 2.46.7 3.73 1.81 9.38 3.92 18.66 6.23 27.93.89 3.75.89 3.75.89 5.75h2c-.14-1.1-.29-2.19-.44-3.32-.19-1.46-.37-2.91-.56-4.37-.14-1.08-.14-1.08-.29-2.18-.48-3.74-.83-7.35-.71-11.13l3 1c1.03 2.78 1.03 2.78 1.94 6.5.3 1.19.59 2.37.9 3.59.17.73.33 1.46.5 2.21.51 2.09 1.08 4.16 1.67 6.23 3.05 11.1 3.55 21.69 3.4 33.17-.04 2.96-.04 5.91-.04 8.87l-.03 5.72c-.01.87-.01 1.75-.01 2.64-.01.83-.03 1.66-.04 2.51-.01.71-.01 1.43-.02 2.16-.36 3.2-1.38 6.3-2.27 9.4H497c-3.52-11.97-5.82-20.18-5.56-32.06.01-1.3.03-2.61.05-3.95.23-9.58 1.22-17.97 4.51-26.99.4-1.17.8-2.34 1.21-3.55 5.66-15.27 13.39-30.87 23.79-43.45.46-.56.91-1.12 1.38-1.69 5.2-6.35 10.38-12.51 16.75-17.73 2.8-2.37 5.29-5.03 7.82-7.69 5.58-5.15 9.36-6.5 16.74-6.27.84.02 1.68.03 2.55.04 11.94.28 23.86 1.33 35.76 2.34v-5zm342.025-552.391c2.54.02 5.08 0 7.61-.02 13.7-.02 25.91 2.26 38.93 6.66.89.3 1.79.61 2.72.92 7.36 2.56 14.12 5.62 20.71 9.83.81.42 1.62.85 2.46 1.29 7.01 4.08 7.01 4.08 8.43 8.43.27 3.3.24 6.47.09 9.78-.01 1.19-.03 2.37-.04 3.6-.06 3.78-.18 7.56-.31 11.34-.05 2.57-.1 5.14-.14 7.71-.11 6.28-.27 12.57-.49 18.85-1 .5-2 .99-3.04 1.5-7.71 3.81-15.32 7.75-22.84 11.93-40.36 22.37-83.99 21.07-127.82 9.22-5.91-1.73-11.13-4.21-16.52-7.17-5.74-3.06-11.27-3.87-17.78-3.48-.99.5-.99.5-2 1-2.12-.94-2.12-.94-4-2 .75-.72 1.49-1.44 2.25-2.18 10.47-10.73 18.19-24.39 26.31-36.91 15.24-23.45 31.66-42.22 60.08-48.5 8.45-1.73 16.8-1.86 25.39-1.8zM864 87c10.62 1.55 18.01 8.77 25.65 15.84 1.98 1.82 3.99 3.56 6.04 5.28 14.18 12.46 27.56 25.89 34.31 43.88.36.9.73 1.79 1.11 2.71 1.18 4.34 1.23 8.38 1.2 12.85 0 .89-.01 1.78-.01 2.7-.42 22.91-11.79 44.76-24.21 63.5-5.17 7.79-10 15.83-14.09 24.24 5.69-3.97 11.36-7.96 17-12l4 2c-6.6 9.18-13.23 18.34-19.94 27.44-.57.78-1.15 1.56-1.75 2.37-2.97 4.04-5.96 8.06-8.95 12.08-7.08 9.53-13.9 19.16-20.36 29.11-1.9-.24-1.9-.24-4-1-.97-1.79-.97-1.79-1.64-4.13l-.79-2.61-.82-2.82c-3.06-9.77-6.88-18.46-11.75-27.44-1.57-2.91-3.14-5.81-4.7-8.72-1.67-3.09-3.34-6.18-5.02-9.26-6.34-11.68-11.56-22.68-11.65-36.15l-.04-2.63c-.02-2.79-.03-5.58-.03-8.36V213c.04-13.91.52-26.85 5.44-40 .3-.84.59-1.67.89-2.53 4.26-11.82 10.09-21.91 17.21-32.22 9.92-14.39 13.59-30.29 15.51-47.43C863 88 863 88 864 87z" fill="#772030"/>
  <path d="M413.979 459.9c1.93.1 3.86.04 5.78-.03 4.63.09 8.33.39 11.88 3.62 10.15 11.5 17.85 27.61 21.36 42.51h2c2.27 5.19 3.48 10.25 4.44 15.81 2.38 13.44 6.82 22.52 16.56 32.19-10.02-.55-19.72-2.22-29.56-4.06-.82-.15-1.64-.31-2.49-.46-13.72-2.55-27.32-5.52-40.9-8.69-7.99-1.87-15.99-3.68-24.05-5.23-1.16-.22-1.16-.22-2.35-.46-33.9-6.3-65.49-.31-94.11 18.83-10.92 7.5-21.2 15.66-30.76 24.83-8.03 6.47-16.56 9.83-26.34 12.87-10.58 3.33-10.58 3.33-20.75 7.75-.56.2-1.11.41-1.69.62l-2-1c.57-.63 1.14-1.26 1.72-1.91 3.63-4.02 7.25-8.04 10.78-12.15 5.73-6.56 11.94-12.54 18.55-18.2 2.01-1.79 3.88-3.68 5.76-5.61 3.84-3.89 7.96-7.3 12.21-10.72 2.61-2.11 5.17-4.27 7.73-6.45 6.32-5.42 12.82-10.57 19.46-15.59 1.93-1.47 3.84-2.97 5.76-4.46 13.46-10.5 27.35-20.12 42.34-28.31 3.72-2.04 7.38-4.15 11.04-6.29 53.27-31.06 53.27-31.06 77.63-29.41z" fill="#CAC4C9"/>
  <path d="M0 830c14.82 14.82 26.24 33.56 32.45 53.59.25.79.5 1.59.75 2.4.48 1.54.93 3.07 1.36 4.62 1.84 6.07 5.05 9.89 9.44 14.39l1.79 1.88c1.2 1.26 2.4 2.51 3.6 3.75 20.23 21.02 35.19 44.22 35.03 74.26-.3 11.56-1.73 30.42-10.42 39.11H0V830zm1024-623c.2 6.35.34 12.7.44 19.05.04 2.16.09 4.31.16 6.47.69 21.67.69 21.67-6.51 29.38-.69.69-1.38 1.39-2.09 2.1-1.26 1.77-2.49 3.56-3.69 5.38-18.86 25.73-46.67 36.98-77.41 41.76-2.18.33-4.35.66-6.52.98-4.31.67-8.62 1.34-12.92 2.01-1.02.16-2.05.32-3.1.49-6.27.99-12.36 2.25-18.52 3.77-5.16 1.11-10.39 1.44-15.65 1.8-1.09.08-2.17.16-3.29.25-2.64.19-5.27.38-7.9.56 2.92-5.32 6.17-10.23 9.75-15.12.56-.78 1.12-1.55 1.7-2.35 4.43-6.07 8.98-12.06 13.55-18.03 12.91-16.87 25.04-33.68 35-52.5l2 2c1.35-.94 1.35-.94 2.72-1.91 20.05-13.84 40.3-22.42 64.72-24.78 1.22-.13 2.44-.26 3.69-.39 7.99-.8 15.85-1.08 23.87-.92z" fill="#772030"/>
  <path d="M526 306c1.79.31 3.58.62 5.38.94 1.49.26 1.49.26 3.02.52 2.6.54 2.6.54 4.6 1.54 6.61 19.83-1.42 46.27-9.59 64.57-4.01 8-9.23 14.03-15.41 20.43-1.09 1.31-2.17 2.62-3.25 3.94-9.23 10.54-20.89 18.76-32.75 26.06-.6.37-1.2.74-1.82 1.13-20.32 12.44-42.91 20.43-65.24 28.45-35.47 11.98-35.47 11.98-68.3 29.49-2.26 1.28-4.11 1.33-6.64.93 1.39-3.11 3.02-5.24 5.38-7.69 16.59-18.39 29-41.09 38.66-63.75.52-1.2.52-1.2 1.04-2.42.31-.72.61-1.45.92-2.19 1.52-2.97 3.49-4.78 6-6.95l1-1c1.32-.17 2.66-.28 3.99-.36 44.3-3.21 85.89-24.35 115.55-57.47 4.71-5.78 8.06-12.56 11.46-19.17.54-1.03 1.09-2.05 1.65-3.11 1.36-2.9 2.24-5.67 3.04-8.77.25-.96.5-1.93.76-2.92.18-.73.36-1.45.55-2.2z" fill="#C9C4C9"/>
  <path d="M100.473 280.566l2.68-.03 2.91.03c1.01 0 2.01.01 3.05.02 33.29.68 65.39 10.98 95.64 24.23 1.04.45 2.08.91 3.15 1.38 4.99 2.24 9.79 4.4 14.1 7.8l1 3c-24.77.29-24.77.29-32.5-2.06-5.45-1.46-10.9-1.09-16.5-.94.74 1.49 1.49 2.98 2.23 4.47.64 1.29 1.28 2.57 1.92 3.86 1.38 2.77 2.76 5.52 4.25 8.23 7.68 14.15 9.82 30.22 12.37 45.9 2.16 13.16 5.38 25.81 9.98 38.36.62 1.71 1.24 3.42 1.86 5.14.26.73.53 1.46.81 2.22.58 1.82.58 1.82.58 3.82-24.49-6.94-46.89-27.73-65-45-.67-.6-1.33-1.2-2.02-1.82-13.83-12.86-21.62-30.71-27.48-48.3-4.61-13.81-11.52-25.94-19.85-37.83-1.85-3.41-2.33-5.23-1.65-9.05 2.77-2.6 4.7-3.38 8.47-3.43z" fill="#772030"/>
  <path d="M238 463c.92.4 1.84.8 2.79 1.21 13.83 5.84 27.63 8.61 42.65 9.35 1.24.07 1.24.07 2.5.13 2.02.11 4.04.21 6.06.31 3.89 11.07 7.38 22.6 4.06 34.31-6.14 8.01-14.9 13.65-22.94 19.62-18.76 13.95-36.44 29.18-52.85 45.84-2.05 2.01-4.14 3.88-6.33 5.73-8.32 7.15-15.12 15.96-21.94 24.5-.82 1.01-1.63 2.02-2.47 3.06-6.29 7.89-11.52 16.19-16.53 24.94-6.62-13.25 9.28-52.5 13.85-66.63 8.16-23.88 20.17-46.47 32.97-68.16.93-1.59 1.87-3.18 2.8-4.77.46-.77.91-1.54 1.37-2.33 4.24-7.3 7.82-14.86 11.33-22.52C237 464 237 464 238 463z" fill="#C9C4C9"/>
  <path d="M1023 253h1v97c-9.59-5.33-9.59-5.33-13.75-8-5.8-3.49-11.88-5.77-18.25-8-.62-.22-1.23-.44-1.87-.67-13.77-4.92-26.21-6.68-40.8-6.65-2.56.01-5.12-.02-7.69-.04-23.97-.09-45.29 5.68-62.75 22.97-7.11 7.36-12.39 16.07-17.89 24.64-2.18 3.36-4.37 6.72-6.56 10.08-.53.81-1.07 1.63-1.62 2.47-4.89 7.43-10.13 14.59-15.59 21.62-1.11 1.43-2.2 2.89-3.27 4.35-2.1 2.39-3.9 3.6-6.71 5.06-.91.49-1.82.97-2.77 1.47-.96.5-1.92 1-2.92 1.51-7.62 4.03-15.01 8.19-22.2 12.96-.78.41-1.56.81-2.36 1.23l-3-1c.76-1.01 1.53-2.02 2.31-3.06 1.23-1.65 2.46-3.29 3.69-4.94.39-.52.78-1.04 1.19-1.58 15.07-20.06 27.74-41.57 40.25-63.3.63-1.09 1.26-2.18 1.9-3.3 3.11-5.38 6.19-10.76 9.26-16.16 1.13-1.97 2.27-3.94 3.4-5.91.5-.9 1.01-1.8 1.53-2.72 3.01-5.21 6.05-10.1 11.47-13.03 3.31-.84 6.53-.96 9.94-1.06 7.88-.48 15.36-1.44 23.06-3.19 7.39-1.67 14.77-3.07 22.27-4.16.81-.12 1.62-.24 2.46-.36.82-.12 1.64-.24 2.49-.37 15.14-2.21 29.77-4.37 43.78-10.86 1.04-.48 1.04-.48 2.09-.96 8.43-3.98 15.99-8.74 22.91-15.04 1.36-1.23 1.36-1.23 2.74-2.49 6.9-6.59 12.05-13.55 17.26-21.51 1.63-2.37 3.28-4.69 5-7z" fill="#C9C3C8"/>
  <path d="M995 121c2.78 1.18 5.55 2.37 8.31 3.56.77.33 1.54.65 2.32.98 1.57.68 3.12 1.4 4.65 2.14 1.84.89 3.7 1.73 5.58 2.52 3.28 1.64 5.61 3.13 8.14 5.8 1.54 5.4 1.29 10.66 1.07 16.21-.02 1.59-.03 3.17-.04 4.75-.04 4.15-.15 8.29-.27 12.43-.12 4.24-.17 8.48-.22 12.71-.12 8.3-.31 16.6-.54 24.9-.73.05-1.46.11-2.21.16-3.36.25-6.73.5-10.09.76-1.15.08-2.29.17-3.47.25-26.38 2-48.59 7.58-70.88 22.29-3.04 1.99-6.17 3.77-9.35 5.54.5-6.32 2.11-11.22 4.62-17 7.29-17.6 11.86-35.36 14.61-54.2 1.91-12.58 5.64-19.01 15.77-26.8 22.95-15.81 22.95-15.81 32-15v-2z" fill="#CAC4C9"/>
  <path d="M1006 0h18v98l-12 6c-3.08 2.03-6.05 4.06-9 6.25-1.44 1.05-2.87 2.1-4.31 3.14-.62.45-1.23.91-1.87 1.38-1.82 1.23-1.82 1.23-4 2.26-2.04.82-2.04.82-2.57 3.09-.08.62-.16 1.24-.25 1.88-1.15.17-2.31.33-3.5.5-7.05 1.55-13.26 5.19-19.6 8.51A486.71 486.71 0 01959 135c-1.33.67-2.67 1.33-4 2-.54-10.56 1.14-20.57 2.88-30.94.27-1.66.54-3.33.81-5 .53-3.22 1.06-6.44 1.59-9.65.63-3.84 1.22-7.67 1.8-11.52 4.95-32.45 16.47-51.93 39.81-74.72 2.25-2.18 2.25-2.18 4.11-5.17z" fill="#CAC4C9"/>
  <path d="M368 318h2c1.95 3.29 2.28 5.89 2.44 9.69.46 7.51 1.77 14.78 3.19 22.16 1.17 6.75 1.56 13.25 1.61 20.1.01 1.04.01 2.09.02 3.17.02 2.21.03 4.42.04 6.63.01 2.24.03 4.48.06 6.72.31 23.87.31 23.87-4.36 34.53-.27.66-.53 1.32-.81 2-8.71 20.38-22.6 39.37-37.74 55.4-2.06 2.19-4.02 4.42-5.95 6.72-7.57 8.68-16.95 18.19-28.5 20.88-.12-1.21-.24-2.41-.37-3.66l-.51-4.84c-.07-.79-.15-1.58-.23-2.4-.56-5.2-1.56-10.04-2.89-15.1-.94-4.8-1.06-8.36 1.66-12.58 3.74-4.3 7.83-7.89 12.34-11.36 24.99-19.51 35.27-58.98 42.63-88.51.18-.74.37-1.48.56-2.24.18-.74.37-1.48.56-2.24 2.58-9.92 6.1-19.56 9.5-29.22.24-.68.48-1.35.73-2.05.65-1.87 1.31-3.73 1.98-5.6.89-2.74 1.56-5.36 2.04-8.2z" fill="#C9C4C9"/>
  <path d="M0 830c20.25 20.25 36.93 50.28 37.38 79.4-.06 32.18-11.45 66.41-33.38 90.6l-4 3V830z" fill="#2B0000"/>
  <path d="M900 0h61c7.84 23.52 9.93 35.3 2.8 57.79-3.59 11.68-5.4 23.53-7.1 35.6-.98 6.94-2.03 13.79-3.7 20.61h-2l-2.88-10.44c-.26-.97-.53-1.95-.81-2.95-2.21-8.04-4.15-15.97-5.25-24.24-4.14-30.47-18.96-53.15-40.84-74.09C900 1 900 1 900 0z" fill="#C8C3C8"/>
  <path d="M214 0h48c-10.7 69.57-10.7 69.57-34 89h-3c-.04-.75-.09-1.5-.14-2.27-1.43-23.35-3.69-46.37-7.9-69.41-1.04-5.76-2-11.54-2.96-17.32z" fill="#2C0101"/>
  <path d="M2 0h72l-5 10c-.93 1.94-.93 1.94-1.89 3.91-6.94 14.39-15.47 27.5-24.87 40.38-1.23 1.7-2.44 3.41-3.63 5.13C28.78 73.5 17.87 86.6 6 99c-1.1 1.17-1.1 1.17-2.21 2.36C2 103 2 103 0 103c-.48-3.37-.75-5.92 1.26-8.81 1.83-1.9 3.72-3.67 5.68-5.44 1.39-1.32 2.77-2.64 4.16-3.97.67-.65 1.35-1.29 2.04-1.95C17.16 78.88 20.57 74.47 24 70c.78-.99 1.56-1.97 2.37-2.99 6.87-8.86 13.36-18.03 13.07-29.65C38.56 32.63 35.6 29.99 32 27c-2.95-1.98-5.93-3.89-8.93-5.78C17.65 17.7 13.11 13.58 8.56 9c-.65-.66-1.31-1.32-1.99-2C2 2.28 2 2.28 2 0z" fill="#772030"/>
  <path d="M0 351c5.74 3.59 10.01 6.58 14.56 11.31l1.72 1.75c3.35 3.44 6.53 6.98 9.64 10.64 3.12 3.46 6.41 6.75 9.7 10.05.65.65 1.3 1.3 1.96 1.97 2.71 2.7 5.34 5.22 8.36 7.56C48 396 48 396 48.31 398.75c-.1.74-.2 1.49-.31 2.25-1.07-.16-2.14-.32-3.25-.48-5.6-.7-11.18-.74-16.81-.77l-3.13-.06C15.88 399.64 9.18 401.16 0 403v-52z" fill="#782232"/>
  <path d="M997 835c.46 17.6-3.2 32.78-11 48.5-.32.65-.64 1.29-.97 1.96-2.31 4.49-5.02 8.49-8.03 12.54l-2-1c-3.39-11.73-4.37-23.52-4.38-35.69v-3.54c.09-6.8.75-13.16 2.38-19.77 2.5-.51 5-1.01 7.5-1.5.7-.14 1.39-.29 2.11-.43 4.88-.95 9.42-1.2 14.39-1.07z" fill="#C8C2C7"/>
  <path d="M1024 98v38l-11-6c-2.93-1.54-5.85-3.04-8.81-4.5-.71-.37-1.42-.74-2.16-1.12-4.46-2.18-4.46-2.18-9.33-1.58-.89.4-1.78.79-2.7 1.2-3.38-.38-3.38-.38-6-1v-1c.78-.08 1.57-.16 2.38-.25.86-.25 1.73-.5 2.62-.75.3-.62.59-1.24.89-1.88 1.41-2.69 2.77-3.36 5.42-4.81 4.29-2.44 8.35-5.09 12.38-7.93C1019.65 98 1019.65 98 1024 98z" fill="#772232"/>
  <path d="M0 207c17 0 17 0 21 3-.51 6-2.37 10.62-5 16-.4.82-.79 1.65-1.2 2.49-2.7 5.51-5.6 10.87-8.74 16.13-.37.64-.75 1.27-1.14 1.92-2.66 4.33-2.66 4.33-4.92 5.46v-45z" fill="#782231"/>
  <path d="M61 20c1.06 3.26 1.11 3.77-.45 7.07-.73 1.22-1.48 2.42-2.24 3.62l-1.22 1.98c-4.59 7.3-9.59 14.32-14.64 21.31-1.34 1.87-2.67 3.75-3.98 5.64C28.69 73.64 17.81 86.66 6 99c-1.1 1.17-1.1 1.17-2.21 2.36C2 103 2 103 0 103c-.48-3.37-.75-5.92 1.26-8.81 1.83-1.9 3.72-3.67 5.68-5.44 1.39-1.32 2.77-2.64 4.16-3.97.67-.65 1.35-1.29 2.04-1.95C17.16 78.88 20.57 74.47 24 70c.78-.99 1.56-1.97 2.37-2.99C34.34 56.73 38.53 47.79 41 35l4-1v7c4.33-4.01 7.54-8.42 10.81-13.31.5-.74 1.01-1.48 1.52-2.25 1.23-1.81 2.45-3.62 3.67-5.44z" fill="#26262A"/>
  <path d="M546 82c1.22 2.89.97 4.08-.04 7.12-.52 1.25-1.05 2.5-1.58 3.76-5.43 13.55-9.04 28.48-9.38 43.12-3.51-4.01-5.77-8.21-8-13l4 2c.24-1.22.48-2.44.73-3.7C537 95.26 537 95.26 542 89c1.02-1.99 2.02-3.99 3-6l1-1z" fill="#370D0E"/>
  <path d="M1015 1014c3.44.12 4.31 1.33 6.75 3.88 2.25 3.12 2.25 3.12 2.25 6.12h-16c5.88-8.88 5.88-8.88 7-10z" fill="#C6BFC4"/>
  <path d="M550.453 389.848c.51.38 1.02.76 1.55 1.15-.95.34-1.9.68-2.87 1.03-10.6 3.87-20.87 8.29-31.13 12.97l-2-3c8.18-3.68 16.4-7.27 24.75-10.56.66-.28 1.33-.55 2.02-.83 4.67-1.8 4.67-1.8 7.68-.76z" fill="#411B1C"/>
  <path d="M1022 1005h2v16l-5-5-3-2c1.53-3.44 3.5-6.19 6-9z" fill="#772332"/>
  <path d="M590 236c3.29 2.72 4.82 6.33 6.56 10.12.31.68.62 1.35.94 2.05 3.56 7.95 5.08 14.16 3.5 22.83h-1c-.01-.73-.03-1.45-.04-2.2-.51-10.69-3.91-19.5-10.14-28.18-.27-.53-.54-1.07-.82-1.62l1-3z" fill="#4E282A"/>
  <path d="M230 476c1 3 1 3-.48 6.54-.7 1.37-1.42 2.73-2.14 4.08-.35.7-.69 1.39-1.05 2.11-2.67 5.04-2.67 5.04-6.1 6.23L218 495c.55-.96 1.11-1.93 1.68-2.92.73-1.28 1.46-2.55 2.2-3.83.54-.95.54-.95 1.1-1.92 1.46-2.55 2.9-5.07 4.15-7.72C228 477 228 477 230 476z" fill="#3B1314"/>
  <path d="M293 476l3 1c.95 2.33.95 2.33 1.69 5.25.25.95.5 1.91.76 2.89.52 2.71.66 5.11.55 7.86l-3-1-3-16z" fill="#441F20"/>
  <path d="M368 318h2c2.33 3.63 2.16 6.77 2 11l-1-4c-2.48 1.49-2.48 1.49-5 3l2-10z" fill="#A8A4A4"/>
  <path d="M71 531l3 1c-1.48 2.48-1.48 2.48-3 5l-3-1c1.88-3.88 1.88-3.88 3-5z" fill="#DDDCD6"/>
</svg>
