<svg version="1.1" viewBox="0 0 3600 3600" xml:space="preserve" xmlns="http://www.w3.org/2000/svg">
  <path fill="#f9f9f9" stroke="#db6e65" d="M-32.889-78.933h3755.9v3801.9h-3755.9z"/>
  <path d="M0 6.578h582.68c-9.21 27.35-19.86 54.18-30.59 80.96-43.8 105.47-106.1 203.66-182.88 288.21-43.07 48.27-92.46 91.23-143.65 130.68C155 558.778 78.82 603.778 0 642.488z" fill="#020203" stroke="#f3c4b7" stroke-width="10"/>
  <path d="M824.73 6.578h887.34l2.57 5.17c16.77 37.3 32.31 75.16 49.18 112.43 4.96 10.69 9.42 21.48 13.25 32.62-17.79 2.46-33.86 8.86-50.31 15.75-47.29 20.67-93.69 43.31-138.76 68.48-43.8 23.31-86.59 48.2-127.12 76.89-40.61 29.14-79.31 60.93-115.88 95.06-41.45 39.09-81.07 82.76-111.48 131.1-10.05 17.16-21.16 36.74-24.19 56.57-2.14 12.73 3.48 24.54 12.62 33.15 11.57 10.86 24.96 19.9 38 28.86 59.73 38.43 123.93 70.49 188.58 99.74 77.59 35.58 158.77 61.98 241.84 81.42 67.57 14.55 138.8 28.41 208.05 27.11 59.27 1.12 119.18-10.16 174.02-32.66 58.08-24.82 110.04-61.49 147.48-112.92 34.95-47.36 53.26-104.77 56.07-163.3 3.55-59.84-13.43-121.46-41.94-173.85-30.13-55.65-74.74-101.46-127.09-136.62-64.97-43.91-139.36-74.53-216.11-90.39-34.59-7.07-68.48-9.84-103.78-7.31 20.92-48.94 40.18-98.79 61.95-147.3h380.11c38.92 95.34 81.35 190.27 130.18 280.97 23.7 42.71 48.66 86.41 77.1 126.14-15.15 46.44-31.08 92.57-49.75 137.71l-.84 2.57c-12.27-1.37-24.5-2.18-36.84-1.12l.81 5.27c10.62 3.2 22.15 3.83 33.12 4.96-15.64 37.34-30.66 75.59-48.16 112.04-3.16 6.79-2.04 15.71-2.39 23.06-2.85-.28-5.73-.6-8.58-.91l-.74 1.41c-7.1 11-11.67 23.1-17.68 34.7-24.26 47.67-51.64 95.03-83.5 138.06-38.78 51.71-84.69 100.09-137.81 137.21-21.8 13.78-43.7 26.23-66.59 38.07-26.86 12.55-54.49 22.85-83.92 27.49-63.53 8.89-126.25-1.51-185.98-23.7-64.41-24.05-126.39-60.15-184.04-97.35-91.23-59.1-177.5-125.75-256.54-200.46-101.43-94.96-192.27-201.3-272.46-314.68-61.07-88.49-119.36-182.88-160.45-282.48-19.6-48.59-36.16-98.26-49.34-148.96z" fill="#020203" stroke="#122532" stroke-width="10"/>
  <path d="M2229.2 6.578h940.89l2 2.6 1.65 2.21c12.3 16.84 18.6 35.4 25.1 54.98 6.29 19.62 12.59 39.66 16.84 59.8 19.48 88.73 30.97 179.75 32.41 270.63 1.02 16.42 1.62 32.8.84 49.25-2.18 35.16-1.05 70.24-4.61 105.4-3.52 57.06-11.85 113.38-19.58 169.95-6.96 46.69-14.98 93.41-25.95 139.36-3.48 12.41-6.79 27.25-15.05 37.37-7.1 7.77-16.28 8.51-26.16 7-37.72-6.15-74.29-21.02-109.51-34.7-3.73-1.58-7.42-3.3-11.07-4.99-1.83-6.22-.11-20.78-7.73-22.36-.21 6.43-.53 12.41-2.81 18.49-30.76-10.9-61.38-22.75-90.67-37.16-1.16-87.05-.63-174.13-.42-261.18 66.8-.7 133.59.42 200.36-1.02 1.34-2.46 2.67-4.92 3.97-7.42-4.61-2-9.04-3.66-14.17-3.62-63.21-.14-126.77.04-189.91-.25-.7-103.04-.21-206.4-.25-309.45-3.59-.39-7.1-.25-10.48.49-1.69 5.87-1.65 11.64-1.76 17.68-.53 97.17-.56 194.38-.28 291.59-100.02-.39-200.04.42-300.02-.63.42-113.27.18-226.51.35-339.75 56.18-.77 112.61.49 168.71-.84 2.07-4.43 1.97-7.59-.35-9.49-13.85-2.07-28.3-.88-42.29-1.2-42.01-.35-83.99-.14-126-.04-.18-22.22.32-44.4-.32-66.59-3.66-.07-7.31-.04-11 .21-.98 21.97-.39 44.02-.81 65.99-31.25-.04-62.72-.04-93.9 1.27-36.84 1.05-74.53.6-111.27 3.97-.84 3.55-1.51 7.1-2.04 10.72 69.08-.84 138.13-3.76 207.21-3.62-.04 113.13.07 226.27-.14 339.4-21.38-.07-42.86.77-64.2-.6-14.52-11.6-25.63-25.77-37.41-39.97-25.91-30.9-50.1-63.14-72.91-96.4-28.44-39.73-53.4-83.43-77.1-126.14-48.81-90.67-91.24-185.6-130.16-280.94z" fill="#020203" stroke="#5f8d8b" stroke-width="10"/>
  <path d="M3285.5 6.578h314.51v636.15c-27.35 11.32-55.69 20.43-84.06 28.79-94.18 26.61-193.36 45.7-291.23 49.89 7.73-56.57 16.07-112.89 19.58-169.95 3.55-35.16 2.43-70.24 4.61-105.4.77-16.45.18-32.84-.84-49.25-1.44-90.88-12.94-181.9-32.41-270.63 3.94-16.49 13.32-28.23 21.69-42.64 15.81-25.77 31.21-51.89 48.15-76.96z" fill="#020203" stroke="#f3c3b6" stroke-width="10"/>
  <path d="M1787.1 153.878c35.3-2.53 69.19.25 103.78 7.31 76.75 15.86 151.14 46.48 216.11 90.39 52.35 35.16 96.96 80.96 127.09 136.62 28.51 52.38 45.49 114.01 41.94 173.85-2.81 58.54-21.13 115.95-56.07 163.3-37.44 51.43-89.4 88.1-147.48 112.92-54.84 22.5-114.75 33.79-174.02 32.66-69.26 1.3-140.48-12.55-208.05-27.11-83.07-19.44-164.25-45.84-241.84-81.42-64.65-29.25-128.85-61.31-188.58-99.74-13.04-8.96-26.44-18-38-28.86-9.14-8.61-14.77-20.43-12.62-33.15 3.02-19.83 14.13-39.41 24.19-56.57 30.41-48.34 70.03-92 111.48-131.1 36.56-34.14 75.27-65.92 115.88-95.06 40.54-28.69 83.32-53.58 127.12-76.89 45.07-25.17 91.48-47.81 138.76-68.48 16.45-6.89 32.52-13.29 50.31-15.75 3.39-.7 6.76-1.61 10-2.92z" fill="#020203" stroke="#db6e65" stroke-width="10"/>
  <g fill="#020203" stroke-width="10">
    <path d="M2349 552.838c12.34-1.05 24.57-.25 36.84 1.12 1.62 3.02 3.27 6.05 4.96 9.07l-7.88.04c-10.97-1.12-22.5-1.76-33.12-4.96z" stroke="#081119"/>
    <path d="M2551.9 562.928c19.62 1.79 39.52.63 59.2.95-.39 20.81-.18 41.66-1.3 62.47-2.88-11.88-2.85-23.77-2.53-35.89-.49 8.96-.95 17.89-1.41 26.82-18.31-17.75-35.82-36.39-53.96-54.35z" stroke="#639290"/>
  </g>
  <path d="M2622.8 563.028c99.49-.21 199.02 0 298.51-.11l-.07 1.65c-1.83 19.09-1.3 38.11-1.3 57.23.35 65.14-.77 130.32.56 195.47-7.8-2.88-15.5-5.98-22.99-9.67-97.03-46.65-192.59-102.97-274.71-172.93-.77-23.86-.56-47.73 0-71.64z" fill="#020203" stroke="#618d8d" stroke-width="10"/>
  <path d="M875.46 713.568c48.16 11.11 91.65 38.78 124.59 75.3 33.19 37.27 57.94 84.13 66.34 133.52 7.88 46.55 4.11 95.48-12.06 139.92-16.31 44.79-42.47 85.43-79.1 116.26-44.16 37.76-101.57 58.96-159.61 59.66-60.79.11-121.75-22.11-167.84-61.84-43.7-37.55-75.02-89.4-86.38-145.97-10.79-54.53-6.08-111.8 15.4-163.2 27.42-63.32 78.4-115.63 142.98-140.94 48.84-18.79 104.53-24.77 155.68-12.71z" fill="#020203" stroke="#122532" stroke-width="10"/>
  <path d="M474.61 857.958c34.21.14 68.45 3.8 102.2 9.28-21.48 51.4-26.19 108.67-15.4 163.2 11.36 56.57 42.68 108.42 86.38 145.97 46.09 39.73 107.05 61.95 167.84 61.84 58.04-.7 115.45-21.9 159.61-59.66 36.63-30.83 62.79-71.47 79.1-116.26 15.5 9.04 31.61 17.02 47.07 26.09 68.52 38.67 133.38 85.61 187.42 143.02 34.77 36.14 64.93 77.1 91.23 119.74 55.65 91.12 91.58 198.53 120.52 300.83 23.27 80.23 43.38 161.51 63.46 242.58 2.99 11.64 5.55 23.34 7.42 35.19-3.13 4.54-6.01 9.14-8.93 13.82 5.66-3.59 11-5.62 17.54-7.17l-2.95 7.52c10.83 47.18 21.06 94.64 30.38 142.17-.53.7-1.02 1.41-1.55 2.11-11.32 14.41-20.36 30.45-31.54 44.89-46.2 52.7-85.61 108.74-125.26 166.39-25.98 40.01-52.91 79.52-77.94 120.16 5.62.46 9.11 3.3 12.45-2.74 57.13-86.06 110.81-171.46 176.7-252.28 12.06-15.19 21.27-32.31 33.47-47.53 6.54-6.71 10.37-7.52 19.76-7.45 4.85 39.16 14.41 78.33 15.15 117.77-3.34 5.41-6.47 10.9-9.77 16.35-14.87 25.38-34.7 47.85-48.34 73.86 5.66 1.41 9.67-.04 12.02-4.32 15.79-20.88 30.38-42.79 45.14-64.41l1.69-2.43c-.46 29.14 1.76 58.29.07 87.5-.28 4.89-1.65 9.53-3.09 14.2-27 28.72-54.63 56.78-81.14 85.99-4.39 5.34-11.99 11.21-11.92 18.6l6.33 1.69c11.71-9.53 20.74-22.25 31.43-32.94 16.66-17.09 32.06-35.68 49.92-51.5l6.22-.67c-3.76 45.04-4.99 97.03-23.52 138.8-16.42 18.39-32.52 36.98-48.27 55.97-3.13 3.52-3.59 6.36-3.94 10.93-47.25 1.69-91.69-7.42-137.53-17.26-141.22-33.54-277.31-91.76-401.66-166.36 8.37-16.77 17.68-33.08 26.37-49.75 32.1-60.15 68.94-117.25 105.75-174.62 9.18-14.31 19.69-27.28 26.33-43.1 4.57 2.18 7.95 1.72 10.16-1.34 27.21-27.11 47-58.11 68.48-89.58 12.55-18 24.47-36.42 36.81-54.53 20.78-32.13 42.89-62.54 62.44-95.94 1.79-3.09 2.43-6.26 1.86-9.49-4.71.14-8.02 1.79-9.88 4.99-40.82 61.03-81.42 122.66-122.41 183.52-9.67 13.99-19.27 29.11-31.57 40.92-8.37 4.04-11.85 11.25-17.86 17.86-15.36 16.66-28.44 36-40.75 54.98-33.47 51.01-66.66 102.8-95.62 156.52-9.81 17.93-19.58 35.86-29.11 53.93-35.44-18.18-68.73-40.85-102.94-61.17 4.32-17.16 14.03-30.23 21.48-46.12 16.63-31.32 34.52-62.02 49.89-94.04 9.07-19.37 20.36-35.51 26.4-56.14-8.37.84-8.96 7.38-12.59 13.57-6.57 14.1-14.45 27.46-22.08 41.03-7.1 12.34-10.72 26.05-17.86 38.39-13.64 23.06-26.47 46.69-38.32 70.7-5.31 10.09-7.42 20.07-16.8 27.21-28.34-20.95-58.29-39.59-86.98-60.12 9.14-13.43 17.93-27.11 26.65-40.82 19.41-30.23 35.23-61.66 57.38-90.18 31.57-44.44 63.39-88.63 96.96-131.59 26.61-36.6 54.98-71.86 80.96-108.91 4.89-7 9.98-13.22 11.43-21.94-5.59 1.51-8.58 2.78-11.92 7.52-11.04 14.73-21.94 29.57-33.61 43.8-30.62 38.71-58.89 79.14-89.3 118.02-25.88 35.23-50.87 71.09-76.11 106.73-24.15 36.77-45.04 76.54-70.56 112.32-14.66-12.3-29.74-23.27-45.91-33.5 13.85-31.85 34.84-64.34 44.16-98.05-8.05 2.36-9.14 11.88-12.66 18.46-11.07 24.82-22.68 50.17-37.65 72.88-30.73-24.26-59.84-50.48-89.79-75.66 2.74-6.96 5.45-13.85 8.89-20.5 30.2-59.06 63.28-116.68 96.79-173.95 15.22-26.37 34.17-50.66 49.08-77.17-8.75 2.99-12.55 10.02-17.86 16.98-21.76 30.3-40.99 62.58-59.34 95.03-29.46 50.48-57.02 101.99-85.25 153.11-29.46-26.23-56.36-54.95-84.34-82.69 25.49-50.91 53.16-100.3 86.2-146.78 5.98-9.07 13.08-15.75 14.91-26.89-5.48 3.09-9.42 6.29-13.01 11.43-25.7 34.95-48.69 71.72-69.47 109.76-8.23 15.19-17.44 30.8-22.29 47.43-47.67-52.91-94.85-107.3-135.11-166.15 8.26-92.71 7.03-187-6.01-279.21-10.65-78.64-26.02-158.34-53.05-233.12-6.89-17.96-14.27-36.39-24.5-52.77-5.13-7.45-10.12-14.94-19.65-16.73-4.57-.7-9.21-1.09-13.78-1.62-4.46-43.52-8.19-87.36-9.04-131.13-1.41-71.96-1.09-142.98 8.58-214.52 2.99-17.75 5.55-37.34 13.71-53.54 8.26-15.75 23.27-22.64 39.62-27.18 37.94-9.93 77-10.63 115.92-10.03zm313.1 1244.8c10.69-2.07 15.61-16.91 21.41-25.03 38.29-67.99 81.88-132.54 128.14-195.33 2.29-4.04 10.3-13.04 1.23-14.24-6.82 6.43-12.48 14.77-18.04 22.39-48.47 67.08-96.6 137.64-132.74 212.21zm198.56 74.63c7.59-1.58 10.41-7.56 14.84-13.11 37.97-53.4 70.59-111.52 111.2-162.84 25.7-33.75 54.84-64.79 81.42-98.05 9.07-11.64 19.09-20.11 23.73-34.52-4.39-.39-8.02 1.34-10.86 5.2-27.42 35.54-58.57 68.1-86.66 103.18-24.43 31.08-48.9 61.77-70 95.27-14.17 22.15-29.11 43.73-43 66.06-8.05 13.29-17.71 23.2-20.67 38.81zm310.19-28.51c9.7-5.17 16-13.39 22.32-22.08 19.93-27.25 38.14-55.48 56.71-83.67 29.78-47.04 62.12-94.57 88.8-143.44 5.34-9.49 9.63-19.3 12.2-29.92-4.22.56-7.14 2.32-8.72 5.24-30.48 56.5-67.15 111.55-101.74 165.62-15.22 23.41-30.52 46.76-46.3 69.79-8.68 13.01-18.56 23.13-23.27 38.46zm-31.19 224.19c7.66-1.05 10.34-5.1 14.27-11.04 25.95-40.54 53.68-79.95 81.21-119.39 30.45-43.1 64.86-83.11 95.2-126.28 4.75-6.75 7.73-14.24 10.44-21.94-17.79 15.05-30.02 33.36-44.51 51.33-50.17 63.21-97.63 128.43-140.87 196.56-6.28 10.41-13.87 18.28-15.74 30.76zm-140.83 35.62c6.89-.74 8.23-1.79 11.64-7.52 31.25-54.67 59.73-109.51 93.87-162.56 9.28-15.96 20.88-32.27 25.84-50.1-9.67 10.55-15.96 22.64-23.84 34.45-14.7 22.89-30.02 45.28-43.63 68.87-18.7 30.97-35.09 63.21-53.33 94.43-4.26 7.2-7.7 14.55-10.55 22.43z" fill="#020203" stroke="#db6e65" stroke-width="10"/>
  <path d="M3281.2 1002.588c4.57-.67 11-3.3 14.52.95 5.24 5.73 7.45 14.73 9.77 22.01 9.39 33.54 15.36 68.17 20.18 102.62 16.7 124.07 8.72 255.06-.21 379.55-.81 9.28-1.3 18.56-.18 27.88-50.06-92.6-108.98-181.27-176.84-261.81-39.9-46.72-83.04-91.37-130.25-130.75 23.84-17.86 49.46-33.43 74.92-48.87 8.65 13.15 12.87 28.3 21.45 41.48 5.13 7.91 8.93 16.56 13.89 24.54 2.39 1.44 5.1 2.43 8.12 3.02-4.71-8.89-11.36-16.42-15.75-25.42-7.7-16.07-14.13-32.66-19.76-49.57 29.07-15.93 58.08-31.25 88.07-45.42l6.33-.14c6.22 17.09 13.75 33.61 21.59 50.03 2.46 5.7 4.99 6.79 10.76 8.65-4.43-23.98-21.3-40.08-20.67-66.06 17.65-8.26 35.79-15.4 53.51-23.52 8.26 14.03 12.06 28.16 22.99 40.43-.84-16.77-12.66-28.93-13.43-45.42 3.64-1.44 7.3-2.84 10.99-4.18z" fill="#020203" stroke="#84afac" stroke-width="10"/>
  <path d="M2950.2 1054.278c2.85.49 5.13 1.55 6.86 3.09 6.01 15.08 7.45 32.41 10.51 48.34.6 3.38 1.27 6.75 2.04 10.09-3.73-1.34-7.35-2.78-10.97-4.32-1.09-5.41-2.21-10.79-3.38-16.17-.38-13.99-5.27-27-5.06-41.03z" fill="#020203" stroke="#f2c8bd" stroke-width="10"/>
  <path d="M2879.3 1064.478c28.83 3.45 51.33 16.7 75.9 30.83 1.16 5.38 2.29 10.76 3.38 16.17 13.18 63.32 32.59 125.44 52.24 187 .11 3.02.14 6.05.04 9.11 5.59 7.56 9.07 16.03 13.32 24.33l5.73.53c-20.32-72.18-43.7-143.4-60.36-216.63-.77-3.34-1.44-6.71-2.04-10.09 17.47 11.81 34.63 23.59 50.7 37.34 47.21 39.38 90.35 84.02 130.25 130.75 67.85 80.54 126.77 169.21 176.84 261.81 45.18 86.38 83.14 176.34 115 268.42 46.62-80.19 102.45-155.67 159.68-228.62v897.36c-36.32 8.44-73.69 12.9-110.81 16.07 46.62 21.59 85.36 59.55 110.81 103.85v273.06c-40.36 72.42-114.15 125.05-196.84 135.74-54.07 7.24-109.41-2.74-157.43-28.58-60.19-31.32-107.23-87.22-130.11-150.89-15.47-44.37-20.18-92.99-12.62-139.39 9.84-61.42 40.04-119.92 87.26-160.84 20.81-18.14 44.47-31.99 69.68-43-62.82-12.3-128.39-23.59-188.89-44.75-138.59-47.29-252.88-161.58-308.88-295.88-24.68-58.29-38.04-121.43-47.14-183.83-11.92-87.19-16.84-175.85-11.53-263.74 5.06-119.36 23.03-238.78 49.43-355.22 12.13-54.28 27.49-107.96 47.11-160.03 11.5-29.64 23.27-58.57 42.36-84.27 3.66 45.53 13.18 91.09 20.85 136.09 4.71 23.17 8.12 46.86 14.66 69.61-1.02 2.07-2.07 4.11-3.09 6.19 4.43 8.02 5.31 25.91 15.71 27.84-2.64-13.78-4.18-27.63-5.91-41.59-7.07-38.25-14.13-76.57-21.09-114.86-4.82-32.66-11.21-64.27-12.02-97.38 7.49-7.56 16.53-14.13 27.81-12.51zm-2559.73 231.5c9.53 1.79 14.52 9.28 19.65 16.73 10.23 16.38 17.61 34.8 24.5 52.77 27.04 74.78 42.4 154.48 53.05 233.12 13.04 92.21 14.27 186.5 6.01 279.21-10.62 105.4-28.37 212.34-74.6 308.64-27.53 54.95-63.88 105.79-107.3 149.31-66.05 66.66-149.4 115.31-240.88 137.04v-897.12c41.73-51.86 88.07-100.27 135.28-147.13 43.8-42.29 90.88-85.08 142.63-117.42 12.13-6.78 27.32-16.7 41.66-15.15z" fill="#020203" stroke="#122532" stroke-width="10"/>
  <path d="M2752.9 1335.378c-26.4 116.44-44.37 235.86-49.43 355.22-5.31 87.89-.39 176.55 11.53 263.74 9.11 62.4 22.46 125.54 47.14 183.83 56 134.3 170.3 248.59 308.88 295.88 60.5 21.16 126.07 32.45 188.89 44.75-25.21 11-48.87 24.86-69.68 43-47.21 40.92-77.41 99.42-87.26 160.84-7.17 6.26-14.2 12.62-21.13 19.12-48.52 46.37-102.73 86.91-160.95 120.27-39.16 22.01-79.1 41.06-122.48 53.16-72.07 21.73-150.71 19.23-225.11 15.75-100.69-5.84-204.47-22.25-299.39-57.16-30.2-11.6-62.44-25-86.94-46.58-24.79-22.57-37.65-58.78-47.25-90.11-21.62-77.8-30.76-159.43-30.06-240.08-.81-61.28 4.61-122.17 13.18-182.78 13.32-99.7 39.97-199.3 82.72-290.5 31.46-66.83 72.67-129.3 120.16-185.8 62.51-76.29 130.22-148.75 197.37-220.96 60.61-65.92 123.05-130.04 184.99-194.66 15.08-15.4 28.54-32.87 44.82-46.93z" fill="#020203" stroke="#83afad" stroke-width="10"/>
  <path d="M609.08 2544.278c-2.57 8.02-6.19 15.12-10.86 22.11-9.98 15.01-18.77 30.73-28.02 46.16-32.13 53.37-56.21 112.15-74.18 171.67-7.84 27.56-15.26 55.62-19.02 84.06 27.81-7.45 56.25-18.67 85.5-18.7 15.57 0 30.62 4.32 41.66 15.71 11.88 12.23 17.75 31.64 23.03 47.5 10.83 30.45 14.13 64.37 18.63 96.33 7.35 57.73 7 114.08 6.26 172.09-2.57 144.28-25.8 287.86-69.57 425.39H0v-393.43c45.63-45.88 93.3-89.96 142.42-132.08 87.93-76.22 180.63-142.7 286.73-191.5 12.06-6.05 27.6-9.77 37.9-18.35 2.67-8.89 3.59-18.42 5.31-27.53 11.99-60.82 31.75-119.88 58.46-175.82 17.96-36.84 39.9-72.07 62.26-106.42 4.37-6.92 9.22-12.51 16-17.19z" fill="#020203" stroke="#f3c4b7" stroke-width="10"/>
  <path d="M0 2592.278c47.99 82.2 44.61 191.04 0 273.9z" fill="#020203" stroke="#112531" stroke-width="10"/>
  <g fill="#020203" stroke-width="10">
    <path d="M826.49 2679.578c8.61.81 17.05 5.45 25.17 8.3l-6.29-1.02-6.08-.81c-9.42 11.53-14.73 27.04-21.41 40.39-8.54 17.02-13.01 35.16-19.44 52.95-3.27 4.25-6.71 8.33-10.05 12.52.67-5.1 1.37-10.2 2.14-15.29 5.1-25.91 10.55-51.86 17.65-77.27 2.98-9.43 7.13-18.89 18.31-19.77z" stroke="#1f2631"/>
    <path d="M839.29 2686.078l6.08.81c-16.07 29.85-28.86 60.89-41.38 92.39-1.86.04-3.69.11-5.55.14 6.43-17.79 10.9-35.93 19.44-52.95 6.67-13.36 11.98-28.86 21.41-40.39z" stroke="#ccb4b8"/>
  </g>
  <path d="M845.37 2686.878l6.29 1.02c20.32 9.77 40.61 20.18 59.34 32.84-21.3 35.86-35.33 77.24-47.78 116.89-15.82 48.59-23.2 102.3-15.01 153 2.04 8.51 2.29 19.23 10.23 24.43.07-3.59.07-7.14 0-10.72 11.88-8.33 2.07-21.13 7.38-33.01 3.27-7.52 3.97-14.62 4.25-22.75 5.2 2.5 4.46 7.07 6.12 11.95 6.5-1.12 13.04-1.58 19.62-2 6.33-18.42 20.74-25.73 34.7-37.69.67 7.52 1.2 15.05 1.83 22.54 3.13.14 6.22.25 9.35.35-.14 22.15 4.39 49.04-5.2 69.36 2.85 1.2 5.8 2.04 8.75 2.5l4.61-1.62c4.29-60.89 13.15-121.39 27.11-180.84 4.99-21.09 9.88-43.21 17.61-63.49 20.92 11.46 40.04 25.28 59.8 38.46-1.37 13.64-5.41 26.4-7.91 39.83-9.81 54.21-16.77 109.23-15.36 164.43l4.11-2.18c1.55-9.6 1.16-19.62 1.83-29.32 2.74-56.6 12.62-111.62 25.1-166.75 21.13 14.94 42.01 30.27 63.18 45.14-5.17 25.14-10.86 50.48-12.3 75.83-1.34 21.06-1.12 42.22-.07 63.28.91 5.94-.6 13.82 6.43 16.31-.11-28.44-2-56.43 1.37-84.8 1.97-21.73 7.52-42.79 10.05-64.41l3.66.98c7.38 5.45 14.73 10.83 22.71 15.36-.21 15.36-5.62 29.95-5.77 45.18a36.86 36.86 0 004.22 4.54c3.45-13.85 5.31-27.91 9.74-41.52 29.85 21.66 57.48 46.23 86.98 68.27 3.16 9.6.88 28.12 13.08 30.59-.67-6.15-1.44-12.27-2.36-18.39 20.78 16.1 39.94 34.28 59.38 51.93 47.88 43.73 92.88 90.14 132.86 141.29 63.88 80.51 115.63 167.03 165.09 256.85 32.77 61 63.42 123.05 92.11 186.05H824.91c-31.82-140.77-51.86-284.62-57.09-428.91-2.46-84.27-1.83-168.61 4.89-252.67 1.27-44.96 9.35-88.73 15.68-133.1 3.34-4.18 6.79-8.26 10.05-12.52 1.86-.04 3.69-.11 5.55-.14 12.51-31.48 25.31-62.53 41.38-92.37z" fill="#020203" stroke="#122532" stroke-width="10"/>
  <g fill="#020203" stroke-width="10">
    <path d="M913.71 2721.478c3.9 2.39 7.8 4.75 11.74 7.07 2.99 1.69 5.98 3.38 8.96 5.03-4.15 13.39-9.63 26.23-13.18 39.8-16.7 58.85-30.13 120.66-30.76 182 1.55-1.16 3.09-2.36 4.68-3.55 3.13-42.22 8.89-84.06 19.27-125.12 7.66-30.16 15.26-61.38 27.67-89.96 15.5 8.58 30.41 18.07 45.21 27.77-24.4 81.32-39.41 166.11-42.05 251.05-2.95-.46-5.91-1.3-8.75-2.5 9.6-20.32 5.06-47.21 5.2-69.36-3.13-.11-6.22-.21-9.35-.35-.63-7.49-1.16-15.01-1.83-22.54-13.96 11.95-28.37 19.27-34.7 37.69-6.57.42-13.11.88-19.62 2-1.65-4.89-.91-9.46-6.12-11.95-.28 8.12-.98 15.22-4.25 22.75-5.31 11.88 4.5 24.68-7.38 33.01-10.05-53.82-3.83-107.19 10.3-159.64 7.42-29.64 17.68-58.68 29.95-86.66 5.03-12.39 11.21-23.71 15.01-36.54z" stroke="#172431"/>
    <path d="M790.52 2776.578c-.77 5.1-1.48 10.2-2.14 15.29-6.33 44.37-14.41 88.14-15.68 133.1-1.09-10.79-5.52-21.23-5.77-32.03 1.3-26.12 5.38-51.71 10.86-77.24 3.1-13.38 9.36-25.76 12.73-39.12z" stroke="#e7cfc8"/>
    <path d="M863.23 2837.578l5.52 7.07c-14.13 52.45-20.36 105.82-10.3 159.64.07 3.59.07 7.14 0 10.72-7.95-5.2-8.19-15.93-10.23-24.43-8.2-50.7-.81-104.42 15.01-153z" stroke="#cdb5ac"/>
  </g>
  <g fill="#020203" stroke-width="10">
    <path d="M2116.4 2981.778c35.89 1.09 72 7.35 107.12 14.66 115.8 25.45 227.95 68.13 331.59 125.68 14.24 8.37 26.12 17.09 43.63 16.59l-8.96 3.34c5.87 2.43 11.78 4.85 17.65 7.28-2.11 11.74-1.58 23.45-1.51 35.33-.56 94.22 2.39 188.54 4.32 282.8-72.04-.18-144.18-.04-216.21.07-4.11.81-13.75-1.37-13.01 5.48-1.62 5.8 6.12 4.61 9.53 5.17 73.37.7 146.85-.67 220.22.98 1.83 7.7-3.94 19.48 8.02 18.67.42-6.22.77-12.41 1.16-18.6 156.52-2.39 313.07-.53 469.58-.42-21.02.53-42.05.35-63.07.42 22.5 16.63 44.82 33.82 64.9 53.33 1.34 12.48 1.3 25.31 3.59 37.65l5.55 2.46c.25-10.86.46-21.73.42-32.59 24.82 19.9 47.21 43.66 69.36 66.45h-940.82c-33.61-85.25-62.09-172.76-87.43-260.82-16.38-57.83-29.67-116.58-44.93-174.73-11.43-43.88-20.6-88.95-26.05-133.98-1.16-13.29-3.02-31.61 6.57-42.33 10.05-11.77 24.26-13.03 38.78-12.89z" stroke="#608d8b"/>
    <path d="M2618.2 3161.778c49.5 31.01 95.45 67.99 141.68 103.64 76.11 61.03 151.66 122.7 228.06 183.41 6.61 5.2 12.73 10.93 18.6 16.95-5.03.56-10.02 1.05-15.05 1.44-124.24.32-248.48-.49-372.69.42-.43-101.92-2.89-203.98-.6-305.86z" stroke="#5f8d8b"/>
  </g>
  <path d="M2097.1 3170.978c15.26 58.15 28.55 116.89 44.93 174.73 25.35 88.07 53.82 175.57 87.43 260.82h-380.57c56-128.25 119.67-258.33 201.06-372.48 14.94-21.62 32.06-41.56 47.15-63.07z" fill="#020203" stroke="#122532" stroke-width="10"/>
  <path d="M3600 3213.878v392.7h-314.58c50.17-74.81 103.89-147.45 159.96-217.93 48.83-60.26 99.18-120.45 154.62-174.77z" fill="#020203" stroke="#f3c3b6" stroke-width="10"/>
  <path d="M3026.5 3479.278c21.02-.07 42.05.11 63.07-.42 2.04 17.82 0 35.86 1.83 53.75-20.07-19.51-42.4-36.7-64.9-53.33z" fill="#020203" stroke="#f0efeb" stroke-width="10"/>
</svg>
