<svg version="1.1" xmlns="http://www.w3.org/2000/svg" viewBox="0 0 3600 3600">
  <path d="M0 0h3600v3600H0V0z" fill="#F8F8F8"/>
  <path d="M3295.762 996.004c16.894 16.983 18.891 56.788 23.238 78.996l.483 2.436c2.897 14.734 4.607 29.678 6.517 44.564l.422 3.267a2139.14 2139.14 0 012.215 17.74c.245 2.023.495 4.046.75 6.068 1.743 13.912 2.967 27.804 3.738 41.8l.117 2.096c.244 4.469.452 8.939.643 13.41.078 1.782.16 3.563.248 5.344 1.195 24.882 1.02 49.787.997 74.69-.005 6.304-.002 12.608.004 18.911.004 4.912.002 9.823 0 14.735 0 2.324 0 4.65.002 6.974.018 21.783.018 21.783-.898 32.085-.47 5.676-.529 11.375-.675 17.068-.45 15.804-1.328 31.573-2.292 47.353-.232 3.796-.455 7.593-.676 11.39-.175 3.011-.353 6.023-.53 9.034l-.25 4.256c-.382 6.581-.805 13.127-1.594 19.673-.422 4.024-.553 8.065-.721 12.106-.197 4.753-.404 9.472-.988 14.195-.76 6.547-1.016 13.095-1.2 19.68l-.24 3.875c-.244 11.448 3.854 19.092 9.544 28.831 2.22 3.88 4.211 7.867 6.208 11.864l1.196 2.373c1.227 2.434 2.448 4.87 3.667 7.307.43.857.859 1.713 1.3 2.596 7.493 14.99 14.589 30.127 21.402 45.436 1.976 4.436 3.984 8.857 6.013 13.269 21.973 47.86 40.88 96.968 58.93 146.418l.992 2.712A530.43 530.43 0 013440 1795c2.56-2.47 4.275-4.911 6.082-7.988l1.83-3.088 1.9-3.236c11.065-18.823 23.02-37.094 35.03-55.323 1.86-2.824 3.713-5.652 5.566-8.48 6.203-9.438 12.524-18.734 19.28-27.785 2.801-3.756 5.504-7.572 8.187-11.412 14.369-20.447 29.146-40.6 44.378-60.41 2.559-3.336 5.1-6.685 7.645-10.032 6.443-8.477 12.925-16.922 19.498-25.298 2.558-3.27 5.054-6.555 7.436-9.956L3599 1569h1c.06 39.408.118 78.816.175 118.224l.003 2.337a420643.455 420643.455 0 01.292 253.424c.033 38.536.062 77.072.09 115.607a1326901.811 1326901.811 0 00.049 66.835c.033 44.96.076 89.919.146 134.878l.005 2.93.075 46.748a136898.66 136898.66 0 01.199 198.274 346220.147 346220.147 0 00.01 27.173c.013 28.751.06 57.502.125 86.252a30748.345 30748.345 0 01.075 98.918v2.379c-.005 12.42.028 24.839.076 37.258.047 12.22.054 24.44.02 36.66a1923.06 1923.06 0 00.034 19.601c.044 5.95.038 11.9-.008 17.85-.008 2.133.002 4.267.034 6.4.212 15.42-3.227 24.914-12.4 37.252a1118.99 1118.99 0 00-3 4.245c-14.813 21-32.632 40.996-53 56.755l-3.043 2.418c-13.47 10.638-27.749 19.636-42.957 27.582l-2.2 1.152c-26.98 13.912-55.835 21.82-85.8 25.848l-3.677.526c-4.558.563-9.07.636-13.659.642l-2.661.01c-1.854.005-3.708.007-5.562.007-2.774.002-5.547.02-8.32.04-37.699.123-75.293-8.497-109.121-25.225l-2.75-1.356c-12.294-6.12-24.12-12.581-35.25-20.644-1.58-1.14-1.58-1.14-3.191-2.305A421.999 421.999 0 013206 2941l-2.66-2.07c-8.187-6.535-15.768-13.704-23.34-20.93-.798-.755-1.596-1.51-2.418-2.29-5.344-5.183-9.938-10.902-14.582-16.71-.949-1.148-1.9-2.296-2.852-3.441-23.857-28.922-41.852-64.241-51.148-100.559l-.601-2.334c-2.426-9.512-4.606-19.03-6.149-28.728-.115-.725-.23-1.449-.35-2.195-.336-2.244-.628-4.49-.9-6.743l-.292-2.413c-.999-9.833-.894-19.712-.893-29.584-.002-3.1-.02-6.2-.04-9.3-.032-12.043.566-23.772 2.225-35.703-5.993 4.786-11.757 9.59-17.102 15.098-2.535 2.54-5.244 4.848-7.964 7.187-1.889 1.675-3.666 3.414-5.434 5.215-3.663 3.712-7.54 7.11-11.5 10.5l-3.164 2.723a3537.46 3537.46 0 01-9.037 7.74c-1.16.99-2.32 1.983-3.477 2.977-8.264 7.09-16.707 13.903-25.322 20.56l-1.984 1.54c-64.939 50.314-136.551 91.602-215.016 116.46l-3.006.965c-47.09 14.972-98.135 18.249-147.244 18.285l-2.99.003c-56.659-.038-113.584-3.504-169.686-11.414a632.57 632.57 0 00-15.45-1.95c-23.363-2.716-46.647-6.913-69.563-12.19a1453.7 1453.7 0 00-10.545-2.355c-15.594-3.45-31.117-7.096-46.516-11.344l-2.729-.747c-59.699-16.48-137.65-38.005-170.212-95.347-7.751-14.11-13.713-28.742-19.059-43.906l-1.061-2.972c-14.763-41.868-22.285-87.114-27.939-131.028l-.489-3.796c-1.285-10.28-2.159-20.572-2.889-30.905-.184-2.6-.374-5.198-.565-7.797-.125-1.726-.25-3.452-.373-5.178l-.165-2.243A842.676 842.676 0 012111 2516l-.125-2.038c-.816-13.607-1.023-27.17-1.008-40.798a9614.253 9614.253 0 01.002-19.762c.006-5.636.003-11.271-.003-16.907-.004-4.407-.002-8.814 0-13.22 0-2.076 0-4.15-.002-6.226a711.16 711.16 0 012.448-59.674l.192-2.336c2.001-24.314 4.755-48.564 8.051-72.737.432-3.204.851-6.409 1.268-9.615 2.6-19.986 5.519-39.862 9.177-59.687l.725-4.019c3.364-18.638 7.35-37.081 11.837-55.481l.684-2.817a611.981 611.981 0 019.421-34.284c1.328-4.345 2.526-8.717 3.687-13.11 13.007-48.864 33.083-96.104 55.25-141.429 1.303-2.67 2.593-5.346 3.88-8.024 6.042-12.445 12.92-24.33 19.977-36.223 1.934-3.284 3.802-6.6 5.664-9.925 7.949-13.962 16.824-27.42 25.875-40.688l1.733-2.546a806.448 806.448 0 0128.52-39.196c1.56-2.017 3.112-4.041 4.657-6.07 7.385-9.691 15.117-19.069 23.004-28.352a657.685 657.685 0 008.586-10.336c3.746-4.602 7.565-9.137 11.41-13.657a586.466 586.466 0 008.715-10.53c3.577-4.398 7.318-8.606 11.137-12.793 2.266-2.552 4.413-5.172 6.55-7.832 3.893-4.817 8.022-9.342 12.252-13.858a171.854 171.854 0 008.748-10.142c4.455-5.554 9.292-10.702 14.197-15.855 4.287-4.51 8.414-9.133 12.491-13.833 7.051-7.926 14.238-15.73 21.416-23.541a12366.408 12366.408 0 005.606-6.106 998.395 998.395 0 008.29-9.165c4.399-4.903 8.894-9.711 13.394-14.52 3.62-3.869 7.22-7.756 10.794-11.668a1850.214 1850.214 0 0114.238-15.363A2261.98 2261.98 0 002505 1589.5a2644.42 2644.42 0 0113-14 3921.125 3921.125 0 0020.443-22.068 3105.071 3105.071 0 0121.678-23.3c2.623-2.791 5.24-5.588 7.852-8.39 5.95-6.375 11.92-12.695 18.132-18.816 1.823-1.853 3.521-3.762 5.207-5.738 3.063-3.577 6.34-6.882 9.688-10.188 3.222-3.183 6.39-6.347 9.312-9.812 4.075-4.799 8.604-9.155 13.095-13.558 3.137-3.095 6.156-6.227 9.03-9.567 4.47-5.184 9.367-9.915 14.247-14.708 3.385-3.348 6.68-6.712 9.785-10.324 4.65-5.405 9.778-10.324 14.86-15.32 4.148-4.106 8.094-8.29 11.898-12.715 3.93-4.424 8.236-8.496 12.457-12.64a213.603 213.603 0 0011.775-12.592c1.916-2.194 3.95-4.236 6.041-6.264 3.357-3.317 6.509-6.729 9.59-10.3a497.776 497.776 0 016.847-7.7l1.367-1.521a134.076 134.076 0 018.821-8.78c8.261-7.602 13.67-13.176 15.43-24.638.902-5.193 2.197-10.306 3.41-15.433.473-2.005.938-4.011 1.4-6.018 1.699-7.34 3.513-14.603 5.734-21.801 1.525-4.955 2.872-9.941 4.18-14.957 16.613-63.404 38.804-128.895 77.361-182.389 1.468-2.05 1.468-2.05 2.9-4.74 1.987-3.025 4.427-4.775 7.335-6.91l3.117-2.325c8.025-5.304 16.375-4.862 25.684-3.418 27.522 5.715 54.829 18.563 76.633 36.309a216.78 216.78 0 0015.128 11.246 599.935 599.935 0 0118.375 13l2.438 1.79c5.42 4.014 10.599 8.2 15.621 12.706 1.978 1.609 1.978 1.609 4.029 1.125 2.302-.818 3.88-1.835 5.83-3.3l2.156-1.596 2.301-1.725c14.564-10.705 29.916-20.093 45.294-29.57a2698.17 2698.17 0 0011.456-7.117l1.915-1.192a226.125 226.125 0 008.464-5.523C3099 1083 3099 1083 3101 1083v-2c21.59-11.492 43.233-22.874 65.02-33.989 1.953-.997 3.904-1.998 5.855-3 16.18-8.302 32.504-16.015 49.263-23.098a2752.08 2752.08 0 0019.401-8.323l10.052-4.334a7417.79 7417.79 0 006.655-2.874c3.133-1.354 6.27-2.703 9.406-4.05l2.85-1.236c19.095-8.175 19.095-8.175 26.26-4.092z" fill="#2B0000"/>
  <path d="M820.25 700.813l2.174.002C858 700.915 891.946 708.326 924 724l2.125 1.034c19.864 9.783 38.21 22.605 54.406 37.685a156.77 156.77 0 006.282 5.468c11.343 9.932 20.82 21.705 29.716 33.815a469.185 469.185 0 004.084 5.447c7.436 9.933 13.464 20.667 19.387 31.551l1.148 2.1c20.53 37.99 29.126 78.926 29.165 121.775l.01 2.72c.037 17.21-1.074 34.221-4.636 51.092-.214 1.045-.428 2.09-.65 3.166-2.094 9.927-4.603 19.807-8.244 29.292-.908 3.27-.937 4.673.207 7.855 2.53 1.95 2.53 1.95 5.816 3.496l1.815.939c1.293.667 2.59 1.326 3.891 1.978 3.47 1.742 6.91 3.544 10.353 5.337l2.109 1.092c9.163 4.76 18.013 10.045 26.889 15.316 3.357 1.977 6.732 3.922 10.111 5.862 16.814 9.674 33 20.036 49.016 30.98a4101.16 4101.16 0 004.574 3.086c20.259 13.704 39.948 28.47 58.496 44.418 2.707 2.306 5.462 4.53 8.243 6.746 6.209 5.05 11.972 10.556 17.777 16.059a546.417 546.417 0 009.91 9.129c4.889 4.467 9.62 9.076 14.313 13.75l1.994 1.98a212.195 212.195 0 0111.102 12.033c1.584 1.791 3.242 3.456 4.966 5.112 3.766 3.699 7.007 7.765 10.313 11.875 2.155 2.622 4.388 5.128 6.687 7.625 5.561 6.125 10.585 12.635 15.625 19.187l1.875 2.422c8.207 10.613 16.243 21.287 23.697 32.444 1.577 2.356 3.166 4.704 4.756 7.052 17.41 25.804 33.031 52.493 47.201 80.208.969 1.892 1.941 3.782 2.918 5.67 23.948 46.291 42.136 95.327 58.928 144.579l1.04 3.048c4.023 11.812 7.937 23.644 11.585 35.577l.91 2.953c6.757 21.961 13.291 43.985 19.438 66.125a1401.17 1401.17 0 003.968 13.964c2.627 9.092 5.079 18.218 7.436 27.384a623.35 623.35 0 005.186 18.762c2.769 9.5 5.183 19.08 7.527 28.694 1.403 5.727 2.885 11.412 4.531 17.075 2.378 8.213 4.322 16.513 6.272 24.836a471.428 471.428 0 005.054 19.519c2.632 9.397 5.04 18.844 7.4 28.313l1.296 5.174c.896 3.583 1.79 7.166 2.684 10.75 1.132 4.538 2.268 9.076 3.406 13.613.89 3.552 1.777 7.104 2.664 10.657.417 1.67.835 3.342 1.254 5.012 2.348 9.372 4.6 18.753 6.636 28.197 1.225 5.646 2.757 11.122 4.588 16.597l.813 2.5A977.67 977.67 0 001576 1930h4l-.5 1.5c-1.235 6.174-.406 11.896 1.004 17.96l.48 2.107a957 957 0 001.034 4.476c.94 4.025 1.85 8.056 2.763 12.086l.569 2.5c1.699 7.504 3.26 15.032 4.785 22.573 5.302 26.188 11.39 52.159 17.74 78.11l.894 3.659a6217.8 6217.8 0 002.536 10.33l.778 3.183.721 2.916.63 2.556c.507 2.087.507 2.087 1.566 4.044.234 1.885.418 3.776.578 5.668l.322 3.596.35 3.923c.993 10.68 2.338 21.232 4.125 31.813 4.389 26.238 8.353 52.356 8.499 79.011.101 2.406.325 4.695.626 7.08.545 4.83.641 9.592.63 14.449l.005 2.748c.004 2.969.001 5.938-.002 8.907l.003 6.234c.001 4.342 0 8.684-.006 13.027-.005 5.555-.002 11.111.004 16.667a9184.9 9184.9 0 010 12.858c0 2.049 0 4.097.002 6.146.003 2.864-.001 5.728-.007 8.592l.007 2.545c-.017 4.676-.402 9.106-1.136 13.736a86.705 86.705 0 00-.19 4.16l-.05 2.223-.041 2.324-.114 4.963c-.053 2.585-.106 5.17-.157 7.756-.052 2.51-.11 5.02-.167 7.531l-.04 2.355c-.128 5.462-.128 5.462-1.241 7.688a106.42 106.42 0 00-.493 4.983l-.255 3.168-.268 3.458a407450956.419 407450956.419 0 01-.91 11.192c-1.772 21.61-3.706 42.942-8.074 64.199l-.887 4.71c-3.358 16.854-8.428 34.553-21.199 46.552-2.805 2.636-5.153 5.349-7.539 8.363A211.577 211.577 0 011578 2531.5c-4.072 4.43-7.932 8.978-11.691 13.676a162.255 162.255 0 01-5.024 5.867l-1.375 1.559a509.353 509.353 0 01-3.844 4.28c-2.593 3.913-3.345 7.534-4.066 12.118-20.578.433-40.543-.493-61-3l-3.342-.406c-29.467-3.703-58.58-10.195-87.408-17.219l-2.795-.678a588.451 588.451 0 01-34.064-9.372c-4.043-1.239-8.108-2.334-12.204-3.387-6.143-1.604-12.12-3.54-18.126-5.596-3.884-1.305-7.81-2.448-11.749-3.572-10.076-2.928-20.008-6.254-29.937-9.645l-2.867-.977c-29.94-10.231-59.407-21.734-88.508-34.148l-1.877-.8c-20.349-8.684-40.418-17.912-60.39-27.426a1772.047 1772.047 0 00-9.874-4.657c-10.638-4.996-21.074-10.293-31.44-15.833a777.206 777.206 0 00-7.466-3.901c-11.295-5.844-22.406-11.96-33.453-18.258a902.644 902.644 0 00-12.494-6.983c-8.061-4.428-15.969-9.075-23.842-13.829a743.05 743.05 0 00-27.113-15.575C976.058 2364.961 960.457 2355.7 945 2346c-3.114-1.95-6.228-3.901-9.343-5.85a3366.255 3366.255 0 01-5.988-3.76c-4.833-3.033-9.688-6.01-14.614-8.89l-2.839-1.665a534.032 534.032 0 00-5.327-3.068l-2.358-1.376-2.076-1.187L901 2319v-3l-2.438-.75L895 2314l-1.875-.637c-5.209-2.022-9.485-4.99-13.918-8.34-7.325-5.451-14.847-10.548-22.471-15.57a3285.076 3285.076 0 01-10.85-7.187l-2.115-1.406c-7.071-4.709-14.007-9.594-20.912-14.542-3.444-2.441-6.935-4.813-10.422-7.193-4.674-3.194-9.3-6.415-13.761-9.906-1.713-1.29-1.713-1.29-3.832-2.469-4.07-2.504-7.832-5.39-11.657-8.25a649.962 649.962 0 00-22.671-16.098c-1.173-.8-2.345-1.6-3.516-2.402l-1.916-1.308c-2.96-2.058-5.453-3.963-7.647-6.817-3.382-4.154-7.551-7.232-11.772-10.47a283.399 283.399 0 01-12.853-10.53c-4.038-3.497-8.096-6.951-12.25-10.312-6.348-5.158-12.493-10.542-18.661-15.912-5.274-4.58-10.588-9.115-15.901-13.651l-1.728-1.478c-5.98-5.112-11.963-10.182-18.272-14.89-2.51-2.049-4.721-4.329-7-6.632a557.876 557.876 0 00-5.313-4.875l-2.933-2.66a354.618 354.618 0 00-6.629-5.777c-4.287-3.715-8.244-7.752-12.207-11.806-2.723-2.768-5.493-5.405-8.451-7.922-5.323-4.637-10.292-9.62-15.283-14.608l-3.077-3.067a5906.074 5906.074 0 01-6.407-6.4c-2.713-2.713-5.433-5.42-8.155-8.124a3224.685 3224.685 0 01-6.34-6.327c-1-1-2.002-1.997-3.005-2.992-5.318-5.28-10.332-10.58-14.816-16.592-1.787-2.39-3.743-4.59-5.759-6.787l-2.305-2.532L546 2025c-4.575-5.003-9.062-10.029-13.313-15.312-3.411-4.222-6.98-8.229-10.687-12.188-4.5-4.805-8.731-9.752-12.855-14.887-2.144-2.611-4.369-5.117-6.645-7.613-4.706-5.172-9.107-10.562-13.5-16-1.416-1.73-2.832-3.46-4.25-5.187A33206.64 33206.64 0 01480 1948l-1.501-1.833c-6.808-8.317-13.526-16.678-20.026-25.238-1.72-2.254-3.456-4.495-5.192-6.738-7.305-9.471-14.397-19.019-21.032-28.975l-1.48-2.212-1.262-1.912c-2.032-2.82-4.261-5.438-6.507-8.092l-.288 2.917C415.763 1945.888 405.715 2016.649 385 2084l-1.128 3.669c-13.866 44.862-30.792 88.468-55.267 128.693a924.433 924.433 0 00-4.539 7.556c-5.97 9.972-12.35 19.6-19.066 29.082l-1.54 2.188a479.33 479.33 0 01-23.007 30.055c-2.09 2.526-4.143 5.082-6.203 7.632-3.588 4.383-7.321 8.608-11.137 12.793a295.89 295.89 0 00-5.55 6.332c-3.56 4.1-7.418 7.873-11.282 11.684-1.757 1.784-3.358 3.543-4.906 5.504-2.487 2.945-5.153 5.28-8.082 7.769-2.655 2.366-5.12 4.875-7.606 7.418-4.442 4.522-9.136 8.58-14.093 12.527-2.323 1.879-4.523 3.825-6.719 5.848-6.914 6.21-14.443 11.683-21.875 17.25l-1.996 1.499C161.337 2396.229 140.58 2409.26 119 2421l-2.453 1.346C91.99 2435.76 66.58 2446.316 40 2455c-5.937 1.957-5.937 1.957-11.836 4.027-6.273 2.249-12.562 3.773-19.078 5.102l-2.656.55c-2.142.443-4.286.883-6.43 1.321a311065.756 311065.756 0 01-.385-260.246 543244.81 543244.81 0 01-.108-120.84l-.005-6.095a98620.874 98620.874 0 00-.185-128.426 91092.81 91092.81 0 01-.17-154.985c-.002-1.241-.002-2.483-.003-3.762-.01-20-.052-40-.105-60.001a18316.75 18316.75 0 01-.06-60.29 7135.97 7135.97 0 00-.066-35.84c-.034-7.977-.035-15.952-.01-23.929.014-4.547.013-9.094-.027-13.642a694.08 694.08 0 01.007-12.413c.006-1.487-.002-2.974-.028-4.46-.125-7.708.204-12.85 5.48-18.731A516.799 516.799 0 019 1558a150.504 150.504 0 003.75-4.687c4.451-5.644 9.17-11.04 13.895-16.454 2.14-2.454 4.263-4.92 6.367-7.406a485.593 485.593 0 0118.005-20.129 297.27 297.27 0 008.432-9.265c3.59-4.131 7.301-8.136 11.051-12.121l1.895-2.026c2.995-3.19 6.018-6.337 9.136-9.408a103.928 103.928 0 006.354-6.883c5.499-6.315 11.5-12.15 17.424-18.062l3.88-3.884c2.701-2.702 5.403-5.403 8.107-8.102a8389.73 8389.73 0 0010.332-10.335c2.667-2.67 5.337-5.339 8.007-8.007 1.27-1.269 2.538-2.538 3.807-3.809 11.985-12.002 11.985-12.002 17.939-17.017 1.794-1.557 3.456-3.21 5.119-4.905 2.946-2.992 6.03-5.753 9.21-8.492a314.571 314.571 0 006.57-5.962 299.685 299.685 0 0116.001-13.796c2.846-2.355 5.565-4.81 8.281-7.312 4.975-4.563 10.114-8.793 15.438-12.938l3.996-3.152c63.718-50.125 63.718-50.125 90.004-54.848l-2.938-.375L306 1288c-1.293-2.585-1.325-4.736-1.557-7.624l-.293-3.571-.306-3.88-.492-6.015c-.23-2.818-.455-5.635-.68-8.453-.447-5.58-.9-11.16-1.355-16.74a3738.61 3738.61 0 01-.467-5.827c-.46-5.668-1.039-11.26-1.85-16.89-3.274-36.423-3.307-73.14-3.311-109.673-.001-3.271-.006-6.541-.012-9.812-.046-37.434.73-74.898 4.073-112.202l.249-2.85C308.04 893.202 308.04 893.202 328 876c10.87-8.902 23.374-13.59 36.937-16.687l3.84-.896c29.673-6.73 60.079-7.817 90.41-7.73l3.924.005c34.499.07 68.65 2.443 102.725 7.925 3.765.456 7.373.45 11.164.383l1.617-3.559c10.99-23.88 24.89-45.764 42.383-65.441l1.6-1.856c9.816-11.372 20.488-21.98 32.4-31.144l2.895-2.34c46.053-36.669 104.005-53.947 162.355-53.847z" fill="#772030"/>
  <path d="M825 0c71.732-.083 143.465-.162 215.197-.238l2.127-.002c75.537-.08 151.075-.158 450.734-.394l7.505-.004a2214731.274 2214731.274 0 01220.526-.128l2.626-.001a2999608.655 2999608.655 0 00108.366-.06c83.572-.047 167.144-.105 250.716-.203l2.666-.003c29.257-.034 58.514-.07 87.77-.105a1171144.503 1171144.503 0 0181.936-.097c54.375-.062 108.75-.106 163.126-.132l2.545-.001c36.875-.018 73.75-.032 110.626-.041a765013.248 765013.248 0 0051.884-.016c37.637-.011 75.274-.036 112.91-.096l2.461-.004c13.063-.02 26.126-.043 39.188-.065 37.075-.063 74.15-.12 111.225-.122h2.28c16.403-.001 32.807.002 49.211.009l19.626.006 2.163.001c22.65.007 45.3-.032 67.95-.098 22.91-.067 45.821-.082 68.732-.033 13.043.025 26.085.01 39.127-.066 8.65-.047 17.299-.039 25.949.013 4.912.029 9.821.033 14.733-.029 4.457-.055 8.908-.042 13.365.027 1.598.012 3.197 0 4.796-.041 11.543-.276 11.543-.276 15.548 3.407 3.453 4.135 5.953 8.735 8.386 13.516.9 1.576 1.801 3.15 2.707 4.723a193.74 193.74 0 012.105 4.34l1.197 2.524c27.06 59.695 37.69 128.11 46.991 192.413l.395 2.702c6.134 42.028 10.667 84.338 12.495 126.784.122 2.779.25 5.557.379 8.336 1.015 22.01 1.92 44.016 1.918 66.053l.003 2.218c-.001 9.123-.32 18.205-.792 27.315-.37 7.39-.581 14.778-.757 22.174-1.835 74.567-10.136 148.017-20.34 221.888a1742.847 1742.847 0 00-3.024 23.162c-3.202 25.807-8.135 51.308-13.028 76.836-.876 4.57-1.74 9.142-2.597 13.716-1.179 6.28-2.397 12.55-3.652 18.816l-.666 3.332c-2.529 12.467-5.413 24.704-9.397 36.793l-.958 2.924c-3.253 9.472-7.383 19.486-16.292 24.764-24.491 11.367-67.395-8.872-90.673-17.324-11.304-4.17-22.509-8.607-33.716-13.029-5.594-2.2-11.217-4.317-16.85-6.416a504.288 504.288 0 01-14.323-5.606 798.071 798.071 0 00-19.012-7.418c-24.279-9.134-47.894-19.306-71.185-30.745-4.883-2.388-9.708-4.677-14.828-6.505-8.758-3.211-17.211-7.144-25.6-11.207l-3.224-1.557c-18.448-8.938-36.79-18.025-54.73-27.951-5.01-2.773-10.058-5.471-15.112-8.164-13.68-7.3-27.102-14.975-40.434-22.891l-3.105-1.832c-15.24-8.992-30.154-18.383-44.895-28.168l-3.355-2.218c-13.696-9.05-27.352-18.145-40.645-27.782l-2.261-1.638c-14.578-10.587-28.958-21.461-42.833-32.96a773.655 773.655 0 00-7-5.71c-7.427-6.02-14.573-12.01-21.12-18.997-1.617-1.925-1.617-1.925-3.786-1.695a378.159 378.159 0 01-3-5 97.261 97.261 0 00-4.203-4.363l-2.473-2.44-2.574-2.51c-9.45-9.252-9.45-9.252-12.988-13.43-3.246-3.787-6.739-7.278-10.29-10.777l-1.808-1.784a2043.41 2043.41 0 00-7.482-7.343c-7.523-7.347-14.27-14.603-20.182-23.353-5.187-7.088-10.639-13.87-16.582-20.34-7.007-7.709-13.726-15.686-20.18-23.863-2.34-2.925-4.727-5.806-7.121-8.686-6.47-7.794-12.719-15.72-18.832-23.795-2.815-3.715-5.685-7.385-8.567-11.049-7.232-9.207-14.045-18.65-20.718-28.267a3556.263 3556.263 0 00-6.5-9.313l-1.493-2.156-1.413-2.02-1.229-1.766c-1.633-2.088-3.48-3.884-5.365-5.745l-.614 1.868c-14.832 45.117-30.514 89.773-47.973 133.951-1.524 3.872-3 7.75-4.39 11.673-2.916 8.14-6.326 16.09-9.648 24.07-.55 1.326-.55 1.326-1.113 2.678-23.137 55.656-23.137 55.656-34.092 78.75-3.443 7.314-5.362 13.801-5.795 21.947l-.117 2.073A711.944 711.944 0 002332 691h-9c-.28.722-.56 1.445-.85 2.189-1.088 2.66-2.281 5.213-3.557 7.787l-1.45 2.929-1.569 3.15-1.647 3.31a8068.456 8068.456 0 01-3.472 6.966 4532.392 4532.392 0 00-5.168 10.407 756.962 756.962 0 01-21.85 40.737c-1.924 3.381-3.782 6.797-5.63 10.22C2255.984 819.09 2229.435 857.784 2200 893l-1.3 1.557c-5.364 6.416-10.798 12.75-16.434 18.931a442.193 442.193 0 00-5.543 6.282c-3.75 4.293-7.622 8.461-11.536 12.605l-2.12 2.248c-7 7.394-14.003 14.72-21.75 21.342-2.486 2.183-4.896 4.434-7.306 6.698-6.46 6.066-13.055 11.838-20.011 17.337-1.054.846-2.107 1.692-3.16 2.54A662.917 662.917 0 012100 991l-1.946 1.5c-13.602 10.395-28.22 19.011-43.054 27.5l-3.396 1.946c-12.343 7.047-24.707 14.062-37.604 20.054l-2.438 1.138c-55.66 25.705-112.196 32.407-172.562 24.862l-2.696-.324c-53.345-6.604-104.41-27.58-152.242-51.166a1318.81 1318.81 0 00-7.464-3.65c-22.215-10.852-43.71-23.019-64.857-35.808-1.789-1.08-3.58-2.158-5.37-3.235a4503.83 4503.83 0 01-9.22-5.556 7848.394 7848.394 0 00-5.075-3.063c-15.778-9.58-31.138-19.83-46.553-29.979a5744.95 5744.95 0 00-5.828-3.83C1529.64 924.79 1519.647 918.187 1510 911c-2.676-1.912-5.37-3.8-8.063-5.688-21.302-14.995-42.319-30.388-62.937-46.312l-2.23-1.719a1341.4 1341.4 0 01-30.073-23.9 673.03 673.03 0 00-6.885-5.506c-4.381-3.492-8.654-7.103-12.92-10.734a564.372 564.372 0 00-10.58-8.766c-4.4-3.579-8.61-7.323-12.8-11.145-2.507-2.225-5.081-4.325-7.7-6.418-6.07-4.906-11.702-10.242-17.378-15.593-3.061-2.882-6.192-5.665-9.375-8.41-4.495-3.95-8.858-8.048-13.241-12.12a3386.828 3386.828 0 00-3.726-3.456c-13.633-12.625-13.633-12.625-19.87-19.073-1.847-1.796-3.727-3.456-5.685-5.127-5.35-4.67-10.34-9.691-15.353-14.717l-3.077-3.073a6279.35 6279.35 0 01-6.407-6.412 5367.11 5367.11 0 00-8.155-8.153 6092.98 6092.98 0 01-6.34-6.339 2823.75 2823.75 0 00-3.005-3.003c-5.097-5.087-10.097-10.197-14.767-15.682-2.186-2.522-4.545-4.822-6.933-7.154-3.754-3.666-7.24-7.455-10.675-11.42-2.982-3.398-6.094-6.671-9.2-9.955-4.923-5.227-9.807-10.48-14.586-15.84a586.45 586.45 0 00-4.266-4.726c-3.862-4.24-7.605-8.535-11.21-12.996A228.107 228.107 0 001163 596.5c-4.02-4.371-7.8-8.875-11.527-13.496-2.882-3.5-5.86-6.907-8.848-10.317a356.979 356.979 0 01-13.605-16.564c-3.031-3.905-6.17-7.69-9.395-11.436-4.776-5.562-9.23-11.335-13.65-17.183-3.702-4.883-7.514-9.652-11.413-14.379-5.265-6.406-10.228-12.995-15.112-19.696-4.484-6.145-9.071-12.204-13.7-18.241-5.224-6.825-10.349-13.697-15.297-20.723a477.656 477.656 0 00-5.281-7.336c-10.095-13.791-19.635-27.95-29.172-42.129l-1.55-2.3A1449.014 1449.014 0 011006 390l-1.833-2.785C988.307 363.093 972.863 338.75 958 314l-1.794-2.986C947.51 296.506 939.172 281.81 931 267l-1.608-2.911c-32.538-59.077-59.115-119.824-80.892-183.651l-.992-2.904c-6.293-18.455-12.083-37.064-17.32-55.847l-.866-3.044-.842-3.006-.721-2.572c-.68-2.745-1.257-5.483-1.806-8.257-.18-.9-.358-1.8-.542-2.728L825 0z" fill="#2B0000"/>
  <path d="M2752 1329c1.131 3.393.847 4.644.095 8.08l-.683 3.181c-.254 1.15-.51 2.3-.771 3.485l-1.617 7.51-.875 4.033a3391.882 3391.882 0 00-4.524 21.258l-.464 2.206c-13.277 63.214-22.931 127.074-30.161 191.247l-.32 2.827c-3.545 31.52-5.562 63.164-7.474 94.82-.184 2.999-.377 5.997-.574 8.996-6.247 95.572-.995 192.737 147.368 598.357 2.3 2.589 4.615 5.164 6.945 7.727a366.761 366.761 0 015.68 6.46c2.746 3.158 5.641 6.104 8.629 9.032 1.822 1.858 3.5 3.796 5.183 5.781 2.92 3.387 6.055 6.266 9.461 9.152 2.305 2.026 4.45 4.162 6.602 6.348 4.007 4.048 8.161 7.813 12.5 11.5l2.793 2.422c66.83 57.657 145.685 92.726 242.074 115.82l2.479.574c22.024 5.08 44.205 9.368 66.387 13.69a6774.701 6774.701 0 0117.16 3.368c2.64.519 5.28 1.029 7.921 1.538l4.775.943 2.201.417c4.982 1 4.982 1 7.21 3.228l-1.626.743c-19.665 9.043-38.056 19.233-55.374 32.257l-1.97 1.474c-17.034 12.893-32.513 28.202-45.03 45.526a2192.65 2192.65 0 01-2.563 3.441c-27.06 36.663-43.331 79.733-50.437 124.559l-1-3c-6.006 4.77-11.759 9.591-17.102 15.098-2.535 2.54-5.244 4.848-7.964 7.187-1.889 1.675-3.666 3.414-5.434 5.215-3.663 3.712-7.54 7.11-11.5 10.5l-3.164 2.723a3537.46 3537.46 0 01-9.037 7.74c-1.16.99-2.32 1.983-3.477 2.977-8.264 7.09-16.707 13.903-25.322 20.56l-1.984 1.54c-64.939 50.314-136.551 91.602-215.016 116.46l-3.006.965c-47.09 14.972-98.135 18.249-147.244 18.285l-2.99.003c-56.659-.038-113.584-3.504-169.686-11.414a632.57 632.57 0 00-15.45-1.95c-23.363-2.716-46.647-6.913-69.563-12.19a1453.7 1453.7 0 00-10.545-2.355c-15.594-3.45-31.117-7.096-46.516-11.344l-2.729-.747c-59.699-16.48-137.65-38.005-170.212-95.347-7.751-14.11-13.713-28.742-19.059-43.906l-1.061-2.972c-14.763-41.868-22.285-87.114-27.939-131.028l-.489-3.796c-1.285-10.28-2.159-20.572-2.889-30.905-.184-2.6-.374-5.198-.565-7.797-.125-1.726-.25-3.452-.373-5.178l-.165-2.243A842.676 842.676 0 012111 2516l-.125-2.038c-.816-13.607-1.023-27.17-1.008-40.798a9614.253 9614.253 0 01.002-19.762c.006-5.636.003-11.271-.003-16.907-.004-4.407-.002-8.814 0-13.22 0-2.076 0-4.15-.002-6.226a711.16 711.16 0 012.448-59.674l.192-2.336c2.001-24.314 4.755-48.564 8.051-72.737.432-3.204.851-6.409 1.268-9.615 2.6-19.986 5.519-39.862 9.177-59.687l.725-4.019c3.364-18.638 7.35-37.081 11.837-55.481l.684-2.817a611.981 611.981 0 019.421-34.284c1.328-4.345 2.526-8.717 3.687-13.11 13.007-48.864 33.083-96.104 55.25-141.429 1.303-2.67 2.593-5.346 3.88-8.024 6.042-12.445 12.92-24.33 19.977-36.223 1.934-3.284 3.802-6.6 5.664-9.925 7.949-13.962 16.824-27.42 25.875-40.688l1.733-2.546a806.448 806.448 0 0128.52-39.196c1.56-2.017 3.112-4.041 4.657-6.07 7.385-9.691 15.117-19.069 23.004-28.352a657.685 657.685 0 008.586-10.336c3.746-4.602 7.565-9.137 11.41-13.657a586.466 586.466 0 008.715-10.53c3.577-4.398 7.318-8.606 11.137-12.793 2.266-2.552 4.413-5.172 6.55-7.832 3.893-4.817 8.022-9.342 12.252-13.858a171.854 171.854 0 008.748-10.142c4.455-5.554 9.292-10.702 14.197-15.855 4.287-4.51 8.414-9.133 12.491-13.833 7.051-7.926 14.238-15.73 21.416-23.541l4.209-4.584 1.397-1.522a998.395 998.395 0 008.29-9.165c4.399-4.903 8.894-9.711 13.394-14.52 3.62-3.869 7.22-7.756 10.794-11.668a1850.214 1850.214 0 0114.238-15.363A2261.98 2261.98 0 002505 1589.5a2644.42 2644.42 0 0113-14 3921.125 3921.125 0 0020.443-22.068 3105.071 3105.071 0 0121.678-23.3c2.623-2.791 5.24-5.588 7.852-8.39 5.95-6.375 11.92-12.695 18.132-18.816 1.823-1.853 3.521-3.762 5.207-5.738 3.063-3.577 6.34-6.882 9.688-10.188 3.222-3.183 6.39-6.347 9.312-9.812 4.075-4.799 8.604-9.155 13.095-13.558 3.137-3.095 6.156-6.227 9.03-9.567 4.47-5.184 9.367-9.915 14.247-14.708 3.385-3.348 6.68-6.712 9.785-10.324 4.65-5.405 9.778-10.324 14.86-15.32 4.148-4.106 8.094-8.29 11.898-12.715 3.93-4.424 8.236-8.496 12.457-12.64a213.603 213.603 0 0011.775-12.592c1.916-2.194 3.95-4.236 6.041-6.264 3.357-3.317 6.509-6.729 9.59-10.3 9.158-10.544 18.979-20.39 28.91-30.2zM2229 0c89.666-.257 179.332-.496 268.999-.635l4.02-.006c28.126-.044 56.253-.085 84.38-.122a518527.274 518527.274 0 0048.78-.067c32.82-.046 65.64-.104 98.459-.2l2.138-.006c11.378-.033 22.755-.068 34.132-.102 32.77-.1 65.54-.19 98.31-.23l2.042-.002c14.129-.016 28.257-.03 42.386-.039l19.85-.014 3.946-.003c20.983-.018 41.965-.088 62.947-.176 21.083-.089 42.165-.123 63.248-.1 12.534.01 25.066-.02 37.6-.11 8.367-.056 16.733-.058 25.1-.015 4.773.022 9.541.021 14.313-.046 4.342-.061 8.679-.053 13.021.01 1.56.012 3.12-.003 4.68-.046 11.278-.289 11.278-.289 15.25 3.393 3.443 4.14 5.955 8.741 8.399 13.516.9 1.575 1.802 3.15 2.707 4.723a193.74 193.74 0 012.106 4.34l1.196 2.524c27.06 59.695 37.69 128.11 46.991 192.413l.395 2.702c6.134 42.028 10.667 84.338 12.495 126.784.122 2.779.25 5.557.379 8.336 1.015 22.01 1.92 44.016 1.919 66.053l.002 2.218c-.001 9.123-.32 18.205-.792 27.315-.37 7.39-.581 14.778-.757 22.174-1.835 74.567-10.136 148.017-20.34 221.888a1742.847 1742.847 0 00-3.024 23.162c-3.202 25.807-8.135 51.308-13.028 76.836-.876 4.57-1.74 9.142-2.597 13.716-1.179 6.28-2.397 12.55-3.652 18.816l-.666 3.332c-2.529 12.467-5.413 24.704-9.396 36.793l-.959 2.924c-3.253 9.472-7.383 19.486-16.291 24.764-24.492 11.367-67.396-8.872-90.674-17.324-11.304-4.17-22.509-8.607-33.716-13.029-5.594-2.2-11.217-4.317-16.85-6.416a504.288 504.288 0 01-14.323-5.606 798.071 798.071 0 00-19.012-7.418c-24.279-9.134-47.894-19.306-71.185-30.745-4.883-2.388-9.708-4.677-14.828-6.505-8.758-3.211-17.211-7.144-25.6-11.207l-3.224-1.557c-18.448-8.938-36.79-18.025-54.73-27.951-5.01-2.773-10.058-5.471-15.112-8.164-13.68-7.3-27.102-14.975-40.434-22.891l-3.105-1.832c-15.24-8.992-30.154-18.383-44.895-28.168l-3.355-2.218c-13.696-9.05-27.352-18.145-40.645-27.782l-2.261-1.638c-14.578-10.587-28.958-21.461-42.833-32.96a773.655 773.655 0 00-7-5.71c-7.427-6.02-14.573-12.01-21.12-18.997-1.617-1.925-1.617-1.925-3.786-1.695a378.159 378.159 0 01-3-5 97.261 97.261 0 00-4.203-4.363l-2.473-2.44-2.574-2.51c-9.45-9.252-9.45-9.252-12.988-13.43-3.246-3.787-6.739-7.278-10.29-10.777l-1.808-1.784a2043.41 2043.41 0 00-7.482-7.343c-7.523-7.347-14.27-14.603-20.182-23.353-5.187-7.088-10.639-13.87-16.582-20.34-7.007-7.709-13.726-15.686-20.18-23.863-2.34-2.925-4.727-5.806-7.121-8.686-6.47-7.794-12.719-15.72-18.832-23.795-2.815-3.715-5.685-7.385-8.567-11.049-6.7-8.53-13.061-17.24-19.246-26.15a2018.353 2018.353 0 00-7.535-10.742l-1.512-2.15a571.2 571.2 0 00-8.466-11.68c-55.88-75.142-99.82-162.894-138.329-247.968-1.9-4.169-3.831-8.323-5.767-12.475-17.457-37.496-33.842-75.428-49.807-113.58-1.017-2.43-2.036-4.858-3.055-7.287A4667.35 4667.35 0 012234.6 15.7c-.765-1.836-1.532-3.67-2.3-5.504l-1.342-3.239-1.157-2.782C2229 2 2229 2 2229 0z" fill="#5E520B"/>
  <path d="M1713 0h136c-4.165 10.116-8.353 20.178-12.75 30.188-7.756 17.756-15.095 35.684-22.461 53.605a9632.751 9632.751 0 01-9.125 22.105 615014.603 615014.603 0 00-6.404 15.469l-3.479 8.406-1.03 2.482A414.906 414.906 0 001788 147l3.02-.487c6.936-.986 13.986-.758 20.98-.763l2.48-.002c101.01.131 205.003 40.251 289.957 96.69l3.28 2.184c7.273 4.899 14.317 10.054 21.283 15.378l2.012 1.531c13.079 10.008 25.527 20.633 36.988 32.469a789.456 789.456 0 008.234 8.164c7.08 6.95 13.628 14.027 19.766 21.836a678.271 678.271 0 002.582 3.066c55.314 66.012 84.394 155.169 77.47 240.904-5.988 64.702-30.434 125.608-74.052 174.03l-1.54 1.71c-8.674 9.594-17.525 18.982-27.46 27.29l-1.62 1.358C2150.106 790.13 2127.445 804.97 2103 818l-2.481 1.328c-85.443 45.298-184.148 52.225-500.677-5.454-52.93-16.27-104.54-35.715-154.842-58.874l-3.547-1.628c-15.527-7.134-30.963-14.45-46.35-21.88a2071.67 2071.67 0 00-9.552-4.558c-11.76-5.591-23.4-11.33-34.868-17.497a1775.77 1775.77 0 00-9.238-4.902c-14.474-7.667-28.729-15.624-42.819-23.982a967.398 967.398 0 00-7.228-4.229c-21.22-12.32-42.742-25.295-61.398-41.324l-2.602-2.234c-9.026-7.935-17.775-16.074-18.847-28.762-.421-9.548 1.155-18.012 4.449-27.004l1.332-3.77c7.682-20.62 19.909-39.433 32.668-57.23 1.083-1.536 2.165-3.072 3.246-4.61 7.18-10.14 14.783-19.862 22.754-29.39l1.445-1.729a1250.73 1250.73 0 018.156-9.63 1166.76 1166.76 0 004.434-5.243c5.032-5.954 10.086-11.751 15.735-17.14 1.898-1.922 3.648-3.881 5.407-5.928 3.59-4.116 7.358-8.01 11.225-11.865l2.065-2.068c1.43-1.43 2.861-2.86 4.293-4.288 2.172-2.166 4.338-4.337 6.504-6.51l4.2-4.197c.638-.638 1.274-1.277 1.93-1.935 3.8-3.78 7.71-7.38 11.773-10.876 3.017-2.619 5.92-5.359 8.833-8.091 4.925-4.592 9.883-9.121 15-13.5l3.137-2.7c3.016-2.593 6.039-5.18 9.064-7.762 1.16-.992 2.32-1.984 3.477-2.978 7.706-6.611 15.57-12.977 23.587-19.207a845.048 845.048 0 004.993-3.927c15.125-11.974 30.374-23.694 46.383-34.469 3.91-2.634 7.735-5.37 11.546-8.144 6.658-4.81 13.57-9.146 20.57-13.434a1120.31 1120.31 0 007.153-4.442c27.046-16.875 54.727-32.518 82.824-47.57a1580.8 1580.8 0 0014.534-7.9c13.455-7.392 27.059-14.488 40.732-21.467l1.97-1.007c20.183-10.308 40.545-20.097 61.252-29.309 3.55-1.58 7.09-3.18 10.63-4.782C1760.072 150 1760.072 150 1776 150c-3.328-10.861-7.517-21.13-12.182-31.477-2.114-4.693-4.205-9.396-6.298-14.097l-1.347-3.019c-5.377-12.075-10.615-24.211-15.86-36.344-5.39-12.466-10.78-24.93-16.329-37.325l-1.16-2.593a2700.34 2700.34 0 00-5.305-11.778l-1.828-4.062-1.587-3.5C1713 3 1713 3 1713 0z" fill="#772030"/>
  <path d="M837 2674l16 2-1 5 2.62 1.278c15.234 7.45 30.371 14.874 44.763 23.878 4.304 2.69 8.705 5.203 13.117 7.71 5.89 3.347 11.736 6.768 17.575 10.2 3.159 1.858 6.32 3.712 9.48 5.567l1.922 1.128c4.876 2.862 9.758 5.714 14.643 8.56l5.778 3.371c4.793 2.799 9.59 5.591 14.395 8.368 14.96 8.649 29.63 17.584 44.022 27.161 4.436 2.94 8.906 5.824 13.372 8.717 2.413 1.569 4.825 3.14 7.236 4.71 1.77 1.153 3.545 2.3 5.32 3.446 6.997 4.575 13.704 9.509 20.415 14.49a844.75 844.75 0 0017.997 12.946c5.908 4.148 11.76 8.37 17.604 12.608 5.152 3.73 10.343 7.4 15.553 11.05 4.978 3.487 9.846 7.057 14.626 10.812 5.016 3.93 10.212 7.417 15.562 10.875 6.251 4.067 11.757 8.375 17.106 13.559 4.8 4.612 9.986 8.573 15.307 12.563 5.229 3.932 10.31 8.006 15.337 12.19 5.89 4.898 11.86 9.63 17.957 14.266 4.434 3.399 8.732 6.964 13.05 10.507 5.685 4.64 11.499 9.097 17.396 13.463a91.532 91.532 0 0111.235 9.95c1.692 1.707 3.465 3.263 5.3 4.815 3.557 3.056 6.844 6.34 10.124 9.687 4.494 4.565 9.175 8.653 14.196 12.64 4.387 3.643 8.503 7.558 12.65 11.468 3.694 3.48 7.427 6.884 11.272 10.197 4.556 4.006 8.97 8.172 13.42 12.296 2.5 2.31 5.013 4.603 7.525 6.899a9361.67 9361.67 0 014.464 4.1c1.068.98 2.137 1.96 3.207 2.939 11.159 10.22 21.887 20.863 32.573 31.574 2.418 2.424 4.84 4.843 7.264 7.26 2.354 2.35 4.704 4.704 7.055 7.057l2.598 2.592c4.3 4.317 8.465 8.693 12.427 13.325 2.75 3.18 5.654 6.219 8.537 9.278 4.767 5.086 9.472 10.2 14 15.5l2.59 2.992c11.323 13.104 22.329 26.464 32.954 40.139 1.58 2.028 3.168 4.05 4.757 6.072 12.167 15.516 23.818 31.384 35.119 47.54 1.715 2.45 3.437 4.897 5.158 7.343l3.672 5.227 1.68 2.386c19.168 27.347 36.98 55.715 54.25 84.289 1.213 2.008 2.428 4.014 3.645 6.02 10.01 16.507 19.66 33.197 29.175 49.992l3.371 5.934c3.224 5.68 6.43 11.37 9.629 17.066l1.824 3.246c8.196 14.602 16.163 29.296 23.841 44.177 1.602 3.093 3.228 6.174 4.858 9.253 15.854 29.948 31.285 60.14 45.79 90.765 1.637 3.454 3.28 6.905 4.923 10.355 1.589 3.337 3.175 6.675 4.761 10.012l2.336 4.91c4.16 8.735 8.26 17.496 12.218 26.325l1.053 2.332c2.396 5.388 2.396 5.388 2.396 7.625H825c-5.758-21.88-5.758-21.88-7.395-30.027l-.585-2.85c-.617-3.02-1.225-6.04-1.832-9.06l-.65-3.204c-4.306-21.284-8.27-42.624-12.036-64.01-.523-2.97-1.048-5.94-1.574-8.91a11621.901 11621.901 0 01-3.741-21.291c-3.696-21.088-6.728-42.25-9.624-63.46l-.465-3.396a19046.13 19046.13 0 01-2.708-19.917c-.344-2.539-.69-5.078-1.036-7.617-2.821-20.725-5.083-41.49-7.072-62.31l-.583-6.072c-3.52-36.53-6.091-73.051-7.606-109.72-.068-1.574-.14-3.147-.213-4.72-.868-18.482-1.03-36.933-1.014-55.43.002-4.03 0-8.057-.002-12.086-.002-6.745 0-13.49.006-20.235.005-7.752.003-15.503-.002-23.255-.005-6.722-.005-13.443-.003-20.165.002-3.986.002-7.973-.001-11.959-.003-3.742-.001-7.483.005-11.224.002-1.996-.001-3.992-.005-5.988.018-7.823.348-15.57.898-23.37.408-6.382.52-12.77.676-19.162.283-10.52.817-20.974 1.768-31.457a407.46 407.46 0 001.192-19.222c1.021-25.476 3.382-50.593 6.602-75.883l.292-2.312c1.818-14.375 3.756-28.736 6.001-43.051a352.4 352.4 0 001.383-9.867l.355-2.613c.221-1.63.428-3.26.616-4.894.777-5.503 2.47-8.28 6.353-12.263l-2-2 .996-2.77 1.442-4.043.807-2.261a460.074 460.074 0 004.77-14.223c4.61-14.43 9.97-28.112 16.569-41.746a508.287 508.287 0 004.244-9.144c4.848-10.567 9.703-19.875 17.172-28.813z" fill="#2B0000"/>
  <path d="M2180.962 2981.673c1.953.313 3.907.623 5.86.933 38.426 6.143 76.821 14.908 113.921 26.689 3.152.985 6.327 1.88 9.507 2.767 48.396 13.655 95.73 31.734 141.697 52.033 1.989.877 3.98 1.749 5.972 2.619 18.5 8.097 36.63 16.91 54.706 25.911l3.159 1.567c17.368 8.634 34.266 17.97 51.002 27.768 10.01 5.805 19.568 9.525 31.214 10.04l-6 4 2.895.96c9.618 3.395 15.806 7.796 23.105 15.04 11.539 10.144 24.33 18.846 37 27.5 15.281 10.44 30.052 21.52 44.74 32.774 2.8 2.139 5.62 4.248 8.448 6.351 6.55 4.894 12.985 9.936 19.433 14.965 3.615 2.818 7.242 5.62 10.879 8.41 11.684 8.98 23.335 17.988 34.744 27.318a703.013 703.013 0 0012.694 10.12c6.096 4.754 12.067 9.652 18.024 14.58a885.935 885.935 0 0013.401 10.873c3.481 2.784 6.932 5.605 10.387 8.421a898.55 898.55 0 0015.188 12.125c6.005 4.684 11.88 9.514 17.745 14.371A582.913 582.913 0 002874 3350.5c5.987 4.66 11.84 9.47 17.684 14.309A583.134 583.134 0 002905 3375.5c5.241 4.08 10.385 8.264 15.5 12.5a747.045 747.045 0 0017.262 13.887c4.459 3.482 8.855 7.035 13.238 10.613a892.303 892.303 0 0015 12c7.132 5.572 14.153 11.275 21.16 17.001a981.132 981.132 0 005.086 4.112c4.842 3.91 9.578 7.76 13.754 12.387v2l2.176.758c3.1 1.363 5.352 3.022 8.012 5.117 5.07 3.925 10.32 7.492 15.687 11 8.066 5.303 15.65 11.025 23.125 17.125l2.816 2.266c10.042 8.127 19.859 16.484 29.247 25.359 4.864 4.592 9.885 8.77 15.243 12.771 4.573 3.439 8.783 7.183 12.964 11.084a221.324 221.324 0 006.25 5.535c5.184 4.53 10.025 9.387 14.886 14.258l2.925 2.923c2.026 2.024 4.05 4.05 6.071 6.076 2.597 2.603 5.199 5.201 7.802 7.798a4258.92 4258.92 0 016.011 6.012l2.88 2.878c1.334 1.33 2.664 2.664 3.993 3.998l2.295 2.298C3170 3599 3170 3599 3170 3600H1849c5.751-14.953 5.751-14.953 8.793-21.648l1.04-2.314a3289.55 3289.55 0 013.355-7.413l2.383-5.275c12.31-27.209 24.81-54.316 37.886-81.166a1592.89 1592.89 0 005.711-11.943c9.363-19.713 19.096-39.256 29.375-58.508 1.4-2.627 2.794-5.259 4.185-7.891 8.51-16.093 17.204-32.055 26.272-47.842l1.824-3.187c8.228-14.37 16.54-28.684 25.176-42.813.535-.877 1.07-1.753 1.62-2.657 10.52-17.196 21.68-33.947 32.921-50.677a2439.87 2439.87 0 006.768-10.146 568.988 568.988 0 019.316-13.583l1.52-2.146c8.966-12.614 18.185-25.02 27.723-37.206a990.026 990.026 0 0011.757-15.335l1.47-1.95a351.3 351.3 0 002.672-3.618c1.18-1.61 2.405-3.186 3.631-4.76 2.76-5.034.303-10.381-1-15.75l-.975-4.06-.517-2.15c-4.224-17.601-8.016-35.271-11.523-53.028-.366-1.849-.736-3.697-1.106-5.545-15.73-79.058-15.73-79.058-3.804-97.69 22.214-27.886 75.462-12.855 105.489-8.026z" fill="#5E520B"/>
  <path d="M602.063 2855.938c25.689 24.523 33.771 70.862 38.195 104.57.635 4.83 1.393 9.633 2.17 14.441 6.973 43.462 9.725 87.294 9.74 131.29l.01 6.783c.006 4.716.008 9.433.007 14.15 0 4.712.007 9.424.02 14.136.259 89.593.259 89.593-4.142 125.13a380.482 380.482 0 00-1.662 17.498c-2.287 31.499-6.246 62.912-11.401 94.064l-.445 2.696c-7.943 48.022-7.943 48.022-12.555 70.304l-.695 3.376c-3.766 18.11-8.05 36.091-12.43 54.062l-.769 3.166c-3.058 12.571-6.357 25.014-10.106 37.396-.535 1.849-1.065 3.699-1.59 5.55l-.678 2.396-.67 2.367c-2.916 10.26-5.975 20.476-9.062 30.687l-3 10H0l-1.812-195.187-.8-61.532c-.132-24.88-.132-24.88-.156-36.542-.027-8.113-.133-16.22-.294-24.331-.186-9.378-.268-18.75-.228-28.13.017-4.792-.008-9.57-.167-14.359-.547-17.265-.412-31.33 11.733-44.612 5.96-6.159 12.432-11.696 19.132-17.027 2.177-1.75 4.28-3.579 6.376-5.425l1.766-1.552a119.486 119.486 0 005.45-5.24l2-2.024 2-2.039c4.6-4.69 9.272-9.185 14.25-13.473 2.013-1.756 3.895-3.606 5.75-5.527 3.106-3.148 6.325-6.077 9.676-8.96 2.948-2.588 5.823-5.248 8.699-7.915A1342.15 1342.15 0 01100 3111l5.125-4.625a837.862 837.862 0 0116.133-14.16l3.617-3.09 1.844-1.575a457.427 457.427 0 0010.469-9.237c4.136-3.754 8.42-7.284 12.761-10.797 3.572-2.945 7.063-5.973 10.551-9.016 6.07-5.29 12.24-10.435 18.5-15.5l5.313-4.375c5.839-4.775 11.762-9.439 17.708-14.08 1.368-1.068 2.736-2.137 4.103-3.207A1450.954 1450.954 0 01256 2984l2.064-1.483c27.724-19.899 56.543-38.196 85.936-55.517l2.633-1.553c34.671-20.351 70.797-39.413 108.297-53.99 4.453-1.74 8.706-3.731 12.996-5.84 8.555-4.115 17.5-6.803 26.588-9.48 2.788-.821 5.57-1.662 8.351-2.506 31.081-9.34 71.333-20.736 99.198 2.307z" fill="#F1BB57"/>
  <path d="M314.938 1289.75l3.59-.078c6.657.629 10.888 4.06 15.347 8.746C386.363 1362.195 399.153 1476.371 428 1738l.066 3.731c1.625 102.955-9.022 207.912-43.066 342.269l-1.128 3.669c-13.866 44.862-30.792 88.468-55.267 128.693a924.433 924.433 0 00-4.539 7.556c-5.97 9.972-12.35 19.6-19.066 29.082l-1.54 2.188a479.33 479.33 0 01-23.007 30.055c-2.09 2.526-4.143 5.082-6.203 7.632-3.588 4.383-7.321 8.608-11.137 12.793a295.89 295.89 0 00-5.55 6.332c-3.56 4.1-7.418 7.873-11.282 11.684-1.757 1.784-3.358 3.543-4.906 5.503-2.487 2.946-5.153 5.28-8.082 7.77-2.655 2.366-5.12 4.875-7.606 7.418-4.442 4.522-9.136 8.58-14.093 12.527-2.323 1.879-4.523 3.825-6.719 5.848-6.914 6.21-14.443 11.683-21.875 17.25l-1.996 1.499C161.337 2396.229 140.58 2409.26 119 2421l-2.453 1.346C91.99 2435.76 66.58 2446.316 40 2455c-5.937 1.957-5.937 1.957-11.836 4.027-6.273 2.249-12.562 3.773-19.078 5.102l-2.656.55c-2.142.443-4.286.883-6.43 1.321-.154-85.471-.297-170.943-.381-256.414l-.004-3.832a543244.81 543244.81 0 01-.108-120.84l-.005-6.095c-.027-31.285-.063-62.57-.12-93.854l-.004-2.038-.06-32.534a91092.81 91092.81 0 01-.172-154.985l-.002-3.762c-.01-20-.052-40-.105-60.001a18316.75 18316.75 0 01-.06-60.29 7135.97 7135.97 0 00-.066-35.84c-.034-7.977-.035-15.952-.01-23.929.014-4.547.013-9.094-.027-13.642a694.08 694.08 0 01.007-12.413c.006-1.487-.002-2.974-.028-4.46-.125-7.708.204-12.85 5.48-18.731A516.799 516.799 0 019 1558a150.504 150.504 0 003.75-4.688c4.451-5.643 9.17-11.038 13.895-16.453 2.14-2.454 4.263-4.92 6.367-7.406a485.593 485.593 0 0118.005-20.129 297.27 297.27 0 008.432-9.265c3.59-4.131 7.301-8.136 11.051-12.121l1.895-2.026c2.995-3.19 6.018-6.337 9.136-9.408a103.928 103.928 0 006.354-6.883c5.499-6.315 11.5-12.15 17.424-18.062l3.88-3.884c2.701-2.702 5.403-5.403 8.107-8.102a8389.73 8389.73 0 0010.332-10.335c2.667-2.67 5.337-5.339 8.007-8.007 1.27-1.269 2.538-2.538 3.807-3.809 11.985-12.002 11.985-12.002 17.939-17.017 1.794-1.557 3.456-3.21 5.119-4.905 2.946-2.992 6.03-5.753 9.21-8.492a314.571 314.571 0 006.57-5.962 299.685 299.685 0 0116.001-13.796c2.846-2.355 5.565-4.81 8.281-7.313 4.975-4.562 10.114-8.792 15.438-12.937l3.996-3.152c68.36-53.778 68.36-53.778 92.941-54.098z" fill="#2B0000"/>
  <path d="M3171 0h429v637c-64.501 23.154-64.501 23.154-80.883 27.44-2.94.778-5.867 1.602-8.795 2.425-9.12 2.562-18.27 4.999-27.437 7.381-3.24.847-6.477 1.707-9.713 2.567-45.137 11.913-90.893 20.613-137.042 27.56-3.623.546-7.24 1.124-10.857 1.709-15.898 2.503-31.883 4.064-47.898 5.606l-3.365.33c-16.328 1.586-32.612 2.523-49.01 2.982l-1 2c1.182-10.989 2.47-21.954 3.941-32.908.314-2.342.626-4.685.936-7.027.883-6.648 1.77-13.296 2.659-19.943 4.419-33.063 8.498-66.107 11.089-99.372l.32-4.04c2.164-27.546 3.123-55.085 3.78-82.703.176-7.086.443-14.16.81-21.237.46-8.97.665-17.914.653-26.895l-.001-2.366c-.156-100.445-11.625-200.827-49.18-358.493-.995-2.98-1.968-5.966-2.94-8.953-5.725-17.31-12.452-34.092-23.45-48.762C3171 2 3171 2 3171 0z" fill="#F0BA57"/>
  <path d="M0 0h583c-14.38 40.744-14.38 40.744-21.625 59.125l-1.277 3.249c-16.909 42.894-36.26 85.23-59.598 125.04a543.773 543.773 0 00-4.754 8.402C488.881 208.144 481.68 220.164 474 232l-1.806 2.798c-7.454 11.545-14.983 23.027-22.858 34.29a1602.114 1602.114 0 00-4.117 5.932c-8.06 11.59-16.585 22.812-25.219 33.98l-1.56 2.02c-13.713 17.73-28.062 35.017-43.213 51.539a335.67 335.67 0 00-5.664 6.378c-6.418 7.374-13.003 14.602-19.981 21.45-1.633 1.665-3.136 3.398-4.644 5.175-7.35 8.513-15.501 16.537-24.083 23.801-2.217 1.956-4.279 4.033-6.355 6.137a170.385 170.385 0 01-10.348 9.629c-2.533 2.202-4.995 4.473-7.464 6.746-4.543 4.147-9.23 8.057-14.016 11.918-2.57 2.123-5.031 4.325-7.485 6.582-4.43 4.038-9.066 7.727-13.801 11.396a319.021 319.021 0 00-11.949 9.791C231.917 496.53 212.907 509.858 194 523l-2.167 1.509C162.995 544.535 133.338 563.337 103 581l-3.102 1.813A1401.327 1401.327 0 0153 609l-3.84 2.057c-26.678 14.29-26.678 14.29-40.097 21.005L6.57 633.31C1.136 636 1.136 636 0 636V0z" fill="#F1BB57"/>
  <path d="M820.25 700.813l2.174.002C858 700.915 891.946 708.326 924 724l2.125 1.034c19.864 9.783 38.21 22.605 54.406 37.685a156.77 156.77 0 006.282 5.468c11.343 9.932 20.82 21.705 29.716 33.815a469.185 469.185 0 004.084 5.447c7.436 9.933 13.464 20.667 19.387 31.551l1.148 2.1c20.53 37.99 29.126 78.926 29.165 121.775l.01 2.72c.037 17.21-1.07 34.223-4.636 51.092l-.662 3.199C1054.56 1069.124 1029.923 1116.74 995 1153l-1.916 1.998c-8.63 8.955-17.36 17.414-27.404 24.771a404.93 404.93 0 00-4.992 3.735C929.872 1206.503 892.81 1221.54 855 1228l-2.765.487c-26.294 4.458-53.98 3.981-80.235-.487l-2.809-.472C709.752 1217.087 652.167 1183.835 615 1136a1082.23 1082.23 0 00-2.602-3.191C580.177 1093.143 562.085 1044.594 557 994l-.398-3.887C553.486 952.522 558.245 914.78 570 879l1.016-3.129C586.14 829.878 616.596 786.661 655 757l2.898-2.344c46.06-36.662 104-53.943 162.352-53.843zM2096 3166l2 1a136.368 136.368 0 012.268 8.325l.663 2.663c.731 2.945 1.45 5.893 2.17 8.84a8325.96 8325.96 0 001.542 6.222 6763.47 6763.47 0 013.277 13.277c2.558 10.395 5.145 20.783 7.73 31.172l2.573 10.344c23.945 96.278 52.326 191.51 105.648 336.882l1.049 2.677a1297.25 1297.25 0 001.948 4.94c2.132 5.436 2.132 5.436 2.132 7.658h-380c5.751-14.953 5.751-14.953 8.793-21.648l1.04-2.314c1.115-2.472 2.234-4.943 3.354-7.413l2.384-5.275c12.31-27.209 24.81-54.316 37.886-81.166a1592.89 1592.89 0 005.711-11.943c9.363-19.713 19.096-39.256 29.375-58.508 1.4-2.627 2.794-5.259 4.185-7.891 8.51-16.093 17.204-32.055 26.272-47.842l1.824-3.187c8.228-14.37 16.54-28.684 25.176-42.813.535-.877 1.07-1.753 1.62-2.657 10.52-17.196 21.68-33.947 32.921-50.677 2.267-3.375 4.518-6.76 6.768-10.146a566.914 566.914 0 019.316-13.582l1.52-2.147c8.965-12.613 18.18-25.022 27.723-37.204a887.3 887.3 0 0013.226-17.375A309.416 309.416 0 012096 3166z" fill="#2B0000"/>
  <path d="M3295.762 996.004c16.894 16.983 18.891 56.788 23.238 78.996l.483 2.436c2.897 14.734 4.607 29.678 6.517 44.564l.422 3.267a2139.14 2139.14 0 012.215 17.74c.245 2.023.495 4.046.75 6.068 1.743 13.912 2.967 27.804 3.738 41.8l.117 2.096c.244 4.469.452 8.939.643 13.41.078 1.782.16 3.563.248 5.344 1.195 24.882 1.02 49.787.997 74.69-.005 6.304-.002 12.608.004 18.911.004 4.912.002 9.823 0 14.735 0 2.324 0 4.65.002 6.974.018 21.783.018 21.783-.898 32.085-.47 5.676-.529 11.375-.675 17.068-.45 15.804-1.328 31.573-2.292 47.353-.232 3.796-.455 7.593-.676 11.39-.175 3.011-.353 6.023-.53 9.034l-.25 4.256c-.382 6.581-.805 13.127-1.594 19.673-.422 4.024-.553 8.065-.721 12.106-.197 4.75-.403 9.465-.996 14.184-.783 6.599-.867 13.242-1.067 19.879l-.13 4.068c-.106 3.29-.208 6.58-.307 9.869-2.638-3.165-4.826-6.25-6.742-9.895l-1.52-2.857-1.613-3.06c-6.73-12.586-13.84-24.917-21.125-37.188l-1.885-3.179c-7.686-12.942-15.51-25.783-23.617-38.467-1.527-2.4-3.037-4.809-4.545-7.221-14.13-22.529-29.053-44.65-44.587-66.235-1.51-2.097-3.01-4.2-4.51-6.304-6.94-9.697-14.075-19.225-21.364-28.661a1704.756 1704.756 0 01-4.144-5.394c-12.464-16.274-25.165-32.363-38.47-47.96a433.478 433.478 0 01-8.253-10.017c-4.624-5.688-9.611-11.004-14.625-16.347a246.803 246.803 0 01-6.625-7.34c-4.172-4.823-8.49-9.51-12.82-14.191a977.76 977.76 0 01-3.066-3.336c-9.05-9.893-18.457-19.422-27.927-28.91l-1.848-1.857c-8.8-8.856-8.8-8.856-18.099-17.18-1.793-1.556-3.453-3.207-5.115-4.901-2.967-3.014-6.073-5.8-9.277-8.559-2.553-2.229-5.042-4.521-7.536-6.816-4.712-4.31-9.567-8.345-14.57-12.313C3019 1138 3019 1138 3018 1136a944.787 944.787 0 0156.546-37.494c3.809-2.337 7.601-4.7 11.391-7.069l1.916-1.192c2.861-1.787 5.686-3.609 8.463-5.522C3099 1083 3099 1083 3101 1083v-2c21.59-11.492 43.233-22.874 65.02-33.989 1.953-.997 3.904-1.998 5.855-3 16.18-8.302 32.504-16.015 49.263-23.098a2752.08 2752.08 0 0019.401-8.323l10.052-4.334a7417.79 7417.79 0 006.655-2.874c3.133-1.354 6.27-2.703 9.406-4.05l2.85-1.236c19.095-8.175 19.095-8.175 26.26-4.092z" fill="#5E520B"/>
  <path d="M3600 3208v392h-314c1.645-4.111 2.909-6.466 5.5-9.875a278.734 278.734 0 009.125-13.063c6.266-9.488 12.824-18.77 19.375-28.062l1.604-2.276c2.488-3.531 4.98-7.06 7.474-10.587 1.954-2.764 3.902-5.533 5.844-8.305 6.955-9.917 14.085-19.693 21.296-29.425 2.35-3.175 4.694-6.355 7.036-9.537l3.496-4.742c2.924-3.966 5.842-7.935 8.75-11.913 6.334-8.653 12.77-17.206 19.384-25.648 3.83-4.894 7.59-9.833 11.304-14.817 5.043-6.765 10.214-13.418 15.453-20.032 1.833-2.317 3.657-4.64 5.481-6.963l2.76-3.512c2.26-2.874 4.516-5.752 6.763-8.638 6.774-8.688 13.746-17.203 20.772-25.69 2.14-2.59 4.269-5.189 6.395-7.79l2.122-2.594c1.41-1.728 2.819-3.457 4.226-5.187a1025.656 1025.656 0 0113.758-16.512c2.86-3.37 5.674-6.772 8.457-10.207 4.642-5.702 9.46-11.242 14.29-16.785 2.69-3.09 5.357-6.201 8.015-9.32a628.088 628.088 0 0115.086-17.07 372.011 372.011 0 005.796-6.512c7.45-8.56 15.135-16.905 22.852-25.223 1.536-1.66 3.062-3.33 4.586-5 7.888-8.6 16.071-16.894 24.313-25.153l1.727-1.734c1.625-1.632 3.255-3.26 4.886-4.887l1.507-1.512c3.452-3.429 3.452-3.429 4.567-3.429z" fill="#F1BB57"/>
  <path d="M1713 0h136c-4.165 10.116-8.353 20.178-12.75 30.188-5.622 12.87-11.024 25.827-16.375 38.812l-1.201 2.915c-3.334 8.092-6.662 16.187-9.988 24.283-2.62 6.378-5.244 12.756-7.87 19.132-1.227 2.981-2.45 5.964-3.674 8.947l-2.263 5.496-1.014 2.482c-1.558 3.771-3.171 7.51-4.92 11.197l-.913 1.927c-1.759 2.763-4.014 3.615-7.032 4.621h-4l-.832-2.06c-6.134-15.128-12.52-30.12-19.23-45.002-6.712-14.885-13.25-29.836-19.692-44.839-4.275-9.955-8.576-19.895-13.004-29.783l-1.144-2.556a2770.96 2770.96 0 00-5.376-11.934l-1.89-4.205-.878-1.916C1713.713 4.932 1713 3.08 1713 0z" fill="#F8F8F8"/>
  <path d="M0 2586c20.2 26.933 28.396 64.386 33 97l.355 2.29c5.922 38.218 1.453 82.06-10.355 118.71l-.775 2.506C16.615 2824.598 9.662 2842.137 1 2859H0v-273z" fill="#2C0202"/>
  <path d="M3171 0h114c-5.615 10.108-5.615 10.108-7.988 13.777l-1.615 2.513-1.71 2.648c-13.325 20.797-26.091 41.947-38.876 63.08a1159.455 1159.455 0 01-4.67 7.623c-5.609 9.118-10.217 18.393-14.141 28.359-2.295-3.443-2.958-6.656-3.813-10.625-2.021-8.912-4.465-17.653-7.187-26.375l-1.072-3.435c-11.45-39.085-11.45-39.085-31.787-73.925C3171 2 3171 2 3171 0z" fill="#F8F8F8"/>
  <path d="M3600 2467v118c-3.162-3.162-5.226-6.515-7.5-10.313-4.564-7.449-9.594-14.308-15.148-21.043a397.3 397.3 0 01-3.79-4.703c-11.968-14.68-25.565-28.647-40.94-39.763a255.357 255.357 0 01-4.852-3.635c-11.705-8.791-24.609-16.157-37.77-22.543v-1c3.904-.867 7.738-1.292 11.723-1.613l4.025-.337 2.128-.178c22.418-1.894 44.534-5.168 66.686-9.06l2.285-.4c2.136-.378 4.272-.76 6.407-1.142l3.729-.67c8.039-1.6 8.039-1.6 13.017-1.6z" fill="#F7F7F7"/>
</svg>
