<svg xmlns="http://www.w3.org/2000/svg" version="1.1" shape-rendering="geometricPrecision" text-rendering="geometricPrecision" image-rendering="optimizeQuality" fill-rule="evenodd" clip-rule="evenodd" viewBox="0 0 3600 3600">
  <path fill="#f1bb57" d="M-.5-.5h583c-76.28 226.71-213.613 406.21-412 538.5-54.75 36.053-111.75 68.553-171 97.5V-.5z" opacity="1"/>
  <path fill="#f8f8f8" d="M582.5-.5h242c24.307 95.94 60.807 186.939 109.5 273 121.96 213.709 278.13 399.543 468.5 557.5 73.88 59.522 151.88 113.189 234 161a817.93 817.93 0 00120 56c64.26 23.48 129.93 28.81 197 16 28.7-7.69 56.03-18.69 82-33 27.2-14.43 52.87-31.092 77-50 54.14-46.118 100.3-98.951 138.5-158.5 26.12-41.888 49.95-85.222 71.5-130 1.55-.952 3.21-1.285 5-1 1.42.951 3.09 1.284 5 1v-16c-.16-1.699.01-3.366.5-5a2390.185 2390.185 0 00102.5-264c29.63 42.822 61.8 83.822 96.5 123a621.49 621.49 0 0120 27 3726.577 3726.577 0 0071.5 72.5c90.26 74.449 189.59 134.782 298 181a403.61 403.61 0 0034 17c44.9 17.95 89.9 35.617 135 53a367.857 367.857 0 0073.5 18.5c9.38.308 16.72-3.358 22-11a175.85 175.85 0 0014-41 2085.46 2085.46 0 0024.5-133c128.92-6.653 253.92-32.319 375-77v932c-58.37 72.23-111.53 148.23-159.5 228a2017.104 2017.104 0 00-115.5-269c3.32-63.98 6.49-127.98 9.5-192 3.46-79.73-.54-159.06-12-238a847.52 847.52 0 00-17-80c-1.95-8.54-5.78-16.04-11.5-22.5a31.31 31.31 0 00-14 1 1464.668 1464.668 0 00-179 85 2665.158 2665.158 0 00-83 54.5c-20.84-16-41.84-31.83-63-47.5-19.14-11.83-39.48-21.16-61-28a85.838 85.838 0 00-25-2 70.004 70.004 0 00-17.5 11.5c-21.42 29.84-38.42 62.17-51 97a1154.16 1154.16 0 00-47.5 162 18075.045 18075.045 0 00-329.5 349 4117.883 4117.883 0 00-122 143c-70.73 91.81-121.07 194.14-151 307-38.04 146.6-49.37 295.27-34 446a791.608 791.608 0 0025 122c6.9 25.13 17.57 48.46 32 70 13.81 15.82 29.98 28.65 48.5 38.5 49.29 23.49 100.62 41.16 154 53 116.76 25.81 234.76 34.14 354 25 50.61-6.65 98.94-20.98 145-43 60.94-29.95 117.27-66.61 169-110 19.84-17.67 39.5-35.5 59-53.5-13.28 103.01 18.38 189.18 95 258.5 78.82 62.69 166.15 78.03 262 46 60.44-24.29 107.11-64.45 140-120.5v348a991.26 991.26 0 00-58.5 60c-92.69 105.14-177.86 215.8-255.5 332h-116c-40.45-42.63-83.78-81.8-130-117.5-18-10.5-34.33-23.17-49-38-93-74.33-186-148.67-279-223a2811.153 2811.153 0 00-82-59c-7.85-6.43-15.52-13.1-23-20-5.78-2.06-11.45-4.39-17-7 9.02-2.89 8.35-4.22-2-4a63.09 63.09 0 01-12-4c-132.68-77.23-275.01-127.23-427-150a399.466 399.466 0 00-46-2c-21.62 2.95-32.62 15.29-33 37a919.318 919.318 0 0027 150.5c-.19 1.08-.52 2.08-1 3-73.6 94.78-136.44 196.78-188.5 306-20.34 42.33-39.84 85-58.5 128h-137c-57.99-131.03-126.49-255.7-205.5-374-64.73-93.76-141.23-177.26-229.5-250.5a535.726 535.726 0 00-28-27 2489.658 2489.658 0 01-93-75 5508.496 5508.496 0 01-102-73 3100.803 3100.803 0 00-203-120.5l2-3a67.79 67.79 0 00-14-3c-1.529.03-2.696.7-3.5 2-2.333 3.33-4.667 6.67-7 10a515.799 515.799 0 00-37.5 91.5c1 .33 2 .67 3 1-3.033 3.02-5.199 6.52-6.5 10.5a1589.204 1589.204 0 00-20 231c-5.437 195.84 13.73 389.18 57.5 580h-242c41.093-132.89 63.926-268.89 68.5-408 3.781-77.06.115-153.72-11-230-4.647-32.94-14.313-64.27-29-94-12.742-18.27-30.408-26.6-53-25a204.69 204.69 0 00-43.5 7.5 790.404 790.404 0 00-130 54c-74.84 40.4-144.84 87.74-210 142a3035.035 3035.035 0 00-175 159.5v-347c35.49-68.77 43.657-140.77 24.5-216-6.015-20.02-14.182-39.02-24.5-57v-120c93.537-23.33 174.037-69 241.5-137 65.8-66.55 112.467-144.88 140-235 14.2-47.53 24.867-95.86 32-145 3.582-25.76 6.749-51.42 9.5-77 62.986 87.86 133.986 169.36 213 244.5 39.333 33.67 78.667 67.33 118 101 105.094 76.29 215.094 145.62 330 208 104.86 55.43 214.86 97.43 330 126 28.15 6.03 56.48 11.03 85 15 7.65.78 15.32 1.28 23 1.5 9.82.99 19.82 1.33 30 1v-3c.14-3.94 1.64-7.27 4.5-10 15.29-18.3 30.96-36.3 47-54 9.17-22.84 15.17-46.51 18-71a1585.54 1585.54 0 008-197c-1.26-6.18-1.43-12.34-.5-18.5-4.44-39.22-9.28-78.38-14.5-117.5-13.27-51.7-25.27-103.7-36-156-.89-3.87-.39-7.54 1.5-11-1.58-.57-3.08-.91-4.5-1-18.34-71.36-36.67-142.7-55-214a2604.972 2604.972 0 00-62-204c-25.15-71.3-58.48-138.3-100-201-59.74-85.74-134.24-155.58-223.5-209.5a1937.753 1937.753 0 00-81-45.5c36.58-115.852 10.58-215.019-78-297.5-62.158-50.843-132.825-68.176-212-52-87.589 20.454-149.923 71.62-187 153.5a794.133 794.133 0 00-150-8.5c-27.717.675-54.717 5.342-81 14-15.994 5.994-26.494 17.161-31.5 33.5a429.968 429.968 0 00-13 74c-8.191 105.14-6.691 210.14 4.5 315h3c.333.67.667 1.33 1 2a67.567 67.567 0 00-18 6.5 547.19 547.19 0 00-73 50c-79.301 67.8-152.3 141.63-219 221.5v-932c59.25-28.947 116.25-61.447 171-97.5C368.887 405.71 506.22 226.21 582.5-.5z" opacity="1"/>
  <path fill="#2b0000" d="M824.5-.5h888a6418.064 6418.064 0 0056.5 130 198.94 198.94 0 016.5 18c.03.997-.47 1.664-1.5 2a188.748 188.748 0 00-35.5 10.5c-83.91 36.283-164.58 78.283-242 126-73.99 48.623-141.49 105.456-202.5 170.5a668.537 668.537 0 00-60 78c-11.06 17.445-19.39 36.112-25 56-2.2 11.387.13 21.72 7 31a134.409 134.409 0 0020.5 18.5c43.7 30.53 89.7 57.53 138 81 137.35 70.892 282.68 116.892 436 138 54.35 7.223 108.68 7.223 163 0 86.07-13.118 159.9-49.951 221.5-110.5 53.92-59.074 81.09-128.908 81.5-209.5-3.73-86.904-34.23-162.738-91.5-227.5-47.08-49.463-101.91-87.963-164.5-115.5-60.71-27.904-124.38-44.571-191-50-14.19-.354-28.19-.52-42-.5 19.78-48.9 40.12-97.567 61-146h380c46.2 117.398 100.7 230.731 163.5 340a900.425 900.425 0 0043.5 67 2390.185 2390.185 0 01-102.5 264 13.007 13.007 0 00-.5 5c-.99 4.805-1.32 9.805-1 15h-4c-1.79-.285-3.45.048-5 1-21.55 44.778-45.38 88.112-71.5 130-38.2 59.549-84.36 112.382-138.5 158.5-24.13 18.908-49.8 35.57-77 50-25.97 14.31-53.3 25.31-82 33-67.07 12.81-132.74 7.48-197-16a817.93 817.93 0 01-120-56c-82.12-47.811-160.12-101.478-234-161-190.37-157.957-346.54-343.791-468.5-557.5-48.693-86.061-85.193-177.06-109.5-273z" opacity="1"/>
  <path fill="#f8f8f8" d="M1712.5-.5h136a6981.526 6981.526 0 00-61 146 37.58 37.58 0 01-9 4c-1.24-.442-2.24-1.109-3-2a198.94 198.94 0 00-6.5-18 6418.064 6418.064 0 01-56.5-130z" opacity=".994"/>
  <path fill="#5e520b" d="M2228.5-.5h942c8.7 12.73 15.87 26.396 21.5 41a966.63 966.63 0 0123.5 77 1737.542 1737.542 0 0125.5 164c10.27 113.821 8.6 227.488-5 341-3.92 30.334-7.75 60.668-11.5 91a2085.46 2085.46 0 01-24.5 133 175.85 175.85 0 01-14 41c-5.28 7.642-12.62 11.308-22 11a367.857 367.857 0 01-73.5-18.5c-45.1-17.383-90.1-35.05-135-53a403.61 403.61 0 01-34-17c-108.41-46.218-207.74-106.551-298-181a3726.577 3726.577 0 01-71.5-72.5 621.49 621.49 0 00-20-27c-34.7-39.178-66.87-80.178-96.5-123a900.425 900.425 0 01-43.5-67c-62.8-109.269-117.3-222.602-163.5-340z" opacity="1"/>
  <path fill="#f8f8f8" d="M3170.5-.5h114a6923.24 6923.24 0 00-59.5 96c-4 7.006-7.17 14.339-9.5 22a966.63 966.63 0 00-23.5-77c-5.63-14.604-12.8-28.27-21.5-41z" opacity=".991"/>
  <path fill="#f0ba57" d="M3284.5-.5h315v637c-121.08 44.681-246.08 70.347-375 77 3.75-30.332 7.58-60.666 11.5-91 13.6-113.512 15.27-227.179 5-341a1737.542 1737.542 0 00-25.5-164c2.33-7.661 5.5-14.994 9.5-22a6923.24 6923.24 0 0159.5-96z" opacity="1"/>
  <path fill="#772030" d="M1787.5 145.5c13.81-.02 27.81.146 42 .5 66.62 5.429 130.29 22.096 191 50 62.59 27.537 117.42 66.037 164.5 115.5 57.27 64.762 87.77 140.596 91.5 227.5-.41 80.592-27.58 150.426-81.5 209.5-61.6 60.549-135.43 97.382-221.5 110.5-54.32 7.223-108.65 7.223-163 0-153.32-21.108-298.65-67.108-436-138-48.3-23.47-94.3-50.47-138-81a134.409 134.409 0 01-20.5-18.5c-6.87-9.28-9.2-19.613-7-31 5.61-19.888 13.94-38.555 25-56a668.537 668.537 0 0160-78c61.01-65.044 128.51-121.877 202.5-170.5 77.42-47.717 158.09-89.717 242-126a188.748 188.748 0 0135.5-10.5c1.03-.336 1.53-1.003 1.5-2 .76.891 1.76 1.558 3 2a37.58 37.58 0 009-4z" opacity="1"/>
  <path fill="#a39191" d="M2332.5 675.5v16c-1.91.284-3.58-.049-5-1h4c-.32-5.195.01-10.195 1-15z" opacity="1"/>
  <path fill="#2b0000" d="M1053.5 1055.5c-28.25 76.75-80.249 130.25-156 160.5-94.543 29.62-179.543 12.62-255-51-72.217-69.66-99.383-154.16-81.5-253.5a358.978 358.978 0 0115.5-52c37.077-81.88 99.411-133.046 187-153.5 79.175-16.176 149.842 1.157 212 52 88.58 82.481 114.58 181.648 78 297.5z" opacity="1"/>
  <path fill="#772030" d="M576.5 859.5a358.978 358.978 0 00-15.5 52c-17.883 99.34 9.283 183.84 81.5 253.5 75.457 63.62 160.457 80.62 255 51 75.751-30.25 127.75-83.75 156-160.5 27.35 14.51 54.35 29.68 81 45.5 89.26 53.92 163.76 123.76 223.5 209.5 41.52 62.7 74.85 129.7 100 201a2604.972 2604.972 0 0162 204c18.33 71.3 36.66 142.64 55 214 1.42.09 2.92.43 4.5 1-1.89 3.46-2.39 7.13-1.5 11 10.73 52.3 22.73 104.3 36 156 5.22 39.12 10.06 78.28 14.5 117.5-.93 6.16-.76 12.32.5 18.5a1585.54 1585.54 0 01-8 197c-2.83 24.49-8.83 48.16-18 71-16.04 17.7-31.71 35.7-47 54-2.86 2.73-4.36 6.06-4.5 10-9.74 1.94-19.74 2.6-30 2-7.68-.22-15.35-.72-23-1.5-28.52-3.97-56.85-8.97-85-15-115.14-28.57-225.14-70.57-330-126-114.906-62.38-224.906-131.71-330-208-39.333-33.67-78.667-67.33-118-101-79.014-75.14-150.014-156.64-213-244.5 14-170.17-4.167-336.84-54.5-500a520.52 520.52 0 00-27-62c-4.507-8.17-10.674-14.67-18.5-19.5-2.982-.5-5.982-.66-9-.5.111-.62.444-1.12 1-1.5-1.973-.5-3.973-.66-6-.5h-3c-11.191-104.86-12.691-209.86-4.5-315a429.968 429.968 0 0113-74c5.006-16.339 15.506-27.506 31.5-33.5 26.283-8.658 53.283-13.325 81-14a794.133 794.133 0 01150 8.5z" opacity="1"/>
  <path fill="#5e520b" d="M3324.5 1527.5c-60.28-111.56-133.11-214.23-218.5-308-28.19-29.69-57.69-57.69-88.5-84 27.27-18.64 54.93-36.81 83-54.5a1464.668 1464.668 0 01179-85 31.31 31.31 0 0114-1c5.72 6.46 9.55 13.96 11.5 22.5a847.52 847.52 0 0117 80c11.46 78.94 15.46 158.27 12 238-3.01 64.02-6.18 128.02-9.5 192z" opacity="1"/>
  <path fill="#2b0000" d="M3017.5 1135.5c30.81 26.31 60.31 54.31 88.5 84 85.39 93.77 158.22 196.44 218.5 308a2017.104 2017.104 0 01115.5 269c47.97-79.77 101.13-155.77 159.5-228v898c-36.45 6.64-73.12 11.81-110 15.5 46.5 23.67 83.17 57.83 110 102.5v275c-32.89 56.05-79.56 96.21-140 120.5-95.85 32.03-183.18 16.69-262-46-76.62-69.32-108.28-155.49-95-258.5 14.24-83.72 57.57-147.22 130-190.5 8.88-4.61 17.88-8.94 27-13-39.7-8.07-79.37-16.41-119-25-157.45-36.5-275.62-125-354.5-265.5-30.96-58.23-51.96-119.89-63-185-22.06-124.6-27.39-249.94-16-376 8.3-98.42 23.47-195.75 45.5-292a1154.16 1154.16 0 0147.5-162c12.58-34.83 29.58-67.16 51-97 5.27-4.72 11.1-8.55 17.5-11.5 8.42-.56 16.75.11 25 2 21.52 6.84 41.86 16.17 61 28 21.16 15.67 42.16 31.5 63 47.5z" opacity="1"/>
  <path fill="#9f7d80" d="M308.5 1287.5c2.027-.16 4.027 0 6 .5-.556.38-.889.88-1 1.5h-4c-.333-.67-.667-1.33-1-2z" opacity="1"/>
  <path fill="#2b0000" d="M309.5 1289.5h4c3.018-.16 6.018 0 9 .5 7.826 4.83 13.993 11.33 18.5 19.5a520.52 520.52 0 0127 62c50.333 163.16 68.5 329.83 54.5 500a2499.698 2499.698 0 01-9.5 77c-7.133 49.14-17.8 97.47-32 145-27.533 90.12-74.2 168.45-140 235-67.463 68-147.963 113.67-241.5 137v-898c66.7-79.87 139.699-153.7 219-221.5a547.19 547.19 0 0173-50 67.567 67.567 0 0118-6.5z" opacity="1"/>
  <path fill="#5e520b" d="M2752.5 1328.5a2096.894 2096.894 0 00-45.5 292c-11.39 126.06-6.06 251.4 16 376 11.04 65.11 32.04 126.77 63 185 78.88 140.5 197.05 229 354.5 265.5 39.63 8.59 79.3 16.93 119 25-9.12 4.06-18.12 8.39-27 13-72.43 43.28-115.76 106.78-130 190.5-19.5 18-39.16 35.83-59 53.5-51.73 43.39-108.06 80.05-169 110-46.06 22.02-94.39 36.35-145 43-119.24 9.14-237.24.81-354-25-53.38-11.84-104.71-29.51-154-53-18.52-9.85-34.69-22.68-48.5-38.5-14.43-21.54-25.1-44.87-32-70a791.608 791.608 0 01-25-122c-15.37-150.73-4.04-299.4 34-446 29.93-112.86 80.27-215.19 151-307 39.54-48.55 80.21-96.22 122-143a18075.045 18075.045 0 01329.5-349z" opacity="1"/>
  <path fill="#f7f6f6" d="M3599.5 2466.5v118c-26.83-44.67-63.5-78.83-110-102.5 36.88-3.69 73.55-8.86 110-15.5z" opacity=".989"/>
  <path fill="#af7d86" d="M1551.5 2565.5v3c-10.18.33-20.18-.01-30-1 10.26.6 20.26-.06 30-2z" opacity="1"/>
  <path fill="#2b0202" d="M-.5 2585.5c10.318 17.98 18.485 36.98 24.5 57 19.157 75.23 10.99 147.23-24.5 216v-273z" opacity="1"/>
  <path fill="#2b0000" d="M1711.5 3599.5h-887c-43.77-190.82-62.937-384.16-57.5-580 1.043-77.5 7.71-154.5 20-231 1.301-3.98 3.467-7.48 6.5-10.5-1-.33-2-.67-3-1a515.799 515.799 0 0137.5-91.5c2.333-3.33 4.667-6.67 7-10 .804-1.3 1.971-1.97 3.5-2a67.79 67.79 0 0114 3l-2 3a3100.803 3100.803 0 01203 120.5c33.72 24.72 67.72 49.05 102 73 30.42 25.76 61.42 50.76 93 75 9.64 8.64 18.97 17.64 28 27 88.27 73.24 164.77 156.74 229.5 250.5 79.01 118.3 147.51 242.97 205.5 374z" opacity="1"/>
  <path fill="#f1bb57" d="M582.5 3599.5H-.5v-394a3035.035 3035.035 0 01175-159.5c65.16-54.26 135.16-101.6 210-142a790.404 790.404 0 01130-54 204.69 204.69 0 0143.5-7.5c22.592-1.6 40.258 6.73 53 25 14.687 29.73 24.353 61.06 29 94 11.115 76.28 14.781 152.94 11 230-4.574 139.11-27.407 275.11-68.5 408z" opacity="1"/>
  <path fill="#5e520b" d="M3169.5 3599.5h-941a3761.027 3761.027 0 01-69.5-201 3519.468 3519.468 0 01-60-226c-.73-2.69-1.9-5.02-3.5-7 .48-.92.81-1.92 1-3a919.318 919.318 0 01-27-150.5c.38-21.71 11.38-34.05 33-37 15.36-.22 30.69.45 46 2 151.99 22.77 294.32 72.77 427 150a63.09 63.09 0 0012 4c10.35-.22 11.02 1.11 2 4 5.55 2.61 11.22 4.94 17 7 7.48 6.9 15.15 13.57 23 20 27.69 19.18 55.02 38.84 82 59 93 74.33 186 148.67 279 223 14.67 14.83 31 27.5 49 38 46.22 35.7 89.55 74.87 130 117.5z" opacity="1"/>
  <path fill="#2b0000" d="M2095.5 3165.5c1.6 1.98 2.77 4.31 3.5 7 17.55 76.2 37.55 151.53 60 226a3761.027 3761.027 0 0069.5 201h-380c18.66-43 38.16-85.67 58.5-128 52.06-109.22 114.9-211.22 188.5-306z" opacity="1"/>
  <path fill="#f1bb57" d="M3599.5 3207.5v392h-314c77.64-116.2 162.81-226.86 255.5-332a991.26 991.26 0 0158.5-60z" opacity="1"/>
</svg>
