<svg version="1.0" xmlns="http://www.w3.org/2000/svg" preserveAspectRatio="xMidYMid meet" viewBox="0 0 583 428">
  <path d="M235.7 231.7c-4.1-4.4-6.3-10.2-3.3-9.1.9.3 1.6 1.2 1.6 2s1.8 3.3 4 5.5c2.2 2.3 4 4.5 4 5 0 1.9-2.7.5-6.3-3.4zm-21.9-13.3c-.5-.5-1.5-.7-4.7-1.3-1-.2 4.4-5.1 5.6-5.1 1.6 0 1.7 1.2.1 2.8-.8.8-.8 1.5.2 2.7 1.1 1.4.1 2.2-1.2.9zm26.4-12.7c-1.8-1.8-3.2-3.8-3.2-4.4 0-1.5 2.8-4.3 4.3-4.3.6 0 .1.8-1.1 1.8l-2.1 1.7 4.1 4.3c2.6 2.6 3.6 4.2 2.7 4.2-.8 0-2.9-1.5-4.7-3.3zm-25.5-3.4c-.9-.9-.9-4.3.1-4.3 1.1 0 3.2 3.7 2.5 4.4-.8.8-1.8.8-2.6-.1zm70.7-10.3c-6.3-.9-13.1-4.7-13.9-7.7-.3-1.3-1.2-2.3-2-2.3s-1.5-.7-1.5-1.5c0-1.9 1.6-2 2.7-.1 1.5 2.6 14 8.6 20.8 10.1 3.7.7 7 1.6 7.3 1.9.7.8-7 .5-13.4-.4zm-44.2-77.9c-.8-.5-1.2-1.6-1-2.4.2-1.1.7-1.4 1.6-.8.8.5 1.2 1.6 1 2.4-.2 1.1-.7 1.4-1.6.8z" fill="#e6e6e6"/>
  <g fill="#333">
    <path d="M99.5 368c-.4-.6-1.1-.8-1.6-.5-.5.4-1.5-.6-2.1-2.2-.7-1.5-2.1-3.6-3-4.5-2.4-2.4-2.3-3.4.9-16.5 2.5-10.5 2.6-11.6 1.4-17.7-1.7-8.5-1-11.2 3.4-13.3 3-1.4 4.6-1.5 11.8-.6 9.8 1.4 9.8 1.4 32.5-6.6 18.6-6.5 38.2-11.1 47.8-11.1 3.3 0 9.4.7 13.7 1.5 21.2 4.1 34.6.7 54.2-13.4 10.5-7.6 18-11.8 30.6-17 10.1-4.2 19.5-14 18.2-19-.8-3.3 10.8-14.4 17.7-16.8 4.6-1.6 5-2.1 5.8-6 1.3-5.9.4-9.1-2.8-10.8-1.5-.8-3.4-2.4-4.2-3.7-5.2-7.9-17.4-16.3-21.3-14.7-5.3 2.1-17.8.5-24-3.2-5.1-3.1-3.8-3.3 2-.4 2.6 1.4 5.5 2.5 6.3 2.5.8 0-.9-1.2-3.9-2.8-3-1.5-6.7-3.6-8.4-4.7-3-1.9-3-1.9-1.5 0 .9 1.1 1.7 4.3 1.9 7.1.4 6.6-2 11.2-9.4 18.3-4.7 4.5-6.1 5.2-8.5 4.9-2.1-.3-3 0-3 .9 0 3.3-11.2-1.2-17.9-7.2-2.3-2.1-4.1-3.3-4.2-2.9 0 1.4-3.8-7.9-3.8-9.6 0-.8.9.3 2 2.5 3.7 7.5 13.1 15.3 20.4 17 2.6.6 1.6-.8-7.2-9.8-5.7-5.7-10.3-10.7-10.3-11.1 0-.3.7-.6 1.6-.6.8 0 1.3.4 1 .9-.8 1.3 2.3 4.8 10.8 12.5 5.6 5 7.4 6.2 6.7 4.4-1.1-3-8.1-10.1-13.4-13.6-2-1.4-3.5-2.7-3.3-3 .8-.7 10.3 6.6 12.5 9.6 2.8 3.7 2.6 1.3-.2-2.9-1.3-2-4.7-4.7-8-6.4-3.4-1.8-5.7-3.7-5.7-4.7 0-1.7 8.5-9.8 10.3-9.8.6 0 .7 1.6.3 4-.8 5 .7 8 3.8 8 3.2 0 4.8-2.2 5.3-7.3.4-3.2 0-5.5-1.6-8.5-1.6-3.2-1.9-4.7-1.1-6.6 1.3-3.6 2-3.2 1.3.8-.3 2.3 0 4.2 1.1 5.7 3 4.4 1.4 14.9-2.6 17-1.6.9-2.6.7-4.7-.9-2.3-1.7-2.6-2.6-2.3-6.8l.2-4.9-4.7 4.8c-5.3 5.4-5.6 4.7 3.4 9.7 4.1 2.4 5.7 4 7.5 8 2.3 5 2.3 5 7.1 5 6.4 0 8.4-1.2 9.7-5.9 1.5-5.6 0-8.6-5.5-11.3-2.9-1.4-4.5-2.8-4.5-4.1 0-2.5 6.2-5 10.4-4.1 3 .6 3 .6 1.5-1.2-4-4.6-7.9-16.5-7.9-23.8 0-1.7.2-1.8 1-.6.5.8 1 2.9 1 4.6 0 4.9 2.9 13.4 4.8 14.1.9.3 3.2 1.7 5 3 4.8 3.6 13.2 7.2 20.4 8.7 3.4.8 7.1 1.7 8 2.1 1.6.6 1.7-.6 1.3-15.4-.2-8.9-.9-17.8-1.4-19.9-1.5-5.5-6.5-12.9-10-14.6-4.6-2.4-5.3-1.9-2.6 2 2.6 3.8 3.1 5.4 1.8 5.4-.9 0-5.3-6.5-5.3-7.8 0-.4-1.1-2.3-2.5-4.2-1.3-1.8-3.6-6.5-5.1-10.4-5.3-14.1-21.6-35.9-28.3-38.1-2.5-.8-7.2 1.4-28.1 12.9-8.4 4.5-12.8 7.9-22 16.6-8.6 8.1-11.2 11.1-10.4 12 .6.6 3.8 1.5 7 2 5.8.8 6 .7 11.4-2.9 9.5-6.5 26.8-16.1 29.9-16.7 3.4-.7 3.7-1.4 1.9-3.2-.8-.8-.8-1.2-.1-1.2.6 0 2.9 3.1 5.2 6.9 2.3 3.8 5.1 7.7 6.2 8.7 3.3 3 4.6 6.4 5.4 13.8.4 3.7 1.5 9.3 2.6 12.4 2 5.9 2.4 8.7.9 6-.9-1.5-1.3-1.5-4.1-.1-3.9 1.9-9.8 1.2-13.8-1.6-4.1-3-5.8-2.7-10.2 1.9-2.2 2.2-4.7 4-5.8 4-1.2 0-2.1.9-2.5 2.5-.4 1.6-1.3 2.5-2.5 2.5-2 0-3.1 1.9-3.1 5.4 0 1.3-1.2 3.6-2.7 5.2-3 3.3-4.6 8.9-3.2 11.5.5 1 .9 2.5.9 3.5 0 1.9 6.7 12.4 7.9 12.4.4 0 1.7-.9 3-2.1 1.2-1.2 2.4-1.9 2.6-1.8.1.2 1.7 3.5 3.4 7.2 4.7 10.5 9.3 16.2 15.7 19.3 4.6 2.2 6.3 2.6 10.5 2.1 2.8-.4 6.6-1.6 8.6-2.8 3.8-2.4 9.3-9.3 9.3-11.7 0-.8-1 0-2.3 1.9-1.2 1.9-4.2 4.4-6.7 5.7-3.8 2-5.6 2.3-11.3 1.9-8.2-.5-14.7-4.1-19-10.5-4-5.9-2.9-6.2 1.3-.4 9.3 12.6 29.3 13.3 35.7 1.2 1.3-2.4 2.3-5.8 2.3-7.7 0-2.2.4-3.2 1.1-2.7 1.5.9.2 11-2.1 15.4-2.3 4.5-4.4 6.4-10 8.9-12.7 5.8-25.3-1.1-33-18.1-1.9-4.3-3.8-7.7-4.2-7.8-.3 0 .1 2.6.9 5.8.8 3.1 1.6 6.7 1.6 7.9.1 1.2.4 2 .6 1.7.2-.2 2.6 2.9 5.2 7 5.4 8.1 9 10.6 15.9 10.6 2.2 0 5.5-.7 7.1-1.6 4.2-2.1 4.9-1 .8 1.5-3.9 2.4-9.8 3.5-13.7 2.6-5.8-1.2-16.3-13.1-14.9-16.8.3-.8-.1-1.4-.9-1.4-.9 0-1.2.8-.8 2.4.4 1.4-.1 3.4-1.1 4.9-2.4 3.7-5.9 3-19.6-4.1-1.1-.5-2.8-3.2-3.7-5.8-.9-2.6-2.9-6.2-4.4-7.8-1.8-1.9-2.8-4.1-2.8-6.1v-3.1l-2.5 3.7c-1.4 2-3.7 5.3-5.1 7.4-2 2.9-2.5 4.7-2.2 8 .4 4.9-.4 5.3-2.9 1.5-1.1-1.7-1.8-4.9-2-9.4-.1-4.3-.8-7.7-1.7-9.1-.9-1.2-1.6-3.8-1.6-5.8 0-3 .9-4.4 7-10.1 3.8-3.7 8.3-7.2 10-7.9 1.6-.7 3-1.8 3-2.4 0-1.9-3-6.9-5-8.3-1-.7-2.1-2.7-2.5-4.3-1-4.5-2.7-3.6-2.3 1.3.3 3.7.7 4.4 4 6.2 2.1 1.1 3.8 2.4 3.8 2.8 0 2-7.8-3.8-10.2-7.6-3.9-6.2-4.3-10.2-1.9-18.9 1.2-4.1 2.1-8.7 2.1-10.2 0-5 3.7-10.1 14.9-20.2 7.5-6.9 13.5-11.4 18.8-14.2 4.3-2.2 11.4-6.1 15.8-8.6s9.4-4.9 11.2-5.2c6-1.1 12.1 4.2 22 19.1 7.1 10.6 8.9 14 11.4 21.2 2.2 6.5 5.2 10.6 8.1 11 1.2.2 2.6.7 3.2 1.2 1.8 1.4 12.8-.5 19-3.4 4.8-2.3 6.7-2.7 11.1-2.2 6.5.7 9.5 2.2 16.8 8.6 3.1 2.8 8.8 6.8 12.6 9 9.9 5.9 20 17 25.6 28.5 4.7 9.6 5.5 13.5 7.1 35.7.3 5.3.9 10.1 1.3 10.8.9 1.4 4.4.2 32.3-10.8 11.5-4.5 23.7-8.9 27.3-9.8 6-1.5 6.8-1.5 10.9.1 5.2 2 10 7.1 12.9 13.5 1.6 3.7 2.1 7.9 2.8 26 .4 11.9 1.3 24.8 1.8 28.6.6 3.9 1.7 13.1 2.6 20.5 1.9 16.1 4.5 24 11.9 36.3 3.1 5.1 6.3 11.3 7.2 13.9 2 5.9 5.4 9.4 11.5 11.5 5.1 1.8 6.2 3.9 3.5 6.3-2 1.5-18.5.5-24.3-1.6-2.6-1-5.9-3.4-8.5-6.3-2.8-3-6.7-5.9-11-7.9-4.7-2.3-7.3-4.3-8.8-6.7-2.2-3.5-2.2-3.6-.5-10.5 2.2-9.1 1.4-16.2-3.5-30.8-2.6-7.7-5.6-14-9.4-19.8-4.2-6.5-5.9-10.3-7.1-15.9-.9-4.1-1.4-8.3-1-9.5.7-2.1.6-2.1-2.3-.6-1.7.9-6.3 4.2-10.4 7.4-14.2 11.2-27.4 18.9-41.9 24.4-8 3-9.2 3.2-22.9 3.2l-14.5.1-7 5.1c-18 13-31.6 19.5-51.6 25-7.4 2-18.6 5.2-24.9 7.1-15.2 4.6-24.1 5.1-46.5 2.8-15.7-1.7-20.3-1.8-43.8-.8-32.9 1.4-39.9 3.2-48 12.2-3.3 3.6-10.3 15.9-9.5 16.6 1.4 1.2 5.1 2.5 7 2.5 1.3 0 2.9.4 3.7.9 2.5 1.6-1.1 5.8-5.6 6.5-7.5 1.3-17.2 1.6-17.8.6zm4.7-3.8c-.2-1.8.1-3.2.7-3.2s1.1 1.1 1.1 2.5.8 2.9 2 3.5c1.7.9 2 .8 2-1 0-1.1.5-2 1-2 .6 0 1 .7 1 1.5s.7 1.5 1.5 1.5c1.8 0 1.9-1.2.3-2.8-.6-.6-.9-1.4-.6-1.8.4-.3 1.6.4 2.8 1.6 2.3 2.3 5.4 2 6.4-.5.4-1-.1-1.5-1.5-1.5-1.1 0-3.6-.7-5.6-1.5-2.9-1.2-3.8-1.3-4.5-.3-1.5 2.2.2-3.2 3.2-9.7 5.1-11.5 11.9-17 25.6-20.6 11.7-3.1 56.5-3.9 77.8-1.4 9 1.1 17.7 1.5 22 1.2 7.4-.6 48.9-11.6 60.9-16.2 10.1-3.7 15.9-6.9 28.7-15.4 6.3-4.2 14.6-9.2 18.5-11.1 8-4 11.5-8.3 11.5-14 0-4.8-2.6-8.1-9.8-12.1-3.1-1.8-8.5-5.2-11.9-7.5-8.1-5.6-12.1-6.8-20.2-6.1-5.4.4-6.8.9-8.1 2.8-3.8 5.9-9.8 12.3-13 13.9-1.9 1-9.2 4.5-16.1 7.9-7 3.3-16.2 8.7-20.5 11.9-9.2 6.7-29.4 18.5-29.4 17.1 0-.5 1.2-1.4 2.6-2 3.8-1.4 2.4-2.1-1.7-.8-5.1 1.6-19.6 1.3-26.9-.5-8.6-2.1-15.8-2-28 .4-12.4 2.3-23.6 5.7-40 11.8-13.1 4.9-14.9 5.1-30.7 4.1-5-.3-6.5 0-8.2 1.5-2.5 2.3-2.6 3.9-.7 13 1 4.6 1.2 7.5.5 8.7-.9 1.8-4.9 17.5-4.9 19.5 0 .5.6 1.9 1.4 3 1.5 1.9 1.5 1.9 3-.1 1.2-1.6 1.5-1.7 1.6-.4 0 .8-.5 2-1.1 2.6-1.2 1.2-.6 4.3.9 4.3.5 0 1.4-1 2.1-2.2 1.1-2.3 1.1-2.2.6.3-.5 3 .2 4.1 2.5 3.7 1-.3 1.4-1.3 1.2-3.6zm404.6-1.4c2-2 1.4-2.7-2.8-3.8-6.2-1.7-10.5-6.1-12.9-13.3-1.2-3.4-4.4-9.5-7.1-13.6-2.7-4.1-6.1-10.8-7.4-15-3.3-10.1-7.5-42.9-8.6-68.6-.5-10.9-1.2-21.3-1.6-23-1-4.7-3.9-9.7-7.7-13.4-6.8-6.5-13.9-5.5-43.6 6.3-27.7 11-32 12.4-33.1 10.7-.4-.8-1.1-5.8-1.5-11-1.7-25.4-3.3-31.9-10.2-42.2-5.4-8-9.5-12.6-10-11.2-.3.7-3.4 5.7-7 11-9.1 13.5-21.3 32.7-21 33 .2.1 2.8-.7 5.8-1.9 6.5-2.6 21-3.1 27.4-.9 6.3 2.2 12.5 5.2 12.5 6.2 0 .5-1 .3-2.3-.5-10.3-6.8-30.7-7.8-39.3-2-3.9 2.7-4.8 3-3.8 1.2.4-.8.3-1-.2-.5s-1 1.3-1 1.8c-.1.5-.2 1-.4 1.2-.1.1-.3 2.9-.4 6.2-.1 3.3-.6 6.7-.9 7.5-.6 1.3.5 1.8 6.5 2.7 7.6 1.1 18.8 4.8 18.8 6.3 0 .4-2.6-.3-5.7-1.6-3.2-1.2-9.6-2.7-14.2-3.3-7.5-1-8.8-.9-12.7.8-7.4 3.3-17.4 12.7-16 15 .3.5 2.5.2 4.8-.6 8.3-2.8 16.2-.2 34.2 11.4 9.4 6.1 12.5 9 13.2 12.8.8 4.4-2.1 11-6.4 14.5-3.3 2.7-3.4 3-1.4 3 1.2 0 2.2-.6 2.2-1.2 0-.7 3.4-3.9 7.6-7.1 14.4-11.2 20.5-23 20.6-40.2 0-5.7.3-8.3.8-7 1.3 3.1 1.1 12.4-.5 19.7-1.8 8.8-8.4 21.3-14.4 27.6-5.1 5.3-9.8 8.8-10.7 7.9-.3-.3.7-1.2 2.4-2.1 3.1-1.6 12.5-11.4 14.4-15 .6-1.1-1.8.6-5.3 3.9-3.6 3.3-8.2 7.4-10.4 9.2-3.4 2.7-3.8 3.4-2.5 4.3 1.8 1.3 10.1.7 18.5-1.5 8.3-2 30.6-13.4 38.9-19.7 8.6-6.6 16.4-12.1 25.2-17.6 7.9-4.9 9.8-6.4 13.7-11 1.5-1.9 2.7-2.7 2.7-1.9 0 1.9-9.5 10.7-14.7 13.6-2.3 1.4-4.4 3.4-4.7 4.6-1.3 5.3 2.5 17.5 8.2 25.7 4.3 6.3 6.6 11.2 10 21.5 3.9 11.6 4.9 21.8 2.9 29.5-2.1 8.1-.4 11.2 8.1 15.4 3.5 1.7 8.7 5.4 11.5 8.1 7.9 7.5 8.3 7.7 17.1 8.4 12.9 1 13.1 1 14.4-.3zM248.3 236.3c-.7-.2-1.9-.2-2.5 0-.7.3-.2.5 1.2.5s1.9-.2 1.3-.5zm-7.4-2.6c-1.8-1.2-5.1-4.7-7.1-7.6-4.6-6.5-5.1-5.7-.7 1 1.7 2.6 4.5 5.7 6.2 6.8 4.4 2.8 5.8 2.6 1.6-.2zm-16.1-7c.9-1 .3-1.6-2.6-2.6-4.1-1.5-9.6-5.1-8.8-5.8.2-.2 2.1.7 4.3 2 4 2.6 9.3 4.3 9.3 3 0-1.5-1.5-2.8-6.6-5.9l-5.1-3.1-3.2 2.9c-4.1 3.7-3.6 5.3 3.1 8.3 6.1 2.8 8.1 3 9.6 1.2zm-34.2-21.3c2.7-3.8 6-8.5 7.2-10.5 2.1-3.4 9-8.9 11.2-8.9 2 0 .9-3.9-1.6-5.9-5.8-4.5-12.6-2.1-23.1 8.2-5.5 5.3-6.2 7.5-4.1 12.2 1.2 2.7 2.8 3.4 2.8 1.2 0-3.2 13.5-15.7 17-15.7.7 0-.9 1.5-3.6 3.3-6.4 4.3-13.1 13.1-13.9 18.3-.4 2.3-.1 5.9.6 8.5l1.3 4.4.6-4.1c.4-2.6 2.4-6.5 5.6-11zm19.9 12.2c4.1-3.2 5.9-7.5 5.1-12.1-.8-4-2.6-3.8-2.6.2 0 1.6-1.2 3.7-3.5 5.7-2.3 2.2-3.5 4.1-3.5 5.9 0 3.3.5 3.3 4.5.3zm16.1-1.5c-.8-1.2-9.6-7.4-9.6-6.7 0 .2-.3 1.1-.6 2-.7 1.9 8.5 8.1 9.9 6.7.5-.5.6-1.4.3-2zm-18.4-4.8c3-3.1 6.7-14.3 4.7-14.3-.5 0-.9-1.7-.9-3.7 0-2.5-.3-3.3-.9-2.4-.5.7-.6 2.1-.4 3.1.8 3.1-3.2 10.7-6.6 12.5-1.7.8-3.1 1.8-3.1 2.2 0 1.8 3.5 8.3 3.8 7.1.3-.7 1.8-2.7 3.4-4.5zm53.7 2.8l2.4-1.9h-5.1c-2.9 0-5.2.2-5.2.3 0 3.7 4.1 4.5 7.9 1.6zm-35.9-2.8c-.4-1.6-1.1-4.1-1.5-5.7-.5-2.2-.9-2.6-1.8-1.7-1.8 1.8-3.1 1.3-5.2-1.8-1.1-1.7-2.1-2.8-2.4-2.6-.2.3.1 1 .7 1.7.5.7 1.2 2.4 1.4 3.8.2 1.9 7.6 9 9.3 9 .2 0 0-1.2-.5-2.7zm109.5-7c2.8-4.7 9.8-15.9 15.7-25l10.8-16.4-2.8-2.5c-1.5-1.3-5.7-4.2-9.4-6.4-3.6-2.2-9.1-6.2-12.1-9-6.2-5.7-12.6-8.9-17.5-9-1.9 0-6.5 1.4-10.3 3.1-3.9 1.6-8.8 3.1-10.9 3.2-3.9.1-5 1-3 2.2 2.2 1.4 6.1 8.7 7.5 14.2 1 3.8 1.5 10.6 1.5 19.9v14.2l5.4 3c3 1.8 8.2 6.2 11.7 10.1 3.5 3.9 6.8 7.1 7.4 7.1.5-.1 3.3-3.9 6-8.7zm-130-5.8c2.5-5.2 4.5-9.9 4.5-10.5 0-.5-1.9.1-4.2 1.3-5.6 3-9.4 9.7-8.4 15 1.1 6 3.2 4.5 8.1-5.8zm67.1 2.9c1.9-4.7 1.7-9.8-.5-12.5-1.5-1.8-2.8-2.3-6-2.3-3.9.1-7.1 1.7-7.1 3.5 0 .5 1.5 1.5 3.3 2.3 5 2 8 6.3 7.3 10.4-.6 4.1 1 3.3 3-1.4zm-66.1 1.2c1.9-2.8 3.7-8.6 2.7-8.6-.4 0-1.6 2.1-2.7 4.7s-2.1 5.1-2.3 5.5c-.8 1.8.9.6 2.3-1.6zm85.5-11.2c-7.2-1.8-11.1-3.5-16.1-6.9-8.6-5.9-10-5.8-2 .2 7.4 5.4 16.8 9.2 23.1 9.2 4-.1 3.4-.3-5-2.5zm-78.8-14.5c3.6-3.6 4.7-8 4.8-19.6 0-5.3.4-8.3 1.1-8.3.7 0 .9 1.6.4 4.9-.6 4.6-.5 4.9 1.8 5.5 3.5.8 9.1-1.8 11.7-5.5 1.9-2.5 2.7-2.9 4.9-2.4 1.4.4 3.3 1.3 4.1 2 .8.7 3.3 1.8 5.5 2.5 3.4 1 4.7.9 7.7-.3l3.7-1.5-1.5-4.8c-1.7-5.7-1.9-6-6.4-7.2-2.6-.8-2.9-1-1.2-1.1 1.3-.1 3.3.4 4.4 1 1.9 1 2 .9 1.5-1.2-.4-1.3-.7-4.1-.7-6.1 0-2.9-.8-4.7-3.3-7.5-1.8-2.1-4.8-6.1-6.5-8.9l-3.3-5.2-4.7 1.7c-4.7 1.7-24.7 13.2-30.4 17.4l-3 2.2 15.9 1.2c14.1 1 27.4 3.6 26 5-.3.2-3.1-.3-6.3-1.2-3.1-.9-11.1-2-17.8-2.5-21.8-1.7-24.3-2-28.6-3.5-2.4-.8-4.5-1.3-4.7-1.1-.2.2-.8 3.4-1.4 7.1-.5 3.6-1.4 7.5-1.9 8.5-1.5 2.8-1.2 12.3.5 14.6 1.4 1.8 1.4 1.8.8-.3-.6-2.6 2.1-4.3 4-2.4.6.6 2.6 1.1 4.4 1.1 3.1 0 3.3-.2 2.3-2-.6-1.1-2.2-2.3-3.6-2.6-1.9-.5-2.4-1.1-2.1-2.6.3-1.1-.4-3.5-1.5-5.4-1.1-1.9-1.8-3.7-1.5-4 .3-.3 1.3.8 2.2 2.5.8 1.7 2.4 3.1 3.3 3.1 1 0 2.7.7 3.8 1.5 2.4 1.8 5.4 1.9 5.4.2 0-.7-1.1-2.9-2.5-4.9-2.9-4.2-3.1-6.6-1-9.4 1.7-2.3 1.9-1.4.4 2-1 2.2-.8 3.1 1.5 6.6 1.5 2.3 2.6 4.9 2.4 5.8-.4 2.2-5.1 2.7-6.8.8-2-2.5-4.3-2-3.4.7.3 1.2 1.1 2.4 1.6 2.5 1.6.7 3.8 3.3 3.8 4.7 0 .9-1.5 1.5-4.2 1.7l-4.3.3 3.6 4c2 2.2 4 5.4 4.6 7 .8 2.5 1.6 3.1 4.6 3.3 1.9.2 4.1 1 4.7 1.8 1.6 1.9 1.7 1.9 5.2-1.7zm9.1-13.8c.5-2.2 0-3.1-2-3.1-.7 0-1.3 1.1-1.3 2.5 0 3 2.5 3.4 3.3.6z"/>
    <path d="M98 332.3c0-1.2.5-2.5 1-2.8 1.3-.8 1.3 1.5 0 3.5-.8 1.2-1 1.1-1-.7z"/>
  </g>
</svg>
