<svg version="1.1" xmlns="http://www.w3.org/2000/svg" viewBox="0 0 1252 1199">
  <path d="M208.813 103.75c.8.16 1.61.31 2.44.48 8.42 1.84 14.93 5.54 21.56 10.96.6.48 1.21.97 1.83 1.46 1.79 1.45 3.57 2.9 5.36 4.35.94.76 1.88 1.52 2.85 2.3 2.74 2.21 5.45 4.45 8.15 6.7.51.43 1.03.86 1.56 1.3 17.28 14.44 33.2 30.31 49.07 46.27 2.45 2.46 4.9 4.91 7.36 7.37 6.19 6.2 12.38 12.41 18.57 18.62l20.16 20.22c2.43 2.43 4.86 4.87 7.28 7.3 2.7 2.71 5.4 5.41 8.1 8.12.78.79 1.57 1.58 2.38 2.4 4.13 4.13 8.34 8.09 12.78 11.89 2.7 2.34 5.2 4.87 7.71 7.42a2072.264 2072.264 0 018.18 8.27c7.22 7.37 7.22 7.37 14.85 14.32 6.42 5.48 12.22 11.67 18.15 17.68 7.21 7.36 7.21 7.36 14.82 14.29 6.64 5.66 12.62 12.07 18.76 18.28 5.58 5.64 11.12 11.22 17.16 16.37 5.67 5.07 10.92 10.64 16.26 16.06 5.44 5.5 10.86 10.93 16.76 15.95 5.46 4.89 10.52 10.25 15.67 15.47 7 7.14 7 7.14 14.39 13.87 6.43 5.49 12.24 11.69 18.18 17.71 5.44 5.5 10.86 10.93 16.76 15.95 5.46 4.89 10.52 10.25 15.67 15.47 5.4 5.47 10.8 10.87 16.65 15.86 2.89 2.52 5.58 5.24 8.27 7.98.53.54 1.07 1.08 1.62 1.64 1.3 1.3 2.59 2.61 3.88 3.92 5.73-2.56 10.24-6.99 15-11 .55-.46 1.1-.93 1.67-1.4 7.6-6.41 15.01-13 22.29-19.78 2.77-2.58 5.58-5.11 8.41-7.63 3.4-3.04 6.65-6.18 9.84-9.44 1.65-1.62 3.35-3.1 5.12-4.59 6.56-5.7 12.56-11.99 18.67-18.16 2.45-2.48 4.91-4.96 7.37-7.44.55-.55 1.09-1.11 1.66-1.68 2.87-2.89 5.81-5.65 8.9-8.31 4.12-3.57 7.96-7.35 11.79-11.23.7-.7 1.4-1.41 2.12-2.14 2.22-2.23 4.44-4.46 6.66-6.7 2.92-2.95 5.85-5.9 8.78-8.84.65-.67 1.31-1.33 1.98-2.02 3.15-3.16 6.34-6.21 9.72-9.13 4.18-3.61 8.07-7.46 11.95-11.38.73-.73 1.45-1.46 2.2-2.21 2.29-2.31 4.58-4.61 6.87-6.92 3.02-3.04 6.04-6.09 9.06-9.13 1.02-1.02 1.02-1.02 2.05-2.07 3.84-3.86 7.79-7.49 11.91-11.04 3.37-3 6.53-6.21 9.7-9.42.7-.7 1.4-1.41 2.12-2.14 2.22-2.23 4.44-4.46 6.66-6.7 2.92-2.95 5.85-5.9 8.78-8.84.65-.67 1.31-1.33 1.98-2.02 3.79-3.8 7.69-7.37 11.75-10.88 3.38-2.99 6.53-6.2 9.71-9.42.7-.7 1.4-1.41 2.12-2.14 2.22-2.23 4.44-4.46 6.66-6.7 2.92-2.95 5.85-5.9 8.78-8.84.65-.67 1.31-1.33 1.98-2.02 3.79-3.8 7.69-7.37 11.75-10.88 3.38-2.99 6.53-6.2 9.71-9.42.7-.7 1.4-1.41 2.12-2.14 2.22-2.23 4.44-4.46 6.66-6.7 2.92-2.95 5.85-5.9 8.78-8.84.65-.67 1.31-1.33 1.98-2.02 3.15-3.16 6.34-6.21 9.72-9.13 4.18-3.61 8.07-7.46 11.95-11.38.73-.73 1.45-1.46 2.2-2.21 2.29-2.31 4.58-4.61 6.87-6.92 3.02-3.04 6.04-6.09 9.06-9.13 1.02-1.02 1.02-1.02 2.05-2.07 3.88-3.9 7.88-7.59 12.05-11.18 2.53-2.23 4.9-4.61 7.26-7.02.98-.98 1.95-1.97 2.92-2.95l4.44-4.53c8.82-9 18.04-17.34 28.59-24.31.63-.41 1.26-.83 1.91-1.26 20.12-12.98 41.11-17.17 64.38-12.32 17 3.8 37.03 11.97 47.12 26.89 1.85 2.91 3.54 5.87 5.22 8.88.5.87 1 1.74 1.52 2.63 6.46 11.88 8.66 24.84 8.67 38.18l.03 2.87c.02 9.3-1.55 16.89-5.85 25.13-.35.69-.71 1.38-1.07 2.09-9.14 17.45-22.27 31.41-36.16 45.16-1.91 1.9-3.81 3.8-5.72 5.7-5.36 5.35-10.72 10.61-16.49 15.52-4.34 3.86-8.35 8.08-12.43 12.22-5.36 5.43-10.7 10.76-16.5 15.72-4.01 3.57-7.73 7.45-11.5 11.28-8.96 9.1-8.96 9.1-13.47 12.97-4.94 4.24-9.46 8.89-14.03 13.53-9.49 9.63-9.49 9.63-13.97 13.47-5.12 4.39-9.8 9.23-14.53 14.03-5.35 5.42-10.68 10.73-16.47 15.69-4.2 3.74-8.09 7.8-12.03 11.81-9.49 9.63-9.49 9.63-13.97 13.47-5.12 4.39-9.8 9.23-14.53 14.03-5.35 5.42-10.68 10.73-16.47 15.69-4.2 3.74-8.09 7.8-12.03 11.81-5.17 5.25-10.35 10.37-15.95 15.17-4.2 3.75-8.1 7.82-12.05 11.83-5.17 5.25-10.35 10.37-15.95 15.17-4.2 3.75-8.1 7.82-12.05 11.83-5.17 5.25-10.35 10.37-15.95 15.17-4.2 3.75-8.1 7.82-12.05 11.83-5.17 5.25-10.35 10.37-15.95 15.17-4.2 3.75-8.1 7.82-12.05 11.83-9.49 9.63-9.49 9.63-13.98 13.48-5.06 4.33-9.67 9.1-14.33 13.83l-5.31 5.37c-.77.78-1.54 1.56-2.33 2.37-2.05 1.95-2.05 1.95-5.05 3.95.59 3.43 1.73 5.13 4.13 7.61.64.67 1.28 1.35 1.95 2.04l2.04 2.1c1.32 1.37 2.63 2.74 3.95 4.11.65.68 1.31 1.37 1.99 2.07 1.89 2.02 3.71 4.08 5.52 6.18 3.15 3.64 6.48 7.03 9.92 10.39 4.12 4.07 8.07 8.19 11.83 12.61 4.43 5.03 9.24 9.68 14.33 14.04 5.95 5.17 11.39 10.86 16.92 16.47 4.36 4.4 8.78 8.64 13.49 12.67 4.18 3.7 8.02 7.76 11.93 11.75 3.23 3.27 6.48 6.43 9.97 9.43 5.17 4.46 9.89 9.34 14.67 14.21 3.36 3.4 6.74 6.7 10.36 9.82 5.16 4.44 9.87 9.33 14.64 14.18 3.36 3.4 6.74 6.7 10.36 9.82 5.16 4.44 9.87 9.33 14.64 14.18 3.36 3.4 6.74 6.7 10.36 9.82 5.16 4.44 9.87 9.33 14.64 14.18 3.99 4.04 8.07 7.86 12.38 11.56 4.19 3.72 8.05 7.8 11.98 11.8 3.23 3.27 6.48 6.43 9.97 9.43 5.17 4.46 9.89 9.34 14.67 14.21 3.36 3.4 6.74 6.7 10.36 9.82 5.16 4.44 9.87 9.33 14.64 14.18 3.36 3.4 6.74 6.7 10.36 9.82 5.16 4.44 9.87 9.33 14.64 14.18 3.99 4.04 8.07 7.86 12.38 11.56 4.19 3.72 8.05 7.8 11.98 11.8 3.22 3.26 6.46 6.41 9.93 9.4 5.42 4.66 10.35 9.8 15.36 14.89 4.15 4.19 8.38 8.2 12.85 12.05 20.75 18.07 39.16 41.89 42.11 70 1.06 21.73-8.79 44.75-22.62 61.02-15.35 15.17-37.93 21.5-59.01 21.73-2.21-.04-4.41-.08-6.62-.13l-2.68.02c-19.35-.62-38.41-14.75-52.32-27.02-.82-.72-1.63-1.44-2.48-2.18-1.61-1.43-3.21-2.88-4.8-4.34-1.78-1.62-3.57-3.24-5.36-4.85-7.96-7.22-15.56-14.74-23.11-22.38-8.38-8.62-8.38-8.62-17.24-16.73-6.84-5.83-13-12.45-19.31-18.84-7.64-7.82-7.64-7.82-15.7-15.18-6.85-5.82-12.99-12.44-19.3-18.82-8.55-8.65-8.55-8.65-17.58-16.78-5.88-5.26-11.31-11.04-16.85-16.65-7.43-7.59-7.43-7.59-15.27-14.75-6.64-5.65-12.61-12.06-18.73-18.25-7.43-7.59-7.43-7.59-15.27-14.75-6.64-5.65-12.61-12.06-18.73-18.25-7.43-7.59-7.43-7.59-15.27-14.75-6.64-5.65-12.61-12.06-18.73-18.25-7.41-7.58-7.41-7.58-15.24-14.72-6.85-5.83-13.01-12.46-19.33-18.85-8.55-8.65-8.55-8.65-17.58-16.78-5.88-5.26-11.31-11.04-16.85-16.65-7.41-7.58-7.41-7.58-15.24-14.72-6.85-5.83-13.01-12.46-19.33-18.85-6.39-6.45-12.73-12.85-19.7-18.68-1.34-1.14-2.67-2.29-4-3.44-.99-.84-1.98-1.69-3-2.56-.96.83-1.91 1.67-2.9 2.53-11.73 10.22-11.73 10.22-17.54 14.84-6.21 5.03-11.96 10.55-17.75 16.04-3.06 2.89-6.17 5.73-9.31 8.53a189.8 189.8 0 00-10.32 9.94c-1.79 1.73-3.59 3.32-5.49 4.92-6.92 6.02-13.25 12.69-19.69 19.2-2.65 2.67-5.29 5.34-7.94 8-.88.9-.88.9-1.79 1.81-2.98 3.01-6.03 5.88-9.23 8.65-4.11 3.55-7.94 7.33-11.76 11.2-.7.7-1.41 1.41-2.13 2.14-2.22 2.23-4.44 4.46-6.65 6.7-2.93 2.95-5.85 5.9-8.78 8.84l-1.99 2.02c-3.78 3.8-7.69 7.37-11.74 10.88-3.38 2.99-6.54 6.2-9.71 9.42-.7.7-1.41 1.41-2.13 2.14-2.22 2.23-4.44 4.46-6.65 6.7-2.93 2.95-5.85 5.9-8.78 8.84l-1.99 2.02c-3.15 3.16-6.34 6.21-9.72 9.13-4.18 3.61-8.07 7.46-11.95 11.38-.72.73-1.45 1.46-2.2 2.21-2.29 2.31-4.58 4.61-6.86 6.92-3.02 3.04-6.04 6.09-9.07 9.13-.67.68-1.35 1.37-2.05 2.07-3.83 3.86-7.79 7.49-11.9 11.04-3.38 3-6.53 6.21-9.7 9.42-.7.7-1.41 1.41-2.13 2.14-2.22 2.23-4.44 4.46-6.65 6.7-2.93 2.95-5.85 5.9-8.78 8.84l-1.99 2.02c-3.15 3.16-6.34 6.21-9.72 9.13-4.18 3.61-8.07 7.46-11.95 11.38-.72.73-1.45 1.46-2.2 2.21-2.29 2.31-4.58 4.61-6.86 6.92-3.02 3.04-6.04 6.09-9.07 9.13-.67.68-1.35 1.37-2.05 2.07-3.84 3.86-7.79 7.5-11.92 11.06-3.29 2.92-6.37 6.04-9.46 9.18-.68.68-1.36 1.37-2.06 2.07-2.15 2.16-4.3 4.32-6.44 6.49-2.83 2.86-5.67 5.71-8.5 8.56-.64.64-1.27 1.29-1.92 1.95-3.79 3.81-7.71 7.39-11.77 10.9-2.27 1.99-4.38 4.1-6.48 6.26-22.12 22.65-48.4 44.51-81.64 45.83-24.18-.91-45.25-9.87-62.69-26.5-.71-.61-1.43-1.23-2.16-1.86-12.24-11.02-16.34-28.24-17.72-44.08-.09-2.7-.15-5.36-.12-8.06 0-.69.01-1.38.02-2.1.32-12.18 4.24-20.89 10.98-30.9.41-.62.83-1.24 1.25-1.88 12.27-18.18 27.33-33.88 42.81-49.31 2.14-2.13 4.27-4.27 6.4-6.41l4.14-4.14c.63-.62 1.25-1.25 1.89-1.9 3.78-3.75 7.67-7.29 11.7-10.77 2.25-1.97 4.37-4.05 6.46-6.18 1.2-1.21 1.2-1.21 2.41-2.44.81-.81 1.61-1.63 2.44-2.47 8.95-9.1 8.95-9.1 13.47-12.97 4.94-4.24 9.46-8.89 14.03-13.53 5.18-5.26 10.37-10.39 15.97-15.2 4.03-3.58 7.75-7.46 11.53-11.3 5.01-5.09 10.04-10.03 15.46-14.68 4.02-3.59 7.76-7.48 11.54-11.32 5.01-5.09 10.04-10.03 15.46-14.68 4.02-3.59 7.76-7.48 11.54-11.32 5.01-5.09 10.04-10.03 15.46-14.68 4.02-3.59 7.76-7.48 11.54-11.32 5.01-5.09 10.04-10.03 15.46-14.68 4.02-3.59 7.76-7.48 11.54-11.32 5.01-5.09 10.04-10.03 15.46-14.68 4.02-3.59 7.76-7.48 11.54-11.32 5.01-5.09 10.04-10.03 15.46-14.68 4.02-3.59 7.76-7.48 11.54-11.32 5.01-5.09 10.04-10.03 15.46-14.68 4.02-3.59 7.76-7.48 11.54-11.32 5.02-5.1 10.06-10.05 15.49-14.71 3.84-3.42 7.4-7.12 11.01-10.79 8.42-8.57 8.42-8.57 12.96-12.46 4.81-4.13 9.22-8.65 13.66-13.17 4.96-5.03 9.84-9.98 15.38-14.37-1.66-4.15-4.66-7.07-7.69-10.25-1.09-1.16-2.18-2.33-3.27-3.49-.53-.56-1.05-1.12-1.6-1.7-1.8-1.94-3.53-3.93-5.25-5.93-2.66-3.08-5.47-5.93-8.37-8.78-1.67-1.69-3.2-3.43-4.73-5.25-4.84-5.56-10.07-10.73-15.29-15.93-1.74-1.73-3.47-3.47-5.2-5.2-5.11-5.12-10.24-10.14-15.75-14.83-4.39-3.87-8.4-8.15-12.5-12.32a207.77 207.77 0 00-12.37-11.56c-4.19-3.72-8.06-7.8-11.98-11.8-3.23-3.27-6.49-6.43-9.97-9.43-5.18-4.46-9.9-9.34-14.68-14.21-3.36-3.4-6.73-6.7-10.35-9.82-5.17-4.44-9.88-9.33-14.65-14.18-3.36-3.4-6.73-6.7-10.35-9.82-5.17-4.44-9.88-9.33-14.65-14.18-3.36-3.4-6.73-6.7-10.35-9.82-5.17-4.44-9.88-9.33-14.65-14.18a207.77 207.77 0 00-12.37-11.56c-4.19-3.72-8.06-7.8-11.98-11.8-3.22-3.26-6.47-6.41-9.94-9.4-5.41-4.66-10.35-9.8-15.35-14.89-4.11-4.15-8.29-8.09-12.72-11.9-4.42-3.93-8.49-8.23-12.64-12.45-4-4.05-8.09-7.88-12.4-11.59-3.96-3.51-7.61-7.35-11.31-11.12-3.1-3.14-6.23-6.17-9.58-9.05-5.18-4.47-9.91-9.36-14.71-14.24a207.77 207.77 0 00-12.37-11.56c-4.19-3.72-8.06-7.8-11.98-11.8-3.93-3.97-7.95-7.76-12.2-11.39-6.73-5.85-12.3-12.58-17.8-19.57-.69-.84-1.37-1.69-2.07-2.55-11.74-15.15-20.86-36.34-18.46-55.74 2.96-20.56 9.72-37.01 24.53-51.71.62-.67 1.24-1.34 1.88-2.02 18.61-18.48 51.71-21.03 75.93-16.23zm848.19 15.25v1h6v-1h-6zm-878 1v1l22 1v-1c-4.63-1.18-9.08-1.11-13.81-1.06-.79 0-1.58.01-2.39.01-1.94.01-3.87.03-5.8.05zm873 0l4 1zm-879 1v1h5v-1h-5zm875 0l4 1zm-847 1l4 1zm834 4l-1 2 4-2h-3zm-881 2c-5.65 3.54-10.47 7.11-15 12l1 2c.4-.44.8-.87 1.21-1.32 4.49-4.7 9.27-8.26 14.79-11.68l-2-1zm947 4c4.49 5.53 4.49 5.53 10 10-1.59-4.14-4.61-7.23-8-10h-2zm-77 1l-1 2 3-1-2-1zm-3 2c-10.08 8.34-19.43 17.24-28.59 26.57-4.36 4.43-8.76 8.69-13.48 12.73-3.47 3.05-6.69 6.35-9.93 9.64-.68.68-1.36 1.37-2.06 2.07-1.65 1.66-3.3 3.32-4.94 4.99 2.99.32 2.99.32 4.77-1.45l1.96-2.02c.72-.74 1.44-1.47 2.18-2.23.75-.78 1.5-1.56 2.28-2.36 4.86-5.01 9.75-9.86 15.05-14.41 2.2-1.91 4.23-3.94 6.26-6.03 3.29-3.4 6.77-6.5 10.34-9.6 3.63-3.2 7.14-6.52 10.66-9.84.72-.68 1.45-1.37 2.2-2.07 1.77-1.66 3.53-3.33 5.3-4.99l-2-1zm-790 2l1 2 2-1-3-1zm4 3c3.72 4.56 7.55 8.48 12.03 12.29 2.8 2.43 5.38 5.05 7.97 7.71l2-1c-9.6-9.94-9.6-9.94-20-19h-2zm877 3l1 3v-3h-1zm-976 1v3zm978 2l1 3v-3h-1zm-981 2l1 2zm983 1l1 3v-3h-1zm-984 1v3zm986 2l1 2zm-988 1l1 2zm989 1l1 2zm-990 1l1 2zm991 1l1 2zm-992 1l1 2zm993 1l1 2zm-994 1l1 3zm995 1l1 3zm-996 2l1 2zm997 1l1 3zm-998 3l1 2zm999 0l1 19h1c1.68-6.72 1.56-12.58-1-19h-1zm-1000 4l1 2zm-1 8v6h1v-6h-1zm1 7l1 2zm1000 1l1 3zm-999 2l1 2zm998 2l1 3zm-996 3l1 2zm995 0l1 3zm-1 3l1 3zm-991 3l1 2zm990 0c-1.51 2.77-3.01 5.54-4.5 8.31-.43.79-.86 1.57-1.3 2.38l-1.23 2.3c-.57 1.04-.57 1.04-1.15 2.11-1.02 2.01-1.02 2.01-.82 4.9 3.8-5.47 7.35-10.87 10-17l-1-3zm-989 2l1 2zm1 2l1 2zm814 3l-9 9c3.07.33 3.07.33 5.04-1.75l2.15-2.25 2.16-2.25c.55-.58 1.09-1.16 1.65-1.75l-2-1zm-811 2l1 2zm2 3l1 2zm2 3l1 2zm2 3l1 3v-3h-1zm968 2v3zm-965 2l2 4v-3l-2-1zm962 2v3zm-957 4c1.65 4.29 4.89 7.14 8.1 10.3a1520.93 1520.93 0 007.52 7.45c1.29 1.28 2.59 2.56 3.88 3.85 3.16 3.14 6.33 6.27 9.5 9.4l2-1c-4.25-4.28-8.51-8.55-12.76-12.82-1.45-1.45-2.9-2.91-4.35-4.36-2.07-2.09-4.15-4.17-6.23-6.26-.65-.65-1.3-1.31-1.98-1.99a336.2 336.2 0 00-4.68-4.57h-1zm949 5l-8 8c2.96.32 2.96.32 4.6-1.31.53-.56 1.05-1.12 1.59-1.69.52-.56 1.05-1.11 1.6-1.69.4-.43.8-.86 1.21-1.31l-1-2zm-910 34c4.11 4.92 8.4 9.53 13 14l2-1c-2.12-2.17-4.25-4.34-6.38-6.5-.6-.62-1.2-1.24-1.83-1.88-.58-.59-1.16-1.17-1.75-1.78-.54-.54-1.07-1.09-1.62-1.65-1.37-1.4-1.37-1.4-3.42-1.19zm30 29l5 6 2-1c-1.63-1.71-3.3-3.37-5-5h-2zm26 25l1 2 2-1-3-1zm823 626c5.24 6.3 10.7 12.31 17.06 17.5a49.01 49.01 0 015.94 5.94c5.58 6.57 11.87 12.51 18 18.56 0-4.14-1.57-5.06-4.38-8.06-.47-.51-.95-1.02-1.44-1.54-4.71-4.99-9.54-9.85-14.37-14.71-.75-.75-1.49-1.51-2.27-2.28-8.42-8.84-8.42-8.84-18.54-15.41zm42 42l2 4v-3l-2-1zm5 6l1 2zm-983 5l1 2zm-1 2l1 2zm-1 2l1 2zm-1 2l1 2zm993 1l1 2zm-994 2l1 2zm-1 3l1 2zm997 0l1 2zm-998 3l1 2zm999 0l1 2zm1 3v8h1v-8h-1zm-1001 3l1 3zm844 0l5 6 2-1c-1.63-1.71-3.3-3.37-5-5h-2zm-844 12v6h1v-6h-1zm145 1l-9 9c3.07.33 3.07.33 5.04-1.75l2.15-2.25 2.16-2.25c.55-.58 1.09-1.15 1.65-1.75l-2-1zm855 1l1 2zm-999 5l1 3zm864 1c7.46 9.17 16 17.62 25.03 25.25 3.36 2.99 6.45 6.27 9.57 9.52 2.36 2.19 4.51 3.81 7.4 5.23l2-1c-.61-.55-1.21-1.09-1.84-1.65-1.78-1.6-3.56-3.21-5.33-4.81-1.72-1.54-3.44-3.08-5.16-4.61-5.38-4.8-10.66-9.69-15.92-14.62-.68-.63-1.35-1.26-2.04-1.91-3.09-2.89-6.13-5.81-9.07-8.86-2.27-2.77-2.27-2.77-4.64-2.54zm134 0l1 4zm-1 5l1 4zm-1 4l1 3zm-992 1l1 2zm991 2l1 3zm-989 2l1 2zm988 1l1 2zm-874 1c-1.72 1.96-3.39 3.96-5 6 3.36-1.39 4.98-2.98 7-6h-2zm873 1l-4 5 1 2 4-4-1-3zm-984 2l1 2zm978 6c-.99 1.49-.99 1.49-2 3l3-1-1-2zm-6 5c-1.27 1.1-2.55 2.21-3.81 3.31-1.07.92-1.07.92-2.15 1.87a99.638 99.638 0 00-5.04 4.82c5.4-1.52 8.98-5.27 13-9l-2-1zm-63 14l4 1zm5 1v1h6v-1h-6zm10 1v1h18v-1h-18zm-866 1l4 1zm-14 1v1h12v-1h-12z" fill="#F8F8F8"/>
  <path d="M208.813 103.75c.8.16 1.61.31 2.44.48 8.42 1.84 14.93 5.54 21.56 10.96.6.48 1.21.97 1.83 1.46 1.79 1.45 3.57 2.9 5.36 4.35.94.76 1.88 1.52 2.85 2.3 2.74 2.21 5.45 4.45 8.15 6.7.51.43 1.03.86 1.56 1.3 17.28 14.44 33.2 30.31 49.07 46.27 2.45 2.46 4.9 4.91 7.36 7.37 6.19 6.2 12.38 12.41 18.57 18.62l20.16 20.22c2.43 2.43 4.86 4.87 7.28 7.3 2.7 2.71 5.4 5.41 8.1 8.12.78.79 1.57 1.58 2.38 2.4 4.13 4.13 8.34 8.09 12.78 11.89 2.7 2.34 5.2 4.87 7.71 7.42a2072.264 2072.264 0 018.18 8.27c7.22 7.37 7.22 7.37 14.85 14.32 6.42 5.48 12.22 11.67 18.15 17.68 7.21 7.36 7.21 7.36 14.82 14.29 6.64 5.66 12.62 12.07 18.76 18.28 5.58 5.64 11.12 11.22 17.16 16.37 5.67 5.07 10.92 10.64 16.26 16.06 5.44 5.5 10.86 10.93 16.76 15.95 5.46 4.89 10.52 10.25 15.67 15.47 7 7.14 7 7.14 14.39 13.87 6.43 5.49 12.24 11.69 18.18 17.71 5.44 5.5 10.86 10.93 16.76 15.95 5.46 4.89 10.52 10.25 15.67 15.47 5.4 5.47 10.8 10.87 16.65 15.86 2.89 2.52 5.58 5.24 8.27 7.98.53.54 1.07 1.08 1.62 1.64 1.3 1.3 2.59 2.61 3.88 3.92 5.73-2.56 10.24-6.99 15-11 .55-.46 1.1-.93 1.67-1.4 7.6-6.41 15.01-13 22.29-19.78 2.77-2.58 5.58-5.11 8.41-7.63 3.4-3.04 6.65-6.18 9.84-9.44 1.65-1.62 3.35-3.1 5.12-4.59 6.56-5.7 12.56-11.99 18.67-18.16 2.45-2.48 4.91-4.96 7.37-7.44.55-.55 1.09-1.11 1.66-1.68 2.87-2.89 5.81-5.65 8.9-8.31 4.12-3.57 7.96-7.35 11.79-11.23.7-.7 1.4-1.41 2.12-2.14 2.22-2.23 4.44-4.46 6.66-6.7 2.92-2.95 5.85-5.9 8.78-8.84.65-.67 1.31-1.33 1.98-2.02 3.15-3.16 6.34-6.21 9.72-9.13 4.18-3.61 8.07-7.46 11.95-11.38.73-.73 1.45-1.46 2.2-2.21 2.29-2.31 4.58-4.61 6.87-6.92 3.02-3.04 6.04-6.09 9.06-9.13 1.02-1.02 1.02-1.02 2.05-2.07 3.84-3.86 7.79-7.49 11.91-11.04 3.37-3 6.53-6.21 9.7-9.42.7-.7 1.4-1.41 2.12-2.14 2.22-2.23 4.44-4.46 6.66-6.7 2.92-2.95 5.85-5.9 8.78-8.84.65-.67 1.31-1.33 1.98-2.02 3.79-3.8 7.69-7.37 11.75-10.88 3.38-2.99 6.53-6.2 9.71-9.42.7-.7 1.4-1.41 2.12-2.14 2.22-2.23 4.44-4.46 6.66-6.7 2.92-2.95 5.85-5.9 8.78-8.84.65-.67 1.31-1.33 1.98-2.02 3.79-3.8 7.69-7.37 11.75-10.88 3.38-2.99 6.53-6.2 9.71-9.42.7-.7 1.4-1.41 2.12-2.14 2.22-2.23 4.44-4.46 6.66-6.7 2.92-2.95 5.85-5.9 8.78-8.84.65-.67 1.31-1.33 1.98-2.02 3.15-3.16 6.34-6.21 9.72-9.13 4.18-3.61 8.07-7.46 11.95-11.38.73-.73 1.45-1.46 2.2-2.21 2.29-2.31 4.58-4.61 6.87-6.92 3.02-3.04 6.04-6.09 9.06-9.13 1.02-1.02 1.02-1.02 2.05-2.07 3.88-3.9 7.88-7.59 12.05-11.18 2.53-2.23 4.9-4.61 7.26-7.02.98-.98 1.95-1.97 2.92-2.95l4.44-4.53c8.82-9 18.04-17.34 28.59-24.31.63-.41 1.26-.83 1.91-1.26 20.12-12.98 41.11-17.17 64.38-12.32 17 3.8 37.03 11.97 47.12 26.89 1.85 2.91 3.54 5.87 5.22 8.88.5.87 1 1.74 1.52 2.63 6.46 11.88 8.66 24.84 8.67 38.18l.03 2.87c.02 9.3-1.55 16.89-5.85 25.13-.35.69-.71 1.38-1.07 2.09-9.14 17.45-22.27 31.41-36.16 45.16-1.91 1.9-3.81 3.8-5.72 5.7-5.36 5.35-10.72 10.61-16.49 15.52-4.34 3.86-8.35 8.08-12.43 12.22-5.36 5.43-10.7 10.76-16.5 15.72-4.01 3.57-7.73 7.45-11.5 11.28-8.96 9.1-8.96 9.1-13.47 12.97-4.94 4.24-9.46 8.89-14.03 13.53-9.49 9.63-9.49 9.63-13.97 13.47-5.12 4.39-9.8 9.23-14.53 14.03-5.35 5.42-10.68 10.73-16.47 15.69-4.2 3.74-8.09 7.8-12.03 11.81-9.49 9.63-9.49 9.63-13.97 13.47-5.12 4.39-9.8 9.23-14.53 14.03-5.35 5.42-10.68 10.73-16.47 15.69-4.2 3.74-8.09 7.8-12.03 11.81-5.17 5.25-10.35 10.37-15.95 15.17-4.2 3.75-8.1 7.82-12.05 11.83-5.17 5.25-10.35 10.37-15.95 15.17-4.2 3.75-8.1 7.82-12.05 11.83-5.17 5.25-10.35 10.37-15.95 15.17-4.2 3.75-8.1 7.82-12.05 11.83-5.17 5.25-10.35 10.37-15.95 15.17-4.2 3.75-8.1 7.82-12.05 11.83-9.49 9.63-9.49 9.63-13.98 13.48-5.06 4.33-9.67 9.1-14.33 13.83l-5.31 5.37c-.77.78-1.54 1.56-2.33 2.37-2.05 1.95-2.05 1.95-5.05 3.95.59 3.43 1.73 5.13 4.13 7.61.64.67 1.28 1.35 1.95 2.04l2.04 2.1c1.32 1.37 2.63 2.74 3.95 4.11.65.68 1.31 1.37 1.99 2.07 1.89 2.02 3.71 4.08 5.52 6.18 3.15 3.64 6.48 7.03 9.92 10.39 4.12 4.07 8.07 8.19 11.83 12.61 4.43 5.03 9.24 9.68 14.33 14.04 5.95 5.17 11.39 10.86 16.92 16.47 4.36 4.4 8.78 8.64 13.49 12.67 4.18 3.7 8.02 7.76 11.93 11.75 3.23 3.27 6.48 6.43 9.97 9.43 5.17 4.46 9.89 9.34 14.67 14.21 3.36 3.4 6.74 6.7 10.36 9.82 5.16 4.44 9.87 9.33 14.64 14.18 3.36 3.4 6.74 6.7 10.36 9.82 5.16 4.44 9.87 9.33 14.64 14.18 3.36 3.4 6.74 6.7 10.36 9.82 5.16 4.44 9.87 9.33 14.64 14.18 3.99 4.04 8.07 7.86 12.38 11.56 4.19 3.72 8.05 7.8 11.98 11.8 3.23 3.27 6.48 6.43 9.97 9.43 5.17 4.46 9.89 9.34 14.67 14.21 3.36 3.4 6.74 6.7 10.36 9.82 5.16 4.44 9.87 9.33 14.64 14.18 3.36 3.4 6.74 6.7 10.36 9.82 5.16 4.44 9.87 9.33 14.64 14.18 3.99 4.04 8.07 7.86 12.38 11.56 4.19 3.72 8.05 7.8 11.98 11.8 3.22 3.26 6.46 6.41 9.93 9.4 5.42 4.66 10.35 9.8 15.36 14.89 4.15 4.19 8.38 8.2 12.85 12.05 20.75 18.07 39.16 41.89 42.11 70 1.06 21.73-8.79 44.75-22.62 61.02-15.35 15.17-37.93 21.5-59.01 21.73-2.21-.04-4.41-.08-6.62-.13l-2.68.02c-19.35-.62-38.41-14.75-52.32-27.02-.82-.72-1.63-1.44-2.48-2.18-1.61-1.43-3.21-2.88-4.8-4.34-1.78-1.62-3.57-3.24-5.36-4.85-7.96-7.22-15.56-14.74-23.11-22.38-8.38-8.62-8.38-8.62-17.24-16.73-6.84-5.83-13-12.45-19.31-18.84-7.64-7.82-7.64-7.82-15.7-15.18-6.85-5.82-12.99-12.44-19.3-18.82-8.55-8.65-8.55-8.65-17.58-16.78-5.88-5.26-11.31-11.04-16.85-16.65-7.43-7.59-7.43-7.59-15.27-14.75-6.64-5.65-12.61-12.06-18.73-18.25-7.43-7.59-7.43-7.59-15.27-14.75-6.64-5.65-12.61-12.06-18.73-18.25-7.43-7.59-7.43-7.59-15.27-14.75-6.64-5.65-12.61-12.06-18.73-18.25-7.41-7.58-7.41-7.58-15.24-14.72-6.85-5.83-13.01-12.46-19.33-18.85-8.55-8.65-8.55-8.65-17.58-16.78-5.88-5.26-11.31-11.04-16.85-16.65-7.41-7.58-7.41-7.58-15.24-14.72-6.85-5.83-13.01-12.46-19.33-18.85-6.39-6.45-12.73-12.85-19.7-18.68-1.34-1.14-2.67-2.29-4-3.44-.99-.84-1.98-1.69-3-2.56-.96.83-1.91 1.67-2.9 2.53-11.73 10.22-11.73 10.22-17.54 14.84-6.21 5.03-11.96 10.55-17.75 16.04-3.06 2.89-6.17 5.73-9.31 8.53a189.8 189.8 0 00-10.32 9.94c-1.79 1.73-3.59 3.32-5.49 4.92-6.92 6.02-13.25 12.69-19.69 19.2-2.65 2.67-5.29 5.34-7.94 8-.88.9-.88.9-1.79 1.81-2.98 3.01-6.03 5.88-9.23 8.65-4.11 3.55-7.94 7.33-11.76 11.2-.7.7-1.41 1.41-2.13 2.14-2.22 2.23-4.44 4.46-6.65 6.7-2.93 2.95-5.85 5.9-8.78 8.84l-1.99 2.02c-3.78 3.8-7.69 7.37-11.74 10.88-3.38 2.99-6.54 6.2-9.71 9.42-.7.7-1.41 1.41-2.13 2.14-2.22 2.23-4.44 4.46-6.65 6.7-2.93 2.95-5.85 5.9-8.78 8.84l-1.99 2.02c-3.15 3.16-6.34 6.21-9.72 9.13-4.18 3.61-8.07 7.46-11.95 11.38-.72.73-1.45 1.46-2.2 2.21-2.29 2.31-4.58 4.61-6.86 6.92-3.02 3.04-6.04 6.09-9.07 9.13-.67.68-1.35 1.37-2.05 2.07-3.83 3.86-7.79 7.49-11.9 11.04-3.38 3-6.53 6.21-9.7 9.42-.7.7-1.41 1.41-2.13 2.14-2.22 2.23-4.44 4.46-6.65 6.7-2.93 2.95-5.85 5.9-8.78 8.84l-1.99 2.02c-3.15 3.16-6.34 6.21-9.72 9.13-4.18 3.61-8.07 7.46-11.95 11.38-.72.73-1.45 1.46-2.2 2.21-2.29 2.31-4.58 4.61-6.86 6.92-3.02 3.04-6.04 6.09-9.07 9.13-.67.68-1.35 1.37-2.05 2.07-3.84 3.86-7.79 7.5-11.92 11.06-3.29 2.92-6.37 6.04-9.46 9.18-.68.68-1.36 1.37-2.06 2.07-2.15 2.16-4.3 4.32-6.44 6.49-2.83 2.86-5.67 5.71-8.5 8.56-.64.64-1.27 1.29-1.92 1.95-3.79 3.81-7.71 7.39-11.77 10.9-2.27 1.99-4.38 4.1-6.48 6.26-22.12 22.65-48.4 44.51-81.64 45.83-24.18-.91-45.25-9.87-62.69-26.5-.71-.61-1.43-1.23-2.16-1.86-12.24-11.02-16.34-28.24-17.72-44.08-.09-2.7-.15-5.36-.12-8.06 0-.69.01-1.38.02-2.1.32-12.18 4.24-20.89 10.98-30.9.41-.62.83-1.24 1.25-1.88 12.27-18.18 27.33-33.88 42.81-49.31 2.14-2.13 4.27-4.27 6.4-6.41l4.14-4.14c.63-.62 1.25-1.25 1.89-1.9 3.78-3.75 7.67-7.29 11.7-10.77 2.25-1.97 4.37-4.05 6.46-6.18 1.2-1.21 1.2-1.21 2.41-2.44.81-.81 1.61-1.63 2.44-2.47 8.95-9.1 8.95-9.1 13.47-12.97 4.94-4.24 9.46-8.89 14.03-13.53 5.18-5.26 10.37-10.39 15.97-15.2 4.03-3.58 7.75-7.46 11.53-11.3 5.01-5.09 10.04-10.03 15.46-14.68 4.02-3.59 7.76-7.48 11.54-11.32 5.01-5.09 10.04-10.03 15.46-14.68 4.02-3.59 7.76-7.48 11.54-11.32 5.01-5.09 10.04-10.03 15.46-14.68 4.02-3.59 7.76-7.48 11.54-11.32 5.01-5.09 10.04-10.03 15.46-14.68 4.02-3.59 7.76-7.48 11.54-11.32 5.01-5.09 10.04-10.03 15.46-14.68 4.02-3.59 7.76-7.48 11.54-11.32 5.01-5.09 10.04-10.03 15.46-14.68 4.02-3.59 7.76-7.48 11.54-11.32 5.01-5.09 10.04-10.03 15.46-14.68 4.02-3.59 7.76-7.48 11.54-11.32 5.02-5.1 10.06-10.05 15.49-14.71 3.84-3.42 7.4-7.12 11.01-10.79 8.42-8.57 8.42-8.57 12.96-12.46 4.81-4.13 9.22-8.65 13.66-13.17 4.96-5.03 9.84-9.98 15.38-14.37-1.66-4.15-4.66-7.07-7.69-10.25-1.09-1.16-2.18-2.33-3.27-3.49-.53-.56-1.05-1.12-1.6-1.7-1.8-1.94-3.53-3.93-5.25-5.93-2.66-3.08-5.47-5.93-8.37-8.78-1.67-1.69-3.2-3.43-4.73-5.25-4.84-5.56-10.07-10.73-15.29-15.93-1.74-1.73-3.47-3.47-5.2-5.2-5.11-5.12-10.24-10.14-15.75-14.83-4.39-3.87-8.4-8.15-12.5-12.32a207.77 207.77 0 00-12.37-11.56c-4.19-3.72-8.06-7.8-11.98-11.8-3.23-3.27-6.49-6.43-9.97-9.43-5.18-4.46-9.9-9.34-14.68-14.21-3.36-3.4-6.73-6.7-10.35-9.82-5.17-4.44-9.88-9.33-14.65-14.18-3.36-3.4-6.73-6.7-10.35-9.82-5.17-4.44-9.88-9.33-14.65-14.18-3.36-3.4-6.73-6.7-10.35-9.82-5.17-4.44-9.88-9.33-14.65-14.18a207.77 207.77 0 00-12.37-11.56c-4.19-3.72-8.06-7.8-11.98-11.8-3.22-3.26-6.47-6.41-9.94-9.4-5.41-4.66-10.35-9.8-15.35-14.89-4.11-4.15-8.29-8.09-12.72-11.9-4.42-3.93-8.49-8.23-12.64-12.45-4-4.05-8.09-7.88-12.4-11.59-3.96-3.51-7.61-7.35-11.31-11.12-3.1-3.14-6.23-6.17-9.58-9.05-5.18-4.47-9.91-9.36-14.71-14.24a207.77 207.77 0 00-12.37-11.56c-4.19-3.72-8.06-7.8-11.98-11.8-3.93-3.97-7.95-7.76-12.2-11.39-6.73-5.85-12.3-12.58-17.8-19.57-.69-.84-1.37-1.69-2.07-2.55-11.74-15.15-20.86-36.34-18.46-55.74 2.96-20.56 9.72-37.01 24.53-51.71.62-.67 1.24-1.34 1.88-2.02 18.61-18.48 51.71-21.03 75.93-16.23zm837.19 18.25c-.94.33-1.87.66-2.84 1-20.44 7.75-35.68 23.24-50.7 38.53-7.25 7.36-7.25 7.36-11.19 10.7-6.63 5.68-12.64 12.07-18.77 18.27-14.23 14.38-14.23 14.38-20.32 19.54-5.81 5.22-11.19 10.91-16.68 16.46-14.23 14.38-14.23 14.38-18.47 17.97-6.75 5.72-12.81 12.25-19.03 18.53-14.76 14.91-14.76 14.91-20.81 20.03-5.99 5.38-11.53 11.25-17.19 16.97-14.76 14.91-14.76 14.91-20.81 20.03-5.99 5.38-11.53 11.25-17.19 16.97-14.76 14.91-14.76 14.91-20.81 20.03-5.99 5.38-11.53 11.25-17.19 16.97-2.65 2.67-5.29 5.34-7.94 8-.59.6-1.18 1.2-1.79 1.81-2.99 3.01-6.04 5.9-9.26 8.68-3.94 3.41-7.63 7.02-11.29 10.73l-2 2-6.22 6.28-8.22 8.28-1.85 1.88c-3.71 3.73-7.55 7.22-11.52 10.66-2.82 2.48-5.46 5.13-8.1 7.81-.55.55-1.09 1.1-1.66 1.66-1.72 1.74-3.44 3.47-5.15 5.21-12.78 12.93-12.78 12.93-19.02 18.24-4.36 3.87-8.39 8.11-12.48 12.26-5.38 5.46-10.76 10.81-16.58 15.8-4.25 3.77-8.15 7.93-12.1 12-3.72 3.78-7.28 6.96-11.82 9.7-7.48-5.77-14.83-11.57-21.79-17.96-1.98-1.82-3.99-3.6-6.02-5.35-5.23-4.56-10.3-9.29-15.38-14.01l-5.6-5.18c-6.66-6.17-13.22-12.4-19.55-18.9-2.08-2.03-4.16-3.91-6.36-5.8-4.11-3.58-7.97-7.36-11.8-11.24-1.02-1.02-1.02-1.02-2.06-2.07l-8.61-8.67c-2.11-2.13-4.22-4.26-6.33-6.38-.64-.64-1.27-1.29-1.92-1.95-3.08-3.09-6.21-6.07-9.51-8.92-4.44-3.83-8.55-7.94-12.67-12.1l-2.39-2.41c-3.35-3.37-6.7-6.74-10.04-10.11-2.46-2.47-4.92-4.95-7.38-7.42l-2.25-2.28c-3.35-3.36-6.72-6.63-10.32-9.72-4.57-3.95-8.8-8.2-13.05-12.5l-2.54-2.54c-3.54-3.56-7.07-7.12-10.61-10.68-2.59-2.62-5.19-5.23-7.79-7.84-.79-.8-1.57-1.59-2.39-2.41-3.45-3.47-6.93-6.86-10.64-10.06-4.57-3.93-8.79-8.18-13.03-12.47l-2.54-2.54c-3.54-3.56-7.07-7.12-10.61-10.68-2.59-2.62-5.19-5.23-7.79-7.84-.79-.8-1.57-1.59-2.39-2.41-4.09-4.11-8.27-8.02-12.66-11.8-3.61-3.2-6.97-6.65-10.36-10.07-1.15-1.16-1.15-1.16-2.33-2.34-3.25-3.27-6.5-6.55-9.75-9.83-2.39-2.4-4.78-4.8-7.17-7.21l-2.18-2.21c-3.29-3.3-6.6-6.5-10.12-9.53-4.75-4.09-9.13-8.52-13.54-12.98l-2.67-2.67c-3.26-3.28-6.52-6.56-9.77-9.84-3.21-3.23-6.42-6.45-9.62-9.67l-2.52-2.55c-4.22-4.23-8.52-8.28-13.05-12.18-3.22-2.84-6.19-5.91-9.19-8.98-1.37-1.38-2.74-2.77-4.11-4.15-2.11-2.14-4.21-4.29-6.31-6.43-19.15-19.55-41.48-39.96-70.36-40.49-15.82.06-33.57 5.01-45.37 16.06-11.56 13.02-20.41 28.87-19.69 46.81 4.59 25.44 25.47 45.99 42.88 63.44.54.54 1.08 1.09 1.64 1.65 5.45 5.44 10.93 10.8 16.79 15.81 3.26 2.87 6.27 6 9.32 9.1 4.32 4.37 8.64 8.61 13.35 12.57 3.83 3.44 7.39 7.16 11.01 10.82 2.97 2.98 5.92 5.9 9.14 8.61 4.56 3.85 8.67 8.15 12.86 12.39 2.97 2.98 5.92 5.9 9.14 8.61 4.56 3.85 8.67 8.15 12.86 12.39 2.97 2.98 5.92 5.9 9.14 8.61 4.56 3.85 8.67 8.15 12.86 12.39 2.97 2.98 5.92 5.9 9.14 8.61 4.56 3.85 8.67 8.15 12.86 12.38 3.55 3.58 7.17 6.97 11.02 10.22 3.6 3.23 6.94 6.71 10.34 10.14 2.83 2.85 5.65 5.61 8.71 8.2 3.91 3.31 7.47 6.93 11.07 10.56 5.34 5.41 5.34 5.41 11 10.5 4.56 3.85 8.67 8.15 12.86 12.39 2.97 2.98 5.92 5.9 9.14 8.61 4.51 3.81 8.6 8.05 12.72 12.26 2.98 3.02 6 5.91 9.21 8.68 4.96 4.27 9.49 8.93 14.07 13.6 3.89 3.94 7.89 7.66 12.09 11.28 2.94 2.59 5.67 5.38 8.41 8.18 3.41 3.45 6.79 6.86 10.5 10 3.7 3.14 7.09 6.55 10.5 10 3.39 3.43 6.75 6.82 10.43 9.94 4.58 3.87 8.71 8.18 12.93 12.44 3.59 3.62 7.25 7.06 11.15 10.35 3.11 2.77 6 5.76 8.92 8.72 2.61 2.63 5.25 5.15 8.07 7.55 3.37 2.89 6.58 5.94 9.75 9.06.9.89 1.8 1.78 2.73 2.69 5.65 6.17 7.29 10.17 6.93 18.46-1.8 14.28-15.85 25.19-25.96 34.34-7.5 6.8-14.58 14.01-21.7 21.2-14.69 14.84-14.69 14.84-20.77 19.99-4.71 4.18-9.06 8.78-13.48 13.26-5.68 5.75-11.32 11.44-17.47 16.69-4.37 3.89-8.42 8.14-12.53 12.31-5.37 5.44-10.72 10.78-16.53 15.75-3.83 3.4-7.38 7.1-10.97 10.75-4.86 4.94-9.75 9.71-15.01 14.23-3.66 3.25-7.06 6.77-10.49 10.27-4.7 4.78-9.44 9.37-14.52 13.74-3.49 3.09-6.72 6.43-9.98 9.76-3.89 3.96-7.77 7.85-11.97 11.47-4.4 3.79-8.46 7.89-12.53 12.03-4.69 4.77-9.42 9.35-14.49 13.71-3.67 3.26-7.07 6.79-10.51 10.29-4.69 4.77-9.42 9.35-14.49 13.71-3.67 3.26-7.07 6.79-10.51 10.29-4.69 4.77-9.42 9.35-14.49 13.71-3.67 3.26-7.07 6.79-10.51 10.29-4.71 4.79-9.46 9.39-14.55 13.77-3.3 2.93-6.37 6.08-9.45 9.23-4.3 4.35-8.61 8.56-13.28 12.5-3.37 3.04-6.53 6.28-9.72 9.5-4.3 4.34-8.61 8.56-13.28 12.5-4.03 3.63-7.8 7.54-11.59 11.41-3.73 3.77-7.57 7.32-11.58 10.79-16.5 14.49-30.58 29.9-32.36 52.76-.65 16.22 4.18 30.78 15.13 43.09 1.68 1.71 3.41 3.33 5.18 4.95 5 5 5 5 6.56 6.91 3.54 3.03 7.46 4.25 11.81 5.78.84.3 1.68.61 2.54.93 15.21 5.46 31.45 4.41 46.12-2.39 16.72-8.35 31-20.87 43.95-34.2 2.74-2.8 5.5-5.48 8.5-8.01 6.88-5.94 13.13-12.57 19.52-19.02 14.79-14.94 14.79-14.94 20.84-20.06 5.8-5.21 11.18-10.9 16.66-16.44 14.23-14.38 14.23-14.38 18.47-17.97 6.75-5.72 12.81-12.25 19.03-18.53 14.76-14.91 14.76-14.91 20.81-20.03 5.98-5.38 11.53-11.25 17.19-16.97 14.76-14.91 14.76-14.91 20.81-20.03 5.98-5.38 11.53-11.25 17.19-16.97 14.76-14.91 14.76-14.91 20.81-20.03 5.98-5.38 11.53-11.25 17.19-16.97 2.64-2.67 5.29-5.34 7.93-8l1.79-1.81c3-3.01 6.05-5.9 9.26-8.68 3.95-3.41 7.64-7.02 11.3-10.73.66-.66 1.31-1.32 1.99-2 2.08-2.09 4.15-4.19 6.23-6.28 2.73-2.76 5.47-5.52 8.22-8.28l1.85-1.88c3.7-3.72 7.53-7.2 11.49-10.63 2.98-2.63 5.77-5.44 8.56-8.27.59-.6 1.18-1.19 1.79-1.81 1.87-1.87 3.73-3.75 5.59-5.63 13.9-14.05 13.9-14.05 20.05-19.28 4.36-3.85 8.37-8.08 12.45-12.22 5.37-5.45 10.73-10.79 16.55-15.77 3.69-3.28 7.11-6.83 10.57-10.36 4.63-4.7 9.22-9.25 14.38-13.37 6 2.13 10.17 5.95 15 10l1.63 1.37c7.31 6.15 14.46 12.46 21.45 18.96 2.24 2.05 4.5 4.06 6.78 6.04 4.04 3.53 7.98 7.15 11.89 10.82 1.03.97 1.03.97 2.09 1.96 5.22 4.91 10.3 9.94 15.31 15.07 2.08 2.03 4.14 3.9 6.35 5.78 6.97 6.04 13.32 12.77 19.8 19.32 8.56 8.66 8.56 8.66 17.61 16.81 5.67 5.07 10.9 10.64 16.24 16.05 7.19 7.34 7.19 7.34 14.78 14.26 6.86 5.84 13.04 12.48 19.37 18.88 8.55 8.65 8.55 8.65 17.58 16.78 5.88 5.26 11.3 11.04 16.85 16.65 7.42 7.59 7.42 7.59 15.27 14.75 6.63 5.65 12.6 12.06 18.73 18.25 7.42 7.59 7.42 7.59 15.27 14.75 6.63 5.65 12.6 12.06 18.73 18.25 7.42 7.59 7.42 7.59 15.27 14.75 6.63 5.65 12.6 12.06 18.73 18.25 7.41 7.58 7.41 7.58 15.24 14.72 6.85 5.83 13.01 12.46 19.33 18.85 7.63 7.82 7.63 7.82 15.7 15.18 6.84 5.82 12.99 12.44 19.3 18.82 8.8 8.91 8.8 8.91 18.1 17.28 2.25 1.98 4.22 4.18 6.22 6.4 12.55 12.71 29.1 15.03 46.19 15.25 17.88-.01 30.46-5.8 43.19-18.25.52-.51 1.05-1.02 1.59-1.55 1.15-1.13 2.28-2.29 3.41-3.45l2-1.82c6.06-6.59 6.83-16.83 7.75-25.37.12-1.03.25-2.05.38-3.11 2.25-19.39-4.98-33.39-16.88-48.63-5.39-6.56-11.44-12.52-17.44-18.51-.52-.52-1.04-1.04-1.58-1.57-5.9-5.88-11.91-11.57-18.23-16.99-1.84-1.66-3.68-3.33-5.5-5-3.05-2.78-6.1-5.53-9.25-8.19-4.79-4.14-9.19-8.7-13.62-13.22-3.04-3.07-6.1-6.03-9.38-8.84-6.08-5.24-11.63-11.07-17.26-16.78-5.18-5.24-10.36-10.37-15.96-15.16-5.34-4.75-10.24-9.99-15.26-15.07-4.45-4.49-8.94-8.81-13.74-12.93-5.11-4.55-9.81-9.55-14.61-14.43-3.7-3.73-7.39-7.42-11.39-10.85-6.1-5.23-11.62-11.07-17.26-16.79-4.45-4.49-8.94-8.81-13.74-12.93-5.11-4.55-9.81-9.55-14.61-14.43-3.69-3.72-7.37-7.41-11.36-10.82-5.83-4.99-11.12-10.56-16.5-16.02-5.02-5.09-10.07-10.06-15.51-14.71-5.34-4.76-10.26-10-15.28-15.09-3.83-3.87-7.64-7.7-11.77-11.24-6.09-5.22-11.6-11.05-17.23-16.76-3.81-3.85-7.59-7.66-11.71-11.18-6.03-5.16-11.5-10.94-17.07-16.59-6.78-6.9-6.78-6.9-13.93-13.41-6.44-5.5-12.27-11.71-18.22-17.74-5.52-5.58-11.02-11.11-17-16.2-3.44-3.02-6.63-6.3-9.84-9.56-.68-.68-1.36-1.37-2.06-2.07-1.65-1.66-3.3-3.32-4.94-4.99 1.5-5.43 5.24-8.76 9.06-12.69 1.28-1.33 2.57-2.67 3.85-4.01l1.9-1.98c2.17-2.3 4.27-4.64 6.36-7 4.57-5.09 9.33-9.97 14.18-14.8.85-.86 1.71-1.71 2.59-2.6 1.79-1.79 3.59-3.59 5.39-5.38l8.19-8.19c1.75-1.76 3.51-3.51 5.26-5.27l2.44-2.44c4.22-4.2 8.51-8.22 13.02-12.1 2.31-2.02 4.48-4.16 6.63-6.35l2.55-2.57c.85-.87 1.7-1.73 2.58-2.62 5.2-5.28 10.41-10.44 16.04-15.26 3.65-3.24 7.04-6.76 10.46-10.24 4.68-4.77 9.42-9.35 14.48-13.71 3.67-3.26 7.08-6.79 10.52-10.29 4.7-4.79 9.46-9.39 14.55-13.77 3.3-2.93 6.36-6.08 9.45-9.23 4.3-4.35 8.6-8.56 13.28-12.5 3.37-3.04 6.53-6.28 9.72-9.5 4.3-4.34 8.6-8.56 13.28-12.5 3.37-3.04 6.53-6.28 9.72-9.5 4.3-4.34 8.6-8.56 13.28-12.5 4.03-3.63 7.79-7.54 11.59-11.41 3.1-3.15 6.25-6.17 9.6-9.06 4.22-3.64 8.12-7.55 12.03-11.53 4.53-4.62 9.13-9.03 14.03-13.25 3.3-2.94 6.38-6.09 9.47-9.25 3.71-3.79 7.44-7.5 11.47-10.97 4.22-3.64 8.12-7.55 12.03-11.53 4.55-4.64 9.17-9.08 14.09-13.32 2.94-2.59 5.67-5.38 8.41-8.18 3.35-3.43 6.73-6.74 10.37-9.87 4.43-3.83 8.53-7.95 12.63-12.13 4.73-4.82 9.52-9.46 14.64-13.87 2.75-2.42 5.3-5.01 7.86-7.63 3.29-3.35 6.59-6.6 10.19-9.63 15.24-13.1 25.45-29.9 30.68-49.18.33-1.19.33-1.19.66-2.39 2.06-8.11 2.03-14.73-1.1-22.55-.27-.69-.54-1.39-.82-2.1-7.09-17.55-19.02-32.26-36.51-40.31-6.6-2.64-13.43-3.2-20.48-3.15-1.25 0-1.25 0-2.52.01-6.43.12-12.07.99-18.1 3.3z" fill="#2B0000"/>
</svg>
