<svg version="1.0" xmlns="http://www.w3.org/2000/svg" preserveAspectRatio="xMidYMid meet" viewBox="0 0 1252 1199">
  <path d="M620 899.4c-7.6-2.9-20.4-8-24-9.6-8-3.6-10.3-4.5-23-9.8-6.9-2.9-17-7-22.4-9.2-5.5-2.1-11.8-4.7-14-5.8-6.3-2.8-10.4-4.5-33.1-13.7-11.5-4.7-22.3-9.1-24-9.8-8.5-3.8-33.1-14.2-49.5-20.8-19.6-8-24.1-9.8-30.5-12.7-10.4-4.6-18.4-8-18.9-8-.3 0-3.6-1.4-7.3-3.1-3.8-1.7-9.5-4.2-12.8-5.4-7.3-2.8-29.5-12-35-14.5-2.2-1-7.4-3.2-11.6-4.9-9.3-3.9-16.4-9.6-21.8-17.8-7.4-11.1-7.3-9.7-8.1-68.3-.5-28.9-.5-72.8-.2-97.7.4-36.6.3-45.5-.8-46.8-1.2-1.5-3.6-2.7-16.5-8.5-6.3-2.8-15.1-6.9-33.8-15.9-8.2-3.9-15-7.1-15.2-7.1-.2 0-5-2.2-10.8-4.9-15.1-7.1-15.2-8.1-2-25.9 5.4-7.2 13.2-17.7 17.3-23.4 4.1-5.6 12.4-16.7 18.3-24.7 14.4-19.4 13.8-18.6 19.9-26.8 2.9-4 7.1-9.8 9.3-12.9 2.2-3.1 4.5-6.2 5-6.8.9-1 8.2-10.9 11.9-16.1.7-1.1 5.8-3.7 11.2-5.9 10.7-4.1 11.4-4.4 18.9-7.4 2.8-1.1 9.5-3.6 15-5.7 5.5-2 13.8-5.2 18.5-7 4.7-1.9 8.9-3.5 9.3-3.5.4 0 2.6-.9 5-1.9 2.3-1.1 8.7-3.6 14.2-5.6 10.8-3.9 35.3-13.5 42.2-16.6 2.4-1 4.6-1.9 5-1.9.9 0 24.2-9 28.6-11.1 1.5-.7 2.7-1.8 2.7-2.5s-5-5.2-11.1-10c-6.2-4.8-12.6-10.2-14.3-11.9-20.2-20.3-34.5-44.4-41.2-69-3-11.3-3.4-13-4.9-22.9-1.7-11.3-2-35.3-.5-44.2 6.7-39.7 19.3-66 43.3-90.7C436 42.9 456.2 27 458.5 27c.4 0 1.9-.8 3.3-1.8 4.2-2.9 20.5-9.1 30.6-11.7 24.5-6.2 50.6-6.2 76.6.1 7.3 1.8 25.6 8.7 31 11.7 7.2 4 15.6 9.3 19.9 12.4 2.4 1.8 5 3.3 5.7 3.3.7 0 3.2-1.5 5.6-3.3 11.3-8.7 27.3-16.9 41.9-21.5 18.3-5.8 24.5-6.7 47.4-6.7 18.4 0 22.3.3 31.5 2.3 27.1 6.1 49.9 18.4 69 37.2 22.7 22.4 36.3 48 43.1 81 2.1 9.9 2.4 14.3 2.4 32 0 23.9-1.5 33.9-7.6 52.5-4.4 13.3-9.7 24.3-16.4 34.3-14.5 21.7-18.4 25.7-43.3 45.2-5.3 4.1-5.9 5.7-3.1 7.1 2.2 1.1 26.3 10.6 58.4 22.9 16 6.1 29.9 11.5 31 12 7.2 2.9 21.3 8.4 28.5 11 36.5 13.6 48.8 18.5 51.4 20.8 1.7 1.6 17 21.7 29.6 39.2 13.9 19.3 23.9 32.7 34.1 46.4 22.8 30.4 27.9 38 27.9 41.8 0 2.8-.6 4.1-2.2 5.2-2 1.2-14.8 7.4-42.8 20.4-3.6 1.6-10.5 4.9-15.5 7.2-4.9 2.3-13.1 6.2-18.2 8.5-7 3.3-9.3 4.9-9.8 6.7-.3 1.2-.6 45.7-.8 98.8l-.2 96.5-2.4 6c-3 7.5-6.7 12.9-12.2 18-6.2 5.7-9.5 7.5-25.4 14-7.7 3.1-15.9 6.6-18.2 7.6-4.7 2.1-16.3 6.9-32.3 13.4-5.8 2.3-17 7-25 10.5-8 3.4-21.5 9.1-30 12.5-8.5 3.5-18 7.3-21 8.5-3 1.3-8.2 3.5-11.5 5-3.3 1.5-14.1 6-24 10-9.9 3.9-18.9 7.6-20 8-1.1.5-5.4 2.3-9.5 3.9s-10.2 4.1-13.5 5.6c-3.3 1.5-6.9 3.1-8 3.5-1.1.4-3.8 1.6-6 2.6-2.2.9-6.5 2.7-9.5 3.9-8.1 3.3-32.3 13.4-50.5 21.1-12 5-17.4 6.8-21.5 7-3 .2-6.2.1-7-.2zm-2-191.5c0-159.3-.1-173.9-1.6-173.9-.9 0-4.6 3.3-8.2 7.3-3.7 3.9-12.3 13.1-19.2 20.2-6.9 7.2-20.4 21.6-30 32-20 21.6-43.4 46.2-46.4 48.7-3.1 2.6-6.8 2.2-14.8-1.6-4-1.9-11.6-5.4-16.8-7.9-5.2-2.4-11.7-5.4-14.5-6.7-2.7-1.3-10.6-4.9-17.4-8.1-6.8-3.3-12.5-5.9-12.7-5.9-.2 0-5.7-2.5-12.1-5.6-13.2-6.3-26.5-12.5-33.3-15.6-2.5-1.1-8.3-3.8-12.8-5.9-4.6-2.2-8.6-3.9-8.8-3.9-.2 0-8.3-3.9-18.1-8.6-9.8-4.7-19.8-9.4-22.3-10.4s-9.4-4.1-15.4-6.9c-6-2.9-11.9-5.3-13-5.4l-2.1-.2-.3 93.3-.2 93.4 3 6.3c3 6.3 12.7 16.5 15.7 16.5.7 0 2.7.8 4.5 1.8 2.9 1.6 20.9 9.2 33.8 14.2 7.9 3.1 22.4 9.1 27 11.2 2.5 1.2 16.9 7.2 32 13.4 15.1 6.2 33.6 13.8 41 16.9 7.4 3.1 20.3 8.4 28.5 11.7 8.3 3.3 17 6.9 19.5 8 2.5 1.1 5.9 2.6 7.5 3.3 1.7.7 6.2 2.6 10 4.3 3.9 1.7 14 5.8 22.5 9.2 8.5 3.4 17 6.8 18.8 7.6 1.7.8 4.7 2 6.5 2.8 1.7.8 6.6 2.9 10.7 4.6 16.6 7.2 36.5 14.7 37.7 14.3 1-.4 1.3-35.2 1.3-174.4zm31.6 169.7c6-2.4 17.2-7.1 25-10.4 7.7-3.3 23.7-9.9 35.5-14.7 11.8-4.7 22.8-9.2 24.4-10 1.7-.7 5-2.2 7.5-3.3 6.8-3 14.4-6.2 38-15.7 11.8-4.8 23.8-9.7 26.5-11 2.8-1.2 12.4-5.3 21.5-8.9 9.1-3.7 19.2-7.9 22.5-9.3 8.7-3.6 16.5-6.9 20.5-8.6 1.9-.9 7.1-3 11.5-4.7 4.4-1.7 11.2-4.5 15-6.2 3.9-1.6 9-3.8 11.5-4.9 31.8-13.2 34.1-14.5 39.8-23.4 5.2-8.2 5.2-7 5.2-105.1 0-99.2.3-93.6-5.6-90.9-1.6.8-5.4 2.5-8.4 3.8-16.4 7.3-38.3 17.4-52 24-8.5 4.1-19.3 9.1-24 11.2-4.7 2.1-15.5 7-24 11-17.1 8-21.8 10.2-39.5 18.2-6.6 3-15.1 7-19 8.8-3.8 1.8-12.8 6.1-20 9.6-7.6 3.6-14.4 6.2-16.4 6.2-3.9.1-2.5 1.5-56.6-56.3-48.2-51.5-50.6-54-52.7-54-1.7 0-1.8 6.3-1.8 173.8 0 95.6.3 174.2.7 174.5 1.3 1.3 4.1.6 14.9-3.7zM513.4 621.8c3.9-4 15.7-16.5 26.1-27.8 10.5-11.2 24.2-25.9 30.5-32.5 23.9-24.9 41.5-44.6 41.5-46.2 0-1.3-3.4-3.2-13-7.1-19.6-8.1-29.5-12.2-35-14.7-2.7-1.2-14.7-6.2-26.5-11s-22.8-9.3-24.5-10.1c-5.9-2.6-32.5-13.7-57-23.6-2.7-1.2-7.2-3.1-10-4.3-5.8-2.7-17.2-7.4-33.5-13.9-10.1-4.1-18-7.5-34.7-14.8-2.4-1-4.5-1.8-4.8-1.8-.2 0-2.8-1.1-5.7-2.4-2.9-1.3-11.4-4.7-18.8-7.6-14.1-5.5-16.5-6.4-24.2-9.9-2.6-1.1-5-2.1-5.3-2.1-.2 0-3.5-1.4-7.1-3.1-8.1-3.6-14.3-5.9-16.6-5.9-1 0-3.6 2.6-5.9 5.8-5.7 7.7-19.9 26.9-41 55.2-31.6 42.5-34.1 45.9-33.7 47.7.3 1.7 14.1 9.2 26.8 14.7 14.3 6.2 25.9 11.5 39.7 18.1 8.5 4.1 15.6 7.5 15.8 7.5.1 0 5.2 2.3 11.1 5 6 2.8 11.8 5.5 12.9 6 1.1.5 6.5 3 12 5.6 25.5 12 30.7 14.4 31 14.4.5 0 15.2 6.9 33.2 15.6 7.3 3.5 13.5 6.4 13.7 6.4.3 0 4.2 1.7 8.8 3.9 4.6 2.1 10.8 5 13.8 6.4 3 1.3 10.2 4.7 16 7.4 5.8 2.8 13.2 6.3 16.5 7.8 3.3 1.5 9.4 4.3 13.5 6.3 4.1 1.9 10.9 5 15 6.9 4.1 1.8 8.2 3.8 9 4.3 2.6 1.5 3.2 1.2 10.4-6.2zm238.4 4.6c2.1-.9 7.8-3.6 12.8-6 5-2.4 9.3-4.4 9.6-4.4.3 0 7.4-3.3 15.9-7.3 8.5-4.1 19.9-9.4 25.4-12 22.8-10.4 36.6-16.8 47.5-22 6.3-3 14.9-6.9 19-8.7 10.9-4.7 17.5-7.8 35.4-16.4 8.7-4.2 16-7.6 16.2-7.6.5 0 34.3-15.6 41.4-19.1 3.6-1.7 15.7-7.3 27-12.4 27.1-12.2 35.7-16.4 36.9-17.9 1-1.2-3.1-7.2-28.9-42.1-5.3-7.1-12.5-17-16.1-21.9-3.5-4.9-8.2-11.2-10.5-14-2.2-2.8-8.1-10.8-13.1-17.7-5-6.9-9.9-13.1-10.7-13.9-1.8-1.4-6.6.1-24.1 7.8-14 6.1-19 8.1-39.3 16.1-8.4 3.4-17.8 7.2-20.8 8.6-3 1.4-5.8 2.5-6.2 2.5-.5 0-2.7.9-5 2s-8.1 3.7-12.9 5.6c-4.9 2-13.1 5.4-18.3 7.6-5.2 2.1-13.9 5.7-19.3 7.8-5.3 2.2-10.5 4.4-11.5 4.9-2.4 1.3-6.9 3.2-21.7 9.1-7.1 2.8-15.4 6.3-18.3 7.6-2.9 1.3-5.5 2.4-5.9 2.4-.3 0-2.9 1.1-5.7 2.4C745 470 735.3 474 713 483c-12.6 5-29.3 12.1-35.5 15-1.1.5-6.7 2.8-12.5 5.1-5.8 2.2-12.4 5-14.7 6-2.4 1.1-5.4 2.4-6.8 2.9-1.4.5-2.5 1.7-2.5 2.6 0 .9 2.8 4.6 6.2 8.3 15 16.1 31.1 33.3 40.8 43.5 5.8 6.2 18.8 20.1 29 31.1 25.1 27 28.5 30.5 29.9 30.5.7 0 2.9-.7 4.9-1.6zM629.3 502.1c7.3-3.4 17.6-7.7 36.7-15.4 27.8-11.3 41-16.7 45.7-18.8 2.3-1 4.5-1.9 4.8-1.9.6 0 34-13.6 43-17.5 12.2-5.3 29.6-12.5 30.2-12.5.4 0 4.3-1.5 8.8-3.4 4.4-1.8 13.6-5.7 20.5-8.6 6.9-2.9 15.2-6.3 18.5-7.7 3.3-1.4 7.4-3.1 9-3.8 1.7-.7 11.8-4.8 22.5-9 10.7-4.3 22.3-9.1 25.8-10.6 3.4-1.6 6.8-2.9 7.5-2.9.7 0 1.7-.4 2.3-.9.5-.5 6.8-3.3 13.9-6.1 16.2-6.5 20.7-8.8 20.3-10.2-.3-.7-6.5-3.6-13.9-6.6-7.4-3-14.8-6.1-16.6-6.9-1.8-.7-7.4-2.9-12.5-4.7-8.5-3.1-30.7-11.7-63.8-24.7-6.9-2.7-14.7-5.8-17.5-6.8-2.7-1-11.4-4.4-19.3-7.5-7.8-3.1-15-5.6-16-5.6-.9 0-8.5 5.1-16.8 11.3-8.3 6.1-21.5 15.9-29.4 21.7-16.1 11.8-20.6 15.2-57.5 42.8-48.5 36.5-46.7 35.2-50 35.2-3 0-12.1-6.4-46.5-32.5-4.7-3.5-14.1-10.6-21-15.8-6.9-5.1-14.6-10.9-17.1-12.8-2.5-1.8-11.3-8.3-19.5-14.4-8.2-6-22-16.2-30.7-22.7-8.8-6.5-16.4-11.9-17-11.9-2.7-.3-8 1.3-17.2 5.1-2.6 1.1-12.5 4.9-31.5 12.2-8.5 3.3-21.1 8.1-28 10.7-6.9 2.7-18.1 7-25 9.6-33.5 12.8-58.4 23.1-58.8 24.2-.4 1.3 14.5 8.8 22.4 11.3 3.8 1.2 13 5 22.9 9.5 2.8 1.2 9.1 3.9 14 5.9 5 2.1 10.4 4.3 12 5 1.7.8 7.3 3 12.5 5.1 8.3 3.2 21.9 9 34.5 14.5 2.2 1 13.6 5.7 25.4 10.5 11.8 4.7 23.2 9.5 25.5 10.5 5.3 2.4 24.4 10.3 42.1 17.5 7.7 3.1 15.8 6.5 18 7.5 2.2 1 17.5 7.3 34 14s31.9 13 34.1 14.1c3.7 1.6 13.5 5.7 14.2 5.8.1.1 2.1-.8 4.5-1.8zm15.4-110.4c9.8-7.3 20.6-15.3 23.9-17.8 3.4-2.4 9.5-6.9 13.5-10 4.1-3 12.6-9.4 18.9-14.1 6.3-4.7 13.5-10.1 16-12 2.5-1.9 12.6-9.5 22.5-16.8 55.9-41.5 68.9-51.6 74.7-58 17.1-19.2 26-35 33.8-60.5 5.3-17.5 7.2-45.3 4-61.5-2.5-13.4-3.4-17.1-5.2-23-1.1-3.6-2.5-7.8-3.2-9.5-.7-1.6-2.3-5.6-3.6-8.7-1.2-3.2-3.5-7.8-5.1-10.3-1.6-2.5-2.9-4.8-2.9-5 0-1.9-11.4-16-20-24.6-16.3-16.6-34.3-27.2-56-33.1-23.5-6.4-56.3-5.3-79.5 2.7-15.3 5.2-30.4 13.7-43 23.9-3.2 2.7-6.6 4.6-8 4.6-1.4 0-4.8-1.9-7.7-4.2-12.6-10.2-20.4-14.9-33.8-20.5-10.4-4.4-13-5.2-31-9.4-7.3-1.7-38.6-1.7-46 0-3 .7-7.1 1.7-9 2.2-38.5 9.8-67.5 34.2-86.6 72.9-5.5 11.2-7.6 17.4-10.7 32.5-7.3 34.5-2.6 68.8 13.8 100.2 8.8 16.8 23.1 34.2 35.8 43.6 3.9 2.8 11.2 8.3 16.1 12.1 5 3.7 13.8 10.3 19.6 14.6 5.8 4.3 19.1 14.2 29.5 21.9 10.5 7.8 22.3 16.7 26.3 19.9 4.1 3.1 9 6.8 11 8.2 2.1 1.4 10.7 7.7 19.2 14.1 48.8 36.5 52.1 38.9 53.6 38.9.7 0 9.3-6 19.1-13.3z" fill="#000"/>
</svg>
