<svg version="1.0" xmlns="http://www.w3.org/2000/svg" preserveAspectRatio="xMidYMid meet" viewBox="0 0 510 674">
  <path d="M310.95 383.9c.2-1.2.25-3.15.2-4.4-.1-1.25-.25-4.15-.35-6.5-.05-2.35-.2-4.9-.25-5.75l-.1-1.5-.5 1.25c-.5 1.15-2.1 3-2.7 3-.5 0-.25-3.75.65-8.1l.85-4.4h3.65l.3 6.9c.15 3.75.5 8.1.8 9.65.65 3.6.65 9.75 0 11-.3.5-1.05.95-1.7.95-1.05 0-1.1-.15-.85-2.1zm72.15-70l.15-7.65 1.9-.15 1.85-.15v2.45c0 1.35-.15 4.85-.35 7.75l-.3 5.35h-3.4l.15-7.6z" fill="#171515"/>
  <path d="M370.75 606.3c-3.95-1.75-11.4-11.35-27.1-35-1.45-2.2-2.95-4.15-3.3-4.4-1.1-.6-5.35-7.65-5.35-8.85 0-1.35-2.05-4.65-4.7-7.55-1.15-1.25-3.15-4.2-4.55-6.65-1.35-2.4-3.95-6.65-5.7-9.5-1.75-2.8-3.25-5.9-3.4-6.9-.3-1.95.45-4.65 5.55-20 7.25-21.75 12.45-36.95 14.3-41.7 1.05-2.75 2.3-6.1 2.8-7.4l.85-2.4 2.2.15 2.25.15 3.85 9.5c10.55 25.75 16.1 36.65 27.2 53.25 3.05 4.55 5.5 8.65 5.45 9.15-.05 1.2.95 2.8 9.95 15.7 4.1 5.85 7.3 10.9 7.2 11.3-.15.35.2 1.1.8 1.65.75.6 1 .7.75.2-.2-.4.2-.05.9.75.7.85 1.2 1.8 1.05 2.1-.1.35.05.6.4.5.35-.05.55.3.55.75-.05.5.15.8.5.75.3-.05.55.3.55.75 0 .5.35 1.15.75 1.5.6.55.6.55.05-.2-.35-.5-.55-.9-.4-.9.55 0 2.8 3.65 2.55 4.1-.15.25 0 .35.4.3.35-.1.6.25.6.7-.05.5.1.8.3.65.6-.4 2.15 1.65 1.7 2.3-.2.35-.15.5.15.3.7-.45 1.85.95 1.35 1.7-.2.35-.15.45.2.25.65-.4 4.8 5 4.35 5.7-.2.3-.05.45.35.4.35-.1.6.25.6.7-.05.5.1.8.3.65.5-.3 3.5 4 3.5 4.95 0 .85-1.05 1.8-2 1.8-.45 0-1.25.45-1.8 1.05-.5.55-1.6 1.35-2.45 1.75-2.3 1.05-10.65 6.45-12.05 7.7-.65.65-1.2 1.45-1.2 1.75 0 .35-1.1.75-2.6.9-2.4.25-6.35 1.95-8.4 3.6-.4.35-2.3.75-4.25.9-1.9.15-5.05.65-7 1.05-4.25.95-6.05.95-8 .1zM327.5 473.15c0-1.35.5-3.8 1.1-5.5 1.15-3.1 1.15-3.15 3-3.15 1.7 0 1.9.15 1.9 1.35 0 .7-.6 3.2-1.35 5.5-1.35 4.05-1.45 4.15-3 4.15-1.65 0-1.65-.05-1.65-2.35zm5.5-16.35c0-.9.25-2.35.55-3.25.45-1.35.8-1.55 2.25-1.55 1.7 0 1.7 0 1.7 2.3 0 3.2-.65 4.2-2.75 4.2-1.65 0-1.75-.1-1.75-1.7zm-45.75-5.65c.2-1.9.45-3.55.6-3.75.1-.25 1.55-.4 3.2-.4H294v1.7c0 1.2-.35 1.9-1.3 2.6-.7.5-1.5 1.45-1.75 2.1-.35.85-.8 1.1-2.25 1.1h-1.8l.35-3.35zM309 392c0-.65-.35-1-1-1-.9 0-1-.35-1-3.25 0-2.55.15-3.25.75-3.25.4 0 .75.3.75.65 0 1.2 2.05.55 3.05-.95 1.05-1.65 1.2-4.4.45-8.65-.3-1.55-.65-5.9-.8-9.65-.15-3.8-.5-6.9-.75-6.9s-.45.5-.45 1.15c0 1.85-.6 3.35-1.25 3.35-1.3 0-1.55-10.15-.25-11 .2-.15.65-.9 1.05-1.75.55-1.2 1.05-1.55 2.55-1.65l1.85-.15.15 3.65c.15 3.6.15 3.65 1.65 3.9l1.5.25.15 3.95c.1 2.25-.1 4.15-.4 4.55-.35.45-.45 2.4-.2 5.95.25 3.65.15 5.5-.2 5.95-.35.4-.7 3.1-.8 6.05-.2 5.15-.25 5.4-1.9 7.55-1.35 1.8-1.95 2.2-3.25 2.25-1.3 0-1.65-.2-1.65-1zm56.65-7.6c.2-1.4.55-2.8.85-3.1.25-.25.5-1.15.5-1.95 0-1.8.75-3.3 2.35-4.65 1.1-.95 1.3-1.5 1.2-3.8-.05-2.45.15-2.9 1.65-4.6.95-1 1.85-2.55 2.05-3.45.9-4.9 2-9 2.45-9.55.3-.3.85-1.15 1.15-1.9.5-1.15.95-1.4 2.35-1.4 1.6 0 1.8.15 2.1 1.8.55 2.95-1.95 12.2-5.1 19.1-.95 2-1.7 3.85-1.7 4.15 0 .25-.55 1.55-1.2 2.85-.65 1.3-1.6 3.55-2.05 5-.5 1.45-1.15 2.6-1.5 2.6-.35 0-.75.35-.95.75-.15.5-.95.75-2.35.75h-2.1l.3-2.6zM382.5 334c0-.55-.2-1-.5-1-.95 0-1.1-3.65-.3-9.1.45-3.1 1.05-5.7 1.3-5.8.6-.2.65-6.45.05-6.7-.2-.05-.55-2-.75-4.25l-.35-4.15h2c1.5 0 2.05.2 2.05.75 0 .4.25.75.5.75.3 0 .5 1 .5 2.2 0 1.25-.2 2.4-.5 2.55-.85.5-.6 2.25.35 2.25.75 0 .8.75.5 7.9-.2 4.3-.6 9.6-.9 11.75l-.65 3.85h-1.65c-1.3 0-1.65-.2-1.65-1zm2.75-20.45c.25-4.4.2-6.05-.2-5.85-.35.25-.55 2.55-.55 6.4 0 3.35.1 5.95.2 5.85.1-.1.35-3 .55-6.4zm-73.95 19.7c-.35-1.3 2.2-8.4 5.85-16.35 1.55-3.4 1.95-3.9 3.05-3.9 1.25 0 1.3.15 1.3 2.7 0 1.9-.3 3-1 3.95-.55.7-1 1.85-1 2.55 0 1.2-1 5.5-1.8 7.55-.2.55-.95 1.85-1.65 2.85-1.05 1.5-1.65 1.9-2.85 1.9-1.3 0-1.65-.25-1.9-1.25z" fill="#242323"/>
  <path d="M33.65 632.15c-.45-.15-.65-1.4-.65-3.7V625h1.65c2.7.05 3.55 1.05 3.1 3.8-.15 1.3-.45 2.65-.6 3-.25.7-2.25.9-3.5.35zM232 116.3c-.35-2.1-.5-4.7-.3-6 .35-2.2.45-2.3 2-2.3h1.65l.55 5.35c.35 3 .6 5.7.6 6.05 0 .35-.7.6-1.95.6h-1.9l-.65-3.7z" fill="#511a1c"/>
  <path d="M246.7 619.9c-.2-.6-.35-2.6-.35-4.4 0-2.55.25-3.8 1.3-5.85l1.35-2.55-1.35-2.4c-1-1.8-1.35-3.25-1.55-6.15-.2-3.6-.1-4.1 2.15-9.5 4.9-12 11.55-32.9 17.8-56.3 4.9-18.25 8.7-32.2 11.3-41.25 5.55-19.4 7.2-26.2 7.2-28.95-.05-1.5.15-2.95.4-3.25.2-.3.7-1.8 1.05-3.3.65-2.85 2.3-7 2.8-7 .15 0 .2.9.1 1.95-.1 1.1 0 1.85.2 1.75.25-.15.4-.5.4-.85 0-.3.75-1.2 1.6-1.95l1.65-1.4H291c-.95 0-1.5-.2-1.25-.4 1-.7 1.75-2.6 1.75-4.4 0-1.4.4-2.3 1.75-3.75.95-1.1 1.75-2.5 1.75-3.15 0-.65.35-1.45.75-1.8 1.15-.95 5.6-13 5.95-16.05.15-1.5.85-5.35 1.6-8.5.7-3.1 1.6-7.55 1.95-9.75.35-2.25 1.1-5.1 1.65-6.35.7-1.6.95-2.9.75-4.25-.15-1.1 0-2.4.3-2.9.45-.8.5-.7.55.8v1.75l1.25-1.5c.65-.8 1.2-1.9 1.25-2.45 0-.5.65-1.65 1.45-2.6 1-1.15 1.6-2.4 1.8-4.05.15-1.3.45-2.75.7-3.15.55-1.05.2-7.3-.45-8.5-.45-.85-.35-1.4.5-2.8 1.45-2.5 1.15-6.35-.5-6.6-.7-.1-1 0-.8.35.2.3.15.55-.15.55-.65 0-1.05-2.1-1.1-5.65-.05-2.25-.2-2.75-.7-2.35-.35.3-.8 1.1-.95 1.75-.2.7-.55 1.25-.8 1.25-.3 0-.5.35-.5.75s-.35.75-.8.75c-.75 0-.8-.45-.55-3.75.2-2.35.15-3.75-.15-3.75-1.2 0-.1-9.35 1.3-11 .35-.4 1-2.15 1.5-3.9.45-1.7 1.1-3.1 1.35-3.1s.35.35.15.75c-.15.4-.05.75.2.75.3 0 .5.4.5.85 0 1 2.3-1.85 3.1-3.85.85-2.05 1.9-6.45 1.9-7.8 0-.7.45-1.85 1-2.55 1-1.3 1.4-3.65.6-3.65-.25 0-.95 1.1-1.6 2.5-.65 1.35-1.3 2.4-1.45 2.25-.15-.15.1-1 .55-1.9.45-.9 1.5-3.35 2.4-5.45 1.6-3.75 1.7-3.9 3.3-3.9 1.65 0 1.7.05 1.7 1.95 0 1.8-.85 4.6-2 6.65-.45.8-.25.9 2.25.9 2.2 0 2.8.2 3.25 1 .3.5 1.45 1.4 2.65 1.95 1.15.5 2.9 1.65 3.85 2.55 2.75 2.45 4.2 3 8.35 3.2 3.05.1 4.6.45 7.15 1.65 4.65 2.15 6.15 2.35 7.6 1 1.45-1.3 3.1-2.15 5.15-2.6 1.6-.35 6.75-5.4 6.75-6.6 0-.35 1.25-1.95 2.75-3.5 1.5-1.6 2.75-3.05 2.75-3.25 0-.25.8-.4 1.75-.4 1.4 0 1.75.2 1.75 1 0 .55.3 1 .65 1 .3 0 1.15.45 1.85 1 .7.55 1.8 1 2.45 1 1.3 0 1.35-.9-.15 8.45-.45 2.85-.55 5.1-.3 5.75.25.55.5.85.55.55.05-.25.25.2.45 1l.4 1.5.05-1.5c.05-.8.25-1.8.5-2.2.9-1.4 1.1 3.9.35 8.3-.4 2.4-1.1 6.85-1.55 9.85-.45 3-.9 5.65-1.05 5.85-.15.25-.7.45-1.25.45s-.9-.2-.75-.45c.2-.25.1-1-.15-1.65-.45-1.15-.5-1.15-1.1.5-.4.85-.85 1.6-1.1 1.6-.2 0-.25.25-.1.5.15.3.1.5-.15.5-.4 0-1.4 3.75-2.35 8.85-.2.9-1 2.35-1.8 3.2-1.25 1.35-1.55 2.1-1.65 4.6-.15 2.45-.35 3.15-1.45 4-1.25 1.1-2.35 2.85-2.35 3.75 0 .25.55.6 1.25.7.9.2 1.3 0 1.5-.7.2-.5.55-.8.8-.65.7.45.55 3.5-.25 5.1-.4.75-1.55 3.45-2.55 5.9-1.05 2.5-2.2 5-2.6 5.65-.4.65-1.25 2.55-1.9 4.25-.65 1.7-1.65 4.05-2.2 5.2-.6 1.15-1.05 2.35-1.05 2.65 0 .25-.5.5-1.15.5-1.45 0-2.45 1.65-2.6 4.2-.05 1.15-1.05 4.75-2.15 8.05-3.15 9.15-6.6 20.4-6.6 21.3 0 .45-.5 2.4-1.05 4.25-.6 1.9-1.05 4.4-1 5.5.05 1.7-.15 2.3-1.2 3.1-.85.7-1.25 1.5-1.25 2.55 0 1.6-.7 2.1-1.2.8-.55-1.45-1.65-.75-2.5 1.65-.5 1.3-1.75 4.6-2.8 7.35-1.1 2.75-4 11.1-6.5 18.5-2.5 7.45-5.55 16.45-6.75 20.05-1.25 3.6-3.25 9.8-4.5 13.7-2.15 6.9-2.2 7.2-1.35 8.15.6.75.65.9.1.6-.65-.4-.65-.3-.1.4.5.6.55.95.1 1.45-.8.95-6.1 16.4-16.2 47.4-2.9 8.95-5.6 16.5-6 16.85-.35.3-2.05 4.9-3.8 10.2-4.2 12.95-4.65 13.95-6.25 13.95-.7 0-1.25-.15-1.25-.4 0-.2-.45-.65-1-1-.9-.55-1.05-.45-1.5.65-.4 1.1-.8 1.25-2.75 1.25-1.85 0-2.25-.15-2.25-.95 0-2.35-9.45-1.85-14.2.75-.95.55-2.05.75-3.45.55-1.2-.15-3.2.05-4.85.5-1.5.45-4 .9-5.6 1-2.6.2-2.85.15-3.2-.95zm84.1-150.5c.6-1.9 1-3.4.8-3.4-.5 0-2.6 6-2.55 7.25.05 1.1-.05 1.25 1.75-3.85zm5.2-15.1c-.05-.85-.1-.9-.45-.3-.25.4-.6 1.3-.75 2-.35 1.2-.3 1.2.4.3.45-.55.8-1.45.8-2zm-21.9-68.6c.25-2.25-.35-1.65-1.35 1.25-.45 1.35-1.15 2.75-1.55 3.05-.35.35-.7.85-.7 1.15 0 1.2 3.45-4 3.6-5.45zm54.4-1.2c.3-.55.75-.9 1-.75.3.2.35-.05.15-.55-.25-.65-.15-.75.4-.45s.55.25.15-.2c-.85-.9-2.5.1-2.8 1.7-.3 1.5.35 1.65 1.1.25zm6.6-97.75c-.35-.7-.6-2.4-.6-3.75v-2.5h1.7c1.45 0 1.8.2 2.25 1.55.3.9.55 2.6.55 3.75 0 2.15-.05 2.2-1.65 2.2-1.3 0-1.8-.3-2.25-1.25z" fill="#333131"/>
  <path d="M278.6 625.15c-.3-.8-.7-3.15-.85-5.25l-.35-3.9h1.6c1.4 0 1.55.1 1 .75-.5.6-.45.75.2.75.45 0 .95-.35 1.1-.75.4-1.05 1.2-.95 1.2.15 0 1.25.95 2.1 2.35 2.1 1.8 0 1.45 1.7-.6 2.95-1.5.85-1.75 1.3-1.75 2.8 0 1.65-.1 1.75-1.7 1.75-1.35 0-1.75-.25-2.2-1.35zM137 530c0-1.8 1.2-4.2 4.75-9.5l2.5-3.75.25-8c.3-8.6.15-8 3.55-13.05.75-1.1 3.35-3.9 5.85-6.3l4.55-4.4h6.05v1.65c0 1.2-.85 2.75-3.55 6.35-4.25 5.7-4.8 6.7-7.5 14.05-3.55 9.6-7.2 17.3-9.35 19.65-1.1 1.15-2.35 2.75-2.85 3.45-.65 1.05-1.3 1.35-2.55 1.35-1.55 0-1.7-.15-1.7-1.5zm83.5-273.25c0-.4-.35-.75-.75-.75-.55 0-.75-.55-.75-1.8 0-2.15 3-7.95 8.3-15.95 3.75-5.65 6.6-8.75 9.8-10.65 1.8-1.1 4.85-4.15 5.75-5.85.4-.65 1.35-.95 4.1-1.15l3.55-.25v1.7c0 4.5 1.65 12.85 3.3 16.6 1.45 3.3 1.7 4.5 1.7 7.6 0 2.3-.2 3.85-.6 4.05-.3.2-3.55.55-7.1.75-7.55.45-16.4 2.5-21.4 4.9-3.45 1.7-5.9 2-5.9.8zM210 237c0-3.15 4.95-18.75 7.95-25.15l3-6.35H226v1.75c0 1-.45 2.7-1 3.8-.55 1.05-1.25 3.5-1.5 5.35-1.45 10.15-2.15 11.95-6.9 18.45-2.55 3.45-2.8 3.65-4.65 3.65-1.85 0-1.95-.1-1.95-1.5zm28.65-19.6c-.7-.75-1.2-2.15-1.4-3.9-.35-3.2.45-12.2 1.6-17.15.7-3.15.9-3.5 2.45-4.15.9-.4 2.45-.7 3.35-.7h1.7l.35 7.4c.15 4.05.45 9.2.6 11.45l.35 4.15-2.2 2c-2.65 2.4-5.1 2.7-6.8.9zm112.7-15.75c-.45-.4-.45-6.35-.05-6.8.15-.15.4-2.05.5-4.2.1-2.15.5-4.8.9-5.9.6-1.65.95-2.05 2.2-2.15.85-.1 2.1.2 2.75.65 1.15.75 1.7.7 8.05-.75 8.7-1.9 9.9-1.9 13.85.2 4.9 2.6 6.95 3.1 8.85 2.1 1.8-.95 5.65-1.05 6.5-.2.35.35.6 1.35.6 2.25 0 1.35-.4 1.9-2.6 3.55-2.75 2.05-6.65 3.25-12.5 3.8-1.6.2-4.2.9-5.75 1.6-1.6.75-3.55 1.65-4.4 2-.8.4-3.3 1.1-5.55 1.65-2.2.5-4.75 1.3-5.6 1.75-1.55.8-7.1 1.15-7.75.45zm-34.5-15.25c-6.9-6.85-11.35-12.1-11.35-13.3 0-.35-.2-.6-.5-.6-.75 0-.6-3.5.2-4.3.5-.5 2.75-.85 6.9-1.2 3.4-.25 7.85-.85 9.9-1.25 2.05-.45 5.05-.95 6.6-1.1 2.7-.25 2.85-.2 3.15.9.45 1.95-.5 20.5-1.1 20.85-.3.2-.65 1.65-.85 3.25-.4 3.2-1.1 3.85-4 3.85-1.65 0-2.45-.65-8.95-7.1zm-74.15-42.95c-.65-.7-.9-1.8-.95-3.6v-2.6l2.4-.15c1.35-.1 2.75.1 3.15.45.7.6 1 4.65.4 6.15-.45 1.2-3.8 1.05-5-.25z" fill="#562e2c"/>
  <g fill="#3e3c3b">
    <path d="M355.2 414.9c.2-2.35.25-2.5.7-2.2.2.1.3-.55.2-1.45-.25-2.05 1.15-4.2 2.8-4.25.65 0 1.1-.3 1.1-.75 0-.4.25-.75.5-.75 1.05 0 .4 3.75-1.05 6-.8 1.25-1.75 2.85-2.05 3.65-.9 2-2.35 1.8-2.2-.25zm-.95-83.35c-.3-.25-1.15-.55-2-.65-.8-.05-1.6-.25-1.75-.45-.15-.15-1.35-.8-2.75-1.45-1.9-.9-3.3-1.15-5.75-1.1-3.7.05-6.25-.9-9-3.4-.95-.85-2.65-2-3.7-2.5-1.1-.5-2.4-1.45-2.85-2.1-.8-1.05-.9-1.05-.75-.15.25 1.4-.15 1.85-.95 1.15-1.85-1.65-2.3-1.9-3.5-1.9-.95 0-1.25-.25-1.25-1.15 0-.6.3-1.55.65-2.1 1-1.5 2.5-5.75 2.15-6.1-.15-.2-.75.1-1.3.6-.95.85-.95.85-.35-.7l.6-1.6 3.85.35 3.85.3 1.65-1.65c1.65-1.65 4.1-3.25 7.3-4.7.95-.45 2.45-1.55 3.4-2.5.95-1 2.25-1.75 2.9-1.75 1.85 0 5.65-1.5 7-2.75.7-.65 1.95-1.3 2.75-1.5.85-.15 2.1-.8 2.8-1.35 1.25-1 7.05-2.4 9.75-2.4.7 0 1.9.35 2.7.75 1.7.9 7.3 1.6 7.3.95-.05-.25-.35-1-.75-1.7-.8-1.4-1-4.3-.3-4.75.3-.15.7.15 1 .6.5.85.5.85.55.05 0-1.2 1.55-1.15 2.65.1.45.55.85 1.2.85 1.4 0 .2.55 1.5 1.25 2.85.65 1.4 1.25 3.25 1.25 4.15 0 .85.4 2 .9 2.5 1.45 1.5 2.05 3.2 2.35 7 .3 3.1.25 3.6-.45 3.6-.45 0-.8-.35-.8-.75s-.2-.75-.5-.75c-.25 0-.5-.35-.5-.75s-.2-.75-.4-.75c-.25 0-.2 1.75 0 3.9.25 2.1.35 5.2.3 6.85-.15 2.7-.25 3-1.3 3.15-.65.1-2.05-.4-3.15-1.1-1.35-.9-1.95-1.1-1.95-.65 0 .75-3.55 3.5-3.95 3.05-.15-.15-.05-.4.25-.6 1.05-.75 2.7-3.25 2.7-4.15 0-.7-.55-.3-2.1 1.4-1.2 1.3-2.55 2.75-3 3.25-.5.5-.9 1.2-.9 1.55 0 1.2-5.15 6.25-6.75 6.6-2.05.45-4.25 1.4-4.25 1.85 0 .55-3.3 2.4-4.35 2.4-.5 0-1.15-.2-1.4-.45z"/>
    <path d="M385.65 310.75c0-1.35.1-1.9.2-1.1.1.75.1 1.85 0 2.5-.1.6-.2 0-.2-1.4z"/>
  </g>
  <path d="M15.4 646.9c-1.85-.5-1.9-.6-1.9-2.65 0-1.85-.25-2.35-1.55-3.35-.85-.65-2.3-1.85-3.25-2.7-1.65-1.55-1.7-1.75-1.7-5.3 0-3.25.2-4 1.5-6.05.8-1.25 3.15-4 5.25-6.05 2.05-2.05 3.75-4 3.75-4.3 0-.8 7.5-.6 10.5.3 3.5 1.05 5.55 2.65 7.15 5.65 1.85 3.35 1.8 6.3-.05 4.45-.45-.45-.6-.15-.6 1.45 0 2.3 1.15 3.3 1.8 1.5.3-.9.4-.65.55 1.1.1 1.2 0 2.4-.25 2.65-.3.3-.3 1.15 0 2.3.85 3.2 1.05 5.6.45 5.6-.3 0-.55.75-.55 1.65 0 1.15-.4 2.05-1.4 3l-1.4 1.35-8.25-.05c-4.5-.05-9.05-.3-10.05-.55zm270.85-7.6c-.65-1.3-1.2-1.8-2.55-2-1.5-.3-1.7-.5-1.7-1.95 0-2.45.55-2.95 3.05-2.75 2.05.15 2.3.3 3.8 2.9.9 1.5 1.65 3.35 1.65 4.1 0 1.25-.15 1.4-1.75 1.4-1.45 0-1.8-.25-2.5-1.7zm68.65.35c2-2.75 4.95-5.05 9.8-7.65 2.75-1.45 5.65-3.4 6.45-4.35 1.2-1.35 1.8-1.65 3.4-1.65 1.95 0 1.95 0 1.95 2 0 1.1-.2 2-.5 2-.25 0-1.1.65-1.85 1.4-1.45 1.45-4.3 2.95-7.9 4.1-1.1.35-2.3.95-2.65 1.35-.35.35-1.1.65-1.55.65-.5 0-1.2.35-1.55.75-.35.4-.9.75-1.25.75-.3 0-1 .45-1.5 1s-1.55 1-2.35 1h-1.45l.95-1.35zm-230-102.2c-.5-.5-1.5-.95-2.25-1-1.05 0-2.1-.75-4.1-3l-2.7-3 .55-4.1c.3-2.25.7-6.05.85-8.4.3-5.25 1.6-9.7 4-13.7 2.25-3.7 4.25-5.85 10-10.5 5.25-4.25 6-5.05 6.45-6.9.15-.75 1.95-3.2 3.95-5.5 2-2.25 5.3-6.2 7.3-8.7l3.65-4.65h4.65c2.6 0 5.3.25 6.1.55 2.5.9 4.35 4.1 4.95 8.45.25 2.05.15 2.7-.85 4.05-.65.9-1.5 2.8-1.95 4.15-.75 2.2-1.05 2.55-2.25 2.7-1.25.15-1.35.1-.8-.6.6-.7.5-.8-.9-.8-1.3 0-2.35.75-6.15 4.4-2.5 2.4-5.1 5.2-5.85 6.3-3.4 5.05-3.25 4.45-3.55 13.05l-.25 8-2.5 3.75c-1.35 2.05-3 4.75-3.65 6l-1.15 2.25 1.15-1.5c.65-.8 2-2.4 3-3.55 1-1.1 2.55-3.45 3.4-5.25 1.1-2.4 1.5-2.9 1.5-1.9 0 .75-1.2 3.05-2.75 5.4-1.9 2.85-2.75 4.6-2.75 5.7 0 1.3-.55 2.15-2.65 4.25-1.5 1.5-3.1 2.6-3.7 2.6-.6 0-1.75.55-2.55 1.25-1.25 1.05-2 1.25-4.4 1.2-2.25 0-3.15-.25-3.8-1zm167.6-226.6c-1.55-.6-4.05-2-5.6-3.05-6.8-4.5-9.15-9.65-9.7-21.3-.3-5.8-.4-6.35-1.6-7.65-.75-.75-2.35-1.7-3.65-2.05-3.55-1.05-4.3-1.6-5.75-4.05-1.15-2.05-1.35-2.9-1.55-8.65l-.3-6.35-3.7-4.1c-3.15-3.5-3.9-4.05-4.65-3.65-1.4.75-4 .65-4-.2 0-.35.45-.8 1-.95 1.6-.4 1.35-4.05-.7-8.7-1.65-3.75-3.3-12.1-3.3-16.6v-1.7l-2.1.35c-1.15.2-2.35.7-2.7 1.2-.6.75-.65.6-.7-1.1 0-1.65.3-2.2 2-3.65 1.65-1.45 1.9-1.85 1.5-2.8-.75-1.8-2-13.45-2-18.35 0-4.35-.05-4.55-1-4.25-.7.25-1 .1-1-.45 0-.45-.2-.8-.5-.8-.25 0-.5-.8-.5-1.8 0-1.85 1.25-3.6 7.35-10.3 1.7-1.85 2.15-2.75 2.15-4.1 0-1 .45-2.5 1-3.4.55-.9 1-2.15 1-2.8 0-1.8 1.35-3.4 3.65-4.35 1.15-.5 3.25-1.75 4.6-2.8 1.95-1.45 3.1-1.9 5.25-2.1 1.5-.15 5.25-.85 8.25-1.55 7.55-1.75 14.55-2.2 18.75-1.1 3.8 1 5.5 2.1 8.25 5.3 2.65 3.1 3.35 3.55 6.55 3.85 3.75.4 3.35 2.1-.45 2.15-1.2 0-2.85 1.6-1.95 1.9.3.1.6.45.6.7 0 1.2 4.55 6.55 11.35 13.25 3.95 3.95 7.4 7.15 7.65 7.15.3 0 .95-.45 1.5-1 2.6-2.6 3.15-.1 1.8 8.3-.4 2.45-.85 5.7-.95 7.2l-.25 2.8 3.55 1.8c2 1.05 4.45 2.1 5.45 2.4 2.3.7 8.65 4.85 10.45 6.8 1.9 2.1 3.45 4.85 5.65 9.9 1.45 3.4 1.85 4.95 1.75 6.85-.15 2.4 1.65 7.45 2.65 7.45.2 0 .4.8.4 1.8v1.8l-2.75-.2c-2.7-.15-2.75-.15-2.75 1.2 0 .75-.35 3-.75 5-.35 2-1.05 5.55-1.5 7.9-1.85 9.7-2.95 13.7-8.25 31-.55 1.8-1.3 3.6-1.65 4.05-1.2 1.6-4.5 3.45-6.1 3.45-2.15 0-7.25 2.3-7.25 3.25 0 1.05-3.4 1.05-3.8 0-.5-1.25-1.55-.9-5.8 2.05-2.2 1.5-5.4 3.45-7.1 4.3-2.8 1.45-3.5 1.6-9.05 1.75-5.4.15-6.3.05-8.75-1zm60-64.55c0-.4-.2-.9-.5-1.05-.25-.15-.5.15-.5.7 0 .6.25 1.05.5 1.05.3 0 .5-.3.5-.7zm4.75-73.8c-.6-.7-1.55-1-2.95-1-1.75 0-2.15-.2-2.65-1.35-.7-1.45-.85-4.05-.35-5.35.2-.55.95-.8 2.45-.8 2 0 2.4.25 4.95 2.9 2.35 2.4 2.8 3.15 2.8 4.75 0 1.75-.05 1.85-1.65 1.85-1.05 0-2.05-.4-2.6-1zm-74.45-16.75c-.15-.45-.3-2.4-.3-4.3V148h4v2.25c0 1.7.2 2.25.8 2.25.6 0 .7.45.6 1.9-.15 1.8-.2 1.85-2.45 2-1.8.1-2.4-.05-2.65-.65zm-21-13.2c-.6-.7-.8-1.6-.7-3.35l.15-2.45 3.15-.15 3.1-.15v2.95c0 1.6-.25 3.15-.6 3.5-.95.95-4.1.75-5.1-.35zm28.8-6.9l.15-3.9 2.2-.15 2.2-.15-.35 3.1c-.15 1.7-.3 3.5-.3 4 0 .75-.4.95-2 .95h-2.05l.15-3.85z" fill="#73232d"/>
  <path d="M27.75 648.2c-1.7-.45-3.85-.55-6.8-.35-3.4.25-5 .1-7.4-.6-2.9-.9-3.05-1-3.05-2.55 0-1.3.3-1.75 1.6-2.4 1.9-1 4.4-1.1 3.5-.2-.35.35-.6 1.1-.6 1.7 0 .85.45 1.2 2.2 1.65 3.1.75 14.9.75 15.7-.05.45-.45.6-.15.6 1.5 0 2.05-.05 2.1-1.6 2.05-.9 0-2.75-.35-4.15-.75zm248.75-4.1c0-2.15.15-2.5 1.25-3 .7-.35 2.15-.6 3.2-.6 1.05 0 2.95-.55 4.3-1.25 2.25-1.2 2.4-1.25 3.1-.4.7.85.7.85.45.05-.2-.65 0-.9.6-.9 1.25 0 2.6 3 2.6 5.7v2.15l-3.85.35c-2.1.15-5.55.3-7.75.3h-3.9v-2.4zM425 613.35c0-1.25.45-2.1 1.75-3.35 1.4-1.35 1.75-2.1 1.75-3.65 0-1.9 0-1.9 1.85-1.75 1.7.15 1.95.35 3.45 3.4.9 1.8 1.65 3.4 1.65 3.65.05.2-.65.35-1.5.35s-2.45.65-3.7 1.5-2.85 1.5-3.7 1.5c-1.4 0-1.55-.15-1.55-1.65zM231.75 202.2c-.35-4.15-.3-4.6 1.25-7.7.2-.45 1.2-.8 2.45-.9l2.05-.15v2.6c0 1.45-.45 4.4-1.05 6.55-1.05 3.85-1.05 3.9-2.7 3.9h-1.65l-.35-4.3zM351.5 194c0-3 .1-3.5.9-3.5.65 0 .9.5 1 2.35.15 2.25-.6 4.65-1.5 4.65-.2 0-.4-1.55-.4-3.5zm-23-1.75c0-.4-.25-.75-.55-.75-.25 0-.35-.25-.2-.55.2-.3.35-1.75.3-3.25 0-2.05.15-2.7.7-2.7.4 0 .75-.35.75-.75s.35-.75.8-.75c.75 0 .8.45.55 3.4-.2 1.85-.35 3.95-.35 4.75 0 1-.25 1.35-1 1.35-.55 0-1-.35-1-.75zM273 101.5c-.7-.55-1.85-1-2.55-1-2.1 0-3.95-1.8-3.95-3.8 0-1.65.05-1.7 2.05-1.7 1.6 0 2.8.5 5.5 2.3 2.95 1.95 3.45 2.5 3.45 3.75 0 1.3-.15 1.45-1.6 1.45-.9 0-2.2-.45-2.9-1z" fill="#6c3838"/>
  <g fill="#813031">
    <path d="M245.75 648.75c-.25-.1-1.1-.3-1.85-.45-2.55-.55-3.95-5.85-2.1-7.9.5-.5.95-2.05 1.05-3.5.15-1.45.8-4.5 1.5-6.8 1.15-3.9 1.35-4.2 3.05-4.9 5.2-2.2 6.4-3 7.85-5.35 1.5-2.35 1.5-2.35 4.1-2.25 1.45.05 2.9-.15 3.25-.45 1.65-1.3 7.4-2.3 11.75-2 5.3.3 6.45.65 5.55 1.7-.75.95-.55 5.5.4 7.15l.7 1.25-.15-1.2c-.2-2.3 1-1.55 2.05 1.3.6 1.6 1.5 3.5 1.95 4.2.5.75 1.75 2.55 2.85 4.1 1.4 2.05 1.95 3.45 2.15 5.2l.2 2.4-.9-2c-.45-1.1-1-2.1-1.25-2.15-.2-.1-.3-.4-.15-.6.55-.9-1-2.5-2.3-2.5-2.1 0-2.25 1.4-.2 1.8 1.25.2 1.9.7 2.45 1.95.85 1.75.6 3.45-.45 3.05-.35-.1-1.05.1-1.6.45-.5.4-1.9.75-3.15.75-2 .05-5.85 1.45-4.05 1.5.55 0 .55.15.05.75-.55.65-.4.75.75.75s1.3.1.75.75c-.5.65-2.55.75-12.3.75H256v2.5l-4.85-.05c-2.7 0-5.1-.1-5.4-.2zm109.35-4.35c-.25-.35-.6-1.4-.65-2.25-.15-1.35.2-2 2.2-4.05 1.8-1.85 2.7-2.4 3.55-2.25.65.15 1.45-.1 1.85-.5.4-.4 1.6-1 2.7-1.35 3.6-1.15 6.45-2.65 7.9-4.1.75-.75 1.6-1.4 1.85-1.4.3 0 .5-.25.5-.55 0-.4-.6-.5-1.7-.3-2.55.4-1.95-.5 3-4.65 2.3-1.95 4.55-4.2 4.95-5 .9-1.75 3.25-11.2 3.25-13.1 0-1.25.2-1.4 1.7-1.4.95 0 1.85-.2 2.05-.45.7-1.15 6.2-3.65 8.6-3.9 1.45-.15 2.5-.5 2.35-.7-.15-.25.1-.6.55-.75.45-.2 2.3.45 4.35 1.5 1.9 1 4.1 1.8 4.8 1.8 1.7 0 5.7-4.15 8.4-8.75 1.85-3.2 2.2-3.5 3.8-3.65 1.6-.15 1.95.1 3.35 2 2.25 3.05 8.85 16.25 8.4 16.75-.25.2-.65 0-.9-.5-.9-1.55-1.95-1-1.95 1 0 1.45-.4 2.3-1.85 3.85l-1.9 2 2.65-1.85c1.6-1.15 2.6-1.6 2.6-1.15 0 1.05-4.6 5.1-7.8 6.75-1.65.9-4.75 2.55-6.95 3.7-4.25 2.25-13.2 8.3-21.5 14.55-2.75 2.05-6.9 4.75-9.3 6l-4.3 2.3h-10.8c-6.65 0-10.9.2-11.1.5-.45.7-4.05.6-4.65-.1zM217.5 257.45c0-2.85 1.2-4.9 2.9-4.95.45 0 .55.35.35.95-.25.75-.05.9 1 .65 1.35-.25 1.6.3.65 1.4-.55.6-.5.6.1.2 1.75-1.25 2.5-1.2 2.5.05 0 .8-.3 1.25-.75 1.25-.4 0-.75.2-.75.5 0 .75-2.8 2-4.5 2-1.4 0-1.5-.1-1.5-2.05zm133.5-8.2c0-.4-.2-.75-.5-.75-.25 0-.5-.5-.5-1.1 0-.65-.25-1.5-.5-1.9-.3-.5-.2-1 .25-1.5.65-.7.55-1.05-.55-2.6-1-1.35-1.25-2.2-1-3.15l.35-1.3 1.4 1.4c.8.8 1.55 1.9 1.75 2.5.2.6.65 1.35 1.05 1.65.75.65 1.05 5.15.45 6.7-.4 1-2.2 1.05-2.2.05zm.2-10.65c-1.4-1.1-2.45-3.1-1.65-3.1.85 0 3.05 2.5 2.85 3.3-.1.5-.4.45-1.2-.2zM244 221.75c0-.45-.8-1.25-1.75-1.8-1.2-.75-1.75-1.4-1.75-2.25 0-.75.25-1.1.65-.95.3.15 1.6-.65 2.8-1.75 2.15-1.95 2.15-2.05 1.85-4.4-.15-1.3-.45-5.8-.65-9.95-.15-4.2-.35-7.65-.45-7.65-.05 0-.7.2-1.4.5-1.15.4-1.3.35-1.3-.65 0-1.4.9-2.35 2.15-2.35.65 0 .85.25.65.8-.2.55-.1.75.4.55.75-.3 1.3 2.45 1.3 6.5 0 3.75 1.55 14.8 2.4 17.1l.8 2.15-2.6 2.45c-2.85 2.7-3.1 2.8-3.1 1.7zm107.85-38.6c-.2-3.25-.5-8.3-.65-11.25-.3-4.55-.25-5.4.4-5.4.4 0 1 .8 1.4 1.75.6 1.55.75 1.6 1.3.85.35-.45.75-.75.85-.6.45.45.6 15.9.2 15.85-.25-.05-.8.95-1.2 2.3-1.35 3.95-1.95 3-2.3-3.5zm-68.35-29.9c0-1.25-.2-2.25-.5-2.25-.25 0-.5-.75-.5-1.65 0-1.25.55-2.35 2.25-4.3 4.3-5.05 4.8-7.45 2.15-10.3l-1.65-1.75-2.5 2c-2.05 1.6-2.9 2-4.65 2h-2.15l-2.35-5.05-2.35-5-8-.15c-7.95-.2-13.3-1-17-2.5-1.65-.7-1.75-.7-1.75.2 0 .5-.1 1.25-.25 1.6-.2.45.25 1 1 1.4 1 .55 1.25 1.05 1.25 2.5 0 2.5-1.65 4-4.4 4-1.85 0-2.15-.2-2.9-1.6-.45-.9-1.6-2.7-2.5-4-2.8-3.75-3.55-6.15-3.9-11.9-.2-2.9-.5-5.3-.75-5.4-.6-.2-.2-3.05.8-6.2.5-1.65 1.35-2.95 2.8-4.15 2-1.7 2.1-1.75 6.45-1.75h4.45l2.85-3 2.9-3 5.2-.05c2.9-.05 6 0 6.95.05 2.4.15 5.85 1.75 6.15 2.85.2.8 0 .95-1.3.85l-1.55-.1 1.4 1.2c.75.65 2 1.2 2.7 1.2.65 0 1.9.45 2.7 1.05.8.55 1.45.85 1.45.6 0-.2-.85-.95-1.85-1.65-1.6-1.1-1.7-1.25-.8-1.4.55-.1 1.85.4 2.9 1.1 1.05.75 2.15 1.3 2.45 1.3.3 0 1.2.7 1.95 1.5.8.85 1.95 1.5 2.55 1.5.8 0 1.7.8 3.1 2.85 1.05 1.55 4.05 5.45 6.65 8.6l4.65 5.8-.3 5.25c-.65 12.25-2.45 18.95-7.2 27.15l-1.65 2.85h-4.95v-2.25zm2.75 1.25c.15-.25-.05-.5-.45-.5-.6 0-.8-.55-.8-2.25 0-1.25-.2-2.25-.5-2.25-.55 0-.7 3.45-.2 4.7.35.9 1.5 1.05 1.95.3zm6.75-18.2c0-.95.15-2.1.35-2.6.2-.55.1-.75-.4-.6-.7.25-1.05 4.9-.3 4.9.2 0 .35-.75.35-1.7zM234.3 114c-.25-2.45-.65-4.5-.85-4.5-.25 0-.45.6-.45 1.3 0 1.9 1.1 7.7 1.45 7.7.2 0 .1-2-.15-4.5z"/>
    <path d="M262.25 136.05c-4.5-1.6-4.8-1.9-4.65-3.95.15-1.85.15-1.85 2.6-2 4.7-.3 8.8 2.1 8.8 5.15 0 1.7-.05 1.75-2.1 1.75-1.2-.05-3.3-.45-4.65-.95z"/>
  </g>
  <path d="M307.85 353.15c-.7-1.15-.9-6.85-.3-7.95.85-1.6 1.45-1.5 1.45.2 0 1.05.1 1.2.5.6.55-.85.7 4.45.2 6.4-.3 1.05-1.4 1.5-1.85.75zm15.3-43.4c-1.35-.55-1.45-1.35-.4-2.25.4-.35.75-.95.75-1.35 0-.65.5-.75 2.55-.55 2.3.25 2.55.15 2.95-.85.25-.65.85-1.45 1.4-1.8.5-.4 1.2-1.2 1.55-1.8.35-.65 1.05-1.15 1.7-1.15.6 0 2.05-.5 3.25-1.1 1.7-.95 2.25-1.6 2.85-3.45.45-1.35 1.5-2.95 2.5-3.85 1.4-1.2 1.75-1.9 1.75-3.35 0-1.35.4-2.2 1.65-3.5.95-.95 2.25-2.45 2.9-3.3 1.4-1.85 3.7-2.95 6.1-2.95.95 0 2.6-.3 3.65-.7 1.1-.35 3.1-.8 4.45-1 1.4-.2 3-.7 3.6-1.1.6-.4 1.55-.7 2.15-.7.75 0 1-.35 1-1.25 0-1.15.15-1.25 2.45-1.25h2.4l3.2 6.1c1.75 3.4 3.5 7.05 3.85 8.15.4 1.1 1.5 3.7 2.45 5.75 1.05 2.3 1.85 4.9 2 6.65.3 3.1-.25 3.7-1.4 1.5-.85-1.65-5-5.7-5.5-5.35-.2.1-.45-.15-.6-.55-.2-.4-.75-.6-1.35-.5-.55.1-1-.05-1-.3 0-.3-.25-.35-.5-.2-.5.3-4.7-.45-6.5-1.1-.4-.2-.95-.25-1.2-.2-.25.05-.6-.1-.75-.35-.5-.8-6.8.65-8.35 1.85-.7.55-1.65 1.05-2 1.05-.4 0-.7.2-.7.45 0 .3-.45.4-1 .3-.55-.1-.9 0-.8.2.4.6-4.6 3-7.3 3.5-1.65.3-2.8.9-3.8 1.95-.8.85-2.2 1.85-3.15 2.3-3.9 1.85-6.25 3.4-7.2 4.75-.5.8-1.15 1.35-1.35 1.25-.2-.15-.4-.05-.4.2 0 .6-6.45.5-7.85-.15zm57.65-17.9c-.7-1.5-1.3-2.85-1.3-3.05 0-.2-.4-.75-.9-1.3-.5-.5-1.2-2.05-1.6-3.35-.5-1.8-.7-2.1-.85-1.3-.1.6.05 1.55.35 2.15.3.6.65 1.5.75 2 .3 1.45 4.4 8.75 4.65 8.1.1-.3-.4-1.75-1.1-3.25zm2.6 16.85c-.25-.2-.4-1.05-.4-1.9 0-1.05.15-1.35.55-.95.3.3.45 1.15.35 1.9-.1.75-.3 1.15-.5.95z" fill="#514a4a"/>
  <path d="M30.35 648.65c-.8-.75-.35-1.75.65-1.5.55.15.9.1.75-.1-.1-.2.55-1.15 1.5-2.05 1.3-1.25 1.75-2.1 1.75-3.35 0-.9.2-1.65.5-1.65.25 0 .35-.35.2-.75-.25-.55.05-.75.95-.75 1.15 0 1.25.25 1.6 2.8.35 3.1-.1 6.75-.95 7.3-.7.5-6.5.5-6.95.05zM322 308.55c0-.55.25-1.15.5-1.3.3-.15.5-1.25.5-2.4s.25-2.45.5-2.85c.4-.65.55-.6 1.25.25.45.65.65.7.5.2-.2-.6.5-1.1 2.85-2.1 1.75-.75 3.85-1.35 4.7-1.35 1.55 0 4.85-1.9 6.05-3.45.35-.45 1.1-2.25 1.65-4.05.55-1.8 2-6.5 3.25-10.5s2.25-7.65 2.25-8.15.45-1.75 1-2.85 1-2.9 1-4c0-3.35 1.9-9.8 3.4-11.5 1.05-1.2 1.7-1.5 3.4-1.5 1.4 0 2.2-.25 2.4-.75.45-1.2 4.25-1 5.35.35.55.55.95 1.25.95 1.5s1.2 2.3 2.7 4.55c5.15 7.9 8.3 13.7 8.3 15.3 0 1.6-.8 2.1-1.3.8-.45-1.05-2.2-.95-2.2.15 0 .45.45 1.6 1.05 2.55.55.9.9 1.9.8 2.2-.1.3-.65-.3-1.25-1.3-1.15-2-2-2.25-3.75-1.15-.6.4-2.2.9-3.6 1.1-1.35.2-3.35.65-4.45 1-1.05.4-2.7.7-3.65.7-2.4 0-4.7 1.1-6.1 2.95-.65.85-1.95 2.35-2.9 3.3-1.25 1.3-1.65 2.15-1.65 3.5 0 1.45-.35 2.15-1.75 3.35-1 .9-2.05 2.5-2.5 3.85-.6 1.85-1.15 2.5-2.85 3.45-1.2.6-2.65 1.1-3.25 1.1-.65 0-1.35.5-1.7 1.15-.35.6-1.05 1.4-1.55 1.8-.55.35-1.15 1.15-1.4 1.8-.55 1.4-3.15 2.15-4.3 1.2-.4-.3-.75-.5-.85-.4-.05.1-.35.65-.65 1.2-.8 1.4-2.7 1.65-2.7.3zm61.5-122c-1.5-.5-4.15-1.65-5.85-2.5l-3.05-1.65-8.2 1.8c-8.1 1.75-8.15 1.75-9.7.85-1.2-.7-1.75-.8-2.15-.4-.45.45-.55-1.55-.45-7.6.1-5.5.35-8.3.7-8.4.3-.1 1.6.6 2.9 1.6 2.85 2.2 2.95 1.7.2-1.1-2.45-2.5-1.95-2.8 1-.65 1.15.85 2.2 1.5 2.35 1.5.15 0 1.45.85 2.9 1.95 1.45 1.05 5.4 3.55 8.85 5.55 3.45 2 6.55 3.85 6.85 4.1 1 .8 5.9-4.25 7.75-8 2.4-4.85 2.05-9.9-1.15-16.25-.8-1.6-1.45-3.65-1.45-4.6 0-1.7.05-1.75 1.95-1.75 1.7 0 2.3.4 5.65 3.65 5.65 5.45 6.4 7.05 7 14.75.45 6.15.25 9.6-.5 9.6-.25 0-.8 1.05-1.3 2.4-.45 1.3-1.5 3.1-2.25 4-1.25 1.45-1.5 1.55-2.05.85-.75-.95-1.65-.95-3.4-.05-2.35 1.15-3.8 1.25-6.6.35zm-30.9-6.9c.05-5.8.1-6.4.4-3.65.6 4.95.55 10.5 0 10.5-.3 0-.45-2.55-.4-6.85z" fill="#714f4f"/>
  <path d="M332.2 300.55c.15-.2 1.6-1.25 3.2-2.3 1.6-1 3.35-2.5 3.8-3.3 1.15-1.95 1.95-1.85 1.15.15-.85 2.1-5.45 5.9-7.15 5.9-.7 0-1.15-.2-1-.45zm10.3-15.2c0-.4.75-3.15 1.7-6.15.95-3 2.25-7.75 2.85-10.55.85-3.8 1.4-5.15 1.95-5.15.6 0 .75.65.75 2.9 0 2.3-.3 3.45-1.6 5.8-.9 1.65-1.65 3.45-1.65 4 0 .6-.35 2.05-.8 3.3-.45 1.25-.95 3.15-1.15 4.25-.2 1.3-.6 2.05-1.2 2.15-.5.1-.85-.15-.85-.55zm6.75-26.55c.15-2.05.8-5.35 1.35-7.4 1.25-4.35 1.3-7.6.25-9.6-.8-1.45-.7-2.3.2-2.3.25 0 .45.3.45.7 0 .35.45 1.25 1.05 2 .55.75 1.2 1.95 1.4 2.7.25.95.75 1.4 1.6 1.5.7.1.95 0 .65-.25-.3-.2-1.2-1.6-1.9-3.1-.75-1.45-1.9-3.2-2.55-3.85l-1.2-1.2h1.2c.75 0 1.25.3 1.25.7 0 .35.45 1.25 1.05 2 .55.75 1.2 1.95 1.4 2.7.25 1 .75 1.4 1.7 1.5.75.1 1.35.35 1.35.55 0 .2.9 1.75 2 3.45 1.45 2.2 2 3.55 2 4.95-.05 1.7-.1 1.8-.7 1.05-.35-.5-.95-.9-1.25-.9-.35 0-.5-.2-.35-.45.2-.25-.1-.4-.55-.35-.6.1-.85.5-.75 1.2.1.8-.05.95-.9.75-.6-.15-1-.05-1 .35 0 .45-.3.4-.9-.15-.5-.5-1.15-.85-1.4-.85-.75 0-3.25 3.05-2.9 3.55.15.25.05.45-.2.45s-.6.9-.8 2c-.2 1.35-.55 2-1.1 2-.7 0-.75-.5-.45-3.7zM239.5 194.4c.05-2.65 1.5-5.1 3.1-5.3 1.1-.15 1.35 0 1.1.6-.2.55-.05.8.5.8 1.55 0 .4 2.15-1.7 3.25-.85.45-1.5 1.1-1.5 1.5 0 .4-.35.75-.75.75-.5 0-.75-.5-.75-1.6zm138.65-11.2c-.65-.7-1.15-1.4-1.15-1.5 0-.1 1.6-.2 3.6-.2 3.45 0 3.55.05 2.6.9-.75.7-3.4 2.15-3.85 2.1-.05 0-.6-.6-1.2-1.3z" fill="#8d5453"/>
  <path d="M348.5 265.25c-.5-.6-.45-1.45.2-4.3.45-1.95.8-4.05.8-4.65 0-2 1.05-4.8 1.75-4.8.9 0 .9-.1 0 2.5-.4 1.15-.75 3.45-.75 5.1 0 1.6-.3 3.7-.7 4.65-.4.9-.6 1.8-.4 1.95.15.15.15.3 0 .3s-.55-.35-.9-.75zm11.5-5.35c-.65-.9-1.9-2.4-2.75-3.3-1.55-1.75-2.5-5-1.7-5.85.65-.65 2.65 1.9 3.75 4.75.45 1.25 1.4 2.9 2.05 3.65.6.8 1.15 1.65 1.15 1.9 0 1-1.4.35-2.5-1.15z" fill="#986968"/>
  <path d="M306.85 363.4c-.2-1.4-.55-2.8-.85-3.1-.75-.75-.6-6.05.2-8.05.8-1.9 2.55-2.4 3-.85.35 1.15.35 10.35 0 12.75-.2 1.35-.55 1.85-1.15 1.85-.7 0-1-.55-1.2-2.6z" fill="#c6a09b"/>
  <path d="M407.35 602.65c-1.3-1.25 2.2-3.65 5.4-3.65 2.05 0 2.2.45.65 1.85-2.1 1.9-5.1 2.8-6.05 1.8zM275.5 331.35c0-1.2.2-2.35.45-2.6.45-.45 3.05-6.55 5.1-11.95 1.1-2.95 1.55-3.3 4.35-3.3 2.1 0 2.1 0 2.1 1.8 0 1.05-.75 3.4-1.8 5.6-1 2.15-2.35 5.4-3 7.3-1.55 4.5-2.3 5.3-5.05 5.3h-2.15v-2.15zm-59.75-18.5c-.85-.6-2.55-1.9-3.75-2.9-1.25-1-2.75-2.1-3.35-2.4-1.55-.8-1.5-2.95.2-5.75l1.35-2.25 3.55.25c3.35.3 3.65.25 6.65-1.45l3.1-1.8v2.65c0 2.5-1 5.4-2 6.05-.3.2-.35 1.95-.15 4.05.25 3 .15 3.9-.4 4.25-1.2.75-3.65.4-5.2-.7zM181 288c0-1.8.4-2.45 4.25-6.65 4.95-5.45 9.8-9.85 12.25-11.1.95-.45 2.45-1.4 3.35-2.05 1.1-.85 2.25-1.2 3.8-1.2 2.4 0 2.85.45 2.85 2.9 0 1.85-.5 2.4-2.4 2.85-3.65.75-7.8 3.9-15.65 11.9-4.5 4.5-5.55 5.35-6.9 5.35-1.45 0-1.55-.1-1.55-2zm170.5-48.95c-1.15-1.2-4.1-5.75-6.85-10.6-.6-1.1-1.75-2.85-2.6-3.9-1.7-2.1-1.95-3.05-.85-3.05 1 0 7.6 7.2 8 8.7.15.65 1.1 2.4 2.05 3.85.95 1.5 1.75 2.85 1.75 3.1 0 .2.25.25.5.1.3-.2.5.4.5 1.45 0 2.15-.7 2.25-2.5.35zm-120-35.55c0-2.65.15-3.5.7-3.5.85 0 1.3 1.05 1.35 3.4l.05 1.85.65-1.75.65-1.75.05 2.65.05 2.6h-3.5v-3.5zm19.5-27.25c0-.4-.45-.75-1-.75-.65 0-1.05-.45-1.25-1.35-.8-3.85-1.45-6-2.05-7-.4-.6-.7-1.8-.7-2.6 0-1.6.25-1.75 3.85-2.3 1.1-.2 2.45-.65 3-1 1.25-.95 5.15-.95 6.55.05 1.35.95 2.1.55 2.1-1.1 0-.65.25-1.2.55-1.2.25 0 .85-.8 1.25-1.75.65-1.6.9-1.75 2.7-1.75 1.05 0 2.05.15 2.15.4.15.2.4 1.65.55 3.2.35 2.85.35 2.9-1 3.4-.9.35-1.45.35-1.65.05-.2-.3-1.3.25-2.55 1.25-1.25 1-3.3 2.25-4.6 2.8-2.5 1.1-3.9 2.65-3.9 4.5 0 .65-.45 1.9-1 2.8-.55.9-1 1.95-1 2.35 0 .4-.45.75-1 .75s-1-.35-1-.75zm100-9.6c0-1.75-2.85-6.5-6.2-10.4-1.4-1.65-3.35-4-4.3-5.25-.95-1.25-1.85-2.35-2-2.5-.15-.15-2.05-2.4-4.25-5s-5.05-5.75-6.3-7-3.25-3.45-4.4-4.9c-1.8-2.4-2.05-3-2.05-5.4v-2.7h2.2c2.15 0 2.25.1 6.65 5.15 2.45 2.8 5.2 6.1 6.15 7.35 2.65 3.35 5.9 7.4 9.3 11.55 6.5 7.9 10.7 14.95 10.7 18 0 1.55-.85 1.95-1.3.7-.5-1.25-2.15-.9-2.5.5-.4 1.7-1.7 1.6-1.7-.1zm-97.9-12.25c-.35-.35-.6-1.45-.6-2.5 0-1.9 0-1.9 1.95-1.9 3.15 0 3.55.35 3.55 2.8v2.2h-2.15c-1.2 0-2.4-.25-2.75-.6zm43.15-52.4c-.3-.95 0-5.05.6-8.25l.3-1.45-1.8 1.35c-1.85 1.4-4.15 1.75-5.8.9-.5-.3-1.5-1.4-2.25-2.5-1.2-1.7-1.4-2.6-1.65-6.75l-.3-4.75-1.8-.15c-1.65-.15-1.8-.3-1.95-1.95-.2-2.65.85-3.3 6.3-3.7l4.6-.35v1.4c0 .8-.7 2.8-1.55 4.45-1.3 2.5-1.55 3.35-1.25 4.85.8 4.3 3.55 5.05 5 1.4l.8-2 4.85.05c7 0 8.75.4 9.35 2.05.6 1.75-.45 7.7-1.7 9.8-.8 1.3-1.3 1.6-2.75 1.6-1.7 0-1.75-.05-1.8-1.85v-1.9l-.9 2c-.5 1.1-1.05 2.75-1.2 3.7-.5 2.35-1.2 3.05-3.15 3.05-1.2 0-1.7-.25-1.95-1z" fill="#eea48f"/>
  <g fill="#f8b196">
    <path d="M38.35 614c-.2-2.5-.65-5.15-1.05-5.9-.9-1.7-3.55-4.1-4.55-4.1-.5 0-.75-.5-.75-1.7 0-1.4.4-2.05 2.05-3.5 1.15-.95 2.75-1.9 3.65-2.1.85-.15 1.9-.6 2.35-1 1.35-1.2 8.05-3.7 9.95-3.7 1.7 0 1.9.15 3.05 2.6.65 1.45 2.15 4.4 3.35 6.6 2.6 4.9 2.85 7.5.75 7.95-.8.15-1.6.75-1.9 1.45-.35.8-2.3 2-6.1 3.9-3.1 1.5-5.9 3.05-6.25 3.4-.3.3-1.4.6-2.45.6h-1.8l-.3-4.5zm366.6-12.2c-1.55-.6-3.55-1.65-4.4-2.3l-1.6-1.1 1.35-1.45c.75-.75 3.3-2.6 5.65-4 2.35-1.45 5-3.15 5.85-3.8.85-.65 1.65-1.05 1.8-.9.1.15.75-.3 1.4-1 1.35-1.45 2.45-1.55 4.75-.45 1.75.85 2.65 2.7 1.55 3.3-.35.2-1.5 1.85-2.6 3.65-2.3 4-5.1 7.35-5.75 6.95-.25-.15-1.5.3-2.75 1-1.3.7-2.35 1.3-2.4 1.3 0 0-1.3-.55-2.85-1.2zm-109.7-236.85c-2.45-.8-4.9-1.45-5.35-1.45-1.35 0-5.15-.95-10.4-2.65-3.45-1.1-5.65-1.5-8-1.45-2 0-3.55-.2-4-.6-.95-.8-5.1-2.45-9.75-3.85-1.9-.6-3.9-1.5-4.4-2-.5-.5-1.35-.95-1.85-.95-.55 0-1-.3-1-.7 0-.4-.35-1.1-.8-1.55-.6-.6-.75-1.4-.55-3.1.25-2.4.9-3.15 2.75-3.15.6 0 1.25-.3 1.4-.7.15-.4 1.35-.85 2.85-1.05 1.45-.2 3.55-.75 4.65-1.3 1.8-.85 3.35-1 13.25-1.1 22.2-.2 31.3 0 33.05.7 1.15.45 1.35.9 1.65 3.45.2 1.65.25 3.15.1 3.35-.15.2-.1 1.45.15 2.8.2 1.3.15 2.35-.1 2.35-1.3 0-2.5 6.05-1.35 6.8.9.55.2 6.25-.85 7.05-1.5 1.1-6.55.7-11.45-.9zm-15.95-27.5c-3.4-.5-10-2.3-11.8-3.2-.7-.35-4.15-1.55-7.75-2.75-3.55-1.15-6.85-2.25-7.25-2.45-.4-.2-2.4-.8-4.35-1.25-2.15-.55-3.65-1.15-3.65-1.55 0-.85-1.7-1.35-5-1.45-3.1-.1-6.6-1.5-13.8-5.7-5.2-3-7.95-5.8-6.55-6.85.65-.5.75-1.2.5-4.15-.2-2.7-.1-3.85.4-4.5 1.3-1.6 1.95-3.1 1.95-4.4 0-1.15-.1-1.25-.85-.7-.5.35.1-.25 1.35-1.4 1.95-1.8 2.55-2.05 4.65-2.1 2.95 0 5.05 1 11.35 5.5 2.6 1.85 5.2 3.6 5.75 3.9 1.65.85 12.9 1.85 13.15 1.15.1-.3.6-.55 1.15-.55 1.05 0 6.65-1.65 9.2-2.7.85-.35 2.85-1.05 4.5-1.55s3.85-1.2 4.9-1.55c3.05-1.1 4-.9 5.1 1.1.55 1 1.95 2.65 3.1 3.7 2.3 2 2.7 3 1.25 3-.5 0-1.9.45-3.1 1.05-2.4 1.15-2.2 1.5 1.15 2.5 1.25.35 14.6 1.95 16.5 1.95.2 0 .35.35.35.8 0 .45.45.9 1 1.05.95.25 1 .7 1 6 0 4.8-.15 6-1.05 7.8-2.7 5.3-6.25 8.35-9.9 8.35-1.25 0-3.55.35-5.05.75-3 .8-3.85.85-8.2.2zm-.15-6.35c.5-.5 1.4-2.5 2.05-4.4.65-1.9 2-5.2 3-7.35 1.05-2.15 1.75-4.05 1.65-4.2-.65-.6-2.3.55-2.85 2-1.2 3.1-4.1 10.1-5.05 12.15-.5 1.1-.95 2.15-.95 2.35 0 .7 1.35.35 2.15-.55z"/>
    <path d="M182.45 304.9c-.45-.4-.9-1.1-1-1.65-.15-.6-1.1-1.45-2.45-2.1l-2.25-1.05-.05-5.55c0-3.05.15-5.55.4-5.55.2 0 .4-1.1.4-2.45 0-5.15 6.3-15.7 20.75-34.75 2.5-3.25 5.5-7.2 6.75-8.75 1.25-1.55 2.7-3.75 3.2-4.95.5-1.15 1.15-2.1 1.4-2.1s1-.55 1.7-1.25c1.25-1.25 1.25-1.25.9-.15-.2.65-.45 1.45-.55 1.8-1 2.55 4.4-3.7 6.75-7.85 1.6-2.8 2.55-6.4 3.6-13.65.25-1.85.95-4.3 1.5-5.35 1.25-2.45 1.25-2.55 0-2.55-.7 0-.9-.25-.65-.85.2-.5.6-1.1 1-1.3.35-.2.65-.95.65-1.65 0-1.65 2.9-5.7 4.05-5.7.5 0 1.05-.2 1.2-.5.5-.8 4.25-.6 4.25.2 0 .4-.2.85-.45 1-.25.2-.45 1.9-.5 3.9-.05 4.65.65 4 2.1-2 .85-3.5 1.3-4.6 1.95-4.6.45 0 1 .45 1.15 1 .15.55.7 1 1.2 1 .8 0 .8.25.2 3.9-1 5.55-1.05 12.75-.15 13.9.4.45 1.95 1.6 3.4 2.55 1.4.9 2.6 2 2.6 2.45 0 2.1-3.8 6.9-6.9 8.8-3.2 1.9-6.05 5-9.8 10.65-4 6.05-10 16.95-9.7 17.75.1.3 1.4-.3 2.9-1.25 1.5-1 3.55-2.15 4.5-2.55 1.75-.8 10.75-3.2 11.8-3.2.35 0 .75 1.25.95 3 .2 1.65.55 3 .8 3s.45 1.35.45 3 .2 3 .5 3 .5-1.65.55-3.85c0-3.85.55-8.4 1.05-8.9.15-.15 2.6-.3 5.45-.4 2.85-.1 5.7-.4 6.3-.75 2.55-1.4 3.85-.85 7.8 3.55l3.7 4.1.3 6.35c.2 5.75.4 6.6 1.6 8.65 1.2 2.1 2.5 3.05 5.4 3.95.45.15.85.6.85 1.05 0 .7-1.25.75-11.35.45-6.3-.15-12.15-.5-13.05-.8-.9-.25-2.45-1.25-3.4-2.2l-1.7-1.75v1.75c0 2.55-1.6 2.85-9.85 1.6-9.25-1.4-13.9-5.05-17.6-13.9-1.15-2.75-1.65-2.75-3.8.2-.8 1.1-2.2 2.9-3.1 3.95-.85 1.1-1.95 3-2.4 4.3-.5 1.35-1.4 3.85-2.1 5.6-.65 1.75-1.65 5.35-2.2 7.95-1.1 5.35-.85 6.95 1.5 10.05 1.15 1.55 1.3 2.15 1.3 6v4.3l-5 .6c-8.35 1.05-17.85 1.3-18.8.55zm13.25-29.15c3.15-2.55 5.8-4.05 7.9-4.5 1.8-.4 2.45-1.05 2.05-2.1-.4-1-1.5-.8-3.3.55-.9.65-2.4 1.6-3.35 2.05-.95.5-3.15 2.15-4.9 3.7-3.75 3.3-11.6 11.85-11.6 12.65 0 .3 2.4-1.9 5.4-4.9 2.95-3 6.45-6.35 7.8-7.45zm153.05-50.2c-1.9-3.75-8.8-9.25-13.15-10.55-1-.3-3.5-1.35-5.5-2.4l-3.65-1.85.3-4.5c.2-2.45.75-7.1 1.25-10.25 1.75-11.15 2.9-28.05 2-29.5-.2-.35-.85-.5-1.45-.35-.95.25-1.05.05-1.05-1.75 0-2.8-1.95-5.9-3.75-5.9-.35 0-1.4-1.2-2.35-2.6-.95-1.45-2.7-3.75-3.85-5.15-1.1-1.35-2.05-2.65-2.05-2.9 0-.2-1.35-2-3-3.95-1.65-2-3-4.05-3-4.65 0-1-5.3-6.75-6.2-6.75-.6 0-2.45-2.05-3.75-4.2-.8-1.25-1.5-1.8-2.35-1.8-1.1 0-1.2-.2-1.2-2.45 0-2.35-.2-2.7-4.6-8.15-2.55-3.15-5.55-7-6.6-8.55-1.45-2.1-2.25-2.85-3.15-2.85-1.35 0-1.25 1.3-1.3-14.25-.05-9.05.05-10.75.8-12.15.5-.85 1.2-1.6 1.55-1.6.35 0 .95-.35 1.3-.75.35-.4 1.2-.75 1.85-.75.7 0 1.95-.3 2.8-.7.9-.35 2.2-.9 3-1.2.75-.35 1.35-.8 1.35-1.1 0-.3 2.15-.5 5.65-.5 4.65 0 6.35.2 9.6 1.25 2.2.7 4.4 1.5 4.85 1.75.5.3 1.3.5 1.75.5 1.45 0 3.05 2.95 3.65 6.75.3 1.95 1.1 5.1 1.85 7 1.15 3.2 1.8 4 7.35 9.5 6.1 6.05 12.25 11.2 24.8 20.7 12.75 9.7 35.65 30.75 36.1 33.25.2 1.05.15 1.15-.65.65-1.55-.95-1.55-.1 0 2.95 2.05 4.15 2.7 6.8 2.75 11.7.05 3.6-.15 4.7-1.3 7.1-1.65 3.55-5.45 7.65-7.75 8.45-1.55.5-2 .4-4.6-.95-12.4-6.5-21.15-13.35-22.6-17.7-.85-2.55-5.75-10.05-10.05-15.25-3.5-4.2-6.75-8.3-9.4-11.65-3.85-5-10.65-12.5-11.3-12.5-2.25 0 .65 5.05 5.75 10 1.25 1.25 4.1 4.4 6.3 7 2.2 2.6 4.1 4.85 4.25 5 .15.15 1.05 1.25 2 2.5s3 3.75 4.55 5.55c1.5 1.8 3.5 4.5 4.35 6.05 1.55 2.65 1.6 3.1 1.95 9.95.4 8.85.5 18.75.15 24.7l-.25 4.5 1.9.15c2.25.2 2.45 1.2.6 2.9-1 .95-1.25 1.65-1.25 3.65 0 1.35-.2 2.55-.5 2.65-.25.1-.6 1.5-.75 3.15-.2 1.65-.55 3.45-.8 4-.25.55-.5 3-.55 5.5-.15 3.75-.3 4.5-1 4.65-.55.1-1.15-.4-1.65-1.35zM299.9 98.35c.85-3.45 2.6-8 3.65-9.35.95-1.25.95-1.25 1.75-.25.75 1 .75 2.4-.05 6.5l-.3 1.5 1-1.15c.55-.65 1.25-2 1.5-3 1.5-5.95 1.35-6.1-5.3-6.45l-5.1-.3-.75 1.85c-.8 1.95-2.6 3.75-3.7 3.8-1.2 0-3.25-1.7-3.9-3.35-1.2-2.85-.9-6.5.8-9.5 1.6-2.8 1.4-3.2-.9-1.75-1.4.85-1.4.85-1.35 6.2.05 5 .15 5.45 1.5 7.4 2.15 3.1 2.95 3.35 5.15 1.6 1-.85 2.4-2.1 3.05-2.8 1.1-1.15 3.05-1.8 3.05-1 0 .15-.45 2-.95 4.1-.85 3.4-1.25 6.4-1.1 8.55.1 1.35 1.45-.45 1.95-2.6zM285.5 76.6c-.75-.25-2.55 1.4-2.2 2 .15.25.85-.05 1.55-.7.7-.65.95-1.2.65-1.3zm-39.3 89.5c-.95-.6-1.95-8-2.5-18.45l-.3-5.15h-1.35c-1.35 0-1.4-.1-1.95-4.1-.75-5.2-.75-6.75-.05-7.2.35-.2.8.05 1.05.5.65 1.15 1.55 1 2.95-.5 1-1.05 1.1-1.35.45-1.7-2.65-1.55-2.6-1.25-1.25-7.35l.25-1.1 3 1.25c5.3 2.15 9.65 2.85 18.2 2.9l7.95.05 2.4 5.15c1.3 2.8 2.7 5.1 3.05 5.1.35 0 1.8-.9 3.15-2 3.1-2.45 4.95-2.6 6.95-.6 2.4 2.55 2.8 6.2 1 9.65-.35.75-1.7 2.5-2.95 4-1.9 2.25-2.25 2.95-2.25 4.75 0 3.5 1.05 4.75 2.5 2.95 1.25-1.5 2-.85 2 1.7v2.5l-2.85.3c-4 .45-7.55 1.1-13.25 2.55-2.65.65-4.9 1.2-5 1.2-.1 0-.2-.75-.3-1.65-.2-2.8-.4-3.55-1-3.75-.35-.1-.75.15-.9.6-.15.4-.55.65-.85.55-.75-.25-3.95 1.35-4.05 2 0 .3.6.55 1.35.65 1.1.15 1.4.4 1.25 1.25-.25 1.6-2.65 1.95-5 .65-1.8-1-1.9-1-3.35-.15-.8.45-2.5 1-3.75 1.15-1.25.2-2.3.55-2.3.8s-.3.3-.6.1c-.5-.3-.5-.2 0 .35.3.35.6.85.6 1.05 0 .5-1.55.5-2.3 0zm10.3-13.3c0-.75-1.85-1.6-2.35-1.1-.45.4.85 1.8 1.65 1.8.4 0 .7-.3.7-.7zm-10.2-11.15c.45-1.7-.35-2.9-1.85-2.9-1 0-1.15.25-1.05 1.2.1 1.25 1.4 3.05 2.15 3.05.25 0 .6-.6.75-1.35zm19.1-.25c.35-.35.6-1.25.6-2.05 0-1.3-.15-1.4-1.6-1.25-1.95.2-2.45 1.5-1.1 2.95 1 1.1 1.3 1.15 2.1.35zm1.8-6.65c-.35-.9-5.05-3.25-6.5-3.25-1.6 0-1.95.85-.6 1.55 1.45.8 6 2.4 6.75 2.45.35 0 .5-.35.35-.75z"/>
  </g>
  <path d="M284.05 621.15c0-.5-.15-2.2-.35-3.75-.4-3.35.15-3.75 2.45-1.6 1.35 1.25 1.45 1.25 2.1.4.55-.75.7-.8.7-.2 0 1.55-1.75 4.25-3.3 5.15-1.55.85-1.6.85-1.6 0zm-2.85-3.9c.5-2.05 1.3-2.8 1.3-1.15 0 .7-.35 1.6-.85 1.95-.75.65-.8.55-.45-.8zm-3.65-.4c-.75-.95-.2-1.35 1.85-1.35 1.7 0 1.75 0 .85 1-1.05 1.15-1.9 1.25-2.7.35zM27.4 605.15c-1.6-.4-.9-1.4 2-2.8 3.25-1.55 5.65-1.85 4.6-.6-.5.65-.45.75.45.75.65 0 1.05.3 1.05.9 0 1.3-5.35 2.5-8.1 1.75zm101.95-66.5c-.55-.5-.4-1.65.2-1.65.3 0 1.2-.55 2.05-1.25.8-.7 2-1.25 2.65-1.25.65 0 1.35-.2 1.5-.5.15-.25.55-.5.8-.5.8 0 .3 3.6-.55 4-.4.2-1.25.6-1.85.9-1.25.65-4.3.8-4.8.25zM153 502.9c0-.35.45-1.6 1-2.75.65-1.5 1.25-2.15 2-2.15.8 0 1 .3 1 1.8 0 2.55-.75 3.7-2.5 3.7-.9 0-1.5-.25-1.5-.6zm109-7.1c0-2.2.8-2.8 4.2-3.15l2.8-.3v2.05c0 2.5-.85 3.1-4.45 3.1H262v-1.7zm26.4-61.95c-1.15-.45-1.4-.85-1.4-2.2V430h3.15c3.6 0 4.35.5 4.35 2.85 0 1.65 0 1.65-2.35 1.6-1.35-.05-3-.3-3.75-.6zm-53.55-82.75c-.9-.95-1.35-1.95-1.35-3 0-1.5.1-1.6 1.9-1.6 2.55 0 4.6 1.9 4.6 4.25 0 1.7-.05 1.75-1.9 1.75-1.45 0-2.25-.35-3.25-1.4zm168.7-167.7c.25-.9.45-1.7.45-1.75 0-.35 2.95-.1 3.15.25.15.2.15.95 0 1.75-.25 1.2-.5 1.35-2.15 1.35h-1.95l.5-1.6z" fill="#c7c0c0"/>
  <path d="M246 626.7c0-.55.35-2.4.8-4.2l.75-3.25 1.85-.05c1 0 3.15-.4 4.75-.85 1.6-.45 3.85-.85 5-.8 2 .05 2 .05.75.5-.8.3-2 1.55-2.85 2.95-1.7 2.75-2.8 3.6-6.65 5.05-4.25 1.65-4.4 1.65-4.4.65zM51.65 612.1c1.3-1.4 2.35-2.9 2.35-3.3 0-.65 1.75-1.6 2.6-1.4.4.1.25-.95-.25-1.75-.3-.45 0-.65 1.1-.65 1.7 0 2.25 1.15 1.95 3.8-.1 1.1-.4 1.4-1.05 1.3-.55-.1-1.8.4-2.8 1.05-1 .65-2.85 1.75-4.05 2.35l-2.25 1.15 2.4-2.55zm371.15-21.4c-.2-.55-.65-.7-1.55-.5-.85.2-1.25.1-1.25-.3 0-.35-.45-.95-1.05-1.3-1.3-.8-3.95-1.2-3.95-.55 0 .25-.25.45-.6.45-.3 0-.05-.55.6-1.25s1.55-1.25 2.05-1.25c.5 0 1.25-.45 1.65-1.05.9-1.3 1.55-.95 2.75 1.5.55 1 1.35 2.15 1.75 2.5.85.7 1.1 2.55.35 2.55-.25 0-.6-.35-.75-.8zM302.4 368.2c-.65-.6-11.25-3.35-21.3-5.45-5.95-1.25-11.35-2.65-11.95-3.05-.7-.45-1.15-1.25-1.15-2.05 0-1.3 0-1.3 1.1-.35.6.5.9.65.7.35-.75-1.3 3.5-.6 11.95 2 4.8 1.45 8.45 2.35 9.65 2.35.45 0 3 .7 5.6 1.5 7.95 2.5 8.9 2.15 9.5-3.8.2-2.15.4-3.35.45-2.65 0 .75.35 1.6.7 1.9.4.3.7 1.4.75 2.4.05 1.05.2 2.5.35 3.25.2.85.05 1.55-.5 2-.45.35-1.1.95-1.5 1.3-.7.6-3.85.85-4.35.3zM252.25 353c-.8-.5-2.35-.95-3.35-.95-2.4-.05-9.4-4.75-9.4-6.3 0-.55-.7-1.75-1.55-2.65l-1.55-1.7.55-4.4c.75-5.9.8-6 2.95-6 1.6 0 2.25.45 5.45 3.75 5.1 5.25 6.9 6.3 10.9 6.6 1.8.15 3.25.5 3.25.7 0 .25-.45.45-1.05.45-.55 0-.85.25-.7.5.2.3-.35.5-1.2.5-1.4 0-1.8.4-1.6 1.65 0 .2-.15.4-.45.4-.25.05-.8.1-1.1.15-.35.05-.75-.1-.9-.3-.4-.55-1.35.25-1.7 1.5-.3.8-.15 1.1.45 1.1.45 0 .65.25.5.5-.15.3-.05.5.25.5.35 0 .5.35.3.75-.15.4-.1.7.1.65.75-.2 2.5.65 2.8 1.35.15.4.6.75 1.05.75.4 0 .75.35.75.75 0 1.05-2.85.9-4.75-.25zm55.25-2.3c-.05-1.65-.15-3.6-.25-4.45-.1-.8-.2-2.15-.2-2.95-.05-.8-.2-1.35-.35-1.15-.2.15-.65 0-1.05-.4-.6-.65-3.65-1-7-.9-.5.05-1-1.8-.5-1.85.05-.05 2.3-.25 4.95-.45 3.65-.3 5.15-.6 5.9-1.3.55-.5 1.1-.8 1.2-.7.2.2-.2 3.05-1.1 8.35-.25 1.45-.25 3.75-.05 5.2.25 1.45.3 2.7.2 2.85-.15.1-.25-.1-.25-.5-.05-.5-.25-.45-.75.25-.65.85-.7.65-.75-2zm-23-13.85c0-1 2.45-1.65 6.4-1.8 3.3-.1 3.6-.05 3.6.85 0 1.25-1.25 1.6-6.1 1.6-2.85 0-3.9-.15-3.9-.65zm-27.6-6.1c-.15-.15-2.8-.95-5.95-1.75-9.5-2.55-12.7-3.75-12.85-4.85-.15-.85.15-1 2.45-1.1 2.7-.1 5.45.8 5.45 1.75 0 .35 1.65 1 3.65 1.45 1.95.5 3.85 1.05 4.1 1.25.3.2 1.3.55 2.25.75 1.95.4 4.5 1.75 4.5 2.35 0 .45-3.2.55-3.6.15zm45-8.95c.15-5.35.1-5.7-.85-5.95-.6-.15-1.05-.6-1.05-1.05 0-.5-.45-.8-1.1-.8-1.95 0-3.4-.6-3.4-1.3 0-.85 6.65-1 8.75-.2l1.3.5-.35 5.4c-.25 4-.6 5.8-1.35 7.25-1.75 3.1-2.1 2.4-1.95-3.85zm-83.1-6.85c-1.35-1.05-1.95-3.95-.65-3.1.3.2.95.3 1.4.25.4-.05 1.5.8 2.4 1.9l1.6 2h-1.7c-1 0-2.3-.45-3.05-1.05zm-11.15-7.65c-2.9-2.05-4.45-3.55-4.55-4.25-.15-.85.05-1.05.75-.95.8.15.9-.2.85-2.35-.05-1.35-.2-3.1-.4-3.85-.45-2 .8-1.85 3.65.5 3.5 2.9 4.85 3.6 6.8 3.6 1.95 0 2.3.7.7 1.55-.8.4-1.4.4-2.35 0-.65-.35-1.3-.5-1.35-.45-.05.1-.7 1.1-1.4 2.2l-1.3 2.05 2.35 1.55c1.3.85 2.8 2 3.3 2.55.95 1.05.95 1.05-.8 1.05-1.4 0-2.8-.7-6.25-3.2zm47.6 1.25c.85-.35.75-.45-.75-.75-2.25-.5-4.5-1.45-4.5-1.9 0-.25 1.2-.4 2.65-.4 1.4 0 3.8-.15 5.25-.3 2.2-.3 2.6-.2 2.6.5 0 .45-.35.8-.75.8s-.75.25-.75.5c0 .3-.3.5-.7.5-.4 0-.8.35-1 .75-.15.45-.85.75-1.65.7-1.2 0-1.25-.05-.4-.4zm30.5-.3c-1.1-.4-2.4-.75-2.85-.75-.5 0-.9-.2-.9-.45 0-.6 2.85-1.95 3.9-1.85 1.05.1 5.6 2.9 5.6 3.4 0 .65-3.6.4-5.75-.35zm-102.25-1.8c-2.35-.7-4.65-2.55-6-4.7-1-1.65-1.1-2.25-.9-9.15.1-6.15.3-7.55 1-8.25.45-.45 1.2-.85 1.65-.85.65 0 .7.2.25 1.05-.35.55-.45 1.15-.3 1.35.15.15.3-.05.3-.4 0-.35.15-.55.3-.35.35.35-.85 5.9-1.25 5.65-.15-.1-.25 1.6-.2 3.85l.05 4 2.2 1.05c1.25.6 2.25 1.45 2.35 2.05.1.55.55 1.25 1 1.6.9.7 8.05.9 8.05.2 0-.2 1.9-.45 4.25-.5 3.85-.05 4.25.05 4.25.9 0 .75-.75 1.1-3.35 1.8-4.15 1.05-11.25 1.4-13.65.7zm56.5-41.7c0-.4-.2-.75-.5-.75s-.5-1.35-.5-3-.2-3-.45-3c-.45 0-1.05-2.8-1.05-4.85 0-.7-.3-1.15-.75-1.15-.4 0-.75-.2-.75-.5 0-.45 2.15-1.15 5.65-1.8 1.7-.3 1.85-.2 1.85.85 0 .65-.45 2.4-1 3.85-.7 1.85-1 3.8-1 6.85 0 3.45-.15 4.25-.75 4.25-.4 0-.75-.35-.75-.75zm109.6-37.6c-.4-.9-.45-1.5-.1-1.85.25-.25.5-2.6.5-5.1 0-2.55.2-4.75.45-4.9.2-.15.55-1.8.7-3.65.2-1.85.55-3.45.85-3.55.25-.1.5-.5.5-.9s.35-.7.8-.7c.8 0 .8 1.2-.35 13.2-.75 8.2-1.85 10.65-3.35 7.45zm-128.1-20.2c.05-2.2 2.4-4.95 4.3-4.95 1.1 0 1.25.1.7.75-.45.55-.45.75-.05.75 1.15 0-.95 3-2.35 3.3-.75.2-1.65.65-1.95 1.1-.55.65-.65.55-.65-.95zm17.55-6.05c-.05-1.5-.25-1.9-.95-1.9-.9 0-2.1-1.85-2.1-3.25 0-.4-.2-.75-.4-.75-.7 0-1.6 1.15-1.6 2.1 0 .6-.4.9-1.2.9-.7 0-1.4.25-1.55.5-.15.3-.75.5-1.25.5s-1.2.4-1.45.9c-.45.7-.5.5-.55-.9 0-1.45.4-2.2 1.9-3.65 1.1-1.1 2.4-1.85 3.05-1.85 1.7 0 3.85-1.75 11.15-8.9 5.3-5.2 6.25-6.4 5.9-7.15-.3-.5-.5-1.55-.5-2.4 0-1-.25-1.55-.7-1.55-.95 0-4.45-8.95-6.05-15.6-1.3-5.25-2.6-16.75-2.05-18.15.4-1.1 1.3-.9 1.3.3 0 .55.25.85.5.7.3-.2.95.2 1.5.85.75.9.95 1.95 1 4.75 0 1.95.2 4.15.45 4.8.25.65.55 2.7.6 4.5.15 4.05 1 8.45 1.85 9.45.65.8 2.15 5.3 2.35 7.15.05.55.15 1.2.2 1.45 0 .25.2.3.35.15.85-.85 2 .7 2.15 2.8.1 2.1-.1 2.5-2.6 5.3-4.05 4.55-8.15 9.65-8.6 10.8-.2.55-.9 3.05-1.5 5.5-.9 3.55-1.15 4.1-1.2 2.65zm86.25-39.2c-1.25-1.95-1.8-3.35-1.8-4.65.05-1.45.15-1.65.55-.9.25.45.8.85 1.2.85 1 0 3.2 2.3 3.45 3.65.75 3.55.7 3.85-.45 3.85-.8 0-1.6-.8-2.95-2.8zm-67.35-.15c-1.2-.95-1.2-.95-.2-2.05.5-.6 1.3-.95 1.75-.8 2.3.75 4.65 1.75 4.15 1.8-.35 0-.65.45-.65 1 0 .85-.35 1-1.95 1-1.15 0-2.4-.4-3.1-.95zm30.7-2.9c-1.95-.2-2.05-.3-1.85-1.55.15-.75.3-1.35.35-1.45.05-.05 1.05.05 2.25.2 1.9.25 2.1.4 2.1 1.7 0 .8-.15 1.4-.35 1.35-.25-.05-1.35-.15-2.5-.25zm21.75-16.25c-2.55-3.1-5.75-6.9-7.15-8.45-6.05-6.65-6.75-7.55-6.75-8.45 0-.9.55-1 3.1-.55.15 0 .8.85 1.45 1.85 1.3 2.15 3.15 4.2 3.75 4.2.9 0 6.2 5.75 6.2 6.75 0 .6 1.3 2.65 2.9 4.55 1.55 1.9 3.15 4 3.5 4.6.55 1.05.5 1.1-.85 1.1-1.25 0-2.15-.8-6.15-5.6zm2.4-26.6c-2.85-3.5-2.25-4.6.7-1.4 1.4 1.45 2.5 2.9 2.5 3.15 0 1.1-1.5.3-3.2-1.75zM280 103.75c-.5-.6-.5-.9.05-1.55.5-.6.5-1.25.05-3.1-.35-1.3-.65-6.3-.7-11.1-.15-11.65.45-12.75 7.95-15.2 3.75-1.25 4.6-1.35 11-1.2 5.7.15 7.75.4 11.9 1.6 6.55 1.8 7.25 2.3 7.25 4.8 0 2.45-.5 2.5-2 .35-.75-1.1-1.5-1.65-2.2-1.6-.6.05-1.2-.1-1.35-.4-.2-.25-1.9-1.05-3.75-1.7-3.85-1.4-13.75-2.4-13.35-1.35.1.3-.55.85-1.45 1.2-.9.35-2.35.95-3.25 1.3-.85.4-2.45.7-3.5.7-2.2 0-3.1.75-4.15 3.45-.75 1.85-.9 17.2-.2 20.4.65 3.2-.75 5.25-2.3 3.4z" fill="#ebbaaa"/>
  <g fill="#d3cccc">
    <path d="M33 648.55c0-.8.3-1.05 1.25-1.05.7 0 1.25-.25 1.25-.55 0-.25.2-.4.45-.25.25.2.35-.1.2-.65-.15-.5 0-1.1.3-1.25.7-.45.15-4.1-.75-5.55-.35-.55-.8-2.1-.95-3.5-.25-2-.1-2.9.7-4.5 1.1-2.1 1.35-3.75.6-3.75-.3 0-1.2-1.35-2.1-3-.85-1.65-2.3-3.5-3.15-4.2-2.1-1.55-6.3-2.8-9.6-2.8-2.45 0-2.7.1-3.7 1.75-.75 1.2-1.45 1.75-2.3 1.75-1.55 0-1.5-.3.3-1.8 1.55-1.3 2.5-3.8 2.5-6.6 0-2.7 5.7-8.3 9.3-9.1.95-.2 1.8-.25 1.95 0 .1.2 1.45.05 2.95-.35 2.75-.7 2.75-.7 4.35.7 2.35 2.1 2.95 3.65 3.3 8.65l.3 4.5h3.55l-1.55 1.65c-1.1 1.05-2.1 3.1-3.1 6.15-1.9 5.6-2.3 9.1-1.45 12.7l.65 2.75 4.5.3c2.5.2 48.1.35 101.4.4 75.1.05 97.1-.1 97.85-.55 1.3-.85 1.75-.2 1.05 1.55-.5 1.2-.5 1.7.15 2.95 1 1.95 1.7 2.15 7.05 2.35 5.1.2 4.4-.1-1.45-.65-2.9-.25-4.1-.6-4.5-1.2-.25-.45-.4-1-.25-1.15.2-.15 3.1 0 6.5.3 6.85.6 39.1.45 39.8-.2.4-.45-2.05-8.05-3-9.25-.25-.35-.35-.75-.2-.95.6-.55 1.6.75 3.1 3.85l1.45 3.05 31.05-.2c17.05-.1 31.6-.35 32.3-.55 1.2-.35 1.3-.3 1.1.8-.3 1.5 1.1 2.85 1.95 2 .4-.4 3.85-.6 11.3-.6h10.75l4.3-2.3c2.4-1.25 6.55-3.95 9.3-6 8.25-6.2 17.25-12.3 21.3-14.45 8.45-4.45 12.05-6.5 14.5-8.4 1.85-1.35 2.75-1.75 3.1-1.4 1 1 1.4.55.55-.7-.7-1.05-.7-1.25-.1-1.25 1.4 0 7.4 14.05 7.4 17.3 0 2.3-.75 2.45-15.95 2.7-16.45.3-14.7-.15-23.05 6-2.9 2.15-6.1 4.4-7.15 5-1.05.65-1.7 1.35-1.5 1.55.25.25 14.7.65 32.15.9 20.6.3 32.25.65 33.15 1 1.75.7 1.95 3.2.25 4.1-3.4 1.8-43.1 2.2-259.1 2.35-91.05.1-165.65.25-165.9.4-.2.15-.4-.2-.4-.75zM9.75 646.3c-3.3-.8-3.95-1.2-3.25-2.05.6-.75 7.4-2.55 7.85-2.05.15.15-.3.75-1 1.35-1.6 1.2-1.7 1.95-.35 1.95.65 0 .9.25.7.75-.35.85-.6.85-3.95.05z"/>
    <path d="M284.1 631.2c-.85-1.05-1.8-2.5-2.05-3.3-.45-1.2-.35-1.4.45-1.4.5 0 1.05.45 1.25.95.15.55.8 1.75 1.45 2.7 1.75 2.55.8 3.4-1.1 1.05zm-2.6-7.95c0-.4.3-.75.65-.75.4 0 1.1-.45 1.6-1 .9-.95.85-1-.35-1-1.8 0-2.6-1.15-2.2-3.2.65-3.45 2.75-3.95 5.05-1.25.8.9.8 1.05.1.5-.45-.4-1-.6-1.1-.45-.45.45.35 1.9 1 1.9.75 0 1.4 1.35.95 2.05-.15.25-1.15.9-2.25 1.5-1.1.55-2.1 1.3-2.3 1.7-.35 1-1.15.95-1.15 0zm6.25-5.8c.3-1.5.75-1.85.75-.55 0 .55-.2 1.15-.45 1.35-.3.15-.4-.2-.3-.8zm-224.8-4.6c-1-.4-2.55-1.2-3.45-1.85-1.6-1.15-1.7-1.15-3.2-.3l-1.55.9 1.7-1.8 1.7-1.75-1.45-2.2c-.8-1.2-2.55-4.5-3.95-7.3l-2.5-5.15-2.1.3c-2.4.3-2.75-.2-.95-1.4.7-.45 1.7-1.75 2.2-2.9 1.25-2.75 5.2-8.15 6.7-9.05.65-.4 2.25-.85 3.6-1.05 1.35-.15 2.85-.65 3.3-1.05.7-.65.8-.55.9.9.15 2.85 4.9 11.5 8.35 15.25 2.85 3.05 7.45 6.1 9.2 6.1.95 0 .6 1.15-.8 2.65-.8.75-2.05 2.8-2.9 4.5-1.25 2.6-1.85 3.3-3.8 4.25-2.9 1.45-8.4 1.9-11 .95zM30.8 602c.25-.25 1.25-.65 2.2-.8 1.6-.35 1.7-.3 1.05.45-.35.45-1.35.85-2.2.85-1 0-1.4-.15-1.05-.5zm89.8-26.3c.15-1.65.45-2.1 2.15-3.05 1.1-.65 2.75-1.15 3.65-1.15 1.6 0 1.65.05 1.5 1.85-.2 2.3-1.95 3.65-5.15 4l-2.3.3.15-1.95zm41.9-31.35c0-1.55 1-2.65 10.2-11.75 9.95-9.8 10.3-10.1 12.25-10.1 2 0 2.05.05 2.05 1.7 0 1.5-.4 2.1-3.1 4.4-1.7 1.45-6.45 5.95-10.6 10.05-6.6 6.45-7.7 7.35-9.15 7.35-1.55 0-1.65-.1-1.65-1.65zm-17-23c0-.1 1.2-2.95 2.65-6.4 1.5-3.4 3.25-7.7 3.9-9.55.65-1.9 1.5-3.4 1.85-3.4.35 0 .75-.35.9-.75.55-1.35 1.2-.8 1.2.95 0 .9-1.2 4.7-2.7 8.35-4.55 11.35-4.3 10.95-6.15 10.95-.9 0-1.65-.05-1.65-.15zm112.85-11.15c-.2-.2-.35-1.3-.35-2.5 0-2.3.5-2.7 3.05-2.7 1.5 0 1.5 0 1.35 2.65-.15 2.6-.15 2.6-1.9 2.75-1 .1-1.95 0-2.15-.2zm124-12.05c-.2-.15-.35-1.6-.35-3.15 0-3.15.9-4.5 3.05-4.5.7 0 1.5-.25 1.85-.6.65-.65.85-5.4.25-5.4-.25 0-2.05.55-4.05 1.25-2.05.7-4.7 1.25-5.9 1.25-2.15 0-2.2-.05-2.2-1.6 0-.9.2-1.9.4-2.15.65-.9 8.6-3.75 10.5-3.75h1.85l-.15-2.7c-.15-2.35-.05-2.8.95-3.5 1.7-1.15 5.05-1.05 6.2.2.6.65 1.55 1 2.85 1h1.9v2.3c0 2.1-.1 2.3-1.75 3-.95.35-2.45.7-3.35.7h-1.65l.15 6.3c.1 3.5.05 7.1-.15 8.05-.45 2.5-2.6 3.65-6.8 3.65-1.8 0-3.45-.15-3.6-.35zM159.5 492c0-.25.8-1.65 1.8-3 1-1.4 2.1-3.55 2.5-4.85.4-1.3 1.3-3.25 2-4.35 1-1.45 1.1-1.85.5-1.65-.7.3-.75.15-.25-.7 1-1.9-1.6-6.5-4.2-7.45-.85-.25-2.9-.5-4.65-.5-2.75 0-3.25.15-4.1 1.25-1.35 1.7-1.6 1.6-1.6-.75 0-2.5 1.7-4.45 5.45-6.4 1.65-.8 3-1.95 3.5-2.85 3.9-7.3 5.75-10.35 6.3-10.55.35-.15 1-1.2 1.5-2.35 1.45-3.55 1.7-4 3.6-7.3 1.05-1.75 2.35-3.45 2.9-3.75 1.35-.75 1.95-1.55 3.8-5.25.9-1.8 2-3.6 2.4-4.05 1.4-1.35 4.05-5.2 4.05-5.8 0-.3 1.4-2.65 3.05-5.2l3.05-4.65-.05-8.45c-.05-4.65.2-9.9.5-11.65l.55-3.25h1.95c2.3 0 2.15-.6 1.4 8-.5 5.35-.45 6.5.2 8.05.95 2.3 2.85 3.05 15.85 6.45 5.1 1.35 13.55 3.55 18.75 4.95 5.25 1.4 13.5 3.6 18.45 4.85l8.9 2.3 1.2-1.15c.9-.85 2.1-3.95 4.5-11.45 4.55-14.25 6.2-18.9 7-19.55 1-.85 5.75-.2 11.3 1.55 4.5 1.45 12.9 3.1 19.15 3.75 1.65.2 3.85.55 4.9.8 1.85.5 1.9.55 1.55 2.35-.5 3.05-.75 3.6-1.5 3.6-4.05 0-23.9-4.15-29.65-6.2-1.2-.45-2.25-.75-2.35-.7-.05.1-1.6 4.95-3.4 10.8-3.5 11.25-4.85 17.3-4.05 18 .3.25 5.9 1.75 12.45 3.4 6.55 1.6 11.4 3.05 10.75 3.1-1.1.2-1.05.25.5.9 2.05.85 3.25.9 2.75.1-.25-.4 0-.45.85-.2.65.15 1.8.45 2.55.6 2.2.5 2.7 1.45 1.6 3.05-.5.8-.95 1.7-1 2.05-.4 2.35-2.2 2.7-7.2 1.35-1.5-.4-3.7-.75-4.85-.75-3.3 0-9.15-1.3-13.55-3-3.55-1.35-4.1-1.75-4.1-2.8 0-.9-.35-1.25-1.35-1.5-4.95-1.2-55.45-13.95-60.1-15.15-3.15-.85-5.85-1.4-6-1.25-.45.45 5.7 5.8 9.05 7.8 5.05 3 7.65 3.8 13.45 4.15 6.9.45 10.7 1.1 13.15 2.35 1.1.55 4.6 2.95 7.75 5.25 6.95 5.1 8.95 6.1 12.4 6.15 4 0 5.15.6 5.15 2.75 0 1.45-.25 1.85-1.3 2.25-1.65.65-7.45.65-9.75 0-1-.3-5.85-2.8-10.8-5.65-4.9-2.85-9.65-5.45-10.5-5.8-2-.85-1.65-1.1-13.65 10.35-8.8 8.35-12.4 11.65-28.5 26-3.7 3.3-10.45 9.6-15 14.05-7.2 7.05-8.45 8.05-9.85 8.05-.9 0-1.65-.2-1.65-.5zm185-38.4c0-.2.25-.65.6-1 .45-.45.45-.6 0-.6-.35 0-.6-.45-.6-1 0-1.3 2.6-2.6 4.9-2.4 1.8.15 1.85.2 1.85 2.15 0 1.6-.25 2.1-1.25 2.6-1.4.7-5.5.9-5.5.25z"/>
    <path d="M144.1 435.4c-.35-.35-.6-1.8-.6-3.3 0-2.4.2-2.9 1.7-4.4 1.2-1.2 2.15-1.7 3.25-1.7 1.85 0 1.8.15 2.55-9 .35-4 .85-7.2 1.25-7.8.8-1.25 3.65-2.65 8.65-4.25 1.95-.6 3.6-1.3 3.6-1.5 0-.2-.6-.5-1.35-.7-4.9-1.2-31-11.65-38.25-15.3l-3.9-1.95V381h2.3c1.25 0 2.65.2 3.1.45.75.4.85.2.7-1.55-.15-1.55.05-2.25.95-3.25 2.2-2.4 6.7-3.8 9.15-2.85.6.25.8 1.05.8 3.3 0 2.6-.15 3.15-1.45 4.45-1.25 1.25-1.85 1.45-4.15 1.45l-2.65.05 8 3.5c8.45 3.75 11.4 4.9 23.5 9.2 23.9 8.45 27.5 9.8 28.35 10.55.55.55.9 1.55.9 2.6v1.7l-2.85-.25c-1.6-.15-6-1.25-9.75-2.5l-6.9-2.25v4.1c0 5.65-1.35 16.55-2.25 18.3-1.1 2.1-2.5 2.85-6.1 3.25-4.75.5-5.2.05-5.05-4.65l.15-3.85 3.2-.85c1.75-.5 3.45-1.1 3.7-1.35.3-.3.5-1.9.55-3.65l.05-3.15-1.4.1c-.8.05-2.65.45-4.1.9-3.2.9-3 .3-3.65 10.1-.5 7.95-.95 9.15-3.9 10.4-2.15.9-7.25 1-8.1.15zm67.5-33.9c-11.6-4.15-15.55-8.5-15-16.45.35-4.6 1.75-7.05 4.15-7.05.95 0 1.8.2 2 .45.15.3.4 2.7.6 5.4.4 6.65.9 7.75 4.5 9.55 1.6.85 4.05 1.85 5.45 2.25 2.95.85 4.65.4 6.7-1.9.7-.75 3.85-3.45 7-6 7.65-6.1 7.45-5.75 4.95-7.75-2.15-1.7-5.35-6.3-7.7-11-.75-1.5-2.35-4.25-3.55-6.05-1.4-2.15-2.2-3.9-2.2-4.9 0-1.55 0-1.55 2.65-1.55h2.65l1.4 2.9c3.15 6.45 5.65 10 10.65 15.15 4.95 5.15 5.15 5.45 5.15 7.6 0 2.15-.1 2.25-3.85 5.2-2.15 1.65-7 5.75-10.8 9.1l-6.9 6.05h-2.6c-1.45-.05-3.8-.45-5.25-1zm90.2-25.1c-3.4-1.7-12.35-4.05-19.05-4.9-4.45-.55-7.3-1.1-10.85-2.05-1.85-.45-1.9-.55-1.9-2.75v-2.3l3.65.25c7.45.45 27.9 5 31.85 7 2.2 1.1 2.25 1.25 2.4 3.75l.15 2.6h-1.65c-.9-.05-3-.75-4.6-1.6zm-168.5-4.2c-.45-1.25-.35-13.35.15-14.15.25-.4 1.6-.8 3.2-.95 2.45-.2 3-.05 5 1.35 1.25.85 2.55 1.55 2.85 1.55.35 0 .5.7.4 1.9l-.15 1.85-3.6.15-3.65.15v1.85c0 1-.15 3.05-.3 4.5-.35 2.55-.4 2.6-1.95 2.6-1.05 0-1.75-.3-1.95-.8zm171.6-3.05c-1.25-.3-1.1-1.8.15-2.65.6-.4 1.5-1.2 2-1.7 1.4-1.5 2.15-.45 1.6 2.25-.35 1.85-.6 2.2-1.65 2.3-.7 0-1.65-.05-2.1-.2zm-42.4-2.45c-6.7-2.55-12.05-5.15-19.1-9.3-6.4-3.75-6.9-4.2-6.9-6.05 0-1.25.1-1.4.75-.85 1.25 1.05 1.4.2.2-.95l-1.15-1.05h1.65c1.15 0 2.75.7 5 2.2 3.9 2.6 12.1 6.6 20.05 9.8l5.75 2.35.15 2.55.15 2.6h-1.65c-.9-.05-3.1-.6-4.9-1.3zm2-7.75c-1.8-.5-3.9-1.1-4.65-1.25-1.25-.3-1.4-.5-1.25-2.15.15-1.65.25-1.8 1.6-1.65 3.1.35 11.8 4.55 11.8 5.7 0 .7-4.1.35-7.5-.65zm-161-23.65c0-2.2 2.1-4.1 7.5-6.8 2.9-1.45 4.6-2 6.25-2h2.3l-.15 1.8c-.15 1.8-.3 1.9-6.6 5.25-3.6 1.9-7.1 3.45-7.9 3.45-1.25 0-1.4-.15-1.4-1.7zm52.5-21.2c0-2.8 1.15-4.1 3.55-4.1h1.95v2.15c0 2.7-1.1 3.85-3.65 3.85-1.8 0-1.85-.05-1.85-1.9zm236.85-115.95c-.2-.15-.35-1.05-.35-1.95 0-2.1 2.65-4.45 4.15-3.6.75.4 1.2.25 2.2-.65 1.5-1.45 4.15-5.4 4.15-6.25 0-.35.25-1.25.55-2.05.4-1.1.6-1.2.95-.65.4.6.65.65 1.5.15 1.4-.9 1.45-.85 1 1.1-.75 3.3-3 7.1-5.65 9.55-1.4 1.35-2.6 2.7-2.6 2.95-.05 1.25-.95 1.75-3.2 1.75-1.3 0-2.55-.15-2.7-.35zm-1.35-8.95c0-.15.55-.75 1.25-1.3 1.05-.8 1.15-1.15.7-1.7-.5-.6-.4-1 .5-2.1.6-.75 1.55-2.4 2.15-3.7.85-1.95 1.25-2.4 2.3-2.4 1.15 0 1.2.15.95 1.85-.2 1-.9 2.95-1.55 4.35-.7 1.4-1.35 2.9-1.4 3.3-.25 1.2-1.5 1.95-3.25 2-.9 0-1.65-.15-1.65-.3z"/>
  </g>
  <path d="M15.55 631.9c.5-2.85.95-5.2.95-5.25 0-.1.35-.15.8-.15.75 0 .8.55.5 4.85-.2 2.7-.5 5.05-.6 5.25-.15.2-.8.4-1.4.4h-1.15l.9-5.1zM245 628.4c0-.35.45-1.9 1.05-3.4.75-2 .95-3.3.7-4.85-.2-1.4-.1-2.15.25-2.15.3 0 .65.35.8.75.2.4.9.75 1.65.75 1.1.05 1.15.1.45.55-.5.25-1 1.3-1.2 2.35-.2 1-.55 2.25-.8 2.75-.3.6-.25.85.2.85.35 0-.1.7-1 1.5-1.85 1.65-2.1 1.8-2.1.9zM116.3 521.2c-.15-1.3-.3-3.45-.3-4.75 0-2.45 0-2.45 1.65-2.45h1.7l-.4 2.4c-.2 1.3-.4 3.4-.4 4.75-.05 1.95-.2 2.35-1 2.35-.7 0-1-.5-1.25-2.3zm12.35-24.9c.3-2 .7-2.75 2.25-4.1 1.6-1.4 2.25-1.65 4.5-1.7 1.55 0 2.55.2 2.35.5-.2.35-4.95 4.3-8.7 7.2-.6.45-.65.15-.4-1.9zm125.6-140.5c-4.65-1.75-7.25-3.55-7.25-5.1 0-1.1.1-1.25.75-.7.5.45.75.45.75.05 0-.9 1.15-.65 4.3.95 1.6.8 4.75 2 6.95 2.7 3.05.9 3.6 1.25 2.4 1.25-1.75.05-2.85 1.05-1.2 1.05.6 0 1.05.25 1.05.5 0 .9-4.65.5-7.75-.7zm-16.35-10.05c-2.3-1.3-2.65-6.35-.45-6.65.8-.15 1.1.05.95.45-.15.4.45 1.45 1.3 2.35 1.8 1.95 2.75 3.45 1.85 2.9-.9-.55-.65.3.35 1 .75.6.65.65-.9.65-.95 0-2.35-.3-3.1-.7zm115.6-104.1c-.6-1.05-1.15-2.1-1.2-2.4-.05-.25-.85-1.5-1.75-2.75-2.05-2.75-2.85-4.4-2.35-4.85.6-.65 2 .65 3.65 3.4 2.2 3.6 2.1 1.9-.15-3.2-1.75-3.95-1.75-4.2-1.2-6.7.3-1.45.85-2.65 1.2-2.65.3 0 .9 1.05 1.25 2.4.75 2.85 1.55 5.45 3.25 11 1.6 5.15 1.65 6.6.3 6.6-.55 0-1 .25-1 .5 0 1.05-.95.4-2-1.35zm-48.35-73.55c-1.3-.4-1.9-.9-5.55-4.75-2.55-2.65-5.7-4.35-8.2-4.35-.5 0-1.05-.35-1.25-.8-.15-.4-.6-.65-.95-.5-1.2.45-2.2-.25-2.2-1.5 0-1.5 1.3-1.55 6.25-.25 4.75 1.2 6 1.95 9.75 5.8 3.8 3.85 6.05 4.75 12.1 4.75 3 0 3.9.15 3.9.7 0 .35-.5.8-1.1 1-1.5.4-11.35.3-12.75-.1zM279 87.5c0-4.5.1-5 .9-5s.95.55 1.05 5c.1 4.75.05 5-.9 5-1 0-1.05-.3-1.05-5z" fill="#efc9bf"/>
  <path d="M28.25 648.4c-2.65-.85-3.45-.9-6.95-.45-3.6.5-4.3.45-7.15-.5-3.3-1.15-3.8-2.25-.7-1.75 1 .2 5.35.5 9.65.7 4.35.25 8 .55 8.2.7.15.2.2.75.1 1.3-.15.95-.15.95-3.15 0zm230-1.25c-.55-.1-1.55-.35-2.25-.5-1.25-.3-1.25-.3.25-.65 2.4-.6 18.75-.6 18.75 0 0 .5-1 .75-2.5.6-3.65-.35-7-.2-12.25.6-.55.1-1.45.05-2-.05zM11 643.1c0-.25.5-.6 1.1-.8.9-.2 1-.4.5-.9-.3-.3-.6-1.05-.6-1.6 0-.9.05-.9.95-.1.9.85.95.8 1.55-1.55.3-1.3.6-2.65.6-3 .05-.5 1.7-.5 2.25.05.5.5-1.05 6.3-1.85 7.05-1.05.95-4.5 1.6-4.5.85zm275.35-9.35c-1.85-2.2-2.35-3.5-1.25-3.15.95.35 4 4.8 3.5 5.1-.25.15-1.25-.75-2.25-1.95zm-5-7.8c-.9-2.75-.8-3.45.65-3.45.65 0 .85.25.65.9-.1.55.1 1.75.5 2.75.7 1.55.7 1.8 0 2.05-.4.15-.8.3-.85.3-.1 0-.5-1.15-.95-2.55zm95.65-2.4c0-.6.85-1.85 1.95-2.8 1.05-.95 2.2-2.45 2.55-3.25.6-1.5 2-2.1 2-.85 0 1.15-2.25 4.3-4.35 6.1-1.95 1.65-2.15 1.7-2.15.8zm-364.9-1.8c1.8-1.7 4.15-2.7 4.75-2.05.2.15-.45 1.1-1.35 2.05-1.3 1.35-2.1 1.75-3.45 1.75l-1.8-.05 1.85-1.7zm105.55-87.5c-1.15-.95-2.55-1.75-3.1-1.75-.85 0-1.05-.3-1.05-1.6 0-.85.3-1.95.7-2.35.5-.55.9-3.1 1.25-7.9.8-10.9 3.35-16.9 10.2-24 3-3.1 3.75-3.65 5.2-3.65 1.95 0 2.1.55.55 1.7-1 .7-1 .75-.15.45.55-.15-.9 1.7-3.25 4.15-4.5 4.7-6.85 8.55-8.25 13.35-.5 1.75-1.1 2.85-1.55 2.85-.75 0-.75.05.05 6.75.2 1.65.1 3.9-.15 5.05-.45 2-.45 2.05 2.45 5.1 1.65 1.7 2.95 3.2 2.95 3.35 0 .15-.85.25-1.9.25-1.45 0-2.4-.4-3.95-1.75zm22.15-4.35c.5-.6.65-.9.3-.7-1.15.65.25-1.55 2.4-3.9 1-1.15 2.4-3.05 3-4.3.7-1.35 1.25-1.95 1.4-1.55.15.45.45.2.9-.75.6-1.45.6-1.45.65.95.05 2.8-.25 3.5-3.55 7.65-2.45 3.15-3.2 3.7-5 3.7-1.05 0-1.05 0-.1-1.1zm15.45-29.4c.25-.75.2-1-.2-.8-1.15.7-.5-1.15 1.4-4 2.25-3.4 5.25-6.85 4.85-5.55-.15.45-.05.85.2.85s.7-.4.95-.85c.45-.75.5-.6.55.85 0 1.3-.45 2.3-1.6 3.75-.9 1.05-2.35 2.95-3.15 4.2-1.65 2.5-3.6 3.5-3 1.55zM134 491.1c0-.55.45-1.35 1-1.85s1.25-1.8 1.55-2.85c.35-1.4 1.95-3.55 5.55-7.45 4.5-4.9 5.15-5.45 6.7-5.45.95 0 1.7.15 1.7.3 0 .45-2.9 4.05-7.35 9.05-2 2.3-3.8 4.75-3.95 5.5-.5 2.05-2.15 3.65-3.8 3.65-1.05 0-1.4-.25-1.4-.9zm169.5-123.65c0-.55.2-.85.5-.7.45.3.95 0 2.75-1.65.4-.35.75-1.15.75-1.75 0-.6.25-1.45.5-1.85.35-.55.5-.35.5.85 0 .85.1 1.9.25 2.25.2.45-.4 1.05-1.6 1.6-1.7.8-1.8.95-.9 1.3.55.2 1.35.25 1.75.15.65-.2.65-.2 0 .3-.4.3-1.6.55-2.6.55-1.6 0-1.9-.15-1.9-1.05zm-24.6-5.8c-1.9-.45-3.4-1-3.4-1.2 0-.25.35-.45.75-.45 1 0 9.9 2 10.2 2.3.5.45-4.4.05-7.55-.65zm1.35-1.65c-2.4-.6-3-.9-2-.95.85 0 2.75.4 4.25.95 3.45 1.2 2.35 1.2-2.25 0zM234 344.45c0-2.15 1.2-3.95 2.65-3.95.85 0 1.1.3 1.2 1.35 0 .75.55 1.7 1.2 2.2.65.5 1.05 1 .9 1.15-.15.15-1.55.4-3.1.6l-2.85.35v-1.7zm74.9-7.1c.55-.6 1.4-2.45 1.85-4.1 1.2-4.15 3.95-11 8.45-20.85 2.1-4.6 3.8-8.6 3.8-8.9 0-1.05-1.7-.45-4.7 1.7-3.05 2.2-8.35 5.3-8.95 5.3-.2 0-.35-.2-.35-.5 0-.25.3-.5.65-.5.4 0 1.1-.45 1.6-1 1.15-1.25 7.45-5.55 9.85-6.65 1.85-.85 3.15-.75 3.55.35.15.3.1 1.9-.1 3.55-.25 2.6-.45 3-1.8 3.75-2.05 1.1-6.95 11.1-9.75 19.75-2.85 8.75-2.75 8.55-4 8.9l-1.1.3 1-1.1zm-31.3-41.55c-.35-2.8-.8-7.4-1.1-10.3-.6-5.9-1.25-7.1-4.6-8.1-2.35-.7-2.45-1.7-.25-2.05 1.95-.3 4.2.6 5.75 2.3 1.1 1.15 1.2 1.75 1.3 7.15.15 5.85 1.1 10.9 2.55 13.7.65 1.3.65 1.35-1.2 1.8l-1.9.55-.55-5.05zm73.9-69.25c-1-1.95-.45-7.05.8-7.05.55 0 .7.95.7 4 0 3.95-.45 4.9-1.5 3.05zm-89.85-64.95c-1.25-.2-1.55-1.5-.6-2.45.3-.3.85-1.1 1.15-1.75.4-.8 1.1-1.2 2.2-1.3.85-.1 1.6-.1 1.6 0 0 .7-2.1 4.4-2.5 4.4-.2 0-.5.3-.6.65-.1.3-.65.55-1.25.45zm25.5-5.65c-.15-.55-.5-.95-.75-.95s.1-.75.8-1.6c3.45-4.6 7-13.95 7.85-20.65 1.1-9.1 1.15-9.15 3.2-7.35 2.15 1.8 2.4 2.45 1.35 3.5-.55.55-1.25 2.6-1.8 5.4-1.25 6.35-2.85 11.05-6.35 18.6-.8 1.75-1.45 3.35-1.45 3.55 0 .25-.6.45-1.3.45-.9 0-1.4-.35-1.55-.95zm-48.7-22.55c-.35-.9-1.75-3.15-3.05-4.95-1.8-2.45-2.65-4.25-3.4-7.2-.55-2.15-1-4.3-1-4.8 0-.45-.3-1-.6-1.1-.5-.2-.5-.35 0-.75.35-.25.95-2.2 1.3-4.35.3-2.15.8-4 1.05-4.1.3-.1.5 1.55.5 4 0 5.45 1.35 11 3.5 14.4.9 1.5 2.3 3.7 3.05 4.9.75 1.2 1.4 2.95 1.45 3.85.05 1.45-.15 1.7-1.05 1.7-.75 0-1.3-.5-1.75-1.6zm72.3-19.4c-2.8-2.2-6.9-6.3-8.6-8.65-1.1-1.5-1.55-3.85-.75-3.85.75 0 11.1 11.65 11.1 12.5 0 .45.25 1.05.6 1.4 1.1 1.1.15.55-2.35-1.4zm-67.35-13.35c-3.05-.2-3.4-.3-3.4-1.25s.2-1 3.25-.65l3.25.35 2.9-3.05 2.9-3.05 5.2-.05c7.4-.05 8.35 0 10.85 1.1C271 95.2 278.5 100 278.5 100.6c0 .9-1.75.3-4-1.35-1.3-.95-4.05-2.45-6.05-3.35-3.25-1.4-4.25-1.6-8.45-1.6-6.45-.05-9.8 1.45-11.8 5.35-.4.75-.9 1.3-1.1 1.25-.2-.05-1.85-.15-3.7-.25z" fill="#f1d9d3"/>
  <g fill="#e0dfdf">
    <path d="M349.3 641.6c-.15-.25.85-.6 2.25-.8 1.4-.2 2.95-.6 3.45-.95 1.2-.7 1.75-.2 1.1.95-.35.65-1.25.95-3.5 1.05-1.65.1-3.15-.05-3.3-.25zm41.5 0l-1.5-.35 1.45-.65c.95-.45 1.55-.5 1.95-.1.3.3 3.65.5 8.75.5 4.5 0 8.1.1 8 .2-.4.35-17.25.7-18.65.4zm-103.1-23.85c.1-.55.7-2.25 1.3-3.75.6-1.5 2.1-6 3.3-10 5.3-17.15 8.8-27 9.55-27 .65 0 .75.55.55 3.5-.15 1.9-.5 3.75-.75 4.1-.75 1-1.65 4.55-1.65 6.5 0 1.5-.2 1.8-1.7 2.3-1.9.7-1.9.6-6.85 15.7-1.4 4.3-2.85 8.25-3.25 8.75-.65.85-.65.85-.5-.1zm95.4-5.85c.8-3.1 1.3-5.9 1.2-6.2-.15-.4-1.4-.3-4.65.35-5.3 1.1-6.7 1.15-8.8.25-4-1.65-11.9-11.8-27.3-35.2-2.25-3.45-2.9-4.1-3.75-3.9-1.35.35-3.3-2.85-3.3-5.4 0-1.4-.2-1.8-.9-1.8-.95 0-6.4-7.75-6.95-9.95-.15-.7-.85-1.7-1.45-2.2-.65-.45-1.3-1.35-1.45-1.9-.4-1.15-3.65-6.55-5.85-9.65l-1.4-1.9-.5 1.3c-.35 1-.8 1.3-2.05 1.3-1.15 0-1.5-.2-1.25-.75.15-.4.85-2.7 1.6-5.1l1.3-4.3.95 1.2c.5.65 2.65 4.15 4.75 7.7 6.35 10.75 6.8 11.4 8.75 13.5 2.4 2.6 4.45 5.95 4.45 7.3 0 1.3 5.35 9.95 15.6 25.3 8.1 12.15 11.8 17 15.9 21.05 2.6 2.5 2.8 2.6 5.5 2.6 1.55 0 4.6-.45 6.75-1 2.15-.55 4.7-1 5.65-1 1.65 0 1.7.05 1 .9-.75.8-1.5 3.45-2.95 10.25-.45 2.05-.85 2.85-1.45 2.85-.7 0-.65-.65.6-5.6zm-319.5 1.25c-.6-.1-1-.45-.85-.7.4-.6 2.25-.6 2.25 0 0 .3 1.05.6 2.4.7l2.35.15-2.5.05c-1.35 0-3-.1-3.65-.2zm11.3-2.25c.75-.85 1.2-2 1.25-3.15.05-1.55.4-2.15 2.25-3.65l2.2-1.8-1.95-.75c-5.9-2.45-9.9-6.7-13.9-14.8-2.95-5.85-3.15-7.4-1.35-8.85.65-.55.7-.55.35.1-.25.4 2.75-2.25 6.65-5.95 3.9-3.65 7.1-6.8 7.1-7 0-.15-1.5 1.2-3.35 2.95l-3.4 3.25 3.7-3.85c2.05-2.1 3.95-3.7 4.2-3.55.3.15.35.1.2-.2-.15-.25 2.05-2.8 4.95-5.7 2.85-2.85 5.1-5.45 5-5.8-.15-.3 2.45-3 5.75-6 3.3-2.95 8.05-7.3 10.6-9.65 6.05-5.65 7.9-7 9.6-7 1.15 0 1.3.1.75.75-.5.65-.45.75.6.75.65 0 1.75.55 2.35 1.2 1.45 1.55 4.05 2.8 5.75 2.8.7 0 1.75.45 2.25.95 1 1 4.55 1.5 6.3.85s2.35-1.05 2.15-1.4c-.1-.2 1.55-2.15 3.65-4.25 2.05-2.15 4.6-4.95 5.6-6.25 2.05-2.55 5.35-9.65 9.1-19.4 2.75-7.15 3.65-8.7 8.1-14.1 3.6-4.35 18.85-18.95 28.9-27.7 7.45-6.45 14.8-13.2 26.3-24.05 4.4-4.2 8.6-7.8 9.25-7.95 1.65-.4 3.55.45 14.4 6.7 9.7 5.5 11.75 6.35 15.45 5.95 4.95-.45 3.55-2.35-1.8-2.35-3.45-.05-5.45-1.05-12.4-6.15-8.9-6.55-9-6.55-22.6-7.8-4.35-.35-5.45-.65-9.05-2.5-5.1-2.55-10.2-6.75-12.4-10.1-1.4-2.2-1.8-2.5-3.1-2.35-1.25.1-1.95.75-3.95 3.65-1.35 1.95-2.9 4.5-3.45 5.75-1.05 2.25-3.1 5.3-4.25 6.25-.35.3-1.4 2.05-2.4 3.95-2.4 4.55-3.3 5.85-3.75 5.55-.25-.15-.85.3-1.4 1-.55.7-1.15 1.25-1.3 1.25-.6 0-.25-3.1.5-4.6 1.25-2.45 9-14.75 11.95-18.9 3.3-4.75 3.75-6 2.15-6-.75 0-1.35-.45-1.7-1.25-.55-1.15-.55-1.2 1-.95l1.55.25-1.6-1.45c-.9-.75-1.65-1.6-1.65-1.75 0-.6 3.5-.35 4.9.35l1.35.7-.05-5.85-.1-5.8.45 6.5c.25 3.6.3 7.2.2 8.05l-.25 1.5 3.35.65c1.9.35 12.05 2.8 22.65 5.55 24.3 6.2 50.9 12.75 54.5 13.45 1.5.3 4.8 1.1 7.25 1.75 3.65 1.05 4.05 1.2 2 1-1.35-.15-4-.7-5.85-1.25-5.1-1.5-7.9-1.75-7.9-.8 0 1.65 12.2 5.35 17.65 5.35 1.15 0 3.35.35 4.85.75 1.5.4 3.15.75 3.65.75 1.4 0 1-1.05-.65-1.65-.8-.3-1.5-.75-1.5-.95 0-.6.45-.5 2.5.65 1.75 1 1.85 1.2 1.45 2.45-.3.75-1.15 2-1.95 2.75-1.2 1.15-1.5 1.85-1.5 3.55 0 2.25-.55 3-2.5 3.3-.9.1-1.3.5-1.4 1.4-.25 2.2-2.2 10.25-2.6 10.7-.25.2-.3 1.15-.15 2 .15 1.05-.65 5.05-2.3 11.35-4.15 15.8-5.7 20.65-6.7 20.85-1.65.35-1.15-2.85 2.8-17.15.7-2.45 1.75-6.6 2.35-9.15 1-4.4 1.05-4.75.25-7.35-.4-1.5-.95-2.75-1.2-2.75s-1.7 1.45-3.3 3.25c-3.45 3.95-15.4 14-20.8 17.5-2.1 1.35-6.05 4-8.75 5.8-2.75 1.85-9 5.8-13.95 8.85C217 504.75 201 515.3 192.7 521.65c-2.8 2.1-5.4 3.85-5.7 3.85-.95 0-6 4.45-6.5 5.7-.65 1.6-5 5.85-6.65 6.45-.45.2-1 .75-1.2 1.2-.35 1.1-4.2 5.15-4.8 5.15-.65 0-5.6 5.1-6 6.15-.15.45-.75.85-1.25.85-.9 0-3.1 1.9-3.1 2.7 0 .55-2.1 2.25-2.8 2.3-.25 0-1.15.65-1.9 1.45-2.55 2.65-25.3 18.55-26.6 18.55-.4 0-.7.3-.7.65 0 .35-.45.9-1 1.25s-1 1-1 1.45c0 .7-.2.65-1.15-.3-1.5-1.35-2.15-1.15-8.8 2.9-2.65 1.6-6.95 4.1-9.55 5.55-5.55 3.1-17.5 10.95-21.65 14.25-2.15 1.75-3.25 3.05-4.5 5.6-.85 1.85-2.15 3.7-2.85 4.1l-1.25.75 1.15-1.3zm50.95-37c.9-1.05.9-1.05-1.2.05-2.55 1.25-3.3 2.25-1.2 1.5.8-.3 1.85-1 2.4-1.55zm49.65-40.4c2.05-2.05 5.2-5.05 7-6.6 1.8-1.55 2.95-2.85 2.6-2.85-.35-.05-5.3 4.6-11 10.3-5.7 5.65-8.55 8.65-6.35 6.6 2.2-2.05 5.65-5.4 7.75-7.45zm72.2 72.65c-.9-.15-1.25-.9-1.95-3.9-1.25-5.25-.85-7.75 2.6-16.5 1.65-4.15 4.5-12.15 6.4-17.85 3.35-10.2 3.4-10.4 4.8-10.4h1.35l-1 3.65c-1.8 6.55-6.95 21.5-9.75 28.35-3.1 7.65-3.25 9.4-.95 13.95.7 1.4 1.3 2.65 1.3 2.8 0 .25-1.1.25-2.8-.1zm54.5-32.55c.15-.5 2-6.2 4.05-12.65 5.05-16 5.6-17.45 6.8-17.45 1.75 0 1.45 1.45-2.85 14.75-.4 1.4-.95 2.95-1.2 3.5-.2.55-.85 2.6-1.45 4.5-1.9 6.05-3.05 8.25-4.4 8.25-.95 0-1.15-.2-.95-.9zM264 539.4c0-.9.6-4.2 1.3-7.25 1.3-5.55 1.35-5.65 2.75-5.65.8 0 1.45.15 1.45.35 0 .2-.85 3.5-1.85 7.25-1.5 5.6-2 6.9-2.75 6.9-.7 0-.9-.4-.9-1.6zm111.3-17.15l-2.8-4.25h1.65c1.8 0 2.75.75 4.05 3.35.85 1.7 1.1 5.15.4 5.15-.25 0-1.7-1.9-3.3-4.25z"/>
    <path d="M232 516.75c0-.95.15-1.75.4-1.75.2 0 1.95-.35 3.85-.8 3.7-.8 8.7-1.75 14.5-2.7 4.65-.8 5.75-1.35 5.75-3 0-.7.55-2.05 1.25-3 1.1-1.5 1.25-2.2 1.25-5.8 0-3.8.1-4.15 1.25-4.9.65-.45 2.05-.8 3.05-.8h1.85l-.95 1.1-.95 1.05 1.9-.3c1.7-.25 1.85-.2 1.85.85 0 .85-.45 1.35-1.45 1.8-1.5.6-1.6.85-2.35 5.15l-.3 1.85h1.8c1.7 0 1.8.1 1.8 1.65v1.65l3.25-.2 3.25-.2v1.75c0 2 1.1 1.6-10.3 3.85-2.8.55-5.4 1.1-5.75 1.25-1.15.4-21.5 3.25-23.3 3.25-1.55 0-1.65-.1-1.65-1.75zm28.9-9.45c-.1-.5-.35-.65-.85-.35-.4.3-.55.8-.35 1.35.4 1.05 1.5.2 1.2-1zm109.3 7.35c-1.3-1.8-7.7-12.85-7.7-13.3 0-.2.65-.35 1.45-.35 1.75 0 3.4 1.85 5.05 5.7.6 1.3 1.6 3.15 2.3 4.15 1.3 1.95 1.65 5.15.55 5.15-.35 0-1.1-.6-1.65-1.35zm-12.5-22.85c-.65-1.7.05-3 1.8-3.45.95-.25 4.8-1.55 8.55-2.9 6.4-2.3 10.45-3.05 10.45-1.95 0 .3-.3.5-.7.5-.4 0-.85.35-1 .8-.25.65-.05.75.95.6 1.05-.2 1.25-.05 1.25.85 0 1-.5 1.3-3.6 2.15-2 .55-5.55 1.7-7.85 2.55-4.65 1.7-9.35 2.1-9.85.85zm33.3-8.95c-.75-1.55-.85-1.6-3.85-1.6-2.95 0-3.15-.05-3.15-1.15 0-.85.35-1.2 1.5-1.4 1.4-.3 1.5-.5 1.5-2.45 0-1.6.4-2.6 1.65-4.25.85-1.2 1.95-2.75 2.4-3.45.65-1.1 1.2-1.3 3.6-1.45l2.85-.15v1.7c0 .95-.45 2.3-1 3-.55.7-.8 1.4-.6 1.55.5.3 6.65-4.85 7.9-6.6.55-.8 1.25-1.1 2.75-1.1 1.9 0 1.95.05 1.95 1.75 0 1.45-.7 2.55-4.55 7-4.1 4.75-4.7 5.25-6.25 5.25-1.9 0-2.2-.7-.7-1.5.55-.3 1-.9 1-1.3 0-.65-.3-.75-1.35-.45-1.6.4-1.65.4-2.55.3-.35 0-.55-.25-.4-.5.15-.2-.2-.85-.75-1.35-.95-.85-1.15-.85-2.35-.15-2.05 1.15-1.95 2.5.4 4.35 1.75 1.45 2 1.9 2 3.6 0 2.45-.95 2.6-2 .35zm-43.45-14.2c-.75-1.45-3.05-7.3-3.05-7.75 0-.25.75-.4 1.65-.3 1.45.15 1.7.4 2.45 2.65 1.05 3.25 1.15 6.25.15 6.25-.4 0-.9-.4-1.2-.85zm30.7-11.7c-11.15-4.25-16.1-5-24.85-3.95-4.35.5-5.05.75-6.35 2.05-1 .95-2 1.45-3 1.45-2.1 0-2.05-1.25.1-3.05 1.1-1 1.35-1.4.8-1.45-.75 0-.6-.7.85-5.25.95-2.85 1.7-5.8 1.7-6.45 0-1.9 1.05-3.8 2.1-3.8.8 0 .9.45.9 3.45 0 1.9-.35 4.4-.75 5.55-.4 1.15-.75 2.2-.75 2.25 0 .1 2.65.05 5.9-.1 10.35-.45 20.6 1.6 28 5.7 2.85 1.55 3.1 1.8 3.1 3.4 0 1.7-.05 1.75-1.85 1.75-1.05-.05-3.7-.75-5.9-1.55zm-28.85-5.55c.4-.35.45-.75.2-1-.55-.55-3.6.85-3.6 1.65 0 .65 2.4.15 3.4-.65zm53.2 4.85c-2.55-1.85-9.3-4.8-13.65-6-10.6-3-11.45-3.45-11.45-5.6 0-1.65 0-1.65 2.4-1.65 1.3 0 3.8.45 5.55 1 1.8.6 4.8 1.4 6.7 1.8 1.95.45 4.55 1.35 5.85 2 1.35.65 2.55 1.2 2.7 1.2.15 0 1.85.95 3.8 2.1 3.35 2 3.5 2.2 3.5 4v1.9h-2.15c-1.15 0-2.65-.35-3.25-.75zM166 451.9c0-2.45 2-5.6 3.6-5.8 1.25-.15 1.3-.05.95 1.3-.25.8-.7 1.95-1 2.5-.6 1.1-2.9 3.6-3.3 3.6-.15 0-.25-.75-.25-1.6zm130.75-16.6c-1.1-.7-8.85-2.9-23.65-6.6-8.05-2-9.6-2.5-9.3-3.15.2-.45.55-2.2.75-3.9.5-4 .85-5.3 4.55-17.25l3.05-9.9h1.6c.9 0 2.6.35 3.8.8 4.2 1.45 13.35 3.65 19.75 4.7 3.55.55 6.95 1.15 7.6 1.25.9.25 1.1.05 1.1-.95 0-1.45-1.45-2-7-2.55-6.1-.65-13.8-2.15-18.8-3.65-7.3-2.2-8.05-2.3-8.9-.95-.8 1.35-2.2 5.4-6.5 18.85-2.45 7.65-3.6 10.6-4.5 11.45-.7.65-1.15 1.4-.95 1.7.15.25-.1.35-.65.15-.55-.15-5.35-1.4-10.7-2.8-5.35-1.35-14-3.65-19.25-5.05-5.2-1.4-13.65-3.6-18.75-4.95-5.1-1.3-10.55-2.9-12.15-3.5-4.1-1.55-4.6-2.75-4.15-10.75.2-3.3.45-6.5.65-7.1.15-.65.05-1.15-.25-1.15s-.7 1.2-.95 2.65l-.45 2.6-.4-3.5c-.35-3.2-.25-3.85 1.2-7.75 2.45-6.7 4.75-10.3 9.95-15.7 4.95-5.1 11.85-10.95 14.05-11.95 1.95-.9 6.85-4.7 12.1-9.45 2.8-2.55 5.3-4.4 5.9-4.4.85 0 .95.15.55.9-.4.75-.25.85 1.35.7 1.6-.15 2.55.3 7 3.45 4.55 3.2 5.1 3.75 5.1 5.1 0 .8-.4 1.75-.85 2.1-.75.55-.7.7.65 1.4.8.45 1.25.8 1.05.85-.85 0-8.2-4.2-11.5-6.6-1.9-1.35-3.55-2.4-3.65-2.3-.1.1.9 1.25 2.2 2.5 4.1 3.95 16.65 10.85 26.65 14.6 3.2 1.2 3.3 1.2 3.2.2-.05-.55-.45-1.2-.9-1.5-.45-.25-.85-.65-.85-.9 0-.75 2.85-.6 6.1.3 2.2.65 2.9 1.05 2.9 1.75s-.35.95-1.5.95c-2.2 0-1.95 1.35.4 1.95 3.55.95 6.4 1.5 10.85 2.05 6.65.85 15.65 3.15 19.1 4.95 4.4 2.2 4.95.55.7-1.95-.55-.35-.6-.6-.25-.85.3-.25.65-.8.85-1.25.2-.6.85-.9 1.85-.9h1.5v4.9c0 2.65.15 7.05.35 9.75.25 4.25.4 4.85 1.25 4.85 1.2 0 1.15.35-.8 5.4-.95 2.4-1.85 5.6-2.05 7.1-.2 1.5-1 5.65-1.8 9.2-.8 3.55-1.6 7.7-1.75 9.25-.25 2.15-4.85 15.55-5.4 15.55-.05 0-.5-.3-1.05-.7zm-4.25-3.05c-.35-.4-1.4-.75-2.45-.75l-1.8.05 1.5.7c.85.35 1.9.7 2.45.7.75.05.8-.1.3-.7zm-67.65-37.3c3.8-3.35 8.65-7.45 10.8-9.1 2.1-1.65 3.85-3.35 3.85-3.7 0-.4-2.35-3.15-5.15-6.1-5-5.15-7.5-8.7-10.65-15.15-1.15-2.35-1.65-2.9-2.6-2.9-1.15 0-1.2.05-.4 1.15 1.1 1.55 4.25 6.85 6.85 11.6 1.5 2.7 3.35 5.15 5.8 7.55l3.65 3.5-2.4 2.3c-1.3 1.25-4.05 3.55-6.1 5.15-2.05 1.6-5 4.1-6.55 5.55-3.4 3.2-5.25 3.7-9.55 2.5-1.65-.45-4.35-1.5-6-2.35-3.65-1.85-4.15-2.9-4.6-9.65-.15-2.75-.5-5.2-.75-5.45-.65-.65-2.5 2.7-2.85 5.25-.4 2.8 1.05 6.3 3.65 9 2.3 2.4 12 6.85 15 6.9.7 0 3.55-2.2 8-6.05zm127.9 27.95c.8-3.55 2.5-7.65 3.25-7.65.55 0 .8.75.9 2.95.15 2.35-.05 3.2-1 4.6-.75 1.1-1.55 1.7-2.3 1.7-1.05 0-1.15-.15-.85-1.6zm-224-24C115.2 393.45 99.85 385.3 95 381c-.7-.6-2.45-2.05-3.9-3.15-3-2.3-3.6-3.15-3.6-5.3 0-1.4.15-1.55 1.55-1.55 1.15 0 2.55.8 5.35 3.05 2.1 1.7 4.15 3.2 4.55 3.35.45.15 1.7.85 2.8 1.6 10.55 7 13.1 8.45 20.5 11.75 14.1 6.2 13.25 5.7 13.25 7.6 0 1.6-.05 1.65-2.1 1.6-1.2 0-3.25-.5-4.65-1.05zm-12.05-15.8c-2.15-1.35-5.2-3.2-6.7-4.1-6.1-3.8-11.5-7.95-16.4-12.75-4.9-4.8-5.1-5.1-5.1-7.1 0-2.05.05-2.15 1.55-2.15 1.15 0 2.3.65 4.6 2.8 6.7 6.1 20.3 15.7 27.5 19.45 2.1 1.1 2.85 1.8 2.85 2.55 0 .85-.25 1-1.25.8-.9-.15-1.25 0-1.25.6 0 .45.35.95.75 1.1 1.3.55.8 1.2-.9 1.2-1.15 0-3-.8-5.65-2.4zm16.6-8.9c-.45-1.25-.35-5.2.15-5.2.25 0 .6-.6.7-1.35.15-1.05.2-.9.3.6.05 1.1.25 2.3.5 2.65.45.75 1.05-3.05 1.05-6.9 0-3.1.55-3.85 2.25-3.1.7.35 1.15.85 1 1.1-.2.3.5.5 1.7.5 1.1 0 2.15-.2 2.3-.5.15-.25.05-.5-.25-.5-.8 0-4.5-2.55-4.5-3.15 0-.3 1.05-.35 2.9-.15 3.25.35 4.1 1.15 4.1 3.65 0 1.9-1.25 2.65-4.5 2.65-1.85 0-1.9 0-2.2 2.4-.2 1.3-.7 3.65-1.15 5.25-.75 2.75-.85 2.85-2.4 2.85-1.05 0-1.75-.3-1.95-.8zM382 349.5c0-1.15.45-4.05 2.3-15.8.65-4.15 1.2-8.55 1.2-9.85 0-2.9.4-3.85 1.5-3.85.75 0 .95.6 1.25 3.85.5 4.85-.35 11.45-2.45 19.9-1.4 5.7-1.75 6.5-2.7 6.65-.85.15-1.1-.1-1.1-.9zm-286.5-8.15c0-1.4.5-2.15 3-4.55 2.85-2.75 3.05-2.85 5.35-2.7 2.25.15 2.4.25 2.55 1.7.15 1.35-.05 1.65-1.85 2.4-1.05.5-2.8 1.8-3.85 2.85-1.45 1.5-2.3 1.95-3.55 1.95-1.55 0-1.65-.1-1.65-1.65zM116 330.1c0-.25.5-.85 1.15-1.3l1.1-.85-1.35.2c-1.2.2-1.4.05-1.4-.95 0-1.4.45-1.65 6.25-3.6 8.9-2.95 25.1-6.5 30.25-6.65 2.95-.05 7.2-.75 5.6-.9-.55-.05-.6-.8-.4-3.4.35-4.3.35-4.3 0-7.8l-.3-2.9 1.95.15c1.8.15 1.95.3 3 2.9 1.6 3.95 1.55 8.15-.1 9.75l-1.2 1.25H162c1.35 0 1.5.15 1.5 1.7 0 1.7 0 1.7-3.1 2.25-1.75.3-4.5.75-6.15 1-6.85 1-22.25 4.9-30 7.6-4.95 1.7-8.25 2.35-8.25 1.55zm43.1-16.45c.95-.85 1.2-2.15.45-2.15-.3 0-.85.5-1.25 1.1-1.35 1.9-.85 2.55.8 1.05zM395 187.15c0-.2.55-1.15 1.25-2.1.65-1 1.55-2.65 2-3.65.75-1.9.75-1.9-.45-1.9-1.15 0-1.2-.1-.7-1.5.25-.85.75-1.65 1.05-1.85.35-.2.4 0 .15.65s-.2.8.15.45c.3-.35.35-1.2.05-2.5-.25-1.1-.5-3.35-.5-5-.05-1.65-.25-3.95-.45-5.1-.35-1.9-.3-2.15.5-2.15.6 0 1.05.6 1.4 1.9.8 2.8.65 11.95-.2 15.35-.95 3.75-2.8 7.7-3.6 7.75-.35 0-.65-.15-.65-.35z"/>
  </g>
  <path d="M28.85 648.3c-2.05-1-2.2-1.2-1.25-1.35 1.55-.3 7.55.7 7.1 1.15-.15.2 11.55.4 26.05.4 14.55 0 26.55.1 26.65.25.15.15-11.65.25-26.2.25-14.55 0-27.25.1-28.2.25-1.2.15-2.5-.15-4.15-.95zm-20.6-4.7c.15-.2 1.2-.55 2.3-.85 1.1-.25 2-.7 2.05-1 0-.25-.95-1.2-2.1-2-2.95-2.05-4.05-3.75-4.35-6.45-.55-4.5 4.45-12 7.55-11.45l1.3.25-2.15 2.6c-4.9 5.65-5.5 8.5-2.8 12.2.85 1.15 1.75 2.1 2 2.1s.8.6 1.25 1.3c.8 1.2.8 1.3-.1 2.15-.85.85-5.75 1.95-4.95 1.15zM241 641.7c0-.2.35-.75.8-1.25.45-.5 1-2.35 1.2-4.3.2-1.85 1.2-5.8 2.2-8.7 1.6-4.65 1.8-5.7 1.5-8.25-.25-2.4-.2-2.85.3-2.35.8.75 1.25 7 .6 7.8-1 1.2-3.15 8.45-3.7 12.5-.35 2.25-.6 4.15-.6 4.15-.15.3-2.3.7-2.3.4zm132.5-16.15c3.55-3.35 5.25-4.5 5.85-3.9.5.55-4.2 4.6-6.9 6l-2.7 1.4 3.75-3.5zm-125.3-16.8c.15-.4.45-1.1.6-1.55.25-.5 0-.85-.75-1.05-.7-.15-1.05-.65-1.05-1.45 0-1.35.75-1.6 1.2-.45.15.4.6.75 1 .75.45 0 1 .45 1.25.95.4.7.3 1.25-.5 2.25-1.1 1.4-2.25 1.75-1.75.55zM381 605c0-.8 2.3-1.5 4.65-1.4l2.1.05-1.9.2c-1.3.15-1.85.45-1.7.85.15.4-.35.65-1.45.7-.95.1-1.7-.1-1.7-.4zm-348.75-4.55c1.1-1.1 2.95-2.6 4.1-3.25 2.45-1.5 10.3-4.7 11.4-4.7 1.35 0 .25 1.05-2.2 2.1-1.25.55-2.85 1.5-3.55 2.1-.7.65-2.15 1.4-3.25 1.7-1.1.3-2.8 1.35-3.75 2.35-1.2 1.25-2.15 1.75-3.2 1.75h-1.5l1.95-2.05zm123.15-47.3c.3-.1.6-.5.6-.85 0-1 3.35-4 3.65-3.2.15.4.4.2.75-.6.5-1.2.55-1.15.55.65.05 2.45-1.9 4.35-4.45 4.3-.95 0-1.45-.15-1.1-.3zm-20.2-17c.75-.9.8-1.15.25-1.15-.75-.05 3.35-4 4.15-4 .8 0 .15 1.2-.95 1.75-.55.3-.9.8-.85 1.15.05.35 0 .4-.15.1-.15-.4-.45-.35-.95.05-.4.3-.6.75-.45.95.1.2-.25.8-.9 1.3l-1.1.95.95-1.1zm9.15-11.25c.55-.65 1.5-2.05 2.1-3.15.95-1.75 1.05-1.8.8-.55-.35 1.6-2.1 4.05-3.25 4.55-.45.2-.3-.15.35-.85zM119 505.85c0-2.9 1.1-4.35 3.25-4.35h1.7l-2 3.25c-1.15 1.8-2.25 3.25-2.5 3.25s-.45-.95-.45-2.15zm13.5-13.95c0-1.1.35-2.1 1-2.65.55-.5 1-1.3 1-1.85 0-.5.2-.9.45-.9s.55-.45.7-1c.2-.75.7-1 2.05-1 1.7 0 1.8.1 1.3 1.05-.3.55-.65 1.5-.8 2.1-.25 1.45-1.8 3.45-3.05 4.1-.6.3-1.4.85-1.85 1.2-.7.6-.8.45-.8-1.05zm11.15-14.35c.25-2.15.65-3.05 1.95-4.4.85-.9 1.9-1.65 2.25-1.65.35 0 .75-.55.95-1.25.45-1.75 2.5-3.25 4.55-3.25h1.7l-1 1.3c-.6.75-1.05 1.6-1.05 1.95 0 .8-3.1 4.75-3.7 4.75-.3 0-1.75 1.2-3.2 2.65l-2.7 2.6.25-2.7zm227.2-96.15c.15-.65.95-2.65 1.8-4.5 1.05-2.45 1.75-3.4 2.4-3.4 1.5 0 1.25 3.45-.4 6.5-1.15 2-1.65 2.5-2.75 2.5s-1.25-.15-1.05-1.1zM303 372.65c-2.4-1.05-11.8-3.35-20.2-4.85-12.15-2.25-20.4-4.95-31.45-10.3-4.7-2.25-5.3-2.65-4.85-3.45.25-.5.3-1.1.1-1.3-.2-.25.05-.25.55-.1.45.2.85.1.85-.15s-.5-.6-1.05-.75c-.85-.3-.95-.45-.4-.8.6-.35.55-.45-.05-.45-.6 0-.65-.1-.05-.45.45-.3 1.65.2 3.75 1.5 4.7 3 13.8 5.75 31.55 9.5 11.5 2.4 15.95 3.55 21.35 5.35 2.3.8 4.45 1.35 4.8 1.2.5-.15.6.25.3 1.7-.35 2.2-.55 2.45-1.35 2.45-.35 0-.6.35-.6.75 0 1-1.15 1.1-3.25.15zm-68.25-32.6c-.5-4.85.25-6.9 2.55-7.35.95-.15 1.85-.25 1.95-.1.1.1 0 1.05-.25 2.15-.25 1.1-.5 2.7-.5 3.55 0 1.55-1.75 4.7-2.8 5.05-.4.15-.7-1-.95-3.3zm22.25 2.1c0-.35.5-.65 1.1-.65.6 0 1.5-.4 2-.85.7-.65 2.15-.9 5.8-1.05 3-.15 5.25-.5 5.85-.9.55-.4 1.95-.7 3.1-.7 2.95 0 2.7-.75-.45-1.5-1.45-.35-4.65-1.4-7.15-2.4-7.35-2.85-20.65-6.5-24.5-6.75-1.9-.1-2-.05-1.9 1.3.05 1.1-.1 1.35-1.15 1.35-1.05 0-1.2-.2-1.2-1.95 0-1.5.3-2.2 1.1-2.75 1.5-1.05 2.85-1 5.95.25 1.45.55 6.5 2.1 11.3 3.45 4.75 1.35 10.05 3 11.75 3.7 5.65 2.2 11.55 3.4 16.8 3.35 4.75-.05 8.9-.65 10.75-1.65 1.15-.6 1.9 0 .8.6-.45.25-1.35.9-2 1.45-1.2 1-1.2 1-.2 1.75.8.65 2.05.75 6.75.55l5.75-.25-4.75 1.25c-5.55 1.4-9.65 1.6-24.75 1-9.4-.35-10.85-.3-13.5.5-4.65 1.4-7.25 1.7-7.25.9zm-31.5-22.2c-4.6-1.2-7.2-2.3-8.2-3.45-.55-.7-2.05-1.7-3.3-2.25-2.4-1.05-2.95-1.45-3.8-3-.7-1.25-3.55-1.65-12.1-1.7-6.8-.05-12.5-.75-14.95-1.9-1.4-.6-1.65-.95-1.65-2.4 0-1.65.6-2.3 1.25-1.3.15.25 1.45.75 2.95 1.1 3.15.7 6.65.2 13.4-1.85l4.35-1.35 1.9 1.3c12.15 8.4 15.65 10.7 20.05 13.35 2.8 1.65 5.1 3.25 5.1 3.5 0 .6-2.65.55-5-.05zm78.5-2.7c0-3.5-.05-3.5-9.3-3.9-3.85-.2-8.25-.6-9.75-.9-4.8-1-7.85-3.1-6.3-4.35.35-.25 1.75-.9 3.15-1.4 2.5-.85 2.65-.85 5.75.15 1.75.6 4.65 1.7 6.4 2.4 3.4 1.45 3.95 1.45 14.3.5l3-.3-2 1.1c-3 1.6-3.75 2.45-3.75 4.15 0 2.45-.6 5.3-1.05 5.3-.25 0-.45-1.25-.45-2.75zM255.5 306c0-.25.85-.6 1.9-.75 2.5-.4 7.4-2 13.1-4.35 6.85-2.8 7-2.95 7-5.95s.6-2.85 1.7.5c1.5 4.7 1.45 4.75-6.2 7.05-2.05.65-3.95 1.3-4.25 1.5-2.1 1.5-13.25 3.2-13.25 2zm-17.15-3.55c-2.9-2-3.5-2.95-2.05-2.95 1.25 0 5.2 3.1 5.2 4.1 0 .5-.1.9-.15.9-.1 0-1.45-.9-3-2.05zM202.5 278.7c0-1.1 4.25-10.85 4.8-11.05 1.05-.4 1.3.05.75 1.4-.3.65-1.1 3.15-1.85 5.6-1.2 3.85-1.5 4.35-2.5 4.35-.65 0-1.2-.15-1.2-.3zm49.45-2.2c-1.3-.2-3.2-.9-4.3-1.55l-2-1.1-1.05 1.05c-1.1 1.1-4.1 1.55-4.1.6 0-.25.55-.5 1.25-.5 1.7 0 1.65-1.2-.35-5.65-1.4-3.25-1.55-4.05-1.55-8.6.05-3.8.3-5.65 1.1-7.7.55-1.5.9-2.85.8-3.05-.35-.55 1.8-.85 3.5-.45 1.5.35 1.5.35.15.4-1.2.05-1.4.3-1.75 2.45-.2 1.3-.4 4.7-.4 7.6 0 6.1.75 8 4.55 12.4l2.3 2.6h3.95c3.6 0 3.95.1 3.95 1 0 .85-.3 1-1.85.95-1.05-.05-2.95-.25-4.2-.45zm-30.85-7.75c-1.1-1.25-2.6-3.75-3.3-5.5-1.5-3.75-1.55-4.25-.55-4.25.4 0 1.4 1.4 2.25 3.15 1.55 3.15 4.15 6.75 5.35 7.5 1.05.65.75 1.35-.55 1.35-.8 0-1.9-.75-3.2-2.25zm135.5-22.05c-1.35-1.6-2.1-2.85-2.65-4.8-.4-1.4-.35-1.5.85-1.2 1.15.3 1.2.25.7-.7-.4-.75-.4-1 .15-1 1.15 0 1.85 1.15 1.85 3.05 0 1.05.25 2.05.5 2.2.6.35.7 3.75.15 3.75-.25 0-.9-.6-1.55-1.3zm-148.45-8.6c.2-1.65 1-4.65 1.85-6.75.8-2.05 1.5-4.65 1.5-5.8 0-1.2.3-2.15.7-2.4.4-.25 1-1.65 1.25-3.15 1.25-6.7 1.25-6.75 2.5-6.9.65-.1 1.7-.05 2.35.1l1.2.3-1.45 2.9c-.8 1.6-2.65 6.95-4.05 11.85-1.4 4.95-2.75 9.1-2.95 9.25-.25.15-.8 1-1.25 1.9-1.3 2.55-2 2.05-1.65-1.3zm144.1-29.2c.4-6.45.45-6.6 2.05-7.65l1.2-.75v5.5c0 3.35-.2 5.5-.5 5.5-.25 0-.5.7-.5 1.5 0 1.3-.2 1.5-1.3 1.5h-1.35l.4-5.6zM235.5 193.65c0-1.05.65-2.1 2.55-3.9 3.3-3.2 7.8-8.85 8.45-10.5.6-1.55-.2-5.55-1.3-6.8-1.45-1.6-2.4-13.45-1.05-13.45.3 0 1.2 1.8 2 4 .75 2.25 2.35 6.25 3.55 8.9 3.45 7.75 3.9 6.25-4 14.05-3.85 3.8-7.7 7.35-8.55 8l-1.65 1.1v-1.4zm164.05-18.4c-.05-1.2-.15-1.35-.6-.75-.4.6-.45.5-.25-.5.15-.7.3-1.9.35-2.75.05-.85.25-.15.5 1.5s.35 3.25.25 3.5c-.15.3-.25-.15-.25-1zm-.55-7.85c0-2.45-.95-4.55-1.05-2.4-.05.8-.2.45-.5-.95-.8-4.05-3.8-7.75-8.9-10.85-.95-.6-5.25-4.55-9.5-8.8-4.3-4.25-9.3-9-11.15-10.6-3.5-3-4.05-3.8-2.6-3.8 1.15 0 5.7 4.1 27.7 25.15 2.05 2 4.4 4.75 5.15 6.2 1.55 2.9 2.35 7.3 1.4 7.85-.35.25-.55-.35-.55-1.8zm-139.9-6.8l-1.65-.9 1.15-1c1.55-1.35 4.65-2.7 6.15-2.7 1.3 0 1.65.7.65 1.3-.35.2-.4.15-.2-.2s.15-.6-.1-.6-.75.75-1.1 1.65c-.8 1.9-1.95 3.35-2.7 3.35-.3-.05-1.3-.45-2.2-.9zm29.3-4c-.7-.3-.55-.85 1.2-4.45 2.55-5.25 3.6-5.55 3.3-.9-.15 2.5-.45 3.5-1.4 4.5-1.2 1.3-1.65 1.4-3.1.85zm29.55-4.45c-1.2-1.3-3.1-3.5-4.2-4.95-4.3-5.55-7.8-9.7-8.25-9.7-.3 0-1.15-.65-1.9-1.5-1.8-1.85-3.1-1.95-3.1-.25 0 1-.25 1.25-1.2 1.25-.85 0-1.3.35-1.5 1.25-.25 1-.65 1.25-1.85 1.25-1 0-1.4-.2-1.15-.55.3-.5 2.6-10.2 2.8-11.8.25-2.15 3.95 1.3 13.15 12.35 2.2 2.6 5.35 6.35 7 8.25 1.65 1.95 3.55 4.25 4.15 5.15l1.15 1.6h-1.45c-1.1 0-2-.6-3.65-2.35zm-80-15.5c-2.4-2.65-3.45-4.3-3.45-5.5 0-.7-.65-1.9-1.5-2.75-1.05-1-1.5-1.95-1.5-3.05 0-3.25-.4-3.8-2.95-3.95-2.2-.15-2.3-.25-2.45-1.7-.2-1.8 1.05-3.3 4.1-5.1 1.3-.8 1.9-.9 2-.45.1.3.65 2.6 1.2 5 .85 3.55 1.5 5.05 3.45 7.75 2.9 4.05 4.65 7.7 4.65 9.65 0 1.2-.2 1.45-1.15 1.45-.65 0-1.75-.6-2.4-1.35zm119.8-11.6c-1.4-1.05-2.8-2.3-3.2-2.75-.6-.7-.55-.8.3-.8 1.45 0 5.65 3.35 5.65 4.5 0 .55-.05 1-.1.95-.1 0-1.3-.85-2.65-1.9zm-125.4-17.35c-.6-1.05 1.15-5 3.1-6.9 1.55-1.5 2.3-1.85 4.1-1.95 1.65-.1 2.2.1 2.2.65 0 .4-.55.8-1.25.9-.7.1-1.45.4-1.7.65-.3.25-1 .45-1.55.45-1.5 0-3.15 1.95-3.9 4.55-.35 1.2-.8 1.95-1 1.65zm45.65-5.8l-2.75-2.5 1.9.25c1.75.3 1.9.2 2.2-1.2.35-1.75 1.9-2 2.35-.3.5 1.95.3 5.2-.35 5.75-.5.4-1.3-.05-3.35-2zm40.3-13.1c-.35-.9-.85-2.65-1-3.85-.65-4.35-1.45-7.2-2.2-8.05-.7-.85-.65-.9.75-.9h1.45l1.6 6.9c1.85 7.95 1.8 7.6.85 7.6-.4 0-1.05-.75-1.45-1.7zm-39.2-5.05c.2-5.6 1.1-7.8 3.25-8.15 1-.15 1-.1-.2 2.4-.85 1.75-1.3 3.8-1.5 6.75C280.4 88 280.2 89 279.6 89c-.6 0-.7-.9-.5-5.25zM288 73.3c0-.95 2.6-1.8 5.4-1.8 2.85 0 2.3.65-1.35 1.7-3.35 1-4.05 1-4.05.1z" fill="#f2edeb"/>
  <g fill="#f9f9fa">
    <path d="M246.3 616.7c-.45-1.75.1-4.5 1.55-7.4.8-1.55 1.05-2.6.75-2.9-.3-.3-2.75-.3-6.8.05-13 1.1-27.3.5-52-2.2-15.6-1.7-18.35-2.3-31.3-6.55-16.8-5.55-31.9-13.35-36-18.55l-1.05-1.35 1.7-1.55c.95-.8 4.95-3.65 8.85-6.25 8.65-5.85 18.4-12.95 19.7-14.4.55-.6 1.2-1.1 1.5-1.1.3 0 1.45-.8 2.55-1.8 1.1-1 2.55-2.15 3.15-2.6.65-.4 1.35-1.15 1.5-1.65.2-.45 1.8-2.15 3.6-3.7 1.8-1.6 7.05-6.55 11.65-11.05 12.85-12.5 26.45-22.25 57.6-41.3 4.95-3.05 11.2-7 13.95-8.85 2.7-1.8 6.65-4.45 8.75-5.8 5.45-3.55 17.25-13.5 20.9-17.6 2.65-2.95 3.3-3.45 4.75-3.4 1.6 0 1.7.1 2.8 3.5l1.15 3.5-1 4c-2.05 8.15-2.55 10.9-2.3 11.95.2.7.15.85-.15.4-.55-.8-2.4 4.95-1.9 6.15.2.5.1.7-.3.45-.35-.25-.45.05-.3.95.15.8.05 1.2-.25 1-.3-.2-.35.25-.15 1.15.25 1.05.2 1.25-.2.7-.4-.65-.5-.6-.55.25-.05.55-.15 1.8-.25 2.75-.25 3.65-8.8 34.5-9.5 34.5-.7 0-2.4 7.25-1.9 8.05.2.35.15.45-.15.3-.55-.35-1.35 2.45-.9 3.2.15.25-.95 4.7-2.5 9.95-1.5 5.25-2.75 9.7-2.75 9.8 0 .15-.2.15-.45 0-.2-.15-1.95 4.4-3.8 10.1-1.9 5.7-4.75 13.65-6.35 17.75-2.4 6.05-2.85 7.75-2.65 9.5.2 1.75.15 1.85-.2.6l-.45-1.5-.05 1.55c0 .9.3 1.85.75 2.25.5.4.65 1.05.45 1.8-.15.7.15 2.15.75 3.45.55 1.3.85 2.5.7 2.75-.15.25 0 .45.3.45s-.1.85-.85 1.85c-1.2 1.55-1.4 2.3-1.4 5 0 3.25-.4 4.1-.95 1.85zM240.75 516c3.6-.55 7.4-1.15 8.5-1.3 1.1-.15 2.5-.35 3.15-.5.6-.1 1.6-.3 2.25-.4 1.95-.35 11.5-2.3 14.35-2.9 1.5-.3 2.4-.65 1.95-.75-.45-.1-2.85.25-5.4.75-2.5.55-4.7.8-4.8.6-.15-.25.75-1.3 2-2.4l2.3-2-1.65.05-1.65.1v-3c.05-5.35.45-6.35 3.25-7.85 1.4-.8 2.5-1.65 2.5-1.9 0-.7-2.3-.1-4.75 1.3l-2 1.1v3.95c0 3.55-.15 4.2-1.35 5.95-.8 1.1-1.4 2.55-1.4 3.25 0 1.6-1.15 2.2-5.75 2.95-8.95 1.5-18.3 3.35-18.7 3.8-.35.3.25.25 7.2-.8zm193.15 94.15c-.4-.5-2.15-3.6-3.9-6.9-4.6-8.8-10.05-17.75-10.8-17.75-.4 0-.55-.3-.4-.7.3-.8-.85-2.65-7.5-11.6-2.5-3.35-5.5-7.4-6.65-9.05-1.15-1.6-5.55-7.75-9.75-13.65-11.25-15.75-17.2-24.55-17.6-26.15-.2-.75-.55-1.25-.8-1.1-.25.15-.35 0-.25-.4.3-.7-1.65-3.6-2.15-3.15-.15.15-.75-.45-1.35-1.35-2.65-3.9-3-4.55-2.3-4.1.5.3.4-.15-.3-1.3-.55-.95-1.25-1.65-1.6-1.55-.3.05-.55-.05-.6-.25 0-.25-.05-.95-.15-1.65-.1-1.45-2.35-5.5-3.6-6.55-.8-.6-.85-.6-.45.05.25.55.25.6-.15.25-2-1.85-15.55-32.1-15.85-35.4-.1-1.1-.35-2.1-.55-2.3-.2-.15-.2.2-.05.85.15.6.05 1-.2.8-.25-.15-.35-1-.2-1.85.2-1.1.05-1.9-.5-2.6l-.85-1 .35 1c.7 2.2-.7-.15-1.95-3.2-1.5-3.65-1.6-4.55-.6-4.55.4 0 1.45-.6 2.35-1.35 2.35-2 6-2.6 14.95-2.4 8.35.15 8.4.15 18.95 4.05 2.55.95 4.75 1.65 4.9 1.5.4-.4-6.05-3.7-10-5-7.65-2.6-20.3-3.5-25.25-1.75-2.75.95-3.05.1-1.45-4.45 1.3-3.75 1.8-7.6.9-7.6-.6 0 3.95-14.55 4.85-15.45 1.7-1.75 2.2-3.1 1.9-5-.3-2-.4-1.85 3.9-9.8 1.3-2.45 2.8-5.8 4.05-9.1.65-1.7 1.5-3.6 1.9-4.25.4-.65 1.95-3.95 3.4-7.4 1.4-3.45 2.95-6.5 3.35-6.85.4-.35.55-.85.3-1.25-.2-.35-.15-.5.05-.25.5.45 2.25-2.05 2.2-3.15 0-.45-.25-.3-.55.4-.3.6-.75 1.1-1 1.1s-.1-.65.35-1.5c.4-.8.75-1.7.75-1.95 0-.3.75-2.15 1.7-4.15 1.6-3.45 2.7-6.8 5.35-16.15.6-2.2 1.3-4.35 1.5-4.75.7-1.25 3.45-13.1 3.15-13.6-.15-.25-.05-.7.2-1.05 1.1-1.35 1.25-12.8.15-12.15-.15.1-.35-3-.4-6.95-.1-8.05-.75-14.2-1.8-17.05-2.55-6.9-5.55-13.3-10.9-23.5-2.5-4.8-7.65-13.45-8.7-14.7-.35-.4-1.5-2.45-2.6-4.5s-2.6-4.65-3.3-5.7c-.75-1.05-1.35-2.15-1.35-2.4 0-.3-.45-1.05-1-1.75-1.05-1.35-1.35-3.15-.55-3.15.25 0 .4-.3.35-.6-.2-1.1-2.3-8.05-3.2-10.65-1.1-3.15-1.25-17.3-.2-17.65.3-.1.6-.85.6-1.65 0-.8.2-1.45.5-1.45s.45-1.65.45-3.95c0-2.2.1-4.25.25-4.5.55-.9 4.85-2.6 9.05-3.6 2.2-.55 4.7-1.25 5.5-1.65.85-.35 2.8-1.25 4.4-2 1.55-.7 4.15-1.4 5.75-1.6 5.8-.55 9.65-1.75 13.2-4.1 1.85-1.25 3.4-2.45 3.4-2.7 0-.2.25-.4.5-.4.35 0 .45 1.3.35 3.5-.2 3.35-.15 3.5 1.1 3.95.7.25.95.5.55.5-.45.05-1.55.7-2.5 1.5-1.55 1.3-1.65 1.5-.8 1.85.55.2 1.45.05 2.3-.5 1.6-.9 2.2-1.05 1.75-.3-.2.3.6 1.55 1.7 2.8 2.4 2.55 6.6 8.95 9 13.7.95 1.8 2.5 4.7 3.55 6.5 6 10.4 11.25 23.35 13.95 34.4 4.15 17 6.1 25.8 8 36.35 2.45 13.5 2.85 16.8 3.8 32 .4 6.6.85 12.8 1 13.75.15.95.7 8.9 1.25 17.65.85 14.2.9 16.3.25 19.5-.4 2-.95 6.1-1.25 9.1-.8 8.5-1.85 16.3-2.65 19.55-.45 1.6-1 4.55-1.35 6.45-1.7 10.35-9.25 36.35-15 51.75-.85 2.35-2.15 5.85-2.85 7.75-1.6 4.4-8.25 17.65-12.8 25.5-1.95 3.3-4.5 7.75-5.7 9.9-3.85 6.7-10.65 16.4-14.75 20.95-2.15 2.4-3.9 4.65-3.9 5 0 .35 1.3 2.55 2.9 4.9 6.75 10 23.05 33.1 26.05 37 3.25 4.15 7.6 10.15 12.3 17 .65.95 1.95 2.9 2.9 4.25 1.95 2.8 10.05 18.7 9.7 19.05-.1.1-.55-.2-.95-.65zm-44.85-113.9c2.05-1.1 2.45-2.45 2.45-8.75 0-5.25-.05-5.45-1.3-6.45-1.7-1.35-2.6-1.3-5.55.15-2.8 1.4-21.45 8.2-23.65 8.65-.85.15-1.65.5-1.8.7-.55.95 2.8.4 6.85-1.1 2.3-.85 5.2-1.85 6.45-2.2 1.25-.3 5.1-1.6 8.55-2.75 3.5-1.25 6.65-2.05 7.1-1.85.7.25.85 1 .85 4.25 0 4.2-.4 5.1-2.45 5.1-.65 0-1.65.35-2.15.85-.9.8-1.25 3.15-.55 3.8.6.6 3.7.35 5.2-.4zm7.05-17.85c1.6-.45 2.9-1.65 6.45-5.8 2.5-2.85 4.4-5.3 4.25-5.45-.1-.15-1.55 1.05-3.15 2.65-5.95 5.85-8.5 6.95-9.65 4.15-.55-1.3-.5-1.65.35-2.85 1.85-2.55 1.85-2.7.35-2.5-.85.1-1.7.65-2.15 1.45-.45.7-1.55 2.25-2.45 3.5-1.85 2.45-1.9 3.9-.1 4.8 1.55.8 3.6.8 6.1.05zm10.4-23.3c0-.4-6.7-4.6-7.3-4.6-.15 0-1.35-.55-2.7-1.2-1.3-.65-3.9-1.55-5.85-2-1.9-.4-4.9-1.2-6.7-1.8-1.75-.55-3.65-1-4.2-.95-2.35 0 2.15 1.75 10.7 4.2 4.35 1.2 11.1 4.15 13.65 6 1.2.8 2.4 1 2.4.35zM298.4 591c-.1-1.1.1-2.9.4-4 .4-1.35.4-2.1.05-2.45-.4-.4-.35-.55.1-.55.35 0 .45-.25.25-.6-.2-.3-.15-.4.2-.2.8.45 1.2-.45 1.4-3.3.2-2.95.85-5.2 2.5-8.05 1.5-2.75 3.3-8.3 2.85-9-.15-.3-.05-.35.25-.15.4.25.6-.05.6-.8 0-.65.2-1.4.4-1.65.2-.3.8-1.75 1.25-3.25.5-1.5 1.5-4.75 2.3-7.25.8-2.45 1.25-4.6 1.05-4.75-.5-.35 3.05-10.05 3.55-9.7.25.1.75-.55 1.15-1.55 1.2-2.85 2.6-2.4 5.25 1.75 1.2 1.9 2.35 3.35 2.6 3.25.2-.15.55 0 .75.3.2.4.15.45-.2.25-.9-.55-.75.15.45 2 .55.95 1.2 1.6 1.45 1.45.2-.15.55.1.7.55.15.4.1.6-.2.45-.3-.15-.5-.05-.5.3s.95 1.5 2.15 2.6c1.15 1.1 1.8 1.85 1.4 1.6-1.15-.65-.15 1.5 2.65 5.65 1.45 2.1 3.35 4.6 4.25 5.55 1.1 1.2 1.4 1.8 1 2.1-.45.25-.15 1.05.95 2.9.9 1.4 1.35 2.55 1.1 2.55-.3 0-2.7 1.95-5.4 4.3-2.65 2.35-6.2 5.1-7.85 6.1-1.65 1-5.15 3.35-7.75 5.25-2.6 1.9-6.5 4.35-8.7 5.45-3.6 1.8-11.05 4.9-11.85 4.9-.2 0-.45-.9-.55-2zM71.3 571.1c-.3-.55 6.9-7.75 7.35-7.35.2.15.25.1.1-.1s2.15-2.8 5.1-5.8c3.1-3.15 5.15-5.55 4.8-5.7-.35-.1-1.7-1.75-3.05-3.55-1.35-1.85-3.4-4.45-4.55-5.8-6.1-7-16.35-25.8-21.6-39.55-2.4-6.25-6.2-19.75-7.75-27.25-2.55-12.4-3-19.6-2.3-37.35.7-17.95 1.7-24.9 5.85-40.15 1.95-7.2 2.45-8.65 5-14.5 1.05-2.35 2.6-6.4 3.5-9 .9-2.6 2.55-6.85 3.7-9.45 1.15-2.55 3.1-7.4 4.4-10.75 5.3-14.05 14.2-28.9 26.7-44.55 10.35-13 15.55-20 22.45-30.25 11.55-17.25 18.6-30.75 23.25-44.75 1.85-5.55 2.9-9.95 4.7-20.25 1.15-6.2 2.4-12.35 2.8-13.7.4-1.35 1.2-5.05 1.7-8.25 1.2-6.9 3.1-12.6 7-20.8 4.75-9.9 8.45-15.4 15.4-22.8 8.15-8.75 20.2-18.65 27.4-22.5 7.65-4.1 23.65-11.15 26.65-11.75 1.65-.3 1.45.15-1.2 3.05-1.35 1.45-1.1 1.75 1.6 1.75h2.1l.6 2.5c.3 1.35.4 2.75.2 3.05-.25.45-.1.5.6.25.5-.2.75-.2.6 0-.2.2.1.9.6 1.6.55.65 1 1.75 1 2.35 0 1.2 3.35 5.85 4.8 6.65.7.4 1 1.9 1.5 7.6.4 3.9 1.15 9 1.7 11.35.55 2.35 1.05 5.45 1.05 6.95.05 1.5.25 2.7.45 2.7.25 0 .35.85.25 1.95-.1 1.05.15 2.45.55 3.1 1 1.8 1.6 3.2 1.8 4.25.1.55.35 1.1.6 1.3.3.2.25 1.4-.15 3.1-.45 2.05-1.3 3.6-3.5 6.4-4.2 5.3-9.75 10.5-10.8 10.1-1-.4-3.4 1.8-6.65 6.05-1.25 1.65-3 3.8-3.9 4.75-.9.95-2.35 3.35-3.25 5.25-1.7 3.8-2.3 4.5-3.3 3.65-.45-.35-.7-.3-.85.15-.3.95-.85 3.5-1 4.7-.35 2.8-.95 4.7-1.6 4.95-.45.15-.7 1-.7 2.35 0 1.1-.65 3.65-1.45 5.6-.75 2-1.6 4.55-1.8 5.75-.35 2.3-.95 3.2-8.75 13.35-11.1 14.45-17.05 23.3-20.75 31-1.85 3.8-1.95 4.3-2.15 9.9-.2 5.7-.15 5.95 1.1 7.85.7 1.1 1.85 2.35 2.55 2.8.7.45 1.25 1.1 1.25 1.5 0 1.9 7.25 3.15 19 3.25 6.65.05 8.4.2 9.15.85.45.4.85.95.85 1.2 0 1.15 3.65 3.15 4.6 2.6.35-.2.4-.1.2.2-.2.35-.1.6.2.6.3 0 1.1.6 1.7 1.4 1.1 1.3 4.75 2.8 7.95 3.3.8.15 3.3 1.15 5.6 2.25 2.25 1.05 5.95 2.6 8.2 3.35l4.05 1.35-1.95.9c-1.05.45-2.05 1.1-2.25 1.4-.5.8 1.7 3.9 5.45 7.7 4.65 4.7 6.5 5.8 10.3 6.25 2.95.35 3.1.45 2.05 1.05-2.7 1.45-6.1-.15-13.55-6.4-2.3-1.95-4.35-3.55-4.55-3.55-.55 0-1.15 1.55-1.1 2.75.05.8 0 .85-.2.15-.4-1.4-1.55-1.05-2.1.6-.35.95-.4 2.45-.1 4.1l.4 2.65-4.55 4.45c-4.7 4.5-11.1 9.6-13.35 10.65-4.45 2-17.75 15-20.65 20.15-4.45 8-6.2 15.9-5.7 25.6l.35 5.95-1.7 3.1c-.9 1.7-2.65 4.55-3.9 6.35-3.75 5.35-10.75 16.7-12.7 20.6-1 2-2.75 5.1-3.95 6.9-1.15 1.8-3.4 5.75-5.05 8.75-1.6 3.05-3.3 6.2-3.75 7-.45.9-1.85 2.05-3.45 2.85-1.45.75-3.15 1.8-3.7 2.3-.6.5-1.7 1.3-2.45 1.8-.8.5-1.65 1.55-1.95 2.35-.25.8-.75 1.45-1.1 1.45-.95 0-3.65 3.1-4 4.6-.15.7-1.75 2.9-3.55 4.85-1.8 1.95-3.25 3.85-3.25 4.2 0 .4-.2.35-.5-.15-.4-.65-.55-.55-.8.4-.2.6-.5 1.1-.75 1.1s-.45.35-.45.8c0 1.05-3.9 5.7-4.75 5.7-.75 0-8.25 7.75-8.25 8.5 0 .3-.2.45-.45.3-.65-.4-1.6.9-2.05 2.8-.25.9-1 3.25-1.7 5.25-1.3 3.6-2.55 14.25-1.95 16.55.15.75-.5 1.6-2.65 3.4-1.6 1.35-5 4.35-7.55 6.7-2.55 2.35-6.3 5.7-8.3 7.5-7.4 6.6-18.4 17.15-18.1 17.4.5.5-1.35 2.05-2.15 1.75-.45-.2-.65-.1-.45.2.15.25-.6 1.35-1.65 2.4-1.1 1.1-2 1.75-2 1.55 0-.25-.35-.15-.75.2s-.6.8-.45 1.05c.15.25 0 .4-.4.35-.35-.1-.6.15-.5.5.1.7-.2.8-.6.2zm4.7-4.35c.95-.95 1.6-1.75 1.45-1.75-.15 0-1 .8-1.95 1.75s-1.6 1.75-1.45 1.75c.15 0 1-.8 1.95-1.75zm74.7-133c.95-.4 2.15-1.3 2.6-1.95.8-1.3 1.65-8.1 1.7-13.65 0-2.05.25-3.35.75-3.85.4-.4 2.9-1.25 5.55-1.85 4.05-.9 4.85-1 5.25-.4.65.9.3 9.3-.35 9.95-.3.3-2 .9-3.75 1.4l-3.2.85-.15 2.2c-.2 2.7.35 3.3 3 3.1 4.5-.25 5.6-2.1 6.65-10.9 1.05-9.05 1-11.75-.25-12.9-1-.9-1.15-.9-5.4.45-5.75 1.9-8.5 3.2-9.35 4.5-.4.6-.9 3.8-1.25 7.8-.75 9.15-.7 9-2.55 9-1.1 0-2.05.5-3.25 1.7-3.7 3.7-1.1 6.65 4 4.55zm40.25-25c-.4-.45-4.35-2-8.75-3.55-4.35-1.5-11-3.85-14.7-5.15-3.7-1.35-10.35-3.75-14.75-5.35-14.6-5.25-31.55-13.15-39.95-18.55-5-3.2-15.95-11.5-19.65-14.9-5.1-4.6-3.6-1.9 1.95 3.5 5.45 5.35 10.1 8.8 19.4 14.6 13.1 8.1 29.05 14.85 59 24.95 14.95 5.05 19.1 6.1 17.45 4.45zM131.5 397.1c-1.5-.75-5.8-2.7-9.5-4.3-8.05-3.55-12.3-5.95-21.85-12.4-1.15-.75-2.25-1.4-2.5-1.4-.4 0-4.75-3.3-7.85-5.95-.9-.75-.9-.75-.4.25.3.55 1.75 1.95 3.2 3.05 1.45 1.1 3.2 2.55 3.9 3.15 4.85 4.3 20.2 12.45 33.75 17.9 3.65 1.5 4.45 1.25 1.25-.3zm3.55-17.05c1.65-1.65 2-4.25.65-4.75-1.1-.4-4.7 1.25-6.2 2.9l-1.25 1.4 1.2.95c1.75 1.4 3.85 1.2 5.6-.5zm2.1-14.95l.1-2.6 2 .3c1.1.15 2.65.05 3.4-.25 1.2-.45 1.3-.7.85-1.55-.3-.55-1.05-1-1.65-1-.6 0-1.75-.35-2.6-.8-1.55-.8-3.7-.55-4.35.45-.5.75-.5 11.95-.05 13.2.5 1.3 2.15-4.3 2.3-7.75zM103 336.75c.95-.5 2.1-1.15 2.5-1.5.4-.35 3.7-2.1 7.25-3.95 7.3-3.7 15.1-6.3 27.1-9 4.35-1 8.7-2 9.65-2.3.95-.25 3.55-.7 5.75-1 2.2-.3 4.7-.75 5.5-1 1.35-.45 1.3-.5-.5-.2-1.1.15-4.35.45-7.25.7-7.3.65-20.9 3.65-29.6 6.55-5.05 1.7-14.95 6.85-17.15 8.9-.8.8-2.05 1.55-2.75 1.7-.7.2-2.5 1.6-4 3.2-2.2 2.3-2.3 2.45-.5.85 1.25-1.15 3.05-2.5 4-2.95zm57.35-23.55c1.05-1.05 1.25-1.6 1-3.15-.3-2.5-2.45-7.1-2.7-5.95-.1.45.05 1.3.3 1.85.85 1.5.65 3.9-.45 6.05-.55 1.1-1 2.1-1 2.25 0 .7 1.7.1 2.85-1.05zM303.5 413.65c0-.5.25-1.25.5-1.65.4-.6.5-.45.5.6 0 .75-.2 1.5-.5 1.65-.25.15-.5-.1-.5-.6zm-6.2-80.3c3.95-4.3 5.9-8.3 6.65-13.6.9-6.15.95-6.2 1-.85.05 4.55 0 4.75-2.05 8.45-2.45 4.45-4.45 6.9-6.6 8-1.35.7-1.25.5 1-2z"/>
    <path d="M248.15 306.4c-4.55-.35-8.85-2.3-8.3-3.7.35-.9.2-.95 3.05.85 2.35 1.45 2.9 1.55 8.6 1.8 3.3.15 5.85.45 5.65.7-.65.55-4.5.75-9 .35zM265 304l-1.25-.35 1.5-.6c2.15-.9 4.75-1.25 4.75-.7 0 .85-1.75 2.15-2.8 2.1-.5-.05-1.5-.2-2.2-.45zm-26.25-2.55c-.2-.25-.7-.4-1.15-.3-.5.1-2.25-.9-3.95-2.25-3.5-2.7-5.1-2.95-9.4-1.7l-2.4.75 1.45-1.5c2-2.1 5.2-2.05 9.3.15 2.7 1.45 7.65 5.35 6.8 5.4-.2 0-.5-.25-.65-.55zm-26-.55c-2.05-.75-7.15-4.25-8.9-6.1-3-3.2-3.35-5.45-2-12.3.6-3.2 1.15-4.65 2.2-5.9 1.5-1.7 3.25-6.7 2.7-7.6-.35-.6 1.15-3.1 4.6-7.6 2.45-3.25 4.55-4.1 6.2-2.6.55.5.85 1.25.7 1.7-.4 1.25.6 3.6 2.15 5 .75.7 1.1 1.05.75.8-1.25-.85-1.2.1.1 1.65.75.85 1.8 1.55 2.3 1.55.55 0 1.85.65 2.85 1.45 2.15 1.7 6.1 2.9 12.1 3.8 3 .4 4 .7 3.3 1-1.65.7-11.3-.95-14.5-2.5-3.1-1.5-8-6.05-8.55-7.85-.85-2.8-2.8-6.35-3.4-6.1-.7.3-5.1 5.95-6.8 8.8-.65 1.1-1.6 3.5-2.1 5.35-.5 1.8-1.5 5.35-2.15 7.8-2.1 7.55-1.75 9.85 2.1 13.7 3.75 3.75 6.1 5.05 9.2 5.05 2.55.05 2.6.05 1.4.75-1.45.85-2.2.85-4.25.15zm62.55-21.2c-1.65-2.3-3.55-2.7-12.65-2.75-8.1-.05-11.45-.4-10.35-1.05 1.75-1.1 20.1-.95 19.4.15-.15.25.2.45.75.45 1.9 0 3.4 1.05 3.95 2.8.6 2 .2 2.15-1.1.4zm-27-4.45c-2.5-1.35-3.9-1.6-3.65-.7.05.3-.2.7-.55.8-.55.2-.6.05-.15-.75.3-.5.4-1.05.3-1.2-.1-.1.35-.25 1-.3.65-.05 1.4-.15 1.65-.2.5-.2 4.3 3.05 4 3.4-.15.1-1.3-.35-2.6-1.05zm58.75-108c-1.55-.5-3.25-1.75-5.75-4.15-4-3.9-5.3-4.7-9.4-5.6-3.25-.75-3.6-1.45-1.8-3.35.8-.85 1.15-1.85 1.2-3.55 0-1.3.5-3.4 1.1-4.7.55-1.25 1.35-3.55 1.8-5.1.45-1.55 1-2.8 1.25-2.8s.7-.7 1-1.55c.4-1.2.75-1.45 1.55-1.2 1.05.35 1.4-.5.4-.9-.5-.2-.5-.3 0-.3.5-.05.5-.3.05-1.15-.5-.9-.45-1 .25-.75.45.2 1.15.5 1.65.7.55.2.7.15.45-.25-.2-.35-.05-.6.4-.6s.8-.25.8-.5c0-.3.55-.15 1.25.3.7.45 1.2 1.05 1.1 1.35-.15.55 1.95 2.85 2.65 2.85.45 0 4.55 4.85 8 9.45.95 1.3 3.1 3.75 4.7 5.45 3.05 3.15 9.8 12.8 9.8 13.95 0 .95-1.55 1.6-5.85 2.4-4.85.95-13.65.9-16.6 0zm54.75-39c-3.3-3.05-4.55-4.75-3.5-4.75.4 0 9.2 7.65 9.2 8 0 .15-.45.3-.95.3-.55 0-2.7-1.6-4.75-3.55zm-5.55-5.1c-1.1-.3-8.45-5.8-15.5-11.6-2.45-2-5.4-4.45-6.5-5.3-7.3-6-9.55-8.05-11.9-10.85-2.9-3.45-4-5.5-3.55-6.65.5-1.3 1.05-.85 2.4 1.95 2.25 4.6 14.9 16 31.4 28.3 2.4 1.8 4.45 3.55 4.6 3.9.15.3.2.55.15.55-.05-.05-.55-.2-1.1-.3zm-77.9-20.95c-.55-.55-.4-2.2.15-2.2.3 0 .5-2.4.55-6.1.05-3.4.25-6.8.4-7.65l.35-1.5.35 2c.2 1.1.6 4.05.85 6.5.25 2.5.6 5.05.75 5.75.25 1.1.2 1.1-.2.25-.4-.85-.5-.7-.5.9-.05 1-.25 1.85-.5 1.85s-.8.1-1.15.25c-.4.15-.85.1-1.05-.05zm37.15-25.05a9.232 9.232 0 00-4.35-2.2c-2.5-.6-3.15-1.05-2.2-1.65.65-.4 7.05 1.5 7.9 2.35.4.4.65 1.25.55 1.9l-.15 1.2-1.75-1.6zm-35-.05c0-1.45 7.05-5.1 9.85-5.1 1.55 0-1.25 1.95-3.6 2.55-1.4.3-2.95.95-3.5 1.45-1.2 1-2.75 1.65-2.75 1.1z"/>
  </g>
</svg>
