<svg version="1.0" xmlns="http://www.w3.org/2000/svg" preserveAspectRatio="xMidYMid meet" viewBox="0 0 310 460">
  <g fill="#333">
    <path d="M210 437.6c0-.2 2.3-1.7 5.1-3.35 6.35-3.65 12.35-9.4 15.15-14.5 3.8-6.8 5.8-17.6 4.75-25.55-1.75-12.5-4.85-20.3-11.5-28.7-2-2.5-1.1-2.2 1.2.4 2.6 2.95 3.7 4.85 6.65 11.2 2.7 6.05 5.15 14.15 5.15 17.2 0 .85.35 1.85.7 2.2.6.45 1.2 0 3.25-2.85 3.3-4.5 4.85-7.7 6.05-12.75 1.4-5.9 1.35-12.4-.2-17.9-1.55-5.55-1.6-5.7-4.05-9.5-6.3-9.85-15.35-18.9-26.5-26.55-3.65-2.5-10.25-6.45-10.75-6.45-.95 0-4-4.3-5.2-7.3-1-2.45-1.3-4.1-1.3-6.85.05-3.75 1.3-9.7 2.4-11 .35-.4.6-1.5.55-2.4-.2-3.5 1.3-9.55 3.35-13.6 1-2.1.8-5.35-.35-5.35-.7 0-1.95 2.8-2.45 5.6-.3 1.45-1.05 3.45-1.75 4.4-.7 1-1.25 2.4-1.25 3.15s-.3 1.9-.7 2.5c-.4.6-1.9 4.6-3.4 8.85-2.35 6.95-2.65 8.2-2.65 12 0 4.4.85 8.05 2.25 9.75 2.85 3.45 4.85 8.15 3 7-1.15-.7-6-8.9-6.7-11.4-1.45-5-1.1-6.95 4.05-22.35 3.25-9.85 4.4-12.9 8.2-22.5 1.15-2.9 2.5-6.5 3-8 1.05-3.25 2.45-6.95 5.9-15.75 3.55-9 4.55-11.1 5.7-12.1.95-.85.95-.85.65.25-.15.6-.45 1.6-.6 2.25-.15.6-.8 2.1-1.45 3.35-1.5 2.85-1.8 5.65-.7 5.9.9.15 1.1-.3 3.45-7.9 2-6.65 2.6-8.55 4.8-15 2.7-7.95 5.05-17.75 5.95-24.6 1.35-10.7 2.25-20.4 2.25-24.1 0-5.4-1.75-13.5-4.8-22.2-7.15-20.4-7.75-23.5-7.9-41.1-.05-9.1.1-12 .65-12.95.6-1.05.55-1.15-.15-.9-.45.2-1.9.45-3.2.65l-2.45.3-1.9 3.85c-2.45 4.8-6.65 11.2-9.25 14.15-2.4 2.75-7.25 5.35-13.25 7.15-4.65 1.35-5.15 1.5-8.35 2.3l-1.9.5v7.35c0 8.15.2 9.45 1.45 9.85.5.15 2.55-.3 4.6-.95 4.3-1.4 9.55-2.05 11.7-1.4l1.5.45-2 .35c-6.3 1.05-8.45 1.55-12.75 2.9-8.25 2.6-8.9 2.9-10.9 5.15-1.4 1.6-2.3 3.35-3.25 6.6-2.55 8.35-3.3 15.5-3.85 37.15-.5 20.1-1.15 26-4.2 39.25-1.65 7.2-2.25 11.7-4.05 28.75-1.1 10.25-1.15 11-2.05 16.1-.85 5.05-1.1 5.9-1.8 5.9-.35 0-.4-1.1-.1-3.35.25-1.9.45-4.95.45-6.9 0-2.2.35-4.2.9-5.45 1.05-2.35 1.05-2.5.15-3.25-.55-.5-1.2-.4-2.85.4L150.3 267l-1.75-1.25c-1.85-1.25-11.6-11.4-13.05-13.45-6.1-9.05-8.75-14.05-10.4-19.55-1.4-4.85-2.25-10.6-1.95-13.55.15-1.35.7-6.45 1.25-11.35.75-6.55.85-9.35.5-10.75-.3-1-.65-3.55-.9-5.6-.2-2.05-.6-4.7-.95-5.85-.3-1.15-.55-2.25-.5-2.5.05-.2.05-1.15 0-2-.05-1.6-.15-1.65-2.1-1.65-1.6 0-2.1-.2-2.3-1-.15-.55-.45-1-.65-1-.85 0-1 1.8-.55 5.45.3 2.1.6 5.3.75 7.15.25 3.25.2 3.4-1.25 4.6-1.1.95-2.1 1.3-3.65 1.3-1.8 0-2.35-.3-3.85-1.85-2.25-2.4-6.75-8.1-11.3-14.15-1.95-2.6-4.2-5.4-5-6.15-1.35-1.25-1.55-1.3-2.15-.6-.35.4-.6 1.95-.6 3.45 0 2.9 1.25 6.25 4 10.9 1.1 1.9 1.6 3.2 1.35 3.75-.3.85-.4.8-1.15-.15-.45-.6-1.25-1.8-1.7-2.65-.5-.85-1.25-1.7-1.75-1.9-.5-.2-1.1-.55-1.3-.85-.25-.3-.3.15-.15.95 1.05 5.75 1.8 11.45 1.5 11.7-.15.15-.55.3-.85.3-.4 0-.6 1.45-.6 4.7 0 3.35-.2 4.75-.6 4.9-.95.35-.75 3.6.3 5.9C90.2 217 94.85 224.5 96.2 226c1.25 1.35 6.3 8.75 6.3 9.25 0 .15.55 1.1 1.15 2.15.65 1 2.15 4.1 3.3 6.85 1.2 2.75 2.4 5.55 2.75 6.25 1.15 2.25 3.6 6.7 4.8 8.75.65 1.1 1.5 2.7 1.95 3.5.45.85 2.4 4.2 4.35 7.5 4 6.8 10.2 17.4 12.1 20.75.7 1.25 3.45 5.65 6.1 9.75 4.85 7.5 5.4 8.4 10.5 17 4.4 7.3 7.75 12.35 9.9 14.75l2 2.25 3.4-.05c4.15-.05 6.6-1.15 10.1-4.6 5.8-5.65 8.4-11.25 12.45-26.35.95-3.55 1.9-7.5 2.15-8.75.2-1.25 1-4.5 1.75-7.25 4.6-17.3 6.9-27.4 7.5-33.5.3-2.65 1.6-10.55 3.15-19.25.5-2.5.5-2.35.3 1.75-.65 11.35-3.25 28.35-6 39.15-3.8 14.8-5.25 20.3-5.6 20.8-.15.3-.6 2.15-.9 4.05-1.15 6.65-4.2 16.35-6.6 21-3 5.7-7.8 10.9-12.15 13.15-2.55 1.3-3.65 1.6-6.35 1.6-3.25 0-3.3 0-5.6-2.4-1.25-1.3-3.55-4.3-5.1-6.6-3.65-5.6-12.4-19.55-12.4-19.85 0-.55-8.1-12.55-9.25-13.65-.7-.7-1.25-1.75-1.25-2.35 0-1.05-.8-2.5-5.2-9.65-1.1-1.8-3.25-5.5-4.8-8.25-1.55-2.75-4.5-7.95-6.6-11.5-2.05-3.6-5.3-9.65-7.15-13.5-6.25-13.05-7.85-16-11.45-21-3.6-5.05-5.5-7.95-8.05-12.45-1.25-2.2-1.35-2.7-1-5.5.2-1.7.3-5.4.25-8.25-.05-4.05.1-5.6.8-7.15.8-1.75.8-2.3.25-5.1-.55-2.75-.55-3.4.15-4.65.55-1.15.65-2.3.35-5.3-.25-2.65-.15-4.65.3-6.4.85-3.3.95-3.4 3.1-4.3 2.4-1 20.65-1.45 28.3-.7 8.35.8 8.7.95 12.1 5.45 4.25 5.55 12 18.05 12.95 20.9 1 3.1 2 4.7 2.95 4.7 1.05 0 4.5-4.55 9.9-13.15 2.5-4 5.05-7.85 5.65-8.5.6-.65 1.2-2.25 1.35-3.65 1.8-13.55 2.55-17.05 4.15-20.25 1.1-2.2 1.7-2.9 6.45-7.1l2-1.75.15-7.45c.2-9.4.2-9.4-5.25-9.4-6.35 0-8.5-1.75-9.15-7.55-.35-3.15-1.25-5.9-5.55-17.45-4-10.65-4.05-10.75-4-15.7.05-2.6.45-6.25.85-8.2.85-3.7.7-5.85-.65-9.95-.65-2.1-.7-3.25-.2-8.3.3-3.2 1-7.65 1.55-9.85.55-2.2 1-5.65 1-7.65 0-4.1 1.15-9.95 2.55-12.65.7-1.4 1.5-2.05 3.6-2.9 7.25-2.95 15.75-4.65 16.2-3.2.35.9-3 4.3-8.2 8.25-2.6 2-5.05 3.9-5.45 4.2-1.5 1.2-.7 1.7 2.8 1.7 1.95 0 3.5.2 3.5.45s-1.9.6-4.2.8l-4.25.35-2.15 2.7c-2.25 2.85-3.3 5.1-3.35 7.2-.05 1.1-.95 5.65-2.6 13.1-.45 2.1-.35 2.7 1 6.15 1.75 4.3 1.9 6.45.75 9.15-1.2 2.7-1.55 12.25-.55 14.85.4 1.1 1.25 3.35 1.8 5 1.35 3.7 2.75 6.7 3.7 8 .65.85 1.35 1 4.3 1 2.9 0 3.55-.15 3.55-.8 0-.4-.8-1.05-1.75-1.45-1.65-.65-2.35-1.5-1.25-1.5 1 0 4.2 1.55 6.75 3.2 1.4.95 3.5 2.1 4.65 2.6 1.15.5 2.1 1.05 2.1 1.2 0 .15-1.9 1.15-4.2 2.2-3.7 1.65-4.6 1.85-7.6 1.75l-3.45-.1.15 3.7c.15 4.15.85 5.55 3.6 7.05 1.45.8 2.45.95 6 .75 2.45-.15 5.4-.65 7-1.25 1.5-.55 4-1.3 5.5-1.65 4.4-1 10.75-3.7 12.95-5.5 1.85-1.5 10.55-13.75 10.55-14.8 0-.25.65-1.5 1.45-2.75 1.35-2.1 1.7-2.35 3.9-2.65 4.05-.55 5.15-1.15 5.15-2.85 0-1.45-.05-1.5-2.1-1.3-2.65.2-3.05-.8-.7-1.6 1-.3 1.8-.8 1.8-1.05 0-1.3-5.45-12.85-9.6-20.45-.85-1.5-2.05-3.75-2.75-5-.65-1.25-4.15-5.2-7.8-8.75-3.65-3.6-8.05-8.25-9.8-10.35-3.45-4.25-5.65-5.6-9.9-6.15-3.55-.45-3.35-1.25.25-1.25 3.65 0 7 1.6 9.1 4.25 3.2 4.05 7.55 8.2 8.25 7.9.4-.15.75-.5.75-.75 0-.5-2.7-4.85-5.05-8.15-1.9-2.6-3.55-5.7-3.35-6.3.25-.7 5.9 7.25 9.5 13.3 1.75 3.05 4.45 7.4 5.9 9.75 5.65 8.95 14.35 26.1 16.15 31.75 1.9 6.15 2 6.9 1.05 9.9s-.8 4 .75 4.8c.85.45 1.35.2 3.4-1.85 3.15-3.05 4.1-5.7 3.2-9-.5-2.05-3.8-9.5-5.05-11.6-.25-.4-1.55-2.9-2.9-5.5-3.5-6.7-10.7-19.2-14.9-25.75-3.2-5.05-5.8-10.5-5.6-11.85.15-.9.6-.25 2.2 2.85 1.85 3.65 6.85 11.9 9.25 15.4.55.75 2.3 3.8 3.9 6.75 3.25 5.95 4.8 8.8 7.55 13.6 2.2 3.9 5.45 10.95 7.3 15.9.8 2 1.7 3.6 2.05 3.6.4 0 1.15-1.05 1.7-2.35.9-2.15.95-2.7.4-5.65-1-5.5-4.45-13.5-10-22.9-2.3-3.9-3.1-6.05-1.95-5.35 1.75 1.1 11.65 19.4 12.7 23.4.15.75.5 1.35.75 1.35.6 0 2.05-4 2.05-5.7 0-.95.6-2 2-3.35 2.25-2.25 2.25-2.1 1.3-8.2-1.05-6.8-3.55-13.85-6.55-18.25-2.9-4.3-6.5-11.5-6.95-13.9-.5-2.75.6-1.35 3.05 3.85 1.25 2.65 3.4 6.45 4.7 8.4 3.2 4.8 4.45 7.75 6.2 14.65.45 1.8 1 4.05 1.3 5.05.25 1 .45 2.4.45 3.15 0 2.05.8 1.55 2.2-1.3 3-6.2 2.95-11.75-.15-18.15-2.65-5.5-4.55-11.7-4.55-15.05 0-3.85 1.15-3.35 1.55.6.15 1.6.65 3.65 1.1 4.55.5.9.85 2.15.85 2.85 0 .7.55 1.85 1.2 2.65l1.2 1.4.35-3.95c.35-3.75.05-10.7-.6-13.25-.45-1.75.95-1.1 1.5.75.2.8.45 4.65.45 8.5 0 5.6-.15 7.45-.8 8.7-.75 1.6-.75 1.75.5 4.45 2 4.35 2.1 7.55.35 12.05-1.75 4.5-5 9.45-7.4 11.3-.95.7-1.75 1.7-1.75 2.15 0 .45-.7 2.25-1.55 4.05-1.25 2.6-1.55 3.85-1.5 6.1.15 4.35-1.4 7.1-5.05 8.95-.75.4-2 1.65-2.85 2.8-.85 1.2-2.5 2.85-3.65 3.7-1.75 1.2-2.45 1.45-3.8 1.2-1.3-.25-1.7-.1-2 .7-.5 1.4.25 15.45 1.15 20.55 1.75 10.35 2.45 12.75 6.3 22.75 2.75 7.2 3.35 9.6 4.55 18 1.05 7.6.95 12.1-.4 23.75-.4 3.45-.95 8.4-1.25 11-.55 4.8-.95 6.25-8.65 29.75-5.5 16.95-8.1 24.4-10.3 30-1.1 2.75-2.65 7.35-3.5 10.25-.85 2.9-2.2 7.15-3 9.5-.75 2.35-1.4 4.6-1.4 5 0 .4-.55 2.9-1.25 5.5-2 7.8-3.05 14.2-2.5 15.3.3.5.65 1.8.85 2.8.55 3.1 3.7 6.7 8.15 9.3 13.35 7.9 28.9 22.6 35.1 33.35 3.45 5.9 5.45 17.85 4.1 24.25-1.6 7.6-3.7 11.8-9.15 18.15-1.95 2.25-2.3 3.35-3.65 11.35-1.95 11.25-7.8 20.25-17 26.15-1.9 1.2-4.6 2.6-5.9 3.05-2.75.9-2.85.95-2.85.4zm-56.2-174.05c2.1-1.3 3-4.6 3.7-13.8.3-4.1.75-8.15 1-9 .5-1.55 2.85-13.45 4.15-20.75 1.25-6.95 1.8-14.95 2.1-29l.25-13.25-1.25 1.5c-1.1 1.3-4.6 7.05-5.2 8.5-.1.3-1.85 3-3.8 6-4.9 7.5-10.05 13.55-18.1 21.15-9.8 9.25-11.7 13-9.65 19.1 3.1 9.15 8.7 17.55 17 25.35 5.95 5.65 6.85 6 9.8 4.2zm57.7-4.55c0-1.6-.45-1.85-1.4-.9-.95.95-.75 2.4.4 2.4.8 0 1-.35 1-1.5zm2.3-5c.85-2.85.85-3.05 0-2.7-.6.25-2.3 3.8-2.3 4.9 0 .2.35.3.8.2.5-.1 1.1-1.1 1.5-2.4zm-86.85-30.35c.55-1.05 2.35-3.25 4-4.85 3.45-3.4 3.45-4.15-.15-5.9-3.25-1.55-4.55-1.05-5.55 2.2-1.25 4.2-.9 10.4.6 10.4.05 0 .55-.85 1.1-1.85zm18.7-20.5l1.45-2.05-2.1-3.45c-1.1-1.85-2.15-3.95-2.35-4.65-.15-.7-.95-2.5-1.8-4-2.15-3.85-9.35-14.5-9.8-14.5-.25 0-.55 5.55-.7 12.4-.35 12.65-1 18.05-2.55 21.05-1 1.9-.85 2.15 2.2 3 1.25.35 2.7 1.05 3.25 1.55.55.45 1.35 1 1.75 1.15.85.3 8.35-7.05 10.65-10.5zm-16.9-17.2c.15-7.55.1-13.95-.1-14.3-.3-.4-1.05-.45-2.75-.1-3.25.7-3.6 1.35-2.5 4 .5 1.3.85 3.25.8 4.7-.05 1.4.1 2.75.35 3.05.45.5.55 1.6 1.5 11.45.3 3.05.65 6.05.8 6.75.3 1.25.3 1.25.95-.3.45-1.15.75-5.6.95-15.25zm-13.25 7.8c.45-.55.45-2.1.05-6.6-.55-6.2-.25-9.3 1.15-11.35 1.75-2.7 1.75-2.7-10.3-2.9-6.15-.1-11.45-.05-11.8.1-.45.25-.25.7.7 1.8.7.8 3 3.7 5 6.45 2.05 2.75 5.35 6.85 7.35 9.1 3.25 3.7 3.8 4.1 5.4 4.15 1 0 2.1-.35 2.45-.75zm6.6-17.25c-.25-1.65-1.5-3.6-2.1-3.25-.55.35-.65 3.9-.15 4.45.2.2.8.3 1.4.2.75-.1.95-.45.85-1.4zm-2.6-5.25c.5-.65.35-.85-1.15-1.5-1.4-.55-3.8-.75-10.2-.7-8.55.05-10.7.3-11 1.25-.3.9 5.45 1.55 13.9 1.65 6.4.05 7.95-.1 8.45-.7zm53.7-59.05c1.2-1.15 1-1.55-1.05-2-2.5-.5-9.15-.55-9.15-.05 0 .2.55.95 1.25 1.6 1.05 1.1 1.65 1.25 4.7 1.25 2.5 0 3.7-.2 4.25-.8zm-10.6-74.35c.85-1.35 2.75-3.25 4.35-4.35 1.55-1.05 3.5-2.6 4.3-3.4.85-.8 2.45-2.05 3.65-2.85 1.15-.75 2.1-1.55 2.1-1.75 0-.9-1.6-.9-3.85-.05-1.3.5-3.7 1.35-5.25 1.85-1.6.5-3.85 1.35-5 1.95-2.05.95-2.2 1.2-3.75 5.75-1.55 4.7-1.95 7-1.3 7.65.5.5 2.95-2 4.75-4.8zM55.5 411.5c0-.65 2.45-2.2 2.85-1.85.15.2-.25.75-.9 1.3-1.35 1.15-1.95 1.3-1.95.55zm3.6-2.35c-1.3-.45 17.55-12 22.9-14.05 1.5-.55 5.45-2.15 8.75-3.5s6.8-2.65 7.75-2.85c.95-.2 4.55-1.1 8-2 3.45-.9 9.05-2.3 12.5-3.05 6.65-1.55 10.1-3.25 11.4-5.7.75-1.45.55-4.1-.7-9.25-1.5-6.3-1-61.9.6-69.4.2-.75.6-1.3.9-1.2.65.25.6 1.55-.2 14.6-.75 12.2-1.05 37.65-.5 45.8.2 3.45.9 8.75 1.55 11.8 1.3 6.25 1.15 7.4-1.35 10.15-2.1 2.3-6.4 4.1-13.3 5.5-21.4 4.35-36.6 10.35-54.7 21.6-2.8 1.75-2.9 1.8-3.6 1.55z"/>
    <path d="M202.55 324.8c-1.4-2.2-1.95-4.9-1-4.7.65.15 3.45 4.9 3.45 5.9 0 1.1-1.5.4-2.45-1.2z"/>
  </g>
</svg>
