<svg version="1.0" xmlns="http://www.w3.org/2000/svg" preserveAspectRatio="xMidYMid meet" viewBox="0 0 740 740">
  <path d="M248.25 565.95c-5.5-.65-9.1-1.75-9.75-2.95-.65-1.2-.2-2.2.85-1.8.4.15.55.05.4-.25-.35-.55.3-15.05 1.75-37.2 1.45-22.2 1.65-22.65 16.4-41.6 4.7-6.05 23-24.05 34.6-34 2.9-2.5 8-7.1 11.3-10.2 3.35-3.15 6.65-6.1 7.3-6.55.85-.55 1.55-1.85 2.15-4 1.65-5.9 5.25-14.3 8.55-19.9 3.9-6.65 15.85-22.5 16.95-22.5.1 0 .8.55 1.5 1.2.95.9 2.3 1.4 4.9 1.8 5.85.9 13.75 2.85 16.15 4.05 5.45 2.6 10.6 7.85 13.9 14.05 2 3.85 3.05 7.05 3.85 11.65l.6 3.5.7-3.5c1.5-7.3 5.55-14.15 12.35-21 7.9-7.95 16.05-12.65 24.95-14.5 7.4-1.5 8.35-1.8 8.35-2.3 0-.25.45-.45 1-.45.7 0 1 .35 1 1.2 0 .8 1.3 2.55 4 5.45 9.6 10.15 19.35 25.2 24.2 37.2.9 2.2 3.65 5.2 18.55 20.25 15.2 15.35 24.15 24.8 41.45 43.8 7.65 8.45 11.6 14.55 13.95 21.6 2.6 7.8 5.85 28.15 5.85 36.6 0 2 .2 2.85.75 3.1 1.95.7-.55 3.6-4.75 5.45-3.6 1.6-13.05 3.75-18.1 4.1-4.6.35-13.7-.3-18.75-1.3-2.5-.5-2.6-.55-2.15-1.75.3-.7.5-3 .5-5.1 0-6.9 1.7-18.35 3.75-25.35.6-2.1.7-3 .3-3.15-.3-.1-.55-.5-.55-.9s-.25-.7-.55-.7c-.3 0-1.7-.75-3.1-1.7-3.8-2.5-9.6-5.75-22.6-12.7-4.1-2.2-9.4-5.1-11.75-6.4-8.4-4.65-14.5-7.85-29.5-15.55-8.4-4.3-17.3-8.85-19.8-10.15-10.35-5.4-17.8-10.2-22.2-14.35-1.5-1.45-2.85-2.65-3-2.65-.2 0-1.5-1.45-2.9-3.2-2.85-3.5-3.9-3.8-5-1.4-.8 1.85-11.45 12.8-13.4 13.75-.85.45-1.85 1.15-2.25 1.65-1.8 2.2-20.8 14.9-33.2 22.2-3.85 2.3-7.55 4.5-8.25 4.95-.7.4-2.25 1.3-3.5 1.95-4.75 2.55-26.8 15.85-35.05 21.15-2.05 1.35-4.05 2.45-4.35 2.45-.35 0-.6.3-.6.7 0 .4-.35.8-.75.9-.6.1-.45.75.8 3.4 6.2 13.05 7.1 20.15 3.9 31.05-.55 2.05-1.05 4.1-1.05 4.55.05 1.15-.7 1.65-3.9 2.55-8.7 2.45-19.85 3.65-26.75 2.8zm125-202.9c-3.25-1.55-8-5.9-9.55-8.85-.9-1.65-.9-1.8-.1-2.25.8-.45.75-.75-.4-4.1-1.65-4.6-3.05-7.2-4.9-9.2-1.35-1.5-1.5-1.55-2.1-.75-.35.45-.7.75-.85.6-.1-.15-1.4-2.15-2.95-4.5-1.5-2.35-3.7-5.25-4.8-6.45-1.15-1.2-2.1-2.65-2.1-3.25-.05-2.95-4.45-4.75-8.2-3.35-.85.35-1.35.3-1.7-.1-1-1.15-7.9-30-9.4-39.35-.45-2.6-1-5.15-1.25-5.6-.7-1.35 1.5-1.15 4.3.3 1.25.7 3.5 1.5 5 1.8 2.65.55 2.75.6 2.75 2.25 0 .9-.7 3-1.5 4.65-1.85 3.75-1.9 5.55-.2 7.55 1.15 1.4 1.55 1.55 4.25 1.55h2.95v1.65c0 2.1.75 2.85 2.85 2.85 1.4 0 1.65.15 1.65 1.25 0 .7-.25 2.25-.6 3.5-.55 2.05-.5 2.35.45 3.3.65.65 2 1.15 3.7 1.35 2.5.35 2.7.45 2.85 1.8.1.8-.1 2-.45 2.6-.8 1.5.15 3.85 2.05 5.2 1.75 1.25 2.35 1.25 5.85 0 1.6-.55 3.5-1 4.25-1 1.3 0 1.4.15 1.4 1.95 0 2.2.65 2.9 2.95 3.35 1.05.2 1.85.8 2.3 1.7.8 1.55 1.65 2 3.8 2 1.3 0 1.45.15 1.45 1.6 0 .9-.5 2.8-1.05 4.2-1.1 2.6-1.1 2.6-.1 4.3 1.5 2.65 2.85 2.45 5.9-.8 3.1-3.25 5.1-3.75 6.25-1.5 1.1 2 2.15 2.35 3.5 1.1 1.45-1.35 3-4.75 3-6.7 0-2 .85-2.9 3.3-3.6 3.2-.9 5.55-3.35 6.9-7.1l1.2-3.25 2.25-.25c4.5-.55 6.5-3.85 6.4-10.6l-.05-4.4h1.7c4.15 0 8.55-2.65 10.3-6.3l1.15-2.3-1.6-3c-2.2-4.3-2.05-5.4 1.1-8.95 3.15-3.5 4.6-3.9 4.15-1.05-.15 1-.4 3.2-.55 4.85-.2 1.65-.55 4.25-.8 5.8-.25 1.55-.55 3.8-.65 5-.25 2.55-1.45 9.45-2.75 15.3-.5 2.3-.7 4.15-.45 4.15 1.1 0 .15 1.4-1.85 2.7-1.25.75-3.7 2.95-5.35 4.8-2.65 2.9-3.25 3.35-4.05 2.9-.75-.4-1.2-.25-2.2.65-1.85 1.75-2.9 3.7-5.4 9.9-2.35 5.95-2.6 7-1.7 7.9.4.4-.05 2.05-1.6 5.95-2.2 5.55-5.45 10.9-8.75 14.4-1.6 1.65-1.9 1.8-2.3 1.1-.3-.55-.85-.75-1.8-.55-.75.15-3.35.4-5.85.55-4.75.3-7.75.95-7.75 1.75 0 .75-1.1.5-4.25-1zM322.3 264.4c-.5-2.55-1.05-5.65-1.3-6.9s-1.05-5.95-1.75-10.5-1.7-10.5-2.15-13.25c-1.25-7.4-1.1-21.25.3-31.5.6-4.4 1.6-11.35 2.15-15.5.55-4.1 1.55-10.6 2.25-14.4.65-3.8 1.8-11.25 2.55-16.5 1.25-9.45 1.3-10.1 1.35-40.35 0-28.3-.05-30.9-.85-32.35-1.65-3.1-13.55-16.6-19.2-21.8-1.9-1.75-2.15-3.55-.65-4.35 1.05-.55 1-.6-.5-2.3-1.8-2.1-1.95-2.9-.3-2.5 1.65.4 1.9-.15.8-1.6-2.35-2.95-.25-4.2 3.2-1.85 2.25 1.55 2.6 1.55 1.6.15-1.15-1.6-1-2.4.45-2.4 2.25 0 5.35 2 19.4 12.65 3.3 2.45 6.1 4.25 6.35 4.05.2-.25.85-1.9 1.45-3.7 1.85-5.7 4.25-9 5.6-7.65.35.35.75 3.95 1 9 .25 4.6.65 12.35.95 17.15.25 4.8.75 17.75 1.1 28.8.65 21.45.2 39.4-1.3 55.2-1.7 17.15-2.3 25.5-2.3 30.95 0 4.8.1 5.6.75 5.35 1.4-.5.8 1.7-.95 3.75-2.15 2.5-3.5 6.75-3.1 9.6 1.05 7.45 1.05 7.55-.85 9-2.65 2-4.35 5.85-4.35 9.7 0 2.6-.15 3.25-.85 3.45-4.35 1.4-6.65 3.25-8.45 6.8-2.75 5.4-1.7 10.8 2.9 15.7 3.15 3.35 3.3 5.15.45 7.9-1.1 1.1-2.25 2.6-2.6 3.35-.3.85-.95 1.45-1.45 1.45-.7 0-1.05-.85-1.7-4.6zm107.95 2.6c-.2-.3-1.2-.95-2.3-1.5-1.7-.9-1.95-1.25-1.95-2.8 0-1.3.45-2.3 1.55-3.55.85-1 1.9-2.55 2.35-3.5.7-1.45.7-1.9.15-3.3-1.4-3.3-1.3-5.1.55-8.05 1.1-1.85 2-2.8 2.65-2.8.95 0 1 .2.65 8.35-.2 4.65-.6 10.5-.95 13.05-.5 3.8-.8 4.6-1.5 4.6-.5 0-1.05-.25-1.2-.5zm1-35.2c-.85-1.3-4-2.9-5.8-2.9-.65 0-3.05.15-5.3.35l-4.15.4v-1.75c0-1 .4-2.15 1-2.8 5.6-6 4.1-11.1-3.3-11.1h-2.2v-2c0-1.35.55-2.95 1.55-4.75 1.5-2.65 1.5-2.8.75-4.05-.75-1.1-2.45-2.15-5-2.95-.85-.25-.9-.6-.55-3.65.2-1.85.35-3.95.35-4.7-.05-1.9-2.05-4.7-4-5.75-1.1-.6-2.15-1.8-2.95-3.4-.7-1.35-1.7-3.1-2.2-3.85-.55-.7-.95-2.05-.95-2.95 0-1.6 0-1.6 1.05-.65l1.1.95-.3-7c-.4-8.95-1.3-14.8-4.1-26-1.2-4.95-2.75-12.7-3.45-17.25-1.15-7.85-1.55-11.45-2.8-27.75-.35-3.85-.9-9.25-1.3-12s-.95-6.8-1.2-9.05c-.75-6.2-1.9-12.25-2.75-14.7-.45-1.25-.95-3.65-1.1-5.35l-.3-3.15h1.55c1.2 0 2.3.65 4.8 3.05l3.25 3 6.8-4.65C418 42.85 422.3 40 423.15 39.7c.5-.15 1.2 0 1.6.3 1.45 1.2-.65 3.55-7.45 8.1-.3.2-.4.5-.2.65.15.2 2.55-.85 5.35-2.25 4.75-2.45 6.95-2.9 6.45-1.35-.2.55-3.35 3.25-6.7 5.65-2.6 1.9-.95 1.75 3.4-.3 6.1-2.85 7.5-2.65 4.1.75-.95.95-2.65 2.35-3.75 3.1-2.4 1.6-2.5 2.15-.2 1.8 1.5-.25 1.75-.15 1.7.65-.05 1.65-2.85 3.35-17.95 10.95-3.7 1.85-6.8 3.45-6.9 3.5-.35.25 1.7 6.75 4.2 13.25 5.2 13.5 7.8 22.15 10.2 33.65 1.8 8.9 2.35 13 3.05 23.35.6 9.3 1.2 12.8 3.75 21 1 3.15 2.2 7.1 2.7 8.75 4.6 14.8 6.4 28.25 7.2 54.15.25 7.25.2 7.6-.7 7.6-.55 0-1.3-.55-1.75-1.2z" fill="#e1a79b"/>
  <g fill="#915d7a">
    <path d="M398.65 700c-11.5-.45-23.85-1.15-36.9-2.1-4.2-.3-17.9-.5-31-.45-36.15.15-59-.9-77.25-3.4-4-.6-10.85-1.35-15.25-1.8-17.25-1.65-21.9-2.25-23.05-3-1.4-.9-2.3-2.45-1.8-3.05.2-.25-.1-.1-.6.3-.9.7-.95.65-.7-.4.2-.6.1-1-.15-.8-.25.15-.45 0-.45-.25 0-.3.7-.55 1.5-.55 1.1 0 1.5.25 1.55.9 0 .65.1.6.45-.25.35-.9.85-1.15 2.25-1.15 1.5 0 1.75.15 1.75 1.2 0 1.15.05 1.15 4.85 1 9.5-.35 18.4-2.3 22.25-4.95 1-.7 2-1.25 2.15-1.25.2 0 1.05-.55 1.95-1.25.9-.7 1.9-1.25 2.25-1.25.3 0 1.65-1 2.95-2.25 1.95-1.9 2.65-2.25 4.3-2.25s1.85.1 1.3.75c-.35.4-.55.75-.45.75.15 0 5.05-1.1 10.95-2.45 15.25-3.5 29.75-6.4 36.65-7.3 7.9-1 19.3-.95 41.35.2 35 1.9 49.7 2.2 77.75 1.75 44.7-.7 49.6-.4 72.15 3.95 4.85.95 6.1 1.05 5.9.55-.2-.45.1-.7.8-.7.7 0 2.95 2 6.75 5.95 3.1 3.3 6.65 6.6 7.9 7.4 1.25.75 2.25 1.55 2.25 1.75 0 .15 1.65 1.55 3.65 3.1 4.4 3.35 5.85 4.9 5.85 6.2 0 .95-.4 1-5.85 1.3-3.25.15-11.65.65-18.65 1.05-45.05 2.7-84.1 3.7-109.35 2.75zM590 690.9c-8.65-.5-18.05-1.05-20.85-1.2-3-.2-5.15-.5-5.15-.8 0-.55 11.15-.3 28.25.6 4.7.25 14.85.6 22.65.8 11.3.3 14.1.5 14.1 1.05 0 .95-19.2.75-39-.45zm-446-2.6c0-1.05 1.9-1.15 27.75-2 12.95-.4 26-.85 29-1.05 3.2-.15 5.8-.05 6.25.2.65.45.65.55 0 .75-1.5.5-48.8 2.6-62.35 2.8-.35 0-.65-.3-.65-.7zm392.5-73.05V598.5h1.7c1.3 0 1.75.25 2 1.15.4 1.5.4 19.65-.05 26.75l-.3 5.6h-3.35v-16.75zm-6 3.75c0-7.8-.2-12-.5-12s-.5-1.1-.4-2.6c.1-3.5-.5-8.6-1.35-11.4-.6-1.95-1.85-8.95-2.6-14.6-.25-1.9-.25-1.9 1.55-1.9 1.05 0 1.9.25 2 .65.1.3.45 1.7.75 3.1.35 1.35.8 2.6 1 2.75.25.15.65 1.95.95 4 .3 2.05.75 5.1 1.05 6.75 1.4 8.65 2.6 35.25 1.6 35.25-.3 0-.55.45-.55 1 0 .8-.35 1-1.75 1h-1.75v-12zm-285.4 3.65c.15-2.4.15-2.4 2.05-2.55 1.75-.15 1.85-.05 1.85 1.25 0 2.9-.5 3.65-2.35 3.65h-1.7l.15-2.35zm-9.9-3.75c.15-2.5.3-5.85.3-7.5v-2.9h3.5v15h-4.15l.35-4.6zm282.3 1.25c-.05-3.35-1.05-10.25-1.55-11.25-.4-.6-.95-2.4-1.25-3.9-.35-1.5-1.05-3.9-1.6-5.3-.5-1.4-1.1-3.6-1.3-4.9-.2-1.25-.55-2.3-.75-2.3-.4 0-2.05-3.5-2.05-4.4 0-.25-.2-.6-.45-.7-.85-.3-7.15-14.15-7.4-16.25l-.3-2.15h1.85c1.65 0 1.9.2 2.6 1.9.4 1 1.05 2.5 1.45 3.25.4.8.75 1.75.75 2.15 0 .4.35.7.75.7s.75.45.75 1 .25 1 .5 1c.3 0 .5.5.5 1.15 0 .6.35 1.55.75 2.05.4.55.75 1.4.75 1.9s.45 1.35 1 1.9c.55.55 1.15 1.6 1.3 2.35.2.7.9 1.8 1.55 2.35.95.85 1.3 1.9 1.8 5.45.4 2.45.9 4.6 1.15 4.75 1.3.9 3.3 13.1 2.9 17.25-.35 2.85-.35 2.85-2 2.85-1.3 0-1.7-.2-1.7-.85zM251 617.7c0-.75.25-2.2.6-3.25.5-1.75.7-1.95 2.25-1.95s1.65.1 1.65 1.7c0 .9-.25 2.35-.55 3.25-.45 1.35-.8 1.55-2.25 1.55-1.5 0-1.7-.15-1.7-1.3zm-4.5-1.15v-2.05h4.05l-.15 1.9c-.15 1.75-.25 1.85-2 2l-1.9.15v-2z"/>
    <path d="M523.35 612.4c-.25-5.7-.75-8.6-1.8-11.15-.25-.55-.65-2.1-.95-3.5-.25-1.35-.95-3.75-1.6-5.25-.6-1.5-1.6-4.3-2.3-6.2-.65-1.9-1.5-3.95-1.9-4.5-1-1.6-2.7-6.75-3.1-9.55-.65-4.85-.25-4.6-7.8-4.85-8.2-.35-9.4-.75-9.4-3.15v-1.75h7.9c10.8 0 20.15-1.8 24.4-4.7 1.05-.7 2.1-1.3 2.35-1.3.2 0 1.75-.9 3.35-2 3.25-2.2 4.95-2.5 5.9-1 .75 1.2.3 3.5-.7 3.5-.4 0-.7.3-.7.7 0 .4-.35.8-.75 1-.4.15-.75.6-.75 1.05 0 .4-.45.75-.95.75-.55 0-1.15.25-1.3.5-.15.3-.75.5-1.3.5-.5 0-.95.2-.95.45s-.9.6-1.95.8c-1.1.15-2.35.65-2.9 1-.5.4-1.35.75-1.9.75-.55 0-1.6.3-2.35.7-.7.4-2.7.85-4.35 1.05-3.4.4-3.75 1-2.3 3.8 1.85 3.55 2.15 4.3 2.45 6.35.15 1.15.75 2.55 1.3 3.1.5.5 1.2 1.85 1.55 2.95.35 1.15.8 2.05 1.05 2.05.2 0 .4.5.4 1.15 0 1.45 1.6 5.85 2.1 5.85.2 0 .4.75.4 1.65 0 .95.4 2.9.95 4.4.9 2.75 1.75 8.55 2.3 16.6l.35 4.35h-4.45l-.3-6.1zm-330.9 4.1c-7-.45-10.25-1.75-13.55-5.45-3.8-4.25-4.8-10.3-3.15-19.55.4-2.35.75-4.25.75-4.25s-3.25 1.6-7.25 3.6c-10.35 5.1-14.35 6.4-20.1 6.4h-4.65l-1.85-1.9c-1.85-1.85-1.9-1.95-1.9-5.75 0-3.55.15-4.2 2.3-8.6 1.25-2.6 3.35-6.4 4.6-8.4 1.3-2 2.35-3.8 2.35-4.05 0-.2-3.3.7-7.35 2.05-10.45 3.45-14.65 4.4-19.8 4.4-5.05 0-7.2-.8-9.75-3.7-3.8-4.3-2.6-13.15 3.45-25.55 4.1-8.5 8.8-14.75 15.7-21 5.85-5.35 12.55-10.25 14-10.25.85 0-.05.95-1.8 2-3.1 1.7-10.25 7.85-14.95 12.85-6.6 6.95-11.55 15.3-15.3 25.9-1.15 3.25-1.4 4.85-1.45 8.6 0 3.85.15 4.8 1.05 5.95 2.05 2.75 3.4 3.35 7.9 3.6 5.25.3 9.1-.55 20.85-4.45 4.85-1.65 9.1-2.95 9.4-2.95 1.25 0 .4 2.35-2.55 7.2-5.95 9.8-7.9 15.65-6.4 19.3 2.05 4.9 9.35 3.95 24.7-3.3 4.9-2.3 9.25-4.2 9.6-4.2 1.25 0 1.35 1.35.5 5.85-2.7 14.85 1.35 21.9 13.25 23.15 2.6.25 7.8.5 11.55.5 6.65 0 7.7.2 7 1.35-.45.75-9.75 1.1-17.15.65zm56.05-6.85c0-.75.3-2.55.6-4 .6-2.55.7-2.65 2.35-2.65h1.7l-.4 3.6c-.15 2-.45 3.8-.55 4-.15.25-1.05.4-2 .4-1.5 0-1.7-.15-1.7-1.35zm5.5-2.4c0-2.25 0-2.25 1.75-2.25s1.75 0 1.75 2.25 0 2.25-1.75 2.25-1.75 0-1.75-2.25zm1.5-4.25c0-.8.35-2.4.8-3.5.75-1.85.95-2 2.75-2 1.9 0 1.95.05 1.95 1.8 0 .95-.35 2.1-.75 2.5-.4.45-.75 1.2-.75 1.75 0 .8-.35.95-2 .95-1.9 0-2-.1-2-1.5zm-5-3.7c0-2 1.55-10.5 1.95-10.8.2-.15.6-2.05.9-4.25.3-2.2.9-5.5 1.25-7.35.4-1.85.65-3.5.5-3.65-.15-.15-1.2-.25-2.4-.25h-2.1l-.35 2.75c-.15 1.5-.55 2.75-.8 2.75-.3 0-.35.2-.2.5.4.65-.85 13.2-1.35 13.55-.25.15-.55 1.45-.75 2.85-.3 2.55-.3 2.6-2 2.6h-1.75l.35-3.85c.2-2.15.6-4.45.85-5.1.25-.7.55-4.3.7-8 .1-3.75.3-7.25.45-7.85.15-.8-.15-1.15-1.4-1.6-.95-.35-2.5-.6-3.5-.6-1.85 0-1.85 0-1.85-2.05v-2.1l4.45.3c2.5.15 4.95.5 5.5.8 1.2.65 7.9.75 8.25.1.15-.25 2.25-.6 4.6-.8 3-.25 5.05-.7 6.7-1.55 1.5-.75 3.25-1.2 4.7-1.2h2.3v2c0 1.4-.2 2-.75 2-.4 0-1.1.4-1.6.9-.85.9-4.05 1.7-9.25 2.35-3.55.45-4.05 1.2-5.1 7.5-.5 3.05-1.1 6-1.35 6.65-.25.65-.45 2.05-.45 3.15 0 2.05-1.35 7-2.05 7.45-.2.15-.45 1.05-.55 2-.15 1.65-.3 1.75-2 1.9-1.75.15-1.9.05-1.9-1.1z"/>
    <path d="M258.5 594.25c0-1.55.15-1.75 1.25-1.75 1.15 0 1.25-.2 1.25-2.35 0-1.45.35-3 .95-3.95.5-.85 1.1-2.3 1.3-3.25.2-.95.55-1.9.7-2.2.2-.25.65-1.45 1-2.6.55-2 .7-2.15 2.3-2.15 1.65 0 1.75.1 1.75 1.75 0 .95-.3 2.6-.7 3.6-.4 1.05-.85 2.8-1 3.85-.15 1.1-.85 3.15-1.6 4.65-1.05 2.05-1.6 2.65-2.55 2.65-1 0-1.15.25-1.15 1.75 0 1.65-.1 1.75-1.75 1.75s-1.75-.1-1.75-1.75zm-21.5-2.5c0-1.65.1-1.75 1.75-1.75s1.75.1 1.75 1.75-.1 1.75-1.75 1.75-1.75-.1-1.75-1.75zm298-5.85c-.35-3.65-.95-7.75-1.3-9.1-.4-1.35-.7-4.35-.7-6.65V566h3.8l.65 3.65c.35 1.95.8 6.3 1.05 9.6s.6 7.05.8 8.4c.5 3.7 0 4.85-2 4.85h-1.7l-.6-6.6zm-297.5 1.35c0-1.65.1-1.75 1.75-1.75s1.75.1 1.75 1.75-.1 1.75-1.75 1.75-1.75-.1-1.75-1.75zm287-12.6c-.35-.8-.75-2.8-.9-4.5l-.25-3.15h1.75c1.75 0 1.8 0 2.6 3.25.45 1.75.8 3.8.8 4.5 0 1.1-.2 1.25-1.65 1.25-1.35 0-1.8-.3-2.35-1.35zm-256.4-55.1c-3.15-1.05-5.95-2.2-6.25-2.5-.95-.95.65-.65 5.45.9 2.45.8 5.4 1.7 6.6 2 2.25.65 2.85 1.55 1 1.55-.65 0-3.7-.9-6.8-1.95zM497 520.8c0-.45.35-.6.9-.45.5.1 3.75-.35 7.25-1.05 7.45-1.55 6.85-1.5 6.85-.55 0 .4-.1.75-.2.75-.15 0-2.5.45-5.3 1-6.1 1.2-9.5 1.3-9.5.3zm-156.9-53.25c-2.25-.5-4.25-1.05-4.45-1.25-.7-.7.3-.7 3.6.05 2.1.5 5.95.8 9.5.8 5.5.05 6.4-.1 10.7-1.6 5.55-1.9 7.6-1.8 3.45.15-5.95 2.8-14.85 3.55-22.8 1.85zm-132.3-1.65c-.35-1.45-1.2-17.3-1.6-30-.2-5.45-.55-9.75-.75-9.65-.5.35-9 12.55-15.9 22.95-3.55 5.3-5.8 8.25-6.1 7.95-.3-.3.8-2.55 3-6 3.6-5.75 12.75-19.45 16.7-25.15 1.3-1.75 2.2-3.3 2.1-3.4-.15-.15-8.7.7-18.75 1.9-2.3.25-3.95.25-4.2 0s-.4-.55-.25-.7c.25-.2 9.3-1.5 16.8-2.35 2.8-.35 5.35-.8 5.75-1 .45-.3-1.25-2.35-6.15-7.3C187.85 402.3 180 393.2 180 391.7c0-1.25 1.1-.25 5.15 4.55 2.05 2.5 7.5 8.35 12.05 13l8.3 8.5-.25-16c-.15-8.8-.4-17.55-.5-19.5-.15-1.9-.05-3.85.25-4.25.25-.4.5-.65.5-.5.15 1.25 1.45 36.05 1.5 38.65 0 1.85.15 3.35.4 3.35.35 0 1.25-1.25 16.3-23.5 4.6-6.75 8.65-12.3 9.05-12.4 2.45-.55-.95 4.95-16.85 27.5-3.25 4.6-5.9 8.5-5.9 8.6 0 .3 1.6.1 15.55-2.25 6.5-1.05 12.4-1.95 13.1-1.95 1.4 0 2.25.85 1.55 1.5-.5.5-8.85 2-20.9 3.75-4.65.7-8.6 1.35-8.7 1.5-.15.1 1.95 2.5 4.6 5.3 2.65 2.8 8.15 9.05 12.2 13.9 9.65 11.55 8.85 10.5 8.15 11.2-.75.7-2-.6-11.3-11.65-5.95-7.05-15.55-17.6-16.35-17.9-.65-.3-.5 5.45.9 36.55.25 5.3.2 7.35-.2 7.35-.35 0-.7-.5-.8-1.1zm186.45-4.45c-1.9-.55-3.95-1.1-4.55-1.25-.55-.15-1.7-.8-2.5-1.45-1.3-1.1-1-1 3.8.65 5 1.7 5.6 1.8 12.5 1.95 4 .05 7.3.3 7.4.5.05.2-2.9.45-6.5.5-5.35.1-7.35-.1-10.15-.9zm188.75-1.8c-1.65-.25-4.9-2.5-6.2-4.3-1.6-2.15-1.5-7.75.2-11.1 2.4-4.65 8.15-7.25 13.6-6.25 2.85.55 6.25 2.55 6.75 3.9.15.45.65 1.25 1.05 1.7 1.05 1.25.5 7.35-.9 9.6-3.05 5-8.5 7.4-14.5 6.45zm8-3.65c.95-.5 2.15-1.3 2.6-1.85 1.5-1.65 2.9-5.35 2.9-7.75 0-1.9-.25-2.6-1.5-3.8-4.25-4.25-13.25-2.55-15.95 3-1.15 2.45-1.35 6-.4 7.85 1.9 3.7 7.7 4.9 12.35 2.55zm-213.5-7.15c0-2.4 1.05-12.55 1.3-12.85 1.25-1.25 1.3 6.75.1 12.15-.6 2.7-1.4 3.1-1.4.7zm-61.05-10.95c-.45-.35-1.65-1.75-2.75-3.15-1.05-1.35-2.15-2.65-2.35-2.8-.2-.15-.05-.55.35-.9.6-.5 1.15-.1 3.25 2.55 1.4 1.75 2.5 3.55 2.55 4.05 0 1-.1 1.05-1.05.25zm136.35-4.3c-.25-.4 1.4-3.9 3.05-6.55.6-.9.85-1.05 1.2-.5.25.4-.25 1.85-1.45 4.05-1.8 3.35-2.3 3.8-2.8 3zm-155.05-12.55c-.3-.55 1.7-10.1 3.3-16.05 1.3-4.55 4.45-10.85 6.45-12.75 2.3-2.2 2.3-1.2.05 2.5-2.45 4.1-4.05 8.85-6.05 18-.85 3.85-1.65 7.4-1.8 7.9-.3.9-1.45 1.15-1.95.4zm10-1.55c-.45-.75 1.55-10.45 3.05-14.6 1.85-5.1 5.15-11.35 6.5-12.25 1.85-1.2 2.35-.3.95 1.75-2.3 3.5-5.9 13.65-7.4 21.05-.4 1.9-.9 3.7-1.05 4-.45.7-1.65.7-2.05.05zm149.2-17c-3.15-6.75-6.55-12.05-10.4-16.1-2.85-3.05-3.5-3.95-2.85-4.2 1.15-.45 5.15 2.6 7.95 6.05 4.75 5.9 9.6 17.4 7.6 18.05-.25.1-1.3-1.6-2.3-3.8zm12.1.4c-6.2-14.15-11.1-21.9-15.45-24.35-.65-.35-.7-.65-.3-1.05.75-.75 3.85 1.15 6.2 3.8 4.65 5.3 12.65 20.8 11.8 22.95-.5 1.3-1.3.8-2.25-1.35zm-90.2.3c-.45-.45-.5-19.8-.05-20.9.4-1 3.35-1.1 4.15-.1.4.45.55 3.75.45 10.85l-.15 10.2-2 .15c-1.15.1-2.2 0-2.4-.2zm-20.2-25.55c.45-.1 1.25-.1 1.75 0 .45.15.05.25-.9.25-.95 0-1.35-.1-.85-.25zm.15-1.45c-.15-.45-.3-1.25-.3-1.8 0-.8-.15-.9-.65-.45-1.1.85-1.35.15-1.35-3.8v-3.65h2c1.85 0 2 .1 2.05 1.4l.05 1.35.35-1.5c.25-1.3.55-1.5 2.2-1.65l1.85-.15v2.85c0 2.5-.1 2.8-.95 2.55-.7-.15-.9.1-.95 1.2 0 .8-.2 1.95-.35 2.5-.55 1.6-1.25.1-.9-1.75.25-1.25.2-1.4-.55-1.15-.5.2-1 .35-1.1.35-.1 0-.2 1-.2 2.25 0 2.25-.6 3-1.2 1.45zm41.1-3.05c-.1-1-.4-1.35-1-1.25-.8.1-.9-.3-.9-2.9v-3h2c1.7 0 2 .2 2.3 1.3.25.9.05 1.45-.55 1.9-.75.5-.8 1.05-.55 2.95.3 1.9.2 2.35-.4 2.35-.45 0-.8-.55-.9-1.35zm4.3-2.8c.6-2 .6-2.25-.1-2-.6.25-.7-.05-.4-2.1.55-3.5.7-3.75 2.6-3.75h1.7v2.75c0 2.4-.15 2.85-1.05 3.2-.6.2-1.35 1.15-1.65 2.05-.9 2.7-1.9 2.55-1.1-.15zM606 363c-7.45-4.15-12.95-6.25-19.2-7.3-8.2-1.45-18.85-.05-28.3 3.75-2.8 1.15-5.2 2.05-5.35 2.05-.9 0 .85-1.95 5.65-6.35 9.1-8.35 12.85-13.7 12.9-18.5 0-4.6-2.55-6.05-9.15-5.15-9.85 1.35-19.1 4.85-29.45 11.15-5 3.05-6.1 2.75-3.25-.95 11.6-15.1 14.65-20.5 15-26.95.3-4.5-.7-6.5-4.05-8.2-4.7-2.4-11.7-1.05-21.7 4.25-6.15 3.25-11.3 6.95-16.55 12-2.15 2.05-4.05 3.7-4.25 3.7-1.8 0 4-6.25 10.1-10.85 14.65-11.05 28.8-14.9 34.95-9.5 2.35 2.05 3.2 4.25 3.2 8.05 0 5.9-2.95 12-10.65 22.25-1.3 1.75-2.3 3.3-2.2 3.4.1.1 1.85-.7 3.85-1.8 8-4.3 18.2-7.55 25.95-8.35 10-.95 12.75 5.8 6.4 15.6-.9 1.35-3.7 4.6-6.25 7.15-2.55 2.6-4.55 4.8-4.45 4.9.05.1 1.1-.2 2.3-.6 10.6-3.75 25.25-3.75 35 .05 4.55 1.75 17.15 8.3 17.4 9.1.4 1.25-1.8.45-7.9-2.9zm-224.7-4.3c-.55-1.4-.3-16.05.2-15.1.75 1.2 1.3 15.9.65 15.9-.3 0-.7-.35-.85-.8zm-5.45-19.75c-2.35-1.4-3-5.75-1.35-9.4.55-1.2 1-2.25 1-2.35 0-.1-.65-.2-1.45-.2-2.15 0-3-.45-3.8-2-.45-.9-1.25-1.5-2.3-1.7-2.3-.45-2.95-1.15-2.95-3.3v-1.9l-2.75.95c-5.1 1.8-8.9 1.05-10.55-2.1-.85-1.7-.95-5.5-.1-6.35.7-.7.2-.9-3-1.25-3.9-.45-5.35-3.15-3.9-7.2l.75-2.15h-1.65c-2.05 0-3.5-1.45-3.2-3.2.25-1.2.15-1.2-2.4-1.15-2.15.05-2.9-.15-3.9-1.1-2.75-2.6-2.85-6.05-.25-11.25.8-1.6 1.4-3 1.35-3.05-.1-.1-1.6-.5-3.4-.95-5.9-1.5-9-4.65-9-9.2 0-2.65 1-4.75 3.65-7.5l2.05-2.1-2.3-2.4c-5.25-5.4-6.45-12.55-3.2-19 1.8-3.55 4.1-5.4 8.45-6.8.7-.2.85-.85.85-3.4 0-3.95 1.3-6.9 4.1-9.5 2.05-1.85 2.05-1.9 1.5-3.85-.85-2.75-.75-7.5.25-10.6.6-1.95 1.55-3.4 3.4-5.2 2.4-2.4 2.6-2.75 3.2-6.25.65-4.1 2.2-7.9 4.5-11.15l1.55-2.1-1-3.15c-1.25-4.05-1.25-7.65 0-11.65 2.35-7.4 8.15-11.95 15.3-11.95 6.15 0 10.65 3.3 12.4 9.15.25.85.35.85 1.55.05 1.85-1.2 4.5-.1 5.95 2.45.85 1.55 1.55 2.1 3.7 2.8 5.6 1.9 10.6 6.4 13.75 12.45 1.25 2.3 2.3 3.6 3.45 4.25.9.5 2.2 1.7 2.9 2.75 1.05 1.6 1.25 2.35 1.15 5.35-.05 1.95-.2 4-.25 4.65-.1.95.2 1.3 1.85 1.85 4.4 1.55 5.35 4.95 2.75 9.6-.8 1.45-1.5 2.85-1.5 3.15 0 .25 1 .5 2.2.5 4.75 0 7.05 2.05 7 6.25-.05 2.75-.85 4.6-3.15 7.25-.85.95-1.4 1.8-1.3 1.9.1.1 1.8-.05 3.75-.4 5.25-.9 9.6.3 11.6 3.2 2.5 3.55 2.25 9.75-.65 14.55l-1.95 3.15 1.05 2.35c1.45 3.3.7 6.25-2.7 10.05-1.5 1.75-1.55 1.9-.65 2.4 4.05 2.4 4.05 2.4 4.2 5.8.25 4.7-.6 7-3.7 10.45l-2.7 2.95 1.55 2.95c1.3 2.4 1.5 3.3 1.3 5.3-.45 4.75-4.85 8.7-10.25 9.25l-2.4.2v4.35c0 2.85-.3 4.9-.85 6.1-.9 2-3.45 4.4-4.75 4.5-3.3.2-3.15.1-4.4 3.45-1.35 3.75-3.7 6.2-6.9 7.1-2.45.7-3.3 1.6-3.3 3.6 0 1.95-1.55 5.35-3.05 6.75-2 1.85-4.8 1.3-6.55-1.3l-.75-1.15-1.65 2.05c-2.75 3.45-5.85 4.75-8.15 3.4zm-7.35-37.45c-.35-.85-1.2-1.65-2-1.95-.8-.25-1.95-1.3-2.6-2.25-.65-1-1.65-1.95-2.2-2.1-1.55-.4-3.85-.05-4.05.6-.15.4.5.5 2.05.35 2.15-.25 2.25-.2 3.55 1.8.8 1.15 1.8 2.05 2.3 2.05 1.05 0 2.2 1.55 2.8 3.75.35 1.4.4 1.4.55.35.1-.65-.1-1.85-.4-2.6zm24.2-1.55l.3-1.6 2.75.35c2.7.3 2.8.25 4.35-1.45 2.4-2.75 3.95-3.4 6.65-2.7 1.25.3 2.4.45 2.6.3.5-.55-2.3-1.35-4.6-1.35-1.9 0-2.5.3-4.5 2.2-2.2 2.05-2.45 2.15-4.05 1.7-.95-.25-2.2-.3-2.75-.15-1.25.4-2.65 2.5-2.25 3.5.45 1.25 1.15.85 1.5-.8zm-10.8-18.05c-.1-.35-1.2-1.15-2.4-1.8-1.75-.9-2.95-1.1-5.25-1.05-3 .15-3 .15-3.85-1.7-1.1-2.25-2.45-3-4.95-2.75l-1.95.2.3-3.15c.6-5.5-1.9-9.45-6.25-10-1.9-.25-5.55 1-5.55 1.85 0 .65.15.65 1.8-.25 2.6-1.35 5.75-.7 7.8 1.55 1.4 1.65 1.95 4.7 1.35 7.9-.3 1.6-.4 3-.25 3.15.1.15 1.05 0 2-.35 2.5-.8 3.7-.25 4.95 2.35l1.1 2.25 2.35-.25c2.55-.3 6.4.7 7.45 1.95.7.85 1.6.9 1.35.1zm38.95-14.8c.75-2.3.75-2.85.2-4.25-.4-.9-.8-2.6-.95-3.85-.25-2.7-.8-3.5-2.4-3.5-1.5 0-1.55.9-.05 1.1.9.1 1.15.55 1.4 2.4.15 1.25.6 2.95.9 3.8.5 1.35.4 2-.65 4.85-1.2 3.25-1.2 4.75.05 3 .4-.45 1.05-2.05 1.5-3.55zM402 264.95c0-.3-.35-1.9-.75-3.55-1.3-4.85.4-7.9 4.7-8.65l1.95-.3-.25-3.7c-.25-3.5-.2-3.7 1.05-5 1.1-1.05 1.7-1.3 3.1-1.15 1.95.25 2.3-.45.45-.9-1.5-.4-4.25 1.1-5.15 2.85-.4.75-.55 2.2-.4 4.05l.3 2.85-1.9.55c-2.4.6-4.55 2.85-5.1 5.2-.45 2 .75 8.3 1.55 8.3.25 0 .45-.25.45-.55zm-58.65-9.05c-.4-1.45.4-3.2 1.9-4.2 1.15-.75 1.55-.75 3.3-.2l2 .7 2.15-2.35c2.65-2.9 4.25-3.05 8.15-.85 2.9 1.65 3.6 1.4 1-.35-4.25-2.85-6.35-2.85-9.25.15-2.15 2.25-2.2 2.3-4.2 1.8-2.35-.6-3.95-.15-5.1 1.5-.9 1.3-1.15 5.65-.25 5.1.3-.15.4-.75.3-1.3zm54.9-21.45c1.7-1.5 2.3-2.95 1.25-2.95-.25 0-.5.2-.5.45 0 .2-.55 1-1.25 1.8-1.05 1.05-1.55 1.3-2.65 1-.75-.2-1.75-.7-2.25-1.15-.75-.7-1.2-.7-3.4-.15-2.95.8-3.75.35-4.25-2.35-.3-1.5-.4-1.65-.7-.85-.55 1.5.45 3.75 1.85 4.3.85.3 1.9.25 3.2-.1 1.5-.45 2.1-.45 2.7.05.4.35 1.5.8 2.4 1 .85.2 1.65.4 1.7.45.05.05.9-.65 1.9-1.5zm-44.65-6.5c5.6-1.6 8.1-5.65 7.2-11.6-.3-2-.2-2.25 1.5-3.85 3.5-3.35 3.8-7 .75-10.05l-1.35-1.35 1.15-1.4c.65-.8 1.5-2.4 1.95-3.55.7-1.75.7-2.25.1-3.5-.8-1.65-4.05-3.45-5.3-2.85-.65.3-.5.45.75.6 2.1.2 4.15 2.15 4.15 3.95 0 1.5-1.15 3.65-2.95 5.5-1.35 1.4-1.35 2 0 2.4 1.4.45 3.15 4.4 2.7 6.15-.15.7-1.3 2.25-2.5 3.45l-2.2 2.15.3 3.15c.3 3.5-.45 5.85-2.6 7.85-.9.85-7.3 3.05-10.15 3.5-.1 0 0 .25.15.5.35.55 1.3.4 6.35-1.05zm46.8-15.6c1.05-.85 4.2-7.75 4-8.75-.1-.45-1.1 1.15-2.25 3.55-1.55 3.25-2.45 4.5-3.4 4.85-1.9.75-2.15.65-3.75-1.1l-1.5-1.6-1.75.85c-1 .45-2.35.85-3 .85-1.35 0-2.75-1.7-2.75-3.35 0-.65-.25-1.15-.55-1.15-.7 0-.2 2.3.85 3.9 1.1 1.65 2.1 1.9 4.65.95l2.25-.8 1.7 1.55c1.4 1.2 2.05 1.45 3.25 1.2.85-.15 1.85-.6 2.25-.95zM389.5 182c-1.15-2.3-2.6-3.05-4.65-2.45-1.15.3-1.5.2-2.15-.8-.4-.6-1.2-1.25-1.75-1.4-1.25-.35-3.3.5-3.65 1.45-.35.95.65.9 1.75-.1 1-.9 2.6-.35 3.45 1.3.45.8.75.9 1.85.45 2.15-.8 3.35-.2 4.6 2.4.65 1.3 1.3 2.15 1.4 1.8.1-.3-.25-1.5-.85-2.65zm126.35 67.65c-.15-.2-.55-8.2-.9-17.75-.35-9.6-.8-17.4-1-17.4-.2 0-.9.65-1.55 1.4-.65.8-6.4 7.55-12.85 15C489.2 243 487 245.15 487 243.5c0-.4 8.55-10.7 23.95-28.85 3.4-4 4-5.95 1.7-5.45-.8.15-4 .75-7.15 1.3-6.6 1.15-11.35 2.2-12.6 2.75-.65.25-.9.15-.9-.45 0-1 2.8-1.8 13.25-3.85 4.4-.85 8.1-1.65 8.25-1.75.1-.15-4.85-5.3-11-11.45-7.25-7.25-10.9-11.25-10.3-11.25.5 0 5.35 4.4 11.4 10.4l10.5 10.35-.3-8.75c-.6-17.5-.6-26.15 0-26.35.8-.25 1.1 4.4 1.5 21.75.2 8.05.55 14.75.75 14.9.95.55 2.7-1.2 10.55-10.2 13.25-15.25 16.9-19.1 17.95-19.1 2.05 0 1.95.1-11.95 15.75-5.9 6.6-10.5 12.05-10.25 12.1.25.1 7.2-1.2 15.45-2.85 8.2-1.65 15.2-2.9 15.55-2.75 1.05.4.75 1.7-.45 2-2 .4-8.3 1.65-20.9 4-6.75 1.25-12.55 2.6-12.95 3-.95.9-.85 1.05 15.9 18.2 7.6 7.8 13.85 14.5 13.95 14.85.1.4-.15.7-.5.7-.75 0-14.5-13.75-25.05-25-4.75-5.05-6.45-6.6-6.85-6.2-.45.45-.45 3.75-.05 13 .8 19 .85 25.35.2 25.55-.3.1-.65 0-.8-.2zm-281.1-2.6c-3.85-1.75-6.15-5.95-5.45-9.95.85-4.8 3.85-8.85 7.7-10.5 3.85-1.65 10.15-.4 12.9 2.55 1.9 2.1 2.65 7.15 1.55 11-1.65 6.05-10.55 9.7-16.7 6.9zm9.6-2.85c3.35-1.95 4.8-4.25 5.05-7.95.35-5.1-1.5-7.5-6.25-8.1-4.55-.5-8.2 1.7-10.2 6.1-3.7 8.1 3.55 14.45 11.4 9.95zM328.6 173c-2.05-.85-.95-1.75 2.45-2.05 1.75-.15 3.7-.55 4.3-.85 1.55-.85 2.15-.75 2.15.4 0 1.95-6.15 3.65-8.9 2.5zm78-12.1c.25-.7 5.3-1.7 5.8-1.15.2.2-.1.65-.6 1.05-1.25.9-5.45.95-5.2.1zm-91.5-95.5c-1.6-1.45-3.7-3.35-4.75-4.25-1.7-1.5-2.5-2.95-1.4-2.55.55.15 9.55 8.9 9.55 9.2 0 .5-.75 0-3.4-2.4zm-1.55-5.45c-2.5-2.25-4.5-4.2-4.35-4.35.15-.1 1.25.55 2.4 1.55 4.75 4.05 7.1 6.3 6.85 6.55-.15.15-2.35-1.55-4.9-3.75zm96.45 3.3c0-.25 8.75-4.75 9.25-4.75 1 0-.85 1.3-4.3 3-3.7 1.9-4.95 2.3-4.95 1.75zm-91.75-4.55c-6.1-5.6-7.3-6.8-7.05-7.05s9.9 8.15 10.2 8.95c.4.95-.85.2-3.15-1.9zM409 60.15c0-.45 1.45-1.5 6.65-4.85.75-.5 1.35-.7 1.35-.45 0 .45-1.45 1.5-6.6 4.85-.8.5-1.4.7-1.4.45zm-4-2.3c0-.4 7.55-5.85 8.1-5.85.85 0-.1.9-3.35 3.2-3.15 2.3-4.75 3.15-4.75 2.65z"/>
  </g>
  <g fill="#92917f">
    <path d="M530 694.45c-.7-.85-2.9-2.8-4.85-4.3-2-1.5-3.65-2.9-3.65-3.1 0-.2-.75-.75-1.6-1.3-2.45-1.4-7.4-6.25-13.45-13.15-7.05-8.05-8.5-11.2-6.8-14.75.5-1.1.95-1.35 2.35-1.35 2.3 0 3.75.95 13.8 9.05 10.55 8.55 15.15 12.65 19.7 17.55 3.75 4.05 10.15 8.75 12.6 9.25 1.05.2 1.4.55 1.4 1.4 0 1.1-.15 1.15-5.2 1.2-2.85.05-6.55.3-8.15.55-4.25.7-4.75.6-6.15-1.05zm18.45-6.1c-2.9-1.35-7.35-5-21.25-17.35-11.75-10.5-16.6-14.3-21.4-16.75-2.35-1.2-2.65-1.9-1.6-3.5 2.4-3.65 9.25.95 32.3 21.5 11.7 10.5 14.7 12.75 16.95 12.75.55 0 1.75-.9 2.7-2 .95-1.1 2.05-2 2.5-2 1 0 1.1.55.25 1.45-.55.5-.45.55.3.25.65-.25.85-.2.65.15-.2.3 0 .5.5.45 1.6-.1 1.2 1.3-1 3.45-1.65 1.7-2.6 2.25-3.75 2.25-1.75 0-2.6-.8-1.25-1.15.5-.15 0-.25-1.1-.25s-1.6.1-1.1.25c.45.1.75.45.6.7-.4.6-2.7.5-4.3-.2zm9.35-2.45l1.45-1.65-1.75 1.5c-.95.85-1.85 1.55-1.95 1.65-.1.05 0 .1.25.1.3 0 1.15-.75 2-1.6zM525 664.85c0-.1-.75-.8-1.6-1.65l-1.65-1.45 1.45 1.65c1.4 1.5 1.8 1.85 1.8 1.45zM213.45 687.3c-.05-.3-.05-.7 0-.9 0-.25-.15-.4-.45-.4-.25 0-.5.3-.55.65 0 .3-.2.1-.5-.55-.75-2 .9-4.4 7.95-11.25 13.1-12.75 21.2-19.25 27.3-21.8 2.65-1.15 3.75-1.3 8.85-1.3 6.05 0 7.7.5 7.35 2.2-.1.45.15 1.05.6 1.4.6.5.6.6.05.65-.55 0-.55.15-.05.75.3.4.45.95.3 1.2-.2.25.25 1.3.95 2.35 1.4 2.05 1.6 4.4.55 6.85-.95 2.25-4.65 6.8-5.95 7.35-.6.2-2.05 1.35-3.2 2.45-1.15 1.15-2.4 2.05-2.7 2.05-.35 0-1.35.55-2.25 1.25-.9.7-1.75 1.25-1.95 1.25-.15 0-1.15.55-2.15 1.25-2.25 1.55-8.45 3.5-13.6 4.3-5.15.8-20.5 1-20.55.25zm31.8-26.95c.3-.25-.85.45-2.55 1.6-1.7 1.15-3.7 2.8-4.5 3.65-.8.85.35.15 2.55-1.6 2.2-1.7 4.25-3.35 4.5-3.65zm-20.8-.5c.3-.4.4-.85.2-1-.15-.2.3-1.65 1-3.2 1.7-3.9 2.1-5.35 1.4-4.95-1.2.75-1-1.25.7-7.2 1.8-6.2 2.4-7.5 3.45-7.5.85 0 2.05-5.8 1.85-9.25-.2-4.55 1.35-27.25 3.25-48.25.45-4.55.9-10.1 1.05-12.35.35-4.85.95-5.75 2.9-4.25 2.15 1.7 11.15 3.2 16.75 2.75 3.85-.3 13.15-2.05 17.05-3.2 1.8-.5 3.7-.95 4.15-.95 1.25 0 1.9-1.75-9.1 24-5.75 13.45-11.55 28.35-13.4 34.4-1.95 6.4-2 6.8-.95 6.4.5-.15.75.05.75.65 0 1.1-2.75 1.75-12.55 3l-6.65.8-1.35 5.5-1.3 5.5 2.8.4c3.6.55 9.6-.2 14.8-1.85 5.3-1.7 5.8-1.7 5.55.2-.1.8 0 1.35.2 1.25.2-.15.5.2.65.75.2.85-.2 1.15-2.85 1.95-5.5 1.7-8.9 2.1-15.6 1.95l-6.55-.15-1.4 4c-.75 2.2-2.05 5.65-2.85 7.65-1.4 3.35-1.6 3.6-3 3.6-1.2 0-1.4-.15-.95-.65zm13.05-39.95c0-1.6-.15-1.95-.5-1.4-.65 1-.65 3.5 0 3.5.3 0 .5-.95.5-2.1zm-.15-8.25c-.1-1.05-.2-.3-.2 1.6 0 1.95.1 2.75.2 1.9.1-.9.1-2.5 0-3.5zm13.6-3.8c0-1.05-.05-1.05-.45-.1-.6 1.4-.6 1.85 0 1.5.3-.15.5-.8.45-1.4zm8.15-7.85c.2 0 .4-.2.4-.5 0-.95-.85-.5-1.4.75-.75 1.65-.7 2.4 0 .9.3-.65.75-1.15 1-1.15zm-5.3-5.75c-.15-.4-.05-.75.2-.75.3 0 .5-.35.5-.75 0-1.45-1.3-.75-1.4.75-.05.85.15 1.5.45 1.5.3 0 .45-.35.25-.75zm1.4-3.55c.5-1.25.35-4.6-.2-4.95-.3-.2-.5.55-.5 1.95 0 1.25-.25 2.3-.6 2.4-.3.1-.4.5-.2.8.5.85 1.15.75 1.5-.2zm8-1.3c-.15-.2 0-.4.3-.4.65 0 1.9-2.8 2.3-5.3.35-2.35-.55-1.85-1 .6-.2.95-.8 2.5-1.35 3.35-.5.9-.95 2.05-.95 2.6 0 .8.1.85.45.25.3-.4.35-.9.25-1.1zm-7.5-5.15c-.2-.4-.05-.75.25-.75.35 0 .45-.45.25-1.25-.2-.75-.1-1.25.2-1.25.3 0 .5-.4.5-.85 0-.5.2-1.85.5-3.05.25-1.15.4-2.55.25-3.05-.1-.5.1-1.25.55-1.65.4-.45.6-.9.45-1.1-.2-.15.05-.3.5-.3s.85-.2.85-.45c0-.2 1.2-.45 2.65-.5 3.75-.05 7.95-1.05 9-2.15.5-.5 1.2-.9 1.6-.9.4 0 .75-.2.75-.5 0-.8-1.45-.55-3.95.65-2.1 1.05-7.05 2-9.9 1.9-.6 0-1.25.2-1.4.45-.4.65-10 .65-11.2.05-1.45-.8-7.05-1.25-7.05-.6 0 .3.85.55 2 .55s2.9.4 3.9.9c1.2.55 3.3.95 5.85 1.05 2.2.05 4.2.35 4.5.6.3.3.15 2.15-.4 5.1-1.45 7.8-1.45 7.85-.9 7.85.3 0 .4-.35.25-.75zm-8.1-5.25c-.15-1.3 0-2 .4-2 .75 0 .45-2.1-.35-2.4-.5-.15-.65.65-.65 2.8 0 2.4.25 3.6.7 3.6.05 0 0-.9-.1-2zm19.6-.5c.25-.85.2-1-.1-.5-.25.4-.65 1.3-.8 2-.25.85-.2 1 .1.5.25-.4.65-1.3.8-2zm-18.2-4.75c0-.4-.35-.75-.75-.75-.45 0-.6.3-.45.75.2.4.5.75.75.75s.45-.35.45-.75zm281.55 75c-6.45-1.4-12.2-3.9-16.3-7.05-1.5-1.15-1.6-1.35-1.1-2.7.3-.8.7-1.35.9-1.2.2.1.25-.25.1-.8-.4-1.45.8-1.3 3.15.4 6 4.25 13.3 7.05 19.85 7.45 2.45.15 4.35.1 4.3-.15-.05-.95-1.75-7-2.1-7.55-.25-.35-1.15-.65-2-.65-3 0-7.55-1.5-13.6-4.5-3.3-1.65-6.5-3-7.1-3-1.3 0-1.55-.9-.4-1.3.5-.2.6-.55.35-.9-.25-.3-.85-2.55-1.3-5.05-1.15-6.05-3.65-15-5-17.75-.6-1.25-2.65-4.7-4.55-7.75-7.3-11.65-10.95-21.25-12.5-33.25-.85-6.3-.65-8.75.65-8.25 1.7.65 5.15 1.2 10.75 1.75 6.8.65 11.9.2 19.2-1.75 5.8-1.5 8.45-2.65 10.85-4.75 2.2-1.95 2.8-1.65 3.3 1.75.25 1.75.2 2.25-.35 2.25-.4 0-2.05.9-3.65 2s-3.15 2-3.35 2c-.25 0-1.25.6-2.3 1.3-4.25 2.9-14 4.75-24.7 4.8-4.2 0-7.65.1-7.65.2 0 1.2 16.25 2.55 16.7 1.4.15-.35 1.6-.75 3.3-.95 1.7-.2 3.7-.65 4.4-1.05.75-.4 1.8-.7 2.35-.7s1.4-.35 1.9-.75c.55-.35 1.8-.85 2.9-1 1.05-.2 1.85-.55 1.65-.8-.15-.25.3-.45 1-.45s1.4-.2 1.55-.5c.15-.25.75-.5 1.3-.5.5 0 .95-.35.95-.75 0-.35.4-.95.9-1.2.45-.3.65-.55.4-.55-1 0 .9-1.5 1.95-1.5 1 0 1.15.3 1.45 3.4.9 9.4 1.35 17 1.8 28.6 1.4 38.35 1.7 44 2.3 44 .35 0 .8.85.95 1.9.2 1 .9 3.95 1.55 6.5 1.45 5.55 1.55 7.35.45 6.9-.45-.15-.75-.05-.7.35.05.3.05 1.1 0 1.75-.05 1.05-.2 1.1-5.65 1.05-3.1 0-7.1-.35-8.85-.7zm8.35-37c0-5.5-.15-10.45-.4-11-.25-.6-.4 5.45-.4 14.5.05 10.65.15 14.1.45 11 .2-2.45.35-9 .35-14.5zm-5.85 15.75c.7 0 .55-2.4-.15-2.65-.5-.2-.45-.4.1-.85.55-.45.6-.65.15-.85-.75-.3-.85-1.65-.15-1.65s.65-2.35-.05-2.8c-.3-.15-.45-.75-.3-1.25.15-.55.05-.95-.2-.95s-.4 2.95-.4 6.65c.05 3.6.2 6.1.3 5.5.1-.65.45-1.15.7-1.15zm-6.55-11c0-.25-.2-.5-.4-.5s-.3-1.6-.2-3.55c.15-2.55.05-3.5-.35-3.25-.3.2-.55 1.85-.55 4.1 0 2.95.15 3.7.75 3.7.4 0 .75-.2.75-.5zm6.5-4.5c0-2.35-.2-4-.5-4-.55 0-.7 7.1-.15 7.65.6.65.65.35.65-3.65zm-13.75-.7c-.3-2.5-.85-4.55-1.85-6.65-.3-.55-.4-1.25-.25-1.5.15-.2-.1-.7-.5-1.1-.7-.65-.75-.5-.4 1.25.2 1.05.4 2.2.45 2.45.05.3.35.95.65 1.5.6 1.15 1.1 3.3 1.25 5.6.05.85.3 1.45.55 1.3.25-.15.3-1.4.1-2.85zm6.05-5.65c-.2-1.05-.4-2.25-.4-2.65 0-1.25-1.05-4.5-1.4-4.5-.35 0-.55-1.3-.6-4 0-.7-.15-1.35-.35-1.5-.6-.4-2.05-4.45-2.05-5.75 0-.7-.2-1.25-.45-1.25-.35 0-1-1.55-1.05-2.4 0-.55-1.65-3.1-2-3.1-.4 0-.25.6 1.25 4.25.25.55.45 1.15.5 1.4.1.2.15.4.25.5.05.05.15.45.25.85.1.4.65 2 1.3 3.5.6 1.5 1.3 3.9 1.55 5.25.3 1.4.7 2.95.95 3.5.7 1.75 1.45 4.95 1.45 6.4 0 .75.25 1.35.55 1.35.4 0 .45-.6.25-1.85zm7.2-.65c0-2.2-.75-2.7-1.1-.75-.15.7-.05 1.25.15 1.25.25 0 .45.35.45.75s.1.75.25.75.25-.9.25-2zm-16.8-6.4c-.2-.75-.4-1.45-.4-1.6-.05-.15-.25-.5-.45-.85-.2-.3-.05-.7.25-.85.5-.25.5-.35.05-.6-.35-.15-.5-.55-.35-.9.15-.35-.25-1.05-.85-1.6l-1.05-.95.35 1.7c.2.9.4 1.95.45 2.25.15.85.8 2.9 1.45 4.5.65 1.75 1.1.85.55-1.1zm16.1-1.35c-.2-2.05-.65-4.5-1.05-5.45-.4-.95-.75-2.25-.75-2.9-.05-2.6-.25-4.15-.55-4.4-.15-.15-.55-.9-.9-1.75-.45-1.25-.5-1.3-.3-.25.1.7.35 2.65.55 4.25.15 1.65.6 3.8.95 4.75.35.95.8 3.5 1 5.65.2 2.1.6 3.85.9 3.85.3 0 .35-1.3.15-3.75zm5.85-8.65c-.5-4.5-1-11.85-.8-12.65.15-.5.05-.95-.2-.95-.5 0-.6-.4-.8-2.75-.05-.7-.3-1.25-.55-1.25-.2 0-.25-.8-.1-1.75.2-1.1.15-1.75-.2-1.75-.75 0-.6 4.9.2 7.8.4 1.35.85 3.7 1 5.2.75 9 .95 10.55 1.3 10.05.2-.35.25-1.2.15-1.95zm-25.9-.15c-.45-.85-.9-1.45-1.05-1.35-.3.3 1 2.9 1.45 2.9.2 0 0-.7-.4-1.55zM510 585.3c0-.4-.45-1.2-1-1.85l-1-1.2.85 1.9c.9 2 1.15 2.25 1.15 1.15zm5.8-8.85c-.1-.9-.45-1.8-.75-2.1-.3-.3-.55-.95-.55-1.4 0-.5-.2-1-.4-1.15-.5-.3-.35 1.5.35 4.1.7 2.45 1.75 2.85 1.35.55zm10.15-5.75c-.35-1.35-.7-2.15-.8-1.85-.25.7.8 4.85 1.15 4.5.15-.1-.05-1.3-.35-2.65zM378.5 430.65c0-4.5-.85-11.65-1.8-15.4-2.25-9-9.25-18.05-16.9-21.7-2.4-1.2-10.3-3.15-16.15-4.05-2.5-.4-3.95-.9-4.85-1.75-1.1-1.05-1.2-1.3-.7-3.2.95-3.65 3.4-7.1 6.8-9.45 1.7-1.2 3.1-2.5 3.1-2.9 0-1.05 1.9-.85 2.45.25.3.5 1.6 1.2 2.9 1.55 2.75.75 3.5 1.25 2.65 1.75-1.4.85 2.9 1.85 9.4 2.1 6.5.3 6.6.3 6.6-.8 0-.95.25-1.05 3.65-1.05 1.95-.05 5.85-.25 8.6-.5 13.1-1.25 12.45-1.25 12.1-.35-.25.7.05.75 2.3.5 5.55-.6 13.2-3.5 15.15-5.75.95-1.15.95-1.15-.05-.3-.7.55-1.25.7-1.75.4-.6-.35-.6-.6.15-1.4.45-.5 1.1-1.65 1.4-2.5.55-1.65 2.45-2.3 2.45-.85 0 .4.35.75.75.75 2.05 0 3.95 1.75 7.05 6.6 3.65 5.65 4.35 7.1 3.95 8.4-.3 1-.75 1.15-8.6 2.75-8.9 1.85-17.05 6.55-24.95 14.5-9 9.1-12.05 15.7-13.7 30-.35 2.75-.7 5.15-.85 5.4-.7 1.15-1.15-.05-1.15-3zm3.4-34.6c.1-3.55-.05-5.9-.4-6.3-.4-.45-.4-.75 0-1 .75-.45.6-4.55-.2-5.2-1.05-.9-1.15-.1-1.25 9.1-.05 8.45.05 9.55 1.1 9.2.4-.1.65-2.1.75-5.8z"/>
    <path d="M359.55 372.9c-.05-.95.2-1.4.7-1.4.4 0 .75.25.75.5 0 .3-.2.5-.45.5s-.6.4-.7.9c-.15.5-.25.3-.3-.5zm44.15-.7c.15-.45.3-1.15.3-1.6 0-.75.1-.75.5-.1.4.6.5.6.5.05 0-.4.1-.6.25-.45.4.4-.8 2.9-1.4 2.9-.25 0-.3-.35-.15-.8zm.8-3.25c0-.3-.35-.45-.75-.25-.8.3-.9-.25-.45-2.05.4-1.45 2.2-1.55 2.2-.2 0 .55-.2 1.1-.5 1.3-.25.15-.35.6-.15 1 .15.4.1.75-.05.75-.15 0-.3-.25-.3-.55zm1-.4c0-.2.15-.55.4-.75.35-.35.4-.55.55-1.9.05-.45.2-.4.55.1.8 1.2.55 2.35-.5 2.65-.55.15-1 .1-1-.1z"/>
  </g>
  <g fill="#f7fbfa">
    <path d="M548.3 694.55c-.2-.25-1-.6-1.85-.8-2.55-.55-8.7-5.05-12.45-9.15-4.55-4.9-9.15-9-19.7-17.55-9.45-7.6-11.55-9.05-13.15-9.05-.65 0-1.15-.25-1.15-.55 0-.75 3.7-6.05 7.2-10.2 1.6-1.9 3.6-4.5 4.45-5.75.8-1.25 1.55-2.3 1.65-2.4.05-.1 2.15 1.05 4.65 2.6 7.1 4.25 14.3 6.3 22.35 6.3h4.6l.25 6.65c.3 6.8 1.45 17.4 2.1 19 .2.5 2.55 2 5.2 3.35 2.65 1.35 5.35 2.9 6 3.4l1.2.95-1.45 2.05c-2.95 4.1-6.3 4.15-11.7.15-.95-.7-1.85-1.45-2-1.6-.15-.15-2.3-2.1-4.8-4.25s-7.55-6.65-11.25-9.95C516.35 657 508.3 651 505.9 651c-1.5 0-1 .95.85 1.7 3.9 1.65 10.65 6.95 24 18.8 16.75 14.85 18.65 16.25 22.65 16.25 2.65 0 2.8-.1 4.9-2.5 2.4-2.7 2.9-2.65 3.45.35.3 1.65.15 2-1.8 4.15-2.4 2.6-4.8 4-7.7 4.5-1.1.2-2.35.45-2.85.55-.45.15-.95 0-1.1-.25zm-334.85-8.45c.7-1.3 12.95-13.15 19.95-19.2 12.8-11.2 19.55-14.3 26.65-12.15 3.2 1 5 2.4 4.1 3.3-.4.4-.85.35-1.65-.05-.7-.35-2.45-.55-4.45-.4-4.4.25-8.45 2.2-14.55 6.95-2.6 2.05-6.65 5.15-9 6.95-2.35 1.75-7.05 5.55-10.45 8.45-7.4 6.3-8.45 7.05-9.95 7.05-.95 0-1.05-.15-.65-.9z"/>
    <path d="M211.5 685.15c0-.3 1.45-2.65 3.25-5.2 5-7.2 6.05-9.2 7.8-14.65.85-2.8 2-5.5 2.5-6.1 1.1-1.2 3.9-8.05 5.2-12.75l.95-3.3 2 .4c4.35.85 11.95.5 16.85-.75 2.6-.65 5.25-1.4 5.9-1.65 1.15-.45 1.35-.2 4.45 6.15 1.8 3.7 3.2 6.8 3.05 6.9-.1.1-1.45-.1-2.95-.5-3.55-1-8.1-.6-11.95.95-6.6 2.65-13 8-36.85 30.8-.1.1-.2 0-.2-.3zm14.65-34.95c-.25-.55-.4-2.75-.4-4.95 0-4.55.95-6.8 3.5-8.3 2-1.15 2.4-1.15 2 .05-.15.55-.4 1.6-.55 2.35-.15.8-.8 3.5-1.55 6-1.35 4.9-2.35 6.5-3 4.85zm305.6-4.2c-3.95-.8-10.3-3.45-13.75-5.8-1.95-1.3-3.65-2.55-3.8-2.8-.55-.85.45-8.45 1.15-9.2 1.35-1.35 3.75-.8 9.9 2.3 6.05 3 10.6 4.5 13.6 4.5.85 0 1.75.3 2 .65.4.6 2.6 9.15 2.65 10.25 0 .7-8.35.75-11.75.1zm13.25-.75c-.8-2.15-2.45-8.85-2.8-11.6l-.35-2.65h1.85c4.15 0 6.65 2.85 6.1 6.95-.35 2.6-3 8.55-3.8 8.55-.3 0-.75-.55-1-1.25z"/>
    <path d="M233.65 642.65c-2.4-.25-2.35-.2-1.6-2.65.6-2 .65-2.3 1.85-7.75l.85-4 6.55-.8c5.9-.75 14-2.1 16.4-2.8.9-.25.95-.05.6 3.3-.15 1.95-.55 5.25-.85 7.3-.55 3.75-.6 3.8-2.65 4.7-4.85 2.25-14.3 3.45-21.15 2.7zM372 376.8c0-2.5-3.75-5.3-7-5.3-1.4 0-1.5-.1-1.5-2.05 0-1.2-.2-1.9-.5-1.7-.25.15-.5 1.1-.5 2 0 1.4-.3 1.85-1.45 2.5l-1.45.75-.35-2.5c-.45-3.4-1.4-3.2-1.15.2.15 2.45 0 2.9-1.25 4.2-1.25 1.3-1.65 1.45-3.2 1.1-2.9-.65-4.5-1.5-5.05-2.65-.55-1.1-1.8-7.4-1.5-7.55 2.4-1.1 4.15-3.75 4.65-7.15.25-1.7.1-2.7-.75-4.4-1.2-2.55-2.75-3.7-5.6-4.15l-2-.35-2.2-6.75c-2.4-7.45-2.5-8-1.5-8 1.2 0 3.8-2.5 4.6-4.45.45-1 .9-3.15 1.1-4.75l.35-3 2.7 2.65c2.6 2.65 8.05 10.4 8.05 11.55 0 .3-.45 1.15-.95 1.85-1.3 1.6-1.8 5.1-1.1 7.25.6 1.8 2.95 4.35 4.95 5.4.65.3 2.05.5 3.1.45 1.75-.15 2.05.05 3.8 2.3 2.85 3.8 5.1 5.65 8.95 7.5 1.95.95 3.2 1.7 2.9 1.75-.35 0-.65.5-.65 1.15 0 1.2 1.9 3.3 3.85 4.3 1.8.9 5.2.65 7.4-.6 2.35-1.3 4.4-4.55 4-6.25-.25-.9.2-1.7 1.75-3.4 3.2-3.5 5.65-7.65 8-13.6 1.85-4.65 2.3-5.4 2.8-4.75.5.75.75.75 2.85-.05 3.35-1.25 7.45-4.1 8.8-6.1 1.25-1.8 1.9-5.3 1.35-7.45-.2-.7-1.2-2.15-2.25-3.2l-1.95-1.95 3-3.3c5-5.55 9.4-7.9 9.4-5.1 0 .7-.7 3.85-1.5 7.1-.85 3.2-2.1 9.1-2.75 13.05-.7 4-1.35 7.45-1.5 7.65-.1.2-1.15.5-2.3.7-6.3 1-9.1 6.4-7.25 13.85.95 3.7 2.15 5.55 3.85 5.95 1.05.25 1.2.55 1.05 2.2-.25 2.35-1.25 4.8-2.45 5.9-.85.8-1.05.8-3.1-.15-1.2-.5-2.7-.95-3.35-.95-1.05 0-1.15-.15-.9-2.35.2-2.5 0-2.3-1.35 1.2-.25.65-1.1 1.3-2.05 1.55-1.4.35-1.75.3-2.1-.5-.75-1.45-1.3-1.05-1.3 1 0 1.55-.3 2.15-1.45 3-.8.6-1.55 1.6-1.65 2.2-.15 1.05-.6 1.2-4.15 1.75-2.2.3-7.65.75-12.1.95-7.55.35-8.15.3-8.15-.5z"/>
  </g>
</svg>
