<svg version="1.0" xmlns="http://www.w3.org/2000/svg" preserveAspectRatio="xMidYMid meet" viewBox="0 0 546 640">
  <path d="M399.2 593.75c-1.9-1.75-3.15-3.2-2.8-3.25.75 0 3.15 1.55 5.1 3.35.7.65 1.4 1.15 1.6 1.15.25 0 .4.45.4 1s-.2 1-.4 1c-.25 0-1.95-1.45-3.9-3.25zM143.75 501.5c-4.8-.3-8.3-1.1-9.65-2.15-.85-.65-.75-2.35.15-2.35.6 0 .75-.95.75-5.5 0-5.75 1.1-26.15 2-37.05.95-11.3 2.3-14.65 10.6-25.7 7.45-10 20.95-23.6 39.9-40.25 2.6-2.3 7.05-6.35 9.85-9l5.15-4.85 1.7-4.95c3.7-10.65 7.25-17.05 15.85-28.4 2.85-3.8 5.6-7.6 6.1-8.35 1.15-1.75 1.45-1.8 2.1-.3.6 1.3 2.9 2.05 12 4.05 3.3.7 7.15 1.9 8.55 2.6 7.5 3.8 14.5 13.6 15.85 22.15.3 1.95.65 3.55.85 3.55.15 0 .55-1.3.9-2.85.35-1.6 1.7-5.05 3-7.65 2.1-4.3 2.9-5.35 8.6-11 8.9-8.95 14.3-12 25.35-14.25 2.15-.45 4.4-1.15 5-1.55 1.6-1 2.05-.9 2.4.75.15.8 2 3.3 4.1 5.6 7.8 8.6 14.65 18.75 19.95 29.65 3.2 6.5 3.45 6.9 10.1 13.9 3.75 3.95 11.25 11.7 16.6 17.2 16.45 16.75 33.1 34.8 37.45 40.55 3.15 4.2 7.15 12.3 8.2 16.65 1.95 8.2 4.35 24.75 4.35 30.05 0 1.45.3 2.55.75 2.95 2.75 2.25-2.7 5.65-13 8.05-6 1.4-16.3 1.6-23.65.5-4.65-.7-4.7-.7-4.4-2 .2-.7.55-4.5.8-8.35.45-6.55 1.3-11.8 3.15-19.5.45-1.85.55-3.35.3-3.8-.9-1.55-14.45-9.55-26.7-15.75-2.75-1.35-8.45-4.5-12.7-6.9-4.25-2.4-15.35-8.25-24.75-12.95-28.95-14.65-33.6-17.55-42.65-26.65-2.25-2.3-4.3-4.15-4.55-4.15s-1.1.95-1.95 2.15c-1.7 2.35-11.3 12-12.25 12.3-.35.1-2 1.35-3.7 2.75-5.7 4.75-28.8 19.6-39.95 25.7-1.9 1.05-4.6 2.6-6 3.45-1.35.85-6.3 3.85-11 6.65-4.65 2.8-10.3 6.25-12.5 7.65-2.2 1.4-4.7 2.9-5.5 3.35-.85.4-2 1.25-2.6 1.85l-1.05 1.05 2.15 4.95c3.45 8.05 3.95 10.2 3.95 16.65 0 4.7-.25 6.7-1.35 10.7-.75 2.75-1.5 5.15-1.7 5.3-1.1.95-17.8 4.1-20.6 3.9-.75 0-3.55-.2-6.3-.4zm116.5-191.25c-4.05-2.3-9.5-8.05-9.55-10.15-.05-1.95-3.1-8.35-5-10.65-.85-.9-2.55-3.25-3.9-5.2-3.4-5.05-6.4-8.7-7.6-9.4-.6-.35-1.6-1-2.25-1.45-1.4-1-3.45-1.25-5.8-.7-1.5.35-1.7.25-2.2-1.05-.9-2.3-5.75-22.8-7.45-31.4-.9-4.4-1.9-8.75-2.3-9.7-.9-2.15-.9-2.05.45-2.05.65 0 1.55.4 2.05.95.95 1.05 3.6 2.3 6.7 3.05 2.05.5 2.1.6 2.1 2.55 0 1.15-.55 3.05-1.25 4.45-1.65 3.25-1.6 4.75.2 6.55 1.2 1.2 1.9 1.45 3.75 1.45 2.1 0 2.3.1 2.3 1.2 0 1.55 1.05 2.65 3.05 3.05 1.5.35 1.55.45 1.3 2.45-.15 1.1-.4 2.4-.55 2.85-.65 1.5 1.3 3.05 4.15 3.35l2.65.25-.3 3.1c-.3 2.9-.2 3.25 1 4.7 1.5 1.8 3.55 2.05 6.55.8.95-.4 2.55-.75 3.45-.75 1.6 0 1.7.1 1.7 1.65 0 1.8 1.25 3.35 2.65 3.35.4 0 1.25.6 1.85 1.4.7.9 1.7 1.45 2.9 1.6 1.6.2 1.85.45 2 1.75.1.8-.2 2.6-.7 4-.75 2.25-.75 2.75-.15 4.05 1.05 2.2 2.15 2.05 5.1-.75 3.25-3.1 4.7-3.3 6.8-.95l1.4 1.6 1.3-1.3c.75-.75 1.65-2.55 2.1-4.2 1.1-4 1.3-4.35 3.65-5.2 2.85-1.05 5-3.25 6.45-6.6 1.15-2.6 1.4-2.85 3.2-3.15 1.35-.25 2.4-.9 3.65-2.25 1.85-2.05 2.25-3.35 2.45-8.5l.1-3.25 2.65-.35c3.55-.5 6.65-2.7 8.1-5.6l1.05-2.25-1.25-2.5c-1.95-3.8-1.75-5.6.95-8.7 1.25-1.45 2.25-2.75 2.25-2.95 0-.25.55-.4 1.2-.4 1.1 0 1.15.1.8 1.9-.25 1-.9 5.65-1.5 10.25-.6 4.65-1.6 11.3-2.3 14.75-.65 3.5-1.2 6.85-1.2 7.4 0 .8-.4 1.15-1.6 1.4-1.25.25-3.05 1.8-7.2 6.1-5.85 5.95-6.9 7.65-9.45 14.7-.7 2.05-1.85 4.9-2.55 6.35-.65 1.4-1.2 2.8-1.2 3.05 0 1.25-4.2 8.75-6.45 11.55-1.4 1.8-2.55 3.5-2.55 3.85 0 .4-1.15.6-3.7.65-2 .05-4.85.3-6.3.55-3.8.7-4.4.6-7.75-1.25zm-47.65-86.6c0-.5-.55-3.8-1.3-7.4-.7-3.55-2.1-11.65-3.1-18-1.8-11.35-1.8-11.6-1.55-22.75.3-11.75 1-17.65 5.5-46.25 2.7-16.9 2.95-21.4 2.75-51.3l-.15-26.8-1.5-1.95c-3.35-4.4-9.25-11.25-13.6-15.75-2.55-2.65-4.65-5.2-4.65-5.7s.4-1.2.9-1.55c.8-.6.75-.75-.6-2.1-1.4-1.5-1.4-2.6 0-2.6.85 0 .9-.7.1-2-.5-.75-.5-1.1 0-1.6.45-.45 1.05-.35 2.85.5 2.4 1.15 2.55 1.1 1.75-.45-.45-.75-.35-1.05.25-1.25 1.25-.5 3.55.75 9.45 5 11.45 8.2 14.45 10.3 14.8 10.3.25 0 .85-1.4 1.45-3.05 2.3-6.8 5.15-9.55 5.75-5.55.8 4.9 2.8 51.85 2.8 65.85 0 11.5-.8 27.35-2.05 39.5-.55 5.5-1.15 14.4-1.3 19.75l-.3 9.75 1.1-.95c1.05-.95 1.05-.95 1.05.65 0 1.2-.55 2.25-2 3.9-2.6 3-3.2 5.25-2.75 11l.35 4.65-2.2 2.45c-2.4 2.7-3.4 5.2-3.4 8.7 0 2.3 0 2.3-2.85 3.7-3.35 1.65-5.8 4.55-6.85 8.15-.6 2.05-.6 2.8-.05 4.9.65 2.65 2.75 6.05 4.95 8.05 1.95 1.8 1.75 3.7-.7 6.35-1.1 1.2-2.3 2.75-2.6 3.45-.65 1.45-2.35 1.7-2.3.4zM313 223c0-.25-.9-1.05-2-1.75-1.8-1.1-2-1.5-2-3.2 0-1.35.4-2.45 1.2-3.4 2.35-2.85 2.8-4.2 2-6.4-.35-1.1-.7-2.55-.7-3.25 0-1.8 3.1-7.5 4.1-7.5.75 0 .8.65.6 6.4-.25 7.05-1.05 16.75-1.5 18.5-.3 1.05-1.7 1.6-1.7.6zm-.1-33.95c-1.7-1.8-3.6-2.15-8.75-1.75l-4.15.35v-2c0-1.3.4-2.5 1.2-3.6 3.75-5.1 2.5-8.45-3.4-9.05-2.4-.25-2.55-.35-2.7-1.75-.1-.85.35-2.65 1.2-4.4 1.6-3.3 1.45-3.9-1.35-5.7-3.15-2.05-3.1-1.95-2.7-5.95.3-3.25.2-3.9-.7-5.4-.6-.95-1.7-2.1-2.45-2.6-1.5-.95-2.1-1.75-4.45-5.65-.9-1.45-1.65-3.35-1.65-4.2 0-1.5 0-1.5 1.05-.55l1.1.95-.35-6.5c-.45-8.4-1.35-14.25-3.75-24.6-2.65-11.5-3.9-18.9-4.8-28.9-.4-4.65-1-11.3-1.3-14.75-.8-9.15-3.35-26.7-4.45-30.75-.5-1.95-1.1-4.7-1.3-6.15-.3-2.55-.3-2.6.9-2.6 1.35 0 3 1.1 5.95 3.9l1.85 1.7 3.65-2.5c2.05-1.4 5.85-4.05 8.45-5.85C298.8 14.6 306 10 306.75 10c2.55 0 .4 3.4-4.15 6.6-1.2.8-2.05 1.6-1.9 1.75.15.15 2.2-.65 4.6-1.8 4.2-2 6.2-2.5 6.2-1.6 0 .45-2.25 2.5-6 5.5-1.15.95-1.15 1-.25 1.05.55 0 1.9-.55 3.05-1.2 1.1-.6 2.75-1.4 3.6-1.7 2.55-.9 2 .45-1.4 3.55-1.65 1.45-3 2.85-3 3.05 0 .2.5.3 1.1.2.75-.1 1.2.15 1.3.7.2 1.15-2.65 2.95-14.05 8.85l-8.9 4.65.35 1.55c.15.9 1.2 4.1 2.3 7.1 9.45 26.05 11.6 35 13.4 54.75 1.15 12.3 1.35 13.35 6.15 29.75 4.2 14.45 5.8 25.85 6.7 48.65.4 8.9.4 9.1-.6 9.1-.55-.05-1.6-.7-2.35-1.45z" fill="#ffb091"/>
  <g fill="#333">
    <path d="M285.5 626.85c-.15-.1-3.95-.35-8.5-.55-8.4-.3-21.5-1.1-26.5-1.55-1.5-.15-13.2-.3-26-.35-23.1-.1-43.15-.5-52.75-1.1-9.75-.6-12.65-.9-24.5-2.3-6.6-.8-14.6-1.7-17.75-2-10.25-1-14.7-1.55-16.3-2.05-1.85-.55-4.85-3.45-3.6-3.45.45 0 .9.25 1 .6.15.45.6.45 1.75-.05.9-.35 2-.5 2.55-.35 1.7.55 14.65-.7 18.6-1.75 5.05-1.4 9.3-3.75 17.6-9.8 1.8-1.35 4.95-1.65 3.9-.4-.95 1.1.1 1 10-1.3 29.25-6.65 35.35-7.5 53.5-7.2 7.85.15 14.8.35 15.5.45.7.1 4.85.35 9.25.5 4.4.2 9.35.45 11 .55 8.75.65 21.75.85 47 .75 15.4-.1 30.6-.15 33.75-.15 15.7-.05 24.9.65 35.4 2.6 12.55 2.35 13.05 2.4 12.1 1.3-.5-.65-.45-.75.6-.75.95 0 2.5 1.35 6.2 5.35 2.7 2.9 5.8 5.95 6.9 6.7 5.8 4.25 12.3 10.35 12.3 11.6 0 .75-.55.85-3.85.9-2.15 0-4.25.1-4.65.15-.4.1-4.1.35-8.25.55-4.1.2-8.3.4-9.25.5-.95.1-5.1.3-9.25.5-4.1.2-8.45.4-9.6.5-1.15.1-6.4.35-11.75.5-5.3.2-10.65.45-11.9.5-3.75.25-54.3.8-54.5.6zm187.45-8.05c-.1-.1-3.1-.3-6.7-.5-15.65-.75-19.05-.9-20-1.05-.55-.1-2.5-.2-4.35-.2-2.15-.05-3.4-.25-3.4-.6 0-.4 3-.45 11.15-.2 6.1.2 11.9.45 12.85.5.95.1 6.7.3 12.75.5 6.05.15 12.45.4 14.25.5 1.8.1 4.45.2 5.9.25 1.4 0 2.6.25 2.6.5 0 .45-24.55.75-25.05.3zM45.8 616.05c-.2-.25-.15-.6.05-.7.75-.45 6.4-.85 15.9-1.1 5.25-.2 11.1-.4 13-.5 11.1-.6 29.95-.8 29.5-.35-.25.3-3.2.65-6.5.85-3.3.15-7.25.4-8.75.5-1.5.1-6.8.35-11.75.5-4.95.15-10.9.4-13.25.5-11.9.7-17.9.8-18.2.3zm360.7-63.9c0-4.9-.15-10.75-.35-13l-.3-4.15h3.55l.35 5.15c.2 2.8.4 8.6.4 12.85l.1 7.75-1.85.15-1.9.15v-8.9zm-276-.15v-3h3.5v6h-3.5v-3zm269.3-2.6c-.4-1.5-.4-6.1 0-7.1.2-.5.9-.8 2-.8 1.55 0 1.7.15 1.7 1.45 0 .75.15 2.8.3 4.5l.35 3.05h-2c-1.7 0-2.1-.2-2.35-1.1zM90 548.7c-3.4-.5-6.9-1.3-8-1.85-2.25-1.05-4.3-3.3-5.8-6.25-1.25-2.55-1.45-3.4-1.45-7.6 0-2.6.2-6.3.4-8.15l.45-3.4-6.05 3c-9.15 4.6-12.9 5.85-19 6.3l-4.3.35-1.95-2-1.9-2 .2-3.95c.2-4.3 1.55-7.65 6.1-15.15 1.25-2.05 2.15-3.8 2.05-3.9-.1-.1-3.85.95-8.35 2.3-9.25 2.85-12.75 3.6-17.1 3.6-8.9-.05-12.6-6.6-9.55-17 1.8-6.35 6.7-16 10.9-21.45 4.35-5.7 14.5-14.8 19.3-17.3 2.7-1.4 1.65-.05-1.85 2.25-1.85 1.2-6.25 5.15-9.85 8.75-5.4 5.4-7.05 7.5-9.75 12-1.8 3.05-4.3 8.15-5.65 11.45-2.1 5.3-2.4 6.35-2.45 10.25-.15 6.8 1.7 8.9 8.25 9.4 4.55.3 8.55-.5 19.7-4.15 4.8-1.55 8.8-2.7 9-2.55.4.45-.7 2.9-3.6 8.1-3.9 6.95-5.3 10.45-5.4 13.4-.1 5.95 3.75 7.3 12.55 4.4 4.15-1.35 6.05-2.2 15.55-6.65 2.8-1.3 4.35-1.8 4.7-1.45.35.35.3 1.9-.05 4.65-1.35 9.4-.5 14.8 2.75 18.15 3.05 3.1 7.05 4.1 18.4 4.5 4.65.2 8.6.4 8.7.55.15.1 0 .45-.3.75-.55.55-13.85 1.05-16.65.65zm303.5-3.7c0-.85-.3-2.3-.7-3.25-.4-.95-.9-2.8-1.1-4.1-.2-1.3-.7-2.9-1.1-3.55-.85-1.3-2.1-6.15-2.1-8.25 0-1.35.1-1.4 2.1-1.25 2.35.15 2.3.05 3.45 5.65.35 1.65 1.2 4.45 1.85 6.25.65 1.8 1.3 4.75 1.45 6.65l.3 3.35h-2.1c-1.95 0-2.05-.05-2.05-1.5zm4.15-11.65c-1.6-6.25-2.6-9.25-4-12.35-.45-.95-.9-2.8-1.05-4.1l-.25-2.4h2.05c1.9 0 2.05.1 2.65 1.9.3 1 .75 2.1.95 2.35.2.3.65 1.65 1 3 .35 1.4.85 2.7 1.05 3 .25.25.45 1.45.45 2.7 0 1.3.3 2.55.75 3.05.75.8 1.75 5.4 1.75 7.9 0 .95-.25 1.1-1.85 1.1h-1.9l-1.6-6.15zm7.65.05c-.1-.65-.45-2.6-.75-4.4-.3-1.8-.75-4.25-1-5.5-.3-1.25-.5-3.3-.55-4.6v-2.4h1.75c1.55 0 1.75.15 2.2 1.9.3 1 .55 2.4.55 3.1 0 .7.3 2.15.7 3.25.35 1.1.85 3.75 1.05 5.9l.35 3.85h-2.05c-1.7 0-2.05-.2-2.25-1.1zM146 526.9c.05-.9.35-2.9.7-4.4.6-2.65.65-2.75 2.45-2.9l1.85-.15V522c0 1.35-.3 3.4-.6 4.5-.6 1.85-.75 2-2.5 2-1.8 0-1.9-.1-1.9-1.6zm9.5-4.25c0-1.05.4-2.95.85-4.25.8-2.2 1-2.4 2.5-2.4 1.6 0 1.65.05 1.65 2.25 0 1.2-.35 3.15-.8 4.25-.7 1.8-1 2-2.5 2-1.65 0-1.7-.1-1.7-1.85zM411 521v-2.5h3.5v5H411V521zm-26-1.75c0-1.65.1-1.75 1.75-1.75s1.75.1 1.75 1.75-.1 1.75-1.75 1.75-1.75-.1-1.75-1.75zm-236.8-3.85c1-7.3 1-6.75-.25-7.05-.65-.2-2.35-.35-3.75-.35s-3.4-.35-4.35-.75c-1-.4-2.6-.75-3.6-.75-1.7 0-1.75-.05-1.75-2.05v-2.1l4.15.35c2.25.2 5.6.45 7.4.6 4.1.35 12.55-.9 15.95-2.35 1.3-.55 3.05-.95 3.8-.85 1.35.15 1.45.3 1.45 2.15 0 1.8-.2 2.1-1.75 2.85-.95.45-3.75 1.15-6.25 1.55-5.3.9-5.95 1.5-6.4 5.75-.5 4.45-1.15 5.6-3.25 5.6h-1.75l.35-2.6zm261.4-2.3c-.35-1.6-.6-4.2-.6-5.75v-2.85h1.7c2.15 0 2.3.45 2.65 6.65l.3 4.85h-1.75c-1.65 0-1.7-.05-2.3-2.9zm-19.35-.1c-.2-.3-.45-1.75-.6-3.25l-.3-2.75h1.8c2.2 0 2.85.95 2.85 4.2 0 2.3 0 2.3-1.7 2.3-.95 0-1.9-.25-2.05-.5z"/>
    <path d="M140.1 510.9l.15-2.15 2.15-.15 2.15-.15-.15 2.15-.15 2.15-2.15.15-2.15.15.15-2.15zm240.25-7.95c-2.95-.2-5.75-.65-6.1-.95-.4-.35-.75-1.35-.75-2.25v-1.65l9.15-.25c11.9-.3 15.6-1.2 23.35-5.8 1.85-1.05 4.3-2.05 5.65-2.25l2.35-.35v1.7c0 1.1-.3 1.85-.75 2.05-.4.15-1 .8-1.3 1.5-.3.65-1.4 1.55-2.4 1.95-1 .4-3.25 1.35-5 2.1-2.8 1.1-5.9 2.05-14.55 4.25-1.95.5-1.95.5-9.65-.05zm-219.25-44.9c-5.25-2-5.95-2.35-5.5-2.8.15-.15 1.7.25 3.45.9 1.75.65 4.7 1.6 6.55 2.1 1.85.5 3.25 1.1 3.1 1.3-.5.8-2.4.4-7.6-1.5zm214.15 1.45c-.2-.3.25-.5 1-.5 1.1 0 3.85-.5 11.9-2.15.25-.05.55.15.7.45.4 1.1-12.95 3.3-13.6 2.2zm-146.5-49.8c-2.2-.45-4.1-.85-4.2-1-.6-.6.75-.6 5.45.1 6.4.9 11.35.6 16.8-1.1 4.4-1.35 4.9-1.4 4.45-.7-.15.25-2.15 1.05-4.4 1.8-5.15 1.6-12.25 2-18.1.9zm-123.95-2.55c-.15-1.05-.5-7.85-.8-15.15-.6-15.2-.95-20.5-1.4-20.5-.2.05-1 1-1.85 2.15-3.6 5.15-7.7 11.1-12 17.65-4.45 6.65-6.25 8.95-6.25 7.85 0-.9 6.45-11.2 13.1-20.9 3.6-5.2 6.65-9.8 6.75-10.15.3-.7-2.95-.6-10.6.45-1.9.25-5.15.6-7.1.8-5.1.4-4.75-.55.5-1.3 2.25-.35 5.45-.8 7.1-1.05 1.65-.25 4.4-.6 6.15-.75 1.7-.2 3.2-.55 3.35-.8.15-.25-1.75-2.6-4.25-5.3-2.45-2.7-7-7.55-10-10.8-5.5-6-8.75-10.25-8.2-10.8.2-.15 1.8 1.4 3.65 3.45 6.25 7.05 19.15 20.5 19.6 20.5.5 0 .2-25.7-.35-32.35-.1-1.75-.05-3.15.2-3.15.45 0 .65 3.4 1.6 26.4.2 5.9.5 10.8.65 10.9.3.3 3.9-4.75 10.3-14.3 5.75-8.5 12.05-17.35 12.9-18.05 1.35-1.15 1.25.05-.35 2.85-.9 1.6-4 6.35-6.95 10.55-2.9 4.25-7.15 10.4-9.4 13.7-2.25 3.25-3.9 5.95-3.7 5.95.25 0 5.3-.8 11.25-1.75 11.75-1.95 16.35-2.3 16.65-1.45.1.3-.2.7-.65.9-.85.35-19.75 3.55-24.05 4.1-1.45.2-2.65.5-2.65.7 0 .25 2.2 2.85 4.9 5.85 4.7 5.2 14.7 16.9 17 19.85.6.8 1.1 1.75 1.1 2.15 0 1.45-2.05-.5-8.8-8.45-8.2-9.7-16.75-19-17.1-18.65-.35.35-.2 8.35.45 25.4.4 10 .45 14.55.1 14.9-.4.4-.65-.05-.85-1.4zm172.7-3.6c-3-.95-5.2-2-4.85-2.35.1-.1 1.95.35 4.15 1.1 3.1 1 5.3 1.3 10.45 1.5 3.55.15 6.6.35 6.7.5.1.1-2.9.2-6.75.15-5.1-.05-7.7-.25-9.7-.9zm176.75-1.7c-4.3-1.95-6.05-5.05-5.6-9.7.55-5.05 3.55-8.55 8.45-9.85 6.8-1.75 13.1 2.1 13 7.95-.1 5.25-1.95 8.4-6.15 10.55-3 1.5-7.6 2-9.7 1.05zm6.5-2.4c4.1-1.15 6.55-4.15 7.1-8.9.25-2.05.1-2.55-1.1-3.95-3.85-4.6-13.35-2.65-15.25 3.2-1.45 4.3-.35 7.6 3.05 9.3 1.95 1.05 3.4 1.1 6.2.35zM263.7 389c.5-6.6.85-9 1.35-8.7 1.1.65.15 11.75-1.1 12.95-.45.35-.5-.8-.25-4.25zm-59.3-9.5c-2.5-3-2.9-4-1.7-4 .7 0 4.8 5.65 4.8 6.55 0 .95-.85.25-3.1-2.55zm129.85-2.85c.45-1.9 2.65-5.65 3.3-5.65.65 0 .15 1.65-1.45 4.65-1.4 2.6-2.4 3.15-1.85 1zM189 365.8c0-1.65 2.55-12.8 3.75-16.25 1.5-4.5 4.45-9.85 5.75-10.55 1.35-.7 1.3-.45-.75 3.4-2.1 3.9-3.2 7.45-5.45 16.95-1.25 5.25-1.8 6.95-2.45 7.05-.5.1-.85-.15-.85-.6zm9.5-2.65c.05-6.95 6.95-23.65 9.85-23.65.45 0 .2.9-.85 3-2.2 4.3-3.95 9.35-5.7 16.25-1.2 4.55-1.75 6.05-2.45 6.15-.7.15-.85-.2-.85-1.75zM337.3 348c-3.3-6.35-6.05-10.6-9.45-14.4-1.6-1.7-2.85-3.25-2.85-3.35 0-.15.45-.25 1-.25 1.5 0 7.05 5.55 9.3 9.3 2.75 4.65 4.8 9.9 4.6 11.85-.15 1.45-.35 1.2-2.6-3.15zm12.45 2.5c-.15-.25-1.85-3.65-3.8-7.55-4-8.05-6.65-12.2-9.85-15.3-1.8-1.7-2.05-2.15-1.3-2.15 1.95 0 4.8 2.6 7.75 7.15 5.4 8.2 9.85 18.35 8.05 18.35-.3 0-.7-.2-.85-.5zm-85.15-10.85l.15-9.9h4l.15 8.75c.15 10.95.15 11-2.4 11h-2l.1-9.85zM245 325.7c0-.4.25-.6.5-.45.35.2.4-1.2.2-4.1-.2-3.2-.15-4.2.25-3.65.3.4.55 1.5.55 2.4 0 .85.15 1.6.4 1.6.2 0 .3.9.2 2-.15 1.25 0 2 .35 2 .3 0 .55.25.55.5 0 .3-.65.5-1.5.5-1.05 0-1.5-.25-1.5-.8zm3.85-3.8c-.15-.9-.05-1.85.2-2.1.25-.3.45-1.15.45-1.9s.25-1.4.5-1.4c.6 0 .6.75.2 4.4-.4 2.95-.95 3.4-1.35 1zm35.35-.55c-.9-1.95 0-6.05 1-4.45.45.75.5 5.3.05 5.45-.3.05-.75-.4-1.05-1zm4.05-2.3c.2-1.1.75-2.85 1.3-3.9l.95-1.85v2.35c0 1.3-.2 2.35-.45 2.35s-.55.7-.7 1.5c-.5 2.35-1.5 1.9-1.1-.45zm189.05-6.8c-10.75-5.65-16.95-7.45-25.55-7.5-6.75 0-12.05 1.05-18.85 3.8-2.75 1.1-5.15 1.9-5.3 1.7-.15-.15 1.05-1.55 2.75-3.15 5.3-5 11.7-12.25 13.05-14.85 1.75-3.5 1.75-6.8-.05-8.6-1.15-1.15-1.65-1.3-4.5-1.25-8.3.15-18.4 3.7-30.1 10.55-1.9 1.15-3.65 2.05-3.85 2.05-1.05 0-.1-1.8 3.15-5.95 4.85-6.3 9.25-13.25 10.5-16.55.7-1.8 1.05-4 1.1-6.4 0-3.15-.15-3.8-1.2-4.9-1.7-1.9-3.95-2.7-7.5-2.7-4.1 0-7.6 1.1-14.2 4.4-6 3-10.4 6.1-16.4 11.6-2.2 1.95-4.05 3.45-4.2 3.35-.5-.5.9-2.25 4.3-5.5 11.05-10.4 24.25-16.7 32.85-15.6 2.55.3 3.2.65 5 2.45 5.25 5.25 3.75 12.95-4.95 25.3-2.05 2.9-3.55 5.3-3.35 5.4.2.05 2.45-.95 5.05-2.25 9.95-5.1 22.4-7.9 27.65-6.15 3.7 1.2 4.45 5.45 1.95 11.05-1.1 2.4-2.8 4.6-6.4 8.45-2.7 2.85-4.65 5.3-4.35 5.4.3.1 2-.3 3.85-.85 1.8-.55 5.75-1.3 8.75-1.65 6.55-.7 14.25 0 19.75 1.85 3.75 1.25 16 7.3 17.25 8.55 1.55 1.5-.95.7-6.2-2.05zM267.05 301.4c.1-5.6.15-6.55.45-4.4.6 4.15.6 11.5 0 11.5-.3 0-.45-2.65-.45-7.1zm-5.55-12.3c-1.55-1.25-1.95-5.55-.8-8.3.95-2.3.8-2.65-1.25-2.7-1.2-.05-1.95-.45-2.8-1.55-.7-.85-1.6-1.55-2.1-1.55-1.35 0-2.55-1.65-2.55-3.45 0-1.4-.15-1.6-.85-1.3-5.1 2.1-8.75 2-10.85-.3-1.3-1.45-1.4-1.85-1.2-4.7l.2-3.15-2.5-.25c-3.8-.35-5.3-3.15-3.85-7.05.45-1.1.35-1.25-1-1.55-1.9-.45-2.95-1.5-2.95-3.05 0-1.1-.2-1.2-2.15-1.2-5.35 0-7.15-4.9-4.05-11.1.65-1.3 1.2-2.6 1.2-2.85 0-.3-.95-.75-2.1-1.05-5.65-1.45-8.6-3.9-9.15-7.65-.4-2.75.5-5.05 3.2-8l2.05-2.2-1.55-1.45c-7.85-7.55-6.7-19.65 2.3-23.95 2.75-1.3 2.75-1.3 2.75-3.6 0-3.5.95-6 3.35-8.7l2.2-2.4-.55-3.05c-.4-2.2-.4-3.85 0-6.1.7-3.75.85-4.05 3.7-7.4 1.7-2 2.4-3.35 2.85-5.45.8-4 2.35-7.95 4.1-10.5l1.5-2.2-.8-3.15c-1.1-4.1-1.05-6.9.15-10.9 1.4-4.45 3.6-7.2 7.45-9.15 2.65-1.4 3.65-1.65 6.6-1.65 2.45 0 4.05.3 5.4.95 2.25 1.15 4.9 4.05 5.85 6.4.65 1.45.85 1.6 1.75 1.15 1.7-.95 3.75-.1 5.65 2.25 1.1 1.3 2.4 2.3 3.3 2.5 2.1.45 6.95 3.7 9.1 6.15 1.05 1.15 2.55 3.3 3.4 4.8 1.55 2.7 3.75 5.3 4.55 5.3.25 0 1 .9 1.75 1.95 1.15 1.75 1.3 2.45 1.2 5.65-.15 4.9-.2 4.7 1.45 5.4 3.9 1.6 4.7 4.75 2.4 9.3-.7 1.45-1.15 2.7-1 2.9.2.15 1.2.3 2.25.3 2.25 0 4.65 1.1 5.4 2.45 1.3 2.45.35 6.85-2.05 10-1.3 1.65-1.2 1.95.7 1.7 5.4-.75 9.35-.05 11.35 1.9 3.05 3.1 3.2 8.35.35 14.1-1.6 3.25-1.65 3.55-1.05 5.25 1.25 3.5.85 5.15-2.5 9.85-1.1 1.55-1.25 1.25 2.25 3.8 1 .65 1.1 1.25 1.1 4.5 0 4.2-.5 5.55-3.7 9.1l-2.1 2.45 1.3 2.7c1.6 3.3 1.7 5.2.3 8.05-1.4 2.85-4.55 5.05-8.05 5.55l-2.65.35-.1 3.25c-.2 5.15-.6 6.45-2.45 8.5-1.25 1.35-2.3 2-3.65 2.25-1.8.3-2.05.55-3.2 3.15-1.45 3.35-3.6 5.55-6.45 6.6-2.35.85-2.55 1.2-3.65 5.2-1 3.6-2.55 5.3-4.95 5.3-1.3 0-2-.35-2.95-1.45l-1.2-1.45-1.95 2c-3.35 3.4-5.65 4.15-7.7 2.5zm-6-32.9c0-2-6.15-7.65-8.35-7.7-.85 0-1.75.25-1.9.5-.2.3.45.5 1.65.5 1.55 0 2.1.3 3 1.5.6.8 1.75 1.8 2.55 2.25.9.45 1.75 1.45 2.1 2.5.8 2.1.95 2.2.95.45zm22.05-3.15c.5-1.45.6-1.5 3-1.2 2.35.3 2.55.2 4.75-1.85 2.25-2.05 2.4-2.1 5.1-1.9 2.4.2 2.65.15 1.85-.45-.55-.35-1.9-.65-3.05-.65-1.75 0-2.55.35-4.45 2-2.1 1.8-2.5 1.95-4.3 1.7-2.3-.4-3.95.7-3.95 2.65 0 1.6.45 1.45 1.05-.3zM267.5 236.1c0-.95-3.45-2.3-6.5-2.55-2.95-.3-3.3-.45-4.25-1.9-1.1-1.75-3.25-2.8-4.95-2.35-1.05.25-1.1.1-1.1-3.15.05-5.75-2.25-8.8-6.55-8.8-2.2 0-4.65.95-4.65 1.8 0 .25.4.3.9.1 2-.85 4.95-.85 6.5-.05 2.5 1.3 3.3 3.35 2.95 7.65l-.25 3.65 2.4-.3 2.45-.3 1.4 2.25 1.4 2.25 3.6.2c2.6.1 3.9.4 4.5 1.05.9.9 2.15 1.15 2.15.45zm36.2-13c.9-2.55.9-2.7 0-6.65-.65-2.8-1.2-4.2-1.85-4.55-1.2-.65-1.75-.1-.7.75.45.3 1.15 2.1 1.55 3.95.75 3.15.7 3.55-.15 6.4-1.2 3.8-.25 3.85 1.15.1zm-17.7-4.6c-.3-.95-.5-2.8-.5-4.15 0-2.75 1.4-4.6 3.85-5.1 2.7-.6 2.65-.5 2.3-3.95-.25-3-.2-3.3 1-4.5.85-.85 1.85-1.3 2.95-1.3 1.15 0 1.45-.15.95-.45-.95-.6-3.5.2-4.8 1.45-.8.85-1 1.6-.9 4.25.05 2-.1 3.25-.4 3.25-.3 0-1.35.4-2.3.85-2.3 1.1-3.65 3.35-3.65 6.15 0 2.85.95 6.25 1.55 5.65.25-.25.25-1.15-.05-2.15zm-53.55-9.65c.85-1.1 2.75-1.45 4.35-.85 1.25.5 1.55.35 3.4-1.45 2.8-2.7 4.05-2.95 7.35-1.25 1.7.85 2.45 1.05 2.05.55-.4-.45-1.65-1.25-2.8-1.85-2.55-1.2-3.9-.9-6.7 1.55-1.5 1.35-2.05 1.5-3.75 1.3-2.6-.35-4.75.7-5.15 2.55-.15.75-.4 1.65-.5 2-.1.4-.05.95.15 1.25.2.35.5-.2.7-1.25.15-1 .55-2.15.9-2.55zm51-17.55c.7-.7 1.05-1.45.85-1.65-.2-.25-.85.2-1.4 1-1.15 1.6-3.25 1.8-5.2.5-1.05-.65-1.55-.7-3.05-.25-2.1.65-3.65.05-3.65-1.4 0-.5-.25-1.1-.55-1.25-1.15-.75-.15 2.45 1.05 3.35 1.05.75 1.55.8 3 .4 1.3-.35 2.1-.35 3.25.2 3.15 1.45 3.6 1.35 5.7-.9zm-43.3-5.25c5.65-1.55 7.85-4.4 7.85-10.2 0-2.7.15-3.35 1.2-4.3 3.05-2.85 3.4-6.25 1.05-9.35l-1.25-1.65 1.25-1.85c1.6-2.35 2-4 1.45-5.6-.5-1.5-3.25-3.25-4.55-3-.65.15-.4.45.95 1 1 .45 2.2 1.4 2.7 2.15 1 1.5.6 2.7-1.9 5.9-1.25 1.55-1.4 2.05-.85 2.4.4.25.85.45 1 .45.6 0 1.95 3.35 1.95 4.7 0 .85-.75 2.15-2.1 3.6-2.1 2.3-2.15 2.35-1.95 5.5.25 5.55-1.7 7.7-8.95 9.75-1.25.35-2.45.8-2.7 1.05-.8.65 1.2.45 4.85-.55zm43.5-14.25c1.3-.5 1.95-1.4 3.3-4.25 2-4.4 1.7-5.3-.4-1.15-1.35 2.7-3.5 5.1-4.6 5.1-.25 0-1.15-.65-2.05-1.45-1.6-1.45-1.65-1.45-3.55-.7-2.5 1-4.25.3-4.65-1.85-.2-.8-.5-1.5-.75-1.5-1.2 0 .55 3.7 2.1 4.5.8.45 1.5.4 2.95-.2 1.9-.75 1.95-.75 3.8.7 2.15 1.75 1.8 1.7 3.85.8zm-9.15-29c-1.15-1.9-2.45-2.55-3.95-2.05-.65.2-1.45-.15-2.35-1-1.45-1.35-2.25-1.5-3.75-.75-1.4.8-1.2 1.6.3.9 1-.45 1.45-.35 2.6.4.75.5 2.3 1.05 3.4 1.2 1.65.2 2.2.6 3.25 2.15 1.5 2.35 2 1.55.5-.85zm118 62.35c0-2.55-1.05-25.9-1.3-28.5-.15-1.75-.45-3.15-.65-3.15-.25 0-1.3 1.1-2.35 2.45-3.9 4.9-19.8 23.05-20.85 23.8-1.95 1.4-1.5.3 1.45-3.3 1.65-1.95 3.65-4.35 4.45-5.4.85-1 4.6-5.5 8.4-10 9.85-11.55 10.7-13 7.55-12.65-1.65.2-15.25 2.85-17.3 3.35-1.75.45-1.85-.4-.15-1.15.7-.35 4.85-1.3 9.15-2.15 4.3-.85 8.25-1.7 8.75-1.9.75-.3-.85-2.15-8.75-10.25-5.3-5.45-9.75-10.15-9.85-10.45-.25-.8 3 2.2 12.3 11.35l7.6 7.5-.25-16.5c-.2-11.65-.1-16.2.25-15.6.45.7 1.5 22 1.55 30.8 0 1.75.2 2.6.65 2.6.8 0 5.35-4.7 15-15.55 8.4-9.45 11.15-12.15 11.9-11.65.7.4-.9 2.4-11 13.85-10.05 11.35-10.4 11.85-9.4 11.85.4 0 4.75-.8 9.65-1.75 8.1-1.6 17.35-3.25 18.35-3.25.85 0 .25 1.55-.75 2-.65.25-5.55 1.25-10.9 2.25-17.4 3.25-20.2 3.9-20.4 4.85-.15.85 2.95 4.3 19 20.75 8.35 8.6 10.25 10.9 7.95 9.65-.55-.25-7.1-6.8-14.6-14.5-7.55-7.7-13.95-14-14.3-14-.8 0-.8 2.9-.15 19.75.45 11.8.3 15.75-.55 15.75-.25 0-.45-.35-.45-.85zm-262.4-1.5c-2.5-1.2-4.5-3.8-4.85-6.35-.7-4.4 2.1-10.15 5.9-12.15 1.05-.55 2.85-.85 5.1-.85 4.3-.05 7.5 1.45 8.85 4.2 1.1 2.15 1.2 7.35.2 9.65-.85 2.15-4.25 5.05-6.75 5.75-2.7.85-6.5.7-8.45-.25zm9.35-3.05c2.95-1.8 4.3-4.45 4.3-8.25-.05-2.5-.2-3.05-1.55-4.4-1.8-1.8-4.45-2.3-7.5-1.5-3.9 1.05-6.4 4.2-7 8.65-.3 2.55.9 4.85 3.4 6.45 2.15 1.3 5.3.95 8.35-.95zm78.4-65.95c-1.85-.5-.4-1.35 3.65-2.25 2.3-.5 4.3-.75 4.45-.6.55.5-.8 1.9-2.5 2.5-1.75.65-3.95.75-5.6.35zm73.4-11.6c.3-.25 1.5-.65 2.7-.85 1.75-.3 2.15-.2 1.95.35-.15.45-1.15.75-2.7.85-1.65.1-2.3 0-1.95-.35zM203 31.95c-4.1-3.7-4.35-3.95-3.55-3.95.6 0 8.45 7.45 7.95 7.5-.2 0-2.15-1.6-4.4-3.55zm91.5.15c0-.45 7.5-4.3 7.75-4 .15.1-1.6 1.15-3.75 2.3-2.2 1.15-4 1.9-4 1.7zm-90.8-3.35c-1.9-1.85-3-3.05-2.45-2.8 1.5.8 7.1 6 6.45 6.05-.35 0-2.15-1.45-4-3.25zm2.65-2.8c-3.9-3.85-2.85-3.35 1.9.95 1.65 1.4 2.7 2.6 2.35 2.6-.35 0-2.25-1.6-4.25-3.55zm87.15 2.85c0-.4 6.05-4.4 6.3-4.2.1.15-1 1.05-2.4 2-3.25 2.15-3.9 2.55-3.9 2.2zm-3.8-2.2c.5-.85 6.85-5.2 7.1-4.95.15.15-.9 1.15-2.4 2.2-3 2.25-5.15 3.5-4.7 2.75z"/>
  </g>
  <g fill="#772030">
    <path d="M404.5 620.4c-3-2.9-6.8-6.15-9.8-8.35-1.95-1.4-9.2-9-13.2-13.8-3.65-4.4-5.3-8.7-4.1-10.6.95-1.5 7.25 2.4 16.6 10.3.95.8 2.55 2.1 3.5 2.85 2.1 1.7 5.05 4.4 11.7 10.75 6.15 5.85 9.35 8.25 11.9 9.05 1.05.3 1.9.7 1.9.9 0 .2-3.1.5-6.85.65-3.8.2-7.35.45-7.9.65-.75.2-1.75-.45-3.75-2.4zm-292.55-5.25c-1-.1-2.2-.6-2.7-1.15-.75-.85-.7-1 1.85-3.3 1.45-1.35 4.45-4.15 6.65-6.25 15.2-14.35 21.6-19.25 27.1-20.65 5.8-1.5 13.3-.5 12.6 1.65-.15.35-.7.25-1.7-.25-.8-.45-3.1-.95-5.1-1.1-3.35-.2-3.85-.1-7.35 1.55-6.2 2.95-13.1 8.45-25.4 20.35-6.75 6.45-8.4 8.5-6.85 8.5 1.05 0 2.85-1.3 9.7-7 9.65-8.05 21-16.6 24-18.1 3.7-1.85 7.1-2.6 10.3-2.2 2.85.35 3.35.9 4.45 4.45 1.45 4.65-3.95 10.9-15.35 17.75-4.75 2.8-9.45 4.5-14.65 5.1-4.25.55-15.25.95-17.55.65zm311.7-.95c-.9-.45-1.65-1-1.65-1.25s-.3-.45-.65-.45c-.3 0-1.6-.9-2.8-2-1.2-1.1-2.35-2-2.6-2-.2 0-.7-.4-1.05-.9-.35-.5-1.95-1.9-3.5-3.2-1.55-1.25-2.7-2.4-2.55-2.6.2-.15 0-.3-.4-.3-.85-.05-7.45-6.2-7.45-6.95 0-1.1 1-.45 4.65 2.85 2 1.85 5.1 4.6 6.9 6.15 1.75 1.55 4.55 4 6.2 5.45 3.2 2.8 7.2 5 9.2 5 .75 0 2-.8 3.35-2.15 1.75-1.8 2.2-2 2.35-1.25.15.6-.45 1.45-1.9 2.65-1.75 1.4-2.6 1.75-4.35 1.75-1.2 0-2.9-.4-3.75-.8zm-25.5-21.3c-1.4-1.5-3.65-3.4-4.05-3.4-.2 0-1.25-.9-2.35-2-1.1-1.05-2.15-1.95-2.35-2-.2 0-1.2-.6-2.25-1.3-1.05-.7-2.4-1.5-3-1.75-1.6-.6-1.5-1.65.1-1.25 1.25.3 6.05 3.2 7.3 4.4.4.35 1.55 1.3 2.6 2.1 1.05.75 2.65 2.15 3.55 3.05.9.9 1.95 1.7 2.3 1.85.4.1.5.45.3.8-.5.85-1 .75-2.15-.5zM121 588.1c0-.35 1.1-3.95 2.45-8s2.6-8.25 2.8-9.35c.2-1.1.75-3.45 1.25-5.25.65-2.25 1-5.8 1.2-11.8.15-4.7.65-12.8 1.05-18 1.55-18.95 3.25-37.85 3.55-38.25.4-.65 1.25-.55 2.2.3 3.45 3.15 20.25 2.9 31.65-.5 3.4-1 4.4-1 4 .15-.15.45-3 7.25-6.3 15.1-10.15 24.2-16.35 40.6-16.35 43.25 0 1.2-1.65 1.65-10.2 2.85l-8 1.15-1.5 6.35c-.8 3.55-1.35 6.5-1.2 6.65.15.15 2.7.3 5.7.3 5.95 0 12.2-1.05 15.4-2.6 1.1-.5 2-.9 2.05-.8.05.05.25.8.45 1.6.2.85.15 1.25-.05.9-.3-.45-1.6-.25-5.1.65-4.65 1.2-12.75 1.75-17.25 1.2l-1.95-.25-1.6 5c-1.55 4.9-4.2 10.65-4.25 9.35zm11.35-36.95c-.15-.5-.25-.1-.25.85s.1 1.35.25.9c.1-.5.1-1.3 0-1.75zm16.85-26.95c.45-1.2.35-3.45-.15-2.9-.6.65-1.1 3.7-.6 3.7.25 0 .6-.35.75-.8zm9.75-5.95c0-.6-.4-.05-.95 1.25-1.25 2.9-1.2 4.35.05 1.75.5-1.1.9-2.45.9-3zm-7.7-6.75c.2-1.5.45-3.15.6-3.65.35-1.35 2.35-2.4 5-2.65 3.45-.35 6.75-1.15 8.05-2 1.9-1.25.75-1.7-1.6-.65-1.2.5-5 1.4-8.4 1.9-6.15.95-7.7.9-16.25-.25-1.85-.25-2.65-.15-2.65.25 0 .3.8.55 1.75.55 1 0 2.6.35 3.6.75.95.4 2.95.75 4.45.75 1.45 0 3.25.25 3.95.5 1.45.55 1.45.25.45 7-.2 1.3-.15 1.55.25 1 .3-.4.65-2 .8-3.5zm-8.35-.95c.15-.4-.05-.6-.45-.45-.35.1-.75.5-.85.85-.15.4.05.6.45.45.35-.1.75-.5.85-.85zm266.1 66.9c-4.05-.7-8.55-2.3-13.45-4.8-5.1-2.65-6.15-3.45-4.9-3.95.55-.2 1.75.35 3.35 1.5 5.65 4.1 11.2 5.9 18.65 6.2 6.7.25 6.3.6 4.9-4.65-1.65-5.95-1.55-5.75-3-5.75-.75 0-2.55-.3-4.1-.7-2.5-.65-4.5-1.5-12.35-5.1-1.45-.65-3.05-1.2-3.55-1.2-1.15 0-1.2-.15-2.8-7.2-2.3-10.2-3.75-14.1-8.1-21.35-5.3-8.8-6.85-12-8.9-18.1-1.85-5.5-3.9-16.4-3.65-19.3.2-2.1-.3-2.05 7.9-.8 6.95 1.05 12.2.8 19.6-.95 5.75-1.35 8.85-2.6 11.35-4.5.95-.7 1.95-1.3 2.15-1.3.65 0 1.45 2.5 1.65 5.25 1.4 17.35 1.85 26.3 3.5 70.25.15 4.05 1.3 10.7 2.3 13.35.25.65.45 1.75.45 2.45 0 1.2-.05 1.2-4.1 1.15-2.3-.05-5.4-.25-6.9-.5zm0-19.5c0-.5-.2-.95-.5-.95-.25 0-.5.6-.5 1.3 0 .7.2 1.15.5.95.3-.15.5-.75.5-1.3zm0-5.9c0-.55-.2-1.15-.5-1.3-.3-.2-.5.25-.5.95s.25 1.3.5 1.3c.3 0 .5-.45.5-.95zm-6.85-5.65c-.3-3.5-.45-3.9-.9-2.25-.4 1.5.05 4.85.7 4.85.2 0 .3-1.2.2-2.6zm6.2-3.25c-.1-1.05-.2-.3-.2 1.6 0 1.95.1 2.75.2 1.9.1-.9.1-2.5 0-3.5zm-12.55 0c-.4-2.15-2.35-8.15-2.65-8.15-.35 0 .45 3.65 1.2 5.35.35.9.65 2.3.65 3.15 0 .8.25 1.5.55 1.5.35 0 .45-.65.25-1.85zm5.15-7.75c-.25-1.4-.7-2.9-1.1-3.25-.5-.55-.5 0 .1 2.6.95 3.9 1.55 4.3 1 .65zm-8.55-4.4c-.85-3.9-1.15-4.65-1.75-4.85-.7-.25.25 4.35 1.3 6.25.9 1.7 1.05 1.2.45-1.4zm15.1-1c0-.8-.3-2.45-.7-3.6-.4-1.2-.8-3.25-1-4.55-.15-1.35-.55-2.8-.8-3.25-.7-1.1-.2 2.95.8 6.9.4 1.5.7 3.6.7 4.65 0 1.15.2 1.8.5 1.6.3-.15.5-.95.5-1.75zm-8.9-3.65c-.25-.35-.75-1.7-1.1-3.1-.35-1.35-.8-2.7-1-3-.2-.25-.65-1.35-.95-2.35-.35-1.05-.85-1.9-1.1-1.9-.55 0-.25 1.3.85 3.75.85 1.9 2.1 5.45 2.85 8 .55 1.9.6 1.9.75.6.1-.8-.05-1.7-.3-2zm13.2-15.4c-.35-3.8-1.25-6.45-1.3-3.75 0 1.7 1.1 7.3 1.4 7.3.15 0 .1-1.6-.1-3.55zm-19.3.15c0-.5-.35-1.35-.75-1.9-.7-.9-.75-.85-.45.55.5 2.35 1.2 3.1 1.2 1.35zm2.55-11.3c2.6-.7 6.2-1.85 8-2.55 1.75-.75 4-1.7 4.95-2.05 1.5-.65 4.15-3.75 3.1-3.65-.2 0-1.8.9-3.6 1.95-4.5 2.75-6.1 3.45-10.35 4.55-4.9 1.25-11.85 1.85-17.65 1.6-4.4-.2-4.7-.15-3.95.6.9.95 10.55 1.8 13.2 1.15.85-.15 3.65-.9 6.3-1.6zm-130.7-126.9c-.85-13.45-4.3-21.9-11.6-28.3-4.6-4.05-7-5.05-17.95-7.35-7.3-1.55-8.5-2.2-8.15-4.5.6-3.6 3.05-7.1 7.45-10.4l1.8-1.4 1.35 1.25c1.2 1.1 3.9 2.15 4.9 1.9.2-.05.8.1 1.35.4 2.4 1.3 8.55 1.6 19.75.95 4.7-.25 10.3-.7 12.5-1 2.2-.3 5.4-.6 7.05-.75 3.35-.2 8.85-1.75 11.85-3.25 1.85-.95 4.35-4.25 4.35-5.7 0-.4.25-.75.5-.75.3 0 .5.25.5.5 0 .3.4.5.9.5 1.25 0 3.5 2.5 6.55 7.2 3.95 6.1 3.9 7.35-.4 8.1-11.75 1.95-19.45 6.1-28.2 15.15-7.8 8.1-10.55 13.75-12.1 24.65-.45 3.1-.9 6.15-1.05 6.8-.5 2.45-1.05.85-1.35-4zm2.9-26c.5-2 .05-15.65-.5-15.55-.7.2-.95 16.65-.25 16.65.25 0 .6-.5.75-1.1z"/>
    <path d="M288 320c0-.95.55-1.3 1.15-.7.4.4-.15 1.7-.7 1.7-.25 0-.45-.45-.45-1z"/>
  </g>
</svg>
