<svg version="1.0" xmlns="http://www.w3.org/2000/svg" preserveAspectRatio="xMidYMid meet" viewBox="0 0 1252 1199">
  <g fill="#fff">
    <path d="M583 1197.5c-99.5-8-191.2-38.7-275-91.8-58.3-37-113.5-88.3-156.2-145.2-61.6-81.9-101.1-178.8-114.3-280-6.1-47-6.1-108.4 0-155.7C49.7 430.3 87 335.2 142.3 258c44.3-61.9 99.6-115.1 161.8-155.6C379.2 53.6 467 21.6 555 11.1c28.6-3.5 43.6-4.3 74-4.3 69.2-.1 129.7 9.8 193.5 31.5 108.1 36.9 203.3 104.2 275 194.7 54 68.1 93.9 150.8 113.1 234.3 33.8 146.9 11.5 300.4-62.3 430.1-94.6 166.1-263.1 277.2-451.8 298-34.5 3.8-81.4 4.7-113.5 2.1zm90.6-11.5c140.5-10.9 269.2-70.1 369.2-170 71.9-71.6 121.6-156.5 150.1-256 22.9-79.8 27.4-173.8 12.5-259-16.5-94-56.8-184.1-115.7-259-27.7-35.2-63.4-70.8-99.2-99.1-65.8-52-146.7-90.9-227.9-109.5-46.7-10.7-83.2-14.8-133.6-14.8-40.4 0-62.2 1.7-98.5 7.9C435.8 42.5 345 82.6 270 141.4c-114.5 89.7-191 216-216.4 357.3-10 55.3-11.8 117.8-5 174.8 11.2 94.4 47 187.7 102.3 266 31.6 44.7 73.9 89.2 117.1 123.2 66.8 52.5 145.4 90.3 228.1 109.8 24.3 5.7 60.8 11.3 86.9 13.4 15.2 1.2 75.5 1.3 90.6.1z"/>
    <path d="M612.6 991.2c-1.5-.3-1.6-5.2-1.6-53.6v-53.2l-12.7-1.2C523.9 876 467.1 833 437.4 761.3c-9.6-23-17.2-54.8-20.4-84.8-1.8-16.8-2.4-54.8-1.1-69.1 5.9-64 39-141.1 95.5-222.4 26.1-37.6 63.5-83.4 92.5-113.2 15.5-16.1 13.5-16.4 33.6 5.2 62.5 66.8 117.1 144.9 147.9 211.6 27.8 60.1 38.3 107.9 35.6 162.1-2.2 45.6-9.4 80.1-23.5 114-29.3 69.9-88.9 113.3-163.3 118.9l-9.2.7v106.5l-5.4.4c-2.9.1-6.1.2-7 0zM611 820v-51l-32.5-32.7c-31.3-31.5-32.6-32.9-32.3-36.3.4-4 4-6.7 7.9-5.7 1.3.4 14.3 12.5 29.3 27.7 14.9 14.8 27.1 27 27.3 27 .2 0 .3-13.4.3-29.8v-29.7L578.5 657c-27.9-27.9-32.5-32.9-32.5-35.4 0-3.9 2.6-6.6 6.4-6.6 2.6 0 6.6 3.5 30.8 27.7l27.8 27.8v-48.6c0-32 .4-49.7 1.1-51.7 1.7-4.8 8.9-6.1 11.5-2 .5.7 1.1 23.5 1.4 50.6l.5 49.4 26.6-26.6c22.6-22.6 27.1-26.6 29.5-26.6 1.6 0 3.4.4 4 .8 2.1 1.3 3.4 5 2.6 7.1-.4 1.2-14.8 16.3-32 33.6L625 687.9v60.6l27.3-27.3c24.4-24.4 27.7-27.3 30.2-27 3.7.4 7 4.7 6 7.9-.5 1.3-14.9 16.5-32.1 33.9L625 767.4v103.7l6.3-.6c29.7-2.8 47.8-7.6 68.8-18 58.5-29 95.1-89.6 105.4-174.5 2.3-18.8 3.1-54.5 1.6-69.5-8.1-80.2-59.4-180.3-144.6-282.5-21.4-25.6-42.6-49-44.4-49-2.1 0-32.7 34.6-54 61-74.7 92.5-119.8 178.9-132.8 254.5-2.5 14.7-2.8 18.1-2.7 41.5.1 79.4 21.4 142.8 62.2 185.3 30.5 31.6 68 48 118 51.5l2.2.2v-51z"/>
  </g>
</svg>
