<svg version="1.0" xmlns="http://www.w3.org/2000/svg" preserveAspectRatio="xMidYMid meet" viewBox="0 0 369 408">
  <path d="M56.3 330.8c-6.1-7-31.2-51.3-31.3-55.4 0-2.6 2.8-5.2 10.2-9.3 3.1-1.7 10.1-6.4 15.5-10.3 24.9-18.1 35.1-23.4 53.9-27.8 7-1.7 14.8-4.2 17.3-5.6 5.6-3 20.1-16 20.1-18 0-.8.6-1.4 1.3-1.4.6 0 9.1-6.8 18.7-15l17.5-15.1.3 3.2c.2 1.8-.1 3.5-.7 3.9-1.4.8 4.3 9 6.3 9 .7 0 3.6-1.8 6.4-4 2.7-2.2 5.7-4 6.5-4 1.6 0 2.7-2.9 2.7-7.6 0-3.5 2.7-5.5 3.7-2.7.6 1.4.8 1.4 2-.3.7-1 1.3-2.8 1.3-4.1 0-1.9.5-2.3 3-2.3 2.2 0 2.8.4 2.4 1.5-.7 1.8 1.8 2 4.7.5 1.8-1 1.9-.7 1.9 5.3 0 4.4.6 7.5 2 10.2 1.2 2.2 1.9 4.8 1.6 5.7-.2 1 0 5.3.6 9.5.5 4.3 1.2 15.2 1.6 24.3l.7 16.5 5.1-10c2.9-5.5 6.8-14.5 8.9-20 2-5.5 4.7-11.8 6-14.1 3-5.1 10.6-12.1 14-13 2.7-.7 13 .2 14.6 1.2 1.7 1 1 7.2-1 8.6-1.7 1.2-2.5 3.4-3.4 9.8-.2.8-1 2.6-1.9 4-2 3-5.3 14.8-4.5 15.7.4.3 2.6-1.2 5.1-3.5 9.2-8.5 15.5-9.1 23-2.2l4 3.8-3 4.8c-1.6 2.7-5 6.3-7.4 8.2-6.2 4.6-41 38.9-40.3 39.6.4.3 3.4.6 6.7.6 3.4 0 7.9.5 10.1 1.1 4.2 1.2 10.5 7.1 10.5 10 0 1.7-2.8 4.6-3.9 4.2-.3-.2-1.9-.1-3.6.2-1.6.2-6.8.7-11.5 1-9 .6-27.4 2.9-35.2 4.3-2.9.6-7 2.6-11 5.4-3.5 2.4-10.1 6.7-14.8 9.5-4.7 2.8-9.6 6.4-11 7.9-4.3 4.6-11.1 8.4-15.2 8.4-2 0-8.6-.8-14.5-1.7-7.9-1.3-17.3-1.7-35.3-1.8-28.3 0-31 .5-47.9 8.5-5.7 2.8-10.4 5-10.6 5-.1 0-1.1-1-2.2-2.2zm133-80.8c6.8-7.9 6.8-8.1 8.8-18 1.8-9.5 3.8-36 2.7-36-.3 0-2.4 2.9-4.7 6.5-2.6 4-9.3 11.2-17.9 19.2C159.9 238.8 153 246 153 248c0 1.2 2.8 2.4 11.8 4.9 6.4 1.7 12.4 3.6 13.2 4.1 3 1.9 4.6.9 11.3-7zm36.7-98c0-2.5.4-3 2.5-3 1.9 0 2.3.4 1.8 1.8-1.7 4.8-4.3 5.5-4.3 1.2z" fill="#ffb091"/>
  <g fill="#333">
    <path d="M200.2 174.8c-.7-.7-1.2-2.5-1.2-4 0-3-.5-3.2-8.2-2.8-2.2.1-3.8-.3-3.8-.9 0-.6.5-1.1 1-1.1 1.8 0 1.1-2.9-1-4-1.1-.6-1.8-1.5-1.5-2 .3-.5-.4-3.3-1.5-6.2-2.2-5.8-2.5-8.5-1.1-10.7.7-1.1 2.5.3 8 5.8 6 6.3 7.1 7.9 7.7 11.9.6 4.3 3.1 9.8 4 8.9.8-.7-1.8-16.2-3.1-19.4-.8-1.8-3.2-5-5.4-7-5-4.7-8.6-11.5-10.2-19-1-4.9-.9-6.7.5-11.6.9-3.1 1.9-5.7 2.1-5.7.3 0 1.4 1.9 2.6 4.3 1.2 2.3 2.9 5.1 3.9 6.2 2.3 2.5 3.8 8 4.6 17.3.4 4 1.1 7.5 1.5 7.8.5.3.9 1.8.9 3.4 0 3.4 1.6 4.8 2.5 2.1.3-1.1 1.2-2.2 2-2.5.8-.3 1.5-1.2 1.5-1.9 0-.8.6-2 1.4-2.6.7-.6 1.9-3.3 2.5-5.9 2.9-11.6 4.4-15.4 8.6-21.8 2.5-3.7 4.5-7.5 4.5-8.4 0-.8.7-2.3 1.4-3.3 1.2-1.6 1.4-1.5 2.4 1 5.9 15.1 2.1 28.1-9.9 34.3-1.9 1-5 3.3-6.8 5.2-5.6 5.7-6.3 7.9-6.1 19.7.1 5.8.2 11.4.1 12.4-.1 2-2.1 2.3-3.9.5z"/>
    <path d="M208 166.3c.1-3.5 2.7-13.9 4.2-16.8 1.9-3.6 4.9-6.4 10.3-9.5 2.2-1.3 5.9-4.1 8.2-6.2 4.6-4.1 6.7-4.8 5.9-2-.2.9-1.2 4.6-2 8.1-2.3 9-5.3 13.4-13.3 19.4-3.8 2.8-7.7 6-8.7 7-1 .9-2.4 1.7-3.2 1.7-.8 0-1.4-.8-1.4-1.7zm-3.6-31.3c1.7-10 1.9-18 .4-20.2-2.4-3.8-4.8-11.9-4.8-16.5 0-2.4.9-6.1 2-8.3 1.1-2.2 2-4.8 2-5.9 0-1.1.5-2.3 1.1-2.7.6-.3 1.9-2.5 3-4.8l1.9-4.1-.5 3.7c-.3 2.1-.1 3.9.5 4.3.8.5.8 1 0 2-.8.9-.4 3.3 1.6 9 3.3 9.5 2.9 18-1 24.8-1.4 2.3-3.2 8-4.2 12.7-1.6 8.2-3.3 13.1-2 6z"/>
  </g>
  <path d="M51.3 296.8c-2.4-2.7-8.3-11.8-8.3-13 0-2.2 2.1-.1 6.4 6.4 4.7 7.3 5.8 10.8 1.9 6.6zm137.7 1.8c0-.3 4.4-5.9 9.8-12.3 19.5-23.5 21-26 22.7-38 .4-2.9 1.1-5.3 1.6-5.3 2.2 0-.1 13.1-3.6 20-2.8 5.4-27.1 35.4-29.1 35.8-.8.2-1.4.1-1.4-.2zm25-7.6c-1.9-1.2-.1-3.2 9.2-10.2 6.9-5.2 14.9-14.8 20-23.8 1.4-2.5 4.9-9.9 7.9-16.5 5.4-12.4 8.8-17.8 7.5-12-1.2 4.8-11.2 26.2-15.6 33.2-2.2 3.6-3.9 6.8-3.6 7 .6.7 14.6-12 26.6-24.1 5.7-5.8 11.2-10.6 12.2-10.6.9 0 2.2-.8 2.7-1.7.8-1.4 1-1.5 1.1-.3 0 1.6-35.3 37-37 37-2.6 0-28.1 19-29 21.5-.3 1-1 1.1-2 .5zm-55-7.5c0-5.9-5.5-22.4-7-20.8-.4.4-.2 6 .5 12.3.7 6.3 1.1 11.8.8 12.3-1.8 3-2.6-1.5-4-25.1-.3-6.5-1-10.1-1.6-9.9-.6.2-3.3 4.5-6 9.5-2.7 5.1-5.3 9-5.8 8.7-1.2-.8 6-14.9 11.4-22 5.3-7 45.9-46.5 47.9-46.5 1 0 .9-.3-.2-1-1.2-.8-1.2-1 .5-1 1.4 0 1.6-.3.7-.8-1-.7-.7-2.1 1.3-6.6 3.5-8 3.3-9.3-1-6l-3.5 2.6v-3.1c0-2.4.4-3.1 2-3.1 1.1 0 2-.6 2-1.3 0-1.6 3.6-4.7 5.5-4.7.8 0 1.5.6 1.5 1.3 0 2.4-3.1 13.1-4.1 14.3-.6.7-.8 1.8-.4 2.3 1.9 3.2-11.2 18.4-30 35.1-12.3 10.9-16.6 16.1-17.1 20.3-.5 4.2 5.7 20.1 8 20.5.9.2 5-1.3 9.2-3.3 4.2-2 7.7-3.5 7.8-3.3.1.2 0 4-.2 8.5-.4 8.8-2.2 10.6-2.2 2.2 0-3.2-.5-5.1-1.3-5.5-.7-.2-3.9.7-7.1 2.2l-5.9 2.7.6 6.1c.5 6.4.2 8.6-1.4 8.6-.5 0-.9-2.5-.9-5.5zm98 2.5c0-.5 1-1 2.3-1 3.5 0 10.8-2.5 11.6-3.9.6-.9 1.1-1 1.5-.2.4.6.1 1.9-.6 3-1 1.4-2.3 1.8-5.1 1.5-2-.2-3.7.1-3.7.6 0 .6-1.3 1-3 1-1.6 0-3-.4-3-1zM60 255.9c0-1.7 4-7.9 5.1-7.9 1.4 0 1.1 1.6-1.2 5.4-2.1 3.5-3.9 4.7-3.9 2.5zm12.1-2.2c-.1-2.3 4.2-10.9 6.3-12.7 3-2.4 2.7-.3-.9 5.6-5.5 9.3-5.4 9.2-5.4 7.1zm126.1-2c-.5-.6-1.7-2.6-2.6-4.4-2.5-5-.1-4.8 2.7.2 2.3 4.1 2.3 7.2-.1 4.2zM95 239.1c0-1.7 4.8-6.7 5.6-5.8.4.4-.1 1.9-1.2 3.4-2.2 2.9-4.4 4.1-4.4 2.4zm108-27.6c-.7-.9-1-1.9-.6-2.2.8-.9 3.8.9 4.4 2.5.5 1.7-2.3 1.5-3.8-.3zm-44.6-6.2c-3-4.1-4.6-7.3-3.6-7.3.9 0 7.2 8.3 7.2 9.4 0 1.4-1.8.4-3.6-2.1zm3.4-6.1c-2.6-3-3-4.2-1.5-4.2 1.8 0 5 4.7 3.8 5.4-.4.3-1.5-.2-2.3-1.2zm4.5-6.2c-.8-1.1-.9-2.1-.3-2.5.8-.5 3 2.4 3 3.9 0 1.3-1.6.5-2.7-1.4zm8-12c-.9-2.3-.8-3.2.3-4.1.8-.6 1.4-.8 1.4-.5 0 .4 1.1-.6 2.5-2.1l2.4-2.8.1 3.8c0 2-.4 3.7-1 3.7-.5 0-1.2 1.1-1.6 2.5-.8 3.4-2.7 3.2-4.1-.5z" fill="#e8866e"/>
  <path d="M270 283.6c0-.8.5-1.8 1-2.1.6-.3 1 .1 1 .9s-.4 1.8-1 2.1c-.5.3-1-.1-1-.9zm10.8-51.3c1.1-1.6 4.3-5 7.1-7.8 3.4-3.3 5.1-5.8 5.1-7.5 0-2.3.1-2.3 1.7-.8 1.5 1.6 1.4 2-1.3 6.5-2.6 4.3-11.6 12.3-13.7 12.3-.5 0 .1-1.2 1.1-2.7zM267 201.5c0-5 2.3-13 4.1-14.3 1.1-.7 1.9-2.4 1.9-3.8 0-2.9 1.5-3.1 3-.4 1.4 2.6-1 11.8-4.6 17.3-2.8 4.3-4.4 4.7-4.4 1.2zm-85.3-9.5c-1.4-1.1-3.4-3.5-4.5-5.3-2.2-3.5-3.3-10.2-1.7-10.2.6 0 2.7-1.8 4.7-4.1 2-2.2 6-5.3 8.8-6.8 4.3-2.3 5.6-2.6 7.6-1.8 4.9 2.3 9.3 13.1 6.6 16.7-1.8 2.5-12.4 10.7-15.5 12-3.2 1.3-3.7 1.3-6-.5zm39-4.7c-2.5-2.9-3.7-7-3.9-13.9-.1-4.7.2-6.8 1.2-7.4 2.4-1.5 4.3 2.8 5.3 12.2 1.1 9.6.4 12.3-2.6 9.1z" fill="#772030"/>
</svg>
