<svg version="1.0" xmlns="http://www.w3.org/2000/svg" preserveAspectRatio="xMidYMid meet" viewBox="0 0 1252 1199">
  <path d="M620.1 893.1c-.8-.5-1.7-3.1-2.2-5.7-.4-2.7-.8-32.2-.8-65.5l-.1-60.6-12.2-1.1c-57.8-5.4-104.7-27.2-142.4-66.4-44.5-46.2-70.4-118.2-73.3-203.8-.4-12.9-.4-30.9 0-40 3.9-79.8 47.9-181.2 123.4-284.1 30.8-42 61.5-79 92.5-111.4 13.9-14.5 15.8-16.2 19.5-17.1 2.6-.7 3.8.3 17.4 14.2 48.4 49.7 107.3 126.2 142.3 184.9C828.6 310.9 852 373.1 860 438c1.3 10.9 1.3 49-.1 67.8-6.3 88-36.9 158.4-87.9 202.4-34.2 29.5-74.4 46.3-123.2 51.5l-15.8 1.7v127.2l-2.8 2.7c-2.9 2.7-7.3 3.5-10.1 1.8zM617 686.3v-58.8L589.1 600c-39.4-38.9-48.1-48.3-48.1-52 0-3.9 3.2-7 7.1-7 3.6 0 5.9 2.1 46.2 42l22.7 22.5v-69.3l-34.6-34.9c-19.1-19.1-36.4-36.9-38.5-39.6-3.4-4.3-3.7-5-2.7-7.7.5-1.7 1.8-3.5 2.8-4 5-2.7 5.8-2.1 39.9 31.6l33 32.5.3-59.1.3-59.2 2.4-1.9c2.9-2.4 7.6-2.4 9.9-.1 1.7 1.7 1.9 4.9 2.5 41.2.4 21.6.7 47.7.7 57.9v18.5l31.3-31.2c29.2-29 31.6-31.2 34.9-31.2 6.2 0 9.3 5.9 5.9 11.3-1.1 1.7-17.8 18.9-37.1 38.2l-35 35v69.9l30.8-30.5c16.9-16.7 31.9-31.1 33.4-31.8 2.4-1.2 3-1.2 5.3.3 1.4.9 3 2.9 3.6 4.3.8 2.1.5 3.2-1.5 6.2-1.4 2-18.1 19.1-37.1 38.1L633 624.5v120.8l10.8-.6c13.1-.8 36.4-5.5 51.5-10.3 27.1-8.7 52-23.9 73.4-44.7 38.8-37.8 63.1-91.1 73.2-161.2 2.9-19.8 4.6-62.8 3.2-80.6-6.1-77.2-45.9-168-117.3-267.7-27.7-38.7-65.7-84.9-95.6-116.4l-7.4-7.7-7.7 8.2c-4.3 4.5-14.9 16.3-23.6 26.2-60.2 68.7-108.8 138.4-140.9 202.5-18.6 37.1-30.9 69.1-39 101.5-8.1 32.2-10.1 51.1-9.3 86.6 1.8 70.7 18.1 129.3 49.2 175.9 22.4 33.6 51.9 58 88.2 73 20.4 8.4 48.4 14.6 67.6 14.9l7.7.1v-58.7z" fill="#333"/>
</svg>
