<svg version="1.0" xmlns="http://www.w3.org/2000/svg" preserveAspectRatio="xMidYMid meet" viewBox="0 0 974 960">
  <path d="M480.4 900c-5.6-2.2-5.4.1-5.4-70.6v-65.1l-10.2-.6c-32.5-2.1-67.6-12.1-94.7-27.2-71.9-39.9-114.4-114.1-125.6-219.5-2.5-23.5-3-63.5-1.1-82 6.8-63.6 33-132.8 79.4-210C358.5 165.6 416 91.2 465.6 40.1c17.4-18 17-17.9 28-7 38.8 38.2 95.5 108.6 130.5 161.9 58.5 89 90.8 167.8 98.5 240.1 1.9 18.4 1.4 58.4-1.1 81.9-11.3 105.9-54.3 180.6-126.7 220-27.5 15-61.3 24.6-93.5 26.7l-10.3.6v130.6l-2.2 2.5c-2.7 2.9-5.5 3.8-8.4 2.6zM475 688.3v-59.8l-39-39c-35.4-35.5-39-39.4-39-42.3 0-2.3.8-4.1 2.6-5.7 2.9-2.7 5.3-3.1 8.7-1.4 1.2.6 16.7 15.6 34.5 33.2l32.2 32.2v-71l-39-39c-27.4-27.4-39-39.7-39-41.2 0-5.6 4.8-10.1 9.4-8.7 1.1.3 17.1 15.5 35.4 33.7l33.2 33.2v-59.2c0-33.4.4-60.2.9-61.6 1.1-2.8 6.1-5.2 9.1-4.2 1.1.4 3 1.6 4 2.8 1.9 2 2 3.8 2 60.6v58.6l31.3-31.2c17.1-17.1 32.2-31.6 33.4-32.2 5-2.5 10.8 1.6 10.6 7.6-.1 3.4-2.6 6.1-37.7 41.2L491 532.5v71l32.3-32.3c34.9-34.8 34.7-34.7 40.3-29.9 1.9 1.7 2.7 3.3 2.7 5.6 0 2.9-3.6 6.9-37.6 40.9L491 625.5v122.8l10.8-.6c24.4-1.4 56.8-10 78.3-20.7 70.4-35.2 113.5-107.7 125.5-211 2.1-18.4 3-61.4 1.5-76.3-5.1-52.5-25.3-111.6-58.9-172.9-38.1-69.5-89-139.1-152.1-208C489.2 51.2 483.3 45 483 45c-.3 0-6.2 6.2-13.2 13.8-68.7 75.1-127.5 157.6-163.5 229.7-26.4 52.7-42.9 105.4-47.4 151.3-1.5 14.8-.6 57.8 1.5 76.2 13 111.6 62.9 188.1 142.6 218.5 19.6 7.5 46.1 12.9 64.8 13.3l7.2.2v-59.7z" fill="#333"/>
</svg>
