<svg version="1.0" xmlns="http://www.w3.org/2000/svg" preserveAspectRatio="xMidYMid meet" viewBox="0 0 235 471">
  <g fill="#311a15">
    <path d="M139.7 364.15c-.85-.15-1.2-.8-1.65-3.05-.35-1.55-.85-3.85-1.15-5.1-1.3-5.95-1-26.5.6-35.5 1.75-10.3 1.85-9.4-1.7-13.75-2.9-3.55-6.4-6.85-11.55-10.85-4.25-3.35-13.95-9.9-14.55-9.9-.15 0-.9-.4-1.6-.95-1.25-.85-8.95-5.05-9.3-5.05-.1 0-.15 2.3-.15 5.15 0 8.95-2.45 13.9-18.15 36.1-4 5.7-7.25 10.75-10.6 16.65-2.4 4.35-8.8 13.4-11.8 16.8-1.5 1.7-1.6 1.75-2.95 1.05-.75-.4-1.9-.75-2.5-.75-1.7 0-7.15-1.5-10.1-2.8-3.15-1.4-8.8-5.35-9.2-6.45-.2-.4-.8-.75-1.4-.75-.8 0-.95-.2-.7-.85.2-.5.7-1.9 1.1-3.15 1.45-4.4 2.75-7.8 4.2-10.7.8-1.6 1.45-3.25 1.45-3.6 0-.4.25-.7.5-.7.3 0 .5-.3.5-.7 0-1.05 4.75-9.1 7.4-12.55 2.65-3.45 8.55-9.5 12.7-12.95 3.35-2.8 3.75-3.7 2.65-5.85-.85-1.6-5.55-6.45-6.3-6.45-.2 0-.7-.3-1.05-.65-.35-.35-2.8-1.85-5.4-3.35-17.9-10.2-29-20.55-35.1-32.75-4.05-8.1-5.95-18.8-4.9-28.25.65-6.2 1.35-8.7 3.5-13 4.2-8.35 10.45-13.75 24.15-20.9 10-5.25 11.9-6.6 14.65-10.3 2.25-3.1 2.5-3.3 5.15-3.85 1.55-.3 5.15-1.5 8.05-2.6 5.25-2.05 5.25-2.05 13.4-2.25 9.25-.25 10.8.05 16.6 2.9 7.4 3.7 13.05 9.85 18.25 19.8l2.35 4.55-1.6 2.7c-.85 1.5-2.45 4.15-3.55 5.9-2.9 4.7-2.9 4.85.05 8.85 4.2 5.55 11.65 12.55 25.8 24.2 2.15 1.8 6.2 5.45 8.95 8.15 4.8 4.65 6 5.4 7 4.4.75-.7 10.65 10.9 14.25 16.7.7 1.1.9 2.1.7 3.1-.25 1.15.2 2.4 1.95 5.7 4.1 7.6 4.25 8.35 4.65 28.45.2 9.75.4 26.3.4 36.8l.05 19.05-5.75 1.3c-3.15.75-7.1 1.55-8.7 1.85-2.85.45-17.35.6-19.6.15zm-39.2-158c0-.25-.35-.85-.75-1.35-.75-1-.75-1-.75 0 0 .6.15 1.2.35 1.35.45.45 1.15.45 1.15 0zm-89.25-10.5c-.25-.65.3-1.45 2.1-3 2.3-2.05 3.8-2.65 4.35-1.75.2.35-5.25 5.6-5.85 5.6-.15 0-.4-.4-.6-.85zm79.9-46c-2.8-.65-3.15-.85-3.15-1.95 0-.85-.4-1.35-1.3-1.7-1.1-.45-1.25-.75-1.1-2.35.15-1.8.25-1.9 2.1-2.05 2.75-.25 5.8 1.2 5.8 2.75 0 1.1.2 1.15 3 1.15h3v1.9c0 1.05-.25 2.15-.6 2.5-.75.75-3.85.7-7.75-.25zM151 141.9c-.3-.65-1.95-6-3.75-11.9-4.55-14.9-6.7-21.35-8.05-24.1-.65-1.3-1.2-2.7-1.2-3.15 0-.4-.2-.75-.5-.75-.25 0-.5-.2-.5-.45 0-.7-3.2-3.7-5.05-4.75-3.45-2-3.7-3.55-1.4-8.65 1.9-4.3 2.65-5.1 5.05-5.45 1.05-.2 2.05-.55 2.2-.75.15-.25 1.55-.45 3.2-.45 2.65 0 2.9.1 3.2 1.25.2.7 4.85 5.9 10.5 11.7 5.6 5.75 10.8 11.45 11.45 12.65 2.9 5 4.1 12 2.9 16.85-.25 1-.75 3-1.05 4.45-.75 3.3-2.6 6.65-4.55 8.35-.85.7-3.3 2.1-5.5 3.15-2.15 1-3.95 2.15-3.95 2.5 0 1.1-2.5.7-3-.5zm12.15-33.4c-.3-1.1-16.45-17.85-16.85-17.5-.1.15 2.4 2.95 5.6 6.25 3.2 3.3 7.05 7.45 8.55 9.15 1.5 1.7 2.75 3.1 2.85 3.1.05 0 0-.45-.15-1zm-81-9.2c.2-.5.35-2.1.35-3.55 0-2.3.25-2.95 1.75-4.85 3-3.7 4.75-7.05 4.75-8.95 0-1 .2-2.45.5-3.25.25-.8.6-6.3.7-12.2.35-13.6.8-17.35 3.05-23.75 2.65-7.65 10.3-14.45 17.55-15.65 12.05-2 23.55-2.35 27.4-.9 3.45 1.3 7 5.4 8.25 9.55.6 1.85 1.05 4.25 1.05 5.3 0 1.9-1.15 8.65-2 11.9-.3 1.05-.25 2.05 0 2.6.85 1.5.55 1.95-1.25 1.95-1.15 0-1.75-.25-1.75-.7 0-.5-.55-.6-2.25-.4l-2.25.25v-1.8c0-1.95 1.05-3.35 2.5-3.35.5 0 1.1-.25 1.25-.5.5-.8-.25-2.5-1.05-2.5-.4 0-.7-.5-.7-1.25 0-1.45-1.55-4.7-3.35-7.15-2-2.7-7.55-4.65-9.35-3.3-.55.4-1.45.7-2.05.7-1.5 0-5.9 3.45-9.6 7.45-2.7 3-3.15 3.7-3.15 5.4 0 1.05-.45 3.15-1 4.65-.85 2.25-.95 3.4-.7 6.4l.35 3.6h-6.65v1.8c0 1.15-.3 2.1-.85 2.5-1.4 1-.15 1.85 3.05 2.1l2.75.2-.1 3.6c-.05 4.5.75 6.1 4.7 9.15 2.75 2.15 3 2.5 2.85 4.1-.15 1.75-.25 1.8-2.25 1.95-1.65.1-2.15 0-2.15-.6 0-.45-.6-.8-1.6-.9-1.35-.1-2 .25-4.05 2.25-1.3 1.3-2.7 2.35-3.05 2.35-.35 0-1.05.45-1.55 1-.75.8-1.5 1-4.6.95-2.75-.05-3.95.15-4.6.75-.5.45-1.15.8-1.5.8-.3 0-1.7.55-3.05 1.25-1.3.65-3.35 1.4-4.55 1.55-1.9.3-2.1.25-1.8-.5zM143 35.15c0-.6-2.55-3.65-3.5-4.15-1.4-.75-1.25-.4.75 1.8.95 1.05 1.75 2.1 1.75 2.3 0 .2.25.4.5.4.3 0 .5-.15.5-.35z"/>
    <path d="M121.9 57.65c-1.15-.3-1.25-3.25-.15-4.15.9-.75 4.75-1.25 6.45-.8 1.05.25 1.3.6 1.3 2 0 2.35-1.3 3.3-4.3 3.25-1.35-.05-2.85-.15-3.3-.3z"/>
  </g>
  <path d="M157.2 433.8c-.15-.4-.2-1.35-.1-2.1.2-1.8 1.2-2.1 7.55-2.15l4.9-.05-.15 1.8c-.15 1.75-.3 1.9-2.65 2.5-3.5.9-9.2.9-9.55 0zm30.4-11.9c.15-2.45.25-2.65 1.5-2.8 1.1-.15 1.5.1 1.9 1.15.25.7.5 2 .5 2.8 0 1.35-.1 1.45-2.05 1.45h-2l.15-2.6zM26.5 399.8c0-1.9.6-2.55 2.9-3.05.9-.2 2.45-1.1 3.45-2.05 1.4-1.35 2.2-1.7 3.7-1.7 1.9 0 1.95.05 1.95 1.7 0 2.65-.75 4.1-2.85 5.5-1.6 1.1-2.45 1.3-5.5 1.3H26.5v-1.7zm14-77.35c0-.75 1.65-3.45 2.1-3.45.85 0 .35 1.6-.85 2.8-.7.7-1.25 1-1.25.65zM172.05 287l.05-2.25.55 1.65c.35 1.2.35 1.8-.05 2.2-.45.45-.6.05-.55-1.6zm-150.2-24.35c-1.1-1.25-.65-3.05.5-1.9.4.4.65 1.25.55 1.8-.15 1.05-.15 1.05-1.05.1zM7.5 199.7c0-.5 4.35-5.95 5.35-6.7.6-.5.7-.5.3-.05-.3.35-.45 1-.3 1.35.2.6.4.6 1.05.1.45-.35-.3.75-1.65 2.45-1.7 2.05-2.85 3.1-3.6 3.1-.65.05-1.15-.1-1.15-.25zm.85-6c-.75-.8 3.05-5.15 4.55-5.2 1.2 0 .55 1.55-1.45 3.4-2.3 2.1-2.65 2.25-3.1 1.8zm98.85-11.3c-.5-1.1-1.55-2.95-2.35-4-1.15-1.6-1.35-2.4-1.25-4.3l.15-2.35h2c1.9 0 2.05.1 4.1 3.5 2.1 3.5 2.4 4.75 1.85 7.7-.3 1.35-.55 1.55-1.95 1.55s-1.7-.25-2.55-2.1zm61.15-59.75c-.7-.65-.35-3.15.4-3.15.5 0 .75.55.75 1.75 0 1.65-.4 2.15-1.15 1.4zm-.35-6.4c0-2.8.65-3.65 1.2-1.6.55 2.15.35 4.35-.45 4.35-.6 0-.75-.65-.75-2.75zm-29-11.75c0-.25-.45-.85-.95-1.35-.5-.5-1.35-1.65-1.9-2.6-2.4-4.35-8.6-6.45-17.5-5.9-2.5.15-5.5.15-6.6 0-2-.25-2.05-.35-2.05-2.15 0-1.25.25-2 .8-2.2 1.2-.45 19.35-.35 20.15.15.5.35.55.65.1 1.5-.5.85-.45 1.1.2 1.35.4.15.6.55.4.85-.15.25-.05.35.25.2.65-.45 2.2.1 1.85.65-.15.25 0 .6.3.8.4.25.45.15.2-.25-.25-.45-.1-.6.55-.45.55.1.95.55.95 1 0 1 1.65 2.9 2.45 2.75.3-.05.5.3.5.75-.05.5.1.75.35.65.55-.35 1.6 1.7 1.7 3.4.05 1-.15 1.35-.85 1.35-.5 0-.9-.2-.9-.5zm-8.4-31.3c.2-2.8 2.2-3.7 8.05-3.7h4.4l-.15 1.85c-.15 1.75-.25 1.85-2.65 2.5-1.35.35-4.15.75-6.15.95l-3.65.35.15-1.95zm6.25-14.95c-.2-.45-.35-1.7-.35-2.75 0-2.4.95-3 4.35-2.95 2.3.05 2.3.05.85.5-.9.25-1.7.75-1.85 1.15-.25.6 0 .6 1.3.25 2.3-.65 2.85-.55 2.85.5 0 .55.4 1.1.9 1.2.65.2.55.25-.25.3-.65 0-1.65.55-2.2 1.1-1.45 1.45-5.15 1.9-5.6.7zM120 56.3c0-1.55.25-2.3.8-2.5 1.25-.45 3.6-.35 3.95.2.15.3 0 .5-.4.5s-1 .35-1.35.75c-.55.65-.5.7.2.45.45-.15.8-.05.8.25 0 .75 2.15.7 2.9-.05.45-.45.6-.25.6 1v1.6H120v-2.2zm17.55-26.4c-.35-.55-1.15-.9-2.05-.9-1.1 0-1.5-.25-1.5-.9 0-.6-.65-1.05-2.1-1.5-3.2-.85-6.8-1.1-7.1-.4-.1.3-.25.2-.25-.25-.05-.75.65-.85 5.85-.75 4.85.05 6.25.3 8.3 1.2 1.35.6 2.35 1.25 2.15 1.4-.15.15-.7.05-1.25-.25-.6-.3-1.8-.55-2.7-.55h-1.65l2.2 1.9c1.3 1.15 1.9 1.95 1.45 1.95-.4 0-1-.45-1.35-.95z" fill="#381d1b"/>
  <g fill="#472a21">
    <path d="M154.1 452c-.95-.4-1.15-.8-1-2.35l.15-1.9H160c4.95 0 7.1-.2 8-.7.7-.45 3.1-.85 5.65-.95l4.35-.2v1.7c0 1.55-.2 1.75-2.35 2.6-1.35.5-3.4 1.15-4.65 1.45-3.05.65-15.45.95-16.9.35zm47.5-16.5c.15-1.8.05-2-.95-2-.75 0-1.15.35-1.25 1.15-.15 1-.4 1.1-3.15 1.1-1.65-.05-4.5-.45-6.35-.95l-3.4-.95v-1.95c0-1.25.25-2.05.75-2.2 1.25-.5.85-1.15-.85-1.3-1.65-.15-1.65-.15-1.65-2.9v-2.75l1.9-.15c2.1-.2 2.05-1.1-.1-1.1-.8 0-2.15-.15-3-.3-1.35-.3-1.55-.55-1.55-1.9 0-3.6 2.9-4.95 4.5-2.05.6 1.1 1.25 1.55 2.45 1.65 1.15.1 1.75.5 2.05 1.4.45 1.1 1.05 1.45 2.2 1.25.25-.05 1.15.6 2.05 1.45.85.85 1.7 1.35 1.9 1.2.15-.2.65.05 1.1.5.45.45 1.15.8 1.55.8.85 0 .95 1.3.1 1.65-.9.4.55 1.35 2 1.35 1.8 0 4.6 1.35 4.6 2.2 0 1 .45 1 1.7.05.55-.45 2.05-.75 3.4-.75 2.4 0 2.4 0 2.4 1.65 0 3.05-4.75 5.85-9.85 5.85h-2.75l.2-2zM190 421.7c0-.7-.2-1.15-.5-.95-.25.15-.5.75-.5 1.3 0 .5.25.95.5.95.3 0 .5-.6.5-1.3z"/>
    <path d="M179.3 425.75c-.55-1.55-.3-3.65.5-3.95.45-.15 1.45-.3 2.25-.3 1.5 0 1.5.05 1.35 2.4-.15 2.3-.2 2.35-1.95 2.5-1.3.1-1.9-.05-2.15-.65zm-169.65-8.1c-2.6-.2-2.65-.25-2.65-1.85 0-2.25.8-2.8 4.25-2.85 1.65 0 2.7-.15 2.4-.3-.35-.1-.65-1-.65-1.9 0-1.65.05-1.7 2.65-2 1.4-.2 3.95-.15 5.6.1 2.9.4 3 .45 3.15 2.05.15 1.55.2 1.6 2.65 1.6h2.45v1.9c0 1.6-.25 2.05-1.25 2.5-1.3.6-14.2 1.15-18.6.75zm22.2-3.5c-.9-.9-.3-4.1 1.15-5.9.8-1 1.6-2.25 1.75-2.8.25-.75.8-.95 2.55-.95h2.2v2.4c0 2.35-1.5 5.45-3.4 7-.85.65-3.7.85-4.25.25zm7.3-15c-2.9-1.05-3.5-1.45-3.1-2 .3-.35.4-.65.15-.65-.2 0-.15-.25.2-.6s.6-.8.6-1c0-.6-1.2-.25-1.85.6-.5.65-.6.45-.65-.9 0-2.7.75-3.6 3-3.6 1.8 0 2 .15 2 1.25 0 .7.3 1.25.65 1.25.3.05 1.5.45 2.6 1s2.35.95 2.75 1c1.65 0 3 1.5 3 3.3v1.7l-2.85-.05c-1.8 0-4.3-.5-6.5-1.3zm120.35-4c0-.75.55-3.6 1.2-6.4.7-2.75 1.5-6.3 1.8-7.85.55-2.85.6-2.9 2.3-2.9h1.7v5c0 4.65-.7 8.85-2.05 12.15-.5 1.2-.85 1.35-2.75 1.35-2.05 0-2.2-.1-2.2-1.35zm-82.75-93.6c-.45-.8 1.5-1.55 3.95-1.55 2.4 0 2.95.6 1.35 1.5-1.25.65-4.9.65-5.3.05zm68.25-2.5c0-.6 4.2-3.05 5.25-3.05 1.35 0 .6 1.15-1.55 2.35-2 1.15-3.7 1.5-3.7.7zM91.9 275.7c-1.5-.75-1.85-1.7-.75-1.7 1.05 0 3.85 1.5 3.85 2.05 0 .65-1.55.5-3.1-.35zM75 266.85c-7.6-3.7-20-11.55-20-12.65 0-1 .2-.95 4.7 1.6 9.6 5.45 18.5 11 18.7 11.65.25.8-.9.6-3.4-.6zm79.85-10.25c-.5-.5-.85-1.75-.85-2.75V252h2.3c3.2 0 5.2 1.45 5.2 3.8v1.7h-2.9c-2.2 0-3.15-.25-3.75-.9zM28.9 234.5c-.45-.5-1.2-1.65-1.65-2.5-.75-1.45-.75-1.5.25-1.5.55 0 1 .2 1 .45 0 .2.65 1.15 1.45 2.1 1.05 1.2 1.3 1.8.9 2.05-.85.55-1.05.5-1.95-.6zm77.6-23.55c-.7-.6-1.7-1.4-2.25-1.75-.85-.6-.9-.8-.3-1.2.45-.25 1.1-.25 1.65.05.5.3 1.15.35 1.4.2.3-.15.5-.15.55.1 0 .2.1 1.15.15 2.05.1.85.15 1.6.1 1.6 0-.05-.6-.5-1.3-1.05zm-15-4.15c0-.8 1.5-1.3 4.15-1.3 2 0 2.4-.7 1-1.8-.8-.6-.65-.65 1.25-.7h2.1v4.5h-4.25c-3.3 0-4.25-.15-4.25-.7zm-86-3.15c0-.2.45-1.3 1-2.45 1.15-2.3 3.2-4.05 3.75-3.15.45.7-3.1 5.95-4 5.95-.4 0-.75-.15-.75-.35zm148.15-4.75c-.9-.45-1.15-1-1.15-2.45 0-1.8.1-1.9 1.85-2.25 1.15-.2 3.2 0 5.5.5l3.65.9v3.9l-4.35-.05c-2.45 0-4.9-.25-5.5-.55zm-52.85-3.85c-.45-.5-1.6-1.35-2.55-1.85-1-.5-1.75-1.3-1.75-1.8 0-1.1.1-1.1 2.25-.2 1.95.8 2.2.6.9-.8-.75-.85-.75-.9.45-.9 1.85 0 4.4 3.15 4.4 5.45 0 1.35-2.5 1.45-3.7.1zm-86.35-1.2c.95-1 1.5-1.85 1.15-1.85-.35 0-.6-.2-.6-.45 0-.5 5.1-4 7.25-5 .85-.35 1.9-.9 2.45-1.15 1.05-.55 2.15.15 1.6 1.05-.2.25-2.1 1.45-4.3 2.6-2.2 1.15-5.15 3.15-6.6 4.4-2.35 1.95-2.45 2-.95.4zm-2.8-3.6c-.5-.55-.25-1 1.5-2.35 2.7-2.15 4.6-3.1 5.3-2.65.8.45.35 1-2.6 3.15-3.5 2.6-3.5 2.6-4.2 1.85zm97.9-2.2c-.7-1.25-1.6-4.85-1.85-7.3l-.25-2 1.25 2.25c.7 1.25 1.25 2.05 1.3 1.85 0-.25-.25-.9-.55-1.45-.5-.9-.45-1 .25-.75.7.3.8.15.55-.7-.3-.85-.15-1 .6-.85 1.45.25 3.15 4.2 3.15 7.25V189h-2c-1.4 0-2.1-.25-2.45-.95zm-7.25-13.8c-.45-.65-.8-2.1-.8-3.25 0-2 0-2 1.95-2 1.5 0 2.1.25 2.75 1.25 1 1.55 1.1 4.15.15 3.3-.8-.65-1.35-.25-1.35 1.05 0 1.35-1.75 1.15-2.7-.35zm-37.45-3.6c-.8-.75-.25-4.35.95-6.75.75-1.45 1.6-3.5 1.9-4.65.6-2 .6-2 3.2-2.15 2.55-.15 2.6-.15 2.6 1.25 0 1.8-2.1 7.65-3.8 10.5-1.05 1.85-1.5 2.15-2.9 2.15-.9 0-1.8-.15-1.95-.35zm67.8-3.1c-2.5-4-9.05-20.1-12.25-30.05-1.4-4.25-2.95-8.55-3.5-9.55-.55-1-.9-2.4-.8-3.25.15-1.3.35-1.45 2.3-1.6 1.2-.1 2.5.1 2.9.45.4.3 1.85 4.2 3.25 8.65 3.45 10.8 8.55 23.6 11.9 30.05.6 1.1 1.05 2.9 1.05 4.1v2.15h-2.15c-1.55 0-2.25-.25-2.7-.95zm-34.15-16c-1.55-.5-2.8-1.25-2.9-1.7-.1-.5-.95-.9-2.55-1.1-1.3-.15-2.65-.5-3.05-.8-1.05-.6-.25-.55 3.45.3 2.4.6 3.35.65 3.85.2 1.25-1.05.75-1.35-1.95-1.35-1.5 0-3.15-.2-3.7-.5-.7-.4-1.15-.4-1.55 0-.45.45-.6.35-.6-.5 0-.95.15-1.05.95-.6 1.35.7 1.95-.35.75-1.25-.85-.65-.75-.7 1.15-.75 2.1 0 5.65 1.3 5.65 2.1 0 .2.4.4.85.4.45 0 2.7.6 5 1.35 4.05 1.3 4.15 1.4 4.15 2.95 0 1.5-.1 1.6-2.3 1.9-3.25.45-4.1.35-7.2-.65zm65.85-39.3c-.7-1.45-.7-1.75-.1-1.75.9 0 2.25 1.95 1.9 2.8-.4 1.1-.9.85-1.8-1.05zM98.5 94.75c0-.4.3-.75.65-.75.4 0 1.1-.45 1.6-1s1.2-1 1.5-1c.35 0 .9-.35 1.25-.75.45-.55 1.65-.75 4.6-.75h3.95l-1.8-1.55c-.95-.85-1.75-2-1.75-2.5 0-1.25.4-1.2 1.95.2l1.3 1.1-.95-1.1c-.55-.65-.8-1.15-.6-1.15.95 0 4.25 2.35 4.05 2.9-.25.7.55.85.95.15.2-.25-.85-1.3-2.3-2.35-2.95-2.2-2.35-2.95.95-1.15 2.1 1.15 2.2 1.3 2.05 3.2-.15 1.65-.35 2.05-1.3 2.15-1.15.2-3.4 2-2.95 2.4.1.1 1.1.25 2.25.3 1.6.05 2.1.25 2.1.9 0 1.25-1.9 1.5-10.3 1.5-6.05 0-7.2-.1-7.2-.75zm2-14.75c0-3.95.15-5 .7-5 1 0 1.3 1.15 1.3 4.65 0 3.8-.4 5.35-1.3 5.35-.55 0-.7-1.1-.7-5zm1.2-8.25c-.2-.4-.5-.6-.75-.45-.75.45-.5-2.15.3-2.8.4-.35.6-.85.4-1.15-.2-.3 0-.4.5-.2.5.15.85.1.85-.15 0-.3-.2-.5-.5-.5-.25 0-.5-.2-.5-.5 0-.7 4.2-.6 4.9.1.35.35.6 1.3.6 2.2 0 1.75-.65 2.2-3.05 2.2-1.1 0-1.45.25-1.45 1 0 1.15-.9 1.35-1.3.25zm13.9-.8c-1.55-.45-1.65-.6-1.5-2.6l.15-2.1 4.05.1c5.25.1 6.2.55 6.2 3.15v2l-3.6-.05c-2 0-4.4-.25-5.3-.5zm22.75-10.85c-1-1.1-1.2-4.8-.2-4.45.3.1.55.6.55 1.05-.1.65.05.7.6.25.4-.3.7-.4.7-.15 0 .2.3-.05.7-.6 1.2-1.55 2.5-.35 2.7 2.5l.15 2.3h-2.2c-1.5 0-2.45-.3-3-.9zm-11.65-4.05l1.45-1.5-1.35-.35c-.7-.15-1.3-.6-1.3-1 0-.5.75-.7 2.7-.7 3.85 0 4.3.25 4.3 2.5s-.45 2.5-4.4 2.5h-2.8l1.4-1.45zM94.5 53.3c0-1.55 1.1-3.45 3.35-5.85 2-2.15 2.4-2.4 2.7-1.6.2.6-.25 1.55-1.6 3.05-1.05 1.2-2.2 2.85-2.55 3.65-.65 1.5-1.9 2-1.9.75zm21.5-2.05c0-2.1.15-2.35 2.1-3.6 1.65-1 2.95-1.35 5.75-1.55l3.65-.25v1.75c0 1.9-.95 3.05-3 3.65-.7.2-1.95.8-2.8 1.3-.85.55-2.5.95-3.65.95H116v-2.25zm-14.5-1.2c0-.65 2.75-2.55 3.7-2.55 1.4 0 .8 1.45-1.05 2.45-1.3.65-2.65.7-2.65.1zm40.25-.05c-.15-.25-.75-.5-1.3-.5-.8 0-.95-.35-.95-2.25 0-2.1.1-2.25 1.3-2.25 1.1 0 1.25.2 1.05 1.05-.2.7-.1.95.4.75.6-.2 1.2.85 1.45 2.85.15.9-1.4 1.2-1.95.35zm-18.1-19.35C122.2 30 121 29.1 121 28.7c0-.85 1-.9 2.75-.1.95.45 1.4.45 1.85 0 .95-.95 2.65-.7 3.9.65 1.2 1.25 1 1.5-1.15 1.25-.5-.05-1.2.25-1.5.65-.5.65-.95.55-3.2-.5z"/>
  </g>
  <g fill="#53342d">
    <path d="M175.5 448.55c0-.25.3-.6.65-.7.5-.2.5-.3 0-.3-1.15-.1-.7-1.85.85-3.3 1.45-1.4 1.8-1.5 6.5-1.65l5-.2v3.4l-4.9 1.6c-4.85 1.6-8.1 2.05-8.1 1.15zM166 432.8c0-.35.5-.85 1.15-1.05l1.1-.4-1.1-.2c-1.85-.35-1.35-1.95 1.15-3.6 2.35-1.6 3.05-1.75 5.65-1.25 1.3.3 1.55.55 1.55 1.85 0 1.65-.65 2.3-4.1 4.1-2.6 1.4-5.4 1.65-5.4.55zm19 .4c-5-1.65-5.1-1.7-4.95-3.75.15-1.55-.05-2.1-1-2.75-.95-.65-1.1-1.2-.95-2.75.15-1.85.1-1.95-1.2-1.95-1.1 0-1.55-.35-1.95-1.35-.6-1.6-.45-3.1.85-7.5l.9-3.15h4.45l-.3 3.9c-.15 2.1-.65 4.75-1.05 5.85l-.85 2 1.3-1.5c.7-.8 1.25-1.65 1.25-1.85 0-.25.6-.4 1.3-.4.9 0 1.25.2 1.05.7-.3.75 1.55 1.3 4.2 1.3 1.3 0 1.4.1 1.15 1.5-.3 1.4-.2 1.5 1.05 1.5.8 0 1.85-.4 2.35-.85.85-.8 1-.75 2.65.85 1 .95 1.75 2.2 1.75 2.85 0 1.45-.7 1.5-1.4.05-.4-.95-.5-.75-.45 1.45 0 2.15.2 2.65 1.2 3.2 2 1.05 1.35 1.6-1.45 1.2-4.45-.6-6.55-.55-6.75.15-.15.3.1.6.55.6.45 0 .8.25.8.5 0 .5-3.1.65-4.5.2zm7.4-6.65c1.55-1.9 2.05-3.55 1.15-3.55-.25 0-.55.45-.7 1.05-.15.6-.5.9-.8.7-.3-.15-.75.25-1 .9-.3.7-.75 1.4-1.05 1.6-.55.35-.25 1.25.45 1.25.2 0 1.1-.9 1.95-1.95zm-4.7-.35c.5-1.35.35-2.2-.45-2.2-.9 0-1.5 1.2-1.05 2.25.35 1 1.1.95 1.5-.05zm-5.7-2.45c0-.4-.3-.6-.7-.45-.4.15-.6.6-.45 1 .3.85 1.15.45 1.15-.55zm16.1 3.25c0-.95.1-1.35.25-.85.1.45.1 1.25 0 1.75-.15.45-.25.05-.25-.9zm-183.85-5.95c-.8-.25-2.55-.45-3.85-.5C8 420.5 8 420.5 8 418.8c0-2.6.8-2.95 5.85-2.55 8.05.55 8.15.6 8.15 2.5 0 .95-.25 1.85-.5 2-.85.55-5.65.7-7.25.3zm-4.25-8.5c-1.05-.3-1.25-.65-1.25-2.3v-2l2.75-.15c1.5-.1 3.7-.05 4.9.15 2.8.4 2.85 1.6.05 2.05l-2.05.35 1.3.8c.7.4 1.3.95 1.3 1.15 0 .5-5.25.45-7-.05zm58.2-102.3c-1.2-.8-2.5-3.6-2-4.15.35-.35 2.8 2.25 3.85 4.05.6 1.1-.4 1.15-1.85.1zm73-.7c2.95-3.25 16.9-7.1 24-6.6 2.4.15-.3 1.05-4.7 1.55-5.95.65-7.9 1.15-14.7 3.8-3.85 1.55-5.2 1.9-4.6 1.25zm-66.45-.95c-1.1-.5-2.8-1.35-3.75-2-2.6-1.65-8.5-7.65-8.5-8.7 0-1.5 1.4-1 2.7 1 2.05 3.2 6.4 6.7 10.95 8.75 1 .45 1.85 1.05 1.85 1.35 0 .7-.9.6-3.25-.4zm1.45-3.3c-.85-.3-2.05-.95-2.75-1.4-1.1-.8-1.1-.85-.2-.85.55-.05 1.9.3 3 .7 1.1.4 3.25.7 4.8.75 3.5 0 6 .5 5.65 1.05-.35.65-8.65.45-10.5-.25zm65.1-.3c2-2 16.2-6.35 16.2-5 0 .3-.3.6-.6.7-.35.1-3.9 1.25-7.9 2.5-7.6 2.4-8.55 2.65-7.7 1.8zm-56.05-32.7c-7.7-4.05-9.25-4.95-9.25-5.4 0-.25.35-.4.75-.4 1.1 0 16.25 8 16.25 8.55 0 1-2.05.3-7.75-2.75zm-32.4-18.7C41.75 246.5 29 236.15 29 234.2c0-1.35 1.4-.65 3.8 1.95 3.8 4.1 8.9 8.15 16.9 13.35 4 2.6 7.2 4.95 7.15 5.2-.3.95-1.15.7-4-1.1zm-27.2-24.45c-2.1-4.05-2.85-7.15-2.5-10.6.25-2.85 1.6-6.05 2.5-6.05.25 0 .35.6.15 1.4-1.35 6.15-.85 10.75 1.8 15.5 1.35 2.4 1.4 2.6.5 2.6-.65 0-1.4-.9-2.45-2.85zm77.15-20.45c-2.6-.95-9.1-1.4-11.7-.8-1.15.25-2.2.3-2.35.05-.45-.65 2.1-2.05 3.6-1.95 3.65.25 6.15 0 6.15-.65 0-1-4.85-3.25-7.75-3.6-3.85-.45-4.8-.75-4.5-1.25.45-.75 3.15-.55 7 .55 6.45 1.8 6.25 1.85 3.75-.75-1.2-1.25-2.5-2.3-2.85-2.3-.35 0-.65-.35-.65-.75s.2-.75.45-.75c1.25 0 5.05 3.65 7.3 6.95 1.4 2.05 3 3.95 3.65 4.2 1.15.55 1.55 1.85.5 1.8-.35 0-1.5-.35-2.6-.75z"/>
    <path d="M88.1 204.2c-1.05-.45.3-1.7 1.85-1.7 1.35 0 2.95.75 2.55 1.2-.45.4-3.75.75-4.4.5zm16.7-1.8c-.15-.65-.3-1.55-.3-2.1 0-1.25-2.75-4.6-5.2-6.4-1.1-.8-3.5-1.9-5.4-2.45-3.35-1.05-4.1-1.95-1.5-1.95 2.4 0 4.45.85 7.3 3 2.8 2.15 3.6 2.35 3.05.85-.4-.9-4.25-4.2-6.9-5.8-1.3-.8-1.75-1.35-1.4-1.7.8-.8 3.5.55 6.25 3.15 3.35 3.1 5.3 7.25 5.3 11.4 0 3.1-.6 4.1-1.2 2zM41 192.25c0-.35.9-1.3 2.05-2.1 1.1-.75 4.4-3.15 7.3-5.25 2.9-2.15 5.5-3.75 5.8-3.55.65.4-3.45 4.2-7.55 6.9-1.55 1.1-3.3 2.35-3.85 2.8-.55.5-1.6 1.1-2.35 1.4-1.1.4-1.4.4-1.4-.2zm59.85-18.5c-1.6-1.85-1.9-2.45-1.75-4.1.15-1.85.2-1.9 2.3-2.05 2.45-.2 3.6.5 3.6 2.1 0 .6.35 1.6.8 2.2 1.25 1.8.45 1.9-.85.15-1.85-2.5-2.8-1.7-1.05.85 1.7 2.45 1.75 3.1.2 3.05-.95-.05-1.95-.7-3.25-2.2zm52.65-45.95c-.25-.75-.5-1.7-.5-2.1 0-1.45-3.05-12.3-4.5-16.05-.85-2.15-2.35-5.4-3.3-7.2-1.9-3.75-1.95-3.95-1.05-3.95.8 0 6.25 10.85 8 16.05 1.8 5.2 3.2 13.3 2.45 14.05-.4.4-.7.2-1.1-.8zm-76.65-2.65c-.45-.4-.35-5.5.1-7.15.45-1.6 3.4-2.1 4.4-.7.9 1.2.8 4.9-.1 6.7-.6 1.2-1.1 1.5-2.45 1.5-.9 0-1.8-.15-1.95-.35zm84.4-.75c-.1-.35-.55-2.25-.95-4.15-.4-1.95-1.25-4.6-1.8-5.95-1.1-2.45-1.05-3.35.2-2.35 1.35 1.1 2.9 5.7 3.15 9.35.25 3.3-.05 4.8-.6 3.1zm7.05-3.25c-.15-.15-.3-1.05-.3-2 0-1.15.25-1.65.75-1.65s.75.5.75 1.7c0 1.7-.55 2.6-1.2 1.95zM96 90.65c0-.2.75-1.15 1.7-2.15 2.1-2.2 2.8-4.3 2.8-8.25 0-2.4.15-3.1.75-3.1 1.2 0 1.05 7.6-.2 9.65-1.3 2.15-5.05 5-5.05 3.85zm24.5-4.2c-4.8-.55-6.35-1.1-8.65-3-1.55-1.3-1.85-1.85-1.85-3.5V78h2.7c1.5 0 2.9.25 3.05.5.8 1.3 4.25 2.4 8.6 2.75l4.6.35.35 1.65c.55 3 .2 3.5-2.55 3.55-1.4.05-4.2-.1-6.25-.35zm-26-32.85c0-1.4.5-2.6 1.1-2.6.7 0 .25 3.15-.45 3.4-.4.1-.65-.25-.65-.8zm41.65-1.45c-.35-.1-.65-1.05-.65-2 0-1.4.4-2.15 1.8-3.45 1.9-1.85 4.7-2.4 4.7-.95 0 .4-.2.75-.5.75-.25 0-.5.35-.5.75s.45.75 1 .75c1.35 0 2.25 2.15 1.05 2.45-.45.1-1.35.6-2 1.1-1.1.9-3.5 1.2-4.9.6zm-8-1.5c-.4-.1-.65-1.1-.65-2.2 0-1.95 0-1.95 2.05-1.95 2.95 0 3.95.7 3.95 2.75V51l-2.35-.05c-1.35 0-2.7-.15-3-.3zM98.5 47.7c0-1.65 5-5.1 9.85-6.7 3.15-1.05 4.65-1.25 4.65-.6 0 .5-1.3 1.15-6.75 3.6-1.9.85-4.2 2.1-5.1 2.8-1.5 1.15-2.65 1.55-2.65.9zm32-16.05c-1.25-.75-2.55-1.65-2.9-2-1.1-1.1 1.05-.8 3.1.35 1.5.9 2.6 2.35 2.15 2.8-.05.1-1.15-.45-2.35-1.15zm-5.85-.5c-2.3-1.15-2.2-2.3.1-1.25.95.45 1.75 1.1 1.75 1.45 0 .35-.05.65-.1.6-.1 0-.9-.4-1.75-.8z"/>
  </g>
  <path d="M163.6 428.65c.15-1.7.5-2.05 3.9-4.35 2.1-1.45 4.5-3.6 5.5-4.9 1.95-2.7 3.4-3.15 3.4-1.1 0 .7.25 1.55.6 1.85.5.45.55.45.3 0-.2-.35-.1-.65.15-.65.3 0 .55-.35.55-.75s.25-.75.55-.75c.9 0 .2 4.4-.85 5.55-.5.55-1.05 2.05-1.2 3.35-.25 2.25-.3 2.35-2 2.5-.95.1-1.95.4-2.2.65-.3.25-.7.45-1 .45-.25 0 .25-.55 1.15-1.2 1.6-1.2 1.6-1.2.45-1.4-.65-.1-2.05.45-3.2 1.2-1.45.95-2.75 1.4-4.2 1.4h-2.05l.15-1.85zM32.5 372.6c0-1.8.3-2.2 4.15-5.45 2.25-2 4.9-4.4 5.8-5.35 1.55-1.6 2-1.8 4.4-1.8 2.65 0 2.65 0 2.65 1.55 0 2.05-2.9 5.5-8.15 9.75-3.7 2.95-4.2 3.2-6.45 3.2h-2.4v-1.9zm118.55-175.3c-.35-.4-.55-1.5-.45-2.4.15-1.6.25-1.65 2.55-1.8 2.55-.15 3.85.45 3.85 1.85 0 .5-.45.85-1.3.85-1.75.15-2.05.6-.9 1.45.9.65.8.7-1.1.75-1.2 0-2.35-.3-2.65-.7zm-41-18.1c-1.25-1.55-1.7-3.1-1.45-4.75.15-1.05.45-1.2 2.45-1.35 2.2-.15 2.35-.05 3.15 1.65.5 1 .8 2.6.7 3.65-.15 1.75-.25 1.85-1.95 2-1.5.15-2.05-.1-2.9-1.2zm-29.9-59.75c-.65-1.6-1.65-1.6-1.65.1 0 .5-.2.95-.5.95-.95 0-.45-4.8.95-8.5l1.35-3.75 2.6-.15 2.6-.15v1.7c0 2.25-3.2 11.05-4.1 11.25-.35.05-.95-.55-1.25-1.45zm88.25-.7c-.2-.85-.05-1.25.4-1.25.4 0 .7.55.7 1.25s-.2 1.25-.45 1.25-.55-.55-.65-1.25zM126 86.3c0-.35.5-.8 1.1-.95.85-.25.95-.45.5-1-.35-.4-.45-.85-.25-1 .15-.2-.15-.35-.75-.35s-1.1-.25-1.1-.5c0-.35 1.6-.5 4.4-.4 4.15.15 4.35.2 4.5 1.35.1.65-.1 1.75-.45 2.35-.55 1.1-.95 1.2-4.3 1.2-2.75 0-3.65-.15-3.65-.7zm8.35-20.1c-.55-.6-.4-3.95.25-4.6.35-.35 2.2-.6 4.75-.6h4.15v2.2c0 1.25-.15 2.35-.35 2.45-.75.45-8.4.95-8.8.55zm1.5-9.45c-.45-1-.85-2.55-.85-3.5V51.5h-2.6c-2.2 0-8.25-.9-8.85-1.3-.1-.1.5-.7 1.25-1.4l1.45-1.25-1.45-.05c-1.2 0-1.35-.1-.8-.75.45-.55 1.65-.75 4.6-.75 4.2 0 6.4.85 6.4 2.5 0 .65.3.8 1.35.6 1.05-.2 1.25-.1 1 .55-.4 1.1.85 1.4 2.1.55 1-.7 1.05-.7 1.05.5 0 .65.1 1.5.25 1.9.15.4-.35 1.05-1.15 1.5-.8.5-1.45 1.2-1.45 1.6 0 .4.25.6.5.45.3-.2.4 0 .2.45-.15.45 0 1.05.3 1.35.4.4.15.55-.95.55-1.25 0-1.65-.3-2.35-1.75zm-4.55-8c-1.1-.85-2.3-1-2.3-.3 0 .55.9.95 2.25 1 1 0 1 0 .05-.7z" fill="#5f352f"/>
  <path d="M164.9 382.9c-.15-3.5-.2-3.55-.6-1.55-.35 1.8-.5 2-1.15 1.4-.5-.5-.65-1.6-.55-3.6.15-2.6.25-2.9 1.35-3.05.6-.1 1.7-.05 2.35.1 1.1.3 1.2.55 1.2 3.75 0 4.75-.4 6.55-1.55 6.55-.8 0-.95-.5-1.05-3.6z" fill="#663432"/>
  <path d="M201.5 441.5v-2h6.55l-.15 1.9-.15 1.85-3.1.15-3.15.15v-2.05zm-46.75-.5c-.15-.25-1.3-.5-2.55-.5-3.2 0-4.2-.65-4.2-2.75V436h3.25c2.6 0 3.25.15 3.25.75 0 .65.55.75 3.65.45 4.85-.4 6.35.2 6.35 2.55v1.75h-4.7c-2.65 0-4.9-.2-5.05-.5zm-4.35-10.85c-1.7-.7-1.9-.95-1.9-2.65 0-1.25.25-2 .8-2.2 1.55-.6 3.6-.3 5.25.85 1.35.9 1.75 1.5 1.85 3l.15 1.85-2.15-.05c-1.2 0-3-.35-4-.8zM109 155.3c-5.4-2.15-6.8-2.9-6.9-3.75-.1-.75.05-.95.55-.75.4.15.9.05 1.05-.2.15-.25.9-.4 1.65-.3 1.1.15.95.05-.55-.55-3.05-1.15-2.85-1.4.9-1 3.8.4 5.9 1 10.95 3.35l3.35 1.55V158h-2.1c-1.4-.05-4.6-1-8.9-2.7zm2-9.85c-4.45-2.95-11.25-6.7-13.85-7.65-1.05-.35-3.7-1.4-5.9-2.3-2.2-.85-4.65-1.8-5.4-2.1-1.25-.5-1.4-.75-1.25-2.6.15-2 .2-2.05 2.05-2.2 4.65-.4 19.85 6.5 30 13.55 2.65 1.85 2.85 2.15 2.85 3.9V148l-2.35-.05c-2 0-3-.4-6.15-2.5z" fill="#643f31"/>
  <path d="M97.3 68.1c-.2-.5 0-2.25.35-3.9.5-2.15.95-3 1.6-3.15.8-.15.85.1.5 1.75-.2 1.1-.5 2.85-.65 3.9-.4 2.15-1.35 2.9-1.8 1.4z" fill="#7c473c"/>
  <path d="M134 76.7c-3.95-.5-4-.55-4-2.95V71.5h4.1l-1.15.95-1.2 1 1.75-.25c3.5-.45 7.55-1.35 7.8-1.75.15-.25-.7-.5-1.9-.5-1.2-.05-1.7-.15-1.15-.3s1.2-.45 1.5-.7c.25-.25 1.65-.45 3.1-.45h2.65v2.2c0 1.6-.3 2.6-1.1 3.55-1 1.15-1.6 1.35-4.9 1.5-2.05.05-4.55.05-5.5-.05z" fill="#83433f"/>
  <path d="M166.3 447.05l-.75-1.4-8.65-.3c-10.55-.35-10.9-.45-10.9-2.65 0-.9.25-1.8.55-2 .35-.2-.1-.55-1.1-.9-1.8-.6-2.3-1.8-1.7-4.15.25-1.15.45-1.25 2.65-1 3.6.4 5.6.9 5.6 1.4 0 .25 1.05.45 2.4.45 3.5 0 6.1.55 6.1 1.25S158.95 439 157 439c-.85 0-1.05.15-.65.55.25.25 1.9.45 3.7.35 2.9-.15 3.05-.25 1.95-.75-1.2-.55-1.2-.6.65-.6 1.55-.05 1.85.1 1.85.95 0 .9.35 1 2.65 1 2.4 0 2.75.15 3.25 1.25.9 1.95.75 6.1-.2 6.45-1.8.7-3.2.3-3.9-1.15zm-13.3-8.8c0-.55-.55-.75-1.85-.75-1.8.05-1.85.1-.95.75 1.3.95 2.8.95 2.8 0zm32.5 7.1c0-.4.4-.9.9-1 .8-.2.75-.25-.05-.3-1.3-.05-.9-1.45.75-2.7 1.5-1.1 5.75-1.7 8.65-1.15 1.6.3 1.75.5 1.75 2 0 2.55-.25 2.65-9.1 3.65-2.45.25-2.9.15-2.9-.5zm14.85-1.7c-.2-.15-.35-1.3-.35-2.5V439h15v1.75c0 1.5-.2 1.75-1.35 2.05-.8.15-1.9.5-2.55.75-1.3.5-10.25.6-10.75.1zm5.9-2.15c.2-.3-.4-.5-1.45-.5-1 0-1.8.25-1.8.5 0 .3.65.5 1.45.5.85 0 1.65-.2 1.8-.5zM150 430.55c-.95-.5-2.5-1.1-3.35-1.3-2.05-.4-2.3-.85-1.9-3.25l.35-2h2.4c2.95 0 5 .85 5 2.05 0 .65.65 1.1 2 1.5 1.8.55 2 .75 2 2.3 0 1.65 0 1.65-2.35 1.65-1.35-.05-3.2-.45-4.15-.95zm4.45-1.85c-1.05-1.25-3.2-2.2-3.95-1.7-.9.55-.7.75 1.5 1.7 2.4 1.05 3.35 1.05 2.45 0zM21.5 422.95c-.95-.3-2.4-.65-3.25-.85-.95-.25-1.55-.75-1.65-1.35-.1-.8.2-1 1.45-1.1 1.9-.15 3.25-1.15 1.55-1.15-.6 0-1.1-.2-1.1-.5 0-.7 5.5-.6 7 .15 1.05.55 1.25 1 1.25 2.85 0 2.2 0 2.25-1.75 2.35-.95.05-2.55-.15-3.5-.4zm3.15-13.1l.25-3.75-2.3-.25c-5.1-.6-5.6-.8-5.6-2.55 0-2.25.8-2.8 4.15-2.8 3.6 0 4.85.6 4.85 2.4 0 1.35.05 1.35 2.75 1.2l2.75-.2v1.7c0 .9-.55 3-1.2 4.65l-1.25 3-2.35.15-2.35.15.3-3.7z" fill="#71554e"/>
  <path d="M144 71.75c0-.6-.8-.75-4-.75-3.65 0-4-.1-4-.95 0-1.65 1.9-2.55 5.3-2.55 3.5 0 4.7.85 4.7 3.4 0 1.25-.2 1.6-1 1.6-.55 0-1-.35-1-.75z" fill="#924e47"/>
  <path d="M193.5 444.3c0-.45.3-.8.7-.8.35 0 .95-.3 1.25-.7.5-.6.3-.75-.95-1.05-1.1-.25-1.5-.6-1.4-1.15.15-.7.95-.85 5.05-1 3.1-.1 4.85.05 4.85.4 0 .25-.35.5-.8.5-1.55 0-.5 1.75 1.2 1.9 1.2.1 1.6.4 1.6 1.15 0 .85-.35.95-3.1.95-1.75 0-4.35.15-5.75.3-2.25.3-2.65.2-2.65-.5zm-1.8-20.05c-.2-.5.1-1.25.75-1.9 1-1 1.1-1 1.8-.2.4.45.5.6.15.35-.95-.8-1.4-.6-1.4.7 0 1.5-.9 2.2-1.3 1.05z" fill="#846962"/>
  <path d="M30.35 347.15c.4-2.8 1-3.65 2.5-3.65 1.25 0 1.3.1.95 2.3-.4 2.95-.55 3.2-2.3 3.2-1.4 0-1.45-.1-1.15-1.85zM161.5 264.9c-1.25-1.7-3.9-4.95-5.9-7.2-3.25-3.75-3.55-4.25-3.1-5.4.45-1.3.55-1.3 5.6-1.3 7.1 0 7.4.1 7.4 2.75 0 2.55-.5 3.05-3.6 3.5-1.35.2-2.4.45-2.4.55 0 .05 1.15 1.65 2.5 3.45 1.9 2.5 2.5 3.75 2.5 5.05 0 .9-.15 1.7-.4 1.7-.2 0-1.4-1.4-2.6-3.1zm-2.75-10.15c-1.65-1.4-3.25-1.65-3.25-.5 0 .95 1.45 1.7 3.25 1.7h1.5l-1.5-1.2z" fill="#c37461"/>
  <g fill="#d47c66">
    <path d="M166.5 432.05c.95-.2 2.25-.65 2.85-.95 1.65-.9 1.95-.7.5.4-.8.65-1.95 1-3.2.95l-1.9-.05 1.75-.35zm-4.5-1.5c0-.25-1.15-.55-2.5-.75-2-.25-2.9-.7-4.35-2.2-2.05-2.05-4.65-3.6-6.1-3.6-1.25 0-1.55-2.25-.9-6.5 1-6.85.55-16.2-1.15-23.5-.3-1.25-.65-3.1-.85-4.15-.15-1.05-.5-2-.7-2.15-.25-.15-.45-.9-.45-1.7 0-.8-.2-1.6-.5-1.75-.25-.15-.5-.85-.5-1.5s-.2-1.7-.45-2.35c-.85-2.1-4.1-13.25-4.9-16.7-.25-1.1-.2-1.1 7.45-.8 8.1.25 12.9-.3 21.1-2.4 2.2-.55 4.65-1 5.45-1h1.5l-.25 10.4c-.3 11.3.25 29.75 1 34.1.8 4.4 1.1 5 2.45 5 1.2 0 5.15 1.75 5.15 2.35 0 .45-1.65 1.6-2.35 1.65-.35 0-.65-.35-.65-.75s-.3-.75-.65-.75c-.4 0-.95 1.15-1.3 2.65-1.4 5.4-3.8 8.65-8.8 11.8-4.15 2.65-4.35 3.05-1.45 3.05h2.35l-1.3 1c-.9.7-2 1-3.8 1-1.4 0-2.55-.2-2.55-.45zm.9-36.8c.95-2.05 3.1-11.6 3.1-13.7 0-1.2-.25-2.05-.7-2.2-1.05-.4-1.3.1-1.3 2.6 0 2.1-1.9 11.55-2.75 13.7-.55 1.4 1 1.05 1.65-.4zm-137.4 8c-1.45-.8-1.65-.9-6.05-2.8-1.8-.8-4.2-1.55-5.35-1.75-1.15-.2-2.1-.5-2.1-.75s.25-.45.55-.45c.25 0 1.05-1.3 1.75-2.85.7-1.6 2.05-4.5 3-6.5.95-2 1.7-3.85 1.7-4.15 0-.3.2-.9.45-1.4 1.15-2.2 2.75-6.85 4-11.6.65-2.4 2.4-7.95 5.05-16.4 1-3.1 2-5.35 2.5-5.6s1.05-1.25 1.2-2.25c.25-1.3.6-1.75 1.35-1.75.55 0 1.1.35 1.3.75.4 1.15 6.05 5.05 9.3 6.5 1.55.65 4.45 1.55 6.45 2 6.2 1.4 6.55 1.5 6.75 2.05.1.25-1.3 2.4-3.1 4.7-3.35 4.35-10.75 15.15-10.75 15.7 0 .15-.45 1.25-.95 2.45-1.85 4.05-2.7 7.1-2.95 11-.2 3.6-.3 3.85-1.35 3.85-.8 0-1.5.55-2.25 1.75-1.3 2.1-3.4 3.65-5.45 4.05-.85.2-1.8.65-2.1 1-.85 1.05 3.5.95 5.05-.15.7-.45.95-.5.65-.15-.35.4-.65 1.2-.65 1.8 0 .8-.4 1.15-1.55 1.4-2.55.5-5.1.35-6.45-.45zm14.35-31.95c2.2-1.8 4.95-4.4 6.1-5.75 2.05-2.45 2.1-2.55.95-2.55-.75 0-1.9.7-2.95 1.8-.9.95-3.55 3.35-5.8 5.35-2.3 1.95-4.15 3.7-4.15 3.95 0 1.15 2.25.05 5.85-2.8zM164.7 269.45c-.8-1.2-1.9-3.05-2.4-4.05-.5-1.05-1.15-1.75-1.4-1.6-.25.15-.4.1-.35-.15.2-.85-.7-2.15-1.25-1.8-.3.15-.4.15-.2-.1.2-.2-.4-1.4-1.35-2.65-1.9-2.45-2.05-2.85-1.15-3.4.3-.2.4-.15.2.2-.35.55 3.2.25 3.7-.35.15-.15.8-.3 1.45-.3 1.25 0 2.55-1.45 1.85-2.1-.2-.2-2.4-.5-4.85-.55-4.45-.2-4.45-.2-4.95 1.15-.45 1.15-.65 1.25-1.3.7-1.3-1.1-1.85-2.45-1.2-3.2.7-.8.4-10.9-.45-16.5-1.15-7.35-1.5-9.6-2.05-12.25-.55-2.7-.9-4.6-2-11-.6-3.45-1.2-8.65-1.75-15.25-.4-4.55-2.2-10.45-5.55-18.25-.45-.95-1.4-3.2-2.15-5-1.2-2.95-1.45-3.25-2.95-3.4-1.25-.15-1.6-.4-1.6-1.25 0-1.45.95-2.85 1.35-1.95.3.8 1.65.8 1.65-.05 0-.35-.45-1.55-1.05-2.6-3.35-6.45-8.45-19.25-11.9-30.05-2.55-8-3.35-9.55-4.8-9-.65.2-.6.5.2 1.9.75 1.3 5.55 15.3 5.55 16.2 0 .7-3-.05-6.2-1.55-7.2-3.35-20.45-14.75-21.9-18.85l-.45-1.3-1.8 1.95c-1.2 1.3-2.2 1.95-3.1 1.95-.7 0-1.85.3-2.55.65-.7.35-2.7 1.2-4.5 1.8-1.8.65-3.9 1.5-4.75 1.85-.8.35-2.95.9-4.75 1.15-1.8.3-4.05.65-5 .85-1.4.25-1.65.2-1.15-.3.4-.45.45-.95.05-1.75-.4-.85-.25-1.55.5-3.05.55-1.05 1.15-2.5 1.35-3.2.4-1.45 7.25-15.65 7.75-16 .15-.15 1.4-2.15 2.7-4.4 1.35-2.3 2.8-4.3 3.25-4.45.45-.1 2-.75 3.45-1.45 1.45-.65 2.9-1.2 3.2-1.2.3 0 1-.35 1.5-.8.75-.7 2.6-.9 12-1.05 26.8-.5 25.3-.55 28.5 1 3.35 1.65 5.65 4.15 8.05 8.75 1.9 3.65 3.55 8.45 8.85 25.85 1.9 6.35 3.8 11.75 4.15 12 .35.3 1.05 2.1 1.55 4 .45 1.95 1.1 4.25 1.35 5.15 1.8 6.3 2.1 7.45 4.2 16.35.75 3.25 1.05 4.35 2.25 9.25.25.95 1.25 4.35 2.15 7.5 1.85 6.2 2.6 9.1 3.1 12.25.8 4.75 1.3 17.6 1.55 40.7.3 25.3.3 25.55-1.65 31.5-1.2 3.85-1.35 3.9-2.95 1.5zm-2.7-71.9c0-.25-1.2-.7-2.6-1.05-1.45-.35-3.4-.95-4.25-1.35-1.7-.8-3.45-.55-2.9.35.75 1.25 4.1 2.45 6.9 2.5 1.55 0 2.85-.2 2.85-.45zM80.3 121c.2-1 2.45-7.75 3.6-10.9.15-.5-.1-.65-.95-.5-1.05.15-1.45.9-3.05 5.65-1.85 5.35-2.25 7.7-1.55 8.45.5.45 1.6-1.1 1.95-2.7z"/>
    <path d="M111.25 193.9c-3.9-7.55-6.1-10.5-11.35-15.2-3.3-2.95-9-6.1-13-7.2-1.6-.4-4.5-.55-9-.4-6.35.25-6.9.35-12.05 2.3-4.95 1.95-12 3.65-12.55 3.05-.15-.15.65-2.15 1.8-4.45 1.1-2.35 2.25-4.8 2.5-5.5.3-.7.7-1.65.95-2.1.25-.5.45-1.45.45-2.1 0-.7.25-1.4.5-1.55.3-.15.5-.7.5-1.2 0-2.35 1.1-3.35 4.35-3.95 1.7-.35 3.7-.6 4.35-.6.7 0 2-.45 2.9-1 1.4-.85 2.55-1 7.85-1 4 0 7.2.3 9.2.8 3.95 1 12.6 4.3 16.5 6.3 4.1 2.05 12.8 7.9 16.9 11.3l3.3 2.8-.6 1.75c-.35 1-1.15 3.4-1.75 5.3-.6 1.95-1.65 4.65-2.35 6-1.75 3.55-6.3 11.25-6.7 11.25-.15 0-1.35-2.1-2.7-4.6zm1.1-8.15c-.75-4.65-8.75-17.05-10.8-16.65-1.3.25-.95 1.05 2.1 4.45 2.55 2.8 5.25 7.45 7.3 12.6.8 2 1.75 1.75 1.4-.4zm.4-9.45c-.8-1.7-1.65-2.2-2.4-1.5-.35.4.4 2.05 1.55 3.35 1.25 1.4 1.8.2.85-1.85zm-44.55-8.95c.7-1.2 1.85-3.7 2.5-5.55l1.25-3.35-1.1.15c-.75.1-1.2.7-1.65 2.15-.3 1.15-1.2 3.25-1.9 4.7-1.2 2.3-1.45 4.05-.6 4.05.15 0 .85-.95 1.5-2.15zm36.6-77.15c1.45-1.35 2.75-2.95 2.9-3.55.5-1.55.9-1.45 3.6.6 1.25.95 2.6 1.75 2.95 1.75 1.6 0 1.05-1-1.75-3.15-3.35-2.65-4.1-3.8-5-8.2-.5-2.5-.5-3.3 0-3.9.55-.65.35-.75-1.4-.75-3.25 0-4.6-.7-4.6-2.5 0-1.35.15-1.5 1.65-1.5 2.1 0 3.15-.65 2.25-1.35-.35-.3-1.25-.65-2-.85-1.4-.3-1.8-1.65-1.1-3.5.35-.9 2.45-1.1 2.95-.3.15.3 1.15.5 2.2.5h1.9l-.25-3.4c-.15-2.7 0-4.1.85-6.45.55-1.6 1.05-3.8 1.05-4.85 0-1.6.45-2.4 3.15-5.35 3.65-4 8.1-7.45 9.6-7.45.55 0 1.55-.35 2.2-.8 2.45-1.75 9.9.35 12.2 3.4 1.3 1.7 3.85 6.55 3.85 7.25 0 .2-.75.75-1.65 1.2-1.9.95-3.85 3.6-3.85 5.3 0 2.3 3.3 7.15 4.85 7.15.9 0 .8-1-.2-2.15-.85-.9-.85-.95.1-1.65 1.1-.8 2.75-.95 2.75-.2 0 .3.4.5.9.5 1.5 0 2.3 3.15 2.15 8.85-.05 2.75-.3 5.8-.55 6.7-.3.95-.5 2.7-.5 3.95 0 1.3-.45 3.15-1 4.25s-1 2.25-1 2.6c0 .45-.75.65-2.2.65-1.25 0-2.35.2-2.5.45-.15.2-1.15.55-2.2.75-2.3.35-3.2 1.25-4.7 4.7l-1.15 2.6-13 .2c-7.15.1-13.65.35-14.5.55-1.4.35-1.35.25 1.05-2.05zm27.95-5.7c0-.6-1.5-.9-7.5-1.5-7.1-.75-10.1-1.6-11-3-.4-.65-2.75-.65-2.75-.05 0 .75 3.55 3.5 5.25 4.05 2.25.75 8.5 1.4 12.5 1.3 2.75-.05 3.5-.2 3.5-.8zm9.7-10.15c.4-.35 1-1.25 1.35-2.1.5-1.25.5-1.65-.15-2.35-1.05-1.2-3.7-1.15-5.3.1-.7.55-1.55 1-1.9 1-1.25 0-4.8 2.05-4.8 2.75 0 1.65 8.95 2.1 10.8.6zM123 69.5c0-.8-1.75-1.45-4.5-1.6-3.1-.2-4 .8-1.4 1.55 2.2.6 5.9.65 5.9.05zm17.25-5.15c.9-.1 1.55-.5 1.65-1 .15-.7-.3-.85-2.55-.85-1.8 0-2.95.25-3.35.75-.85 1-.2 1.75 1.4 1.5.75-.15 2.05-.35 2.85-.4zm-14-7.85c.15-.25 1.05-.5 1.9-.5.9 0 1.95-.25 2.35-.5.65-.45.65-.55 0-1-1.9-1.25-9 .2-9 1.8 0 .85 4.25 1 4.75.2zm-5.2-5.85c2.8-1.5 4.95-1.7 9.85-.9 2.95.45 3.4-.1 1.3-1.5-1.1-.7-2.15-.8-5.9-.65-3.9.15-4.85.4-6.65 1.55-1.2.75-2.15 1.7-2.15 2.1 0 1.05.5.95 3.55-.6z"/>
    <path d="M138.85 53.7c-1.3-1.3 1-4.7 3.15-4.7 1.4 0 2 .75 2 2.5 0 .65-.55 1.1-1.6 1.4-.9.3-2 .65-2.45.8-.4.2-.9.15-1.1 0z"/>
  </g>
  <path d="M119.4 167.8c-9.45-6.15-21.7-12.2-28.9-14.25-1.25-.35-2.95-.85-3.8-1.1-2.05-.6-11.55-.6-11.95.05-.15.3-.75.5-1.3.5s-2.35.45-4.05 1.05c-1.7.55-4.15 1.15-5.5 1.3l-2.4.3v-1.9c0-1.95 1.3-8.15 3.6-17 .9-3.45 1.4-4.45 2.95-6.15 1.25-1.35 1.7-1.55 2.25-1.05.6.45 1.35.4 3.6-.3 6.1-1.9 6.05-1.9 11.7-4.45 1.55-.7 3.25-1.3 3.8-1.3.5 0 1.35-.45 1.85-1 .65-.7 1.55-1 3.15-1 2.2 0 2.4.15 8.05 5.65 6.5 6.35 12.25 10.6 17.65 13.05l3.65 1.7 1.7 4.4c2.65 6.95 8.15 19.15 9.1 20.15.6.6.7 1.15.35 1.7-.25.45-.25.85-.05.9.2 0-.7.3-2.05.65-1.3.4-2.8.55-3.3.45-.5-.15-1.35.2-1.95.8-.6.6-1.2 1.05-1.4 1.05-.25 0-3.25-1.9-6.75-4.2zm-.9-12c0-.9-5.55-3.4-13.4-6-3.6-1.2-8.9-3.25-11.8-4.55-3.9-1.75-5.5-2.25-5.9-1.85-.4.4 0 .8 1.55 1.4 1.95.75 2.05.9 1.3 1.7-.75.85-.6.95 3.1 1.75 4.6 1 13.65 4 19.65 6.45 4.7 1.95 5.5 2.15 5.5 1.1zm-.5-9.75c0-.5-4.35-3.55-9.25-6.5-6.9-4.2-21-10.1-22.25-9.3-.85.55-.55 1.1.9 1.65.75.3 3.15 1.25 5.35 2.1 2.2.9 4.85 1.95 5.9 2.3 2.6.95 9.4 4.7 13.85 7.65 3.5 2.35 5.5 3.1 5.5 2.1z" fill="#f7a73d"/>
  <path d="M156.2 429.5c-5.65-4.3-8.2-6-8.9-6-1.25 0-1.4-.95-.35-2.45.6-.8 1.05-2 1.05-2.7 0-1.6 1.25-2.75 1.7-1.55.15.45.05 1.15-.25 1.55-.45.5-.45 1 0 1.95.3.7.45 1.5.3 1.75-.15.25.05.3.45.15s1.45.2 2.25.75c.8.6 1.6 1.05 1.8 1.05.2 0 1.2.85 2.25 1.9 1.8 1.9 4.25 2.85 5.75 2.3.4-.2.85.05 1.05.5.15.45.6.8 1 .8s.7.35.7.75c0 .6-.7.75-3.45.75-3 0-3.65-.15-5.35-1.5zm17.25-55.85c-.25-1.85-.2-8.65.1-9.65.2-.7.4 1.15.4 4.4.05 3.05-.05 5.6-.2 5.6-.15 0-.25-.15-.3-.35zM152 246.55c0-1.8.2-3.05.55-3.05.25 0 .35.25.2.5-.15.3-.05.5.2.5.85 0 .65 3.8-.2 4.5-.65.55-.75.25-.75-2.45zm-.65-8.9c-.5-.45-.45-3.65.05-3.65.2 0 .45.9.5 2 .15 2 .05 2.3-.55 1.65zm17.35-5.5c-.2-1.6-.3-3.1-.25-3.4.1-.25.35-1.15.55-2 .3-1 .4.05.45 3.4.05 2.65-.05 4.85-.15 4.85-.15 0-.4-1.3-.6-2.85zM158 160.7c0-.7.2-1.15.5-.95.3.15.5.75.5 1.3 0 .5-.2.95-.5.95-.25 0-.5-.6-.5-1.3zm-11.7-90.85c-.45-1 .1-8.35.65-8.35.3 0 .2 5.75-.15 8.25-.1.9-.15.95-.5.1z" fill="#df8f79"/>
  <path d="M169.05 443.7l-.65-1.85-3.9.3c-5 .3-8.5-.05-8.5-.95 0-.55.85-.7 3.5-.7 1.95 0 3.5-.15 3.5-.35 0-.25 1.7-.35 3.8-.25 3.45.15 3.8.25 4.25 1.4.25.7.45 1.95.45 2.75 0 2.2-1.6 1.95-2.45-.35zm42.45-1.35c0-.4.5-.95 1.15-1.25l1.1-.55h-1.1c-.65-.05-1.15-.25-1.15-.45s1.2-1.55 2.65-3c1.85-1.85 3.1-2.65 4.15-2.75 1.45-.1 1.45-.05 1.6 2.8.15 2.7.1 2.9-1.2 3.35-.7.3-1.9.95-2.6 1.5-1.45 1.15-4.6 1.35-4.6.35zm-58.25-10.55c-.15-.45-.35-1.1-.45-1.45-.15-.5.15-.65 1-.45 2.55.45.75-1.8-2.45-3.15-2.05-.85-2.3-1.65-.95-2.8.85-.75 1.15-.65 3.65 1.35 1.5 1.2 3.3 2.55 4.1 3.05 1.6 1 1.75 1.65.4 1.65-.65 0-1.05.4-1.15 1.15-.1.9-.5 1.15-2.05 1.25-1.35.1-1.95-.05-2.1-.6zm25.65-.4c-1.9-.65-1.95-3.2-.15-4.9l1.25-1.2 3.65 1.3c2.8 1 3.65 1.5 3.75 2.35.2 1.25-.2 1.3-2.65.3-1.45-.65-2-.7-2.6-.2-.6.55-.55.75.55 1.3.7.4 1.3.9 1.3 1.15 0 .65-3.35.55-5.1-.1zm4.5-6.75c-1.1-.3-1.1-.6-.1-2.05 1.2-1.7 2.2-1.4 2.2.65 0 1.75-.25 1.9-2.1 1.4zm-155.05-2c-.7-.65-.3-3.5.55-4.3 1-.9 4.6-1.15 4.6-.35 0 .3.35.5.75.5s.75.35.75.75-.2.75-.45.75-1.1.7-1.9 1.5c-1.3 1.4-3.5 2-4.3 1.15zM5.6 420.4c-.75-.75-.75-3.45 0-5.15.45-1.05.9-1.25 2.55-1.25 1.95 0 1.95.05 1.15.95-.85.9-.7.95 4.1 1.3 2.75.2 5.7.2 6.55 0 1.65-.35 3.05.55 3.05 1.95 0 1 0 1-6.35-.25l-5.25-1.05-1.05 1.05L9.3 419h1.6c1.25 0 1.6.2 1.6 1 0 .9-.35 1-3.15 1-1.8 0-3.4-.25-3.75-.6zm170.95-7.7c-.75-1.7-.7-3.2.15-3.2.8 0 1.3 1.05 1.3 2.75s-.75 1.95-1.45.45zm-157.3-6.75c-.8-.2-3.9-.55-6.85-.75l-5.4-.3.05-1.8c.05-3.85.05-3.85 7-3.7 7.8.2 8.95.4 8.95 1.65 0 .75-.35.95-1.7.95-.9 0-1.95.3-2.25.7-.45.55-.3.75.95 1 .8.15 2.2.45 3 .6 1.15.25 1.5.15 1.5-.5 0-.45.25-.8.5-.8.3 0 .5.8.5 1.75v1.75l-2.35-.05c-1.35-.05-3.05-.25-3.9-.5zM118.9 141.8c-2.95-1.2-9.65-5.55-12.1-7.85-1.25-1.15-1.45-2.45-.4-2.45.2 0 2.4 1.45 4.85 3.3 2.45 1.8 6.3 4.15 8.6 5.2 2.3 1.1 4.15 2.2 4.15 2.5 0 .85-2.05.55-5.1-.7zm-23-25.55c-.8-4 7.4-18.8 11.7-21.2 2.3-1.3 2.1-.25-.75 3.45-1.5 2-3.45 5.05-4.35 6.85-1.85 3.85-4.5 10.6-4.5 11.5 0 1.25-1.85.7-2.1-.6z" fill="#efded5"/>
  <path d="M150.25 455.35c-3-1.2-5.05-2.5-6.65-4.25-1.6-1.75-1.65-1.95-1.4-4.85.1-1.65.45-4.45.75-6.25.3-1.8.65-4.7.8-6.5.45-5.55 1.35-9.8 2.3-11.05l.85-1.15 2.4.95c3 1.25 3.8 2.45 2.45 3.45-.55.45-1.35.65-1.75.45-.4-.15-1.4-.35-2.25-.35-2.25-.05-1.9 1.3.5 2 1.1.3 3.15 1.15 4.6 1.85 2.85 1.35 3.3 1.3 2.85-.45-.35-1.4.15-1.5 2.65-.45 1.05.45 3.3.75 5.5.75 3.3 0 3.7.1 3.15.75-.4.45-1.55.75-3.2.8-3 .05-4.8.5-4.95 1.2-.15.8 2.65.9 5.65.25 3.6-.8 6.85-2.2 9-4l1.75-1.45-1.5-.05c-.85 0-1.85.3-2.25.65-.4.3.6-.85 2.25-2.65 3.35-3.75 4.75-6.45 5.5-11 .5-2.9.7-3.25 1.7-3.25.85 0 1.75.8 3.35 3.15 1.5 2.05 1.95 3.1 1.45 3.1-.4 0-1.6 1.3-2.7 2.9-1.05 1.6-2.3 3.2-2.75 3.55-1.05.85-.6 1.45 1.9 2.6 2.05.95 2.05.95.5.95-.95 0-1.95.45-2.65 1.2l-1.15 1.2 1.7.5c.9.3 4.25 1.35 7.4 2.3 5.95 1.85 9.25 2.4 9.3 1.55 0-.5-.7-.8-7.4-2.8-3.5-1-3.9-1.25-3.9-2.35 0-.95.2-1.15.9-.85 3.75 1.5 14.5 4.25 16.6 4.25 3.05 0 .8-1.25-4.1-2.25-1.25-.25-1.4-.5-1.4-2.25 0-2.35.1-2.4 5.15-1.05 1.95.55 4.75 1.2 6.1 1.45 6.7 1.35 8.4 2.25 9.9 5.25.75 1.5.85 2 .35 2.65-.35.4-.75.6-.9.45-.15-.15-1.3.7-2.55 1.95l-2.3 2.2-8.75.3c-10.5.35-14.75.95-16.45 2.2-.9.65-2.5 1.05-4.95 1.2-3.15.25-3.85.45-5.1 1.65-.85.8-1.4 1.5-1.35 1.6.1.1 1.85-.4 3.9-1.1 5.4-1.85 10.15-2.7 19.2-3.25 4.4-.3 8.55-.75 9.25-1 .7-.25 2-.55 2.9-.7.95-.1 2.05-.55 2.5-.95.5-.4 1.55-1.05 2.35-1.5 1.25-.65 1.6-.65 2.15-.05 1.7 1.85-3 6.35-10.1 9.7-7.45 3.5-12.75 5.15-18.85 5.75-3.15.35-4.8.1-12.3-1.85-2.5-.6-3.8-.35-8.15 1.75-3.15 1.55-3.45 1.6-10.75 1.7-5 .1-8-.1-9-.5zm19.25-5.2c1.25-.3 3.4-1 4.75-1.6l2.5-1.1-3.15.25c-1.8.1-3.7.6-4.45 1.1-1.15.75-2.15.8-7.7.5-6.35-.3-8.45.1-5.85 1.2 1.4.55 10.75.3 13.9-.35zm.1-5.85c.05-1-.15-2.05-.4-2.3-.25-.2-2.7-.45-5.45-.45-14-.15-15.05-.1-15.7.65-.95 1.15 1.95 1.55 11.05 1.55h7.85l.8 1.7c.95 2.05 1.75 1.55 1.85-1.15zM163 440c0-.8-1.85-1.3-5.75-1.7-3-.3-6.05-.9-11.15-2.15-1-.25-1.15-.1-1 .65.15 1.05 4 2.55 6.65 2.7.85.05 1.95.25 2.5.5 1.45.6 8.75.6 8.75 0zm45.1-5.2c2.9-1.25 5.2-3.3 3.75-3.3-.4 0-1.9.55-3.25 1.25-1.4.7-2.8 1.25-3.2 1.25-.4 0-1.15.45-1.65 1-.9 1-.85 1 .4 1 .75 0 2.5-.55 3.95-1.2zm-195-6.35c-2.4-.45-5.25-2.05-6.95-3.9-1.45-1.55-1.65-5.75-.3-6.25.5-.2 1-.05 1.3.5.4.65 1 .75 3.55.5 2.25-.25 4.05-.05 7.05.75 2.2.55 4.75 1.2 5.65 1.45 1.8.45 2.65-.2 1.55-1.2-.4-.35-1.75-1.05-3.05-1.5-2.1-.8-2.35-1-1.9-1.85.4-.75 1.1-.95 3-.95 2.55 0 5-.8 5-1.65 0-.3-1.75-.3-4.6-.05-2.55.25-6.65.35-9.05.25-2.8-.1-4.65.1-5.1.45-.35.3-1.35.5-2.15.4l-1.5-.15 1-3c.7-2.1.9-3.85.75-5.85-.25-3.05.15-3.65 2.3-3.15.9.25 7.85.95 13.35 1.4.95.1 1.25-.15 1.25-.9 0-1.7-3.65-2.7-10-2.75-6.7 0-7.55-.4-5.6-2.4.8-.8 2.35-1.9 3.45-2.4 1.9-.85 2.2-.85 4.85-.1 3.4.95 8.15 2.95 9.35 3.95.45.4 1.8.7 2.95.65 2.25-.05 3.65-.85 8.1-4.55 1.4-1.2 2.9-2.15 3.3-2.15.4 0 2.9.7 5.55 1.55 5.8 1.9 7.5 3.3 8 6.65.55 3.6-.15 8.05-1.65 10.45-1.85 2.85-6.7 5.15-14.3 6.7-4.45.9-5.75.95-6.3.1-.3-.55-.6-.45-1.45.3-1.1 1-.85 1.55.85 1.85 1.1.15 1.1.15-.25 2.15-1.7 2.5-3.85 3.55-8.6 4.25-6.1.85-7.15.9-9.4.45zm23.4-18.4c.8-1.3 1.5-2.75 1.5-3.2 0-1.4-1.25-.95-2.15.8-.45.85-1.3 2.2-1.9 2.95-1.1 1.35-.95 2.55.3 2.1.4-.15 1.4-1.35 2.25-2.65zm-13.85 1.2c-.2-.95-11.85-2.15-12.35-1.3-.2.3-.05.7.35.85 2.85 1.1 12.2 1.45 12 .45zm6.15-2.5c.65-1.65 1.2-3.05 1.2-3.1 0-.1-.45-.15-1-.15-1.3 0-2.35 1.7-2.8 4.45-.55 3.3 1.05 2.6 2.6-1.2zm17.7-10.5c-.3-.4-1.8-1.05-3.25-1.5-3.05-.85-5.7-1-4.95-.25s5.75 2.4 7.4 2.45c1.2.05 1.3-.05.8-.7zm74.4-225.05c-3.45-3-13.35-9.65-17.25-11.65-3.9-1.95-12.55-5.25-16.5-6.25-4.55-1.2-11.95-1.05-14.05.2-.9.55-2.3 1-3.05 1-1.45 0-5.25.7-8.45 1.5-1.25.3-1.55.3-1.2-.15.25-.35.65-1.3.8-2.1.3-1.4.6-1.6 4.45-2.65 2.25-.65 4.85-1.3 5.75-1.45.9-.15 1.75-.45 1.9-.7.35-.6 12.95-.6 14.9 0 .85.25 2.55.75 3.8 1.1 7.15 2.05 19.6 8.2 29.25 14.5 5.85 3.85 6.15 4.1 5.7 5.25-.65 1.75-2.1 3.65-2.8 3.7-.3 0-1.75-1.05-3.25-2.3zm-15.95-40.9c-.95-.95-3.5-3.4-5.75-5.5-4.45-4.2-5.45-4.55-8.25-2.65-.95.6-2.5 1.5-3.45 1.95-4.4 2.05-6.4 2.85-8.25 3.4-1.1.35-2.9.95-4 1.3-2.85.95-6.2.9-6.6-.1-.4-1.1.45-1.5 4.25-1.9 1.8-.2 3.55-.5 3.85-.75.25-.2 2.3-1 4.5-1.8s4.55-1.75 5.25-2.1c.7-.35 1.85-.65 2.55-.65 1.85 0 4.45-3.05 5.9-6.9.65-1.7 1.35-3 1.55-2.85.45.3 1.7-2.5 1.4-3.1-.15-.2.15-.8.7-1.25 1.15-1.15 1.2-.25.1 2.35-.4 1.05-.65 2.3-.55 2.85.15.5.05.75-.25.6-.3-.2-.4.05-.2.6.15.55.1 1.7-.2 2.6-.25 1.05-.25 2.15 0 2.9.3.7 2.95 3.75 6 6.8 3 3.05 5.5 5.65 5.5 5.8 0 .1-.3 0-.65-.35-.45-.35-.85-.35-1.15-.05-.35.35-1.1-.05-2.25-1.2z" fill="#f9efea"/>
</svg>
