<svg version="1.0" xmlns="http://www.w3.org/2000/svg" preserveAspectRatio="xMidYMid meet" viewBox="0 0 510 489">
  <path d="M321.5 320.25c0-1.2 1.65-4.3 2.2-4.1.8.25.95 2.6.3 3.85-.6 1.15-2.5 1.35-2.5.25zm8-41.9c0-.8.8-1.9 2.55-3.35 1.4-1.2 3.35-3.25 4.3-4.6 1-1.35 2.4-2.75 3.2-3.2 1.25-.6 1.45-1.05 1.45-2.7 0-2.35.4-2.45 2.05-.7l1.2 1.25-1.5 2.8c-1.95 3.6-6.25 8-9.9 10.05-1.55.85-2.95 1.6-3.1 1.6-.15 0-.25-.55-.25-1.15zm-10.25-24.9c-.45-.7.1-4.95 1.25-9.7 1.05-4.2 1.25-4.55 2.75-4.85.75-.1 1.05-.65 1.25-2.1.15-1.1.5-2.05.85-2.15.9-.3 2.65 1.7 2.65 3.1 0 2.15-1.45 6.9-3.1 10.25-2.55 5.05-4.65 7.1-5.65 5.45zm-70.65-9.15c-1.9-1.65-5-6.6-5.85-9.55l-.65-2.15 3.1-2.5c1.7-1.4 3.85-3.35 4.8-4.35.95-1 2.55-2.2 3.5-2.7.95-.55 2.15-1.4 2.65-1.95s1.6-1.3 2.4-1.6c1.25-.55 1.8-.5 3.45.25 1.1.5 2 1.25 2 1.7 0 .45 1 2.15 2.25 3.8 1.9 2.5 2.25 3.35 2.25 5.2 0 2.85-.95 5.55-2 5.55-.4 0-2.15 1.45-3.9 3.2-3.55 3.6-7 5.65-10.2 6.1-1.9.25-2.4.1-3.8-1zm31.95-4.15c-1.65-2.05-2.55-5.9-2.65-11.6-.15-5.15-.15-5.15 1.25-6.25l1.45-1.05.85 1.1c1.75 2.1 2.85 8.95 2.65 16.05-.1 2.9-.15 3.1-1.3 3.1-.75 0-1.65-.55-2.25-1.35zm5.95-27.45c0-.5 1.4-1.7 2.05-1.7.4 0 .25.35-.3 1-.85.95-1.75 1.3-1.75.7z" fill="#915d7a"/>
  <path d="M140.95 330.4c-3.9-5.6-6.55-10.25-6.35-11.25.1-.5.65-.95 1.25-1.05.85-.15 1.35.3 2.2 2 1.35 2.7 5.8 9.35 7 10.55.55.5.95 1.45.95 2.1 0 1-.25 1.25-1.25 1.25-.95 0-1.8-.8-3.8-3.6zm114.55 2.7c0-1 1.25-2.75 5.25-7.4 12.3-14.4 19.15-23.25 20.1-26 .6-1.65 1.2-4.8 2.45-13.05.2-1.2.5-1.65 1.2-1.65 1.5 0 1.6.7 1 5.9-.95 8.35-2.9 13.2-8 19.55-3.4 4.25-12.4 15.05-15 18.05-1.6 1.8-3.15 3.75-3.45 4.4-.75 1.45-3.55 1.6-3.55.2zm19.85-6.4c-1.3-1.3.85-3.5 10-10.15 4-2.9 7.1-6.3 11.25-12.3 4.5-6.5 6.95-11.45 15.25-30.85.6-1.45 1.1-1.9 2-1.9 1.6 0 1.5 1.05-.8 6.85-4.25 10.75-10.7 23.6-13.7 27.4-1.45 1.8-1.2 1.7 2.4-1.25 4.55-3.65 28.25-27.15 28.25-27.95 0-.3.3-.55.7-.55.4 0 .8-.35 1-.75.15-.4.6-.75 1.05-.75.4 0 .75-.3.75-.65 0-.9 2.4-3.1 2.85-2.65.25.25-1.15 1.85-3.05 3.55-1.9 1.75-3.3 3.45-3.2 3.85.15.35-.85 1.95-2.25 3.55-3.55 4.1-18.45 18.65-24.7 24.1-.9.8-1.65 1.7-1.65 2.05 0 .35-1.95 1.9-4.35 3.5-2.45 1.6-5.35 3.7-6.45 4.7-1.15.95-3.5 2.75-5.25 4s-4.1 3.05-5.2 4.1c-2.05 1.85-4.2 2.75-4.9 2.1zm-44-1.05c-.2-.15-.35-2.5-.35-5.2 0-4.7-.1-5.05-2.75-11.8-1.65-4.2-2.7-6.35-2.75-5.55 0 .75.45 4.95 1.05 9.35 1.25 9.85 1.15 12.75-.35 12.95-1.3.2-1.7-.95-1.7-5.15 0-1.65-.35-5-.8-7.45-.4-2.45-.8-7.65-.85-11.6-.05-3.95-.15-7.2-.15-7.2-.45 0-4.7 7.45-6.65 11.65-2.3 4.8-2.65 5.35-3.85 5.35-1.2 0-1.3-.1-1-1.6.45-2.35 4.85-11.3 7.35-14.95 4.75-7 11.5-14.4 19.9-21.7 8.6-7.5 18.55-17.35 20.35-20.1.9-1.45 2.25-3.75 2.95-5.1 1.3-2.6 3.95-10.05 3.65-10.3-.1-.1-1.65 1.25-3.45 2.95-3.6 3.4-7.25 5.5-9.05 5.15-1.1-.15-1.1-.2-.15-.55 3.5-1.25 6.55-3.3 9.6-6.35 1.85-1.9 3.65-3.35 3.95-3.25.85.35 1.9-3.4 1.55-5.65-.15-1.15-.05-2.05.15-2.05.8 0 1.15 3.55.55 5.5-.3 1-.55 3.1-.55 4.6 0 3.4-.7 5.5-2.7 8.4-.9 1.25-2.4 3.7-3.4 5.5-2.85 5.1-9.55 12.15-20.75 21.85-6.95 6-14.2 13.4-15.5 15.85-.5 1-.6 1.55-.2 1.95.3.3.55 1.15.55 1.9s.65 3 1.45 5.05c.8 2 2 5.25 2.75 7.15 1.85 4.95 1.85 4.95 3.6 4 .8-.4 2.75-1.25 4.35-1.8 1.6-.55 3.9-1.8 5.1-2.75 2.3-1.75 4.75-2.25 4.75-1 0 .35-.35 1.65-.8 2.85-.6 1.7-.7 3.1-.45 6.2.65 7 .6 7.5-.5 7.5-1.3 0-2.3-3.4-2.4-8.3l-.05-3.8-2.75 1.2c-8.65 3.75-8.25 3.4-7.5 6.45.2 1.1.45 3.65.45 5.75 0 3.05-.15 3.9-.8 4.15-1 .4-1.45.4-1.85-.05zm78.25-3.7c.3-.85 2-1.35 4.8-1.4 2.7-.05 6.75-1.05 7.2-1.75.6-.95.95 0 .45 1.3-.55 1.45-1.45 1.7-8.05 2.2-3.8.3-4.6.25-4.4-.35zm13.4-1.45c0-.25.25-.5.55-.5.25 0 .35.25.2.5-.15.3-.4.5-.55.5-.1 0-.2-.2-.2-.5zm1.05-2.7c-.05-1.4-.1-1.45-.8-.5-.55.7-.7.75-.75.2 0-.4.2-1.05.45-1.4.6-.95 1.7.55 1.4 2-.2.95-.25.9-.3-.3zM119.5 312c0-1.4 2.2-3.55 3.2-3.2 1.15.45 1 2.2-.3 3.25-1.45 1.3-2.9 1.25-2.9-.05zm29.5-13.95c0-2.75 3.45-8.05 5.3-8.05 1.7 0 1.55 1.4-.4 4.65-.9 1.45-1.9 3.05-2.2 3.6-.3.55-1.05 1.05-1.65 1.15-.85.15-1.05-.1-1.05-1.35zm9.5-1.75c0-1.8 3.25-8.65 5.3-11.15 1.2-1.45 2.15-2.15 3-2.15 1.75 0 1.55 1.65-.5 4.1-.95 1.05-2.55 3.85-3.6 6.2-1.55 3.55-2.05 4.2-3.05 4.2-.9 0-1.15-.25-1.15-1.2zm103.95-3.15c-2.75-4.4-3.1-7.6-.8-8.05.55-.1.95.45 1.35 1.85.3 1.1 1.3 3.15 2.25 4.55 2.15 3.25 2.2 4 .25 4-1.25 0-1.75-.4-3.05-2.35zm-84.1-8c-1.5-1.45 2.5-7.65 4.95-7.65 1.85 0 1.5 1.55-1.1 5-2.15 2.8-3.05 3.45-3.85 2.65zm152.65-6.4c0-.15.1-.25.25-.25s.25.1.25.25-.1.25-.25.25-.25-.1-.25-.25zm6.5-10c0-.4.25-.75.5-.75.5 0 1.1-.4 2.75-1.9.4-.35.8-.4.95-.15.2.25-.7 1.15-1.95 2-1.6 1.1-2.25 1.3-2.25.8zm-41.95-1.45c-1-1.2-.45-2.55 1.1-2.7 1.35-.15 1.4-.05 1.25 1.5-.15 1.8-1.35 2.4-2.35 1.2zm47.95-2.3c0-.35.15-.5.35-.35.15.2.15.5 0 .7-.2.15-.35 0-.35-.35zm-136.1-1.6c.6-.6 1.2-.95 1.4-.75.5.5-.8 1.85-1.7 1.85-.65 0-.6-.2.3-1.1zm133.1-.4c0-.95.55-1.3 1.15-.7.4.4-.15 1.7-.7 1.7-.25 0-.45-.45-.45-1zm-71.25-.6c-3.05-1.65-4.5-4.9-2.2-4.9 1.75 0 5.45 2.9 5.45 4.25 0 .95-.25 1.25-1.1 1.25-.65 0-1.6-.3-2.15-.6zm69.75-1.7c0-.4.25-.6.5-.45.3.15.5.5.5.8 0 .25-.2.45-.5.45-.25 0-.5-.35-.5-.8zm-107.3-3.3c-3.5-3.8-5.95-8.25-5.45-9.9.55-1.7 1.4-1.1 3.5 2.3 1.1 1.8 2.85 4.15 3.9 5.25 1 1.05 1.85 2.4 1.85 2.95 0 1.6-2.05 1.25-3.8-.6zm-11.6-5.75c1.6-1.55 3.05-2.7 3.25-2.5.45.5-4.35 5.35-5.35 5.35-.4 0 .45-1.2 2.1-2.85zm99.25 2.5c-.2-.15-.35-.6-.35-1 0-.55.2-.55 1-.05.55.35 1 .8 1 1 0 .5-1.2.5-1.65.05zm-85.95-3c-3.2-3.55-3.8-5.65-1.5-5.65 1.1 0 1.8.55 3.25 2.45 2.15 2.85 2.45 4.55.7 4.55-.65 0-1.75-.6-2.45-1.35zm89.1.6c0-.15.1-.25.25-.25s.25.1.25.25-.1.25-.25.25-.25-.1-.25-.25zm-3.5-1.7c0-2 1.55-8.05 2.1-8.05.3 0 .4.45.2 1.15-.2.6-.6 2.45-.9 4.1-.6 3.15-1.4 4.8-1.4 2.8zm-79.75-1.45c-1.25-.9-3.75-4.65-3.75-5.55 0-1.85 2.2-1.3 3.95.9 2.2 2.75 2.05 6.3-.2 4.65zm8.05-5.3c-2.45-2.65-4.8-7.1-4.8-9.15 0-1.15.55-2 2.6-3.85 1.4-1.25 2.65-2.25 2.7-2.15.1.1-.95 1.4-2.3 2.85-1.85 2-2.45 2.95-2.2 3.75.65 2.2 4.3 7.75 6.05 9.2 1.45 1.2 1.65 1.55.9 1.55-.5 0-1.85-1-2.95-2.2zm-16.7-1.15c.75-.75 1.55-1.2 1.7-1 .5.5-1.3 2.35-2.25 2.35-.55 0-.4-.35.55-1.35zm50.7-.7c-1.05-.65-3.3-5.45-3.3-7.05 0-1.55.7-.55 1.4 1.9.8 2.75 2.5 4.85 3.65 4.55.6-.15.95 0 .95.45 0 .85-1.35.9-2.7.15zm39.7-.35c0-1.15 1-2.6 1.8-2.6.4 0 .85-.35 1-.75.4-1.05 1.05-.95 1.35.25.2.8-.05 1.05-1.05 1.3-.75.2-1.75.8-2.2 1.4-.55.6-.9.8-.9.4zm-84.85-3.45c.45-.45.95-.7 1.15-.55.5.5-.3 1.4-1.2 1.4-.75 0-.75-.05.05-.85zm91.35-.15c0-.35.15-.5.35-.35.15.2.15.5 0 .7-.2.15-.35 0-.35-.35zm-3.5-1.75c0-.4.25-.75.5-.75.3 0 .5.35.5.75s-.2.75-.5.75c-.25 0-.5-.35-.5-.75zm3 0c0-.15.1-.25.25-.25s.25.1.25.25-.1.25-.25.25-.25-.1-.25-.25zm-49.75-6.55c-.3-2.9-.15-4.25.45-3.65.5.5.9 6.95.4 6.95-.25 0-.65-1.5-.85-3.3zm-28.75-1.45c0-.15.1-.25.25-.25s.25.1.25.25-.1.25-.25.25-.25-.1-.25-.25zm2.5-2.45c.95-1.05 2.2-2.1 2.75-2.4.8-.45.8-.3-.25.85-.7.75-1.9 1.8-2.75 2.4-1.45 1-1.45.95.25-.85zm26.5-1.5c0-.45.25-.8.5-.8.3 0 .5.2.5.45 0 .3-.2.65-.5.8-.25.15-.5-.05-.5-.45zm-22.35-1.65a.6.6 0 01.7 0c.15.2 0 .35-.35.35s-.5-.15-.35-.35zM287 212.2c0-.5 1.55-1.8 1.85-1.55.15.15-.1.65-.5 1.1-.8.75-1.35.95-1.35.45z" fill="#e8b0b9"/>
  <g fill="#efc4c5">
    <path d="M146.75 359.6c-.65-.45-3.75-4.4-3.75-4.75 0-.35-3.75-6.55-5.55-9.2-.8-1.15-1.45-2.2-1.45-2.4 0-.15-1-1.8-2.15-3.65-1.2-1.85-2.8-4.45-3.6-5.85-.75-1.35-1.55-2.7-1.75-3-.8-1-8.15-15.55-8.55-16.85-.25-1-.2-1.4.25-1.4.8 0 2.8-1.7 2.8-2.4 0-.3-.3-.6-.6-.75-.95-.35-.1-1.05 3.85-3.15 4.9-2.55 10.3-6.2 18.9-12.65 6.8-5.1 19.2-12.85 23.35-14.7 5.8-2.5 10.15-3.85 17.5-5.4 7.7-1.6 10.8-2.6 13.95-4.45 4.95-3 6.75-4.55 23.25-20 3.1-2.9 7.2-6.5 9.1-8 1.9-1.5 4.7-3.9 6.2-5.3s3.2-2.8 3.8-3.1c.95-.5 1-.4.8.9-.25 1.9 2 6.45 4.7 9.3 1.7 1.85 2.3 2.2 3.95 2.2 2.9 0 6.05-1.8 10.45-5.95l3.95-3.8-.3 2.35c-.45 3.3-2.9 9.45-5.55 13.9-2.35 3.95-10.75 12.5-21.35 21.75-12.15 10.6-19.65 19.8-24.45 29.95-3 6.35-3.3 7.3-2.3 7.3.55 0 1.75-2 3.5-5.65 2.35-5.1 6.15-11.4 7.15-12 .25-.15.45 3.15.45 7.3.05 4.45.4 9.45.9 12.1.45 2.5.8 5.85.8 7.5 0 3.6.4 5.35 1.2 5.1.95-.3.9-3.25-.2-12.05-.6-4.7-1-9.65-.9-11.05l.15-2.5 3.15 7.9c3.05 7.8 3.1 8 3.1 12.8 0 5.1.15 5.65 1.3 5.2.85-.3.95-5.7.15-9.1-.65-3-.3-3.7 2.45-4.95 1.3-.55 3.85-1.7 5.7-2.5l3.35-1.5v4.05c0 4.25 1 8.8 1.8 8.35.3-.15.45-.8.4-1.5-.05-.7-.25-3.1-.45-5.3-.25-3.15-.15-4.6.5-6.45.95-2.95.95-2.75.05-2.75-.4 0-1.75.75-3 1.7-1.2.95-3.5 2.2-5.1 2.75-1.6.55-3.55 1.4-4.3 1.8-2.7 1.45-2.7 1.4-5.6-6.5-.9-2.45-2-5.35-2.45-6.35-.45-1.05-.8-2.65-.8-3.55v-1.7l2.15.35c1.15.15 3.35.7 4.85 1.15 1.5.45 4.65 1.35 7 2.05 2.35.65 5.45 1.65 6.9 2.25 1.45.6 2.85 1.05 3.05 1.05.4 0 2.8-2.7 9.1-10.25l1.75-2.15.6 2.1c.8 3 3.35 6.8 4.6 6.8.55 0 1-.1 1-.2s-.8-1.35-1.75-2.8c-.95-1.4-1.95-3.45-2.25-4.55-.3-1.05-.8-1.95-1.05-1.95-.35 0-.4-.35-.2-.85.5-1.35 2.6-12.35 3.2-16.9.3-2.2.65-8.05.85-13 .3-8.4.25-8.95-.5-8-.45.55-.1-.45.75-2.2 1.65-3.2 2.4-7.45 2.6-14.8.05-1.6.3-2.45.7-2.4.3.1 1-.75 1.45-1.85.5-1.1 1.15-2 1.4-2.05.3 0 1.95-.15 3.65-.25l3.05-.25-.35 1.65c-.2.9-.35 2.2-.3 2.9.45 7.5 2.25 12.7 4.65 13.6 1.4.55 1.5.8 1.75 4.1.15 1.95.6 6.05.95 9.05.35 3.05.65 10.4.65 16.4 0 5.95.15 10.85.3 10.85.45 0 4.2-6.85 6.2-11.25 3-6.6 3.15-6.9 4-9.25.45-1.25 1.05-2.7 1.25-3.25.75-1.85 2.1-5.5 2.85-7.75 1.95-5.85 7.1-12.35 11.75-14.95 3.95-2.15 11.35-1.8 12.45.65.65 1.35-.15 3.3-1.3 3.3-1 0-1.45 1.05-2.7 5.95-1.25 5.1-1.4 8.45-.3 8.85.5.2.6.55.35.9-.25.3-.75 1.7-1.1 3.05-.35 1.4-1.05 3.75-1.55 5.3-1 2.9-1.2 4.45-.55 4.45.2 0 1.5-1.15 2.85-2.5 1.4-1.4 4.05-3.55 5.9-4.8 3-2.05 3.75-2.35 6-2.3 5.1.05 9.1 2.95 9.3 6.75.05 1.95-.05 2.2-1.65 3.05-1 .5-1.9 1.3-2.05 1.75-.15.45-1.6 2.15-3.25 3.8s-4.05 4.15-5.35 5.5c-7 7.45-23.55 23.55-27.2 26.4-2.3 1.85-4.5 3.6-4.85 3.9-1.5 1.25-1-.1 1.15-2.95 2.85-3.8 5.45-8.5 9.35-16.85 3.05-6.55 6.9-15.95 6.9-16.8 0-1.2-1.45-.25-2.15 1.45-8.35 19.45-10.75 24.4-15.25 30.85-4.55 6.55-7.05 9.2-12.85 13.55-3 2.25-6.3 4.8-7.25 5.65-1.7 1.5-1.7 1.55-.8 2.3.75.55.8.75.25.75-.45 0-2.9 1.55-5.5 3.5-2.6 1.9-5.25 3.75-5.95 4.1-.7.35-3.05 1.75-5.25 3.1s-4.65 2.8-5.4 3.2c-.8.4-3.25 2.5-5.5 4.7-5.55 5.4-8.15 6.6-13.6 6.25-4.55-.35-8.6-.85-16.5-2.15-7.1-1.15-38.45-1.35-43.75-.3-8.7 1.75-8.95 1.85-19.1 6.8-8 3.9-8.3 4.05-9.15 3.4zm-1.25-26.85c0-.4-.4-1.1-.95-1.6-1.2-1.2-5.65-7.85-7-10.5-1.05-2.15-1.7-2.6-2.3-1.65-.65 1.05 8.2 14.5 9.5 14.5.4 0 .75-.35.75-.75zm113.05-.35c.3-.65 1.85-2.6 3.45-4.4 3-3.45 12.25-14.6 14.75-17.8 3-3.85 5.3-7.5 6.3-10.2 1.3-3.45 2.7-13.45 1.95-14.2-.8-.8-1-.15-1.8 5.25-1.2 8.65-1.8 10.2-6.5 16.25-4.5 5.9-7 8.95-12.95 15.95-5.8 6.8-7.75 9.3-7.75 9.8 0 .95 2 .4 2.55-.65zM151.2 297.75c.3-.55 1.3-2.15 2.2-3.6 1.75-2.95 1.95-3.65.9-3.65-1.2 0-4.8 5.7-4.8 7.55 0 1.2.95 1.05 1.7-.3zm11-4.95c1.05-2.35 2.65-5.15 3.6-6.2 1.85-2.15 2.15-3.1 1-3.1-1.2 0-4.15 4.05-6.05 8.2-1.9 4.15-2.1 5.3-1.1 5.3.4 0 1.55-1.9 2.55-4.2zm19.5-10.8c2.45-3.2 2.75-4 1.6-4-.9 0-4.8 4.5-4.8 5.55 0 .7.4 1.45.8 1.45.05 0 1.15-1.35 2.4-3zm115.8-16.05c0-1-1.2-1.3-1.75-.45-.4.65.7 2.1 1.3 1.7.25-.15.45-.7.45-1.25zm-25.5-4.2c0-.7-4-3.75-4.95-3.75-.95 0-.6 1.3.6 2.35 2.25 2.05 4.35 2.75 4.35 1.4zm-37-3.8c0-.3-.65-1.15-1.45-1.9-.8-.75-2.55-3.05-3.95-5.2-2.45-3.75-3.8-4.25-2.15-.8 2.25 4.85 7.55 10.35 7.55 7.9zm1.5-6.5c0-1.1-3.7-5.45-4.6-5.45-1.1 0-1.15.45-.05 2 2.1 3.15 4.65 5.05 4.65 3.45zm2.5-6.95c-1.5-1.9-3-2.65-3-1.45 0 .55 2.9 4.45 3.75 5.05 1.25.9.65-1.8-.75-3.6z"/>
    <path d="M278.9 324.85c.9-.9 3.35-2.9 5.4-4.4 2.1-1.5 4.65-3.4 5.65-4.3 2.9-2.5 11.45-8.1 11.8-7.75.2.2 2.5.35 5.15.4 7.3.05 11.2 1 13.85 3.3 2.55 2.25 3.05 3.8 2 6.1-.7 1.5-1.15 1.75-3.65 2.2-1.55.3-4.05.65-5.55.8-1.45.15-2.9.45-3.25.75-.3.25-4.15.8-8.55 1.25-10 1.05-15.45 1.75-18 2.3-1.1.25-3 .6-4.25.75l-2.25.3 1.65-1.7zm43.6-37.1c0-.15.1-.25.25-.25s.25.1.25.25-.1.25-.25.25-.25-.1-.25-.25zm1-1c0-.15.1-.25.25-.25s.25.1.25.25-.1.25-.25.25-.25-.1-.25-.25zm-79.5-54.9c0-.1.75-.8 1.65-1.65l1.6-1.45-1.45 1.65c-1.4 1.5-1.8 1.85-1.8 1.45zm7.5-7.1c0-.15.1-.25.25-.25s.25.1.25.25-.1.25-.25.25-.25-.1-.25-.25z"/>
  </g>
  <g fill="#92917f">
    <path d="M315.5 294.75c0-.15.1-.25.25-.25s.25.1.25.25-.1.25-.25.25-.25-.1-.25-.25zm6-6c0-.15.1-.25.25-.25s.25.1.25.25-.1.25-.25.25-.25-.1-.25-.25zm-72-23c0-.15.1-.25.25-.25s.25.1.25.25-.1.25-.25.25-.25-.1-.25-.25zm94-.25c0-.35.15-.5.35-.35.15.2.15.5 0 .7-.2.15-.35 0-.35-.35zm-93-.75c0-.15.1-.25.25-.25s.25.1.25.25-.1.25-.25.25-.25-.1-.25-.25zm1-1c0-.15.1-.25.25-.25s.25.1.25.25-.1.25-.25.25-.25-.1-.25-.25zm2-2c0-.15.1-.25.25-.25s.25.1.25.25-.1.25-.25.25-.25-.1-.25-.25zm73-2c0-.15.1-.25.25-.25s.25.1.25.25-.1.25-.25.25-.25-.1-.25-.25zM246.75 229c.15-.25.4-.5.55-.5.15 0 .1.25-.05.5-.15.3-.4.5-.55.5-.15 0-.1-.2.05-.5zm36.75.25c0-.15.1-.25.25-.25s.25.1.25.25-.1.25-.25.25-.25-.1-.25-.25zm-16.1-1.6c-1.15-1.35-1.65-2.35-1-1.95.35.2.6.2.6-.05 0-1.15-1.55-11.65-1.95-13.15-1.05-4.2-3.9-9-5.3-9-2.15 0-7.9-10.45-8.9-16.15-.65-4 0-9.25 1.7-12.7l1.15-2.35.85 2.65c.9 2.55 4 7.3 5 7.65.3.1.95 1.75 1.45 3.65 1.05 3.85 1.45 7.15 1.95 15.65 0 .6.35 1.05.7 1 .35-.1.6.45.65 1.35.05.85.35 2.5.7 3.75l.7 2.25.5-2.35c.6-2.5 1.3-3.65 1.3-2.1.05.8.25.7 1.25-.55.7-.8 1.15-1.8 1-2.1-.1-.35-.05-.65.15-.65.8 0 3.1-5.4 3.4-8 .2-1.5.65-3.4 1.05-4.2.4-.75.65-1.85.5-2.35-.15-.55-.1-.95.15-.95.35 0 1.2-2.85 1.05-3.65-.05-.25.15-.3.4-.15.5.35 2.8-3.1 6.45-9.7.65-1.15 1.05-2.4.9-2.8-.15-.4-.1-.6.15-.45.55.3 1.25-1.55.8-2.2-.15-.25-.05-.6.25-.8.25-.15.75.3 1 1.1.3.75.75 1.8 1 2.25.3.5.5 1.3.5 1.8 0 .45.45 2.1 1 3.6 1.7 4.5 1.45 7-1.1 12.5-2.45 5.2-5.5 8.7-8.6 9.75-3.35 1.15-7.45 4.8-9.3 8.25-1.85 3.5-1.75 2.6-1.6 17.15.05 1.35.3 2.75.65 3.15.4.5.45.9.1 1.25-.3.3-.75.15-1.25-.4zm-3.55-24c-.2-.15-.35 0-.35.35s.15.5.35.35a.6.6 0 000-.7zm5.65 23.1c0-.15.1-.25.25-.25s.25.1.25.25-.1.25-.25.25-.25-.1-.25-.25z"/>
    <path d="M265.5 224.75c0-.15.1-.25.25-.25s.25.1.25.25-.1.25-.25.25-.25-.1-.25-.25zm5 0c0-.15.1-.25.25-.25s.25.1.25.25-.1.25-.25.25-.25-.1-.25-.25zm-17.25-1.25c.15-.25.4-.5.55-.5.15 0 .1.25-.05.5-.15.3-.4.5-.55.5-.15 0-.1-.2.05-.5zm17.65-.35c-.15-.5.1-1.95.45-3.2.35-1.3.7-2.95.75-3.75.05-.8.25-1.65.45-1.95.2-.25.5-1.45.7-2.6.4-2.5 2.65-6.1 5.1-8.1.95-.75 3.4-2.25 5.45-3.3 2.7-1.35 4.5-2.75 6.55-5.05 4.05-4.5 5.55-4.5 4.2 0-.25.85-.75 2.8-1.05 4.3-1.85 8.6-4.35 12.35-11.45 17.15-2.1 1.4-4.25 2.95-4.75 3.45-.55.5-1.15.9-1.4.9-.2 0-.55.6-.7 1.3-.2.8-.6 1.15-1 1-.4-.15-.7-.05-.7.2 0 .9-2.4.55-2.6-.35zm22.6-30.4c0-.15-.1-.25-.25-.25s-.25.1-.25.25.1.25.25.25.25-.1.25-.25zm-29 30.5c0-.15.1-.25.25-.25s.25.1.25.25-.1.25-.25.25-.25-.1-.25-.25zm11 0c0-.15.1-.25.25-.25s.25.1.25.25-.1.25-.25.25-.25-.1-.25-.25zm2.5 0c0-.15.1-.25.25-.25s.25.1.25.25-.1.25-.25.25-.25-.1-.25-.25zm-23-1c0-.15.1-.25.25-.25s.25.1.25.25-.1.25-.25.25-.25-.1-.25-.25zm8.55-.55c-.05-.3-.85-.9-1.85-1.35-1.75-.85-1.85-.85-3.6.15l-1.75 1.05-2-2c-1.1-1.15-2.3-2.05-2.7-2.05-.4 0-.55-.25-.4-.5.25-.4.6-.35 1.15.1.65.55.75.55.5-.1-.15-.4-.9-2.6-1.65-4.85-.8-2.3-1.6-4.15-1.8-4.15-.25 0-.2-.6.05-1.3.3-.7.5-1.95.5-2.75 0-1.75.75-1.85 2.4-.3l1.25 1.1-.6-1.25c-.5-1.05-.45-1.1.05-.3 1.35 1.9 5.55 6.8 5.95 6.8.2 0 .5-.4.6-.85.2-.7.25-.6.3.25.1 1.6.15 1.75 1.4 3.1.6.65 1.25 1.9 1.4 2.75.15.8.55 2.45.8 3.6.3 1.15.45 2.35.3 2.75-.15.35-.3.4-.3.1z"/>
    <path d="M250.75 213.95c-.2-.3-.25-.6-.1-.75.1-.15.35.1.5.55.35.85.05 1-.4.2zm12.8-1.25c0-.55.15-.7.3-.3.15.35.1.8-.05.95-.15.2-.3-.1-.25-.65zm-.05-1.7c0-.35.15-.5.35-.35.15.2.15.5 0 .7-.2.15-.35 0-.35-.35zm-5.45-4.8c0-.55.15-.7.3-.3.15.35.1.8-.05.95-.15.2-.3-.1-.25-.65zm7.1.45a.6.6 0 01.7 0c.15.2 0 .35-.35.35s-.5-.15-.35-.35zm2.1-5.4c.25-4 .3-4.4 1.7-10.4 1.25-5.7 1.1-7.6-1.05-12-3.55-7.3-4.1-9.55-3.4-15.05.25-2.05.8-3.85 1.5-4.8 1-1.4 1.95-4.1 2.1-5.85.05-.35.25-.65.45-.65.5 0 3.45-6.15 3.45-7.2 0-1.1 1-1 1.05.1.1 1.6-.1 2.85-.7 4.05-.45.95-.45 1.25.3 1.8.45.35.85.9.85 1.3 0 .6-.1.55-.45 0-.4-.6-.55-.45-.8.6-.25.95.05 2.5 1 5 .75 2 1.8 5.2 2.35 7.1.9 3.2.9 3.85.3 7.75-.35 2.35-.6 4.55-.55 4.85 0 .35-.2.5-.5.3s-.4 0-.2.5.1.8-.3.7c-.35-.05-.55.3-.55.75.05.5-.1.8-.3.65-.75-.45-3.3 7.6-3.75 11.75-.2 1.5-.65 3.75-1.05 5-.35 1.25-.9 3.4-1.15 4.75-.5 2.45-.5 2.4-.3-1zm2.75-1c0-.15.1-.25.25-.25s.25.1.25.25-.1.25-.25.25-.25-.1-.25-.25zm-10.75-19.3c-.2-.3-.25-.6-.1-.75.1-.15.35.1.5.55.35.85.05 1-.4.2zm31-1.45c.15-.25.4-.5.55-.5.15 0 .1.25-.05.5-.15.3-.4.5-.55.5-.15 0-.1-.2.05-.5zm-32-.55c-.2-.3-.25-.6-.1-.75.1-.15.35.1.5.55.35.85.05 1-.4.2zm-.75-1.7c0-.15.1-.25.25-.25s.25.1.25.25-.1.25-.25.25-.25-.1-.25-.25zm-.5-1.5c0-.15.1-.25.25-.25s.25.1.25.25-.1.25-.25.25-.25-.1-.25-.25zm5.7-9.35c-.2-.35-.15-.4.2-.2s.6.45.6.6c0 .4-.45.2-.8-.4zm-27.2-42.15c0-.15.1-.25.25-.25s.25.1.25.25-.1.25-.25.25-.25-.1-.25-.25zm21-57.5c0-.15.1-.25.25-.25s.25.1.25.25-.1.25-.25.25-.25-.1-.25-.25z"/>
  </g>
</svg>
