<svg version="1.0" xmlns="http://www.w3.org/2000/svg" preserveAspectRatio="xMidYMid meet" viewBox="0 0 1252 1199">
  <g fill="#000">
    <path d="M598 1192.3c-41.1-2.2-76-7.3-114.5-16.8-121.5-29.9-232.2-99.2-312.2-195.4C93.1 886.2 47.2 775.8 35.4 653.6c-2.2-22.6-3-74.1-1.5-94.6 3.9-52.8 13.6-101.2 30.5-150.5 42.2-123.7 125.5-231.3 235.2-303.7 84-55.5 178.7-88.2 279.2-96.3 21.5-1.8 68.7-2 90-.4 172.7 12.5 331.1 100.1 434.7 240.4 65.6 88.7 104.1 192.1 113.7 305 1.9 23.1 1.6 83.2-.5 103-11.2 102.2-42.3 189.3-97 271.5-48.7 73.2-117.4 138.3-192.2 182.2-17.8 10.4-19.2 11.2-38.1 20.6-72.6 36.3-148.4 56.3-231.4 61.2-15.1.9-46.4 1.1-60 .3zm70.6-28.8c102.6-8.3 198-42.4 280.4-100.1 35.6-24.9 74.1-59.3 102.1-91.4 52.5-60 93.4-133.2 115.7-207 22-72.8 28.9-142.5 21.6-219-15.3-163.2-101.5-312.2-235.7-407.3C890.1 94.2 822.1 63.9 748 47.5 645 24.7 534.6 31.8 434.7 67.6 321.4 108.3 220.9 187.3 154.5 288c-45.7 69.3-73.9 141.6-87 222.3-5.6 34.8-7.3 62.2-6.4 102.2 2.1 85.5 21.2 163.1 58.9 239 28.1 56.6 63.8 105.5 110.1 151 48.9 48 97.3 81.7 157.9 110.1 63.9 29.9 125.5 45.4 205.5 51.7 12.7 1.1 58.5.5 75.1-.8z"/>
    <path d="M288.1 942.3c-4.9-2.4-7.3-6.8-6.8-12.1.4-3.9 1.5-5.4 10.3-14.5 11.3-11.7 57.5-58.7 89.8-91.4l21.9-22.1-2.1-8.4c-21.2-84.4-7.7-177.9 36.8-255.3 15.1-26.4 42.1-61.9 50.1-66 5.1-2.7 10.1-1.9 15.8 2.4 15 11.2 25.7 33.3 31.5 65.4 1.2 6.5 2.6 11.8 3.1 11.8 1.5.2 15-24.7 22-40.4 17-38.4 24.7-72.3 24.5-108.7-.1-11.3.3-18.4 1-20 2.3-5.1 25.6-22.2 52-38.4 76.6-47 178.2-78.5 284-88.1 23.7-2.1 37.8-2.2 41.8-.1 6.5 3.4 7.1 7.8 5.2 38.1-5.7 88.4-27 167.2-66.1 244.5-47.7 94.3-118.4 175-201.4 230.2-48.6 32.2-99.2 53.2-148.2 61.5-15.5 2.6-64.4 2.5-81.8-.1-12.6-1.9-35.3-7.2-44.4-10.4l-5.4-1.8-36.6 37c-85.6 86.8-86.3 87.6-90.1 88.1-2.2.4-4.7-.1-6.9-1.2zm260.2-134.7c63.1-10.1 119.7-37.3 176.7-84.8 16.6-13.8 48.3-44.9 63.8-62.3 12.3-13.9 35.2-42.2 42.2-52 30.2-42.7 55.2-88.8 74.4-137.3 24.9-62.6 38.1-123.3 39.8-182.5l.3-8.7h-5.6c-3.1 0-14.1.9-24.5 2-92.4 10-178.8 35.7-246.9 73.5-16.9 9.3-39 23.4-50.1 31.8l-8.1 6.2-.6 18.5c-.6 20.5-2.3 33.3-6.8 52-10 42-28.5 81.8-56.6 121.5-11.4 16.1-13.8 17.8-21.5 15.4-6-2-8.8-6.4-8.8-13.9 0-14.5-4.2-43.6-8.5-59.2-1.4-5.1-4.7-13.6-7.2-18.8l-4.6-9.5-3.8 4.5c-2.2 2.5-7.6 9.6-12 15.8-33.1 45.9-54.6 100.9-61.5 157.2-2 16.1-2.3 52.4-.5 68 1.5 13.4 5.2 35 6 35 .3 0 40.2-40.3 88.6-89.5 95.4-97.2 91.2-93.4 99.2-90.4 6.6 2.5 10.1 10.5 7.2 16.2-.6 1.2-7.7 9-15.8 17.2-15.4 15.7-114 116.2-144.1 146.8-9.6 9.8-17.6 18.2-17.8 18.6-.6 1.7 29.4 8.2 48.8 10.5 8.1 1 48.9-.3 58.3-1.8z"/>
  </g>
</svg>
