<svg version="1.0" xmlns="http://www.w3.org/2000/svg" preserveAspectRatio="xMidYMid meet" viewBox="0 0 980 982">
  <g fill="#333">
    <path d="M470.4 897c-81.2-7.9-152.2-50.2-197-117.5-29-43.6-43.6-91.4-43.8-143-.1-22.6 1.5-34 8.4-61 25.9-101 115.1-285.2 239.5-494.5 12.1-20.3 12-20.2 16.4-19.8 4.4.4 4.6.7 27.3 39.3C631.3 288 712.8 454 742.6 551.7c10.4 34.2 14.4 55 15.1 78.8 1.8 58.8-19.7 120.9-58.4 169-10.2 12.7-33 34.9-45.5 44.3-36.5 27.4-77.2 44.6-121.4 51.2-15.9 2.4-47.6 3.4-62 2zm47.2-14.1c76.1-7.5 144.2-48.9 186.4-113.4 14.1-21.6 26.9-51 32.8-75.5 5.7-23.1 6.7-32.2 6.7-58-.1-26.3-1.2-34.2-9.5-64.1C707.3 474.4 623.5 302 503.5 97.7L493.7 81l-2 3.2c-1.1 1.8-3.5 5.8-5.2 8.8-1.8 3-7.1 12.1-11.8 20.2-16.8 28.6-54.3 94.9-65.2 115.3-2.6 5-5.6 10.4-6.5 12-1.6 2.7-6.9 12.5-20.8 38.5-56.8 106.5-103.3 209.8-123.4 274-17 54.3-19.6 86-10.7 130.3 17.4 87.4 82.2 160.2 167.4 188.3 17.8 5.8 33.1 8.9 58 11.8 7.2.8 34.1.5 44.1-.5z"/>
    <path d="M460.5 813.3c-65.2-6-121.5-51-142-113.9-4.4-13.3-7.3-29.5-7.7-43.2-.3-9.9-.2-10.5 2.1-12.3 2.9-2.4 6.6-2.4 8.9-.1 1.5 1.5 2 4.2 2.6 12.7.4 6 1.6 15.4 2.6 20.9 13.2 67.8 70.8 118.4 139.4 122.3 9.6.5 12.3 1 13.8 2.5 2.5 2.5 2.3 7.2-.4 9.8-2.2 2-7.4 2.4-19.3 1.3z"/>
  </g>
</svg>
