<svg xmlns="http://www.w3.org/2000/svg" fill="none" viewBox="0 0 129 50">
  <path d="M71.583 49.677h5.55V32.383c0-.944.39-1.85 1.086-2.517a3.788 3.788 0 012.622-1.042h4.14V24.85h-7.848v-5.765c0-.944.39-1.85 1.086-2.517a3.788 3.788 0 012.622-1.042h4.14V11.53h-6.46a7.103 7.103 0 00-4.826 1.995 6.548 6.548 0 00-1.998 4.665l-.114 31.487zM6.005 3.997H0v33.715C0 38.87.479 39.98 1.332 40.8a4.647 4.647 0 003.217 1.279h13.92v-3.93H7.848c-.488 0-.957-.187-1.303-.519a1.734 1.734 0 01-.54-1.25V3.997zM114.55 18.19v24.02h5.55V19.084c0-.94.388-1.842 1.078-2.51a3.786 3.786 0 012.607-1.05h4.549V11.53h-6.824a7.108 7.108 0 00-4.913 1.949 6.55 6.55 0 00-2.047 4.71z" fill="#333"/>
  <path d="M40.17 0H23.089v3.996h17.083V0z" fill="#7D8844"/>
  <path d="M35.37 28.54a6.821 6.821 0 003.494-2.402 6.374 6.374 0 001.306-3.93v-4.914h-5.528v4.935a3.462 3.462 0 01-.693 2.084 3.7 3.7 0 01-1.831 1.3l-3.39 1.005v-7.533c-.003-.466.09-.929.274-1.36a3.53 3.53 0 01.798-1.156c.342-.33.75-.593 1.198-.772a3.82 3.82 0 011.415-.271h7.825a4.304 4.304 0 00-1.462-2.851 4.656 4.656 0 00-3.087-1.145h-5.664c-.906 0-1.802.172-2.638.509a6.845 6.845 0 00-2.228 1.448 6.531 6.531 0 00-1.471 2.162 6.32 6.32 0 00-.487 2.54v19.522c0 1.159.48 2.27 1.333 3.088a4.647 4.647 0 003.216 1.28h12.465v-3.931H30.48c-.489 0-.957-.186-1.303-.518a1.734 1.734 0 01-.54-1.25v-5.766l6.733-2.074zm24.204-17.01h-5.528c-.905 0-1.802.172-2.638.508a6.845 6.845 0 00-2.228 1.449 6.534 6.534 0 00-1.471 2.162 6.321 6.321 0 00-.487 2.54v1.333h5.368v-.437c0-.94.388-1.842 1.078-2.51a3.786 3.786 0 012.607-1.05h.478c.489 0 .957.187 1.303.519.345.331.54.781.54 1.25v5.765l-6.824 2.184a6.823 6.823 0 00-3.508 2.397 6.375 6.375 0 00-1.315 3.935v4.804h5.642v-4.935a3.444 3.444 0 01.716-2.102 3.685 3.685 0 011.877-1.282l3.412-1.005v7.534c0 .469-.097.934-.285 1.367a3.554 3.554 0 01-.81 1.157 3.705 3.705 0 01-1.21.77 3.845 3.845 0 01-1.426.265h-7.734a4.305 4.305 0 001.462 2.85 4.657 4.657 0 003.088 1.146h5.55a7.105 7.105 0 004.786-1.956 6.554 6.554 0 002.038-4.595v-19.63a4.214 4.214 0 00-.32-1.677 4.352 4.352 0 00-.965-1.431 4.558 4.558 0 00-1.46-.968 4.713 4.713 0 00-1.736-.357zm44.149 17.01a6.822 6.822 0 003.507-2.397 6.368 6.368 0 001.315-3.936v-4.913h-5.55v4.935a3.444 3.444 0 01-.735 2.113 3.688 3.688 0 01-1.903 1.272l-3.412 1.004v-7.533c0-.944.39-1.85 1.086-2.517a3.788 3.788 0 012.621-1.042h7.825a4.303 4.303 0 00-1.462-2.851 4.657 4.657 0 00-3.087-1.145h-5.55c-.906 0-1.803.172-2.638.509a6.844 6.844 0 00-2.228 1.448 6.532 6.532 0 00-1.472 2.162 6.319 6.319 0 00-.486 2.54v19.522c0 1.159.48 2.27 1.332 3.088a4.647 4.647 0 003.217 1.28h12.442v-3.931h-9.69c-.49 0-.962-.186-1.31-.517a1.756 1.756 0 01-.555-1.252v-5.765l6.733-2.074z" fill="#333"/>
</svg>
