<svg version="1.0" xmlns="http://www.w3.org/2000/svg" preserveAspectRatio="xMidYMid meet" viewBox="0 0 516 483">
  <path d="M243 404c-21.4-1.7-42-7.5-61.5-17.1-15.6-7.7-28.5-17-41-29.4-9-9-20.5-22.8-20.5-24.7 0-.5 1.2-.8 2.8-.8 2.2 0 3.8 1.4 8.2 7.1 6.5 8.4 24.5 25.9 26.7 25.9 2.1 0 12.8-5.8 14.8-8 1.4-1.6 1-2.4-5.3-10.6-9.7-12.6-10.5-14.4-6.1-14.4 1.1 0 4.2 3.2 7.7 7.8 8.9 11.6 10.9 13.5 13.5 12.9 3.7-1 24.9-8.5 25.4-9.1.3-.3-.4-2.9-1.7-5.7-1.8-4.2-1.9-5.3-.8-6 2.5-1.7 3.9-.7 6.7 4.9 2.5 4.9 3.1 5 18.1 2.7 5.2-.8 12-1.5 15-1.5 5.8 0 8-1.2 8-4.2 0-1.3.8-1.8 2.5-1.8 1.8 0 2.5.5 2.5 1.9 0 3 2 3.8 12 4.5 5.2.4 12.9 1.3 17 2 4.1.8 7.9 1.2 8.6.9.6-.2 2-2.2 3-4.4 1.9-4.3 4.4-6.2 6.8-5.3 1.3.5 1.3 1.2-.4 5.7-1.1 2.9-1.6 5.5-1.1 6 1.8 1.8 25.3 9.7 26.6 9 1.6-1 6.8-7.2 12-14.6 3.2-4.5 4.6-5.7 6.8-5.7 1.5 0 2.7.5 2.7 1.1 0 1.4-8.3 13.1-12.9 18.2l-3.5 3.9 2.4 1.9c2.9 2.3 13.5 7.9 14.9 7.9 1.7 0 20.5-18.6 25.2-24.8 2.4-3.1 5-6.3 5.8-6.9 1.6-1.4 6.1-1.8 6.1-.5 0 2-11.6 15.8-21 25.2-11.8 11.7-22 19.3-35.9 26.9-27.2 14.8-59.4 21.6-90.1 19.1zm38.4-7.3c3.8-.6 7.1-1.7 7.3-2.3.5-1.6-11.3-7.1-19.4-9-12.7-3-31.2-.6-43.5 5.7-4.2 2.2-5.3 3.5-3.5 4.2 1.2.4 8.7 1.7 19.2 3.1 5.4.8 32.8-.4 39.9-1.7zm-66.4-7c0-.7-2.1-2.5-4.8-4.1-6.7-4.2-15.6-11-23.4-17.8-3.6-3.2-7.5-5.8-8.5-5.8-2.2 0-12.5 6-13 7.6-.9 2.7 24.9 16.5 39.2 21 7 2.2 10.5 1.9 10.5-.9zm94.2-.3c15-5.4 35.8-16.9 35.8-19.9 0-1.9-12.6-8.9-14.2-7.9-.7.4-4.1 3.2-7.4 6.1-6.6 5.7-8.6 7.2-18.6 14.2-8.6 6-9.7 7.1-9.1 8.7.8 2.1 5.3 1.7 13.5-1.2zm-80.4-6c1.2-.8 2.2-1.9 2.2-2.4 0-.8-15.6-25.4-19.2-30.3-1.2-1.6-2-1.5-12.6 2.2-6.3 2.1-11.8 4.3-12.3 4.8-2.1 2.1 23.4 22.7 32.3 26.3 3.5 1.4 7.1 1.2 9.6-.6zm65-1.1c8.5-5 17.6-11.7 24.2-17.9l6.4-6.1-3.4-1.8c-4.9-2.5-16.9-6.5-19.7-6.5-1.6 0-2.9 1-4.1 3.1-.9 1.7-5.3 8.7-9.8 15.5-8.4 12.9-8.8 14.5-3.9 15.7 4.1 1 5.8.6 10.3-2zm-22.3-2.9c1.9-.8 14.7-18.6 18.5-25.6 1.7-3.3 2.1-5.1 1.4-5.8-2.2-2.2-29.9-5.5-32.1-3.7-1.9 1.4-1.8 29.6.1 32.2.7 1 3.2 2.1 5.7 2.5 2.4.4 4.5.8 4.6.9.1 0 .9-.2 1.8-.5zm-21.2-1.6c1.4-1.1 1.7-3.6 1.8-17 0-8.6-.2-16.1-.5-16.7-.9-1.3-30.7 1.7-32.3 3.3-1.2 1.1 1 5.7 7.7 15.9 9.1 14 11 15.7 17 15.7 2.5 0 5.4-.6 6.3-1.2zm204.2-29.4c-7.1-3-8-3.8-7.2-5.8.5-1.3 1.6-1.1 6.9 1.4 7.7 3.7 11.2 3.8 13.3.6 2.6-4 .7-6.8-7.5-10.5-5.2-2.4-7-3.8-6.7-5 .4-2 1.3-1.8 12 3.1 4.8 2.3 8.6 4.6 8.4 5.2-.2.6-1.1 1-1.9 1-1.2-.1-1.5.7-1.1 3.5.4 2.7-.1 4.3-1.7 6.4-2.7 3.5-6.4 3.5-14.5.1zM27 341.7c0-1.1 25.9-12.8 28.3-12.7.5 0 .7.7.5 1.6-.2 1-5.2 3.7-13.1 7-13.5 5.7-15.7 6.2-15.7 4.1zm4-15.2c0-.8.6-1.5 1.2-1.5.7 0 .1-1.1-1.4-2.5-6.8-6.3-4.6-11.8 6.2-15.7 4.1-1.5 8.1-2.7 8.8-2.7 2.1-.1 1.3 2.9-1 3.8-1.3.5-4.9 1.9-8.1 3.1-6.5 2.5-8.3 5.6-5.2 9 2.7 3 4.7 3.2 11 1 6.9-2.4 9.5-2.5 9.5-.6 0 .9-3.4 2.6-9.3 4.5-10.5 3.5-11.7 3.7-11.7 1.6zm435-.6c-8.4-3.4-10.3-12.8-3.9-18.8 4.2-3.9 13.5-2.4 17.7 2.7 1.5 2 1.6 8.3 0 11.7-2.1 4.7-8.2 6.6-13.8 4.4zm9.6-3.7c.6-.4 1.7-1.8 2.3-3 2-3.7-.2-7.7-5.1-9.7-8.2-3.3-14.8 2.8-10.2 9.3.9 1.3 2.6 2.7 3.8 3.2 2.6 1.1 7.7 1.2 9.2.2zM369.5 319c-13.6-1.4-30.2-6.9-40.5-13.5-7.6-4.8-14.6-12.8-19-21.7-5.9-12.2-7.3-19.9-6.7-39.8.5-18.3 1.9-24.8 8.3-37.1 10.5-20.1 35.1-31.9 66.1-31.9 33.2.1 59.2 13.3 69.7 35.3 7.6 16 9.3 41 4.1 61.2-4 15.3-13.4 28.7-25.5 36-13.9 8.4-38 13.3-56.5 11.5zm21.5-37.3c8.8-4.3 10.5-9.8 10.5-36.2 0-19.4-.8-24.5-4.3-28.6-7.2-8.6-26.2-9.8-35.2-2.3-5.1 4.4-6.4 11-6.4 32.4-.1 20.1.8 24.9 5 30 6.6 7.7 19.8 9.8 30.4 4.7zm-165.2 35.7c-8.4-1.5-19.2-5.3-24.5-8.5-4-2.5-5-1.9-5.5 3.1l-.3 3.5-14.4.3c-10.9.2-14.6-.1-15.3-1-1.3-2.2-1-47.2.4-48.6.8-.8 5.3-1.2 13.6-1.2h12.5l5.9 6.5c11.8 12.9 30.4 18 50.6 13.9 1.9-.4 4-1.7 4.9-3.1 1.5-2.3 1.5-2.6-.3-4.3-1.1-1.1-10.1-4.4-20.4-7.5-10.2-3.1-22.8-7-28-8.6-30.6-9.8-42.3-23.3-40.7-47.4 1.2-19.5 13-31.9 35.7-37.6 7.2-1.8 10.3-2.1 21.5-1.6 14.6.6 25 2.9 34.7 7.8 3.2 1.6 6.3 2.7 6.8 2.4.6-.4 1-1.9 1-3.5s.7-3 1.6-3.4c.9-.3 7.1-.6 13.9-.6 9.2 0 12.5.3 13.4 1.4.8.9 1.1 8.1.9 23.7l-.3 22.4-14.1.3-14.2.3-5.6-5.5c-3.1-3.1-8.3-6.8-11.8-8.5-13.4-6.3-34.9-8.1-38.9-3.2-4.7 5.8-1.8 7.6 24.3 15 38.3 10.7 44.1 13.3 54 24 11.1 11.9 14 24.9 9.1 40.6-4.7 14.8-17.3 25.3-35.1 29-8.4 1.8-25.2 1.8-35.4-.1zm-159.2-2.3c-1.1-1.7-1.7-21.5-.9-26.6l.8-5 9.2-.5c5-.3 9.4-.7 9.6-1 .3-.3.7-15.7 1-34.2.3-24.1.1-34.2-.7-35.2-.7-1-4.1-1.8-10.1-2.3l-9-.8-.3-16.2c-.2-16.2-.2-16.3 2-16.8 1.3-.3 21.4-.4 44.8-.3l42.5.3v34l-9.3.3c-6.2.2-9.4.7-9.7 1.5-.2.7-.6 16.2-.8 34.5-.4 28.4-.3 33.5 1 34.7 1 1.1 3.9 1.5 10.4 1.5h8.9v33h-44.4c-25.7 0-44.7-.4-45-.9zm-43-11.6c-.3-.9-1.8-1.5-3.6-1.5-3.6 0-4.2-2.7-.7-3.2 1.8-.2 2.2-.9 2.1-3.5-.2-3.8 2.3-4.7 2.8-1 .3 1.9.8 2.2 4.5 1.9 2.3-.1 5.9-.8 8-1.5 3.1-1 3.9-1.8 4.1-4 .4-3.5 2.6-3 3 .7.6 4.6-.7 5.5-13.5 8.6-2.5.6-4.3 1.7-4.3 2.5 0 2-1.7 2.7-2.4 1zm467.1-.2c-1.4-1.3-.7-3.3 1.1-3.3 2.4 0 3.2.8 2.5 2.6-.5 1.5-2.5 1.9-3.6.7zm-13.2-3c-11.8-2.8-13.5-3.4-13.5-4.8 0-2 3.8-1.8 13.5.8 5.2 1.4 8 2.7 8 3.6 0 2-1.2 2.1-8 .4zm7.7-11c.3-2.7.1-2.8-6.9-4.2-7.7-1.4-10.3-.8-10.3 2.6 0 .8-.6 1.3-1.2 1-1.8-.6-1.1-4.8 1.1-7.1 1.7-1.7 2.5-1.7 8.3-.7 8.8 1.5 10.8 1.4 10.8-.5 0-.9.6-1.4 1.3-1.1.6.2 1.1 1.1.9 1.9-.1 1 .9 2 2.8 2.6 3.9 1.4 3.8 3-.2 3.4-2.5.2-3.4.8-3.6 2.6-.5 3.3-3.4 2.9-3-.5zm-462.8-5.1c-5.6-4.4-5.6-11.9-.1-15.2 6.2-3.8 7-3 8.2 7.3.6 5.1.9 5.8 2.7 5.5 1.2-.2 3-1.5 4.1-3 1.7-2.3 1.8-3.2.9-6.9-1.2-4.6-.9-6 1-4.1.6.6 1.3 3.6 1.6 6.6.4 5.1.2 5.7-2.6 8.6-2.6 2.6-3.8 3-8.4 3-3.5 0-6-.6-7.4-1.8zm5.7-6.7c-.3-5.7-.7-6.5-2.6-6.5-4.4 0-6.1 7.8-2.2 10.5 3.8 2.7 5.2 1.6 4.8-4zm448.2-4.5c-7.7-.5-9.7-1.5-7.1-3.4 1.2-.9 1.4-1.6.6-2.9-.5-1-.8-3.4-.6-5.5.4-4.5 4-6.8 8.1-5.3 3.3 1.3 4.8 4.1 5 9.3.2 4.5 1.5 5.5 4.7 3.8 1.8-1 2.1-1.9 1.8-5.6-.2-2.8.1-4.4.8-4.4 1.6 0 2.6 6.2 1.5 9.2-1.8 4.7-4.3 5.5-14.8 4.8zm3.7-6.7c0-5.7-4.6-9.3-7.8-6.1-2.7 2.7-.7 7.5 3.8 9.1 3.3 1.2 4 .7 4-3zm-463-6.4c0-.6.9-1.3 2-1.6l2.1-.6-2.1-1.4c-2.3-1.6-2.7-5.3-.5-5.3.8 0 1.5.6 1.5 1.4 0 3.4 3 4.6 11.1 4.6 6 0 7.9.3 7.9 1.4 0 1.8-4.4 2.6-14.1 2.6-5.1 0-7.9-.4-7.9-1.1zm452.6-10.1c-.8-4.9-.6-14.7.4-15.3.4-.3 4.7 2.4 9.5 6 4.7 3.6 8.8 6.5 9 6.5.3 0 .5-2.7.5-6.1 0-4.4.3-6 1.3-5.7 1.8.7 2.3 16.8.4 16.8-.7 0-4.9-2.7-9.3-6-4.3-3.3-8.3-6-8.7-6-.5 0-.8 2.1-.7 4.8.1 2.6.1 5.5.1 6.5-.2 2.9-1.8 1.9-2.5-1.5zM17 243.7c0-.7.5-1.8 1.2-2.5.9-.9.9-1.5 0-2.4-.7-.7-1.2-2.9-1.2-4.9 0-2.9.6-4.3 2.8-5.9 2.4-2 3.6-2.2 10.9-1.8 4.6.2 8.5.7 8.9 1.1 1.8 1.7-1.5 2.7-9.1 2.7-7.8 0-8.6.2-10 2.4-1.7 2.5-1.1 5.4 1.4 7.3.9.6 5.1 1.4 9.3 1.8 5.7.5 7.8 1.1 7.8 2.1 0 1.1-2.3 1.4-11 1.4-8.4 0-11-.3-11-1.3zm452-15.2c0-1.6 2.4-2.1 14.3-3 7.1-.5 7.7-.4 7.7 1.3 0 1.6-1 2-6.7 2.5-11.2 1.1-15.3.9-15.3-.8zm27-2.5c0-1.1.7-2 1.5-2s1.5.9 1.5 2-.7 2-1.5 2-1.5-.9-1.5-2zm-465.5-7c-1.1-1.3-2-4.1-2.3-7.5-.4-4.5-.8-5.5-2.3-5.5-2.9 0-5.2 4.3-4.4 8.1.5 2.4.4 3-.6 2.7-2.8-.9-2.3-9.3.7-12.2 1.7-1.8 9-2.1 16.2-.7 5.2 1 6.2 1.9 4.1 3.4-1.2.9-1.4 1.8-.7 3.6 1.2 3.3.1 7.9-2.2 9.1-3 1.6-6.5 1.2-8.5-1zm8.3-5.6c.4-3.7-1.9-6.4-5.3-6.4-2.7 0-3.6 2.9-2.2 7.3.8 2.4 1.4 2.8 4.1 2.5 2.7-.3 3.1-.7 3.4-3.4zm429.2 5.3c0-.8.7-1.7 1.5-2.1 1.2-.4 1-1-1-3-5.3-5.3-2-13.8 6-15.6 9.4-2.2 17.5 5.6 13.5 13.1-1.2 2.2-1.1 2.2 6.3 1 4.1-.7 4.7-.6 4.7.9s-2 2.1-11.2 3.8c-19.3 3.5-19.8 3.6-19.8 1.9zm16-6.2c3.9-3.5 1.9-9.7-3.5-11.1-3.2-.8-9.3 1.3-10.5 3.6-1.7 3.1-1.1 6.8 1.3 8.5 2.8 2.1 10 1.5 12.7-1zM33.2 195.1c-6.1-1.5-7.4-1.6-7.9-.5-.3.8-1.2 1.4-2 1.4-1 0-1.3-.6-.9-1.6s-.3-1.8-2.4-2.6c-4.4-1.5-4-4.2.4-3.5 3.2.5 3.5.3 4.1-2.4.9-4 2.7-3.7 2.3.4-.3 3.2-.3 3.2 6.7 5 7.7 1.9 9.2 1.7 10.3-1.2.4-1.3 1.2-1.7 2-1.2.9.6 1 1.5.1 3.9-.6 1.8-1.5 3.2-1.9 3.2-.5 0-1.4.2-2.2.4-.7.3-4.6-.4-8.6-1.3zm449.3-4.1c-1.2-3.8-7.5-4-18.2-.6-1.9.6-2.3.4-2.3-1.2s1.7-2.4 9.9-4.7c10-2.7 14.3-2.6 10.5.3-1.4 1-1.5 1.6-.6 1.9 1.6.6 4.2 3.2 4.2 4.3 0 1.8-2.9 1.8-3.5 0zM36.8 180.7c-5.4-1.7-9.8-3.3-9.8-3.6.1-2.9 2-2.8 11.5.1 5.5 1.7 10.1 3.2 10.3 3.3.5.4-1 3.5-1.7 3.4-.3-.1-5-1.5-10.3-3.2zm422.5-1.9c.4-1.4-.2-3.1-1.9-5.1-3.1-3.7-2.8-7.3.8-10 2.4-1.8 3-1.8 5.8-.7 1.8.8 4.1 3 5.6 5.6 2.2 3.8 2.8 4.2 4.5 3.4 2.3-1.3 2.5-5.8.4-8.6-1.7-2.3-1.9-3.4-.5-3.4 1.5 0 5 6.1 5 8.7 0 3.6-4.1 7.1-11.4 9.8-8.3 3.1-9 3.1-8.3.3zm9.4-5.4c.8-2.1-2.9-6.8-5.6-7.2-4.5-.7-6.6 3.5-3.4 7 2 2.3 8.1 2.5 9 .2zm-449 2c-1.4-1.5-.6-3.4 1.4-3.4 1.4 0 1.9.5 1.7 1.7-.3 1.8-2 2.7-3.1 1.7zm21.6-3.5c-4.7-1.4-8.3-6.2-8.3-11.1 0-3.2.7-4.7 3.4-7.4 4-4 7.7-4.4 13.4-1.5 8.3 4.3 8.1 16.2-.3 19.7-3.8 1.6-3.8 1.6-8.2.3zm10.5-5.6c3.8-5.2-1.7-12.7-9.1-12.1-3 .2-4.5 1-6.1 3.1-1.9 2.6-1.9 3-.6 5.5 3.2 5.6 12.6 7.7 15.8 3.5zm68.7-6.3c-1-1.6 6.3-11.7 15.2-21 25.1-26.4 57.6-43.2 94.8-49.1 11.8-1.9 37.8-1.6 50.5.6 24.2 4.1 49.9 14.6 69 28.2 14.8 10.6 39.9 37 38.7 40.7-1 3.1-4.1 1.1-12.1-8.3-8.2-9.5-19.2-20-24-23-2.1-1.3-2.9-1-9.7 3-4.1 2.3-7.6 4.4-7.8 4.6-.3.2.5 1.6 1.7 3.1 7.6 9.3 14.2 18.6 14.2 19.8 0 .8-1 1.4-2.4 1.4-1.9 0-3.8-1.7-8-7.2-3-4-7-8.8-8.9-10.6l-3.4-3.3-7.5 3c-4.1 1.6-10.1 3.7-13.2 4.6-6.3 1.9-6.4 2.1-3.5 9.2 2.7 6.7-2.8 6.8-6.2.1-1.1-2.1-2.6-4.1-3.4-4.4-.8-.4-6.4.1-12.4 1S268.8 154 266 154c-6 0-9 1.3-9 4 0 1-.6 2-1.2 2.3-2 .7-4.8-1.2-4.8-3.2 0-2.4-1.9-3.1-8.3-3.1-2.9 0-9.7-.7-15.1-1.5-14.5-2.2-14.3-2.2-16.8 3-4 8.1-9.5 7.1-5.9-1.1 1.2-2.6 1.8-5.1 1.4-5.5-1.6-1.6-25.2-9.2-26.7-8.6-.8.3-4.1 3.9-7.3 7.9-7.8 9.8-10.9 12.8-12.7 12.8-3.7 0-.7-6 8.3-16.8 2.8-3.4 5.1-6.5 5.1-7s-3.2-2.8-7.1-5.1c-5-3-7.8-4.1-9.4-3.7-3.1.8-16 13-25.1 23.8-7.2 8.4-9.5 10.1-10.9 7.8zm130.3-27.2c.2-12.8 0-15.9-1.3-17.1-1.7-1.8-8.6-3.1-11.3-2.3-1.9.6-16.1 20.5-19.6 27.3-1.5 3-1.5 3.3.1 4.1 1 .5 6.1 1.5 11.3 2.1 5.2.7 10.2 1.4 11 1.6.8.2 3.3.2 5.5.2l4-.2.3-15.7zm27.2 14c4.7-.6 9.5-1.4 10.8-1.9l2.3-.9-2.2-4.1c-2.8-5.5-14.2-21.9-16.9-24.4-1.5-1.4-3.5-2-6.6-1.9-7.2.2-7.4.5-7.4 18.4 0 8.6.3 16 .7 16.4.8.7 3.2.5 19.3-1.6zm-60.8-15.3c3.8-6 8.3-12.6 9.9-14.6 3.6-4.5 3.7-6.7.3-7.9-4.7-1.8-7.7-1-15.8 4.1-11.1 7.1-25.6 19-25.6 21.1 0 1 2.5 2.1 13.5 5.9 4.4 1.5 8.6 2.7 9.4 2.6.7-.1 4.5-5.1 8.3-11.2zm97.8 6.3c6.2-2.3 8.3-3.8 7.2-5.3-2.3-3.3-23.7-19.6-30-22.9-3.9-2-9.1-2.1-12 0-2.7 1.9-2.8 3.2-.3 5.8 1 1.2 5.1 7.1 9.1 13.1 10.3 15.6 9.2 14.6 15.3 12.8 2.9-.8 7.7-2.4 10.7-3.5zm-129.1-12.7c7.2-6.4 25.8-20.1 27.2-20.1 1.9 0 .8-3.1-1.4-4.1-1.8-.8-4-.3-11.3 2.4-17.1 6.6-37 17.5-36.1 20 .4 1.3 11.7 7.7 13.6 7.7.7 0 4.3-2.6 8-5.9zm152.7 1.7c3-1.8 5.4-3.7 5.4-4.3 0-2.7-24.1-15.5-37.8-20.1-8.3-2.7-10.9-2.7-11.9.3-.2.6 2.7 3 6.4 5.4 9.7 6.3 20.6 14.9 23.8 18.7 3.5 4.2 7 4.2 14.1 0zm-70.1-19.9c6.6-1.4 18.5-6.9 18.5-8.4 0-5.4-64-5.2-65.7.1-.2.6 2.7 2.5 6.4 4.2 12.8 5.9 26.1 7.2 40.8 4.1zm182.9 52c-.3-.6 0-1.6.7-2.1 1.2-.8 1.2-1 0-1.5-6.2-2.5-7.9-10-3.6-15.2 6.9-8.1 19.9-5.2 19.9 4.4 0 1.9.1 3.5.3 3.5.2 0 2.6-1.1 5.4-2.5 4.7-2.4 6.9-2.6 6.9-.4 0 .7-27 14.9-28.4 14.9-.3 0-.8-.5-1.2-1.1zm10.4-7.9c3.3-2.4 4.2-3.7 4.2-5.9 0-5.6-6.7-7.8-12.7-4.2-6.7 4.2-4.9 12.7 2.8 13 .9.1 3.5-1.3 5.7-2.9zm-410.3-5c-5-2.7-9-5.5-9-6.2 0-.7.7-1.2 1.5-1.1 1.2.2 1.5-.7 1.5-3.8 0-3.3.6-4.6 2.8-6.5 1.6-1.3 3.4-2.4 4.2-2.4 2 0 17.5 8.1 17.5 9.2 0 2.2-3.4 1.6-9.8-1.7-7.6-4-10.2-4-12-.1-1.6 3.6.5 6.6 7.6 10.6 5.7 3.2 7.4 5.2 5.4 6.4-.4.2-4.8-1.7-9.7-4.4zm388.2-9.7c-1.4-1.3-.6-2.1 5.3-5.9 3.2-2.2 6.4-4.9 7.1-6 1.5-2.9.4-5.8-2.7-7.2-2.6-1.3-5.8-.1-12.9 4.7-3.6 2.5-5.8 2.7-5.3.5.4-2.4 16.9-12.7 18.2-11.4.7.7.6 1.4-.2 2.2-.8.8-.3 1.5 2.1 2.7 1.8.9 3.8 2.8 4.5 4.4 2 4.1-.1 7.4-7.8 12.4-6.8 4.5-7.3 4.7-8.3 3.6zm-373-10.1c-2.1-2.3-2.2-6.8-.2-10.6 2.4-4.5 2-5.8-1.7-5.4-2.4.2-3.5 1.1-4.7 3.5-1.7 3.5-3.1 4.3-3.1 1.7 0-2.8 3.3-7.3 6.2-8.5 2.4-1 3.4-.8 7.5 1.7 6.2 3.6 11.3 7.4 11.3 8.5 0 .5-.9.9-2 .9-1.5 0-2 .7-2 2.8 0 6.4-7.3 9.8-11.3 5.4zm7.7-2.5c2.6-1.9 2.4-6.7-.4-8.9-2.9-2.4-3.5-2.3-4.8.7-1.7 3.7-1.5 7.2.6 8.4 2.2 1.4 2.5 1.3 4.6-.2zm351-8.2c-.4-.9-.4-1.9-.1-2.2.4-.3-.8-1.3-2.6-2.2-1.7-.9-3.8-2.8-4.7-4.3-1.3-2.5-1.3-2.9.6-5.5 3.3-4.5 7.8-4.4 13.3.3 2.6 2.1 3.4 2.4 4.6 1.4 2.3-1.9 1.8-3.8-1.5-7.2-1.7-1.7-2.8-3.3-2.5-3.6 1.1-1.1 5.8 2.4 7.3 5.5 2.2 4.5.5 7.7-7.3 14.1-5.3 4.3-6.6 5-7.1 3.7zm5.5-7.3l2.2-1.7-3-2.9c-2.7-2.6-3.5-2.9-5.9-2-3.2 1.1-4 4.4-1.7 6.8 2.1 2.1 5.7 2 8.4-.2zm-356.8-6.9C62.6 91.9 60.8 89.9 63 88.5c1.1-.7 24.3 18 24.8 20 .8 3.5-2.6 1.7-13.7-7.2zm337.1-1.9c-3.8-2.7-2.8-6.3 3.3-12.4 4.6-4.5 5.5-5.9 5-7.9-.5-2.1-.3-2.3 1.7-1.8 1.3.4 2.9 0 3.8-.8 1-.9 2.1-1.1 3-.5 1.2.7 1.2 1.2-.3 2.8-2.1 2.3-2.1 3.1 0 5.4 2.1 2.4.9 3.6-1.5 1.5-1-1-2.3-1.7-2.9-1.7-.5 0-3.4 2.5-6.2 5.5-5.1 5.4-5.2 5.6-3.7 8 1.9 2.9.7 4-2.2 1.9zM94.5 90.7c-1.6-.8-4.7-3.2-6.7-5.5-6.1-6.8-6.3-14.7-.3-20.6 5.5-5.6 12.5-5.7 18.9-.4 4.1 3.4 7.6 9.5 7.6 13.3 0 3.6-3.4 9.9-6.4 11.8-3.5 2.3-9.6 3-13.1 1.4zm12.2-4.2c3.4-2.4 4.7-7.6 2.9-11.7-4.4-9.7-14-13.8-20-8.5-3.8 3.2-4.2 7.3-1.3 12.7 4.1 7.9 12.8 11.4 18.4 7.5zm290.5-1.2c-4.1-2-7.6-6.8-6.7-9.1.6-1.5.9-1.4 2.3.8 3 4.4 5.1 6 8.1 6 5.4 0 6.3-4.2 2.8-13.4-3.7-9.9 5.6-15.6 13.8-8.5 3.3 2.9 4.6 5.9 2.6 5.9-.5 0-2.3-1.3-3.9-3-3.5-3.4-6.2-3.8-8.5-1.2-2.2 2.4-2.1 3.4.3 8.2 3.4 6.6 2.6 12.1-2.1 14.5-3.5 1.9-4.6 1.8-8.7-.2zM117.1 66.5c-3.4-4.7-5.9-9-5.6-9.5.5-.8 1.1-.8 1.9-.1 1.5 1.3 2.6.4 2.6-1.9 0-2.4 2.6-4.5 3.5-3 .4.7.2 1.7-.4 2.3-2.2 2.2-1.1 6.8 3 12.7 3.7 5.3 4.3 8 2 8-.5 0-3.6-3.8-7-8.5zm22.5 5.6c-.3-.5.8-1.4 2.6-2 1.7-.6 4-1.9 5-2.8 2.1-1.9 2.4-7.1.4-9.8-1.3-1.8-1.4-1.8-2 .3-1 3-5.4 6.2-8.6 6.2-5.3 0-11-6.7-11-12.9 0-4.4 4.4-9.1 8.5-9.1 2.5 0 3.4-.5 3.8-2.1.8-2.9 1.8-2 6.8 6.3 6.8 11.5 8.1 14.6 7.4 17.9-1.2 5.2-10.9 11.3-12.9 8zm2.2-12.7c5.9-4.1-1.4-17.7-8.2-15.1-.8.3-2.2 1.7-3.1 3.1-1.4 2.1-1.5 3.1-.5 6 1.2 3.8 5.2 7.6 7.9 7.6.9 0 2.7-.7 3.9-1.6zM370.5 65c-.3-.5 2.1-4.9 5.2-9.7 5.5-8.3 8.1-10.4 7.6-6.4-.2 1.5.5 1.8 3.5 1.7 2.7-.1 3.7.3 3.7 1.4 0 1-.8 1.4-2.5 1.2-4.6-.5-6.5.7-10.8 6.8-4.2 5.9-5.5 6.9-6.7 5zm-17.1-10.4c-4.9-4.9-4.6-10.3.9-16.3 4.7-5.2 14.6-3.2 17.4 3.4 3 7.4-2.9 16.3-10.9 16.3-3.2 0-4.7-.7-7.4-3.4zm10.7-.6c2.4-1.3 4.9-6.1 4.9-9.5 0-3.2-3.3-6.5-6.6-6.5s-8 4.9-8.6 9.1c-.9 5.9 4.9 9.8 10.3 6.9zm-209.5-2.5c-3.9-3.9-2.3-9.2 4.1-13.3 3.4-2.3 3.4-2.4 1.7-4.3-2.2-2.5-4.5-2.4-7.8.2-1.5 1.2-3 1.9-3.3 1.5-1.1-1 2.8-4.5 6.4-5.7 4.8-1.5 7.5.5 11.8 9.1 4.2 8.3 4.3 9.4 1 8.6-1.4-.4-2.5-.2-2.5.3 0 2-4.4 5.1-7.1 5.1-1.5 0-3.4-.7-4.3-1.5zm8.6-3.2c2.7-2.4 2.2-9.3-.7-9.3-2.3 0-6.5 4.1-6.5 6.4 0 4.3 3.9 5.9 7.2 2.9zm173.8-.9c0-.4 1.6-4.5 3.6-9.1 2.7-6.3 3.4-8.7 2.5-9.6-1.6-1.6-1.3-2.9.7-2.5 1 .2 2.5-.8 3.7-2.7 2.6-3.7 6.1-5 9.8-3.6 3.5 1.4 2.5 3.4-1.3 2.6-2.2-.5-3.2-.1-4.9 2.1-2.2 2.8-1.5 5.4 1.6 5.4.8 0 1.3.6 1 1.3-.2.6-1.3 1-2.3.9-1-.2-2.3-.5-2.8-.5-.5-.1-2.5 3.5-4.5 8.1-2.5 5.9-4 8.2-5.3 8.2-1 0-1.8-.3-1.8-.6zm-161.3-6.6c-4.1-11.5-5.5-16.8-4.5-17.4.5-.3 1.5-.1 2.1.5.8.8 1.8.4 3.9-1.6 3.2-3.1 7.8-3.5 10.7-.9 2.1 1.9 7.4 16.3 6.5 17.7-1.4 2.3-3.2.3-5.3-6.1-1.2-3.8-2.9-7.7-3.8-8.5-2.3-2.4-6.5-1.5-8.3 1.7-1.4 2.5-1.3 3.3.9 9.7 2.2 6.4 2.2 9.1.2 9.1-.5 0-1.5-1.9-2.4-4.2zM318 40c0-.6.9-4.3 2-8.2 1.8-6.5 1.8-7.4.5-9.5-2.1-3.1-6.9-3.1-8.9 0-.8 1.2-2.2 5-3.1 8.5-1.6 5.6-3.5 7.7-4.9 5.4-.9-1.5 5.1-20.7 6.5-20.7.8 0 1.3.6 1.1 1.3-.2 1 .9 1.1 4.5.7 4-.6 5.2-.3 7.1 1.5 2.7 2.6 2.8 6.1.5 15.3-1.3 5.1-2.2 6.7-3.5 6.7-1 0-1.8-.5-1.8-1zm-116.6-3.5c-1.3-3.3-5.1-20.1-4.7-20.7.2-.5 1-.8 1.7-.8.9 0 2.3 3.8 4 10.5 1.4 5.7 2.6 10.6 2.6 10.9 0 1.2-3.2 1.4-3.6.1zm7.9-2c-.2-.7 1.6-5.1 4.1-9.7 2.5-4.7 4.6-8.9 4.6-9.5 0-.7-1.2-.8-3.7-.2-5.4 1.2-7.3 1.1-7.3-.5 0-.9 2.3-1.7 6.9-2.5 3.9-.6 7.5-1.1 8-1.1 2.1 0 1.1 3.2-3.5 11.7-2.5 4.6-4.4 8.6-4.1 8.9.2.3 2.4 0 4.8-.5 6.1-1.4 7.9-1.3 7.9.4 0 .9-.9 1.5-2.2 1.5-1.3 0-5.2.6-8.6 1.4-5.1 1-6.5 1-6.9.1zm72.5-3.4c-2.9-2.6-3.3-3.5-3.2-8 .1-6.3 2.7-10.2 7.6-11.5 4.1-1 7.7-.3 10.8 2.2 3 2.4 3.8 9.7 1.6 14.4-3.1 6.5-11.3 7.9-16.8 2.9zm11.3-2c5.4-5.5 3.2-15.1-3.5-15.1-4.1 0-6.6 2.6-7.3 7.8-.6 4.5.9 7.9 4 9.2 3.3 1.3 3.6 1.2 6.8-1.9zm-63.1 1c-1.1-2.2-1.3-5.2-.4-7.6.7-1.8 5.5-4.5 8.1-4.5 3.3 0 4.6-1.5 3.4-3.8-1.4-2.7-4.2-3.5-7.6-2.2-1.5.6-3.1.8-3.4.4-1.2-1.2 3.4-3.4 7.1-3.4 5.4 0 7.5 2.5 8.2 9.7.4 3.2.8 7.3 1.1 9.1.3 2.6 0 3.2-1.6 3.2-1 0-1.9-.5-1.9-1.1 0-.5-1-.3-2.2.5-3.3 2.3-9.5 2.1-10.8-.3zm9.8-1.7c3-2.1 3.2-8.4.2-8.4s-6.8 2.1-7.3 4.1c-.5 2 1.8 5.9 3.6 5.9.7 0 2.3-.7 3.5-1.6zm16.4 2c-2-1.4-2.2-2.4-2.2-10 0-6.6-.3-8.6-1.5-9-.8-.4-1.5-1-1.5-1.5s.7-.9 1.5-.9c1 0 1.5-1 1.5-3 0-2.3.4-3 2-3s2 .7 2 3c0 2.7.3 3 3 3 3.8 0 4 1.8.3 2.2-2.7.3-2.8.6-3.4 6.8-.7 8.2-.2 9.9 2.7 10.6 2.8.7 3.1 1.9.8 2.8-2.2.9-2.7.8-5.2-1zm12.2.2c-.3-.7-.2-5.8.3-11.2.7-8.5 1.1-9.9 2.7-10.2 1.8-.4 1.8.2 1.1 10.5-.4 5.9-.9 11.1-1.2 11.6-.7 1.2-2.3.8-2.9-.7zM194.5 10c-.4-.7-.3-1.6.3-2.2 1.4-1.4 4.5-.2 4 1.5-.6 1.6-3.4 2.1-4.3.7zm75.7-7.2c.2-1.2 1-2.3 1.8-2.3 2.2 0 1.9 3.9-.3 4.3-1.5.3-1.8-.1-1.5-2z" fill="#000"/>
</svg>
