<svg version="1.0" xmlns="http://www.w3.org/2000/svg" preserveAspectRatio="xMidYMid meet" viewBox="0 0 368 407">
  <path d="M55.95 330.35c-1-1.15-3.3-4.6-5.1-7.6-1.8-3.05-4.05-6.6-5.05-8-1-1.35-1.8-2.75-1.8-3.05 0-.35-.75-1.75-1.7-3.15-5.35-7.95-16.75-29.3-17.5-32.85-.6-2.7.6-3.8 12.2-10.65 5.4-3.2 10.05-6.4 17.8-12.1 5.75-4.25 13.5-9.4 20.6-13.65 3.05-1.85 5.6-3.6 5.6-3.85s.5-.45 1.15-.45c.65 0 2.1-.45 3.25-1s2.65-1.25 3.35-1.5c.7-.25 1.25-.75 1.25-1.05 0-.35.45-.45 1.2-.25.9.2 1.4.05 1.7-.5.3-.55.8-.75 1.3-.55.9.35 10.7-1.95 11.65-2.75.35-.25.85-.35 1.1-.15.85.5 10.05-1.95 12.75-3.35 2.2-1.15 7.6-4.9 9.55-6.6 7.75-6.75 14.25-12.75 15-13.8.45-.7 1.95-2.1 3.25-3.15 1.35-1.05 2.85-2.3 3.35-2.75.5-.5 2.7-2.4 4.85-4.35 2.15-1.9 4.65-4.05 5.55-4.75.9-.7 4.25-3.55 7.5-6.35 3.2-2.8 6.1-5 6.5-4.85.35.15.75 1.15.9 2.2.15 1.1.9 2.95 1.7 4.1.8 1.2 1.8 2.9 2.2 3.8.35.9.95 1.6 1.25 1.6.35 0 .7.35.9.75.15.4.8 1 1.45 1.3 1.8.8 6-1.45 11.4-6.1 2.8-2.45 4.95-3.95 5.65-3.95 1 0 1.2-.3 1.5-2.6.15-1.45.3-3.45.3-4.45 0-2.1 1.2-3.45 2.1-2.55.35.35.8.6 1 .6.45 0 2.4-3.7 2.4-4.6 0-.8 2.25-1.9 3.85-1.9.7 0 1.15.3 1.15.75 0 .9 3.5 1.05 4.35.2.35-.35.6 1.35.85 5.65.4 7 1.7 11.7 3.85 13.85 1.35 1.35 1.65 3.15 2.2 13.65.1 1.25.3 2.55.45 2.85.4.65 1.45 27.5 1.1 28.4-.15.35-.15 2.05.05 3.75.25 2.75.4 2.95 1 2.1.35-.5.55-1.2.45-1.55-.15-.35 0-.65.35-.65 1.45 0 9.7-18.05 14.3-31.25 2.8-8.05 6.2-13.45 11.55-18.4 2.7-2.5 4.3-3.55 6.15-4.1 3.1-.9 8.45-.95 11-.05 1.05.4 2.35.6 2.85.45.9-.25 1 0 1 1.85 0 1.65-.3 2.4-1.25 3.3-.7.65-1.25 1.45-1.25 1.85 0 .4-.3 1-.7 1.3-.4.3-.8 1.3-.95 2.2-.1.9-.6 3.45-1.1 5.75-.65 3-.75 4.3-.35 4.7.4.4.3.9-.35 1.85-.5.7-1.3 2.65-1.75 4.3-.5 1.65-1.45 4.75-2.1 6.95-1.2 3.75-1.25 5.6-.25 5.2.25-.1 1.8-1.4 3.4-2.95 6.3-6 10.8-8.4 15.4-8.2 2.4.15 8.25 2.95 8.25 4 0 .4.3.75.65.75.35 0 1.3.65 2.1 1.5.8.8 1.2 1.5.9 1.5-.3 0-.4.55-.25 1.25.4 2.1-.3 3.45-2.4 4.7-1.1.7-2.95 2.5-4.15 4-1.2 1.55-3.45 3.95-5.05 5.3-7 6.2-10.05 9.2-11.9 11.65-1.05 1.45-2.15 2.5-2.35 2.35-.25-.1-1.4.85-2.55 2.15-3.05 3.4-1.95 2.4-17.4 16.4-1.85 1.7-3.4 3.3-3.45 3.65-.1.3-.2.8-.25 1.15-.1.45 2 .8 7.45 1.2 11.1.9 14.65 2.35 18.2 7.6 1.3 1.9 1.5 2.65 1.3 4.25-.35 2.45-.6 2.7-3.1 3.05-1.1.15-2.8.45-3.75.75-.95.3-2.55.5-3.5.55-5.6.05-11 .5-21.45 1.7-6.45.75-12.05 1.2-12.45 1.05-.45-.15-.9-.05-1.05.2-.2.25-2.55.85-5.3 1.3-2.75.45-5.45.9-6 1-.9.2-3.1 1.55-12 7.6-3.15 2.15-6 3.9-10.25 6.4-5.65 3.3-7.6 4.7-11.45 8.2-10.55 9.55-10.85 9.6-30.8 6.8-4.65-.65-10.05-1.35-12-1.55-4.65-.45-46.75-.6-46.75-.15 0 .2-1.5.6-3.35.95-1.9.35-4.95 1.15-6.9 1.8-3.3 1.05-5.55 2.05-17.7 7.75-2.8 1.35-5.5 2.45-6 2.45-.45-.05-1.6-1-2.6-2.15zm95.95-72.95c-.75-2.3-.9-2.35-.9-.25 0 1.3.2 1.85.7 1.85.6 0 .65-.3.2-1.6zm34.95-4.55c9.8-11.35 9-10 10.4-16.95 2.1-10.55 2.75-15 3.25-22.45.6-8.6.65-17.45.15-17.45-.65 0-2.45 2.15-3.4 4-2.65 5.25-10.05 13.15-25.25 27-13.95 12.7-22.5 21.85-21.65 23.15.25.4.45.2.55-.5.2-1.4.8-1.45 2.1-.15.55.55 1.6 1 2.3 1 2.35 0 22.45 6 25.1 7.45 1.25.7 1.8.25 6.45-5.1zm-4.1-81.9c-.45-.65.7-1.9 2.7-3.1l1.55-.9v1.65c0 .95-.25 1.95-.6 2.3-.75.75-3.2.8-3.65.05z" fill="#ffb091"/>
  <g fill="#5e520b">
    <path d="M267.5 246.05c0-1.4.15-1.55 1.5-1.55.85 0 1.5.2 1.5.45s-.65.95-1.5 1.55l-1.5 1.05v-1.5zm-66-72.5c-.25-.55-.5-1.8-.5-2.85 0-1.55.1-1.75.75-1.2.45.35.9.5 1.1.35.15-.2-.3-4.05-1-8.55-1-6.3-1.65-8.95-2.8-11.3-1.8-3.65-3.85-6.5-4.75-6.5-1.15 0-4.4-4.15-6.05-7.75-.55-1.1-1.1-2.1-1.25-2.25-.75-.55-2.95-6.95-3.4-9.75-.5-2.9-.45-4.05.15-8.75.4-2.8 2.3-8.5 2.85-8.5.25 0 .65.6.9 1.4 1.1 2.9 3.35 6.8 5.15 8.85 1 1.2 2.2 3.1 2.6 4.25 1 2.9 2.1 9.8 2.5 15.9.25 3.25.6 5.25 1 5.5.35.2.9 1.85 1.2 3.65.75 3.95 1.35 5.15 1.8 3.7.95-2.85 1.4-3.7 1.85-3.45.7.45 2.25-1.15 2.65-2.7.15-.7.75-1.9 1.25-2.6 1.5-2.1 2.8-6.45 5-16.4.25-1.15.7-2.55 1-3.05.25-.55.5-1.45.5-2 0-.6.3-1.05.65-1.05 1.5 0 9.45-14.35 9.95-18 .2-1.25.2-1.2 1.3.5.6.95 1.35 2.65 1.6 3.75s.95 3.55 1.55 5.45c1.85 6.1 1.4 9.45-2.25 16.7-2.4 4.75-5.5 8.05-9.55 10.05-4.85 2.45-9.35 6.85-11.55 11.3l-1.8 3.6.2 9.5c.1 6.25.35 9.75.75 10.2.45.55.35.95-.35 1.85-1.1 1.35-2.3 1.4-3 .15z"/>
    <path d="M208 166.4c0-2 1.15-7.8 2.6-12.9 1.7-6.25 4.55-9.5 12.1-13.7 2.3-1.3 6.2-4.2 8.85-6.55 3.7-3.35 4.75-4.05 5.1-3.5.5.95-2.65 14.15-4.15 17.3-2.8 5.95-3.4 6.6-13.1 13.6-3.55 2.5-6.4 4.95-6.4 5.35 0 .85-2.15 2-3.85 2-.95 0-1.15-.25-1.15-1.6zm-19.3-.85c.8-.9.8-1-.3-2.15-.65-.7-1.75-1.65-2.5-2.15-1.5-.9-1.9-1.9-.65-1.45.4.2.75.2.75.1 0-.45-3.05-8.55-3.7-9.8-.5-1.05-.55-2-.15-4.45.3-1.75.7-3.15.95-3.15 1.55 0 7.4 4.7 7.4 5.95 0 .65 2.25 2.25 3.25 2.35.55.05.95.35.85.7-.1.35.5 1.45 1.3 2.45 1.1 1.35 1.8 3.25 2.7 7.2l1.3 5.35h-1.5c-.8 0-2-.35-2.65-.8-1.15-.75-1.35-.75-2.5 0-.65.45-2.15.8-3.3.8-2.05 0-2.1-.05-1.25-.95zm14.8-23.8c-.25-1.65.25-5.75 1.35-11 1.7-8.15 1.5-12.7-.8-17.2-5.05-9.9-5.55-17.25-1.75-24.85.95-1.85 1.7-3.75 1.7-4.15 0-.45.3-1.3.65-1.85 1.75-3.05 3.2-6.15 3.85-8.05.35-1.2.95-2.15 1.35-2.15.8 0 .8.95-.05 4.5-.55 2.3-.55 2.9 0 3.4s.55.8-.05 1.9c-.7 1.4-.6 2.15 1.55 8.25 2.95 8.4 3.3 11.15 2.2 18.2-.4 2.75-1 4.6-1.95 6-2.3 3.4-3.45 6.8-5.05 14.8-1.65 8.1-2.9 13.05-3 12.2z"/>
  </g>
  <g fill="#e68a70">
    <path d="M52.6 298.25c-3.85-4.3-9.7-14.3-9.25-15.6.45-1.25 1.05-.6 3.8 4 1.5 2.5 4 6.3 5.55 8.35 1.55 2.05 2.75 3.95 2.65 4.2-.35 1.05-1.3.75-2.75-.95zm136.9 1.15c0-.8 1.7-2.95 9.65-12.3 10.2-12.05 17.75-21.9 19.7-25.75 1.35-2.75 1.9-4.8 2.75-10 1.1-7.15 1.55-8.85 2.45-8.85.9 0 .2 7.95-1.25 13.6-1.75 6.9-3.7 10.05-13.8 22.45-3.45 4.25-7.7 9.4-9.5 11.45-1.8 2.05-4.35 5.15-5.65 6.9-1.5 1.9-2.8 3.1-3.4 3.1-.5 0-.95-.25-.95-.6zm24.4-7.45c-2-1.15-1-2.25 9.15-10.05 3.5-2.65 7.5-6.15 8.9-7.75 3.75-4.2 9.05-11.7 11.9-16.9 2.45-4.45 7.65-15.25 7.65-15.85 0-.15.75-1.95 1.7-4 .95-2 2.5-5.4 3.45-7.5 1.65-3.65 2.4-4.5 3.05-3.5.3.5-1.4 5.2-4.6 12.6-5.4 12.55-10.15 21.6-14.65 27.95-1.15 1.65-2 3.15-1.85 3.3.65.65 12.05-9.5 25.2-22.4 7.75-7.65 14.4-13.85 14.75-13.85.35 0 1.25-.75 2-1.6l1.4-1.65.05 1.6c0 1.3-.3 1.8-1.4 2.35-.8.4-2.25 1.7-3.2 2.9-1.95 2.4-21.35 21.65-27.65 27.45-2.2 2.05-4.05 3.85-4.15 4.05-.1.25-.5.4-.85.4-.6 0-8.1 4.9-12.1 7.9-11.7 8.8-17.15 13.35-17.15 14.4 0 .8-.4.85-1.6.15zm-54.05-2.3c-.2-.15-.35-2.6-.35-5.45 0-3.75-.3-6-1.05-8.5-1-3.35-3.7-10.15-5.35-13.7l-.85-1.75-.15 2c-.1 1.15.1 4.5.4 7.5 1.45 15.3 1.65 18.8 1.1 19.35-1.15 1.15-1.7-.5-2.15-6.4-.25-3.3-.75-8.85-1.2-12.45-.4-3.55-.75-9.15-.75-12.35 0-3.2-.2-6-.5-6.15-.65-.4-3.35 3.85-7.85 12.5-2.35 4.5-4.25 7.5-4.65 7.5-1.15 0-.7-1.45 2.05-7.25 6.7-13.95 13.55-22.3 31.95-39 10.9-9.95 19.9-19 22.6-22.75 3.3-4.65 6.5-12 7.85-18.1.4-2 .4-2.1-.5-1.6-.85.4-.95.3-.95-1 0-1.05.3-1.6 1-1.8.55-.15 1-.55 1-.8s.5-.45 1.05-.45c1.05 0 1.1.15.75 3.85-.2 2.1-.8 5.1-1.4 6.6-.55 1.55-1.3 3.85-1.65 5.15-2 7.05-11.2 18.1-25.75 30.9-2.35 2.05-5.5 4.9-7 6.3-1.5 1.4-3.95 3.65-5.45 5-1.45 1.35-4.15 4.25-6 6.4l-3.3 4v3.75c0 3.5.3 4.5 3.25 12 1.8 4.5 3.6 8.45 4.05 8.7.95.6 8.5-2.25 12.35-4.65 3-1.85 5.7-3.1 6-2.75.15.15 0 1.4-.35 2.8-.45 1.65-.6 4.75-.5 9 .3 10-1.6 8.3-2.3-2.1l-.35-5.3-2.35.85c-3.9 1.45-9.9 4.5-10.75 5.45-.65.75-.7 1.45-.3 4.6.55 4.25.65 8.5.2 9.65-.3.8-1.3 1.05-1.85.45zM255 287.1c0-.8 2-1.55 5.8-2.05 2.15-.3 4.95-.85 6.1-1.15 1.8-.45 2.3-.45 2.65.15.35.55.45.45.45-.4 0-.6.2-1.2.45-1.35.55-.35 1.25 2.25.7 2.7-.8.7-5.1 1.6-6.15 1.25-.6-.2-1.25-.15-1.45.1-.4.65-6.05 1.2-6.05.6 0-.25-.35-.45-.75-.45s-.75.25-.75.5c0 .3-.2.5-.5.5-.25 0-.5-.15-.5-.4zM24.8 273.9c.6-1.1 2.35-2.9 2.8-2.9.85 0 .35 2-.7 2.7-1.35.95-2.6 1.05-2.1.2zm35.7-17c0-1.2 3.05-6.9 4.25-7.9.4-.35 1.1-.45 1.55-.3.65.25.5.8-1.1 3.7-2.4 4.35-3.3 5.55-4.05 5.6-.35 0-.65-.5-.65-1.1zm11.5-2.2c0-1.4 3.95-9.3 6.05-12.05 1.2-1.6 2.35-2.65 2.95-2.65 1.4 0 1.25.45-.95 3.55-1.05 1.5-2.95 4.8-4.25 7.35-1.35 2.7-2.6 4.6-3.05 4.6-.4 0-.75-.35-.75-.8zm127.25-2.3c-1.75-1.35-5.05-8.3-4.35-9 .9-.9 1.95-.05 2.6 1.9.35 1.05 1.4 3.1 2.3 4.55 2.4 3.75 2.2 4.7-.55 2.55zM95.7 240.25c-.65-1.6 4.8-7.95 5.85-6.9.6.6-.1 1.95-2.95 5.55-1.85 2.25-2.45 2.55-2.9 1.35zm141.8-21.75c0-.75.25-1 .9-.9.45.1.85.5.85.9s-.4.8-.85.9c-.65.1-.9-.15-.9-.9zm-33.5-6.3c-3-2.75-2.5-4.3.75-2.25 1.9 1.2 3.75 2.95 3.75 3.55 0 1.15-2.6.4-4.5-1.3zm-43.7-4.8c-2.2-2.3-5.4-7.25-6.05-9.25-.6-2.15.75-1.2 3.15 2.15 1.3 1.85 3.2 4.35 4.25 5.55 1.95 2.35 2.2 2.9 1.3 3.4-.3.2-1.5-.65-2.65-1.85zm3.2-6.75c-1.8-1.1-4.65-5.2-4-5.85.7-.7 2.85 1 4.7 3.65 1.7 2.35 1.35 3.45-.7 2.2zm4.65-5.25c-1.2-1.4-3.15-4.2-3.15-4.6 0-.75 1.95-.2 2.85.85 1.35 1.45 2.7 4.15 2.3 4.55-.55.5-.95.35-2-.8zm13.15-3.6c-.65-.6-1.6-1.3-2.05-1.5-.5-.15-.75-.45-.6-.65.2-.15.1-.6-.2-1-.45-.5-.3-.65.8-.65 1.65 0 4.25 2.45 4.25 4 0 1.35-.8 1.25-2.2-.2z"/>
    <path d="M191.5 189.05c0-1.45.15-1.55 1.75-1.55s1.75-.1 1.75-1.5.1-1.5 1.9-1.5l1.85.05-2.25 2c-1.25 1.05-2.85 2.45-3.6 3l-1.4 1v-1.5zm77.5.5c0-.5.35-1.2.75-1.55.45-.35.7-.95.55-1.25-.1-.3.45-1.15 1.25-1.8.8-.65 1.45-1.5 1.45-1.85 0-.35.4-.6.9-.5.65.1.9.75 1 2.55.15 2.4.15 2.4-1.85 3.25-1.15.45-2.05 1.15-2.05 1.5 0 .3-.45.6-1 .6-.65 0-1-.35-1-.95zM174.5 180c0-.95-.55-1.25-1.75-1-.65.1-.75.2 3.75-3.45l3.75-3.05.15 1.75c.15 1.5-.2 2.15-2 4.25-2.25 2.6-3.9 3.2-3.9 1.5zm9.75-10.55c-.2-.3-.25-.55-.2-.65.1-.05.95-.65 1.85-1.25l1.6-1.1v1.75c0 1.65-.1 1.8-1.45 1.8-.85 0-1.65-.25-1.8-.55z"/>
  </g>
  <path d="M269.9 285.2c-.4-.35.4-3.1 1.15-4 1.4-1.7 2 1 .65 3.05-.8 1.25-1.3 1.5-1.8.95zm9.65-51.25c.3-.65 2.1-2.75 3.95-4.7 1.8-1.9 3.7-4.1 4.2-4.8.45-.75 1.8-2 2.95-2.75 1.15-.8 2.2-1.5 2.3-1.55.15-.1.2-1.2.1-2.4-.1-2.6.65-2.95 2.4-1.05l1.1 1.15-1.85 3.2c-3.15 5.4-10.7 12.45-14.6 13.7-1.1.3-1.15.25-.55-.8zM267 202.8c-.45-1.3.4-6.65 2.35-13.95.1-.45 1.1-1.3 2.15-1.85l1.95-1-.3-2.5c-.35-2.8.3-3.25 2.35-1.6.9.7 1.1 1.4 1.1 3.4 0 4.45-3.5 13.35-6.65 16.95-1.85 2.05-2.3 2.15-2.95.55zm-84.5-10.15c-1.3-.9-4.1-3.9-4.5-4.85-.15-.3-.9-1.55-1.65-2.75-2.4-3.65-2.3-4.9.35-7.9 2.45-2.7 3.05-3.95 1.15-2.35-.6.5.55-.6 2.6-2.55 3.45-3.2 8.65-7.25 9.4-7.25.2 0 1.35-.5 2.55-1.05l2.2-1.1 2.4 1.2c2.3 1.15 3.1 2.15 5.6 7.1.5 1 1.1 1.85 1.3 1.85.45 0-.1 6.3-.65 7.65-.2.45-.55.85-.75.85-.2 0-1.4.85-2.55 1.95-5.85 5.15-8.4 7.15-10.9 8.3-3.7 1.8-5.05 1.95-6.55.9zm3.75-24.55c-.15-.15-1 .45-1.9 1.35l-1.6 1.7 1.9-1.4c1.05-.75 1.75-1.5 1.6-1.65zm35.4 20.1c-2.85-1.4-4.5-6.25-4.95-14.75l-.35-6.3L218 166c1.15-.8 1.75-1 1.9-.6.1.35.45.9.8 1.25.55.6 1.35 2.8 2.2 6.35.25.95.5 3.35.55 5.25.1 1.95.2 4.1.3 4.9.1.75 0 2.35-.15 3.6l-.35 2.2-1.6-.75z" fill="#8b4543"/>
</svg>
