<svg version="1.0" xmlns="http://www.w3.org/2000/svg" preserveAspectRatio="xMidYMid meet" viewBox="0 0 980 980">
  <g fill="#333">
    <path d="M541.65 899.9c-10.7-10.5-12.8-13.9-30.35-49.25-10.9-22-12.05-23.8-25.55-39.9-8.2-9.8-9.5-11.8-18.6-28.4-6.95-12.7-8.65-15.35-14.95-23.2-.35-.4-3.8-1.35-7.75-2.15-7.35-1.5-15.25-3.85-18.55-5.55-2.35-1.2-9.65-7.05-18.65-15-3.9-3.4-10.15-8.8-13.9-11.95l-6.9-5.75-4.25-.35c-3.4-.25-5-.7-8.05-2.1-3.2-1.55-4.7-2.75-10.15-8.2-12.1-12.1-14.05-18.1-17-52.3-1.3-15.05-2.35-19.95-7.8-36.95-6.2-19.35-6.7-33.3-1.55-43.05 4.4-8.35 13.15-13.15 26-14.1l4.35-.35V556l-4.3-3.1c-12.05-8.7-15.05-11.2-22.25-18.4-7.25-7.25-8.05-7.9-11.65-9.4-2.15-.9-5.15-1.9-6.65-2.2-2.7-.55-2.75-.55-3.9.85-1.05 1.4-1.2 1.4-3.1.85-2.5-.75-3.7-2.05-3.75-4.1-.1-3.1 3.7-4.1 6.5-1.75.85.7 2.15 1.25 2.95 1.25 1.4 0 5.85 1 7.9 1.8.95.35.95.35.25-.65-.4-.6-1.75-2.5-2.95-4.25-6.4-9.25-17.3-21-24.8-26.75-8.75-6.7-14.2-13.2-18.7-22.4-3.2-6.5-4.65-10.6-7.55-21.8-1.55-6.1-2.15-7.65-3.75-9.75-3.5-4.55-4.15-7.7-2-9.7 1.55-1.45 4.05-1.6 5.9-.35 3 1.95 4.05 7.5 1.95 10.35l-1.2 1.6 1.35 5.55c3.15 12.85 6.8 22.45 11.25 29.35 2.05 3.15 8.25 10.1 8.65 9.65.15-.1.05-1.05-.2-2.05-1.25-5.5-.2-13.85 2.8-22.3 1.1-3.1 1.15-3.55.5-4.3-.45-.5-.75-1.8-.75-3.2 0-2.05.25-2.65 1.7-4.1 2.1-2.1 4.55-2.3 6.2-.55 2.2 2.35.75 7.65-2.4 8.75-1.25.45-1.6 1.05-2.9 5.2-3.3 10.25-3.65 14.85-1.85 22.15 1.05 4.2 1.3 4.55 4.5 7.1 1.4 1.1 4.25 3.7 6.4 5.85 2.2 2.1 4.05 3.8 4.15 3.8.1 0 .2-.7.2-1.6 0-.9.35-4.3.8-7.6.65-4.65.7-6.65.3-8.8-.85-4.6-1.35-5.5-3.05-5.5-1.8 0-3.55-2-3.55-4.05s2.15-4.3 4.45-4.7c1.95-.3 3.9.3 4.65 1.45.65.95.45 3.85-.4 5.3-.8 1.25-.8 1.55 0 3.75 1 3 1.05 8.95.05 14.8-.35 2.4-.6 4.75-.5 5.25 1.1 5.95 1.4 6.65 4.95 11.1 1.95 2.45 5.15 6.75 7.05 9.5 1.95 2.8 3.6 5.05 3.75 5.1.3 0 .5-4.55.6-13.75.05-7.05-.5-9.3-2.75-11.1-1.9-1.5-2.85-3.25-2.85-5.3 0-5.5 7.5-5.9 9-.4.5 2 0 4.95-1.05 5.6-.45.25-.4 1.2.05 3.75.8 4.05.9 9.8.3 15.5-.3 2.85-.25 5.1.2 7.5.65 3.35.75 3.55 4.9 7.85 4.05 4.1 6.2 5.55 5.35 3.5-.75-1.75-1.7-7.5-2.05-12.4-.25-3.85-.6-5.3-1.4-6.4-.95-1.3-.95-1.5-.3-3.45.75-2.05 2.3-3.55 4.35-4.15 1.7-.45 3.65 1.7 3.65 4 0 2.15-.7 3.65-2.35 4.9-1 .8-1.15 1.35-1.15 4.55 0 4.35.65 8.15 2.35 13.8 1.45 4.8 1.95 5.4 8.9 10.3 2.45 1.75 5.1 3.65 5.85 4.25 1.6 1.2 1.65 1.1 2.15-2.95.75-6.6 5.2-17.75 10.85-27.3 4.7-7.95 7.95-11.65 14.85-16.8 3.7-2.8 6.65-4.05 12.15-5.2 5-1.05 8.05-.5 13.85 2.4 2.5 1.25 4.75 2.3 5 2.3.45 0 5.05-13.5 5.8-16.85.25-1.3 0-1.95-1.4-3.8-2-2.6-4.85-8.45-6.25-12.7-1.95-5.95-2.35-8.75-2.3-17.15 0-6.95.25-9.75 1.65-17.7.9-5.2 2.2-11.25 2.9-13.5 1.2-3.95 5.35-12.75 7.2-15.35.8-1.1.95-2.9 1.35-13.75l.45-12.45-3.15-3.15c-6.3-6.4-9.95-13.55-13.7-27.1-6.7-24.15-10.65-37.8-11.05-38.2-.25-.25-2.3-1-4.55-1.65-6.8-1.9-20.2-8.9-28.65-14.9-4.2-2.95-11.9-11.15-15.85-16.8-5.75-8.3-10.25-18.35-12.2-27.45-.7-3.25-.9-6.45-.9-13.75 0-8.4.15-10.2 1.3-15.75 2.15-10 4.65-17.5 10.55-31.6 1.75-4.2 4.4-10.8 5.85-14.65 7.65-20.3 9.45-23.7 16.5-30.8 10.95-11.05 20.05-13.05 39.7-8.7 6.75 1.5 10.9 3.5 14.2 6.8 5.15 5.2 7.3 11.3 7.3 20.7 0 6.95-.6 10.1-3.95 19.5-4.95 13.95-6.55 26.5-5.25 42 1.8 22.1 1.3 33.75-2.05 47.75-1.85 7.7-3.7 11.55-10.6 22-4.5 6.75-8 13.85-7.7 15.5.15.7 2 6 4.1 11.75 2.1 5.8 5.25 15.45 7 21.5 4.6 16 5.9 19.45 8.9 23.9 2 2.95 4.4 5.85 4.85 5.85.25 0 .7-1.3 1-2.9 1.15-5.7 3.05-12.7 5.55-20.35l2.55-7.85-1.05-2.4c-3.6-8.35-2.2-29.2 2.9-44.4 1.65-4.85 4.3-10.2 6.95-13.85 5-7.05 26.8-30.05 32.6-34.4 2.65-2.05 4-3.6 7.7-9.25 5.4-8.35 7.35-10.65 17.4-20.85l7.85-8-.5-6.25c-.35-3.55-.45-10.3-.3-15.5.8-25.75 7.85-46.1 22-63.45 6.55-8 16.8-17.45 24.1-22.15 9.5-6.15 15.95-8.3 34.5-11.65 15.9-2.85 20.95-4.35 30.25-9 15.35-7.65 30.85-9.4 40.55-4.5 3.9 2 6.2 4.4 10.05 10.7 1.95 3.2 5.35 8.05 7.5 10.8 5.05 6.4 6.05 9 6.1 15.25.05 5.65-1 9.25-4.8 16.5-7.8 14.7-14.45 23.15-35.75 45.3-12.65 13.15-16.3 16.55-21.65 20.3-10.05 7-26.1 14.7-36 17.25-8.5 2.2-23.75 2.05-41.75-.45-8.2-1.1-16.85-1.35-24.3-.75l-4.85.45-5.4 5.1c-8.55 8.1-19.45 20.75-18.6 21.6.15.1 1.8-.35 3.7-1.1 4.4-1.65 17.05-4.85 23.2-5.9 16.75-2.8 41.35-4.35 53.3-3.35 10.7.9 20.1 3.5 24.35 6.75 3.05 2.35 8.15 8.6 9.85 12.1 5 10.35 3.6 21.65-3.65 28.9-4.65 4.7-10.6 6.7-23.5 8.05-8.45.9-13.85 1.9-16.7 3.05-2.9 1.25-8.6 4.6-11.8 7.1-5 3.8-14.75 13.55-21.35 21.35-7.4 8.75-15.4 16.65-20 19.75-4.55 3.1-29.25 15.75-33.9 17.35-3.35 1.2-4.65 1.35-9.6 1.35-6.85 0-8.8-.65-18.2-5.9-4.45-2.5-6.05-3.15-6.35-2.7-1.45 2.3-6.4 19.95-8 28.4-1 5.65-2 23.5-1.25 23.5.15 0 1.5-1 3-2.15 1.45-1.2 4.7-3.45 7.15-5 4.3-2.65 7.35-4.2 24.7-12.45 14.2-6.85 23.8-12.9 32.2-20.45 9.05-8.1 13.55-10.85 20.1-12.2 6.85-1.45 11.7.6 14.45 6.05l1.55 3.05.35 17.2c.3 16.2.25 17.45-.65 21.1-2.25 8.7-8.05 17.1-23.05 33.35-11.6 12.65-16.8 19-22.8 27.95-8.35 12.5-18.3 22.25-28.25 27.75-7 3.85-19.55 6.9-27.4 6.75l-4.8-.1-1.15 3.7c-.65 2.05-2.15 6.5-3.35 9.9-1.75 4.9-2.1 6.35-1.65 6.9.55.7 10.3 7.75 19.9 14.4 5.4 3.8 12.4 10.75 16.4 16.4 1.7 2.4 5.15 7.95 7.6 12.25 2.45 4.3 5.95 10.35 7.85 13.35 7.5 12.25 8.4 15.05 8.35 26.25 0 9.3-1.1 15.55-4.4 25.25-4.75 14.05-7.75 20.35-14.75 30.9-5.9 8.85-10.65 14.65-18.75 23.1-3.05 3.15-6.95 7.9-9.15 11.15l-3.8 5.65.6 5.85c2.05 19.45 5.4 38.35 8.25 46.7 1.8 5.15 5 10.5 10.15 16.9 4.7 5.85 7.85 10.85 13.75 21.7 8.2 15.05 11.3 19.9 16.85 26.3 5.2 5.95 10.9 13.2 14.15 18 4.35 6.35 7.6 12.4 18.8 35.1 5.25 10.6 10.8 21.15 12.5 23.65 1.65 2.5 5.85 7.55 9.3 11.25 6.9 7.4 7.4 8.55 5 10.45-.75.6-1.65 1.05-2.1 1.05-.4 0-2.85-2.1-5.45-4.6zM445.5 750.05c0-.25-.65-2-1.5-3.95-4.2-9.95-7.3-25.7-9.75-49.6-.4-4.25-.85-8.2-1-8.75-.25-1.05-2.7-2.75-10.25-6.95-7.85-4.4-16.65-9.8-18.1-11.15-1.3-1.2-2.4-1.2-2.4 0 0 .35-1.5 3.65-3.3 7.35-1.8 3.7-4.1 8.65-5.05 10.95-2.85 6.8-5.4 21-4.45 24.7.2.85 1.65 2.25 4.2 4.05 4.25 3.05 5.85 4.4 19.15 16.15 14.2 12.45 15.1 13.05 23.9 15.7 6.4 1.95 8.55 2.3 8.55 1.5zm-65.65-39c-4.95-5.25-8.15-10.15-10.8-16.65-3.25-7.85-4.25-13-4.25-21.65 0-6.75.1-7.95 1.4-12.25 1.35-4.65 1.4-5.1 1.8-23.25.45-18.25.95-23.95 1.7-18.5.65 4.7 1.15 26 .75 32.2-.25 4-.85 7.95-1.75 11.25-1.25 4.7-1.3 5.55-1.05 12.3.3 8.55 1.6 14.05 5.05 21.3 2.8 5.9 4.65 8.55 9 13.1 5.1 5.3 5.05 5.3 5.15.3.2-9.6 2.55-17.9 8.4-30.2 6.3-13.2 10.2-26.45 13-44.25 1.75-10.95 2.85-15.65 5.55-22.85 3.3-8.75 3.9-11.7 3.9-18.9 0-10.25-2.3-16.65-8.1-22.5-6.8-6.8-7.65-6.95-33.35-6.6-18.15.3-27.3 2.55-32.45 8.05-5.25 5.65-6.55 9.85-6.55 21.05 0 9.55.45 11.75 5.95 29.1 4.3 13.65 5.95 22.6 7.05 38.15.5 6.8 2.15 19.9 3.05 23.9 1.15 5 3.45 10.85 5.55 13.95 2.15 3.2 9.95 11.25 13.3 13.75 3.1 2.3 6.5 3.6 9.55 3.65h2.4l-4.25-4.45zm61.3-30.55c1.55-2.35 4.4-6 6.25-8.1 3.35-3.75 3.5-4.05 5.25-10 4.55-15.55 5.5-32.95 2.55-48.25-.8-4.15-.85-5.65-.15-3.4 1.05 3.4 2.4 12.95 2.7 19.5.5 10.65-1.15 22.5-4.55 32.9-.7 2.15-1.2 4-1.1 4.15.4.4 9.7-10.65 14.4-17.2 4.35-6.05 9-13.9 11.3-19.1 7.8-17.7 10.5-29 10.1-42.15-.2-6-.35-6.95-1.8-10.7-.9-2.2-2.9-6.05-4.4-8.5-1.55-2.4-5.15-8.55-8.05-13.65-10.05-17.55-15.15-23.55-26.8-31.75-9.15-6.4-17.7-12.8-20.6-15.5-3.25-3-11.15-6.85-14.55-7.15-5.65-.45-11.4 1.8-17.85 7.05-6.3 5.15-10.7 11.1-15.55 21.05-5.35 10.95-7.3 18.1-7.3 26.8v4.9l14.9-.05 14.85-.1 3.5 1.7c6.7 3.3 12.3 9.95 14.5 17.25 3.05 10.2 2.55 19.25-1.75 31.2-.9 2.45-.3 4.4 3.6 11.95 1.95 3.8 4.8 9.4 6.35 12.4 3.1 6.05 5 11.25 6.5 18.05 1.7 7.6 3.5 20.7 3.6 25.95.05 2.75.2 5.2.35 5.4.3.55.35.45 3.75-4.65zm-7.1-4.8c-1.05-11-3.95-25.55-6.35-31.6-1.25-3.15-2.75-6.1-10.1-20.55-2.85-5.55-2.95-5.65-3.5-4.25-1.15 3.05-1.6 5.15-2.35 10.7-1.4 9.95-2.75 17-4.85 25-1.1 4.25-2.1 8.2-2.25 8.75-.35 1.7 2.65 4.6 7.75 7.55 2.7 1.55 6 3.55 7.4 4.45 1.4.9 4.1 2.45 6 3.4 1.9 1 4.6 2.55 5.95 3.5l2.5 1.75.15-1.35c.1-.7-.05-4.05-.35-7.35zm13.75-190.4c7.8-1.2 15.55-3.7 21.15-6.85 9-5.1 18.6-14.95 27.4-28.2 4.1-6.15 13.05-17 20.6-25 5.65-5.95 15.35-17.7 18.25-22 1.25-1.9 3.05-5.25 3.9-7.45l1.65-4.05.1-16.5c.1-17.8-.2-20.95-2.1-23.85-4.7-7.15-15.8-4.35-28.5 7.15-11.2 10.15-17.35 13.85-44.25 26.85-14.1 6.8-22.3 12.1-26.15 17-4.1 5.15-5.75 7.75-8.45 13.45-2.85 6.05-4.3 11.6-6.15 23.4-1.15 7.4-1.3 9.5-1.1 16.25.2 5.6.55 8.85 1.3 11.75 1.15 4.45 4.1 10.8 6.6 14.2l1.6 2.25 2.35-6.75c5.25-14.9 7.05-18.75 13.6-29.4 5.25-8.5 9-13.85 14.65-20.8 4.3-5.25 12.85-13.45 16.85-16.15 2.4-1.65 4.1-2.05 3.8-.95-.1.35-3.35 3.65-7.25 7.3-8.9 8.4-14.15 14.6-21 24.8-7.75 11.6-10.6 16.8-13.6 24.95-2.2 5.8-6.05 17.6-6.05 18.45 0 .9 5.4.95 10.8.15zM482 350.4c3.75-1.15 28.7-13.75 33.5-16.9 3.85-2.55 14.8-13.35 20-19.75 7.35-8.95 19.35-20.45 25.5-24.35 7.85-5 12.2-6.35 25.75-7.9 15.2-1.7 19.5-3.4 24.05-9.65 6.45-8.75 4.7-21.4-4.4-31.1-4.65-5-12.05-7.95-23.05-9.25-7.15-.85-27.6-.35-39.85.95-29.3 3.1-46.6 8.95-59.55 20.1-3.7 3.2-22.35 23.25-26.8 28.8-6.5 8.2-10.8 20.8-12.35 36.25-.7 6.55-.35 16 .6 19.15.65 2.1 1.7 4.25 2.05 4.25.15 0 1.1-1.5 2.05-3.35 4.2-8 12.85-20 22.1-30.7 6.7-7.85 14.1-14.3 24.65-21.7 14.8-10.3 14.75-10.3 14.75-9.15 0 .35-2.85 2.8-6.35 5.4-18.3 13.6-28.1 22.95-39.75 38-5.65 7.35-15.05 22.15-14.35 22.7.85.65 11.7 6.5 13.6 7.3 5.85 2.6 11.35 2.85 17.85.9zm-76-41.65c0-.15-1-2.25-2.2-4.65-2.4-4.8-4.6-10.35-7.75-19.15-3.55-10.1-4.85-18.25-5.55-35.15-.3-6.35-.75-14.6-1-18.3-.35-4.6-.3-8.55.05-12.4.55-5.9 1.65-12.45 2.15-12.95.75-.75.8.65.25 6.45-.5 4.95-.5 7.7 0 13.2.3 3.8.8 12 1.05 18.2.8 18.55 1.2 22.75 3.3 32.25 1.45 6.5 10.9 30.25 12.05 30.25.2 0 1.25-1.75 2.25-3.9 1-2.1 3.65-6.65 5.95-10.1 5.25-8 6.7-10.65 7.95-14.3 1.3-3.7 3.2-12.45 4.1-18.7.75-5.65.75-22.9-.05-30.45-.8-7.55-.7-21.95.2-28.1 1-6.4 1.75-9.5 4.3-16.9 4.35-12.65 5.35-20 3.7-27.8-2.45-11.5-10.5-17.05-27.35-18.8-10.3-1.1-16-.05-22.2 4-7.75 5-14 13.8-18.4 25.8-3.05 8.15-5.5 14.4-9.8 25-5 12.15-8.05 21-9.85 28.7-1.3 5.45-1.4 6.45-1.35 17.05.05 10.5.1 11.6 1.35 16.1 4.55 17.05 16.3 33.3 30.5 42.15 10.85 6.8 26.35 14.1 26.35 12.5zm187.6-98.45c11.45-2.9 28.95-11.65 39.15-19.55 8.3-6.45 36.25-36.25 44.1-47 3.15-4.35 9.6-15.7 11.75-20.7 1.5-3.5 1.65-4.25 1.65-9.05 0-4.75-.15-5.5-1.35-8-.75-1.5-3-4.75-4.95-7.25-1.95-2.45-4.8-6.6-6.35-9.2-3.25-5.55-5.4-8.05-8.25-9.7-3.9-2.25-7.25-3.1-12.1-3-9.9.1-16.35 1.8-27.85 7.3-9.1 4.4-12.15 5.25-29.95 8.8-8.35 1.65-17 3.6-19.15 4.3-14.1 4.6-29.3 16.8-41.85 33.6-3.7 4.95-9.85 17.25-12.15 24.4-4 12.4-5.4 22.25-5.35 37.5.05 6.05.2 11.9.45 12.95l.35 1.95 2.2-2.95c4.4-5.85 19.4-20.25 29.55-28.3 5.35-4.25 12.9-10.5 16.75-13.9 13.85-12.15 21.05-16.65 40.25-25 4.25-1.85 10.4-4.55 13.65-6 9.9-4.3 8.05-1.75-2.65 3.7-3.45 1.75-9.15 4.45-12.75 6.05-15.55 6.8-25.9 13.5-37.4 24.05-2.25 2.1-9.5 8.15-16.1 13.45-12.2 9.8-23.3 20.35-28.4 27.1l-2.4 3.15 9.15-.3c8-.3 10.6-.15 20.4 1 22.45 2.6 31.2 2.75 39.6.6z"/>
    <path d="M373.3 668.1c.15-1.75 1.25-7.15 2.45-12 3.3-13.5 3.9-16.9 3.95-22.7.05-3.4.2-5.05.5-4.55.65 1.25-.05 11.25-1.2 17.15-.6 2.9-1.8 8.3-2.75 12-.95 3.7-2.05 8.2-2.5 10l-.75 3.25.3-3.15zm-10.25-8.35c-.05-.3.55-3.2 1.25-6.5.8-3.8 1.4-8.65 1.65-13.25.4-7.1.85-5.9.6 1.5-.15 4.4-3.3 20.8-3.5 18.25zm9.85-16c-.8-7.1-.1-24.65 1.4-37.25.8-6.65 1.55-9.05 1-3.25-1.1 11.9-1.45 18-1.7 30.25-.25 10.3-.45 12.85-.7 10.25zm8.2-27.5c0-.8.3-3.4.65-5.75l.7-4.25-.25 4c-.15 2.2-.45 4.8-.65 5.75-.45 1.75-.45 1.75-.45.25zm-39.8-8.55c-.45-3.6-.35-12.55.25-16.2.55-3.6 1.5-7.1 1.8-6.8.1.1-.2 1.6-.7 3.35-.7 2.55-.85 5.2-.9 12.6 0 5.15-.05 9.35-.05 9.35-.05 0-.2-1.05-.4-2.3zm28-1.95c.15-2.2.5-4.2.8-4.5.35-.35.4.55.15 2.65-.55 5.1-1.3 6.45-.95 1.85zm-25.25-2.55c0-2.8.3-7 .7-9.3.7-4.05 3.4-12.7 4.25-13.55.2-.25-.35 1.8-1.25 4.5-1.9 5.75-2.7 10.1-3.25 17.8l-.35 5.6-.1-5.05zm98.1 61.55c0-2.2.1-3.05.2-1.85.1 1.15.1 2.95 0 4-.1 1-.2.05-.2-2.15zm-3.1-13.85c-6.75-23.3-8.55-28.45-13.45-38.6-.15-.25.05-.25.4-.05.95.6 5.1 9.75 7.45 16.4 3.8 11 8.15 26.95 7.45 27.6-.15.15-.95-2.3-1.85-5.35zm24.6-25.3c-.15-13.4-1.55-27-3.95-37.95-.45-2-.7-3.9-.55-4.25.6-1.8 3.5 14 4.6 25.05.75 7.9 1.05 27.05.4 27.05-.25 0-.45-4.45-.5-9.9zm-12.35-36.9c-.2-1-.25-1.9-.15-2 .15-.15.4.55.55 1.6.2 1 .25 1.9.15 2-.15.15-.4-.55-.55-1.6zm-1.2-5.7c-.35-1.7-.55-3.2-.4-3.35.3-.3 1.45 5.2 1.2 5.9-.1.3-.45-.85-.8-2.55zm-22.05 86.7c-2.55-10.55-5.1-18.25-8.75-26.8-1.5-3.55-2.6-6.4-2.5-6.4.1 0 1.2 1.95 2.4 4.4 3.15 6.25 7.15 17.3 9.1 24.9 1.5 5.95 2.65 12.7 2.15 12.7-.15 0-1.2-3.95-2.4-8.8zM445 477.15c0-.25 2.35-1.4 5.15-2.6 10.2-4.4 25.75-13.55 35.5-20.95 4.65-3.55 4.25-2.45-.5 1.35-10.4 8.35-24.25 16.35-36.85 21.35-3.35 1.35-3.3 1.35-3.3.85zM427.4 462c-.95-6.7-.2-17.05 1.85-26.1 1.8-8.1 7.1-20.3 11.85-27.35 2.55-3.8 3.15-3.65.7.15-3.8 6-7.55 14.15-9.8 21.55-2.6 8.45-3.6 14.75-3.95 25.5-.25 7-.4 8.4-.65 6.25zm13.6-16.4c0-.75 3.45-6.35 6.15-10.05 5.85-8.05 17.55-20.1 25.35-26.15 4.85-3.75 15.7-10.9 16.6-10.9.3 0-2.1 1.85-5.4 4.05-16.55 11.3-27.65 22.45-41.1 41.4-.9 1.25-1.6 2-1.6 1.65zm48.5-41.35c0-.4 3.9-3.8 6.45-5.7 2.85-2.05 11.35-6.2 12.2-5.9.3.1-1.1 1-3.2 1.95-4.55 2.1-8.85 4.8-12.25 7.7-2.4 2.05-3.2 2.55-3.2 1.95zm6.6-11.9c1.5-1.25 11.4-6.6 11.4-6.15 0 .15-1.65 1.2-3.6 2.35-2 1.15-4.7 2.75-5.95 3.55-2.7 1.65-3.75 1.8-1.85.25zm-47.8-72.75c.7-13.95 8.35-30.35 19.1-41.05 2.65-2.65 3.5-3.35 1.8-1.55-12.45 13.35-18.7 26.6-20.75 43.75-.35 3.25-.4 3.15-.15-1.15z"/>
    <path d="M451.75 316.6c.15-3 .55-4.4 2.4-8.3 1.95-4.05 8.6-14.8 9.2-14.8.25 0 .45-.35-3.65 6.3-5.3 8.6-7 12.5-7.75 17.7-.4 2.55-.4 2.5-.2-.9zM487 303.25c13.55-14.75 36.25-30 56.45-37.95 4.95-1.95 7-2.15 2.45-.25-4.9 2.1-17.6 8.5-22.4 11.3-11.3 6.65-22.8 15.15-33.75 24.95-4.35 3.9-4.9 4.3-2.75 1.95zm-11.4-9.9c9.85-9.6 25-19.95 39.05-26.6 9.35-4.4 17.4-7.45 15.6-5.85-.3.25-2.5 1.3-5 2.35-16.2 6.8-33.1 17.25-48 29.65-6.7 5.65-7 5.7-1.65.45zm42.9-20.6c0-.75 21.8-10.7 25.25-11.5 2.75-.7.65.6-5 3-3 1.3-8.7 3.75-12.6 5.55-7.1 3.2-7.65 3.4-7.65 2.95zm-12.5-6.5c0-.6 21.15-9.5 25-10.5 2.75-.7-.8.95-10.95 5-5.65 2.3-11.15 4.5-12.15 4.95-1.05.45-1.9.7-1.9.55zm-84.25 5c.15-1.65.65-6.15 1.1-10 .75-6.9 1.05-25.45.45-33-.2-2.7-.15-3.05.2-1.5.2 1.1.65 5.85 1 10.55.6 9.4.1 20.9-1.3 29.9-.95 5.95-1.85 8.55-1.45 4.05zm-56.85-7.65c-6.15-9.3-9.9-23-9.9-36.35 0-8.95 2.2-19.55 5.5-26.35.85-1.75 1.35-2.7 1.2-2.15-4.55 13.75-5.4 19-5.1 30.4.35 12.05 2.65 21.35 7.75 31.55 2.35 4.75 2.6 6 .55 2.9zm19.4-7.45c-1.15-10.95-.7-44.55.7-50.15.3-1.1.3.55.1 4.25-.2 3.3-.35 15.6-.35 27.4 0 11.75-.05 21.35-.05 21.35-.05 0-.2-1.3-.4-2.85zm14.75-11c-.3-6-.7-12.25-.85-13.9-.15-1.95-.05-2.65.2-2 .9 2 2.25 25.75 1.5 26.5-.1.15-.5-4.65-.85-10.6z"/>
    <path d="M361.1 226.65c-.1-6.3 1.1-18.5 1.85-19.3.2-.2.05 1.5-.3 3.75-.4 2.3-.9 8.2-1.1 13.15l-.4 9-.05-6.6zm40.1-2.75c-.5-4.95-.35-19.4.15-20.8.25-.55.4 4.8.4 11.95 0 7.1-.05 12.95-.05 12.95-.05 0-.3-1.85-.5-4.1zm-5.55-7.4c0-1.8.1-2.5.2-1.6.1.85.1 2.35 0 3.25-.1.85-.2.15-.2-1.65zm-.65-4.35c.25-8.75 2.15-24.7 3.45-28.9.65-2.1.65-.1 0 2.75-.9 3.85-1.9 12.5-2.25 19.65-.2 3.75-.55 6.85-.75 6.85-.25 0-.45-.15-.45-.35zm-27.95-30.9c-.05-.65 4.2-9.3 5.2-10.5.45-.55-.15.9-1.4 3.25-1.2 2.35-2.55 5.05-3 6-.4.95-.8 1.55-.8 1.25zm218.7-12c7.9-6.9 30-20.75 33.1-20.75.5 0-1.9 1.55-5.35 3.4-9.35 5.1-14.25 8.25-24.5 15.6-3.9 2.8-5.3 3.55-3.25 1.75zm-6.25-1.15c0-.65 8.85-7.2 13.65-10.05 3.1-1.9 2.05-.45-1.25 1.7-1.65 1.05-4.95 3.35-7.25 5.1-5.1 3.8-5.15 3.8-5.15 3.25zm-21.1-1.95c6.6-8.3 24.8-22.7 38.45-30.35 4.2-2.4 15.5-7.75 18.8-8.95 1.9-.7.7.7-1.25 1.5-3.8 1.45-18 8.85-22.85 11.85-9.35 5.85-19.4 13.85-28.85 22.95-5.3 5.1-6.8 6.1-4.3 3zM527.25 158c.2-.7 1.25-3.3 2.35-5.85 4.2-9.65 11.25-20 19.6-28.6 6.05-6.2 16.85-15.15 17.55-14.45.1.1-1.65 1.6-3.95 3.3-5.4 3.95-14 12.2-18.1 17.3-6.05 7.55-12.7 18.45-15.75 25.8-1.2 3-2.3 4.55-1.7 2.5zm74.25-6.3c0-.6 33.7-16.6 41.55-19.75 1.35-.5 3.6-1.4 4.95-1.95 4.75-1.9 2.5-.25-2.85 2.1-7.95 3.45-18.5 8.3-31.3 14.45-10.8 5.2-12.35 5.85-12.35 5.15z"/>
    <path d="M549.9 129.2c.95-1.8 10-11.05 14.05-14.3 5.65-4.55 16.7-11.45 17.3-10.8.1.1-1.95 1.45-4.55 3.05-7.65 4.7-14.35 10-21.05 16.8-3.45 3.45-6.05 5.85-5.75 5.25zm74.65-5.2c1.15-.7 10-3 11.2-2.95.95.05-10.5 3.45-11.5 3.45-.25-.05-.15-.25.3-.5z"/>
  </g>
</svg>
