<svg version="1.0" xmlns="http://www.w3.org/2000/svg" preserveAspectRatio="xMidYMid meet" viewBox="0 0 1252 1199">
  <g fill="#333">
    <path d="M595 904.4c-81.4-11.8-147.1-52.6-193.2-119.9-19.9-29.2-34-62.2-40.7-96.1-4.2-20.7-5.3-32.7-5.3-56.4-.1-23.1 1.1-31.9 8.2-59.9C389.5 470.4 481.2 279.8 606.4 68c16.1-27.3 18.6-30.9 21.3-31.6 5.6-1.5 7.7 1.3 28.5 36.6 80.5 136.8 151.2 272.5 194.3 373 23.8 55.5 41.9 107.4 48.5 139.5 6.8 32.6 6.8 68.7 0 101.5-8 38.7-25.6 77.4-50.3 110.7-9.1 12.2-30.9 35-44.7 46.5-19.5 16.4-49.3 33.9-74 43.6-20.6 8-45 14.1-67 16.8-15 1.8-55.2 1.7-68-.2zm73.5-14.8c57.9-9.4 108.2-35.6 148.5-77.3 28.5-29.4 48.7-63.3 61.3-102.8 9.7-30.3 12.8-56.3 10.8-90.5-1.2-19.3-2.9-28.5-9.6-52.1-25.2-87.9-84.4-216.3-176.3-382.4-22.9-41.5-69.3-122.3-72.5-126.3-1.1-1.4-2.6.9-33.7 54.8-104.3 180.8-181.8 340.1-210.4 432.3-14.1 45.2-18.8 75-16.6 104.5 6.1 81.9 49.3 155.4 118 200.4 30.8 20.2 66.4 33.5 106.5 39.8 15.4 2.5 58 2.2 74-.4z"/>
    <path d="M588 818c-36.2-4.3-76.1-25.1-102-53.4-28.2-30.7-43.9-67.3-45.7-106.6-.5-12.4-.4-13.6 1.3-15.2 1.8-1.5 4.2-2.2 7.1-1.9 2.6.2 4.2 5 5.3 15.6 1.7 16.5 3.7 26.8 7.6 39.3 13.4 41.9 45.7 77.9 86.1 95.7 17.1 7.5 30.8 10.8 52.7 12.9 12.4 1.2 14.1 1.6 15.8 3.6 2.5 3 2.3 5.6-.7 8.5-2.2 2.3-3.1 2.5-11.7 2.4-5.1-.1-12.2-.5-15.8-.9z"/>
  </g>
</svg>
