<svg version="1.0" xmlns="http://www.w3.org/2000/svg" preserveAspectRatio="xMidYMid meet" viewBox="0 0 327 148">
  <path d="M266 145.65c-1.35-.5-3.5-2.8-3.5-3.75 0-1.65 1.4-1.6 2.95.05 1.55 1.7 3.5 2 5.75 1 1.25-.6 1.8-1.75 1.8-4.05 0-1.6-.3-1.7-1.7-.65-2.05 1.55-6.35.55-8-1.85-1.1-1.55-1.05-6.55 0-8.2 1.7-2.55 6.35-3.6 8.25-1.9.85.75.95.75 1.7 0 .45-.45 1.15-.8 1.55-.8.55 0 .7 1.4.7 7.9 0 8.7-.25 9.65-2.95 11.45-1.65 1.1-4.7 1.5-6.55.8zm5.75-9.9c1.4-1.35 1.65-3.8.65-6-.5-1.1-.85-1.25-3-1.25-4.1 0-6 2.95-4.15 6.5.85 1.6 1.35 1.9 3.65 1.95 1.1.05 2.05-.35 2.85-1.2zm-118.55 4.3c-.55-.25-1.7-1.25-2.6-2.25-1.4-1.6-1.6-2.2-1.6-4.7 0-4.7 2.6-7.6 6.75-7.6 3.6 0 6.05 2.35 6.35 6.1l.15 1.65-5.35.15c-5.05.1-5.4.2-5.4 1.15 0 .55.6 1.55 1.3 2.2 1.8 1.65 4.15 1.65 6.15-.05 1.75-1.45 3.1-1.35 2.7.3-.6 2.3-5.8 4.2-8.45 3.05zm6.45-8.85c.4-.4-.55-2.25-1.6-3.05-1.05-.8-3.55-.8-4.6 0-.75.55-1.95 2.45-1.95 3.05 0 .4 7.75.4 8.15 0zm8.85 8.4c-6.4-3.5-4-14.1 3.15-14.1 3.8 0 6.35 2.5 6.35 6.25v1.75h-5.25c-5.2 0-5.25 0-5.25 1.2 0 3 5.65 4.55 7.3 2.05.8-1.25 2.4-1.65 2.95-.75.15.25-.45 1.25-1.35 2.25-2.15 2.25-5.25 2.8-7.9 1.35zm7-8.8c0-.35-.5-1.3-1.1-2.05-.95-1.2-1.3-1.35-3.1-1.1-2.05.3-3.8 1.75-3.8 3.15 0 .55.9.7 4 .7 3.05 0 4-.15 4-.7zm15 9.15c-1.4-.55-3.5-2.4-3.5-3 0-.25.45-.65.95-.95.8-.4 1.25-.2 2.5 1 1.75 1.75 2.7 1.85 4.05.5 1.7-1.7 1.1-2.55-2.75-3.7-3.05-.95-4.25-2.05-4.25-4.05 0-2.55 2.05-4.25 5.05-4.25 2.75 0 5.35 1.7 4.8 3.15-.45 1.15-1.7 1.05-2.35-.15-.7-1.3-4.25-1.45-4.7-.2-.55 1.35.2 2.7 1.6 3 3.5.75 4.65 1.35 5.35 2.75.9 1.7.6 3.45-.9 4.85-1.35 1.25-4.15 1.75-5.85 1.05zm21 .2c-1.85-.35-4-2.1-4-3.2 0-1.2 1.6-1.3 2.55-.15 1 1.25 2.8 1.75 4.25 1.2 1-.4 1.25-.8 1.1-1.85-.15-1.2-.5-1.5-3.3-2.3-2.5-.75-3.3-1.25-3.9-2.45-.65-1.25-.65-1.75-.15-2.95.85-2.1 2.3-2.95 4.95-2.95 1.9 0 2.55.25 3.75 1.5 1.25 1.3 1.35 1.6.75 2-1.05.65-1.25.65-2.25-.5-1.25-1.4-4.05-1.35-4.8.1-.5.9-.4 1.2.55 2 .6.5 1.55.9 2.1.9.5 0 1.6.35 2.4.75 2.8 1.45 3.3 4.3 1.2 6.45-.75.7-1.6 1.3-2 1.3-.35 0-.9.1-1.3.2-.35.1-1.2.05-1.9-.05zm88.15 0c-2.05-.4-2.65-2-2.65-6.95v-4.6l-1.5-.35c-1.85-.4-1.9-.95-.25-2.05.7-.45 1.55-1.4 1.9-2.15.3-.7 1-1.35 1.5-1.45.7-.15.85.2.85 1.6 0 1.65.1 1.8 1.5 1.8 1.15 0 1.5.2 1.5 1 0 .55-.35 1.05-.75 1.05-.4.05-1.05.1-1.35.15-.45.05-.7 1.4-.8 4.65-.15 4.35-.1 4.6.95 4.75 1.5.2 2.45 1.75 1.45 2.4-.4.25-.85.45-1 .4-.15 0-.75-.15-1.35-.25zm-164.3-.45c-.2-.2-.35-4.95-.35-10.55V119h6.55c6.5 0 6.5 0 6.35 1.15-.15 1.05-.4 1.1-5 1.25l-4.9.15v6.95h4.5c4.15 0 4.5.1 4.5 1 0 1.45-1.5 2-5.45 2h-3.5l-.15 4.15c-.15 3.7-.25 4.1-1.15 4.25-.6.1-1.2 0-1.4-.2zm45.9-.3c-.15-.35-.2-5.15-.15-10.65l.15-10 1.4-.15 1.35-.15-.1 10.65c-.15 10.6-.15 10.65-1.3 10.8-.6.1-1.2-.15-1.35-.5zm42.65-.25c-2.9-1.8-4.25-6.55-2.7-9.55 1.4-2.65 3.1-3.75 6.2-4 2.6-.2 3.05-.05 4.5 1.15 2.1 1.75 3.1 3.7 3.1 6 0 2.4-1.7 5.55-3.5 6.5-1.9 1-5.9.95-7.6-.1zm5.5-1.35c2.8-1.45 3.7-6.4 1.6-8.7-1.4-1.45-5.05-1.55-6.45-.15-2.35 2.35-1.7 6.85 1.15 8.6 1.85 1.15 2 1.15 3.7.25zm16.45 1.9c-.2-.2-.35-3.25-.35-6.8 0-5.5.1-6.5.8-6.75.5-.2 1.1.05 1.45.5.55.75.7.75 1.5-.15 1.15-1.25 3.05-1.3 3.7-.1.65 1.25-.2 2.1-2.05 2.1-2.1 0-2.8 1.55-3 6.75-.1 3.55-.3 4.5-.9 4.65-.45.05-.95 0-1.15-.2zm10.4-.3c-.15-.4-.2-3.6-.15-7.2.15-6.05.2-6.45 1.15-6.45s1 .35 1 7c0 6.25-.1 7-.9 7.15-.45.1-.95-.15-1.1-.5zm23.25-10.15V118.5h1.25c1.25 0 1.25.05 1.25 4.25s.3 4.95 1.5 3.5c.4-.5 1.5-.75 3-.75 2.1 0 2.6.2 3.7 1.55 1.25 1.45 1.3 1.85 1.3 7v5.45h-1.25c-1.25 0-1.25 0-1.25-4.9 0-5.8-.6-7.1-3.25-7.1-1.2 0-1.95.35-2.7 1.3-.9 1.15-1.05 2.05-1.05 6.25 0 4.95 0 4.95-1.25 4.95h-1.25v-10.75zm-23.4-7.85c-.35-.35-.6-1-.6-1.5 0-.65.4-.9 1.5-.9 1.7 0 2.45 1.1 1.5 2.25-.75.9-1.6.95-2.4.15zM105.65 74.5c-.85-.5-1.85-1.4-2.1-1.95-.35-.65-.55-8-.55-21.75 0-11.4-.15-21.05-.3-21.5-.25-.7-1.45-.8-8.05-.8H86.9l-1.45-1.45c-2.55-2.6-1.8-6.05 1.75-7.75 1.5-.7 4.15-.8 20.5-.8 20.2 0 21.3.1 23 2.55 1.25 1.85 1 4.2-.65 6.05l-1.45 1.65-7.3.25c-4 .15-7.5.5-7.75.75-.35.35-.55 7.35-.55 19-.1 22.4-.2 23.5-2.05 25.35-1.6 1.65-3.1 1.75-5.3.4zm33.1.2c-3.85-.95-6.65-2.6-9.2-5.5-2.65-3-3.85-6.4-4.25-11.95-.9-12.35 2.2-19.75 9.65-23.15 2.35-1.1 3.7-1.35 8.55-1.5 4.95-.15 6.05-.05 8.1.85 3.3 1.4 6.75 4.75 8.5 8.25 1.35 2.7 1.5 3.5 1.6 8.1.05 5.85-.25 6.45-3.5 7.2-1.05.25-6.75.5-12.55.5H135v1.45c0 1.65 1.65 4.25 3.65 5.75 2.15 1.6 8 1.7 13.3.3 3.85-1.05 4.25-1.1 5.75-.35 3.15 1.5 3.45 5.2.65 7.7-2.45 2.2-6 3.15-11.45 3.1-2.85 0-6.5-.35-8.15-.75zm13.2-25.15c1.3-.8.15-4.55-2-6.65-4.5-4.3-12.4-2.25-13.95 3.7-.95 3.4-.95 3.4 7.6 3.4 4.2 0 7.95-.2 8.35-.45zM170.7 74.7c-3.15-1.55-3.2-1.85-3.2-20.35V37.6l1.45-1.25c.8-.65 3.25-1.85 5.4-2.65 3.65-1.35 4.4-1.45 11.4-1.45 6.8 0 7.7.1 9.55 1.1 3.45 1.85 5.1 3.55 6.8 7.05l1.6 3.35-.15 14.25c-.1 15.55-.15 15.8-3 17-1.25.5-1.85.5-3 0-3.25-1.35-3.3-1.4-3.55-14.95-.25-13.5-.45-14.35-3.65-16.75-1.8-1.35-7.6-1.45-10.45-.15l-1.9.8v12.9c0 7.25-.25 13.7-.5 14.75-.35 1.25-1.1 2.15-2.2 2.85-1.95 1.25-2.55 1.25-4.6.25zm52.15.05c-4.55-1.25-9.35-5.2-11.5-9.5-1.25-2.55-1.85-6.55-1.85-12.65 0-8.35 1.3-12 5.55-15.85 3.25-2.9 6.6-4.15 12.3-4.55 5.85-.4 9.15.35 12.95 2.95 3.35 2.3 5.3 5.15 5.6 8.3.2 2.35.1 2.65-1.4 4.05-1.2 1.1-2.1 1.5-3.5 1.5-1.7 0-2.2-.3-4.3-2.8-2.95-3.45-4.4-4.2-7.95-4.2-3.35 0-5.2.9-7.1 3.35-1.3 1.7-1.4 2.15-1.55 7.5-.15 5-.05 5.9.9 7.9 1.5 3.15 3.5 4.4 7.3 4.65 3.55.25 5.45-.55 7.3-2.95 2.65-3.55 3.25-3.95 5.6-3.95 1.85 0 2.4.25 3.5 1.55 1.5 1.75 1.75 4.65.6 6.85-1.3 2.5-5.9 6.4-8.95 7.5-3.35 1.3-9.6 1.45-13.5.35zm39.8-.2c-3.35-.95-4.65-1.7-7.4-4.15-5.85-5.1-7.6-19.3-3.5-28.3 3.1-6.8 8.15-9.6 17.25-9.6 6.15 0 8.85.95 12.4 4.45 3.35 3.3 4.75 6.8 5 12.6.2 4.5.15 4.85-1.05 6.25l-1.25 1.45-11.7.25-11.65.25-.15 1.5c-.2 1.95 1.6 4.6 3.9 5.8 2.4 1.3 8.3 1.25 12-.05 4.45-1.55 6.55-1.2 7.9 1.35 1.65 3.05-.65 6.35-5.55 8.1-3.75 1.35-11.6 1.4-16.2.1zm13.8-25c.45-.3.55-.9.3-2.1-1-4.7-3.3-6.45-8.35-6.45-3.2 0-3.5.1-5.4 1.8-1.25 1.15-2.2 2.55-2.55 3.8-.9 3.4-.9 3.4 7.65 3.4 4.2 0 7.95-.2 8.35-.45zm18.65 25.2c-3.1-1.35-3.1-1.5-3.1-28.5 0-20.7.1-24.5.75-25.75.95-1.85 2.15-2.5 4.65-2.5 2.25 0 3.85 1.4 4.6 4.05.3 1 .5 11.3.5 24.85 0 25.55 0 25.7-3.1 27.6-1.95 1.15-2.15 1.2-4.3.25zM313.5 24c0-1.75-.25-2.6-.85-2.9-1.45-.85.75-1.5 4.7-1.5l3.6.05.45 2.05c.45 2.05.55 2.05 1.6-.85.4-1.05.8-1.4 1.65-1.25.95.15 1.15.55 1.35 2.65.15 1.4.45 2.75.65 3.05.2.35 0 .75-.5.9-.95.4-1.65-.45-1.65-2.05 0-1.8-.9-1.35-1.3.65-.45 2.5-2.15 2.2-2.95-.55-.6-2.05-1.05-1.8-1.35.75-.1.7-.55 1.3-1 1.4-.75.15-.8-.2-.55-2.65.3-2.8.25-2.85-.9-2.65-1.05.15-1.2.45-1.35 2.8-.1 1.85-.35 2.6-.9 2.6-.5 0-.7-.65-.7-2.5z" fill="#fff"/>
  <g fill="#52b68a">
    <path d="M256.2 133c0-2.9.05-4.05.15-2.6.1 1.4.1 3.8 0 5.25-.1 1.4-.15.25-.15-2.65zm-8.55 1.75c0-1.35.1-1.9.2-1.1.1.75.1 1.85 0 2.5-.1.6-.2 0-.2-1.4zM89.4 103.25C78.9 101.6 68.75 96.5 60.55 88.8 57.35 85.75 55 82.45 55 81c0-.6 1.35-2.5 3.2-4.45C64.35 70 66.5 65 66.5 57.05c0-10.1-4.1-18.95-13.2-28.3C50.45 25.8 50 25.1 50 23.5c0-2.35 1.65-4 3.95-4 1.35 0 2.25.6 4.9 3.15 6.7 6.4 11.85 14.65 14.45 23.1 1.2 3.95 1.35 5.3 1.35 11 0 5.55-.2 7.15-1.35 11-1.4 4.6-3.15 7.95-6.1 11.6-.95 1.15-1.7 2.3-1.7 2.55 0 .7 3.35 3.65 7 6.1 4.25 2.9 8.85 4.9 14.45 6.3l4.7 1.2H202.2c62.55 0 111.4.2 112.45.45 2.25.55 3.3 1.75 3.3 3.8 0 1.7-.7 2.8-2.3 3.65-1.7.95-220.3.75-226.25-.15zm-50.9-12.8c-4.35-.65-10.25-2.7-13.1-4.5-3-1.95-6.9-6.15-6.9-7.45 0-2 1.45-4 2.9-4.05 2.6-.1 3.35.15 5.5 2.15 4.25 3.9 11.55 6.25 17.8 5.75 3.25-.3 3.85-.2 5 .7 1.3 1.05 1.75 3.25 1 5.2-.8 2.1-6.3 3.1-12.2 2.2z"/>
    <path d="M37.25 75.05c-3.95-1.4-6.25-2.75-9.8-5.7-3.4-2.85-9.95-11-9.95-12.4 0-1.2 1.65-2.45 3.3-2.45 1.2.05 1.85.6 3.95 3.6 5.05 7.15 12.7 12.4 18.1 12.4 10.85 0 14.6-13.25 7.6-27.1C48.4 39.3 44 34.8 40.35 33c-3.35-1.65-7.25-2.1-8.6-1-.95.8-2.25 5.1-2.25 7.55 0 6.35 7 17.45 11.05 17.45 2.35 0 1.95-2.2-1.6-8.25-2.6-4.45-2.95-5.35-2.45-6.25.65-1.2 2.3-1.95 3.55-1.65 1.05.3 7.3 11.2 7.75 13.5.4 2-1.4 5.85-3.3 7.25-5.15 3.75-12.95-1.4-18-11.85-2.4-5-3.05-9-2.25-13.65C25.5 29 28 26.15 33.4 25.65c7.7-.7 17.15 5.85 22.05 15.3 3.1 6.05 4.3 10.45 4.25 16.3 0 6.1-1.15 9.45-4.5 13.2C51.9 74.1 47.85 76 43.3 76c-2.15-.05-4.55-.4-6.05-.95z"/>
    <path d="M10.55 71.65C7.05 67.4 2.9 57.2 1.45 49.5c-.3-1.8-.8-3.75-1.05-4.35C-.45 43.4.25 27.05 1.45 21 3.5 10.35 5.65 4.1 7.7 3.1c2.35-1.15 11.9-1.35 17.85-.4 9.25 1.55 18.1 5.25 22.7 9.5 2.6 2.45 2.95 4.3 1.2 6.5-1.5 1.95-3.55 1.75-7.2-.75-7.55-5.15-14.65-7.3-24.9-7.5-2.45-.05-4.6.1-4.8.35-.65.7-2.95 10.85-3.6 15.95-.7 5.55-.35 17.2.75 22.05 1.1 5.2 3.5 11.4 6.05 15.8 2.5 4.35 2.7 5.65 1.2 7.6-.8 1-1.45 1.3-2.95 1.3-1.6 0-2.2-.3-3.45-1.85zm102.05-31c-.05-6.15.05-11.15.3-11.15.2 0 .3 3.3.2 7.35-.2 13.65-.4 14.95-.5 3.8zm91.05 7.1c0-1.1.1-1.5.2-.85.1.6.1 1.5 0 2-.15.45-.25-.05-.2-1.15z"/>
    <path d="M13.8 48.05c-.7-.75-.85-1.9-.85-5.9 0-12.35 3.45-20 10.6-23.6 4-2 7.15-2.45 8.45-1.3 2.15 1.95.85 4.25-2.95 5.25-4.6 1.2-7.85 4.4-9.4 9.35-.45 1.4-.85 5.2-1 9.05C18.35 48 18 49 15.8 49c-.65 0-1.55-.45-2-.95z"/>
  </g>
</svg>
