<svg version="1.1" xmlns="http://www.w3.org/2000/svg" viewBox="0 0 1252 1199">
  <path d="M618.33 35.583c3.85 2.72 3.85 2.72 8.39 3.41 2.5-1.09 4.43-2.33 6.59-3.99 22.44-16.17 49.66-25.96 77.4-26.24 1.2-.02 1.2-.02 2.42-.03 33.06-.32 33.06-.32 47.87 4.27l2.19.65c36.58 11.09 67.16 36.67 85.6 70.03 10.75 20.29 18.27 43.59 18.41 66.67.01.78.02 1.55.02 2.35.22 30.13-3.12 55.87-16.22 83.3-.45.93-.9 1.87-1.36 2.84-6.58 12.83-15.61 24.85-25.64 35.16l-2.06 2.21c-5.46 5.7-11.46 10.52-17.71 15.31l-1.65 1.27c-1.5 1.14-3 2.27-4.5 3.41-.69.59-1.37 1.18-2.08 1.8v2c38.16 14.96 76.33 29.92 114.65 44.49 7.45 2.83 14.9 5.66 22.35 8.51.74.28 1.48.56 2.24.85 4.67 1.79 9.34 3.59 14.01 5.4 1.12.43 2.25.86 3.41 1.3 9.29 3.63 14.88 7.55 20.84 15.51.6.79 1.21 1.58 1.83 2.4 1.9 2.5 3.79 5.02 5.67 7.54.59.79 1.19 1.59 1.8 2.41 6.86 9.2 13.6 18.5 20.31 27.82 5.65 7.84 11.38 15.61 17.12 23.38 3.51 4.74 7.01 9.49 10.5 14.24 3 4.07 6 8.13 9.02 12.18 3.44 4.63 6.86 9.29 10.25 13.97.42.57.85 1.15 1.29 1.75 1.05 1.44 2.07 2.9 3.08 4.37.53.75 1.05 1.49 1.59 2.26 1.53 3.85 1.25 7.53 1.04 11.62-13.44 7.33-27.16 13.87-41.06 20.26-7.36 3.39-14.7 6.8-22.04 10.24-1.5.7-3.01 1.4-4.52 2.1-2.11.98-4.23 1.97-6.34 2.96-.63.29-1.25.58-1.89.88-4 1.88-7.71 3.77-11.15 6.56-.92 3.02-.92 3.02-.8 6.56-.02.68-.03 1.37-.04 2.08-.04 2.38-.04 4.75-.03 7.13l-.06 5.33c-.06 5.36-.07 10.72-.07 16.08 0 4.11-.01 8.21-.01 12.32-.01 7.15-.02 14.31-.02 21.46 0 5.09-.01 10.19-.01 15.28 0 2.6-.01 5.19-.01 7.79 0 3.51-.01 7.01-.01 10.52-.01 8.95 0 17.89.04 26.84.03 7.93.03 15.87 0 23.8-.01 4.16-.01 8.32.02 12.48.26 32.96.26 32.96-9 45.33-.67.92-1.35 1.84-2.04 2.78-8.45 10.85-21.9 15.62-34.21 20.65l-5.04 2.1c-5.23 2.17-10.47 4.32-15.71 6.47-1.65.67-3.29 1.35-4.94 2.02-6.43 2.64-12.86 5.27-19.29 7.9-12.63 5.16-25.19 10.48-37.74 15.85a1937.38 1937.38 0 01-35.9 14.91c-8.54 3.44-17.04 6.95-25.51 10.57-11.43 4.88-22.96 9.54-34.5 14.18-11.63 4.69-23.24 9.4-34.75 14.38-11.91 5.16-23.86 10.21-35.84 15.21-2.11.89-4.23 1.78-6.34 2.66-6.71 2.83-13.44 5.6-20.19 8.32-.82.33-1.63.66-2.47 1-11.87 4.73-21.99 7.44-34.28 2.36-1.39-.61-1.39-.61-2.81-1.24-1.04-.43-2.08-.87-3.15-1.32-2.4-1-4.79-2.02-7.17-3.04-4.61-1.98-9.24-3.91-13.87-5.84-7.33-3.06-14.66-6.12-21.99-9.2-10.66-4.48-21.33-8.92-32.01-13.35-.84-.35-1.69-.7-2.55-1.06-13.26-5.49-26.54-10.94-39.82-16.37a3821 3821 0 01-38.57-16.07c-11.29-4.77-22.6-9.48-33.94-14.12-11.13-4.57-22.21-9.23-33.25-14-9.71-4.18-19.46-8.23-29.23-12.26-6.09-2.52-12.18-5.05-18.27-7.58-2.85-1.18-5.7-2.36-8.55-3.53-3.2-1.33-6.39-2.66-9.57-4.01-.86-.35-1.73-.7-2.62-1.07-11.6-4.96-21.55-13.78-26.8-25.38-4.09-11.08-3.48-23.96-3.67-35.62-.04-1.93-.07-3.86-.11-5.78-.54-29.3-.64-58.6-.82-87.9-.05-8.38-.1-16.76-.16-25.14-.11-17.16-.22-34.32-.32-51.48-12.62-6.34-12.62-6.34-25.33-12.48-.79-.38-1.58-.75-2.39-1.14-1.66-.79-3.33-1.58-4.99-2.37-2.6-1.23-5.2-2.46-7.8-3.7-8.05-3.82-16.11-7.62-24.21-11.33-.66-.31-1.32-.61-2-.92-3.03-1.39-6.06-2.77-9.09-4.14-1.05-.48-2.1-.96-3.18-1.45-.9-.41-1.8-.82-2.73-1.24-2.24-1.21-3.7-2.25-5.28-4.23-1.04-4.97.11-7.66 2.75-11.94 4.11-6.05 8.53-11.88 12.95-17.7 3.43-4.53 6.81-9.1 10.17-13.68.59-.79 1.17-1.59 1.78-2.41 2.36-3.21 4.73-6.43 7.09-9.65 6.56-8.93 13.16-17.83 19.82-26.69 4.73-6.28 9.41-12.61 14-19l1.58-2.19c2.23-3.09 4.46-6.19 6.69-9.29 1.86-2.6 3.73-5.18 5.61-7.77.56-.79 1.13-1.59 1.72-2.4.81-1.13.81-1.13 1.65-2.27.47-.66.94-1.31 1.43-1.99 4.71-5.42 9.63-8.17 16.19-10.78.82-.34 1.65-.68 2.5-1.03 9.3-3.77 18.68-7.32 28.07-10.85 5.46-2.05 10.92-4.12 16.37-6.19 1.12-.42 2.24-.85 3.4-1.28 12.16-4.62 24.29-9.31 36.42-14.02.98-.38 1.97-.76 2.99-1.16 13.46-5.23 26.91-10.48 40.36-15.75 3.25-1.27 6.49-2.54 9.74-3.81.96-.38 1.92-.75 2.92-1.14 4.26-1.67 8.53-3.34 12.8-5.01.34-3.08.34-3.08-1.8-4.95-.83-.72-1.66-1.44-2.51-2.18-.92-.8-1.83-1.6-2.78-2.42a420.87 420.87 0 00-8.35-6.83c-25.3-20.6-42.18-49.33-50.56-80.62-.21-.77-.43-1.54-.65-2.34-6.87-25.97-6.34-58.08 1.65-83.66.26-.9.52-1.79.79-2.72 11.03-37.48 35.5-71.34 70.21-90.28 6.98-3.75 14.04-6.65 21.56-9.13 1.05-.34 2.1-.69 3.18-1.05 8.69-2.79 17.2-4.75 26.26-5.82 1.18-.14 2.35-.28 3.57-.43 36.91-3.36 73.5 5.54 103.76 27.01zM499 26.003c-.8.22-1.59.45-2.41.68-30.67 8.9-57.26 27.03-74.59 54.32-.57.9-.57.9-1.16 1.82-10.63 16.91-16.88 33.62-20.84 53.18-.25 1.16-.5 2.33-.75 3.53-6.3 35.37 2.37 74.73 22.53 104.39 1.98 2.77 4.07 5.43 6.22 8.08.44.55.88 1.1 1.33 1.67 9.99 12.58 21.54 22.15 34.49 31.54 5.4 3.92 10.7 7.97 15.99 12.04 5.67 4.34 11.35 8.64 17.19 12.75 8.69 6.1 17.06 12.63 25.49 19.08 13.93 10.64 28.06 21 42.2 31.35 8.44 6.19 16.81 12.45 25.12 18.82 6.97 5.33 13.97 10.58 21.16 15.61 2.01 1.42 4 2.86 5.96 4.33 1.34.99 1.34.99 2.69 1.99.76.58 1.51 1.15 2.29 1.73 1.98 1.25 1.98 1.25 4.01.99 2.81-1.22 5.14-2.82 7.64-4.59.56-.39 1.12-.79 1.69-1.19 7.51-5.32 14.89-10.82 22.29-16.3 2.38-1.76 4.77-3.52 7.16-5.27 9.23-6.77 18.37-13.64 27.46-20.59 6.5-4.97 13.07-9.84 19.67-14.67 5.97-4.38 11.86-8.85 17.73-13.36 6.41-4.91 12.87-9.73 19.44-14.43 7.45-5.33 14.76-10.84 22.03-16.41 5.25-4.03 10.53-8.01 15.85-11.95 34.52-25.62 56.99-56.28 64.58-99.43 5.32-36.41-1.87-75.07-22.41-106.03-3.88-5.08-8.29-9.64-12.7-14.25-1.72-1.83-3.32-3.75-4.91-5.68-18.7-21.44-49.25-34.55-77.26-36.62-36.12-2.14-71.59 6.57-99.69 30.06-3.09 2.48-5.03 3.72-8.99 4.49-4.72-.92-7.31-3.09-10.94-6.12-31.27-24.62-76.59-36.71-115.56-25.56zm-34.77 287.39c-.79.27-1.59.54-2.4.82-10.28 3.57-20.39 7.56-30.52 11.54-4.34 1.69-8.69 3.39-13.04 5.08-1.1.43-2.2.86-3.33 1.3-10.49 4.09-21.01 8.1-31.53 12.11-14.61 5.56-29.18 11.18-43.66 17.07-.64.26-1.28.52-1.94.79-7.69 3.12-15.29 6.4-22.81 9.9.73 3.3.73 3.3 4.11 4.76 1.4.65 2.8 1.29 4.2 1.92.73.33 1.46.66 2.2 1.01 5.55 2.48 11.13 4.8 16.79 7.03 9.69 3.85 19.31 7.84 28.92 11.89 4.72 1.98 9.43 3.96 14.15 5.93l2.81 1.18c7.43 3.12 14.87 6.21 22.32 9.28 12.02 4.96 24.01 9.97 36 15 15.52 6.5 31.05 12.97 46.61 19.39 6.91 2.85 13.82 5.73 20.73 8.59 11.88 4.93 23.76 9.85 35.64 14.77.96.39 1.92.79 2.91 1.2 4.83 2 9.67 3.99 14.51 5.99 1.91.78 3.82 1.57 5.73 2.36.94.39 1.88.77 2.85 1.17 5.71 2.36 11.4 4.74 17.09 7.14 3.61 1.53 7.24 3.04 10.86 4.56 1.7.71 3.39 1.43 5.08 2.15 2.33 1 4.66 1.97 6.99 2.94.68.3 1.35.59 2.05.9 5.85 2.39 9.25 1.66 15.03-.51 1.34-.57 2.68-1.14 4.02-1.72.73-.32 1.47-.63 2.22-.95 1.59-.68 3.17-1.36 4.76-2.04 4.26-1.83 8.54-3.65 12.82-5.46.88-.38 1.76-.75 2.66-1.14 9.01-3.81 18.06-7.5 27.13-11.16.77-.31 1.54-.62 2.34-.94 3.77-1.53 7.55-3.05 11.32-4.57 5.95-2.4 11.89-4.81 17.84-7.24 1.05-.43 2.11-.86 3.2-1.3 9.78-3.99 19.54-8.01 29.3-12.04 9.53-3.93 19.07-7.84 28.62-11.72 16.95-6.89 33.85-13.88 50.72-20.94l8.97-3.75c.75-.31 1.5-.62 2.28-.95 11.54-4.82 23.12-9.55 34.72-14.23 12-4.85 23.98-9.74 35.93-14.7 1.57-.65 3.13-1.3 4.7-1.95 11.09-4.59 11.09-4.59 21.87-9.85-3.57-3.95-8.07-5.53-12.88-7.63-1.07-.47-2.15-.94-3.26-1.43-12.79-5.49-25.83-10.31-38.87-15.18-13.94-5.22-27.82-10.57-41.68-16.01-3.81-1.5-7.61-2.99-11.42-4.48-.92-.36-1.83-.72-2.78-1.09-8.44-3.31-16.88-6.62-25.34-9.89-1.45-.56-2.9-1.13-4.35-1.69-1.97-.77-3.94-1.54-5.92-2.29-1.09-.43-2.19-.85-3.32-1.29-6.41-2.08-6.41-2.08-12.81-.94-.83.57-1.65 1.14-2.5 1.73-.95.65-1.9 1.31-2.87 1.98-3.6 2.65-7.17 5.35-10.69 8.1-4.54 3.55-9.19 6.94-13.87 10.29-7.38 5.3-14.66 10.7-21.91 16.16-5.63 4.24-11.29 8.43-16.97 12.59-6.74 4.95-13.42 9.98-20.06 15.07-7.41 5.66-14.86 11.25-22.38 16.76-4.18 3.06-8.34 6.15-12.47 9.27-1.34 1.01-1.34 1.01-2.7 2.04a487.56 487.56 0 00-5.1 3.87 483.53 483.53 0 01-6.85 5.06c-.7.51-1.39 1.02-2.11 1.54-4.39 3-7.43 4.4-12.89 3.46-2.62-1.4-4.77-2.75-7.13-4.5-.68-.49-1.35-.97-2.06-1.47-7.62-5.5-15.06-11.26-22.52-16.99-4.88-3.75-9.82-7.41-14.79-11.04-6.75-4.94-13.42-9.98-20.06-15.07a872.525 872.525 0 00-21.99-16.28c-4.84-3.48-9.63-7-14.39-10.59-12.08-9.1-24.23-18.11-36.56-26.88-.71-.51-1.43-1.02-2.16-1.54-.66-.47-1.32-.93-2-1.41-.57-.41-1.15-.82-1.74-1.24-4.53-2.81-7.73-1.22-12.37.4zm485.41 71.54c-1.07.45-2.15.91-3.25 1.38-1.77.77-1.77.77-3.58 1.56-1.94.83-3.88 1.65-5.82 2.48-1.4.59-2.8 1.19-4.2 1.78-8.14 3.46-16.35 6.75-24.56 10.04-15.31 6.16-30.56 12.44-45.75 18.88-12.21 5.17-24.46 10.24-36.73 15.26-11.7 4.78-23.37 9.6-34.99 14.55-8.93 3.79-17.87 7.53-26.82 11.26-.75.31-1.5.63-2.28.95-13.36 5.56-26.73 11.1-40.1 16.64-11.9 4.93-23.8 9.89-35.68 14.88-10.97 4.62-21.97 9.18-32.97 13.71-1.14.48-2.29.95-3.46 1.43-1.01.42-2.02.83-3.05 1.26a69.83 69.83 0 00-4.4 2.01c1.42 9.07 12 17.14 18.33 23.36 3.53 3.47 6.86 7.04 10.06 10.81 2.42 2.74 5.04 5.27 7.64 7.83 2.52 2.56 4.84 5.27 7.19 8 2.48 2.79 5.15 5.37 7.81 7.99 2.54 2.59 4.89 5.32 7.25 8.07 2.19 2.47 4.53 4.76 6.88 7.06 1.77 1.81 3.43 3.66 5.07 5.58 3.73 4.29 7.61 8.43 11.52 12.55 5.78 6.11 11.49 12.27 17.11 18.52 2.13 2.38 2.13 2.38 5.14 4.23 4.17-.34 7.53-1.49 11.29-3.27 1.51-.7 1.51-.7 3.06-1.43 1.08-.51 2.16-1.02 3.27-1.55 2.36-1.11 4.71-2.21 7.07-3.31 1.22-.58 2.44-1.15 3.67-1.73 4.6-2.17 9.22-4.31 13.84-6.44 11.29-5.22 22.55-10.49 33.8-15.77 20.68-9.7 41.39-19.33 62.2-28.75 11.56-5.24 23.07-10.61 34.55-16.03 9.5-4.49 19.02-8.94 28.58-13.3 6.38-2.91 12.74-5.84 19.1-8.79.85-.4 1.69-.79 2.57-1.2l10.59-4.92c9.37-4.34 18.73-8.68 28.14-12.93.76-.35 1.52-.69 2.31-1.05 3.56-1.61 7.13-3.21 10.69-4.81 5.92-2.67 11.73-5.34 17.27-8.72-.39-5.42-3.55-8.94-6.69-13.13-.58-.79-1.16-1.57-1.76-2.38-1.22-1.67-2.45-3.33-3.69-4.99-1.79-2.41-3.57-4.82-5.35-7.24-2.9-3.96-5.82-7.92-8.74-11.87-2.35-3.17-4.69-6.35-7.02-9.52-1.17-1.58-2.33-3.16-3.5-4.74-2.93-3.98-5.86-7.97-8.79-11.95-6.21-8.48-12.47-16.91-18.9-25.23-2.46-3.18-4.88-6.37-7.2-9.64-.4-.57-.8-1.13-1.22-1.71-1.06-1.49-2.1-2.98-3.14-4.48-3.88-4.12-7.51-3.3-12.36-1.19zm-662.21 5.99c-2.86 3.63-5.56 7.34-8.21 11.13-3.92 5.6-8.06 11.02-12.22 16.45-4.43 5.77-8.82 11.54-13 17.5-4.18 5.95-8.58 11.72-13 17.5a720.003 720.003 0 00-18 24.5c-.7.97-1.4 1.93-2.13 2.93-.64.89-1.27 1.78-1.93 2.69-.55.76-1.1 1.51-1.66 2.29-1.28 2.08-1.75 3.73-2.28 6.09 6.32 4.48 12.79 8.04 19.81 11.31 1.01.48 2.03.96 3.07 1.45 6.9 3.24 13.85 6.38 20.81 9.48 8.22 3.68 16.36 7.53 24.5 11.38 11.39 5.39 22.82 10.69 34.31 15.88 13.48 6.09 26.87 12.34 40.24 18.66.7.33 1.4.66 2.11 1l2.1.99c6.71 3.16 13.44 6.29 20.17 9.41 10.02 4.64 20.02 9.31 30 14 9.61 4.51 19.23 9 28.88 13.44 9.17 4.22 18.32 8.48 27.46 12.76 2.08.97 4.15 1.95 6.23 2.92 5.67 2.65 11.33 5.31 16.94 8.08.79.39 1.58.78 2.4 1.18 1.38.67 2.75 1.36 4.11 2.06 2.6 1.28 4.57 2 7.48 1.97 3.15-1.29 4.9-3.08 7.25-5.54.88-.9 1.75-1.81 2.64-2.74 2.66-2.87 5.24-5.79 7.78-8.76 2.45-2.77 5.1-5.34 7.74-7.93 1.91-1.94 3.7-3.94 5.47-6 3.02-3.51 6.23-6.76 9.53-10 1.91-1.94 3.7-3.94 5.47-6 2.4-2.79 4.88-5.42 7.5-8 2.6-2.56 5.06-5.17 7.44-7.94 3.27-3.81 6.79-7.31 10.36-10.84 2.64-2.67 5.08-5.48 7.52-8.32 1.66-1.88 3.39-3.65 5.18-5.4 7.73-7.63 14.51-16.21 21.5-24.5-3.55-4.3-7.77-5.9-12.79-7.95-.89-.37-1.77-.74-2.67-1.12-2.91-1.22-5.82-2.42-8.73-3.62-2.04-.85-4.07-1.7-6.11-2.55-5.22-2.18-10.45-4.35-15.68-6.51-3.75-1.55-7.5-3.11-11.24-4.67-7.66-3.18-15.32-6.36-22.98-9.52-9.42-3.9-18.83-7.82-28.24-11.75a6103.34 6103.34 0 00-32.34-13.39c-12.83-5.27-25.63-10.6-38.41-15.99-.8-.33-1.6-.67-2.43-1.02l-20.4-8.61c-16.83-7.12-33.73-14.06-50.69-20.89-13.22-5.33-26.4-10.75-39.53-16.3-2.24-.95-4.48-1.9-6.73-2.84-1.97-.83-3.94-1.67-5.91-2.51-1.31-.56-1.31-.56-2.65-1.12l-2.27-.97c-7.14-2.19-9.34 1.04-13.77 6.25zM615 535.003c-2.53 2.49-5.05 4.99-7.56 7.5-.71.69-1.41 1.39-2.14 2.11-4.06 4.04-7.92 8.19-11.66 12.53-2.43 2.75-5.02 5.3-7.64 7.86-3.97 3.91-7.75 7.89-11.36 12.14-2.36 2.67-4.89 5.14-7.45 7.61-1.9 1.95-3.69 3.94-5.48 6-3.61 4.16-7.36 8.18-11.15 12.18-1.41 1.5-2.82 2.99-4.24 4.49-.71.76-1.43 1.51-2.17 2.29-2.77 2.94-5.52 5.89-8.27 8.84-2.64 2.81-5.29 5.6-7.94 8.39-1.94 2.06-3.84 4.14-5.74 6.24l-3.64 3.88c-.79.9-.79.9-1.61 1.82-2.8 2.94-4.95 4.53-9.07 4.84-6.39-.47-11.91-3.55-17.57-6.35-1.23-.59-2.45-1.18-3.68-1.77-2.58-1.23-5.15-2.47-7.72-3.72-5.69-2.75-11.42-5.41-17.15-8.07-1.9-.88-3.8-1.77-5.69-2.65-7.93-3.71-15.87-7.38-23.82-11.04-9.24-4.25-18.45-8.57-27.65-12.91-.71-.34-1.43-.68-2.16-1.03-.72-.33-1.43-.67-2.16-1.02-11.48-5.41-23-10.7-34.56-15.92-8.63-3.9-17.2-7.87-25.72-11.99-8.15-3.94-16.35-7.71-24.63-11.38-1.06-.47-2.12-.95-3.21-1.43-1-.44-1.99-.88-3.01-1.33-.88-.38-1.75-.77-2.65-1.16-2.5-.95-4.88-1.46-7.5-1.95-.27 24.06-.51 48.12-.7 72.18-.09 11.17-.2 22.35-.33 33.52-.11 9.74-.2 19.48-.27 29.22-.03 5.16-.08 10.31-.15 15.47-.07 4.86-.11 9.71-.12 14.57-.01 1.78-.04 3.56-.07 5.33-.18 10.42.29 17.95 6.64 26.71 1.01 1.49 1.01 1.49 2.04 3.02 6.09 7.1 13.15 10.44 21.65 13.85 1.42.6 2.84 1.2 4.27 1.79 4.33 1.82 8.68 3.58 13.04 5.34 1.3.52 2.59 1.04 3.89 1.57 4.91 1.98 9.84 3.95 14.76 5.9 9.16 3.62 18.23 7.41 27.29 11.28a2426.97 2426.97 0 0035.75 14.93c.8.33 1.59.66 2.42.99 3.31 1.36 6.63 2.72 9.95 4.07 10.59 4.34 21.17 8.7 31.75 13.07.99.41 1.98.82 3.01 1.24 10.79 4.46 21.57 8.93 32.3 13.51 13.26 5.65 26.62 11.08 39.97 16.52 9.06 3.69 18.12 7.41 27.15 11.2.81.34 1.61.68 2.44 1.02 3.76 1.58 7.51 3.16 11.26 4.75 9.56 4.03 19.24 7.59 29.06 10.95 1.33-2.67 1.14-4.72 1.16-7.71.02-1.22.03-2.44.04-3.69.01-1.37.01-2.74.02-4.1.01-1.45.02-2.89.04-4.33.03-3.98.05-7.95.08-11.93l.06-10.21c.08-10.23.13-20.45.19-30.68l.09-14.58c.36-61.55.3-123.09-.12-184.65 0-.94-.01-1.88-.02-2.85-.16-23.76-.34-47.52-.54-71.27l-2-1zm21-1c-1.76 1.75-1.15 4.23-1.17 6.61l-.03 3.72c-.01 1.37-.01 2.75-.02 4.13-.01 1.45-.02 2.9-.04 4.35-.03 4-.05 8.01-.08 12.01-.02 3.43-.04 6.85-.07 10.28-.07 10.29-.13 20.59-.18 30.88l-.09 14.67c-.36 61.93-.3 123.85.12 185.78 0 .95.01 1.9.02 2.88.16 23.89.34 47.79.54 71.69 6.09-.6 6.09-.6 11.92-2.35.66-.27 1.33-.54 2.01-.82.7-.3 1.4-.6 2.12-.9 1.13-.47 1.13-.47 2.29-.95 2.47-1.03 4.94-2.07 7.41-3.11 1.74-.72 3.47-1.44 5.21-2.17 3.58-1.49 7.16-2.98 10.74-4.48 5.01-2.1 10.02-4.19 15.03-6.27 8.76-3.64 17.52-7.29 26.27-10.95 16.41-6.86 32.85-13.66 49.29-20.44 12.91-5.33 25.82-10.68 38.71-16.06 13.8-5.76 27.61-11.48 41.44-17.19.98-.41 1.97-.82 2.99-1.24 8.67-3.58 17.34-7.16 26.01-10.73 16.92-6.96 33.81-13.99 50.56-21.34.81-.35 1.61-.7 2.44-1.06 9.39-4.1 16.96-9.02 21.5-18.57 1.9-6.04 2.22-12.06 2.28-18.36.01-.77.02-1.54.04-2.34l.09-7.71c.02-1.85.05-3.69.07-5.54.06-4.98.12-9.96.17-14.94.03-3.11.07-6.21.1-9.32.33-30.14.33-60.28-.03-90.42-.04-2.81-.07-5.61-.1-8.42-.05-4.39-.11-8.78-.17-13.17-.03-1.61-.05-3.21-.07-4.82-.03-2.18-.06-4.37-.1-6.55l-.06-3.7c-.13-2.54-.41-4.66-1.16-7.08-5.91 1.85-11.54 4-17.15 6.63-.75.35-1.5.7-2.28 1.06-2.46 1.14-4.92 2.28-7.38 3.43-1.74.81-3.48 1.62-5.22 2.42-12.23 5.68-24.41 11.43-36.59 17.21-10.48 4.97-21 9.84-31.57 14.62a4630.79 4630.79 0 00-39.86 18.27c-9.23 4.28-18.46 8.59-27.66 12.95l-2.34 1.1c-3.6 1.71-7.21 3.42-10.8 5.14-22.82 10.87-22.82 10.87-29.15 10.17a51.802 51.802 0 01-5.75-4.88c-.79-.74-.79-.74-1.59-1.51-4.04-3.88-7.81-7.99-11.51-12.21-2.18-2.43-4.45-4.73-6.78-7.03-3.38-3.34-6.53-6.8-9.62-10.41-2.48-2.78-5.13-5.35-7.78-7.96-2.53-2.57-4.85-5.28-7.19-8-1.86-2.09-3.79-4.05-5.78-6-3.25-3.2-6.25-6.55-9.22-10-1.86-2.09-3.79-4.05-5.78-6a127.81 127.81 0 01-7.38-7.88c-3.52-4.1-7.35-7.87-11.2-11.67-2.16-2.19-4.18-4.43-6.17-6.77-2.84-3.31-5.78-6.04-9.25-8.68h-1z" fill="#2A0000"/>
</svg>
