<svg version="1.1" xmlns="http://www.w3.org/2000/svg" viewBox="0 0 1252 1199">
  <path d="M150.901 904.873h2.93c3.25-.01 6.5-.01 9.76 0 2.37 0 4.75-.01 7.13-.01h39.67c18.35 0 36.69 0 55.04.01 8.88 0 17.76 0 26.64.01 53.23.01 106.45.05 159.67.09 19.14.02 38.27.03 57.41.05 75.68.05 151.37.12 227.05.21l20.7.03h5.17c27.64.04 55.29.06 82.93.08 28.23.03 56.46.06 84.68.1 3.95.01 7.9.01 11.85.02h2.35c12.33.02 24.67.03 37.01.04 12.27 0 24.53.02 36.8.04 6.6.02 13.19.03 19.79.02 6.03 0 12.06.01 18.09.03 2.17.01 4.33.01 6.49 0 22.42-.05 47.09.75 65.94 14.41 1.3.9 1.3.9 2.62 1.82 11.75 9.18 14.8 25.16 16.66 39.32 1.61 13.71 2.09 27.34 2.09 41.13 0 3.29.04 6.58.08 9.87.09 17.66-1.4 34.85-9.45 50.86-.44.91-.88 1.83-1.34 2.78-5.93 11.68-12.94 20.88-25.66 25.22-10.68 3.19-20.86 3.47-31.89 3.5l-5.59.06c-5.02.04-10.04.07-15.06.1-4.26.02-8.51.05-12.77.09-14.23.11-28.46.19-42.69.25-.99 0-1.97.01-2.99.01-26 .11-52 .14-78.01.15-10.41 0-20.82 0-31.23.01-25.05.02-50.09.02-75.14.03-11.88 0-23.76 0-35.64.01-40.8.01-81.61.02-122.41.02-2.54 0-5.08 0-7.62.01h-26.76c-41.22 0-82.44.02-123.66.04-43.79.02-87.58.04-131.37.04h-17.99c-18.97 0-37.95.01-56.93.03-19.02.01-38.04.02-57.05.01-11.29-.01-22.58 0-33.86.01-7.54.01-15.08.01-22.62 0-4.29 0-8.58-.01-12.87.01-3.91.01-7.82.01-11.73-.01-1.4 0-2.8 0-4.2.01-20.43.11-36.82-5.3-51.85-19.21-14.96-15.71-16.19-42.01-16.27-62.43-.01-1.14-.02-2.28-.02-3.45-.01-2.4-.02-4.8-.02-7.21-.01-3.61-.04-7.23-.07-10.84-.11-22.57 1.75-44.73 14.31-64.24.35-.54.69-1.08 1.05-1.64 7.48-11.35 15.86-16.34 29.09-19.82 7.23-1.37 14.41-1.69 21.76-1.67zm206.1 19.13v1h2.74l164.07.33c6.7.01 13.39.03 20.08.04h2.02l57.43.12c31.98.06 63.96.12 95.94.19 1.9 0 1.9 0 3.83.01 81.06.17 162.11.48 243.16.96 7.3.05 14.6.09 21.9.13l5.23.03c32.53.19 65.07.25 97.6.19v-1c-48.06-1.86-96.13-2.21-144.22-2.23h-2.33c-19.71-.01-39.42 0-59.13.02-13.09.01-26.18.02-39.27.02h-16.04c-31.32 0-62.65.02-93.98.04-30.37.01-60.74.03-91.11.04h-2.85c-9.46 0-18.92 0-28.37.01-19.26 0-38.52.01-57.77.01h-2.68c-58.75.02-117.5.05-176.25.09zm-86 1v1h58v-1h-58zm-67 1v1h37v-1h-37zm-82 6c3.6 1.2 5.57.74 9.3.13 7.29-1.12 14.53-1.74 21.89-2.2 1.27-.08 2.55-.16 3.86-.25 12.98-.8 25.96-1.29 38.95-1.68v-1c-6.99-.05-13.98-.09-20.97-.11-2.37-.01-4.74-.03-7.11-.04-23.47-.69-23.47-.69-45.92 5.15zm951-5v1c16.33.49 16.33.49 33 1v-1c-4.22-.81-8.2-1.12-12.49-1.1-1.2 0-2.4.01-3.64.01-1.23.01-2.47.02-3.75.02-1.26.01-2.52.01-3.82.02-3.1.01-6.2.03-9.3.05zm37 3l1 2 2-1-3-1zm3 2c.95 1.15 1.91 2.29 2.87 3.43.54.64 1.07 1.28 1.62 1.94 1.43 1.74 1.43 1.74 3.51 2.63-1.44-3.36-3.25-5.59-6-8h-2zm-999.63 5.5c-.78.82-1.56 1.65-2.37 2.5l1 2 6-7c-2.36-.23-2.36-.23-4.63 2.5zm1008.63 3.5c.2.58.41 1.16.62 1.75.27.79.54 1.57.82 2.37.26.77.53 1.53.8 2.32 1.8 6.1 2.03 12.24 2.29 18.55.05.95.09 1.89.13 2.87.14 3 .27 6.01.4 9.01.09 2.05.18 4.09.28 6.13l.66 15h1c.1-5.75.17-11.49.22-17.23.02-1.95.05-3.9.08-5.85.96-17.9.96-17.9-5.94-33.76-.45-.38-.9-.77-1.36-1.16zm-1012 1l1 2zm-5 14l1 3zm-1 5c-4.93 23.64-2.82 48.13-1 72h1c-.01-1.05-.01-2.09-.02-3.17-.1-22.97.1-45.88 1.02-68.83h-1zm1024 40c-.05 1.13-.1 2.26-.15 3.43-.19 4.28-.39 8.56-.6 12.83-.08 1.84-.16 3.68-.25 5.52-.49 11.17-1.27 22.16-3 33.22 6.55-6.56 5.08-20.11 5.1-28.73-.01-3.16-.02-6.31-.04-9.46 0-1.64-.01-3.27-.01-4.91-.01-3.97-.03-7.93-.05-11.9h-1zm-1024 33v6h1v-6h-1zm1 7l1 3zm1 5l1 2zm1 3l1 2zm2 5l1 2zm1014 2l1 2zm-1 2l1 2zm-1 2c-.99 1.48-.99 1.48-2 3l3-1-1-2zm-53.36 8.21l-2.36.03c-3.29.05-6.58.09-9.87.14-44.56.61-89.11.79-133.68.82-10.53 0-21.05.02-31.58.03l-58.23.06c-19.15.01-38.3.03-57.45.05-1.8.01-1.8.01-3.64.01-6.1 0-12.21.01-18.32.02-42.97.05-85.93.09-128.9.13l-125.04.12c-1.93.01-1.93.01-3.91.01-12.96.01-25.92.03-38.88.04-26.4.03-52.79.06-79.18.08-1.82.01-1.82.01-3.68.01l-241.92.24v1c10.94.8 21.8 1.14 32.77 1.13h4.91c4.46.01 8.93.01 13.39.01 4.87 0 9.74 0 14.61.01 9.64 0 19.29.01 28.93.01 11.56 0 23.11 0 34.67.01 27.91.02 55.83.02 83.75.03 13.21 0 26.41 0 39.62.01 44.5.01 89.01.02 133.51.02h6.38c4.26.01 8.52.01 12.78.01h19.25c45.89 0 91.78.02 137.66.04 32.99.02 65.98.03 98.97.04h68.68c21.11 0 42.22.01 63.33.03 21.2.01 42.4.02 63.6.01 12.6-.01 25.2 0 37.8.01 8.41.01 16.83.01 25.24 0 4.79 0 9.59-.01 14.38.01 4.37.01 8.73.01 13.1-.01 1.57 0 3.13 0 4.7.01 9.04.05 17.28-.66 25.97-3.38v-1c-13.79-.06-27.57.02-41.36.21zM145.949 509.874h2.02c2.23-.01 4.47-.01 6.7 0 1.63 0 3.25-.01 4.88-.01h28.04c8.54-.01 17.08-.01 25.61-.01 12.7 0 25.4 0 38.09-.01 24-.01 47.99-.01 71.99-.01 18.53 0 37.06 0 55.59-.01h18c37.95-.01 75.91-.01 113.86-.01h36.38c45.25 0 90.5-.01 135.76-.02 11.4 0 22.8-.01 34.19-.01h2.13c21.64-.01 43.28-.01 64.92-.01h68.8c21.14 0 42.28-.01 63.42-.02 21.25-.01 42.49-.01 63.74 0 12.62 0 25.25 0 37.87-.01h25.3c4.81.01 9.61.01 14.41 0 4.38-.01 8.76 0 13.14 0 1.56.01 3.13.01 4.7 0 19.92-.06 38.53 1.88 55.51 13.26 1.15.73 1.15.73 2.32 1.48 9.76 7.2 12.75 22.18 14.68 33.52.88 6.47 1.21 12.89 1.35 19.42.03.98.05 1.96.07 2.97.05 2.07.1 4.14.14 6.21.07 3.1.14 6.19.22 9.28.23 9.84.29 19.65-.15 29.48-.03.82-.07 1.65-.11 2.49-.78 14.8-4.28 28.73-10.52 42.15-.68 1.54-.68 1.54-1.37 3.12-4.43 9.23-11.79 14.27-21.17 18.03-8.08 2.77-16.61 3.19-25.08 3.44l-3.29.12c-3.51.13-7.02.24-10.53.35-2.46.08-4.92.17-7.38.25-6.01.2-12.02.4-18.03.59-3.41.1-6.81.22-10.22.33-49.73 1.62-99.48 1.92-149.22 1.9-7.97-.01-15.93 0-23.89 0-15.6.01-31.2.01-46.8 0h-159.21c-30.64-.01-61.29-.01-91.93 0h-156.1c-149.31.03-149.31.03-218.79-1.07-4.01-.06-8.02-.13-12.03-.19-63.1-.97-63.1-.97-81.1-17.89-10.03-10.77-14.88-23.54-16-38.01-.07-.95-.15-1.89-.23-2.86-.82-10.44-1.16-20.89-1.37-31.35-.07-3.26-.17-6.52-.26-9.78-.57-23.2.99-45.14 14-64.98.84-1.34.84-1.34 1.7-2.7 7.08-10.06 19.39-15.9 31.3-18.3 4.7-.77 9.19-1.13 13.95-1.13zm866.9 17.03c-4.62 0-9.24 0-13.86.01-8.05 0-16.1.01-24.15.02l-35.91.03-67.87.06-52.39.06c-5.04 0-10.08.01-15.13.01h-3.8c-35.19.04-70.39.07-105.59.11-1.34 0-2.68 0-4.01.01-6.71 0-13.42.01-20.13.02-2.02 0-4.04 0-6.06.01h-4.04c-42.65.05-85.31.09-127.97.12l-32.3.03h-2.01c-35.8.03-71.6.07-107.4.11-5.04 0-10.07.01-15.11.02h-3.75c-19.94.02-39.88.04-59.82.05-20.01.02-40.03.04-60.05.07l-35.66.03c-7.94 0-15.88.01-23.83.03-4.52.01-9.04.01-13.57.01-4.12 0-8.24 0-12.36.02h-4.42c-11.68-.03-23.57.25-34.66 4.27v1l3.23-.2c11.64-.7 23.27-1.1 34.92-1.36l2.81-.06c18.98-.42 37.96-.54 56.95-.54 4.66 0 9.32-.01 13.98-.02 8.11-.01 16.23-.02 24.34-.02l36.19-.03c20.3-.03 40.61-.05 60.92-.06l60.22-.06h3.79c6.37-.01 12.73-.02 19.1-.02 44.96-.05 89.92-.1 134.88-.14l32.61-.03h2.04l94.26-.09c2.04 0 4.08 0 6.12-.01 13.54-.01 27.08-.02 40.62-.04 27.57-.02 55.14-.05 82.72-.08h3.84c84.49-.09 168.97-.17 253.46-.24v-1c-4.59-.88-9.09-1.21-13.75-1.32l-2.28-.06-7.42-.18-2.61-.06c-18.37-.45-36.72-.52-55.09-.48zm97.15 8.1l1 2 2-1-3-1zm-995 3c-3.64 3.74-4.92 7.23-6.19 12.25-.32 1.24-.64 2.48-.98 3.76-2.1 9.45-1.95 18.92-1.89 28.55 0 1.4.01 2.81.01 4.21.01 3.41.03 6.82.05 10.23h1c.05-.99.09-1.97.14-2.98.17-3.72.36-7.44.55-11.15.08-1.6.16-3.19.23-4.79 1.31-28.75 1.31-28.75 9.08-40.08h-2zm1014 23l1 4zm1 8v10h1v-10h-1zm1 13v25h1v-25h-1zm1 29v13h1v-13h-1zm-1 13v13h1v-13h-1zm-1026 11v7h1v-7h-1zm1025 5l1 3zm-1024 3l1 3zm1023 2l1 2zm-1022 2l1 2zm1021 1l1 2zm-1020 2l1 2zm1019 1l1 2zm-1018 1l1 2zm1017 1l1 2zm-1016 1l1 4 1-2-2-2zm1015 1l1 2zm-1 2l1 2zm-1012 1l2 4v-3l-2-1zm4 5l2 4h3l-5-4zm7 7c3.64 4.19 5.92 5.67 11.44 6.27 1.24.14 2.48.28 3.75.42 5.96.48 11.89.78 17.86.93 1.35.03 2.69.07 4.03.11 15.85.42 31.71.4 47.57.37 4.28-.01 8.57-.01 12.86-.01 8.07 0 16.14-.01 24.2-.02 9.21-.01 18.42-.02 27.63-.02 18.88-.01 37.77-.03 56.66-.05v-1c-21.6-.82-43.2-1.13-64.81-1.28-.67-.01-1.33-.01-2.02-.02-11.09-.08-22.19-.15-33.29-.22-8.38-.05-16.75-.1-25.13-.16-4.51-.03-9.02-.06-13.53-.08-12-.08-23.99-.27-35.99-.7l-3.36-.12c-19.44-.76-19.44-.76-27.87-4.42zm975.19 1.93c-32.85 4-66.39 3.28-99.43 3.6-5.29.05-10.58.11-15.88.16-10.29.11-20.58.21-30.88.31v1c17.72.07 35.43.12 53.15.15 8.23.02 16.46.04 24.68.07 7.18.03 14.36.05 21.54.06 3.79 0 7.59.01 11.38.03 24.62.65 24.62.65 48.25-5.31v-1c-4.33-.13-8.53.38-12.81.93z" fill="#F9F9F9"/>
  <path d="M938.827 114.953c16.96-.03 33.92-.05 50.87-.06 11.07-.01 22.13-.03 33.19-.06l22.45-.03c4.3 0 8.6 0 12.91-.02 52.59-.17 52.59-.17 72.75 13.22.71.44 1.41.87 2.13 1.33 8.67 6.21 10.26 18.65 12.56 28.42.2.85.41 1.71.61 2.59 3.17 14.3 4.08 28.62 4.02 43.22-.01.78-.01 1.55-.01 2.35-.03 12.7-.81 25.13-2.91 37.67-.36 2.21-.68 4.43-.98 6.65-2.74 17.13-12.57 33.77-25.73 45.02-4.7 3.05-9.21 3.34-14.69 3.75-1.51.13-1.51.13-3.05.26-9.54.76-19.01.89-28.57.9-1.75 0-3.5 0-5.25.01l-14.39.03-15.66.03c-10.33.03-20.66.05-30.99.06-8.58.02-17.15.04-25.72.05-1.86.01-1.86.01-3.75.01-2.52.01-5.05.01-7.57.02-29.01.06-58.01.11-87.02.16l-31.57.06h-2.1c-2.8.01-5.6.01-8.4.02-71.94.13-143.88.24-237.84.37-9.42.01-18.85.02-28.27.04-66.25.09-132.5.17-198.74.2-3.84 0-7.68 0-11.51.01h-7.63c-18.96.01-37.92.03-56.88.05-21.49.03-42.98.04-64.47.04-11.98 0-23.96.01-35.94.03-7.98.01-15.96.01-23.93.01-4.54-.01-9.08-.01-13.62.01-4.13.01-8.26.01-12.4 0-1.48 0-2.96 0-4.44.01-14.04.08-26.62-1.61-37.4-11.28-25.68-26.88-24.79-66.53-24.02-101.2.62-17.94 4.69-34.16 11.7-50.59l.85-2c3.03-6.8 6.18-10.55 12.83-13.94 1.08-.57 2.16-1.14 3.27-1.72 15.26-6.22 32.19-5.09 48.33-5.05 3.81 0 7.62-.01 11.43-.02 6.67-.02 13.34-.02 20.01-.02 9.92.01 19.85-.01 29.78-.02 16.75-.03 33.5-.04 50.25-.05 16.7 0 33.39-.01 50.09-.03h3.16c5.31-.01 10.62-.02 15.93-.02 37.68-.05 75.35-.07 113.03-.1 36.14-.02 72.29-.04 108.44-.08h3.33l29.94-.03c57.27-.06 114.54-.12 171.81-.16h2.96c22.14-.02 44.27-.03 66.41-.04h14.11c4.7-.01 9.4-.01 14.1-.01 24.06-.01 48.13-.03 72.2-.07zm-801.83 18.05v1l865-1v-1c-81.81-.02-163.62-.04-245.43-.05h-82.55c-12.9-.01-25.8-.01-38.69-.01h-3.89c-41.62 0-83.24-.01-124.86-.02-42.76-.01-85.52-.01-128.28-.02h-21.7c-19.15 0-38.29 0-57.44-.01-19.23-.01-38.46-.01-57.7-.01h-34.3c-7.64-.01-15.27-.01-22.9 0-4.35 0-8.7 0-13.06-.01h-25.19c-3.07.13-5.98.56-9.01 1.13zm883-1v1h20v-1h-20zm-887 2l4 1zm975 5c3.13 2.64 6.09 3.84 10 5-2.12-2.34-4.06-3.81-7-5h-3zm-991 4l-3 3 1 2 3-3-1-2zm1001 1c.99 1.48.99 1.48 2 3l2-1-4-2zm4 3c.34.67.68 1.35 1.03 2.04 1.99 3.99 3.98 7.97 5.97 11.96-.41-5.94-1.19-9.38-5-14h-2zm-1009 1l1 2zm-4 8l1 2zm-1 2l1 2zm-1 3l1 3zm1022 0v8h1v-8h-1zm-1023 3c-4.46 14.36-5.55 30.02-5 45h1c.78-3.54 1.22-6.97 1.47-10.57.12-1.6.12-1.6.23-3.22.16-2.2.31-4.4.47-6.6.46-6.21 1.2-12.18 2.53-18.27.32-2.44.06-4.03-.7-6.34zm1023 49c-.02.58-.05 1.17-.07 1.78-.51 11.75-1.07 23.49-1.93 35.22h1c2.68-12.24 2.2-24.55 2-37h-1zm-1027 3v12h1v-12h-1zm1 12v7h1v-7h-1zm1 7l1 4zm1 5l1 3zm1 4l1 2zm1 4l1 2zm1019 2l1 4zm-1018 1l1 2zm1 2l1 2zm1016 1l1 3zm-1015 2l1 2zm1 2l1 2zm1 2l1 2zm1011 0l1 2zm-1010 2l1 2zm1006 5v3zm-995 9c.99 2.08.99 2.08 3 4 2.7.67 5 1.02 7.74 1.23.86.08 1.72.16 2.61.23 15.29 1.14 30.69.79 46.01.74 4.71-.01 9.42-.01 14.13-.02 8.89 0 17.78-.02 26.67-.04 10.13-.02 20.27-.03 30.4-.04 20.81-.02 41.63-.06 62.44-.1v-1c-.74-.01-1.49-.01-2.26-.02-18.26-.1-36.52-.21-54.77-.32-8.84-.06-17.67-.11-26.5-.16-7.71-.04-15.41-.09-23.12-.14-4.07-.03-8.14-.05-12.21-.07-14.6-.08-29.19-.16-43.78-.75l-2.84-.12c-9.28-.42-18.42-1.53-27.52-3.42zm966.71 3.46c-11 .79-22.01.89-33.03 1.06-1.26.02-2.52.05-3.82.07-45.07.72-90.16.75-135.23.92-12.86.05-25.72.11-38.58.16-26.35.12-52.7.22-79.05.33v1c35.95.04 71.89.08 107.83.1 4.25 0 8.49 0 12.74.01h2.56c13.68.01 27.35.02 41.03.04 14.04.02 28.08.03 42.12.04 8.66 0 17.31.01 25.97.02 5.95.01 11.89.02 17.84.01 3.42 0 6.85 0 10.27.02 21.1 1.37 21.1 1.37 40.64-4.24-3.79-.06-7.51.17-11.29.46z" fill="#F8F8F8"/>
  <path d="M150.901 904.873h2.93c3.25-.01 6.5-.01 9.76 0 2.37 0 4.75-.01 7.13-.01h39.67c18.35 0 36.69 0 55.04.01 8.88 0 17.76 0 26.64.01 53.23.01 106.45.05 159.67.09 19.14.02 38.27.03 57.41.05 75.68.05 151.37.12 227.05.21l20.7.03h5.17c27.64.04 55.29.06 82.93.08 28.23.03 56.46.06 84.68.1 3.95.01 7.9.01 11.85.02h2.35c12.33.02 24.67.03 37.01.04 12.27 0 24.53.02 36.8.04 6.6.02 13.19.03 19.79.02 6.03 0 12.06.01 18.09.03 2.17.01 4.33.01 6.49 0 22.42-.05 47.09.75 65.94 14.41 1.3.9 1.3.9 2.62 1.82 11.75 9.18 14.8 25.16 16.66 39.32 1.61 13.71 2.09 27.34 2.09 41.13 0 3.29.04 6.58.08 9.87.09 17.66-1.4 34.85-9.45 50.86-.44.91-.88 1.83-1.34 2.78-5.93 11.68-12.94 20.88-25.66 25.22-10.68 3.19-20.86 3.47-31.89 3.5l-5.59.06c-5.02.04-10.04.07-15.06.1-4.26.02-8.51.05-12.77.09-14.23.11-28.46.19-42.69.25-.99 0-1.97.01-2.99.01-26 .11-52 .14-78.01.15-10.41 0-20.82 0-31.23.01-25.05.02-50.09.02-75.14.03-11.88 0-23.76 0-35.64.01-40.8.01-81.61.02-122.41.02-2.54 0-5.08 0-7.62.01h-26.76c-41.22 0-82.44.02-123.66.04-43.79.02-87.58.04-131.37.04h-17.99c-18.97 0-37.95.01-56.93.03-19.02.01-38.04.02-57.05.01-11.29-.01-22.58 0-33.86.01-7.54.01-15.08.01-22.62 0-4.29 0-8.58-.01-12.87.01-3.91.01-7.82.01-11.73-.01-1.4 0-2.8 0-4.2.01-20.43.11-36.82-5.3-51.85-19.21-14.96-15.71-16.19-42.01-16.27-62.43-.01-1.14-.02-2.28-.02-3.45-.01-2.4-.02-4.8-.02-7.21-.01-3.61-.04-7.23-.07-10.84-.11-22.57 1.75-44.73 14.31-64.24.35-.54.69-1.08 1.05-1.64 7.48-11.35 15.86-16.34 29.09-19.82 7.23-1.37 14.41-1.69 21.76-1.67zm123.74 20.08c-1.2.02-1.2.02-2.42.03-17.88.25-35.75.51-53.63.79-9.12.15-18.24.28-27.37.39-5.45.07-10.89.15-16.34.23l-7.58.09c-25.39-.06-25.39-.06-49.3 7.52l-3.44 1.56c-12.78 12.16-13.12 39.01-13.56 55.44-.03 9.68.41 19.33 1 29 .06.98.11 1.96.17 2.97.9 14.38 2.48 30.11 12.83 41.03l1.47 1.59c4.96 4.84 9.26 5.46 16.03 5.77 1.08.06 2.16.13 3.27.2 15.78.84 31.61.72 47.4.7 4.87 0 9.74 0 14.61.01 8.52.01 17.03.01 25.54.01 12.66-.01 25.32 0 37.98 0 23.92.02 47.85.02 71.77.02h55.41c2.65 0 5.31 0 7.97.01h10c37.86.01 75.72.01 113.57.01h2.13c7.8 0 15.61-.01 23.41-.01h10.69c45.11 0 90.22 0 135.33.02 11.38.01 22.76.01 34.13.02h2.13c21.59.01 43.18.01 64.77.01h68.62c19.78 0 39.55 0 59.33.02 22.47.01 44.95.01 67.43 0 12.58-.01 25.16-.01 37.73.01 8.4 0 16.8 0 25.2-.01 4.79-.01 9.58-.01 14.37 0 4.35.01 8.71.01 13.07 0 1.56-.01 3.13 0 4.69 0 14.03.07 27.47-1.66 38.95-10.38 8.94-11.42 7.32-30.48 7.33-44.29l.03-5.16c.01-3.57.01-7.15.01-10.72 0-4.55.03-9.1.06-13.64.02-3.54.03-7.08.03-10.62 0-1.68.01-3.35.02-5.03.11-12.97-.66-25.32-9.57-35.61-9.6-9.73-19.42-10.18-32.65-10.53l-3.74-.12c-3.94-.12-7.89-.23-11.83-.35-2.52-.07-5.03-.15-7.54-.23-5.99-.19-11.98-.35-17.98-.51-1.17-.03-1.17-.03-2.36-.07l-2.4-.06c-2.35-.06-4.7-.13-7.05-.19-31.69-.88-63.37-1.02-95.07-1.02-7.41 0-14.82 0-22.23-.01-15.38-.01-30.76-.01-46.15-.01-11.95 0-23.91 0-35.86-.01h-13.06c-24.31-.01-48.62-.01-72.92-.01h-25c-28.62 0-57.23-.01-85.85-.02-32.42-.01-64.85-.02-97.28-.02h-13.16c-11.85 0-23.7-.01-35.55-.01-72.54-.05-145.06.2-217.59 1.19zm664.186-810c16.96-.03 33.92-.05 50.87-.06 11.07-.01 22.13-.03 33.19-.06l22.45-.03c4.3 0 8.6 0 12.91-.02 52.59-.17 52.59-.17 72.75 13.22.71.44 1.41.87 2.13 1.33 8.67 6.21 10.26 18.65 12.56 28.42.2.85.41 1.71.61 2.59 3.17 14.3 4.08 28.62 4.02 43.22-.01.78-.01 1.55-.01 2.35-.03 12.7-.81 25.13-2.91 37.67-.36 2.21-.68 4.43-.98 6.65-2.74 17.13-12.57 33.77-25.73 45.02-4.7 3.05-9.21 3.34-14.69 3.75-1.51.13-1.51.13-3.05.26-9.54.76-19.01.89-28.57.9-1.75 0-3.5 0-5.25.01l-14.39.03-15.66.03c-10.33.03-20.66.05-30.99.06-8.58.02-17.15.04-25.72.05-1.86.01-1.86.01-3.75.01-2.52.01-5.05.01-7.57.02-29.01.06-58.01.11-87.02.16l-31.57.06h-2.1c-2.8.01-5.6.01-8.4.02-71.94.13-143.88.24-237.84.37-9.42.01-18.85.02-28.27.04-66.25.09-132.5.17-198.74.2-3.84 0-7.68 0-11.51.01h-7.63c-18.96.01-37.92.03-56.88.05-21.49.03-42.98.04-64.47.04-11.98 0-23.96.01-35.94.03-7.98.01-15.96.01-23.93.01-4.54-.01-9.08-.01-13.62.01-4.13.01-8.26.01-12.4 0-1.48 0-2.96 0-4.44.01-14.04.08-26.62-1.61-37.4-11.28-25.68-26.88-24.79-66.53-24.02-101.2.62-17.94 4.69-34.16 11.7-50.59l.85-2c3.03-6.8 6.18-10.55 12.83-13.94 1.08-.57 2.16-1.14 3.27-1.72 15.26-6.22 32.19-5.09 48.33-5.05 3.81 0 7.62-.01 11.43-.02 6.67-.02 13.34-.02 20.01-.02 9.92.01 19.85-.01 29.78-.02 16.75-.03 33.5-.04 50.25-.05 16.7 0 33.39-.01 50.09-.03h3.16c5.31-.01 10.62-.02 15.93-.02 37.68-.05 75.35-.07 113.03-.1 36.14-.02 72.29-.04 108.44-.08h3.33l29.94-.03c57.27-.06 114.54-.12 171.81-.16h2.96c22.14-.02 44.27-.03 66.41-.04h14.11c4.7-.01 9.4-.01 14.1-.01 24.06-.01 48.13-.03 72.2-.07zm-801.83 18.05v1l865-1v-1c-81.81-.02-163.62-.04-245.43-.05h-82.55c-12.9-.01-25.8-.01-38.69-.01h-3.89c-41.62 0-83.24-.01-124.86-.02-42.76-.01-85.52-.01-128.28-.02h-21.7c-19.15 0-38.29 0-57.44-.01-19.23-.01-38.46-.01-57.7-.01h-34.3c-7.64-.01-15.27-.01-22.9 0-4.35 0-8.7 0-13.06-.01h-25.19c-3.07.13-5.98.56-9.01 1.13zm883-1v1h20v-1h-20zm-887 2v3a84.679 84.679 0 01-6.12 4.18c-5.47 3.63-9.66 6.97-12.88 12.82-.44.81-.89 1.62-1.35 2.46-7.48 15.64-7.12 34.16-6.98 51.11.02 3.22.02 6.43.01 9.64.01 2.07.01 4.14.02 6.21v2.87c.15 14.41 5.75 34.09 16.12 44.54 12.95 10.12 34.34 7.71 49.73 7.85 2 .02 4 .05 6 .07 33.12.42 66.25.39 99.38.38h28.63c18.69.01 37.38.01 56.07 0h65.73c41.51.01 83.02 0 124.53 0 36.71-.01 73.41-.01 110.12 0h189.91c18.61.01 37.22.01 55.83 0h28.38c34.44.01 68.88-.03 103.31-.55l6.2-.09c38.09 2.41 38.09 2.41 71.14-11.31 6.19-7.49 7.6-16.63 8.35-26.06.07-.79.15-1.58.22-2.39 1.46-16.6 1.84-33.23 1.84-49.88 0-3.14.02-6.28.04-9.42v-6.07l.03-2.8c-.03-6.89-.47-12.92-4.43-18.78-3.13-3.08-6.22-5.19-10.01-7.35-.61-.36-1.22-.72-1.85-1.09-1.25-.73-2.51-1.44-3.78-2.13a77.4 77.4 0 01-4.2-2.5c-7.79-4.59-15.48-4.41-24.24-4.34l-4.96-.03c-4.54-.02-9.08-.01-13.62.01-4.94.01-9.88 0-14.82-.02-8.66-.02-17.32-.02-25.97-.01-12.88.02-25.75.01-38.63-.01-21.65-.03-43.31-.03-64.96-.03-21.45.01-42.89.01-64.33-.01h-2.02c-6.09-.01-12.17-.01-18.26-.02l-45.37-.03h-2.09c-33.49-.02-66.99-.03-100.48-.03h-37.05c-33.52 0-67.03-.02-100.55-.04h-6.53l-43.26-.03c-28.69-.02-57.38-.03-86.08-.05h-4.1c-88.83-.05-177.67-.06-272.67-.07zm975 5c3.13 2.64 6.09 3.84 10 5-2.12-2.34-4.06-3.81-7-5h-3zm-991 4l-3 3 1 2 3-3-1-2zm1001 1c.99 1.48.99 1.48 2 3l2-1-4-2zm4 3c.34.67.68 1.35 1.03 2.04 1.99 3.99 3.98 7.97 5.97 11.96-.41-5.94-1.19-9.38-5-14h-2zm-1009 1l1 2zm-4 8l1 2zm-1 2l1 2zm-1 3l1 3zm1022 0v8h1v-8h-1zm-1023 3c-4.46 14.36-5.55 30.02-5 45h1c.78-3.54 1.22-6.97 1.47-10.57.12-1.6.12-1.6.23-3.22.16-2.2.31-4.4.47-6.6.46-6.21 1.2-12.18 2.53-18.27.32-2.44.06-4.03-.7-6.34zm1023 49c-.02.58-.05 1.17-.07 1.78-.51 11.75-1.07 23.49-1.93 35.22h1c2.68-12.24 2.2-24.55 2-37h-1zm-1027 3v12h1v-12h-1zm1 12v7h1v-7h-1zm1 7l1 4zm1 5l1 3zm1 4l1 2zm1 4l1 2zm1019 2l1 4zm-1018 1l1 2zm1 2l1 2zm1016 1l1 3zm-1015 2l1 2zm1 2l1 2zm1 2l1 2zm1011 0l1 2zm-1010 2l1 2zm1006 5v3zm-995 9c.99 2.08.99 2.08 3 4 2.7.67 5 1.02 7.74 1.23.86.08 1.72.16 2.61.23 15.29 1.14 30.69.79 46.01.74 4.71-.01 9.42-.01 14.13-.02 8.89 0 17.78-.02 26.67-.04 10.13-.02 20.27-.03 30.4-.04 20.81-.02 41.63-.06 62.44-.1v-1c-.74-.01-1.49-.01-2.26-.02-18.26-.1-36.52-.21-54.77-.32-8.84-.06-17.67-.11-26.5-.16-7.71-.04-15.41-.09-23.12-.14-4.07-.03-8.14-.05-12.21-.07-14.6-.08-29.19-.16-43.78-.75l-2.84-.12c-9.28-.42-18.42-1.53-27.52-3.42zm966.71 3.46c-11 .79-22.01.89-33.03 1.06-1.26.02-2.52.05-3.82.07-45.07.72-90.16.75-135.23.92-12.86.05-25.72.11-38.58.16-26.35.12-52.7.22-79.05.33v1c35.95.04 71.89.08 107.83.1 4.25 0 8.49 0 12.74.01h2.56c13.68.01 27.35.02 41.03.04 14.04.02 28.08.03 42.12.04 8.66 0 17.31.01 25.97.02 5.95.01 11.89.02 17.84.01 3.42 0 6.85 0 10.27.02 21.1 1.37 21.1 1.37 40.64-4.24-3.79-.06-7.51.17-11.29.46zM145.949 509.874h2.02c2.23-.01 4.47-.01 6.7 0 1.63 0 3.25-.01 4.88-.01h28.04c8.54-.01 17.08-.01 25.61-.01 12.7 0 25.4 0 38.09-.01 24-.01 47.99-.01 71.99-.01 18.53 0 37.06 0 55.59-.01h18c37.95-.01 75.91-.01 113.86-.01h36.38c45.25 0 90.5-.01 135.76-.02 11.4 0 22.8-.01 34.19-.01h2.13c21.64-.01 43.28-.01 64.92-.01h68.8c21.14 0 42.28-.01 63.42-.02 21.25-.01 42.49-.01 63.74 0 12.62 0 25.25 0 37.87-.01h25.3c4.81.01 9.61.01 14.41 0 4.38-.01 8.76 0 13.14 0 1.56.01 3.13.01 4.7 0 19.92-.06 38.53 1.88 55.51 13.26 1.15.73 1.15.73 2.32 1.48 9.76 7.2 12.75 22.18 14.68 33.52.88 6.47 1.21 12.89 1.35 19.42.03.98.05 1.96.07 2.97.05 2.07.1 4.14.14 6.21.07 3.1.14 6.19.22 9.28.23 9.84.29 19.65-.15 29.48-.03.82-.07 1.65-.11 2.49-.78 14.8-4.28 28.73-10.52 42.15-.68 1.54-.68 1.54-1.37 3.12-4.43 9.23-11.79 14.27-21.17 18.03-8.08 2.77-16.61 3.19-25.08 3.44l-3.29.12c-3.51.13-7.02.24-10.53.35-2.46.08-4.92.17-7.38.25-6.01.2-12.02.4-18.03.59-3.41.1-6.81.22-10.22.33-49.73 1.62-99.48 1.92-149.22 1.9-7.97-.01-15.93 0-23.89 0-15.6.01-31.2.01-46.8 0h-159.21c-30.64-.01-61.29-.01-91.93 0h-156.1c-149.31.03-149.31.03-218.79-1.07-4.01-.06-8.02-.13-12.03-.19-63.1-.97-63.1-.97-81.1-17.89-10.03-10.77-14.88-23.54-16-38.01-.07-.95-.15-1.89-.23-2.86-.82-10.44-1.16-20.89-1.37-31.35-.07-3.26-.17-6.52-.26-9.78-.57-23.2.99-45.14 14-64.98.84-1.34.84-1.34 1.7-2.7 7.08-10.06 19.39-15.9 31.3-18.3 4.7-.77 9.19-1.13 13.95-1.13zm866.9 17.03c-4.62 0-9.24 0-13.86.01-8.05 0-16.1.01-24.15.02l-35.91.03-67.87.06-52.39.06c-5.04 0-10.08.01-15.13.01h-3.8c-35.19.04-70.39.07-105.59.11-1.34 0-2.68 0-4.01.01-6.71 0-13.42.01-20.13.02-2.02 0-4.04 0-6.06.01h-4.04c-42.65.05-85.31.09-127.97.12l-32.3.03h-2.01c-35.8.03-71.6.07-107.4.11-5.04 0-10.07.01-15.11.02h-3.75c-19.94.02-39.88.04-59.82.05-20.01.02-40.03.04-60.05.07l-35.66.03c-7.94 0-15.88.01-23.83.03-4.52.01-9.04.01-13.57.01-4.12 0-8.24 0-12.36.02h-4.42c-16.21-.04-34.94.5-48.08 11.36-9.32 11.22-7.93 31.24-8.17 45.15l-.09 4.88c-.07 3.38-.12 6.77-.17 10.15-.07 4.3-.17 8.59-.27 12.88-.08 3.35-.13 6.7-.18 10.05-.02 1.59-.06 3.17-.1 4.75-.4 14.66 1.78 27.37 12.03 38.67 1.17 1.18 1.17 1.18 2.37 2.38.69.71 1.38 1.42 2.09 2.16 9.26 8.39 23.54 7.17 35.36 7.46 1.36.03 2.71.07 4.07.11 13.72.37 27.45.4 41.18.37 3.65 0 7.29 0 10.94-.01 6.33 0 12.66 0 18.99-.01l28.15-.03c15.58 0 31.16-.02 46.75-.03 20.1-.02 40.21-.03 60.32-.04 9.09-.01 18.18-.01 27.26-.02h2.76c79.5-.04 159-.11 238.5-.2l29.66-.03h3.3c35.76-.04 71.51-.06 107.27-.08 37.12-.02 74.24-.05 111.36-.1 5.23 0 10.46-.01 15.69-.02h3.11c16.48-.02 32.96-.03 49.43-.03 16.47-.01 32.94-.02 49.41-.05 9.76-.01 19.52-.02 29.28-.02 6.52.01 13.05 0 19.57-.02 3.7-.01 7.41-.02 11.12-.01 29.09.57 29.09.57 55.43-10.4 2.74-3.09 4.4-6.22 6-10 .39-.83.77-1.66 1.17-2.52 11.57-26.51 6.55-63.26 3.09-91.18-.25-2.26-.4-4.52-.53-6.8-.48-5.79-1.28-10.6-5.84-14.53-3.73-2.77-7.72-4.93-11.89-6.97-1.07-.55-2.13-1.09-3.23-1.65-12.27-5.63-25.35-5.73-38.59-5.97l-5.19-.12c-17.38-.36-34.76-.39-52.14-.36z" fill="#2B0000"/>
  <path d="M112 154c1.35 3.68.6 5.67-.81 9.25-5.52 15.79-4.44 32.76-4.31 49.25.01 2.38.01 4.77.02 7.15.02 5.78.06 11.57.1 17.35h-2c-5.96-23.82-6.28-59.95 6-82l1-1z" fill="#3C1414"/>
  <path d="M106 174h2l-1 12c-3-3-3-3-3.11-5.01 1-5.88 1-5.88 2.11-6.99z" fill="#421B1B"/>
  <path d="M110 249c2.23 2.23 2.69 3.66 3.62 6.62.27.82.53 1.64.79 2.48.2.63.39 1.25.59 1.9h-3c-3.08-6.4-3.08-6.4-2.69-9.44.23-.51.46-1.03.69-1.56z" fill="#3A1212"/>
  <path d="M132 275l9 1-3 1v2c-2.97-.5-2.97-.5-6-1v-3z" fill="#472222"/>
  <path d="M106 240h2c1.26 2.91 2 4.8 2 8l-3-1-1-7z" fill="#411A1A"/>
</svg>
