<svg version="1.1" xmlns="http://www.w3.org/2000/svg" viewBox="0 0 1252 1199">
  <path d="M636.59 159.262c5.08 5.61 4.56 12.38 4.62 19.5l.03 2.6c.03 2.83.05 5.65.08 8.47l.06 5.9.15 15.47c.05 5.27.11 10.54.16 15.81.11 10.33.21 20.66.31 30.99 4.45 1.9 8.59 2.52 13.38 2.94 1.69.16 3.38.33 5.08.5 1.34.13 1.34.13 2.71.27 4.97.51 9.93 1.11 14.89 1.73 1.41.16 1.41.16 2.85.33 5.47.7 10.53 1.85 15.79 3.53 3.19.97 6.39 1.53 9.68 2.07 15.63 2.78 30.49 6.77 45.06 13.13 7.28 3.06 14.74 5.78 22.37 7.81 5.7 1.62 10.92 4.29 16.21 6.91 5.26 2.62 5.26 2.62 10.98 3.78 4.23-2.58 6.39-5.86 9-10 1-1.38 2-2.75 3-4.13 4.21-5.97 7.86-12.26 11.58-18.54 3.11-5.21 6.34-10.25 9.9-15.17 3.43-4.87 6.46-10 9.08-15.35 2.78-5.43 6.11-10.66 11.44-13.81 4.56-1.25 8.12-1.24 12.69 0 5.01 3.02 8.4 6.43 10.37 12-.15 7.52-5.58 14.54-9.31 20.81-.82 1.4-.82 1.4-1.66 2.83-3.29 5.56-6.8 10.88-10.55 16.14-1.88 2.71-3.51 5.51-5.1 8.41-1.9 3.32-3.71 6.32-6.31 9.12-3.15 3.43-5.44 7.27-7.82 11.25-.57.96-.57.96-1.15 1.93-2.21 3.77-4.25 7.58-6.16 11.51 3.39 5.19 6.53 8.5 11.69 11.87 5.38 3.67 10.23 7.58 15 12.03 2.93 2.66 6.03 5.04 9.2 7.4 2.56 2.06 4.81 4.35 7.11 6.7.87.86 1.75 1.72 2.65 2.61 7.6 7.52 14.54 15 20.57 23.85 2.36 3.36 4.91 6.54 7.49 9.73 1.29 1.81 1.29 1.81 1.29 3.81l3 1c1.9 2.55 1.9 2.55 3.94 5.75 2.51 3.94 5.14 7.6 8.06 11.25.91 1.44 1.78 2.9 2.63 4.37 3.14 5.37 6.6 10.5 10.12 15.63 3.25 4.78 3.25 4.78 3.25 7 4.78-.46 7.25-1.14 11-4 1.9-.94 3.82-1.83 5.75-2.69 5.1-2.31 10.13-4.72 15.13-7.25 5.1-2.58 10.23-5.06 15.43-7.44 7.58-3.47 14.93-7.37 22.28-11.29.74-.39 1.47-.78 2.23-1.18 1.45-.76 2.89-1.54 4.33-2.32 5.76-3.06 10.33-3.78 16.85-2.83 4 1.29 6.45 3.24 8.94 6.69 1.78 5.56 2.16 10.77-.5 16.12-2.44 3.58-5.69 5.19-9.44 7.19-.64.35-1.27.7-1.93 1.06-11.01 6.04-22.28 11.4-33.71 16.61-7.15 3.26-14.11 6.72-21 10.5-5.71 3.11-11.54 5.96-17.36 8.83-.22 8.65 2.03 15.38 6 23 4.34 10.35 6.89 21.32 9.56 32.19 2.15 8.92 2.15 8.92 4.6 17.77.88 3.18 1.37 6.26 1.78 9.54.6 4.66 1.44 9.13 2.55 13.69 2.64 12.18 2.35 24.84 2.7 37.25.08 2.58.16 5.16.25 7.74.2 6.27.38 12.55.56 18.82 11.44 6.03 28.13 4.83 40.85 5.68 17.45 1.17 17.45 1.17 25.71 2.86 5.3.99 10.71 1.26 16.07 1.67 4.46.38 8.3.75 12.37 2.79v2c.93.34.93.34 1.88.69 2.88 1.78 3.27 3.04 4.12 6.31.45 4.64.47 8.92-2 13-3.27 3.7-6.28 6.32-11.33 6.72-1.64.01-3.28-.03-4.92-.1-.91-.02-1.82-.03-2.76-.05-8.44-.3-16.7-1.58-25.03-2.93-9.63-1.53-19.25-2.55-28.96-3.39-.72-.07-1.44-.13-2.18-.2-4.61-.41-9.21-.75-13.82-1.05-1.63-.13-1.63-.13-3.3-.25-5.56-.34-5.56-.34-10.29 2.23-1.74 3.72-2.41 7.3-2.91 11.33-1.16 7.95-2.82 15.6-4.89 23.36-.71 2.69-1.38 5.39-2.06 8.09-.52 2.04-1.03 4.08-1.55 6.11-.24.95-.47 1.91-.72 2.88-1.62 6.32-3.75 12.24-6.28 18.25-.5 1.25-1 2.51-1.49 3.76-1.49 3.75-2.99 7.5-4.51 11.24-.47 1.17-.95 2.34-1.44 3.55-3.13 7.52-6.7 14.68-10.61 21.82-2.32 4.28-4.44 8.65-6.53 13.04-1.54 2.81-3.39 5.12-5.42 7.59-.45.91-.91 1.81-1.37 2.75-1.81 3.6-3.98 6.74-6.33 10-1.43 2.48-2 4.41-2.3 7.25 1.59 3.84 3.66 5.64 7.16 7.79 2.25 1.48 4.31 3.14 6.4 4.83.86.7 1.72 1.39 2.61 2.1l5.91 4.77c6.31 5.05 12.56 9.04 19.79 12.73 4.26 2.42 7.83 5.44 11.54 8.63 3.16 2.63 6.51 4.81 10.01 6.96.52.39 1.04.78 1.58 1.19v2c.56.2 1.11.41 1.69.62 4.53 2.7 6.87 5.86 8.31 10.82 0 5.21-1.63 8.74-4.75 12.87-4.11 3.09-8.44 3.93-13.5 3.75-9.78-1.46-17.66-9.47-24.9-15.64-6.39-5.43-13.13-10.41-19.85-15.42l-6-4.5c-1.03-.77-2.05-1.54-3.11-2.33-1.72-1.29-3.43-2.59-5.12-3.91-8.32-6.47-8.32-6.47-18.12-9.82-5.25.81-7.13 3.5-10.46 7.43-1.31 1.47-2.63 2.94-3.94 4.41-.69.77-1.38 1.54-2.09 2.33-9.59 10.58-19.78 20.74-31.16 29.39-1.07.83-2.14 1.67-3.2 2.51-9.06 7.07-18.36 13.64-28.1 19.74-2.54 1.64-4.96 3.39-7.39 5.19-4.97 3.54-10.28 6.18-15.78 8.81-3.47 1.66-6.48 3.42-9.53 5.75-1.77.88-3.56 1.71-5.37 2.5-.97.43-1.93.87-2.93 1.31-2.09.92-4.2 1.78-6.32 2.63-2.65 1.36-2.65 1.36-3.14 4.28-.27 3.64.29 5.91 1.51 9.34.35 1 .69 2 1.05 3.04 1.1 2.88 1.1 2.88 2.65 5.24 1.56 2.67 2.53 5.15 3.49 8.08.34 1.03.67 2.05 1.02 3.11.34 1.06.69 2.12 1.04 3.22.34 1.04.69 2.09 1.04 3.17.67 2.06 1.35 4.12 2.02 6.18.86 2.65 1.73 5.31 2.61 7.96.23.69.45 1.37.69 2.08 1.39 4.02 3.12 7.84 5.06 11.62 3.8 7.63 9.41 19.4 7.06 28.17-1.89 4.7-4.25 7.3-8.48 10.07-5.22 1.42-9 1.03-14-1-3.86-3.16-6.19-6.35-8-11l.06-2.88c-.1-5.25-2.94-9.29-5.62-13.68-4.48-7.59-7.08-16.34-9.94-24.65-2.89-8.4-5.98-16.63-9.5-24.79-.78-1.87-1.55-3.75-2.31-5.63-.33-.79-.65-1.59-.99-2.41-.7-1.96-.7-1.96-.7-3.96-5.24-.32-9.13-.22-13.94 2.14-3.63 1.51-7.46 2.19-11.29 3.01-3.18.72-6.33 1.5-9.49 2.31-34.1 8.56-70.9 9.14-105.87 6.9-7.8-.5-15.59-.45-23.41-.36-.27 1.22-.53 2.43-.8 3.69-.36 1.62-.72 3.25-1.07 4.87-.18.8-.35 1.6-.53 2.42-.79 3.56-1.61 7.05-2.64 10.55-1.14 4.11-1.78 8.19-2.4 12.41-1.14 7.53-2.44 15.02-3.88 22.5a558.1 558.1 0 00-1.62 8.93c-.35 1.88-.7 3.75-1.06 5.63-.12.69-.25 1.39-.38 2.1-.43 2.39-.9 4.77-1.37 7.15-.13.76-.27 1.51-.4 2.29-1.17 5.66-3.45 9.65-7.85 13.46-5.41 1.8-11.63 1.96-16.94-.19-3.85-3.38-6.6-6.27-7.1-11.59.11-5.79.74-12.17 3.02-17.53 1.49-3.93 1.9-7.92 2.46-12.07 1.04-7.36 2.29-14.61 3.81-21.89.99-4.9 1.84-9.82 2.66-14.75.58-3.4 1.27-6.71 2.17-10.05.95-3.69 1.12-7.11 1.05-10.93l-.06-3.44c-.03-1.27-.03-1.27-.07-2.56-.72-.13-1.44-.25-2.18-.38-8.41-1.61-16.48-3.96-24.63-6.56-1.06-.34-2.12-.67-3.22-1.02-6.18-2-12.08-4.31-17.97-7.04-2-.84-4-1.68-6-2.5-12.39-5.15-24.27-10.98-36-17.5-1.13-.62-2.26-1.24-3.42-1.88-6.63-3.68-12.87-7.63-18.94-12.19-2.64-1.93-5.35-3.66-8.14-5.37-6.89-4.3-12.95-9.55-19.13-14.8-2.29-1.98-2.29-1.98-5.37-2.32-3.23.6-4.4 1.45-6.53 3.89-1.81 2.06-3.8 3.9-5.78 5.79-4.08 4.07-7.35 8.41-10.65 13.11-2.67 3.62-5.62 6.89-8.67 10.19-1.92 2.08-3.79 4.2-5.64 6.34-3.84 4.39-7.8 8.67-11.79 12.93l-2.07 2.22c-11.04 11.77-11.04 11.77-18.43 13.05-4.71.07-8.55-1.36-12.44-3.96-3.11-3.55-4.34-7.3-4.06-12 1.42-7.19 6.08-12.31 11.24-17.22 1.89-1.85 3.6-3.78 5.32-5.78 4.05-4.69 8.44-8.99 12.88-13.31 4.01-4.11 7.8-8.41 11.62-12.69 1.5-1.67 3-3.34 4.5-5 .73-.82 1.47-1.64 2.23-2.48 1.57-1.74 3.15-3.47 4.73-5.2.8-.87 1.59-1.74 2.42-2.63l2.17-2.37c3.65-4.14 3.65-4.14 4.89-9.26-3.38-7.43-8.96-12.09-15.4-16.9-2.88-2.45-4.93-5.06-7.16-8.1-.76-1.02-1.52-2.04-2.29-3.09-2.09-2.97-2.09-2.97-3.61-5.6-1.57-2.52-3.38-4.28-5.48-6.37-1.15-1.7-2.25-3.43-3.31-5.19-2.2-3.55-4.44-6.81-7.13-10-4.19-5.22-6.89-11.13-9.76-17.14-1.44-3-3.07-5.82-4.8-8.67-1.36-2.54-2.65-5.11-3.94-7.69-.35-.71-.71-1.42-1.07-2.15-2.23-4.51-4.28-9.03-6.01-13.76-.85-2.09-1.81-4.03-2.85-6.03-2.42-4.77-4.15-9.7-5.88-14.75-.32-.9-.63-1.8-.96-2.73-2.29-6.62-2.29-6.62-2.29-8.89-7.61-.6-13.83 1.6-21 4-12.85 4.12-25.83 7.4-39.03 10.19-3.49.95-6.65 2.37-9.97 3.81-8.58 2.83-17.93 5.81-27 4a22.1 22.1 0 01-10-11c-.78-4.5-.05-7.61 2.06-11.56 6.99-9.65 23.12-11.81 33.94-14.44 3.27-.81 6.54-1.63 9.81-2.44.84-.21 1.68-.42 2.54-.63 5.88-1.47 11.74-3.01 17.59-4.62.74-.2 1.48-.4 2.24-.61 2.87-.8 5.67-1.64 8.45-2.76 3.72-1.48 7.62-2.2 11.53-3.06 3.01-.94 4.74-1.51 6.84-3.88.38-3.22.38-3.22-.06-6.94-.06-.69-.12-1.39-.18-2.11-.6-6.56-1.58-13.09-2.65-19.6-1.8-10.98-2.26-21.89-2.24-33.01 0-1.26 0-2.53-.01-3.83 0-2.65.01-5.31.01-7.97.01-3.36 0-6.73 0-10.1-.01-3.26-.01-6.52 0-9.79 0-1.19-.01-2.38-.01-3.6.03-10.27.63-20.34 2.58-30.43 1.22-6.57 2.24-13.14 3.13-19.77.43-2.85.43-2.85.98-5 .71-2.94.51-5.85.45-8.85-6.38-3.13-12.58-5.64-19.49-7.33-2.51-.67-2.51-.67-4.79-1.61-2.88-1.13-5.73-1.9-8.73-2.65-1.73-.43-1.73-.43-3.49-.88-2.39-.6-4.79-1.2-7.18-1.79-6.39-1.62-12.55-3.47-18.72-5.8-3.38-1.22-6.81-2.14-10.27-3.07-16.63-4.53-16.63-4.53-20.33-10.87-1.59-4.94-1.31-8.84 0-13.81 2.5-3.99 4.7-6.27 9-8.19 7.33-1.01 14.14.76 21.13 2.81.93.26 1.87.52 2.84.79 4.8 1.36 9.48 2.89 14.14 4.69 3.21 1.2 6.48 2.14 9.77 3.08l2.19.64c6.2 1.8 12.43 3.52 18.65 5.24 15.95 4.42 15.95 4.42 17.28 5.75 1.52.07 3.04.08 4.56.06l2.51-.03 1.93-.03c.75-1.63 1.5-3.25 2.25-4.88.42-.9.84-1.81 1.27-2.74 1.55-3.54 2.98-7.11 4.4-10.7 1.81-4.5 3.69-8.97 5.58-13.43.38-.91.76-1.81 1.14-2.75 2.07-4.87 4.29-9.16 7.36-13.5.98-1.74 1.94-3.49 2.88-5.25 2.88-5.35 5.93-10.58 9.12-15.75l1.58-2.58c9.65-15.46 20.56-30.36 32.96-43.71 4.01-4.42 7.76-9.04 11.46-13.71.84-1.05.84-1.05 1.7-2.12 2.06-2.98 2.24-5.28 2.3-8.88-2.37-6.99-7.19-11.71-12.18-16.97-3.27-3.46-6.18-7.17-9.11-10.91-2.07-2.56-4.35-4.83-6.71-7.12-1.33-1.67-2.67-3.34-4-5-1.66-1.67-3.33-3.34-5-5a953.27 953.27 0 01-6.94-7.31c-.59-.63-1.19-1.26-1.8-1.9-11.55-12.31-11.55-12.31-11.76-18.48.38-4.95 1.19-8.07 4.88-11.56 4.49-3 8.23-3.12 13.62-2.75 6.04 2.42 10.18 5.8 14 11 3.6 4.82 7.83 8.68 12.38 12.57 3.93 3.46 6.18 6.8 8.62 11.43 1.29 1.38 2.63 2.7 4 4 1.09 1.22 2.18 2.45 3.25 3.69 3.23 3.71 6.49 7.4 9.77 11.06 1.31 1.49 2.59 2.99 3.83 4.53.59.71 1.17 1.42 1.78 2.16.5.63 1.01 1.27 1.53 1.93 2.52 2.23 4.54 3 7.84 3.63 2.74-.98 2.74-.98 5.25-2.88.96-.66 1.93-1.32 2.92-2 2.53-1.9 4.97-3.85 7.39-5.87 5.34-4.41 11.17-7.88 17.11-11.4 3.11-1.85 6.04-3.61 8.84-5.93 3.4-2.63 7.08-4.23 10.99-5.98 5.67-2.54 5.67-2.54 11.11-5.54 2.95-1.73 5.88-2.68 9.14-3.71 1.33-.44 2.66-.87 3.99-1.3.7-.23 1.39-.45 2.1-.68 8.77-2.89 17.55-5.82 25.93-9.72 8.49-3.78 17.23-6.11 26.29-8.12 1.66-.37 1.66-.37 3.36-.76 5.68-1.28 11.37-2.47 17.08-3.58 2.69-.57 5.32-1.3 7.97-2.03 8.2-2.09 16.57-2.74 24.97-3.56 2.43-.24 4.87-.49 7.31-.74 1.5-.15 3-.3 4.5-.44 3.88-.4 7.26-.96 10.75-2.76 1.63-3.25 1.15-6.84 1.16-10.41 0-.87.01-1.74.01-2.64l.03-5.68c.01-2.99.03-5.99.05-8.99.06-8.52.12-17.04.15-25.56.02-5.21.06-10.42.1-15.63.02-1.98.03-3.97.03-5.96 0-2.78.03-5.55.05-8.33 0-.82 0-1.65-.01-2.49.07-4.61.51-7.54 3.43-11.31 5.69-5.39 13.07-6.91 19.59-1.74zM578 292.002c-.99.13-1.98.26-2.99.4-2.37.31-4.72.66-7.07 1.04-.75.1-1.5.21-2.27.33-4.73.73-9.06 1.95-13.57 3.53-2.85.95-5.72 1.52-8.66 2.07-11.85 2.47-22.91 6.19-33.92 11.18-3.39 1.53-6.72 2.93-10.27 4.01-5.73 1.82-10.95 4.62-16.25 7.44l-2.54 1.35c-2.89 1.54-5.77 3.09-8.65 4.65-.92.5-1.85.99-2.8 1.51-5.2 2.83-10.17 5.83-15.06 9.16-2.37 1.62-4.81 3.13-7.26 4.64-5.16 3.27-10.03 6.84-14.87 10.54-3.12 2.38-6.3 4.68-9.49 6.96-.44.39-.88.78-1.33 1.19v2c-.72.23-1.44.45-2.19.69-3.44 1.6-5.21 3.53-7.81 6.31-3.75 3.85-7.5 7.62-11.62 11.06-9.29 8.01-18.14 17.36-24.38 27.94-4.08 6.55-8.29 12.91-12.91 19.1-5.13 7.11-9.7 14.47-14.03 22.09-.52.92-1.05 1.84-1.59 2.79-8.69 15.4-16.39 31.4-22.47 48.02-.35.92-.7 1.85-1.06 2.8-2.84 7.59-4.98 15.26-6.91 23.13-.17.69-.34 1.39-.52 2.1-.48 1.99-.97 3.98-1.45 5.98-.7 2.8-1.58 5.49-2.55 8.21-1.89 5.57-2.75 11.23-3.63 17.03-.17 1.04-.34 2.08-.52 3.16-2.46 15.73-2.6 31.38-2.61 47.28v3.45c0 16.51.53 32.55 3.25 48.86.26 1.73.51 3.45.76 5.18 1.05 6.99 2.28 13.84 4.5 20.57.78 2.38 1.42 4.76 2.05 7.19 4.07 15.06 8.8 30.08 15.4 44.23 1.76 3.86 3.32 7.78 4.88 11.71 1.89 4.19 4.15 8.12 6.41 12.12 1.04 1.87 2.08 3.75 3.12 5.63 1.11 1.98 2.21 3.95 3.32 5.93.54.99 1.09 1.98 1.66 3 3.27 5.83 6.78 11.18 10.9 16.44 1.18 1.66 2.35 3.32 3.5 5 2.15 3.11 4.36 6.14 6.69 9.12 1.89 2.48 3.27 4.77 4.5 7.63 2.73 5.8 7.53 10.18 11.91 14.76 2.07 2.2 4 4.51 5.96 6.8 3.63 4.05 7.45 7 11.97 9.98 3.33 2.3 6.22 4.96 9.2 7.68 3.95 3.53 8.11 6.77 12.27 10.03 1.04.82 2.07 1.64 3.14 2.48 5.96 4.68 11.98 9.02 18.45 13 2.04 1.28 3.94 2.63 5.85 4.08 3.92 2.88 8.28 4.85 12.64 6.97 2.46 1.23 4.74 2.54 7.05 4.03 7.42 4.77 15.38 8.16 23.6 11.3 2.72 1.04 5.25 2.12 7.74 3.64 3.25 1.92 6.66 3.14 10.22 4.37.73.26 1.47.52 2.23.78 6.18 2.13 12.43 3.94 18.75 5.61 3.6.96 7.13 2 10.65 3.22 15.61 5.29 32.32 7.34 48.68 8.52l4.04.33c35.52 2.59 75.02 2.51 108.95-9.31 6.19-2.09 12.53-3.69 18.83-5.38 10.26-2.8 19.76-6.82 29.43-11.2.86-.39 1.72-.78 2.6-1.17 16.41-7.41 33.28-16.05 48.15-26.27v-2c.74-.27 1.47-.55 2.23-.83 10.41-4.41 19.18-13.34 27.78-20.51 2.65-2.22 5.32-4.41 7.99-6.6.84-.69 1.68-1.38 2.55-2.09 3.23-2.6 6.54-5.09 9.87-7.56.52-.47 1.04-.93 1.58-1.41v-2c.6-.26 1.2-.53 1.81-.8 2.32-1.27 3.51-2.43 5.19-4.45 2.22-2.64 4.44-5.26 6.73-7.83 5.5-6.2 10.62-12.55 15.33-19.36.68-.97.68-.97 1.37-1.97 2.74-4.04 4.68-8.07 6.57-12.59 1.25-2.17 2.54-4.32 3.88-6.44.35-.57.7-1.14 1.07-1.72 1.46-2.34 2.93-4.66 4.44-6.97 3.73-5.75 6.69-11.88 9.7-18.03.88-1.78 1.79-3.54 2.7-5.29 3.86-7.47 7.02-14.96 9.85-22.86 1.34-3.63 2.84-7.14 4.36-10.69 7.25-18.91 10.86-38.91 14.41-58.78.36-1.96.74-3.91 1.18-5.85 3.99-18.47 2.68-38.6 2.41-57.37l-.04-2.99c-.18-10.56-1.13-20.19-3.99-30.36-.9-3.37-1.43-6.57-1.84-10.03-2.23-17.05-6.55-33.75-13.13-49.62-.77-2.06-1.55-4.13-2.31-6.19-7.87-20.24-17.13-39.2-28.75-57.55-1.43-2.41-2.73-4.77-3.97-7.27-5.42-10.88-11.95-19.87-19.97-28.99-.85-.97-1.71-1.94-2.59-2.94-1.47-1.65-2.95-3.29-4.44-4.91-1.81-1.98-3.55-3.99-5.28-6.03-6.94-7.93-14.34-15.39-22.81-21.68-2.52-1.93-4.64-4.2-6.88-6.44-9.82-8.39-20.41-16.07-31.6-22.52-2.63-1.63-5.02-3.46-7.46-5.36-5.36-3.99-11.02-6.73-17.1-9.42-5.49-2.44-5.49-2.44-7.87-4.23-2.9-2.17-6.19-3.34-9.53-4.66-1.54-.62-3.08-1.23-4.62-1.85l-2.41-.97c-2.35-.97-4.67-1.98-6.98-3.02-11.12-4.93-22.28-8.43-34.08-11.38-1.95-.49-3.9-1-5.85-1.52-8.08-2.13-16.28-3.61-24.5-5.07-1.09-.2-2.18-.4-3.3-.6-11.39-1.99-22.58-2.56-34.14-2.57-1.38 0-2.75-.01-4.13-.01-2.87-.01-5.74-.01-8.61-.01-2.91 0-5.82 0-8.72-.02-15.47-.07-30.77-.1-46.1 2.21z" fill="#000"/>
  <path d="M584 370c1.5.57 3 1.13 4.5 1.69 14.64 5.76 26.39 14.82 36.06 27.19.47.58.94 1.17 1.42 1.77 4.86 6.18 8.22 11.99 10.14 19.73.25.98.25.98.51 1.99.46 1.87.92 3.75 1.37 5.63.22.86.44 1.73.66 2.62 2.04 8.47 2.44 16.89 2.53 25.57.01.76.02 1.52.04 2.3.01 6.25-.54 11.53-4.73 16.45-3.46 2.53-6.74 2.83-10.96 2.62-4.32-.95-7.64-3.25-10.54-6.56-1.24-3.07-1.14-6.26-1.24-9.53-.53-15.5-3.11-33.24-14.64-44.59-.59-.52-1.19-1.04-1.8-1.58-.44-.43-.87-.86-1.32-1.3v-2c-.56-.25-1.11-.5-1.69-.75-2.31-1.25-2.31-1.25-4.62-3.13-7.13-5.63-16.38-10.52-25.38-12.06-6.09-1.16-10.33-4.77-14.31-9.37-1.83-4.92-1.89-9.7.25-14.5 8.76-10.95 22.34-8.24 33.75-2.19zm228 84c16.1 10.09 25.03 27.37 30.38 45.01.61 1.96 1.28 3.88 1.97 5.81 6.76 19.7 6.5 41.75 4.84 62.3-.07 1.02-.14 2.04-.22 3.09-.44 5.58-1.29 10.5-3.23 15.75-1.11 3.06-1.84 6.2-2.62 9.35-2.65 10.27-6.71 19.58-12.12 28.69h-2c-.31 1.02-.31 1.02-.62 2.06-1.81 3.86-4.28 7.02-7.38 9.94h-2l-1 3c-9.96 7.92-21.6 9.9-34 9-9-1.71-15.4-5.77-22-12-.66-.61-1.33-1.22-2.01-1.85-20.94-21.33-27.22-55.09-27.49-83.9.18-19.31.66-49.47 13.5-65.25.92-1.86 1.82-3.74 2.69-5.62 4.43-9.01 10.36-16.27 18.31-22.38.51-.44 1.01-.88 1.54-1.33 13.41-10.92 29.1-8.92 43.46-1.67zm-31 31c-4.58 6.24-8.16 12.81-11 20-.25.62-.5 1.24-.75 1.87-2.62 7.15-3.48 14.48-4.44 22.01-.17 1.29-.35 2.59-.53 3.93-3.08 23.54-1.44 52.62 12.28 72.88 1.13 1.45 2.27 2.89 3.44 4.31.47.61.93 1.23 1.41 1.86 2.21 2.84 4.06 5.21 7.59 6.14 4.82-.09 7.96-1.04 11.53-4.37 8.14-9.03 11.94-20.27 15.22-31.75.21-.73.42-1.46.64-2.21 5.34-19.52 5.8-47.48-1.62-66.58-.9-2.45-1.47-4.92-2.08-7.47-2.89-10.61-8.38-18.47-16.69-25.62-6.5-3.25-10.75.2-15 5zm-257.703-17.184c7.48 6.86 12.27 13.5 15.7 23.18.41 1.01.82 2.01 1.24 3.04 5.82 15.8 3.57 31.91-3.24 46.96-1.7 3.34-3.6 6.14-6 9-.64.82-1.29 1.64-1.95 2.48-10.82 12.92-22.98 18.22-39.41 19.74-15.26 1.02-32.28-.1-44.41-10.22-.74-.66-1.47-1.32-2.23-2-1.24-.93-1.24-.93-2.5-1.89-7.18-6.05-12.24-14.39-15.5-23.11l-.79-1.96c-2.39-6.35-2.78-12.29-2.77-19.04v-3.31c.25-11.71 2.76-22.64 10.56-31.69.61-.8 1.21-1.6 1.83-2.43 9.68-12.7 24.22-22.02 40.3-24.32 17.93-1.15 35.41 3.54 49.17 15.57zm-67.1 28.52c-4.91 8.06-5.42 15.41-4.2 24.66 1.71 4.94 3.83 8.38 7.38 12.19l2.27 2.48c6.44 6.38 11.43 8.41 20.35 8.58 10.64-.25 16.51-4.16 24.14-11.22 5.8-6.29 7.15-14.71 6.86-23.03-.61-3.53-1.62-6.69-3-10-.26-.64-.53-1.29-.81-1.96-3.66-7.47-10.99-11.61-18.57-14.33-13.11-3.52-26.28 2.09-34.42 12.63zM514 656c3.79 3.69 4.9 6.53 5.25 11.81-.11 4.2-.67 6.73-3.25 10.19-6.63 5.17-14.27 8.75-21.84 12.32-3.08 1.64-5.52 3.41-8.16 5.68-.66.54-1.31 1.08-1.99 1.64-16.67 14.25-27.34 33.43-32.01 54.8-1.3 4.63-3.01 7.33-7.12 9.87-5.32 1.27-10.65 1.61-15.76-.5-3.38-2.89-5.7-5.56-7.12-9.81.05-8.07 1.3-15.43 4-23 .39-1.22.78-2.43 1.19-3.69 2.35-6.13 5.72-11.84 8.88-17.59.77-1.42 1.49-2.86 2.21-4.3 2.9-5.75 6.85-10.13 11.26-14.8 2.02-2.15 3.86-4.33 5.71-6.62 5.1-5.87 11.53-10.39 17.75-15 .81-.6 1.62-1.2 2.45-1.82 11.24-7.92 25.14-15.72 38.55-9.18zm154.742 118.574c10.79 7.03 19.69 17.61 22.63 30.36 2.12 13.65.74 26.63-7.37 38.07-3.1 3.34-6.42 6.19-10 9-.71.57-1.42 1.15-2.15 1.75-9.94 7.4-22.71 9.74-34.85 8.25-13.46-2.86-24.72-11.18-33-22-1.55-2.6-1.55-2.6-2.75-5.07-.41-.81-.82-1.63-1.24-2.47-3.91-9.49-3.24-23.22-.13-32.9 3.06-7.04 7.31-13.5 13.12-18.56 1.42-1.27 1.42-1.27 2.87-2.57 3.24-2.52 6.48-4.59 10.13-6.43.68-.38 1.36-.75 2.07-1.14 13.43-6.49 28.25-3.42 40.67 3.71zm-38.05 31.18c-3.09 5.94-3.28 11.67-1.6 18.06 1.7 4.09 4.15 6.85 7.91 9.19 4.88 1.51 8.84 1.31 13.75 0 4.82-2.97 8.44-6.58 10.25-12 .51-5.33.67-9.66-1.75-14.5-3.83-4.26-7.55-7.04-13.36-7.77-6.95-.33-10.67 1.62-15.2 7.02z" fill="#000"/>
</svg>
