<svg version="1.0" xmlns="http://www.w3.org/2000/svg" preserveAspectRatio="xMidYMid meet" viewBox="0 0 1269 1282">
  <g fill="#333">
    <path d="M122.2 1002.8c.2-1.8 3.7-4.1 15.6-10.6 8.4-4.6 16-8.1 16.8-7.8 3 1.1 1.4 4.1-3.8 7.2-11.8 7-24.6 13.4-26.7 13.4-1.7 0-2.2-.5-1.9-2.2zm57.1-31.4c-.8-2.1.2-2.9 16.6-12.8 12.7-7.6 14.6-8.5 15.9-7.2.8.8 1.2 2.1.9 2.8-.7 1.8-28.7 18.8-31 18.8-1 0-2-.7-2.4-1.6zm56.9-33.6c-.7-.7-1.2-1.7-1.2-2.4 0-1.8 29.8-20.7 31.5-20 3.8 1.4 1.1 4.3-12.6 13.4-16.2 10.7-16.1 10.6-17.7 9zm54.2-37.2c-.3-.8-.4-2-.2-2.5.3-1.1 27.8-21.1 28.9-21.1 1.3 0 2.9 2.8 2.4 4.1-.7 1.7-26.2 20-28.7 20.7-1 .2-2-.2-2.4-1.2zm52.2-39.3c-.8-2-1.2-1.6 14.8-14.3 10.2-8.1 13.3-10.1 14.5-9.3.9.6 1.6 1.6 1.6 2.4 0 1.8-26.3 22.9-28.6 22.9-.9 0-2-.8-2.3-1.7zm51.4-40.8c-.6-.8-1-1.8-.8-2.3.1-.5 6.3-6.2 13.6-12.7 13.1-11.4 16.2-13.1 16.2-8.6 0 1.3-4.7 6.1-13 13.5-7.2 6.4-13.4 11.6-13.9 11.6s-1.4-.7-2.1-1.5zm47.6-45.1c-.9-2.5 24.3-27.8 26.7-26.8.9.3 1.7 1.4 1.7 2.3 0 2.1-24 26.1-26.2 26.1-.9 0-1.9-.7-2.2-1.6zm44.8-47.9c-.8-2 21.5-29.7 23.6-29.3 3.8.8 1.9 4.7-8.5 17.7-10.4 12.8-13.7 15.3-15.1 11.6zm-101.8-2.1c-1.4-3.7 1.8-4.4 20.1-4.4 14.8 0 17.5.2 18 1.6 1.2 3.3-1.4 3.9-19.6 4.2-16.4.3-17.9.2-18.5-1.4zm-39.6-1.5c-18-2.8-24.1-4.3-25-6-2.1-3.8 1-4 19.1-.9 9.6 1.6 17.5 3 17.7 3 .2 0 .2 1 0 2.3-.4 2.6-3.2 3-11.8 1.6zm105.4-2.4c-1.2-3.1.4-4.2 9-5.4 4.7-.7 12.3-2.1 16.8-3.1 9-1.9 10.8-1.8 10.8 1.1 0 2.6-1.8 3.2-18.8 6.3-16.8 3-17.1 3.1-17.8 1.1zm-170.9-14.4c-17.6-6.8-21.5-8.8-21.5-11.1 0-1.1.6-2.3 1.3-2.6.7-.2 6.5 1.8 12.8 4.5 6.3 2.7 13.4 5.5 15.7 6.2 5.2 1.5 6.9 3.3 5.2 5.4-1.7 2-2.1 2-13.5-2.4zm234.2.7c-.6-1.8 1.1-4.8 2.7-4.8.7 0 8-2.2 16.3-4.9 8.4-2.6 15.7-4.5 16.3-4.1.7.4 1 1.6.8 2.6-.2 1.5-3.8 3.1-15.8 7.1-16.2 5.5-19.5 6.1-20.3 4.1zm62.3-21.3c-2-2.4-.5-4.1 5.7-6.5 3.2-1.3 10-4.3 15.2-6.7 9.4-4.3 12.5-5.1 13.5-3.4 1.4 2.3-1.4 4.3-14.2 9.9-18.9 8.4-18.8 8.4-20.2 6.7zm-354-10.6c-10.9-8-18-14.7-18-16.9 0-3.8 3.1-2.8 10.4 3.5 4.2 3.5 10.5 8.5 14.1 11.1 4.3 3 6.5 5.2 6.3 6.3-.7 3.4-4.5 2.2-12.8-4zm304.3-.5c-.3-.9.1-2.8 1.1-4.3.9-1.4 4.9-8.1 8.9-14.8 5.8-9.8 7.6-12.2 9.5-12.3 1.6 0 2.2.6 2.2 2 0 2-13.5 25.6-16.8 29.3-1.9 2.1-4.1 2.2-4.9.1zm109.3-16.7c-1-.7-1.4-1.9-1.1-2.8.8-2 9.6-6.3 10.4-5.1.3.6 1.9 1.2 3.5 1.4 2.6.3 2.2.6-4.1 4-5.9 3.2-7.2 3.6-8.7 2.5zm17.4-11.2c0-1.9.2-3.5.4-3.5s1.1-.3 2-.6c1.2-.5 1.6.1 1.6 2.3 0 2.8-1.5 5.3-3.2 5.3-.4 0-.8-1.6-.8-3.5zm12-6.5c0-2.8 1.3-4 2.4-2.2.7 1.2-.5 5.2-1.5 5.2-.5 0-.9-1.3-.9-3zm-487.4-11.2c-7.1-11-12.7-22.3-12-24.3.3-.8 1.5-1.5 2.5-1.5 1.4 0 3 2.3 6 8.2 2.3 4.6 6.3 11.5 8.9 15.3 3.7 5.5 4.6 7.5 3.8 8.8-1.7 3.2-3.8 1.7-9.2-6.5zM691 624c0-1.7 12.7-11.1 28.6-21.2 1.6-1 4.6 1.5 3.9 3.3-.8 2.2-27.9 19.9-30.4 19.9-1.4 0-2.1-.6-2.1-2zm-133.3-5.4c-.4-.9.1-3.2 1-5.3.9-2.1 3.7-9.4 6.3-16.3 3.7-10.1 5-12.6 6.7-12.8 3.2-.5 3.3 1.9.4 10.4-6.2 17.6-9.6 24.9-11.8 25.2-1.1.2-2.3-.4-2.6-1.2zm188-30.3c-1.6-1.5-.5-4.3 2.6-6.5 1.7-1.2 8-6 13.8-10.5 7.3-5.7 11.2-8.1 12.4-7.7 3.7 1.4.8 4.9-12.4 15.1-13 9.9-15 11.1-16.4 9.6zm-589.5-12c-.4-1-.7-8.9-.7-17.5 0-13.4.3-16 1.7-17.4 3.8-3.8 4.3-1.6 4.2 17.7-.1 18-.2 18.4-2.3 18.7-1.3.2-2.4-.3-2.9-1.5zm421.1-19.8c-.3-.9 0-5.7.6-10.8.7-5.1 1.5-12.8 1.9-17.2.6-6.7 1-8 2.6-8.3 3.9-.8 4.1 2.2 1.4 24.8-.6 5.2-1.5 10.3-2 11.3-1.1 2.1-3.7 2.2-4.5.2zM796 546c0-1.1 1.5-3.3 3.3-4.9 1.7-1.5 7.7-6.7 13.2-11.5 9.9-8.6 13-10.1 13-5.9 0 1.6-3.5 5.4-12.5 13.2-12.6 11.1-17 13.4-17 9.1zm49.7-41.7c-.4-.3-.7-1.4-.7-2.3 0-1.7 24-26 25.7-26 1.7 0 3.4 2.6 2.8 4.3-.8 1.8-25 24.7-26.2 24.7-.6 0-1.3-.3-1.6-.7zM172 502c3.6-7 7-10 7-6.2 0 1.7-1.8 3.7-6.4 7.2-1.8 1.4-1.9 1.4-.6-1zm407.3-10.2c-.5-.7-1.5-5.1-2.2-9.8-.6-4.7-1.9-12-2.7-16.3-1.7-8.6-1.4-10.7 1.5-10.7 2.3 0 2.4.3 4.9 14 3.1 16.6 3.6 22.1 2 23.1-1.8 1.2-2.4 1.1-3.5-.3zM184.5 489c-1.9-2.1-1.9-2.1.8-4.7 2.2-2.2 2.8-2.4 4.1-1.3 2.1 1.7 2 2.4-.7 5.5l-2.2 2.7-2-2.2zm170.6-5.9c-3.4-2.7-9.7-7.4-14.1-10.3-4.3-2.9-8.1-5.8-8.4-6.4-.8-2.1 1.1-3.7 3.6-3.1 2.8.7 17.7 11.1 24.4 17 3.7 3.2 4.2 4.2 3.4 5.8-.6 1-1.4 1.9-1.9 1.9s-3.6-2.2-7-4.9zm620.3-31l-26.9-27.3-9.5 7.4c-33.6 26.2-50.3 38.8-51.5 38.8-1.6 0-2.2-7.4-3.5-51-.6-18.4-1.3-35.3-1.6-37.5l-.5-4.1-43.2-2.7c-49.4-3.2-51.7-3.4-51.7-5.3 0-.7.4-1.5.8-1.8 1.2-.7 349.2-96.7 353-97.3 4.2-.7 4.2 1-.1 7.3-1.9 2.7-23.6 34.4-48.3 70.4-24.8 36-54.4 79.1-65.8 95.7-11.4 16.6-21.5 31.2-22.5 32.5l-1.9 2.2-26.8-27.3zm42.8-2.6c8-11.5 30.8-44.8 50.8-74 20-29.1 42.7-62.2 50.5-73.5 7.7-11.3 14.5-21.1 15-21.9.4-.8-5.7 2-13.6 6.1-7.9 4.2-26.1 13.6-40.4 21.1-14.3 7.4-52 27-83.9 43.6-31.8 16.5-58 30.1-58.1 30.1-.1 0-.2-1-.2-2.3 0-1.9 9.8-7.3 78.6-43.1 43.2-22.5 79-41.2 79.5-41.7.6-.5-5.5 1.8-13.5 5-7.9 3.2-54.9 22.1-104.4 42.1-49.5 19.9-90.4 36.6-90.9 37-.9.9 1.3 78 2.3 78 .3 0 6.2-15.3 13-33.9l12.4-33.9 4.4-2.1c3.9-1.9 4.6-2 5.9-.7 1.3 1.3 1.1 1.7-1.7 3.2l-3.2 1.6 6.4 6.6c3.5 3.7 19.7 20.2 36 36.7 16.3 16.5 31.6 32.2 33.9 34.8 3.5 3.9 4.6 4.5 5.6 3.5.6-.7 7.7-10.7 15.6-22.3zm-95.4-10c12.2-9.3 22-17.3 21.9-17.6-.7-1.9-26.2-27.8-26.8-27.1-.7.6-24.9 65.8-24.9 66.9 0 .6 3.5-2 29.8-22.2zm57-103.6c52.1-21 100.9-40.7 108.4-43.7 7.6-3 13.7-5.7 13.5-5.9-.2-.1-4.1.8-8.8 2.1-8.3 2.5-52.8 14.7-203.4 56.2-92.2 25.4-87.8 24.1-84.5 24.4 1.4.1 16.7 1.2 34 2.5 17.3 1.2 34.8 2.3 38.8 2.4l7.4.1 94.6-38.1z"/>
    <path d="M930.6 382.2c-.3-.6-.1-1.4.5-1.7 1.5-1 2.5.3 1.2 1.6-.7.7-1.3.7-1.7.1zm-570.2 89.3c-1.3-3.2.3-20.1 2.6-27.8 2-6.7 2.6-7.7 4.6-7.7 3.1 0 3.3 1.5 1.1 8.5-1.1 3.5-2.2 10.6-2.6 17-.6 10.4-.7 11-2.9 11.3-1.3.2-2.5-.3-2.8-1.3zm-150.9-7.2c-.9-2.4 3.1-5.6 13.4-11.1 10.5-5.6 18.5-8.4 20-6.9 2.3 2.3 1.1 4.4-3.6 6.2-5.9 2.2-18.7 8.7-22.8 11.4-3.7 2.6-6.1 2.7-7 .4zm85.1-12.9c-4.8-1.3-12-2.7-16-3.1-6.3-.7-7.1-1-7.4-3.1-.2-1.3.3-2.4 1.2-2.8 3.9-1.5 32.2 4.3 35.1 7.3 1.9 1.8.8 4.3-1.9 4.2-1.1-.1-6.1-1.2-11-2.5zm266.5-29.6c-1.7-3.9-5.4-10.9-8.2-15.6-5.1-8.5-5.6-11.2-2-11.2 3.5 0 19.2 28.7 17.7 32.5-.3.8-1.4 1.5-2.4 1.5-1.4 0-2.8-1.9-5.1-7.2zm-179.4-9.5c-2.1-2.1.2-5.5 11.2-16.4 6.6-6.6 12.6-11.9 13.4-11.9.8 0 2 .7 2.7 1.4.9 1.2-1.1 3.8-11.9 14.5-7.3 7.2-13.5 13.1-14 13.1-.4 0-1.1-.3-1.4-.7zm137.6-39.8c-4-2.3-10.5-5.2-14.5-6.5-8.8-2.7-10.4-3.9-8.6-6.3 1.2-1.6 1.7-1.6 7.3-.2 7 1.8 23.5 9.7 26 12.5 2 2.3 1.3 5-1.2 4.9-1-.1-5.1-2-9-4.4zm-86.9-.9c-1.1-2.9.4-4.3 7.3-6.9 14.5-5.5 27.3-8.1 28.7-5.8 1.4 2.2-.9 4-6.2 5.1-3.2.6-10.2 2.7-15.7 4.6-13.9 4.9-13.4 4.8-14.1 3z"/>
  </g>
</svg>
