<svg version="1.0" xmlns="http://www.w3.org/2000/svg" preserveAspectRatio="xMidYMid meet" viewBox="0 0 500 500">
  <path d="M228.7 228.4c-.4-.4-.7-1.5-.7-2.5 0-1.3-1.2-2.2-4.2-2.9-9.3-2.5-20.7-8.8-26.9-15-5.1-5-9.5-7.9-18.7-12.5-11.4-5.5-12-6.8-10.3-21.7 1.6-14 2.9-18.6 5.6-20.4 3.6-2.4 5-6.7 11-35.9 3.4-16.4 3.1-15.5 5.3-15.5 1 0 8.8 1.6 17.2 3.4l15.4 3.5 3.8-2.1c3.1-1.8 4.2-1.9 6.2-1 2.9 1.3 29.7 7.6 36.6 8.6 2.6.4 5.9 1.8 8 3.5 5.1 4.1 6.5 4.6 17.5 7.1 5.5 1.2 14.7 3.2 20.5 4.5 5.8 1.3 13.4 2.9 16.8 3.6 3.8.7 6.6 1.8 6.9 2.7.4.8-.2 3.9-1.2 6.8-1.9 5.6-1.5 9 1 8 .8-.3 1.5-.1 1.5.4 0 2.7-3.5 16.6-4.3 17.1-.5.4-1.5 3.1-2.1 6-1.2 5.2-1.4 5.4-4.8 5.7-3.1.3-3.6 0-4.2-2.4-1.2-4.7-5-12.4-6.2-12.4-.6 0-2.2-1.6-3.5-3.5-1.3-1.9-2.7-3.5-3-3.5-3.6 0-4.2 13.5-1.1 23.4 3.3 10.3 3 12.7-1.9 15.6-2.2 1.4-5.1 3.3-6.5 4.4-2.4 1.8-18.5 12.2-32.4 21-6 3.7-7.2 4.1-16 4.9-19.4 1.6-24.5 1.8-25.3 1.1zm25.2-26c1.7-1.4 4.3-4.6 5.7-7 2.3-3.9 2.4-4.5 1.1-6.4l-1.5-2.1-2 2.5c-2.7 3.4-7.7 3.6-8.5.4-.4-1.3-1.3-3.2-2.1-4.3-1.4-1.7-1.7-1.8-2.6-.5-2.6 4-.2 16.6 3.7 18.9 2.5 1.5 2.8 1.4 6.2-1.5zm27.4-48.5c4.6-3.8 4.7-4.9.2-4.9-2.4 0-3.5-.5-3.5-1.4 0-2.4-2.2-3-3.7-1-.9 1.3-1.2 3.1-.8 5.4 1.2 6.2 2.3 6.4 7.8 1.9zm-49.5-10.2c.3-3.7.3-3.7-3.6-3.7-3.7 0-3.9.2-3.4 2.6.3 1.5 1.3 2.9 2.3 3.1 1.1.3 1.9 1 1.9 1.5s.6.8 1.3.6c.6-.3 1.3-2.1 1.5-4.1z" fill="#fffefe"/>
  <g fill="#f9fafb">
    <path d="M175.4 316.2c-1.9-1.2-2.7-16.9-1.4-28.8 1-10.3 1-11.3-.9-15.8-1.2-2.6-2.1-5.8-2.1-7 0-1.2-.7-3.2-1.6-4.4-2.1-3-3.9-1.5-4.8 3.8-.3 2.1-1.5 5.4-2.6 7.3-1.5 2.6-2.4 7.3-3.6 19.3-.9 8.8-1.9 17.8-2.1 20.2l-.5 4.2h-13.6l-.6-6.7c-.3-3.8-.8-24.1-1.2-45.3-.5-37.6-.5-38.6 1.5-42.5 1.9-3.6 2.1-5.6 2.1-24.6 0-18.6.2-20.9 1.8-22.9l1.9-2.3 7.9 6.2 7.9 6.3 1.2-3c.7-1.6 1.9-7.4 2.8-12.8 1.2-7.9 2.1-10.4 4-12.3 3.2-3.2 3.8-2.4 2.5 3-.6 2.4-1.7 9.1-2.5 14.8-1.8 13.2-1.4 14.2 9.7 19.6 9.2 4.6 13.6 7.5 18.7 12.5 6.2 6.1 17.6 12.5 26.8 14.9 3.1.9 4.2 1.7 4.5 3.4.3 2.5 1.1 2.5 19.8 1 8.8-.8 10-1.2 16-4.9 13.9-8.8 30-19.2 32.4-21 1.4-1.1 4.3-3 6.6-4.4 2.5-1.5 3.8-3 3.5-3.8-.3-.9.2-1.2 1.7-1 4.1.6 5.1 7.9 5.3 39.8.1 26.2.3 29 2.2 34.2 2.1 5.7 6.8 13.3 9.7 15.7.9.8 1.6 2.8 1.6 4.6 0 3.1 2.5 6.5 4.8 6.5 1.7 0 8.2 14.2 8.2 17.9 0 1.9-.4 3-1 2.6-.5-.3-17.5-.5-37.7-.3-34.4.2-59.2.1-71.5-.3-2.9-.1-9.6.3-14.8 1-5.2.6-13.9 1.4-19.3 1.8-8.9.5-9.8.8-9.4 2.4.5 1.7-.2 1.9-6.1 1.9-3.7 0-7.2-.4-7.8-.8zm162.3-96.9c-.2-.5-3-9-6.1-19-4.5-14.3-5.6-19.3-5.3-23 .3-3.8.5-4.3 1.1-2.6 1.2 3.2 2.3 2 3-3.2.4-2.5 1.4-5.1 2.2-5.9 1.7-1.8 1.8-4.3.2-4.9-.8-.3-.6-.6.5-.6.9-.1 1.7-.8 1.7-1.6s.7-1.5 1.5-1.5c1 0 1.5 1 1.5 3.3 0 3 .5 3.6 5 5.7 4.3 2 5 2.8 5 5.2 0 1.8.5 2.8 1.5 2.8 1.3 0 1.5 3.2 1.5 23v23h-6.4c-3.6 0-6.7-.3-6.9-.7z"/>
    <path d="M249 187.4v-3.5l-4.4.6c-4.3.7-4.4.6-4.3-1.9.2-2.3.5-2.6 3-2 1.8.4 2.7.1 2.7-.7 0-1.3 3.7 2.5 5.6 5.7 1 1.6 1.3 1.7 2.8.5.9-.7 1.6-2 1.6-2.8 0-1.7 3.9-1.4 5.9.5 1.2 1.2 1.2 1.5 0 2.3-.8.5-2.2.9-3.1.9-1.1 0-1.8.8-1.8 2 0 1.7-.7 2-4 2-3.9 0-4-.1-4-3.6zm56.4-20.4c.4-2.4.2-3-1.2-3.1-1.4 0-1.4-.2.3-.9s1.7-.9.3-.9c-2.1-.1-2.5-4.1-.5-4.1 1.9 0 5-3.7 4.2-4.9-.3-.7.3-1.1 1.6-1.1 1.9 0 6.9 4.1 6.9 5.7 0 .3-1.8.3-4 0l-4-.5v6.4c0 5.9-.2 6.4-2.1 6.4-1.9 0-2.1-.4-1.5-3zm13.3-.7c-.4-.3-.7-2.2-.7-4.2.1-2.9.2-3.3 1.1-1.8.5.9 1.7 1.7 2.4 1.7.8 0 1.5.4 1.5.9s.3 1.6.6 2.5c.5 1.2 0 1.6-1.8 1.6-1.4 0-2.8-.3-3.1-.7zM226.5 151c-1.1-.5-1.5-.9-1-.9.6-.1-.1-.7-1.5-1.4s-2.5-2-2.5-3-.7-2.2-1.5-2.7c-1-.6-1.1-1-.3-1 .9 0 1.1-1 .7-3-.4-2-.2-3 .5-3s.9-.4.6-1c-.9-1.4 1.7-1.2 3.8.4 1.9 1.5 2.3 6.6.5 6.6-.7 0 0 1.1 1.5 2.5 1.5 1.5 2.7 3.6 2.7 5 0 2.7-.4 2.8-3.5 1.5zm4.5-7.5c0-3.7-.4-6.5-1-6.5s-.5-.9.2-2.2c.7-1.3 1.4-2.5 1.5-2.7.8-1.3 3.3 3.4 3.5 6.5.5 8.5-.1 11.4-2.2 11.4-1.8 0-2-.7-2-6.5zm46 3c0-2.1-.5-2.5-3.2-2.5-3.1-.1-3.2-.2-1.4-1.5 1-.7 1.5-1.8 1.1-2.4-.3-.6 0-1.1.9-1.1 2.9 0 4.9 1.4 6.2 4.4.8 1.9 1.3 2.4 1.4 1.4 0-2 1.3-2.3 4.1-.8 4.3 2.3.7 5-6.7 5-1.9 0-2.4-.5-2.4-2.5zm-4.1-27.9c-.2-.2-2.8-.6-5.7-1-9.7-1.1-45.9-10.3-41.7-10.6.6 0 4.1-2.5 7.8-5.5 5.4-4.3 7.6-5.5 10.3-5.5 4.6 0 5.5.5 20.4 11.8 15.5 11.7 14.9 11.2 11.9 11.2-1.4 0-2.8-.2-3-.4zM247 106.5c-4-2.9-3.5-2.8-6-1.2-1.9 1.1-1.7 1.3 2.2 2.4 6.7 1.7 7.5 1.5 3.8-1.2z"/>
  </g>
  <path d="M141 309.5c0-5.7.3-7.5 1.4-7.5 1.5 0 2.6 3 2.6 7.3 0 2.5.3 2.7 4 2.7 3.3 0 4-.3 4-2 0-1.1-.4-2-1-2-.5 0-1-.9-1-2s.7-2 1.5-2 1.5-.7 1.5-1.5.7-1.5 1.5-1.5c1.6 0 2 5.3.9 12.3l-.7 3.7H141v-7.5zm75 .6c0-1.2 2.1-1.9 8.1-2.7 4.1-.6 5.1-.4 4.7.7-.2.7-1.5 1.6-2.9 2-3.6 1-9.9 1-9.9 0zm117.6-15.3c-.4-1-1.3-1.8-1.8-1.8-1 0-8.6-7-48-44.3l-19.9-18.8-13.7.2c-7.5.2-16.3.4-19.5.7l-5.7.4-23.5 23.5c-12.9 13-23.5 23.9-23.5 24.4s-.9.9-2 .9c-1.8 0-2-.7-2-5.5 0-5.9 1.3-7.1 3.2-3 .6 1.4 1.4 2.5 1.7 2.4.3 0 10.1-9.8 21.6-21.8 11.6-12 22.2-22.5 23.7-23.4 1.9-1.3 4.6-1.7 10-1.5 4 .1 12.3 0 18.5-.2 9-.2 11.5.1 13.5 1.4 1.2.9 15 14 30.5 29.1 15.5 15.1 28.6 27.5 29.2 27.5 1.6 0 1.3-1.6-.4-3-.9-.7-2.5-2.7-3.7-4.4-2-2.9-1.9-2.9 1.8.7 2.2 2 4.7 3.7 5.6 3.7 2.7 0 6 6.4 5.6 10.7-.3 2.9-.6 3.4-1.2 2.1zM169.3 264c-1.4-3.7-2.9-3.9-3.7-.5-.8 3-4.1 3.4-4.9.5-.3-1.1-.1-2 .5-2 .5 0 .6-.5.3-1-.4-.6.1-2.2.9-3.5 1.2-1.9 2.5-2.5 5.1-2.5 4 0 5.9 2.3 6.8 8.3.5 3.3.4 3.7-1.6 3.7-1.6 0-2.6-.9-3.4-3zM140 240.5c0-5.9.3-7.5 1.5-7.5 1.5 0 2.6 4.6 2.1 9.5-.2 1.7-.4 3.6-.5 4.3 0 .6-.8 1.2-1.6 1.2-1.2 0-1.5-1.5-1.5-7.5zm173.3-6.4c.5-2.3.2-3.1-1.1-3.4-1.6-.4-1.6-.5.1-.6.9 0 1.7-.8 1.7-1.6s.7-1.5 1.5-1.5c1.1 0 1.5 1.2 1.5 5 0 4.4-.2 5-2.1 5-1.8 0-2.1-.4-1.6-2.9zM152.6 180c-4.2-3.4-7.4-6.5-7.1-7 .3-.5 4-3 8.3-5.6 4.2-2.5 10.5-6.8 13.8-9.5l6.1-4.9-.8 4.3c-.5 2.3-1.5 8.3-2.4 13.3-2.3 13.7-3 15.4-7 15.4-2.4 0-5.1-1.5-10.9-6zm195.4-1.5c0-.8-.7-1.5-1.5-1.5-1 0-1.5-1-1.5-2.8 0-2.4-.8-3.2-5.7-5.7-4.7-2.4-5.4-3-3.6-3.3 1.3-.2 3.6.6 5.1 1.7 1.5 1 4.3 2.1 6.2 2.3 3.5.3 3.5.4 3.8 5.6.2 4.2 0 5.2-1.2 5.2-.9 0-1.6-.7-1.6-1.5zm-17-2.4c0-4.1 1.3-8.1 2.7-8.1 1.7 0 6.3 2.9 6.3 4.1 0 .8-7.3 5.9-8.5 5.9-.3 0-.5-.8-.5-1.9zm-101-31.6c0-3 .3-3.5 2.3-3.5 1.9 0 2.2.5 2.2 3.5s-.3 3.5-2.2 3.5c-2 0-2.3-.5-2.3-3.5zm27-30.1c-17.4-3.8-25-5.7-25-6.5 0-1.2 7.3-6.9 9.7-7.5 1.1-.3 3.2 0 4.6.8 3.8 2.1 18.6 13.2 18.7 14.1 0 .8.2.9-8-.9z" fill="#ececec"/>
  <path d="M164.8 267.3l-4.7-.4 1.7-4.5c3-8.2 7.3-8 11.6.6l2.5 5-3.2-.2c-1.8-.1-5.3-.3-7.9-.5zm59.5-119.6c-1.3-1.2-2.5-3.7-2.9-5.5-.5-2.7-.4-3.2 1.2-3.2 1.8-.1 1.8-.1.1-1.4-1.7-1.3-1.6-1.4.3-1.9 1.1-.3 2.2-.2 2.4.1.5.9 1.9 14.2 1.5 14.1-.2 0-1.4-1-2.6-2.2zm5.1-.2c-.4-.8-.2-4.1.2-7.3.8-4.8 1.3-5.8 3.1-6 2-.3 2.1 0 1.7 4.5-.2 2.6-.5 5.3-.5 5.8-.1.6.2 1.8.6 2.8.6 1.4.2 1.7-1.9 1.7-1.5 0-2.9-.7-3.2-1.5z" fill="#f6d3c9"/>
  <path d="M244.3 206.5c-2.6-1.8-3.9-5.8-4.8-14.3-.8-8.2.8-11.2 6.1-11.2 3.2 0 3.7.4 5.2 3.9l1.6 3.8 2.7-2.8c3.2-3.5 5.1-3.6 7.9-.7 4.1 4.5.9 14.8-6.5 20.6-3.3 2.6-9 2.9-12.2.7zm27.2-47.5c-1-1.7-1.8-10.7-1.1-13.4.7-2.8 5.9-6.1 8.2-5.2.8.3 1.4 1.7 1.4 3.1 0 2.9 0 2.8 3.6 1.5 3.4-1.3 5.4.2 5.4 4.3 0 2.2-1.1 4-4 6.9-3.5 3.2-4.7 3.8-8.5 3.8-2.4 0-4.7-.4-5-1zm-46.1-10.3c-4.1-4.6-4.8-6.6-2.9-8.7 1.2-1.3 1.3-2 .5-2.5-2-1.2 1.1-2.5 3.3-1.4 1.4.8 2.3.7 3.6-.5 2.5-2.2 5.5-2.1 4.6.2-.5.9-.9 2.9-.9 4.4-.1 1.5-.5 3-.9 3.4-.4.4.1 1.6 1 2.6 1.3 1.5 1.5 2.3.7 3.6-1.9 3-5.6 2.6-9-1.1zm79.9-43.3c-.3-.9-.2-3.3.3-5.2 1-4.3 4.2-5.6 5.1-2.3.3 1.4 1.3 2.1 2.8 2.1 3.4 0 3.8 2.6.8 5-3.1 2.4-8.1 2.7-9 .4zM261.1 80c-1.5-4.5-.6-5.9 3.7-5.6 2.9.3 3.8.8 4 2.6.4 2.6-2.4 6-4.9 6-1 0-2.1-1.2-2.8-3zm-60.7-6.3c-1.9-1.6-2.5-2.9-2.1-4.1.4-1 1.1-1.5 1.6-1.2.5.3 1.4-.1 2.1-.9 1.8-2.1 2.9-1.9 4 1 1 2.7-.2 7.5-1.9 7.5-.6 0-2.2-1.1-3.7-2.3zm102.3-11.4c-1-1-.8-5.1.3-5.8 1.5-.9 6 .6 6 2.1 0 .7-1 2-2.2 2.8-2.5 1.8-3.2 1.9-4.1.9z" fill="#772030"/>
  <path d="M153 312.3c0-3.4 1.2-6.3 2.6-6.3 1 0 1.4 1.3 1.4 4 0 3.3-.3 4-2 4-1.2 0-2-.7-2-1.7zm2-21c0-3.4 1.2-6.3 2.6-6.3 1 0 1.4 1.3 1.4 4 0 3.3-.3 4-2 4-1.2 0-2-.7-2-1.7zm17-9v-2.8l-8.1.3-8.1.4.7-4.4c.8-5 6.1-14.8 8-14.8.7 0 1.8.6 2.4 1.4.7.8 2.7 1.7 4.5 2 4.1.8 5.1 3.1 6.2 13.6l.7 7h-3.2c-2.7 0-3.1-.3-3.1-2.7zm151.2-2.8l-3.3-4 3.2-.3c3.9-.4 4.1-.2 3.7 4.4l-.3 3.9-3.3-4zm-9.5-23.2c-.4-.3-.7-2.1-.7-4 0-2.6.4-3.3 2-3.3 1.7 0 2 .7 2 4 0 3.8-1.4 5.2-3.3 3.3zm-.7-17c0-5.3 1-8.3 2.6-8.3 1 0 1.4 1.6 1.4 6 0 5.3-.2 6-2 6-1.6 0-2-.7-2-3.7zm23-22.8c0-2.8.4-3.5 1.9-3.5 1 0 2.1.9 2.4 2 .3 1.1 1.2 2 2.1 2 .9 0 1.6.7 1.6 1.5 0 1.1-1.1 1.5-4 1.5-3.9 0-4-.1-4-3.5zm-30.6-42c-.8-4.6.3-10.5 2.1-10.5.7 0 1.6 1 1.8 2.3.3 1.6.5 1.3.6-1 0-1.8.6-3.3 1.1-3.3.6 0 1-.7 1-1.5s-.4-1.5-1-1.5c-.5 0-1 .5-1 1 0 .6-.9 1-2 1-2.6 0-2.7-3.1-.2-5.3 1.9-1.8 5-2.2 6.7-.9 3.1 2.2 11.2 13.8 12.7 18.2l1.7 5h-2.5c-1.7 0-2.4-.5-2.4-2 0-2.5-1.7-2.5-5.5 0-1.9 1.3-4.7 2-7.7 2-4.6 0-4.7-.1-5.4-3.5zm42.6-.5c0-.5-3.2-2.6-7.1-4.6l-7.1-3.5.6-3.7c1.4-8.1 1.8-9.2 3.3-9.2 1.2 0 1.4 1 1.1 4.8l-.3 4.8 5.3 2.3c5 2.3 5.2 2.5 5.2 6.2 0 2.2-.2 3.9-.5 3.9s-.5-.4-.5-1z" fill="#efb9a0"/>
  <path d="M144.4 450.2c-3.2-2.1-8.5-5-11.6-6.5-8.5-3.8-8.9-5.3-4.5-17.4 5-13.8 5.7-16.8 5.7-25.2 0-12-4.5-25.9-13.6-41.8-14.4-25.2-15.9-31.8-10.4-44.2 3.6-8.3 6-19.6 6-28.4 0-9.5 2.2-16.9 7.8-26 7.1-11.7 9.9-17.5 13.3-28.1 4.7-14.8 5.9-14.5 5.9 1.5 0 7.4.2 18.7.5 25.1.5 10.1.3 11.7-1 12-1.3.2-1.7 2.5-2.2 12.8-.7 15.5-.7 16.7.2 26.3.7 6.4 1.2 8 2.9 8.9 1.2.6 2.4 1.6 2.9 2.2 1 1.6 2.7-1.2 2.7-4.6 0-2.1.5-2.8 1.9-2.8 2.4 0 2.6-1.1 4.1-20 1.7-21.6 4.4-30.2 6.6-21.3 1.3 5.5 4.7 5.7 9 .6 1.8-2.1 3.3-3.2 3.4-2.5 0 .6.7 1.2 1.5 1.2 1.8 0 2.1 4.6.3 5.3-.8.3-.6.6.5.6 2.1.1 2.3 2.1.2 2.1-.8 0-1.5.5-1.5 1 0 .6.7 1 1.5 1 1.3 0 1.4.7.8 3.8-1.2 6.1-.8 26.3.6 27.1.7.4 2.5.7 4.1.6 2.3-.1 3 .3 3 1.7 0 1.3-.7 1.8-2.6 1.8-2.4 0-2.5.3-1.9 3.3.3 1.7 1.9 7.3 3.5 12.2 1.6 5 3.1 10.6 3.5 12.5.3 1.9 1.1 4.8 1.7 6.4 1 2.5.9 3.1-.9 4.6-1.7 1.3-2.3 3.6-3.3 12.6-1.8 16.5-4.5 29.9-10.4 51.4-2.9 10.7-6 22-6.7 25-1.2 4.7-1.9 5.8-4.9 7.2-5.9 3-11.8 2.4-18.6-2zm210.7-100.4c-1-2.4-3.7-10.6-6-18.3-4.6-15.1-13.5-34.5-20.7-45.2-2.4-3.6-4.4-6.8-4.4-7.2 0-.3-.9-1.2-1.9-1.8-2.6-1.6-6.7-10.6-7.9-17.3-.6-3.2-.8-14.1-.5-25.8.6-22.8-.3-31.1-4.7-46.1-1.6-5.3-2.9-11.8-3-14.6-.6-16.5.4-19.2 6.4-18.1 2.1.4 3.4 1.1 3 1.7-1 1.6 4.5 8.7 7.7 9.8 3 1 3.8 2.6 1.7 3.4-.9.4-.8.6.2.6.9.1 2.1 1.9 2.8 4.4.7 2.3 3.8 12.2 6.8 21.9 3.1 9.8 5.3 18.2 4.9 18.8-.4.6 1.1 1 3.9 1h4.6v-21.7c-.1-17.6-.3-22.2-1.5-23.7-.8-1.1-1.5-1.6-1.5-1.2 0 .4-.7 0-1.6-.8-.8-.9-2-1.4-2.5-1.1-.5.4-.9.1-.9-.5s-.4-.8-1-.5c-.5.3-1 .1-1-.5s-.4-.9-.9-.5c-1.8 1-2.2-1.5-1.5-8.4.8-8.6 1.3-8.8 14-5.6 12.2 3.1 13.1 4.1 18.9 22.2 4 12.1 5.5 15.4 10.8 23l6.2 8.8-.1 9.5c-.1 9.7-.1 9.5-7.9 34-7.1 22.1-3.3 45.9 11.6 73.8 2.7 5.1 4.9 9.9 4.9 10.7 0 2.4-5.8 5.3-14 7.1-9.1 2-11.2 3-17.2 8.3-2.5 2.3-4.9 4.1-5.2 4.1-.4 0-1.5-1.9-2.5-4.2zm-36.3-179.7c.2-.6-.3-1.1-1.2-1.1-.9 0-1.6-.8-1.6-2 0-1.1-.7-2-1.6-2-1.1 0-1.4.6-.9 2.1.4 1.3.1 2.7-1 3.9-2.7 3-.8 4.4 2.8 2.1 1.7-1.1 3.3-2.5 3.5-3z" fill="#ffb091"/>
  <path d="M186.7 354.6c-.8-.8-1.8-3.6-2.1-6.1-.4-2.5-1.9-7.8-3.2-11.8-2.2-6.2-5.7-21.8-5-22.4.1-.1 2.7-.4 5.7-.7l5.6-.6 3 4.3c1.7 2.3 4 6 5.1 8.2 2 4 6.2 19.9 6.2 23.5 0 3.6-4.8 3.3-8-.4-2.3-2.9-4-1.9-4 2.3 0 4.5-1.2 5.8-3.3 3.7zM145 333.5c.7-.8 1.7-1.5 2.2-1.5.6 0 .5.7-.2 1.5s-1.7 1.5-2.2 1.5c-.6 0-.5-.7.2-1.5zm1.5-3.5c.3-.5 1.3-1 2.1-1s1.2.5.9 1c-.3.6-1.3 1-2.1 1s-1.2-.4-.9-1zm-6.5-2.4c0-.8.7-1.6 1.5-2 .8-.3 1.5-.9 1.5-1.4 0-1-8.5-5.2-10.5-5.2-.8 0-1.5-.5-1.5-1.1 0-.7 1.2-.9 3.7-.4l3.6.6-.6-6.2c-.4-3.4-1.3-7.4-2.1-9-.8-1.5-1-3.1-.5-3.6 1.3-1.3 2.9-19.1 2.2-23.7-.4-2.8-1.4-4.3-3.5-5.6-1.6-1-2.6-2-2.1-2.3.5-.3 1.5-.2 2.3.4 2.5 1.5 4 1 5.2-1.6 1.5-3.4 3.4-3.1 4.2.6.3 1.7.6 13 .6 25V314h4c4 0 4 0 4 3.8 0 6.5-.9 8.3-3.7 7.6-1.7-.5-3 0-4.4 1.5-2.3 2.4-3.9 2.7-3.9.7zm18-30.6c-2.2-1.4-.5-2.3 1.9-1 1.2.6 2.7.8 3.3.4.7-.4.8-.3.4.4-.9 1.4-3.5 1.5-5.6.2zm2-3c0-1.3 1.1-1.3 3 0 1.2.8 1.1 1-.7 1-1.3 0-2.3-.4-2.3-1zm-19.6-47.4c-1-.8-1.6-1.7-1.3-2 .3-.3 1.4.1 2.5.8 1 .8 1.6 1.7 1.3 2-.3.3-1.4-.1-2.5-.8zM344 221.5c-1.9-1.9-3-3.5-2.4-3.5 1.6.1 8.8 7 7.3 7-.8 0-3-1.6-4.9-3.5zm4-4.5c0-.5 1.1-1 2.5-1s2.5.5 2.5 1c0 .6-1.1 1-2.5 1s-2.5-.4-2.5-1zm.6-4.7c-.3-.3-.6-6.7-.5-14.2 0-9.2.3-12.9.9-11.3 1 2.4 1.7 2.6 4 1.2.9-.6 1.7-.5 2.2.3.4.7-.5 1.6-2.4 2.4l-3 1.3.4 7.4c.2 4.1.6 7.8 1 8.1.3.4 1.8-.1 3.2-1.1 1.5-.9 3-1.3 3.4-.9.4.4.1 1-.6 1.3-.8.2-2.9 1.7-4.7 3.3-1.7 1.6-3.5 2.6-3.9 2.2zM322 193c0-.5-.7-1-1.5-1-2.5 0-1.7-1.5 1.5-2.7 2.4-.9 3-.9 3 .3 0 .7.6 1.1 1.4.8.8-.3 1.7-.1 2.1.5.3.7-.3 1.1-1.5 1.1s-1.8.5-1.5 1c.3.6-.3 1-1.4 1-1.2 0-2.1-.4-2.1-1zm26.7-22.7c-.8-.7 2.1-4.3 3.5-4.3 1.3 0 .9 2-.6 3.6-1.6 1.6-2 1.7-2.9.7z" fill="#ed9073"/>
</svg>
