<svg version="1.1" xmlns="http://www.w3.org/2000/svg" viewBox="0 0 500 500">
  <path d="M246.488 95.055c5.85 2.2 10.65 6.12 15.51 9.95 1.13.87 2.27 1.74 3.4 2.61 2.13 1.63 4.24 3.27 6.34 4.93 1.08.82 2.17 1.64 3.26 2.46.66.5 1.32 1 1.99 1.53 5.86 4.23 11.36 5.99 18.39 7.47 1.6.36 1.6.36 3.23.72 3.46.78 6.92 1.53 10.39 2.28 3.75.81 7.5 1.63 11.25 2.45 2.38.52 4.77 1.04 7.16 1.54 1.08.23 2.16.47 3.27.71 1.44.3 1.44.3 2.9.61 2.42.69 2.42.69 5.42 2.69-.14 1.56-.29 3.12-.44 4.68l-.24 2.64c-.31 2.6-.77 5.12-1.32 7.68.98.03.98.03 1.99.07 7.84.49 17.38 1.28 23.18 7.1 2.13 3.29 3.49 6.64 4.77 10.33.26.7.52 1.41.78 2.14 1.19 3.24 2.33 6.49 3.43 9.77 3.12 8.9 8.07 18.8 14.85 25.59.78 12.14-.26 22.39-4 34-.68 2.28-1.35 4.56-2.02 6.84-.43 1.48-.87 2.96-1.31 4.44-7.71 25.67-.26 50.3 11.71 73.28.35.65.71 1.31 1.08 1.98 2.12 4.01 2.95 6.93 2.54 11.46-4.52 2.54-8.83 4.29-13.83 5.71-6.83 1.94-11.97 3.86-17.27 8.83-2.27 1.74-4.09 2.09-6.9 2.46-3.59-9.37-7.01-18.78-10.31-28.25l-1.06-3.03-.99-2.87c-.29-.84-.59-1.68-.89-2.54-.68-2.1-1.23-4.18-1.75-6.31-13.93-.08-27.86-.13-41.79-.16-6.47-.02-12.94-.04-19.41-.07-30.08-.16-59.86.15-89.8 3.23.84 1.44.84 1.44 1.69 2.91.74 1.27 1.47 2.54 2.21 3.81.37.64.73 1.27 1.11 1.92 5.24 9.1 7.73 18.82 6.99 29.36-4.56-.44-7.57-.86-11-4-.18 1.91-.18 1.91-.37 3.87-.38 3.88-.38 3.88-2.63 6.13-.46 2.15-.81 4.33-1.12 6.52l-.63 4.22c-.11.75-.22 1.5-.33 2.28-2.35 15.71-5.65 31.08-9.54 46.48-.24.93-.47 1.87-.72 2.84-7.01 27.79-7.01 27.79-11.03 32.34-5.04 2.52-9.29 2.73-14.79 1.38-6.03-2.27-11.56-5.72-17.07-9.01-1.55-.93-3.12-1.82-4.69-2.71-2.08-1.34-2.08-1.34-3.08-3.34.04-5.5 1.33-10.42 3.23-15.53 6.35-17.3 5.35-33.73-2.11-50.44-2.21-4.77-4.63-9.41-7.12-14.03-1.21-2.26-2.42-4.52-3.62-6.78-.77-1.44-1.54-2.87-2.32-4.29-5.21-9.66-8.41-19.04-5.49-30.09.97-3.06 2.05-6.07 3.15-9.08 2.9-8.1 3.98-16.08 4.44-24.68.65-11.22 5.31-20.49 10.9-30.01 2.47-4.21 4.71-8.39 6.59-12.89 1.03-2.44 2.14-4.69 3.36-7.02 7.09-14.62 7.08-29.56 7.25-45.5.02-.93.03-1.85.05-2.81.03-1.75.04-3.51.02-5.27.08-4.31.24-6.04 3.01-9.52 2.99-2.32 6.06-4.4 9.29-6.38 1.24-.78 2.48-1.57 3.72-2.36 2.28-1.46 4.57-2.9 6.87-4.33.96-.64 1.92-1.28 2.91-1.93.84-.55 1.69-1.09 2.57-1.65 7.77-8.13 8.75-22.43 11.05-33.04.42-1.88.83-3.76 1.25-5.64 1.01-4.58 2.01-9.16 3-13.73 5.07-.11 9.78-.09 14.74 1.09.98.22 1.97.45 2.98.68 1 .24 2 .48 3.03.73 2.02.47 4.03.94 6.05 1.4.88.21 1.76.42 2.67.64 4.81.9 4.81.9 9.32-.55.54-.47 1.07-.93 1.63-1.4.61-.5 1.22-1 1.85-1.51.63-.52 1.27-1.05 1.92-1.58 9.4-7.21 9.4-7.21 15.3-6.45z" fill="#F7F7F7"/>
  <path d="M140 222h3c.86 30.67 1.13 61.32 1 92l8-1c1.08-6.54 1.97-13.02 2.37-19.64 1.86-30.59 1.86-30.59 9.63-38.36 4.13 0 6.25.27 9.25 3.19 6.01 10.93 5.13 24.64 4.94 36.69-.02 1.67-.03 3.34-.04 5.01-.04 4.03-.09 8.07-.15 12.11l2.07.12c.9.06 1.8.13 2.72.2.89.06 1.78.12 2.7.18 3.61.72 5.1 2.38 7.21 5.29 6.27 10.61 9.92 21.84 9.3 34.21-4.56-.44-7.58-.85-11-4-.19 1.92-.19 1.92-.38 3.88-.37 3.87-.37 3.87-2.62 6.12-.46 2.16-.81 4.34-1.12 6.52l-.63 4.22c-.11.76-.22 1.51-.34 2.28-2.34 15.71-5.64 31.08-9.53 46.48-.24.94-.48 1.88-.72 2.84-7.01 27.8-7.01 27.8-11.04 32.35-5.04 2.52-9.28 2.72-14.78 1.38-6.04-2.27-11.56-5.72-17.08-9.02-1.55-.92-3.11-1.82-4.68-2.71C126 441 126 441 125 439c.04-5.49 1.33-10.42 3.22-15.53 6.36-17.29 5.35-33.73-2.1-50.44-2.21-4.76-4.64-9.4-7.12-14.03-1.21-2.26-2.42-4.52-3.62-6.78a901.4 901.4 0 00-2.32-4.29c-5.21-9.65-8.42-19.03-5.49-30.08.97-3.06 2.05-6.08 3.14-9.09 2.91-8.1 3.99-16.08 4.45-24.68.64-11.2 5.3-20.48 10.89-29.99 5.97-10.16 9.92-21.06 13.95-32.09z" fill="#FBC2AD"/>
  <path d="M338 150c8.09.36 18.21 1.2 24.17 7.17 2.13 3.29 3.49 6.65 4.77 10.33.26.71.51 1.41.78 2.14 1.18 3.24 2.33 6.5 3.42 9.77 3.13 8.9 8.08 18.81 14.86 25.59.78 12.14-.26 22.4-4 34-.68 2.28-1.35 4.56-2.02 6.85-.43 1.48-.87 2.95-1.32 4.43-7.7 25.68-.25 50.3 11.72 73.28.35.66.71 1.31 1.08 1.99 2.12 4 2.94 6.92 2.54 11.45-4.52 2.54-8.83 4.3-13.83 5.72-6.83 1.93-11.97 3.86-17.28 8.83-2.26 1.74-4.09 2.08-6.89 2.45-3.5-9.13-6.82-18.31-10-27.56-8.19-24.53-8.19-24.53-22.75-45.63-8.87-9.44-10.53-23.04-10.56-35.4-.02-2.27-.05-4.55-.07-6.82-.03-3.53-.06-7.07-.08-10.61-.1-15.99-.69-30.56-5.73-45.86-2.71-8.39-2.59-15.77.19-24.12 1.31-2.06 1.31-2.06 3-3 2.85-.16 4.43.56 6.67 2.29 10.18 9.51 13.45 21.55 17.08 34.52.72 2.52 1.44 5.04 2.17 7.56.45 1.56.89 3.12 1.33 4.68.56 1.99 1.16 3.97 1.75 5.95.23.95.47 1.91.71 2.89 1.24 2.52 1.24 2.52 4.91 3.42 1.12.23 2.23.46 3.38.69.1-6.02.14-12.03.12-18.04 0-2.05.02-4.09.06-6.14.76-11.42.76-11.42-3.38-21.46-2.59-1.54-4.92-2.49-7.8-3.36l-3-2c.59-11.71.59-11.71 4-16z" fill="#FBC3AD"/>
  <path d="M190 315c5.09 5.79 7.75 12.72 10 20 .23.71.45 1.43.69 2.16 1.43 4.99 1.52 9.7 1.31 14.84-4.56-.44-7.58-.85-11-4l-1 8c-2.64-.99-3.77-1.54-5.05-4.12l-.77-2.61c-.28-.97-.57-1.93-.87-2.92-.29-1.02-.58-2.04-.87-3.1-.31-1.04-.61-2.07-.92-3.14C176 320.91 176 320.91 176 314c1.58-.22 3.17-.43 4.75-.62.88-.12 1.76-.24 2.67-.36 2.91-.02 4.19.35 6.58 1.98z" fill="#E89883"/>
  <path d="M140 264l4 2v48h7c1 1 1 1 1.1 3.07-.01.82-.03 1.64-.04 2.49-.01.83-.02 1.66-.02 2.51-.02.63-.03 1.27-.04 1.93-1.44.65-2.87 1.29-4.31 1.94-1.2.54-1.2.54-2.43 1.09C143 328 143 328 140 329c0-3 0-3 2-5-1.27-.65-2.54-1.29-3.81-1.94l-2.15-1.09c-2.16-1.08-2.16-1.08-5.04-1.97v-2l7 1c-.13-.86-.27-1.71-.4-2.6-.37-2.35-.73-4.71-1.08-7.07-.38-2.4-.78-4.81-1.21-7.21-.31-3.12-.31-3.12.15-6.24.61-4.37.8-8.61.85-13l.09-2.38c.05-4.14-.07-6.01-2.42-9.55-.65-.65-1.31-1.29-1.98-1.95h6l2-4z" fill="#EA9C88"/>
  <path d="M245.5 180.438c3.5.56 3.5.56 5.44 2.94 1.06 2.62 1.06 2.62 1.06 4.62 1.36-1.27 1.36-1.27 2.75-2.56 2.93-2.44 2.93-2.44 5.44-2.44 2.06 1.14 3.32 2.17 4.81 4 .65 6.1-1.55 11.15-5 16-2.26 2.65-4.49 4.7-8.02 5.41-3.04.13-5.43-.11-8.11-1.58-4.39-4.29-5-12.39-5.25-18.33.38-3.5.38-3.5 1.44-6 1.94-1.5 1.94-1.5 5.44-2.06z" fill="#7B2736"/>
  <path d="M278.375 140.188c.54.27 1.07.54 1.62.81v5c.67-.33 1.32-.66 2-1 3.07-.12 3.07-.12 6 0 1 1 1 1 1.38 3.69-.5 4.42-2.31 6.18-5.38 9.31-3.2 2.14-4.01 2.23-7.68 2.13l-2.45-.06c-.62-.02-1.23-.04-1.87-.07-2.51-4.71-2.98-9.8-2-15 2.08-3.1 4.47-5.12 8.38-4.81z" fill="#7C2838"/>
  <path d="M231 134c2.34.29 4.67.62 7 1 1.38 5.51.81 8.33-1.89 13.3C235 150 235 150 233 152c-3.2.07-5.21-.34-7.69-2.42-3.3-3.59-5.31-6.53-5.31-11.58 2.3-2.3 2.95-2.3 6.06-2.56 3.71 0 3.71 0 4.94-1.44z" fill="#7D2939"/>
  <path d="M307 96c4 0 4 0 5.56 1.44.48.51.95 1.03 1.44 1.56l3 1c-.31 2.38-.31 2.38-1 5-3.09 2.06-3.71 2.24-7.19 2.12L305 107c-.25-7.62-.25-7.62 2-11z" fill="#751F2F"/>
  <path d="M348 187h2v2l5-1v2l-4 2v15l7-2v2c-1.43 1.29-1.43 1.29-3.31 2.62-.62.45-1.23.9-1.87 1.36C351 212 351 212 348 212v-25z" fill="#EC9F8A"/>
  <path d="M264.5 73.875c3.5.12 3.5.12 4.5 1.12.19 2.94.19 2.94 0 6-2 2-2 2-4.5 2.32-1.24-.16-1.24-.16-2.5-.32-2.15-3.22-2.29-4.27-2-8 1-1 1-1 4.5-1.12z" fill="#761F2F"/>
  <path d="M206 66c1.37 2.74 1.13 4.97 1 8l-1 2c-5.75-.75-5.75-.75-8-3-.12-2.62-.12-2.62 0-5 3.09-1.76 4.23-2 8-2z" fill="#762030"/>
  <path d="M302 56h6l1 5c-3 2-3 2-7 2v-7z" fill="#771F30"/>
  <path d="M321 189c3.62.38 3.62.38 7 1v2h-2v2h-4v-2l-3-1 2-2z" fill="#EC9E8A"/>
</svg>
