<svg version="1.1" xmlns="http://www.w3.org/2000/svg" viewBox="0 0 430 600">
  <path d="M139.45 180.1c2.806-4.437 4.254-10.686 4.254-18.749 0-7.876-1.357-14.034-4.163-18.202-2.72-4.163-6.7-6.25-11.957-6.25-5.43 0-9.688 2.087-12.495 6.25-2.897 4.26-4.35 10.326-4.35 18.202 0 7.972 1.453 14.221 4.35 18.658 2.806 4.346 6.974 6.614 12.226 6.614 5.343 0 9.42-2.177 12.135-6.523m181.85 46.458c-7.242 0-13.132 5.981-13.132 13.223 0 7.338 5.89 13.224 13.132 13.224 7.247 0 13.132-5.976 13.132-13.224.09-7.242-5.794-13.223-13.132-13.223m7.698 21.92c-.36.18-.724.273-1.088.36-.36.091-.725.091-1.176.091-.724 0-1.357-.177-1.903-.542-.451-.273-.902-.816-1.358-1.54l-2.806-4.892h-.724v6.614h-4.528v-18.293h.36c.815-.089 1.631-.18 2.446-.18.815 0 1.54-.09 2.264-.09 2.629 0 4.528.45 5.799 1.357 1.267.907 1.9 2.355 1.9 4.26 0 .814-.09 1.448-.27 2.081a6.944 6.944 0 01-.817 1.631c-.364.45-.728.816-1.18 1.175-.273.181-.542.364-.814.546l4.345 7.243zm-13.857-111.58c-5.434 0-9.688 2.086-12.499 6.249-2.897 4.259-4.345 10.326-4.345 18.202 0 7.971 1.448 14.22 4.345 18.658 2.81 4.345 6.883 6.614 12.226 6.614 5.257 0 9.33-2.177 12.14-6.523 2.805-4.437 4.254-10.686 4.254-18.75 0-7.875-1.358-14.033-4.164-18.201-2.81-4.163-6.796-6.25-11.957-6.25m-75.35-126.24c-69.826 0-114.47 21.372-138.2 37.221-24.543 16.485-68.104 60.588-76.344 132.32-6.522 56.602 12.135 115.47 55.512 158.94 41.3 41.296 92.92 56.694 136.84 56.694 53.524 0 107.41-21.646 140.92-60.137 33.507-38.492 50.626-86.938 50.626-155.59V10.755h-169.36zm-13.219 115.29l.36-.089c2.264-.364 3.986-.546 5.07-.546 6.523 0 9.785 2.902 9.785 8.696v21.915c.092-.27.177-.543.36-.811.633-1.453 1.722-3.17 3.17-4.983l14.308-18.926c1.54-1.996 3.17-3.535 4.801-4.441 1.63-.903 3.444-1.449 5.526-1.449 1.721 0 3.352.273 4.892.906a10.16 10.16 0 013.894 2.446l.27.274-23.185 31.152 26.173 35.683-.45.27c-2.806 1.63-5.617 2.537-8.514 2.537-4.8 0-8.695-1.904-11.593-5.708l-15.396-20.015c-1.99-2.623-3.439-5.16-4.345-7.607v32.15h-15.214V125.95zm-55.607-.18h44.467l.09.36c.18 1.088.36 2.446.36 3.986 0 2.805-.725 4.8-2.173 6.067-1.449 1.18-3.804 1.813-7.152 1.813H186.36v16.48h22.188v12.14H186.36v18.562h21.915c2.902 0 5.166.724 6.705 2.086 1.627 1.357 2.442 3.348 2.442 5.885 0 .816 0 1.449-.09 1.99 0 .547-.088 1.09-.18 1.723v.364h-46.19zm-72.272 55.511c-2.446-5.612-3.62-12.312-3.62-19.924 0-7.516 1.356-14.125 3.985-19.742 2.623-5.616 6.518-9.962 11.41-12.859 4.888-2.897 10.687-4.345 17.297-4.345 10.053 0 17.933 3.257 23.459 9.78 5.434 6.427 8.24 15.578 8.24 27.166 0 11.684-2.806 21.013-8.423 27.713-5.616 6.705-13.674 10.053-24.092 10.053-6.791 0-12.677-1.54-17.387-4.62-4.8-3.17-8.422-7.515-10.868-13.223m80.061 51.354c-1.54 1.357-3.803 2.081-6.613 2.081h-12.768v58.774h-15.396v-58.774h-21.823l-.09-.364c-.18-1.266-.363-2.715-.363-4.254 0-2.446.906-4.437 2.537-5.885 1.721-1.453 3.985-2.178 6.791-2.178h49.63l.088.365a37.26 37.26 0 01.273 4.618c.09 2.355-.724 4.255-2.264 5.617M235 291.313c0 .542-.092 1.088-.18 1.722v.36h-46.19v-71.54h44.467l.092.36c.182 1.088.36 2.446.36 3.985 0 2.806-.724 4.801-2.172 6.067-1.449 1.18-3.804 1.813-7.152 1.813h-20.197v16.48h22.188v12.135h-22.188v18.567h21.914c2.902 0 5.166.725 6.706 2.086 1.626 1.358 2.441 3.348 2.441 5.886 0 .906 0 1.54-.092 2.082m64.749 1.721c-2.988 1.085-5.794 1.631-8.422 1.631-2.537 0-4.62-.546-6.25-1.448-1.63-.999-3.17-2.72-4.619-5.166l-10.413-17.387-13.132 22.821h-16.754l21.008-35.68-18.562-33.69.451-.181c8.964-3.985 15.032-2.897 18.111 3.08l9.784 18.383 9.963-17.209c1.448-2.44 2.896-4.163 4.345-5.07 1.54-.997 3.444-1.448 5.708-1.448 2.532 0 5.16.725 7.875 2.173l.456.18-19.564 33.326 20.557 35.502zm21.555-34.959c-10.053 0-18.111-8.24-18.111-18.293 0-10.053 8.15-18.293 18.111-18.293 10.053 0 18.202 8.24 18.202 18.293 0 10.053-8.149 18.293-18.202 18.293m17.118-69.102c-5.617 6.706-13.674 10.053-24.092 10.053-6.792 0-12.676-1.54-17.387-4.618-4.71-3.08-8.331-7.516-10.777-13.132-2.446-5.612-3.621-12.312-3.621-19.924 0-7.516 1.357-14.126 3.98-19.742 2.72-5.617 6.523-9.963 11.416-12.86 4.887-2.896 10.686-4.345 17.296-4.345 10.053 0 17.933 3.257 23.454 9.78 5.434 6.427 8.245 15.578 8.245 27.167-.09 11.684-2.897 20.922-8.514 27.622m-17.569 44.559h-.906v5.165h.725c.906 0 1.63-.181 2.172-.638.456-.45.725-1.084.725-2.081 0-.907-.27-1.631-.725-1.991-.36-.273-.998-.456-1.99-.456M282.97 563.07c0 8.696-1.63 15.214-4.801 19.65-3.17 4.441-7.876 6.614-14.125 6.614-6.432 0-11.142-2.173-14.312-6.523-3.17-4.345-4.71-10.955-4.71-19.742 0-8.422 1.63-14.945 4.983-19.564 3.353-4.619 8.058-6.883 14.307-6.883 6.25 0 10.87 2.178 13.948 6.523 3.17 4.346 4.71 10.96 4.71 19.924m-10.326 0c0-6.158-.632-10.777-1.99-13.766-1.358-2.988-3.53-4.436-6.432-4.436-2.988 0-5.16 1.448-6.518 4.436-1.358 2.989-2.082 7.516-2.082 13.766 0 6.068.724 10.595 2.082 13.583 1.357 2.989 3.53 4.442 6.518 4.442 2.902 0 5.074-1.453 6.432-4.35 1.357-2.897 1.99-7.516 1.99-13.674m-40.934 0c0 8.695-1.63 15.214-4.8 19.65-3.171 4.44-7.877 6.614-14.126 6.614-6.431 0-11.142-2.173-14.312-6.523-3.17-4.346-4.71-10.955-4.71-19.742 0-8.423 1.63-14.945 4.984-19.564 3.352-4.62 8.057-6.883 14.308-6.883 6.25 0 10.868 2.178 13.948 6.523 3.17 4.346 4.71 10.959 4.71 19.924m-10.414 0c0-6.159-.637-10.777-1.995-13.766-1.357-2.988-3.53-4.436-6.427-4.436-2.993 0-5.165 1.448-6.523 4.436-1.357 2.988-2.082 7.516-2.082 13.766 0 6.067.725 10.595 2.082 13.583 1.358 2.988 3.53 4.441 6.523 4.441 2.897 0 5.07-1.453 6.427-4.35s1.995-7.516 1.995-13.674m-54.52 25.086v-38.758l-10.054 5.07c-2.082-2.72-3.17-4.892-3.17-6.25 0-1.448.815-2.628 2.446-3.439l10.868-5.707a21.64 21.64 0 012.988-1.358c.907-.364 1.904-.546 2.988-.546 1.631 0 2.988.456 4.26 1.27v49.81h-10.328zm253.31-103.61c0 5.435-.999 10.144-2.989 14.217-1.995 4.077-4.8 7.065-8.513 9.238-3.622 2.086-7.972 3.17-13.042 3.17H379.24v-50.893c4.8-.638 9.602-.906 14.399-.906 8.786 0 15.31 2.082 19.746 6.34 4.528 4.164 6.7 10.505 6.7 18.836m-10.687.18c0-5.798-1.266-10.143-3.712-13.04-2.446-2.811-6.158-4.26-11.233-4.26-1.448 0-2.988.09-4.619.274v35.32h4.26c5.251 0 9.146-1.448 11.592-4.345 2.447-2.901 3.713-7.52 3.713-13.948m-46.821-10.235c0 3.622-.817 6.792-2.538 9.33-1.717 2.623-4.072 4.436-7.151 5.616l12.677 21.19c-1.99.906-4.077 1.266-6.159 1.266-1.899 0-3.439-.45-4.8-1.266-1.267-.815-2.442-2.173-3.53-3.986l-8.697-14.854h-4.254v19.29h-10.595v-51.076c4.437-.543 8.964-.725 13.583-.725 7.334 0 12.677 1.267 16.212 3.713 3.53 2.446 5.252 6.34 5.252 11.502m-11.05.998c0-2.988-.725-5.166-2.265-6.614-1.54-1.449-3.894-2.173-7.151-2.173-.907 0-1.722 0-2.355.089-.633.088-1.27.088-1.722.18v17.752h3.621c3.17 0 5.617-.815 7.339-2.355 1.717-1.631 2.532-3.986 2.532-6.883m-47.183 35.68L300 498.577h-17.751l-4.26 12.59h-10.413l17.842-50.626c1.631-.724 3.713-1.088 6.159-1.088 3.803 0 6.158 1.63 7.242 4.8l16.485 46.914zm-13.132-42.113l-6.974 21.823h13.766zm-32.15 15.486c0 5.434-.998 10.144-2.988 14.217-1.995 4.077-4.801 7.065-8.514 9.238-3.62 2.086-7.97 3.17-13.04 3.17h-16.304v-50.893c4.801-.638 9.602-.906 14.398-.906 8.787 0 15.31 2.082 19.746 6.34 4.437 4.164 6.701 10.504 6.701 18.835m-10.777.181c0-5.798-1.267-10.144-3.712-13.04-2.446-2.811-6.159-4.26-11.228-4.26-1.454 0-2.993.09-4.62.274v35.32h4.255c5.252 0 9.147-1.448 11.593-4.345 2.537-2.901 3.713-7.52 3.713-13.948M199.2 511.167h-8.874l-21.828-33.78v33.78h-10.053V459.91a23.573 23.573 0 014.71-.456c1.449 0 2.715.273 3.621.725.907.455 1.813 1.361 2.629 2.719l19.833 32.332v-35.321c1.54-.274 2.714-.365 3.439-.365 4.44 0 6.614 1.996 6.614 5.977v45.645zm-64.391 0l-4.346-12.59h-17.75l-4.26 12.59H98.04l17.842-50.626c1.63-.724 3.712-1.088 6.158-1.088 3.804 0 6.159 1.63 7.243 4.8l16.485 46.914zm-13.132-42.113l-6.974 21.823h13.765zm-52.075-.726h-16.03c-.18-.906-.273-1.903-.273-3.079 0-1.721.547-2.988 1.722-3.985 1.175-.999 2.715-1.54 4.801-1.54h36.046a19.82 19.82 0 01.27 3.261c0 1.631-.542 2.897-1.626 3.895-1.089.906-2.628 1.449-4.619 1.449H80.2v42.837H69.605zM13.27 499.301c2.263 1.813 4.436 3.08 6.431 3.804 1.991.724 4.073 1.18 6.245 1.18 2.629 0 4.71-.638 6.25-1.813 1.54-1.18 2.355-2.897 2.355-5.074-.089-1.808-.542-3.166-1.449-4.254-.906-1.089-2.172-1.905-3.62-2.629a35.471 35.471 0 00-4.984-1.9c-1.63-.542-3.257-1.088-4.888-1.812-1.63-.724-3.17-1.54-4.527-2.624-1.362-1.088-2.447-2.446-3.262-4.168-.816-1.722-1.267-3.803-1.267-6.25 0-3.079.812-5.794 2.35-8.057 1.632-2.264 3.81-3.986 6.524-5.166 2.806-1.175 5.885-1.808 9.329-1.808 2.623 0 5.252.36 7.789.998 2.533.724 4.345 1.54 5.612 2.441 1.448.815 2.177 1.995 2.177 3.444 0 .633-.273 1.54-.815 2.537a10.171 10.171 0 01-2.263 2.988c-1.631-1.27-3.444-2.355-5.435-3.079-2.086-.816-4.076-1.18-5.98-1.18-2.533 0-4.528.542-5.977 1.54-1.448.998-2.264 2.446-2.264 4.35 0 .993.273 1.899.724 2.714.456.815 1.271 1.631 2.446 2.264 1.09.725 3.262 1.631 6.25 2.72 1.63.632 3.261 1.266 4.979 1.99 1.722.725 3.261 1.63 4.619 2.715 1.362 1.089 2.537 2.446 3.352 4.168.907 1.63 1.267 3.713 1.267 6.25 0 5.252-1.717 9.328-5.16 12.317-3.44 2.987-8.15 4.436-14.04 4.436-2.714 0-5.343-.273-7.784-.815a24.192 24.192 0 01-6.159-2.264c-1.453-.997-2.177-2.081-2.177-3.352 0-1.449 1.18-3.712 3.352-6.61" fill="#050505"/>
</svg>
