<svg version="1.1" xmlns="http://www.w3.org/2000/svg" viewBox="0 0 550 600">
  <path d="M427.78 576.8c2.268 1.813 4.446 3.084 6.44 3.808 1.996.729 4.082 1.18 6.26 1.18 2.628 0 4.714-.633 6.258-1.813 1.54-1.18 2.355-2.901 2.355-5.079-.09-1.812-.542-3.174-1.448-4.263-.907-1.088-2.178-1.904-3.63-2.633a36.088 36.088 0 00-4.988-1.904c-1.631-.542-3.266-1.088-4.897-1.813-1.636-.724-3.175-1.54-4.537-2.628-1.362-1.089-2.446-2.45-3.266-4.173-.815-1.726-1.267-3.812-1.267-6.258 0-3.084.816-5.808 2.355-8.077 1.635-2.264 3.813-3.99 6.532-5.17 2.81-1.18 5.895-1.812 9.343-1.812 2.632 0 5.26.364 7.802.998 2.538.724 4.35 1.544 5.621 2.45 1.453.816 2.178 1.996 2.178 3.444 0 .638-.274 1.544-.816 2.542a10.089 10.089 0 01-2.269 2.992c-1.63-1.27-3.448-2.36-5.443-3.083-2.086-.817-4.081-1.18-5.985-1.18-2.542 0-4.537.545-5.986 1.544-1.453.998-2.268 2.446-2.268 4.354 0 .998.274 1.904.724 2.72.456.816 1.27 1.63 2.45 2.268 1.09.725 3.267 1.63 6.26 2.72 1.63.632 3.265 1.27 4.987 1.994a19.467 19.467 0 014.628 2.724c1.358 1.089 2.538 2.446 3.353 4.173.912 1.63 1.27 3.717 1.27 6.259 0 5.26-1.721 9.342-5.17 12.335-3.448 2.992-8.162 4.44-14.056 4.44-2.724 0-5.353-.27-7.803-.814a24.103 24.103 0 01-6.168-2.269c-1.453-.998-2.177-2.086-2.177-3.352.09-1.453 1.18-3.722 3.357-6.623m-46.804-.001c2.268 1.813 4.446 3.084 6.44 3.808 1.996.728 4.082 1.18 6.26 1.18 2.628 0 4.714-.633 6.258-1.813 1.54-1.18 2.355-2.901 2.355-5.079-.09-1.813-.542-3.175-1.448-4.263-.907-1.089-2.178-1.904-3.63-2.633a36.088 36.088 0 00-4.988-1.904c-1.631-.543-3.266-1.089-4.897-1.813-1.636-.725-3.175-1.54-4.537-2.629-1.362-1.088-2.446-2.45-3.266-4.172-.815-1.726-1.267-3.813-1.267-6.259 0-3.084.816-5.807 2.355-8.076 1.635-2.264 3.813-3.99 6.532-5.17 2.81-1.18 5.895-1.813 9.343-1.813 2.632 0 5.26.364 7.803.998 2.537.725 4.35 1.544 5.62 2.451 1.453.816 2.178 1.995 2.178 3.444 0 .637-.274 1.544-.816 2.541a10.09 10.09 0 01-2.269 2.993c-1.63-1.27-3.448-2.36-5.443-3.084-2.086-.816-4.081-1.18-5.985-1.18-2.542 0-4.537.546-5.986 1.544-1.453.998-2.268 2.446-2.268 4.355 0 .998.274 1.904.724 2.72.456.815 1.27 1.63 2.45 2.268 1.09.724 3.267 1.63 6.26 2.719 1.63.633 3.266 1.27 4.987 1.995a19.47 19.47 0 014.628 2.724c1.358 1.089 2.538 2.446 3.353 4.173.912 1.63 1.27 3.717 1.27 6.258 0 5.261-1.721 9.343-5.17 12.335-3.448 2.993-8.162 4.441-14.056 4.441-2.724 0-5.352-.27-7.803-.814a24.102 24.102 0 01-6.168-2.27c-1.453-.997-2.177-2.085-2.177-3.351.09-1.453 1.18-3.722 3.357-6.624m-19.954 3.718c2.086 0 3.63.456 4.714 1.453 1.089.907 1.636 2.264 1.636 3.99v1.45c0 .363-.091.819-.091 1.27h-33.29v-51.426h32.019c.182.724.273 1.721.273 2.81 0 1.904-.455 3.357-1.544 4.173-.998.814-2.72 1.27-4.988 1.27h-15.146v12.695h16.325v8.254h-16.325V580.7h16.416zm-46.079 8.163h-8.892l-21.855-33.83v33.83h-10.07v-51.34a23.94 23.94 0 014.718-.45c1.449 0 2.72.27 3.626.724.907.456 1.813 1.362 2.633 2.72l19.865 32.382V537.34c1.54-.27 2.72-.36 3.443-.36 4.446 0 6.624 1.995 6.624 5.985zm-70.298-51.429c1.63-.273 2.902-.364 3.717-.364 4.537 0 6.805 1.995 6.805 5.99v45.806h-10.522zM197.658 576.8c2.268 1.813 4.446 3.084 6.441 3.809 1.995.728 4.082 1.18 6.259 1.18 2.628 0 4.714-.633 6.258-1.813 1.54-1.18 2.356-2.902 2.356-5.08-.09-1.812-.543-3.174-1.449-4.263-.907-1.088-2.177-1.904-3.63-2.633a36.088 36.088 0 00-4.988-1.904c-1.631-.542-3.266-1.088-4.897-1.812-1.636-.725-3.175-1.54-4.537-2.629-1.362-1.088-2.446-2.45-3.266-4.172-.815-1.727-1.267-3.813-1.267-6.259 0-3.084.816-5.808 2.355-8.076 1.635-2.264 3.813-3.99 6.532-5.17 2.81-1.18 5.894-1.813 9.343-1.813 2.632 0 5.26.364 7.802.998 2.538.724 4.35 1.544 5.621 2.45 1.453.817 2.178 1.996 2.178 3.444 0 .638-.274 1.545-.816 2.542a10.089 10.089 0 01-2.269 2.993c-1.63-1.27-3.448-2.36-5.443-3.084-2.086-.816-4.081-1.18-5.985-1.18-2.542 0-4.537.546-5.986 1.544-1.453.998-2.268 2.446-2.268 4.354 0 .999.274 1.905.724 2.72.456.816 1.27 1.63 2.45 2.268 1.09.725 3.267 1.631 6.26 2.72 1.63.632 3.266 1.27 4.987 1.995a19.47 19.47 0 014.628 2.724c1.358 1.088 2.538 2.446 3.353 4.172.912 1.63 1.27 3.717 1.27 6.259 0 5.261-1.721 9.343-5.17 12.335-3.448 2.993-8.162 4.44-14.056 4.44-2.724 0-5.352-.27-7.803-.814a24.167 24.167 0 01-6.168-2.268c-1.453-.998-2.177-2.086-2.177-3.353 0-1.453 1.088-3.721 3.357-6.623m-17.233-8.89c0 2.268-.091 4.354-.274 6.259-.273 3.357-1.27 6.167-2.992 8.527-1.631 2.36-3.9 4.172-6.801 5.352-2.815 1.18-6.168 1.813-10.071 1.813-6.077 0-10.61-1.27-13.784-3.808-3.088-2.542-4.992-6.624-5.717-12.157-.182-1.631-.273-3.627-.273-5.895v-30.66c1.635-.27 2.906-.36 3.721-.36 4.532 0 6.801 1.995 6.801 5.985v25.76c0 3.083.274 5.443.906 7.164.638 1.727 1.636 2.906 2.998 3.813 1.357.815 3.261 1.267 5.53 1.267 3.266 0 5.625-.907 7.074-2.72 1.544-1.813 2.268-4.806 2.268-8.795v-31.931c1.635-.274 2.902-.36 3.721-.36 4.533 0 6.801 1.995 6.801 5.985zm-54.422 5.714c0 5.261-1.63 9.07-4.988 11.43-3.357 2.45-8.8 3.63-16.326 3.63H89.173v-51.16c5.443-.546 10.163-.82 14.153-.82 7.074 0 12.244 1.002 15.42 3.089 3.265 2.086 4.805 5.439 4.805 10.067 0 1.904-.36 3.626-.998 5.17-.633 1.54-1.631 2.902-2.81 3.99a12.247 12.247 0 01-3.991 2.45c6.8 1.814 10.249 5.895 10.249 12.154m-13.15-23.131c0-2.177-.728-3.808-2.269-4.806-1.453-.996-3.808-1.544-6.983-1.544-.998 0-1.726 0-2.36.09-.637.088-1.088.088-1.543.18v14.33h5.079c2.45 0 4.445-.724 5.898-2.268 1.45-1.63 2.178-3.535 2.178-5.986m-8.892 30.57c4.172 0 7.074-.639 8.71-1.814 1.63-1.18 2.537-3.174 2.537-5.99 0-5.078-3.262-7.615-9.885-7.615h-5.626v15.419zm423.42-77.644c2.086 0 3.63.456 4.72 1.454 1.084.906 1.63 2.263 1.63 3.99v1.448c0 .364-.09.82-.09 1.27h-33.29v-51.425h32.019c.182.724.274 1.721.274 2.81 0 1.904-.456 3.357-1.545 4.173-.998.814-2.719 1.27-4.987 1.27h-15.146V481.1h16.325v8.254h-16.325v14.244h16.416zm-60.045-.362h14.968c4.173 0 6.259 1.813 6.259 5.443 0 1.813-.09 2.902-.182 3.084H456.72v-51.433c1.635-.274 2.901-.36 3.721-.36 2.264 0 3.99.542 5.17 1.539 1.175.997 1.722 2.542 1.722 4.446zm-25.67-6.531c0 5.261-1.63 9.07-4.988 11.429-3.357 2.45-8.8 3.63-16.33 3.63h-15.51v-51.159c5.443-.546 10.162-.82 14.153-.82 7.074 0 12.244 1.002 15.42 3.089 3.265 2.086 4.805 5.438 4.805 10.067 0 1.904-.36 3.626-.998 5.17-.633 1.54-1.63 2.901-2.81 3.99a12.25 12.25 0 01-3.99 2.45c6.89 1.814 10.248 5.895 10.248 12.154m-13.15-23.131c0-2.178-.728-3.809-2.268-4.806-1.453-.997-3.813-1.544-6.983-1.544-1.002 0-1.727 0-2.36.089-.638.088-1.088.088-1.544.18v14.33h5.08c2.45 0 4.445-.724 5.898-2.268 1.448-1.63 2.177-3.535 2.177-5.985m-8.8 30.569c4.172 0 7.074-.638 8.71-1.813 1.63-1.18 2.536-3.175 2.536-5.99 0-5.079-3.266-7.616-9.884-7.616h-5.717v15.42zm-44.262-43.811c1.63-.273 2.901-.364 3.717-.364 4.537 0 6.805 1.995 6.805 5.99v45.806h-10.522zm-46.985 39.547c2.268 1.813 4.445 3.084 6.44 3.808 1.996.73 4.082 1.18 6.26 1.18 2.628 0 4.714-.633 6.258-1.813 1.54-1.18 2.355-2.901 2.355-5.079-.09-1.813-.542-3.174-1.448-4.263-.907-1.089-2.178-1.904-3.63-2.633a36.094 36.094 0 00-4.989-1.904c-1.63-.542-3.266-1.089-4.897-1.813-1.635-.724-3.174-1.54-4.536-2.628-1.363-1.089-2.447-2.45-3.267-4.173-.814-1.726-1.266-3.812-1.266-6.258 0-3.084.815-5.808 2.355-8.077 1.635-2.264 3.812-3.99 6.532-5.17 2.81-1.18 5.894-1.813 9.342-1.813 2.633 0 5.262.365 7.803.998 2.537.725 4.35 1.545 5.621 2.451 1.453.816 2.177 1.995 2.177 3.444 0 .638-.273 1.544-.816 2.542a10.089 10.089 0 01-2.268 2.992c-1.63-1.27-3.448-2.36-5.443-3.084-2.086-.814-4.082-1.18-5.986-1.18-2.541 0-4.536.546-5.985 1.545-1.453.997-2.268 2.446-2.268 4.354 0 .998.273 1.904.724 2.72.456.814 1.27 1.63 2.45 2.268 1.09.724 3.267 1.63 6.26 2.72 1.63.632 3.265 1.27 4.987 1.994a19.471 19.471 0 014.628 2.724c1.358 1.089 2.537 2.446 3.353 4.173.911 1.63 1.27 3.717 1.27 6.258 0 5.262-1.722 9.343-5.17 12.335-3.448 2.993-8.162 4.441-14.057 4.441-2.724 0-5.352-.27-7.802-.814a24.103 24.103 0 01-6.168-2.269c-1.453-.998-2.177-2.086-2.177-3.352 0-1.453 1.088-3.722 3.357-6.623m-17.777 11.88h-8.887l-21.86-33.83v33.83H269.87v-51.34a23.96 23.96 0 014.719-.45c1.448 0 2.72.27 3.626.725.906.455 1.812 1.361 2.632 2.719l19.865 32.382v-35.376c1.54-.27 2.72-.36 3.444-.36 4.446 0 6.623 1.995 6.623 5.985zm-56.51-25.94c0 8.527-1.994 15.146-6.076 19.956-4.081 4.805-9.89 7.256-17.414 7.256-4.992 0-9.165-1.089-12.609-3.266-3.448-2.177-5.99-5.352-7.803-9.434-1.722-4.081-2.628-8.887-2.628-14.33s.997-10.158 2.901-14.244c1.905-4.081 4.715-7.165 8.254-9.251s7.712-3.175 12.517-3.175c7.348 0 12.973 2.36 16.963 6.988 3.9 4.532 5.894 11.064 5.894 19.5m-10.887.088c0-5.808-.998-10.34-3.083-13.515-2.087-3.174-5.08-4.719-9.07-4.719-4.172 0-7.256 1.545-9.433 4.72-2.178 3.174-3.266 7.62-3.266 13.514s1.088 10.522 3.266 13.788c2.177 3.267 5.261 4.989 9.251 4.989 3.995 0 7.079-1.636 9.165-4.897 2.173-3.358 3.17-7.985 3.17-13.88m-46.71-10.52c0 5.803-1.813 10.34-5.444 13.333-3.625 3.083-8.795 4.628-15.51 4.628h-3.717v18.32h-10.522v-51.158c4.446-.543 8.979-.725 13.606-.725 7.257 0 12.7 1.27 16.325 3.809 3.54 2.632 5.262 6.531 5.262 11.793m-10.704.542c0-2.901-.815-4.988-2.538-6.528-1.726-1.453-4.081-2.177-7.256-2.177-1.635 0-2.992.09-4.172.274v18.412h2.537c4.081 0 6.987-.816 8.8-2.36 1.722-1.63 2.629-4.172 2.629-7.62m-71.565 23.946c2.268 1.813 4.445 3.084 6.44 3.809 1.995.73 4.082 1.18 6.26 1.18 2.627 0 4.714-.633 6.258-1.813 1.54-1.18 2.36-2.902 2.36-5.079-.09-1.813-.547-3.175-1.454-4.264-.906-1.088-2.177-1.904-3.63-2.633a36.088 36.088 0 00-4.988-1.904c-1.63-.542-3.266-1.088-4.897-1.812-1.63-.725-3.175-1.54-4.537-2.629-1.357-1.088-2.446-2.45-3.266-4.172-.815-1.726-1.266-3.813-1.266-6.259 0-3.084.814-5.808 2.355-8.076 1.635-2.264 3.812-3.99 6.532-5.17 2.81-1.18 5.894-1.813 9.342-1.813 2.633 0 5.261.364 7.803.998 2.537.725 4.35 1.544 5.621 2.45 1.453.817 2.177 1.996 2.177 3.444 0 .638-.273 1.545-.816 2.542a10.087 10.087 0 01-2.268 2.993c-1.63-1.27-3.448-2.36-5.443-3.084-2.087-.815-4.082-1.18-5.986-1.18-2.537 0-4.537.546-5.985 1.544-1.453.998-2.269 2.446-2.269 4.355 0 .998.274 1.904.725 2.719.456.815 1.27 1.631 2.45 2.268 1.089.725 3.267 1.631 6.26 2.72 1.63.632 3.265 1.27 4.987 1.995s3.266 1.635 4.628 2.724c1.357 1.088 2.537 2.446 3.353 4.172.911 1.631 1.27 3.717 1.27 6.26 0 5.26-1.722 9.342-5.17 12.334-3.444 2.993-8.162 4.441-14.057 4.441-2.724 0-5.352-.27-7.803-.814a24.232 24.232 0 01-6.167-2.27c-1.453-.997-2.178-2.085-2.178-3.352.09-1.453 1.18-3.721 3.358-6.623m-19.954 3.718c2.086 0 3.63.456 4.718 1.453 1.085.907 1.631 2.264 1.631 3.99v1.45c0 .363-.09.82-.09 1.27h-33.29v-51.426h32.018c.182.724.274 1.722.274 2.81 0 1.904-.456 3.357-1.544 4.173-.998.815-2.72 1.27-4.988 1.27H77.94v12.695h16.325v8.254H77.94v14.244h16.416zm-42.994-28.572c0 3.63-.816 6.801-2.542 9.343-1.722 2.628-4.082 4.446-7.165 5.626l12.7 21.222c-1.995.906-4.081 1.27-6.168 1.27-1.904 0-3.448-.456-4.805-1.27-1.271-.817-2.451-2.178-3.54-3.99l-8.8-14.878h-4.26v19.323h-10.52v-51.159c4.44-.546 8.978-.724 13.606-.724 7.347 0 12.695 1.267 16.234 3.717 3.539 2.45 5.26 6.35 5.26 11.52m-11.063.998c0-2.993-.728-5.17-2.269-6.623-1.544-1.448-3.899-2.177-7.165-2.177-.906 0-1.726 0-2.36.092-.632.089-1.27.089-1.721.18v17.78h3.626c3.175 0 5.625-.816 7.347-2.36 1.631-1.63 2.542-3.99 2.542-6.891M196.78 179.83c2.81-4.446 4.263-10.704 4.263-18.776 0-7.89-1.361-14.057-4.172-18.23-2.724-4.172-6.714-6.259-11.976-6.259-5.439 0-9.702 2.087-12.517 6.259-2.901 4.26-4.35 10.34-4.35 18.23 0 7.98 1.449 14.239 4.35 18.685 2.815 4.355 6.988 6.623 12.248 6.623 5.348 0 9.434-2.177 12.153-6.532m182.13 46.53c-7.256 0-13.15 5.99-13.15 13.246 0 7.347 5.894 13.242 13.15 13.242s13.15-5.985 13.15-13.242c.091-7.256-5.803-13.246-13.15-13.246m7.707 21.951c-.36.181-.724.274-1.084.364-.364.09-.728.09-1.18.09-.73 0-1.362-.182-1.904-.547-.456-.27-.912-.816-1.362-1.54l-2.81-4.9h-.73v6.622h-4.532v-18.32h.36c.817-.09 1.636-.182 2.451-.182.816 0 1.54-.089 2.269-.089 2.628 0 4.532.456 5.803 1.362 1.27.907 1.904 2.355 1.904 4.264a7.43 7.43 0 01-.268 2.086 6.842 6.842 0 01-.82 1.63c-.36.456-.725.817-1.18 1.18-.269.182-.543.365-.817.543l4.355 7.257zm-13.875-111.74c-5.443 0-9.706 2.086-12.517 6.259-2.901 4.259-4.354 10.34-4.354 18.23 0 7.98 1.453 14.239 4.354 18.685 2.811 4.355 6.892 6.623 12.244 6.623 5.262 0 9.343-2.177 12.158-6.532 2.81-4.446 4.26-10.704 4.26-18.776 0-7.89-1.358-14.057-4.173-18.23-2.81-4.172-6.801-6.259-11.971-6.259m-75.47-126.44c-69.93 0-114.65 21.41-138.42 37.28-24.58 16.507-68.207 60.683-76.461 132.52-6.532 56.686 12.153 115.65 55.6 159.19 41.365 41.36 93.064 56.778 137.06 56.778 53.606 0 107.57-21.678 141.14-60.226 33.562-38.55 50.702-87.075 50.702-155.83V10.223h-169.62zm-13.242 115.47l.364-.092c2.268-.36 3.99-.542 5.079-.542 6.532 0 9.793 2.902 9.793 8.705v21.951c.09-.27.183-.542.365-.815.632-1.453 1.721-3.175 3.175-4.988l14.33-18.958c1.544-1.995 3.175-3.539 4.81-4.445 1.63-.907 3.443-1.449 5.53-1.449 1.726 0 3.357.27 4.9.907a10.198 10.198 0 013.9 2.45l.273.27-23.222 31.203 26.214 35.738-.455.273c-2.81 1.63-5.621 2.538-8.527 2.538-4.806 0-8.705-1.905-11.606-5.713l-15.424-20.046c-1.996-2.633-3.444-5.17-4.35-7.621v32.2h-15.241v-71.565zm-55.69-.18h44.536l.09.363c.183 1.089.361 2.451.361 3.99 0 2.811-.724 4.806-2.177 6.077-1.449 1.18-3.808 1.818-7.165 1.818H243.76v16.508h22.22v12.153h-22.22v18.594h21.95c2.902 0 5.17.724 6.71 2.086 1.636 1.362 2.451 3.357 2.451 5.894 0 .82 0 1.453-.09 2 0 .542-.092 1.085-.183 1.722v.364h-46.257zm-72.384 55.603c-2.45-5.625-3.626-12.335-3.626-19.956 0-7.53 1.357-14.148 3.99-19.774 2.629-5.625 6.528-9.975 11.43-12.882 4.896-2.901 10.703-4.35 17.322-4.35 10.067 0 17.961 3.261 23.495 9.794 5.44 6.44 8.254 15.6 8.254 27.212 0 11.702-2.815 21.045-8.436 27.754-5.626 6.714-13.697 10.072-24.128 10.072-6.8 0-12.7-1.545-17.414-4.628-4.81-3.175-8.436-7.53-10.887-13.242m80.184 51.426c-1.54 1.362-3.808 2.086-6.623 2.086h-12.786v58.87h-15.419v-58.87h-21.86l-.091-.36c-.182-1.27-.364-2.724-.364-4.264 0-2.45.906-4.446 2.542-5.894 1.721-1.453 3.99-2.177 6.8-2.177h49.704l.09.36c.183 1.453.274 2.993.274 4.628.09 2.36-.724 4.263-2.268 5.62m56.328 58.779c0 .542-.09 1.088-.182 1.721v.365h-46.257v-71.657h44.535l.09.36c.182 1.088.36 2.45.36 3.995 0 2.81-.724 4.805-2.173 6.076-1.453 1.18-3.813 1.813-7.17 1.813h-20.225v16.508h22.22v12.157h-22.22v18.594h21.951c2.902 0 5.17.724 6.71 2.086 1.635 1.358 2.45 3.353 2.45 5.895 0 .906 0 1.544-.09 2.086m64.854 1.721c-2.992 1.09-5.807 1.636-8.436 1.636-2.542 0-4.628-.546-6.259-1.453-1.635-.998-3.174-2.72-4.628-5.17l-10.43-17.414-13.15 22.858h-16.781l21.043-35.738-18.594-33.74.451-.181c8.983-3.99 15.06-2.902 18.143 3.083l9.794 18.412 9.98-17.232c1.449-2.45 2.902-4.172 4.355-5.079 1.54-.998 3.444-1.453 5.712-1.453 2.542 0 5.17.725 7.894 2.178l.45.18-19.592 33.38 20.59 35.558zm21.586-35.01c-10.067 0-18.143-8.253-18.143-18.32 0-10.07 8.168-18.325 18.143-18.325 10.067 0 18.23 8.254 18.23 18.325 0 10.067-8.162 18.32-18.23 18.32m17.141-69.21c-5.62 6.713-13.693 10.07-24.124 10.07-6.805 0-12.7-1.544-17.419-4.628-4.714-3.083-8.345-7.53-10.79-13.15-2.451-5.625-3.631-12.335-3.631-19.956 0-7.53 1.362-14.148 3.99-19.774 2.724-5.625 6.532-9.975 11.43-12.882 4.9-2.901 10.703-4.35 17.327-4.35 10.067 0 17.961 3.261 23.491 9.794 5.443 6.44 8.254 15.6 8.254 27.212-.09 11.702-2.902 20.953-8.527 27.663m-17.596 44.63h-.907v5.17h.729c.906 0 1.63-.18 2.172-.637.456-.45.729-1.088.729-2.086 0-.907-.274-1.631-.729-1.995-.36-.273-.998-.45-1.995-.45" fill="#050505"/>
</svg>
