<svg version="1.0" xmlns="http://www.w3.org/2000/svg" preserveAspectRatio="xMidYMid meet" viewBox="0 0 268 300">
  <g fill="#fff">
    <path d="M68.3 298.5c-3-2.1-4.3-7.4-4.3-17.3v-8.3l2.8.3 2.7.3.3 9.4c.1 5.2.8 10.1 1.4 10.8.6.7 2.4 1.3 3.9 1.3 3.9 0 4.9-2.8 4.9-13.6 0-8.3.1-8.5 2.3-8.2 2.1.3 2.2.8 2.5 10.6.3 10.2.3 10.3-2.7 13.2-2.4 2.4-3.8 3-7.3 3-2.4 0-5.3-.7-6.5-1.5zm25.8-.2c-1.4-1.2-1.8-2.2-1.2-3.2.7-1.1 1.5-1.1 4.5 0 4.2 1.5 6.9.5 7.4-2.9.3-1.7-.8-2.6-5.5-4.9-5.4-2.6-5.8-3-6.1-6.6-.4-4.7 1.7-7.4 6.4-8.3 4.4-.8 10.6 1.3 10.2 3.4-.4 1.8-1.5 1.9-5.9.7-3-.7-6.2 1.6-5.3 3.9.3.8 2.8 2.3 5.5 3.4 7.4 3.1 8.9 9.7 3.2 14.2-3.3 2.6-10.3 2.7-13.2.3zm95.1.5c-1.3-.6-2.1-1.8-2-2.7.4-1.6 2.1-1.8 6.8-.6 3.3.8 6.5-1.5 5.6-4.1-.3-1-3-3-5.8-4.4-5-2.4-5.3-2.7-5.6-6.6-.2-3.1.2-4.5 1.9-6 2.8-2.5 11.1-2.7 13.6-.2 2.5 2.6.6 4.1-3.4 2.7-2.3-.7-3.7-.7-5.2.1-3.5 1.8-2.4 3.9 3.7 6.8 5.6 2.7 5.7 2.8 6 7.3.3 4.1-.1 5-2.4 6.8-3 2.3-9.3 2.7-13.2.9zm23.9-.5c-1.4-1.2-1.8-2.3-1.2-3.1.7-1.1 1.6-1.1 4.9-.1 3.3 1 4.4.9 5.7-.1 3-2.5 1.8-4.9-4-7.4-5.8-2.6-7.3-5.2-6.1-10.1.7-2.6 5.1-5.5 8.4-5.5 4 0 8.2 2.2 8.2 4.2 0 1.7-.4 1.9-2.7 1.2-4-1.1-7.4-.8-8.3.7-1.4 2.1 0 3.7 4.7 5.5 2.5 1 5.2 2.8 6 4 2 3.1.9 7.8-2.4 10.4-3.3 2.6-10.2 2.7-13.2.3zM38 286.1v-12.8l3.8-.6c3.5-.6 9.8.3 12 1.7 2 1.2 2.3 5.7.7 8.3-1.6 2.4-1.6 2.6.4 4.4 2.8 2.6 2.6 6.4-.4 9.4-2.1 2.2-3.3 2.5-9.5 2.5h-7v-12.9zm12.8 5.7c.3-2.3-.2-3-2.4-3.8-4-1.5-5.4-.6-5.4 3.5 0 3.6.1 3.6 3.8 3.3 3.2-.3 3.7-.7 4-3zm-2-9c1.8-1.8 1.4-4.6-.9-5.8-3.2-1.7-4.9-.5-4.9 3.5 0 3 .3 3.5 2.3 3.5 1.3 0 2.8-.5 3.5-1.2zm69.2 3.1v-13l2.8.3 2.7.3.3 12.8.3 12.7H118v-13.1zm16 .1c0-12.8 0-13 2.3-13 1.7 0 3.3 1.8 7.1 8 2.7 4.4 5.3 8.3 5.7 8.6.5.3.9-3.4.9-8.1 0-8.4.1-8.6 2.3-8.3 2.1.3 2.2.7 2.5 13.1l.3 12.7h-2.6c-2.1 0-3.5-1.4-7.8-8.1l-5.2-8-.3 8c-.3 7.9-.4 8.1-2.7 8.1H134v-13zm31 0v-13h8.1c7.1 0 8 .2 7.7 1.8-.2 1.3-1.5 1.8-5.6 2l-5.3.3.3 3.2c.3 3 .6 3.2 4.6 3.5 3.4.3 4.3.7 4 2-.2 1.2-1.5 1.8-4.6 2-4.1.3-4.2.4-4.2 3.8v3.4h4.8c4.4 0 7.2 1.2 7.2 3.2 0 .4-3.8.8-8.5.8H165v-13zM14.4 259.2c-.6-.4-2.3-2.6-3.7-4.9-3.9-6.1-4.7-6.2-4.7-.4 0 5-.1 5.1-3 5.1H0v-26h7c5.7 0 7.4.4 9 2 2.6 2.6 2.6 8-.1 11.4l-2.1 2.6 2.6 4.4c1.4 2.5 2.6 4.9 2.6 5.5 0 1.2-2.9 1.4-4.6.3zM11 244c1.1-1.1 2-2.4 2-3 0-1.5-3.8-5-5.5-5-1.1 0-1.5 1.2-1.5 5 0 5.6 1.5 6.5 5 3zm40.2 14.9c-3.2-1.2-2.5-4.5.8-4.1 6.5.8 8.3.6 9.3-1 1.4-2.2-1.3-5.4-5.3-6.3-6.1-1.3-8.4-8.5-4.2-12.7 3.7-3.8 16.2-2.4 14.9 1.6-.2.6-2.7 1.1-5.8 1.1-4.7 0-5.4.2-5.4 2 0 1.4 1.5 2.7 5 4.3 5.9 2.8 6.5 3.6 6.5 8.4 0 2.8-.6 4.2-2.6 5.7-2.9 2.3-9 2.7-13.2 1zm53.6-.4c-5.7-3.1-7.4-15.5-3-21.4 4.7-6.4 15.3-6.3 19.2.2 2.7 4.4 2.7 13.1 0 17.5-3.1 5.1-10.4 6.8-16.2 3.7zm9.2-3.5c4.3-2.3 4.6-15.8.4-17.4-3.1-1.2-6.3-.6-7.8 1.6-2.3 3.3-2.1 10.9.5 14.2 2.2 2.8 3.9 3.2 6.9 1.6zm48.2 4c-3.2-1.4-2.5-4.6.8-4.1 5.5.9 8.3.5 9.3-1.1 1.4-2.2-1.3-5.4-5.4-6.3-3.2-.7-6.9-4.8-6.9-7.6 0-1 1.1-3.1 2.4-4.6 2.1-2.4 3.1-2.8 7.4-2.7 5.1 0 8.6 1.8 7.9 3.8-.2.6-2.7 1.1-5.8 1.1-4.7 0-5.4.2-5.4 2 0 1.3 1.3 2.6 4 3.8 5.8 2.8 7.5 4.6 7.5 8.2 0 5.1-2.8 7.7-8.6 8.1-2.7.2-5.9-.1-7.2-.6zM27 246v-13h8.1c7.1 0 8 .2 7.7 1.8-.2 1.3-1.5 1.8-5.6 2l-5.2.3v3.5c0 3.3.1 3.4 4 3.4 3.3 0 4 .3 4 2s-.7 2-4 2c-3.9 0-4 .1-4 3.5v3.5h4.8c4.4 0 7.2 1.2 7.2 3.2 0 .4-3.8.8-8.5.8H27v-13zm48 0v-13h7c5.7 0 7.4.4 9 2 2 2 2.7 7.1 1.4 10.5-.8 2-5.6 4.5-8.9 4.5-2.3 0-2.5.3-2.5 4.5 0 4.3-.1 4.5-3 4.5h-3v-13zm11.4-1.6c2.2-2.2 2-5-.6-6.8-3.8-2.7-4.8-2-4.8 3.4 0 4.3.3 5 1.9 5 1.1 0 2.7-.7 3.5-1.6zm44.6 1.5v-13l2.7.3c2.3.2 3.7 1.8 7.8 8.5l5 8.3.3-8.5c.3-8.2.4-8.5 2.6-8.5 3.2 0 3.6 1.4 3.6 14.6V259h-2.8c-2.3 0-3.5-1.2-7.9-8.2l-5.3-8.3V259h-6v-13.1zm55 .1v-13h5v26h-5v-13zm15 0v-13h6.8c8 0 11.2 1.7 11.2 5.9 0 1.5-.6 3.6-1.4 4.6-1.2 1.7-1.2 2.1.5 3.3 1.3.9 1.9 2.5 1.9 5.2 0 5.5-2.5 7-11.7 7H201v-13zm11.7 9c1.8 0 2.6-3.9 1.3-5.5-.7-.8-2.5-1.5-4.1-1.5-2.7 0-2.9.2-2.9 4.1 0 3.8.2 4.1 2.3 3.5 1.2-.3 2.7-.6 3.4-.6zm-1.3-11.6c2.6-1 2.1-6-.6-6.8-3.7-.9-3.8-.8-3.8 3.4 0 4.1.9 4.7 4.4 3.4zM228 246v-13h2.4c3.2 0 3.6 1.5 3.6 12.6v9.4h4.3c4 0 6.7 1.3 6.7 3.2 0 .4-3.8.8-8.5.8H228v-13zm23 0v-13h8c7.3 0 8 .2 8 2s-.7 2-5.6 2h-5.5l.3 3.3c.3 3 .6 3.2 4.6 3.5 3.4.3 4.2.7 4.2 2.3 0 1.6-.7 1.9-4.5 1.9-4.5 0-4.5 0-4.5 3.5s0 3.5 4.4 3.5c5.4 0 7.6.8 7.6 2.6 0 1.1-1.9 1.4-8.5 1.4H251v-13zm-128.1-47c-44-5.5-78.2-37-87.1-80-2.6-12.5-2.1-33.5 1.2-45.5 6.2-22.8 22.5-45.7 40.3-56.3 13.4-8 31.4-13.9 49.2-16.1C131.9.4 155 0 184.3 0H233v51.8c0 54.8-.5 62-5 78.1-8.3 29.5-30.2 53.4-58 63.2-15 5.3-33.5 7.6-47.1 5.9zm-19.1-67.7l.3-15.3h4.2c4.6 0 6.7-1.3 6.7-4.2 0-1.7-1.2-1.8-14.5-1.8-13.5 0-14.5.1-15.5 2-1.7 3.1-.4 4 5.6 4H96v31.1l3.8-.3 3.7-.3.3-15.2zm39 13.3c.6-3.1-2.6-4.6-9.5-4.6H127v-8.9l5.8-.3c5.6-.3 5.7-.3 5.7-3.3s-.1-3-5.7-3.3l-5.8-.3v-7.8l6.6-.3c7-.3 9.4-1.8 8.1-5.2-.6-1.4-2.1-1.6-11.4-1.4l-10.8.3-.3 17.5c-.1 9.6 0 18 .3 18.7.3 1.1 3.1 1.3 11.7 1.1 10.2-.3 11.3-.5 11.6-2.2zm15.1-3.9l3.4-5.8 3.8 6c3.5 5.6 4.2 6.1 7.4 6.1 2 0 3.5-.5 3.5-1.2 0-.6-2-4.6-4.5-8.9-2.5-4.3-4.5-8.4-4.5-9.1 0-.7 2-4.7 4.5-8.8 2.5-4.1 4.5-7.8 4.5-8.1 0-.4-1-.9-2.2-1.2-3.1-.8-6.4 1.5-8.8 6.2-1.1 2.2-2.4 4.2-2.8 4.5-.5.3-2.1-1.7-3.7-4.5-3.1-5.7-6.1-7.7-9.3-6-2 1.1-2 1.3 2.4 9 2.4 4.3 4.4 8.4 4.4 9.1 0 .7-2.2 5-5 9.7-2.7 4.7-5 8.7-5 9 0 .2 1.9.3 4.2.1 4-.3 4.4-.6 7.7-6.1zm36.2-15.6c4.8-4.8 3.8-11.6-2.2-14.7-7.7-3.9-15.8 4-12.4 12.2 2.6 6.2 9.7 7.4 14.6 2.5zM96.5 95c4.9-3 7-8.1 7-17 0-12.7-5-18.5-16-18.5-6.8 0-9.9 1.5-13.9 6.8-2.2 3-3.3 13-2.2 19.2.9 4.5 5.8 10.2 10 11.5 4.3 1.3 11.2.4 15.1-2zm96.5.5c4.2-2.2 7.1-7.7 7.7-14.5 1.4-14.7-6.7-23.7-19.5-21.6-5 .8-8.3 3.4-10.9 8.6-4 7.8-2.4 21.4 3 25.9 4.9 4 13.6 4.7 19.7 1.6zm-59-.2c0-3.8-1.7-4.7-8.9-5.1l-7.1-.4V81h5.5c5.4 0 5.5 0 5.5-3s-.1-3-5.5-3H118v-9h6.3c6.5 0 8.7-1.1 8.7-4.2 0-1.6-1.1-1.8-11.5-1.8H110v37h12c10.8 0 12-.2 12-1.7zm12.8-6.1l.3-7.2 6 7.5c5.3 6.7 6.3 7.5 9.4 7.5 1.8 0 3.6-.4 3.9-.9.3-.4-2.4-4.8-5.9-9.6-3.5-4.9-6.1-9.3-5.8-9.9.5-.9 6.1-8.5 10.6-14.3 1.3-1.8-3.8-3.6-6.4-2.3-1 .6-4.1 4-6.9 7.7l-5 6.6v-5.2c0-7.4-2.5-11-6.5-9.5-1.3.5-1.5 3.6-1.5 19.1v18.4l3.8-.3 3.7-.3.3-7.3z"/>
    <path d="M185.3 125c-4.4-1.8-5.6-7.3-2.3-10.8 2.9-3.1 7.3-2.9 10 .5 4.3 5.6-1.1 12.9-7.7 10.3zm1.7-3.7c.1-1.7.1-1.7 1.1 0 .5.9 1.7 1.7 2.5 1.7 1 0 1.2-.4.7-1.2-.4-.7-.8-2.6-.8-4.3 0-2.5-.4-3-2.7-3.3-2.7-.3-2.8-.2-2.8 4.2 0 2.5.5 4.6 1 4.6.6 0 1-.8 1-1.7zM83.2 90.4c-3.8-1.7-5.7-14.9-2.9-20.4 2.8-5.6 10.9-5.8 13.8-.3 2.2 4.1 1.8 14.6-.7 18-2.1 2.7-6.9 4-10.2 2.7zm95.8-1.9c-3.3-3.5-4-13.4-1.3-18.4 3.4-6.5 11.1-6.1 14 .6 2.2 5.3 1.3 14.6-1.8 17.9-3.1 3.3-7.8 3.2-10.9-.1z"/>
  </g>
</svg>
