<svg version="1.0" xmlns="http://www.w3.org/2000/svg" preserveAspectRatio="xMidYMid meet" viewBox="0 0 1252 1199">
  <g fill="#333">
    <path d="M521.5 903.1c-9.8-2.5-10.9-5.1-11.3-27.3l-.4-17.8h3c5.7 0 6.2 1.5 6.2 17.9 0 13.5.2 15.1 2.1 17.5 2.7 3.5 8.6 3.6 11.7.3 2-2.1 2.2-3.5 2.4-18.7.3-18 .4-18.2 6.1-16.1l2.7 1.1v16.2c0 18.1-.9 21.7-6.6 25-3.4 2-11.7 3-15.9 1.9zm42.1-.2c-5-1.2-6.6-2.5-6.6-5.4 0-3.9 2.2-4.7 6.5-2.5 2.2 1.1 5.2 2 6.8 2 2.9 0 7.7-3.9 7.7-6.2 0-2.6-3-5.7-6.8-6.9-10.8-3.5-14.9-7.9-13.9-15.1 1.1-8.3 9.5-12.7 20.1-10.7 6.6 1.2 9.4 3.9 7.8 7.3l-1.1 2.5-4.7-2c-5.4-2.4-9.7-1.8-12.1 1.7-1.3 2-1.2 2.4.9 4.7 1.3 1.3 4.8 3.4 7.9 4.6 3.1 1.3 6.7 3.3 7.9 4.6 4.9 5.2 3.1 15.4-3.4 19.4-3.8 2.4-11.7 3.3-17 2zm158.9.2c-7.1-1.8-9.1-4.5-6.2-8.5 1.3-1.8 1.5-1.8 4.1-.1 4 2.6 12.3 2.6 14.2.1 1.9-2.7 1.8-6-.3-7.9-1-.8-4.5-2.5-7.7-3.8-6.9-2.5-10.1-5.6-11.1-10.5-.8-4.7 1.9-10.2 6.4-12.8 6.9-4 22.1-1.4 22.1 3.7 0 2.6-2.4 5.4-3.4 3.9-.3-.5-2.5-1.5-5-2.2-6-1.7-10.1.1-10.1 4.5 0 2.8.7 3.3 8.6 7.2 9.2 4.6 10.9 6.6 10.9 13.1 0 4.6-3 9.6-6.8 11.6-3.6 1.9-11.7 2.7-15.7 1.7zm41 .3c-7.4-1.8-9.2-3.8-7.3-7.9 1.4-3 1.4-3 6.3-.5 7.3 3.7 13.5 1.7 13.5-4.4 0-2.7-.6-3.6-3.7-5.3-2.1-1.1-5.5-2.6-7.5-3.2-10.8-3.5-12-17.9-1.9-22.7 6.3-3 19.1-1.4 21.7 2.7.3.6.1 2.2-.6 3.4-1.2 2.2-1.5 2.3-3.9 1.1-6.5-3.3-13.3-2.7-14.6 1.3-1 3.3 1.2 5.8 7.2 8.1 7.9 2.9 11.1 5.5 12.2 9.8 1.7 6-.6 12-5.9 15.5-2.6 1.7-12 2.9-15.5 2.1zm-297.3-22.5l.3-22.4 7-.3c3.9-.2 9 0 11.4.3 9.7 1.5 13.3 10.7 7 18-2.1 2.3-2.6 3.5-1.6 3.5.8 0 2.6 1.2 4.1 2.6 2.1 2.1 2.6 3.6 2.6 7.3 0 9.2-4.6 12.1-20.2 12.9l-10.8.5.2-22.4zM486 894c2.7-2.7 2.6-7.5-.2-9.4-1.2-.9-4.2-1.6-6.5-1.6H475v13h4.5c3.2 0 5.1-.6 6.5-2zm-2.2-19c2.5-2.4 2.9-7.2.7-9-.8-.6-3.2-1.4-5.5-1.7l-4-.6V877h3.3c2 0 4.2-.8 5.5-2zm116.2 5.5V858h2.9c5.8 0 6.1 1 6.1 24.1V903h-9v-22.5zm25.4 21.2c-.2-.7-.3-10.7-.2-22.2l.3-21 2.8-.3c4.1-.5 5.7 1.4 15 16.8l8.2 13.5.3-15.3.3-15.3 3.2.3c4.8.5 5.3 2.7 4.9 25.1l-.3 19.7h-3.4c-3.2 0-3.7-.6-12.9-14.7l-9.6-14.8V903h-4c-2.4 0-4.3-.5-4.6-1.3zm51.6-21.2V858h13.5c11.6 0 13.7.2 14.2 1.6 1.3 3.6-1 4.9-9.8 5.4l-8.4.5v11l6.8.3c6.7.3 6.7.3 6.7 3.2 0 2.9 0 2.9-6.7 3.2l-6.8.3-.3 6.3-.3 6.2h9c7.9 0 9.2.2 10.1 1.9 2.6 4.9 2 5.1-13.5 5.1H677v-22.5zm-250-44.8c-1.4-.7-4.5-4.7-7-8.9-6.3-10.8-8-10.6-8 .7v8.5h-9v-43.9l4.6-.7c6.1-.9 15.1.2 19.4 2.5 7.2 3.6 7.9 14.2 1.4 20.6l-3.5 3.5 5.2 8.6c2.8 4.7 4.9 8.7 4.8 8.8-1.4 1.2-5.8 1.3-7.9.3zm-6-24.7c1.3-1.3 2-3.3 2-5.8 0-4.2-1.8-6.5-5.8-7.5-4.5-1.1-5.2 0-5.2 7.9v7.4h3.5c2.2 0 4.3-.8 5.5-2zm67.8 24.4c-4-1.7-4.7-3.8-2.8-7.5 1-1.8 1.1-1.8 4.8.1 4.8 2.6 10.6 2.6 13.2 0 2.3-2.3 2.4-3 .9-6.4-.9-1.8-3.1-3.3-8-5.1-4.2-1.7-7.8-3.8-9.4-5.7-4.8-5.6-2.4-14.7 4.8-18.1 7.3-3.5 20.8-1.1 21.5 3.9.5 3.4-2 4.7-5.4 2.9-1.6-.8-4.8-1.5-7.1-1.5-3.4 0-4.6.5-5.8 2.4-2.4 3.6-.8 5.5 8.1 9.6 6.4 3 8.6 4.6 9.9 7.1 3 5.7.7 13.8-5 17.5-3.7 2.4-15 2.9-19.7.8zm91.2.5c-12-5-16.1-26.1-7.3-37.8 7.8-10.2 25.6-9.3 32.1 1.7 2.4 4.2 2.7 5.7 2.7 13.7 0 7.4-.4 9.7-2.2 13.2-3.6 6.7-8.1 9.5-16.1 9.9-3.7.2-7.8-.1-9.2-.7zm13.8-8.4c3.7-3.1 5.7-10.5 4.7-17.3-1.3-8.4-4.3-12.2-10-12.2-8.1 0-12.5 7.8-11 19.7.6 4.6 1.3 6.3 4 9 4.1 4.1 8.1 4.3 12.3.8zm80.8 8.1c-4.9-1.9-5.8-3.3-4.1-6.7l1.5-2.7 3.7 1.9c4.9 2.5 10.7 2.5 13.3-.1 1.1-1.1 2-2.6 2-3.4 0-2.8-4.1-6.4-9.9-8.5-7.4-2.7-11.1-6.7-11.1-11.9 0-4.9 3.2-10 7.5-11.8 4.7-1.9 13.2-1.8 17.5.4 3.9 1.9 4.7 3.9 2.7 6.6-1.3 1.7-1.5 1.7-4.5.2-4.8-2.5-10.8-2.1-12.7.8-.8 1.3-1.2 3.1-.9 4 .4 1 4.4 3.5 9 5.6 6.2 2.9 8.6 4.6 9.8 6.8 3 5.9 1.2 13.2-4.4 17.2-4 2.9-13.8 3.7-19.4 1.6zM447 814v-22h27v2.5c0 3.4-2.7 4.5-10.9 4.5H456v11h14v7h-14v12h7.6c8.7 0 11.4 1.1 11.4 4.5v2.5h-28v-22zm81 .1v-22l4.6-.7c5.6-.8 14.3.1 18.9 2 9.2 3.9 8.5 19.9-1 24.5-1.7.8-5.4 1.7-8.2 1.9l-5.3.4V836h-9v-21.9zm19.3-3.2c2.1-2.6 2.2-7.7.2-10.6-1.4-2-6.7-3.5-9.2-2.6-.9.4-1.3 3-1.3 8.5v8.1l4.3-.7c2.4-.4 4.9-1.5 6-2.7zm74.7 3.2c0-19 .2-22 1.6-22.5 3.9-1.5 6 .6 14.9 15l9 14.5.3-14.6.3-14.5h3.2c1.8 0 3.8.5 4.5 1.2.9.9 1.2 7.2 1.2 22V836h-7.8l-9.4-14.6-9.3-14.6-.3 14.6-.3 14.6H622v-21.9zm91.2-.3l.3-22.3 3 .2c5.2.4 5.5 1.8 5.5 24V836h-9l.2-22.2zm24.8.4v-22l6.5-.7c12.4-1.4 20.6 1.3 22.6 7.3 1.4 4.2.5 8-2.8 11.4l-2.5 2.6 2.2.7c2.8.9 6 6.2 6 10 0 3.7-3.1 8.9-6.2 10.6-1.3.7-7.4 1.5-14 1.7l-11.8.4v-22zm17.9 14.7c5.5-1.9 6.6-6.5 2.6-10.4-1.8-1.9-3.5-2.5-7-2.5H747v6.3c0 3.5.3 6.7.7 7 1 1 4.6.8 8.2-.4zm1.5-22.2c1.9-2.6 1.9-3 .6-5.4-1.6-2.8-5.7-4.5-9-3.6-1.7.5-2 1.4-2 6.5v5.9l4.2-.3c3.1-.2 4.6-1 6.2-3.1zm25.8 7.1l.3-22.3 3.4.2c1.8.1 3.8.7 4.2 1.5.5.7.9 9.1.9 18.6V829h7.4c9.4 0 10.6.5 10.6 4.1v2.9h-27l.2-22.2zm37.8.2v-22h27v2.5c0 3.4-2.7 4.5-10.9 4.5H830v11h14v7h-14v12h8.3c8.9 0 10.7.8 10.7 4.7 0 2.3-.1 2.3-14 2.3h-14v-22zm-214.5-79.2c-30.7-3.4-63.8-17.7-87.5-37.8-33-27.8-54.1-66.9-59.1-109-1.6-13.8-.6-39.3 2-52 3-14.9 7.7-28.4 14.7-42.5 10.9-22 27-42 44.2-55 16.9-12.8 46.7-25.5 71.2-30.5 22.9-4.7 28.6-4.9 116.8-5h83.3l-.4 84.8c-.4 94.1-.7 99.2-7.1 124.6-15.6 61.5-56.5 103.2-115.8 118.2-19.1 4.8-42.7 6.4-62.3 4.2zm89.9-87.9c.5-.4-3-7.5-7.8-15.8l-8.8-15.1 6.8-11.2c3.7-6.2 7.5-12.7 8.6-14.5l1.9-3.2-4-1.2c-6.6-2-9.3-.2-15.3 10.2-2.9 4.9-5.6 8.5-6 8.1-.4-.4-2.7-4.3-5-8.7-4.8-8.9-7.6-11.1-12.9-10.1-6.7 1.3-6.7 1.3 1.6 16.2 4.3 7.7 7.8 14.4 7.8 14.9 0 .6-3.9 7.5-8.7 15.5-4.7 8-8.6 14.8-8.6 15.2 0 .5 3.1.8 6.9.8h6.9l5.8-10c3.2-5.5 5.8-9.9 6-9.7.1.1 2.7 4.3 5.8 9.4 4 6.5 6.4 9.4 8.4 10.1 2.9 1 9.1.5 10.6-.9zm-120.6-24.6l.2-25.3 5.8-.1c3.1-.1 6.8-.4 8.2-.8 3.1-.8 5.3-5.1 4.4-8.6l-.6-2.5h-20.7c-11.3 0-22.3.5-24.3 1-4.2 1.2-6.1 3.8-5.6 7.8.3 2.7.3 2.7 9.6 3l9.2.3v24.8c0 13.6.3 25.1.7 25.5.4.4 3.4.6 6.8.4l6-.3.3-25.2zm65.2 21.8c0-5.8-1.6-6.5-14.9-7.1l-11.6-.5-.3-7.7-.3-7.7 9.8-.3 9.8-.3v-10l-9.7-.3-9.8-.3V596h11c9.8 0 11.2-.2 13.1-2.1 1.4-1.4 1.9-3 1.7-5.2l-.3-3.2-19.2-.3-19.3-.2v63h40v-3.9zm81.6-29.2c11.9-5.7 11.7-22.2-.2-28-5.6-2.7-11-2.2-15.8 1.5-9.6 7.3-8.1 21.7 2.8 26.7 5.3 2.4 8 2.4 13.2-.2zm-162.7-51.5c2.3-.9 5.9-3.6 8.1-6.1 5.6-6.4 7.5-12.7 7.5-24.8 0-9.4-.2-10.5-3.4-16.9-5.3-10.9-14.3-15.6-27.2-14.2-9.4.9-17.2 6.1-21.2 14.1-4.3 8.5-4.6 23.3-.8 33.6 5.3 14.1 21.7 20.4 37 14.3zm162 0c5.3-2.1 11.5-9.2 13.8-15.7 2.5-7.1 2.5-22.3 0-29.3-2.6-7.4-7.6-12.9-14.3-15.3-15.4-5.8-32 1.4-36.9 16-2.5 7.3-2.6 21.5-.2 28.5 2 5.8 7.5 12.7 11.8 14.9 7.1 3.7 17.9 4.1 25.8.9zm-42.5.6l2.6-1-11-14.9c-6-8.3-11-15.5-11-16.1 0-.5 4.3-6.9 9.6-14.1 5.3-7.1 9.5-13.1 9.3-13.3-1.6-1.4-5.3-2.6-7.7-2.6-4.2 0-7.3 2.8-16.3 14.8l-7.9 10.5v-10.6c0-12.8-1.1-14.7-8.5-14.7H634v62h13v-26l9.3 12.2c5.1 6.8 10.4 12.9 11.8 13.5 2.9 1.5 7.8 1.7 11.3.3zm-53.4-3c0-1.7-.9-3.9-2-5-1.8-1.8-3.3-2-13.5-2H599v-16h19v-11h-19v-14h10c11.8 0 14.7-1 15.6-5.6.3-1.8.3-3.7-.1-4.3-.4-.7-7.2-1.1-19.6-1.1H586v62h40v-3z"/>
    <path d="M710.5 610.8c-3.8-2-5.5-5.1-5.5-10 0-3.9.5-5.2 3.1-7.7 2.5-2.6 3.9-3.1 7.6-3.1 3.8 0 5 .5 8 3.5 3.3 3.3 3.5 3.9 3 8.2-.7 6.2-4.9 10.3-10.5 10.3-2 0-4.6-.6-5.7-1.2zm4.3-5.2l.4-2.9 1.9 3.2c1.9 3.1 4.9 4.2 4.9 1.8 0-.7-.6-2.2-1.4-3.3-1.3-1.7-1.2-2.1.2-3.7 2.4-2.7.6-6.9-3.5-8-5.6-1.6-6.3-.7-6.3 8.3 0 7.2.2 8.1 1.8 7.8 1-.2 1.8-1.4 2-3.2z"/>
    <path d="M715 598c0-1.3.5-2 1.3-1.7.6.2 1.2 1 1.2 1.7s-.6 1.5-1.2 1.8c-.8.2-1.3-.5-1.3-1.8zm-172.6-44.6c-1.7-.8-4.2-3.4-5.5-5.7-2.1-3.7-2.4-5.4-2.4-14.7 0-11.9 1.4-15.7 6.8-19 7.3-4.5 15.9-1.1 19 7.5 2.4 7 1.9 19.4-1.2 25.7-3.4 7.1-10 9.5-16.7 6.2zm164.1.9c-6.7-1.7-11.1-11.8-10.3-23.7.9-12.9 6.3-19.4 15.5-18.3 8.8 1 12.7 8.2 12.1 22.4-.4 9.6-2.4 15.4-6.3 17.9-2.6 1.7-8 2.5-11 1.7z"/>
  </g>
</svg>
