<svg version="1.0" xmlns="http://www.w3.org/2000/svg" preserveAspectRatio="xMidYMid meet" viewBox="0 0 201 251">
  <g fill="#fff">
    <path d="M68.38 200.57c-2.35-1.23-2.7-2.35-2.58-8.57l.08-4.38.9-.08c.52-.05 1 .05 1.17.25.17.2.3 2.05.35 4.88.08 4.15.13 4.6.6 5.25.43.55.75.73 1.67.77 2.58.17 2.92-.65 2.92-6.7v-4.5h.6c.35 0 .9.1 1.25.25l.65.25v4.88c0 4.78-.03 4.95-.63 5.97-.85 1.45-2.35 2.15-4.57 2.15-1.02-.03-1.98-.17-2.42-.43zm12.69.03c-1.15-.43-1.38-.77-1.15-1.85.17-.88.5-.93 1.83-.25 2.45 1.25 4.93.17 4.25-1.85-.28-.88-.73-1.17-3.35-2.2-2.6-1.02-3.47-3.3-2.08-5.45 1.08-1.6 3.7-2.15 6.38-1.38 1.42.43 1.9 1 1.5 1.75-.45.8-.73.85-1.67.35-1.75-.93-4.03-.4-4.03.93 0 .85.98 1.67 2.7 2.3 2.83 1.05 3.78 2.5 3.17 4.88-.35 1.4-.85 2-2.22 2.67-1.27.6-3.75.65-5.32.1zm48.06.03c-1.33-.47-1.65-.95-1.33-1.9.3-.85.43-.88 1.63-.22 1.48.77 3.75.6 4.38-.35.7-1.02-.32-2.7-1.8-3.03-1.1-.25-3.08-1.25-3.6-1.85-.3-.35-.52-1.02-.6-1.9-.1-1.17-.03-1.52.52-2.35 1.08-1.63 3.67-2.2 6.38-1.4 1.4.43 1.85.95 1.55 1.77-.32.82-.65.9-1.55.35-.5-.3-1.27-.5-1.98-.5-.93 0-1.25.13-1.83.73-.57.6-.65.82-.43 1.23.35.65 1.23 1.2 2.9 1.83.75.28 1.77.88 2.25 1.33.77.75.88.98.88 2.13 0 1.8-.52 2.85-1.77 3.7-.88.57-1.38.7-2.83.75-1.1.05-2.15-.05-2.78-.3zm11.94-.03c-1.15-.43-1.38-.77-1.15-1.85.17-.88.4-.93 1.7-.25 1.17.6 3.05.65 3.83.1.47-.32.57-.57.5-1.55l-.08-1.17-2.33-1c-2.58-1.1-3.4-1.83-3.65-3.25-.25-1.35.65-3.08 1.98-3.75 1.35-.68 4.35-.68 5.7-.03 1.02.5 1.23 1.3.55 2-.35.35-.5.35-1.33-.1-.9-.5-2.38-.65-3.17-.35-.2.1-.55.47-.75.85-.52 1-.05 1.5 2.72 2.83 2.65 1.27 3.15 1.88 3.15 3.72 0 1.5-.88 2.9-2.22 3.63-1.3.68-3.78.75-5.45.17zm-88.57 0c-.03-.17 0-11.6 0-12.9 0-.3 5.15-.22 6.38.08 1.63.4 2.22 1.17 2.22 2.88.03 1.27-.05 1.45-.8 2.15l-.85.73 1 .88c1.23 1.02 1.65 2.13 1.3 3.33-.65 2.3-1.67 2.8-6.05 2.97-1.77.05-3.2.03-3.2-.1zm5.82-2.13c.6-.28.68-.43.68-1.65 0-1.3-.03-1.38-.88-1.73-.47-.17-1.38-.35-2-.35h-1.13v1.95c0 1.08.08 2.05.2 2.15.22.28 2.28.03 3.13-.38zm-.22-6.32c.8-1.08.8-1.35.03-2.2-.7-.75-1.48-1.05-2.4-.9-.57.08-.6.2-.68 2.03l-.08 1.92h1.23c1.13 0 1.3-.08 1.9-.85zm34.95 1.92l.08-6.7.73.05c.4.03.93.25 1.17.47.45.4.47.82.43 6.57l-.08 6.15-1.2.08-1.17.08.05-6.7zm7.65 6.5c-.05-.13-.05-3.1 0-6.63l.08-6.45h.88c1.02 0 1.67.6 2.83 2.6 1.98 3.38 3.67 6 3.95 6.1.25.08.32-1 .38-4.38l.08-4.45.75.08c1.4.17 1.38.1 1.38 6.95v6.35h-.85c-1.05 0-1.7-.5-2.72-2.2-2.35-3.8-4.03-6.28-4.2-6.15-.13.08-.22 1.98-.22 4.25v4.1h-1.1c-.63 0-1.15-.08-1.2-.17zm15.55-6.44v-6.63l4.07.05c3.92.08 4.05.1 4.13.63.15.95-.8 1.33-3.33 1.33h-2.28l.03 1.7v1.67l2.08.08 2.05.08V195l-2.05.08-2.08.08.03 1.75.03 1.75 2.5.13c2.7.13 3.33.4 3.33 1.4v.6h-8.5v-6.63zm-75.67-13.5c-.3-.2-1.08-1.25-1.73-2.33-1.5-2.42-1.83-2.8-2.4-2.8-.4 0-.45.22-.45 2.47 0 1.38-.1 2.55-.22 2.65-.15.08-.7.08-1.25-.03l-1.02-.17v-12.86l1.73-.15c2.2-.17 4.97.2 5.78.8.88.63 1.3 1.63 1.3 3.03 0 1.42-.32 2.13-1.52 3.17-.77.68-.85.85-.6 1.25 1.38 2.08 2.58 4.28 2.58 4.75 0 .47-.13.57-.82.57-.45 0-1.05-.17-1.35-.38zm-1.83-7.35c1.25-.9 1.3-2.42.08-3.63-.55-.55-.85-.65-1.67-.6l-1.02.08-.08 2.1c-.05 1.15 0 2.28.08 2.47.17.45 1.75.2 2.63-.43zm20.75 7.22c-.75-.28-1.4-.5-1.42-.5-.28 0 0-1.05.4-1.52.5-.6.5-.6 1.33-.15.45.28 1.4.52 2.13.6 1.15.13 1.35.08 1.92-.5 1.33-1.33.55-2.75-2.05-3.67-2.47-.9-3.55-2.03-3.55-3.75 0-3.03 3.47-4.63 7.25-3.38 1.33.45 1.7 1.02 1.25 1.88-.32.6-.63.63-1.6.13-1.05-.55-2.7-.57-3.5-.03-.55.35-.68.6-.6 1.23.08.82.22.95 3.65 2.53.55.25 1.33.77 1.7 1.17.55.57.68.93.68 2.05 0 1.8-.63 2.85-2.2 3.72-1.52.85-3.38.9-5.38.2zm27.72.18c-1.52-.57-2.42-1.38-3.13-2.83-1.17-2.4-.93-6.5.5-8.43 1.27-1.75 4.05-2.63 6.35-2.03 1.83.47 2.67 1.15 3.47 2.67.6 1.17.68 1.58.7 3.92 0 2.47-.05 2.7-.77 4-1.05 1.88-2.58 2.83-4.7 2.92-.85.05-1.92-.08-2.42-.25zm3.45-2.2c1.23-.75 1.83-2.28 1.83-4.55-.03-3.03-1.17-4.68-3.25-4.68s-3.25 1.67-3.25 4.6c0 4.1 2.13 6.2 4.68 4.63zm24.71 2.04c-1.17-.4-1.25-.5-1.33-1.35-.1-1.17.32-1.38 1.63-.75 1.3.6 3.35.6 4.05-.03 1.1-1 .32-2.85-1.42-3.42-3.83-1.23-5.1-3.17-3.8-5.72 1-1.98 4.1-2.65 7-1.55 1.02.4 1.38.95 1.05 1.67-.32.7-.98.8-1.7.25-.25-.2-1.02-.38-1.73-.38-3.22 0-3.1 2.35.17 3.55.98.35 1.95.95 2.63 1.58.9.88 1.08 1.2 1.08 2.03 0 .55-.25 1.5-.55 2.1-1.13 2.22-4.1 3.08-7.07 2.03zM46.75 174v-6.63l4.07.03 4.05.03.08.75c.08.68-.03.8-.73 1.05-.45.15-1.75.28-2.9.28h-2.1l.08 1.7.08 1.67 1.25-.08c2.55-.15 3.55.45 2.88 1.7-.22.45-.5.5-2.28.5h-2l.08 1.83.08 1.8 2.67.13c2.83.13 3.3.32 3.15 1.25-.08.57-.1.57-4.25.6l-4.2.03v-6.63zm24.63 6.48c-.08-.1-.2-11.63-.15-12.63.03-.43 3.33-.65 5.22-.35.93.15 2.03.47 2.42.73 1.45.85 1.77 3.78.63 5.65-.7 1.15-2.22 1.88-4.3 2.08l-1.48.13.05 2.08c.05 1.15 0 2.17-.13 2.28-.2.22-2.15.28-2.28.05zm5.43-7.2c.68-.6.82-.9.82-1.75 0-1.5-.95-2.35-2.55-2.38l-1.2-.03-.08 2.1c-.05 1.15-.03 2.25.05 2.45.08.2.52.32 1.15.32.75 0 1.2-.17 1.8-.73zm23.51 7.29l-.82-.1v-6.5c0-7.05-.03-6.97 1.38-6.63.98.25 1.3.7 4.93 6.72.73 1.2 1.42 2.15 1.55 2.1.13-.05.2-1.98.17-4.38-.05-4.8-.03-4.88 1.58-4.2l.9.38v6.28c0 6.97.08 6.75-1.73 6.25-.73-.17-1.13-.45-1.27-.85-.13-.32-1-1.75-1.95-3.17s-1.92-2.97-2.15-3.4c-.22-.45-.52-.82-.65-.82-.15 0-.28 1.75-.3 4.18-.08 4.57 0 4.35-1.63 4.15zm26.83-.02c-.2-.17-.2-12.4 0-12.9.2-.52 1.17-.5 1.83.05.52.43.52.55.47 6.65l-.08 6.25-1.05.05c-.57.03-1.1-.03-1.17-.1zm7.6-6.45v-6.53l1.5-.15c1.65-.17 4.85.15 5.82.6.68.3 1.42 1.58 1.42 2.42 0 .82-.47 1.88-1.17 2.6l-.63.65.75.4c1.13.57 1.55 1.33 1.55 2.8 0 1.6-.75 2.8-2.05 3.25-.5.17-2.33.35-4.05.4l-3.15.08v-6.53zm5.93 4.25c1.38-.88.82-3.1-.85-3.53-.55-.15-1.35-.2-1.77-.13l-.8.1v1.95c0 1.67.08 1.98.45 2.05.73.17 2.4-.08 2.97-.45zm-1.08-5.5c.65-.25 1.48-1.8 1.3-2.47-.2-.8-1.42-1.42-2.6-1.33l-.93.08-.08 1.95-.08 1.92h1c.55 0 1.15-.08 1.38-.15zm20 7.53c-.08-.15-.08-3.1-.05-6.57l.08-6.32 3.95-.03c2.4 0 4.07.1 4.22.25.4.4-.03 1.3-.73 1.58-.32.13-1.55.22-2.7.22h-2.08l-.1.95c-.03.52-.03 1.27.05 1.67.13.75.13.75 1.67.68 1.98-.13 2.63.22 2.53 1.27l-.08.8h-4.1l-.08 1.75c-.05.98-.05 1.83 0 1.95.05.1 1.2.17 2.55.17 3 0 3.25.08 3.25 1.1v.77h-4.15c-2.6 0-4.2-.1-4.25-.25zm-11.42-6.25c.03-3.5.1-6.47.2-6.63.2-.35.88-.3 1.63.08l.63.32.13 5.35.13 5.38 2.35.08c2.55.08 3.03.28 3.03 1.2v.6h-8.12l.05-6.38zm-53.3-23.9c-3.05-.3-8.3-1.63-12.13-3.05-2.08-.77-5.68-2.38-6.5-2.88-6.53-4-10.93-7.7-14.6-12.27-1.27-1.6-2.47-3.17-2.7-3.53-.22-.35-.93-1.45-1.58-2.47-3.38-5.28-5.93-13.07-6.72-20.63-1.02-9.88 1.05-20.67 5.55-29 4.6-8.52 11.38-15.35 19.15-19.33 1.63-.82 5.63-2.47 7.53-3.13.82-.28 1.73-.57 2-.68 2.17-.88 9.13-2.13 14.4-2.63 3.45-.32 8.18-.4 27.83-.4h23.65l-.03 23.58c-.03 25.08-.17 29.58-1.23 35.17-.68 3.58-1.5 6.72-2.5 9.5-.43 1.17-.85 2.35-.93 2.63-.1.28-.85 1.85-1.7 3.5-4.97 9.77-12.02 16.58-21.9 21.2-2.45 1.13-8.15 2.97-11.38 3.65-4.53.98-10.88 1.25-16.23.75zm26.98-26.48c.13-.13-.55-1.52-1.73-3.55-2.83-4.82-3.13-5.4-3.13-5.7 0-.15 1.13-2.15 2.5-4.45 1.45-2.4 2.4-4.25 2.28-4.38-.4-.4-2.25-.5-3.03-.17-.55.22-1.08.82-1.77 2.1-2.2 3.8-2.53 4.18-2.88 3.1-.38-1.27-2.63-4.88-3.17-5.18-.75-.4-3.15-.15-3.33.35-.08.17.13.75.47 1.3.32.52 1.2 2.08 1.92 3.45.73 1.38 1.5 2.8 1.7 3.17.5.85.38 1.13-2.6 6.1-1.15 1.92-2.1 3.65-2.1 3.8 0 .2.57.3 1.83.3 2.17 0 2.03.13 4.07-3.42.82-1.42 1.52-2.58 1.6-2.58.08 0 .55.77 1.05 1.73 1.38 2.5 2.78 4.13 3.78 4.32.93.17 2.17.05 2.53-.3zm-37.28.05l.98-.17-.05-7.43-.03-7.45h1.83c2.38 0 3.5-.52 3.75-1.75.38-1.83.68-1.75-6.72-1.75-6.22 0-6.7.03-7.45.5-.93.57-1.25 1.4-.88 2.35.22.65.28.65 2.88.65h2.63v7.47c0 5.75.08 7.5.32 7.6.43.2 1.65.17 2.75-.03zm20.55-.15c.5-.35.4-1.17-.22-2.03-.32-.45-.73-.5-4.07-.63l-3.7-.13v-5h5.76l.08-1.42.08-1.45h-6.03v-4.5h3.13c3.83 0 4.5-.25 4.75-1.73.1-.55.1-1.13 0-1.27-.1-.15-2.2-.25-5.9-.25h-5.72v9.2c0 5.07.08 9.27.15 9.38.1.08 2.65.15 5.72.15 4.2 0 5.65-.08 6-.32zm24.5-9.38c3.85-1.77 3.83-6.68-.05-8.63-1.83-.93-4.68.05-5.75 1.98-1.33 2.35-.43 5.25 2 6.47 1.52.75 2.45.8 3.8.17zm-50-15.35c.7-.17 1.73-.63 2.33-1 3.6-2.3 4.72-9.73 2.17-14.35-.63-1.15-1.13-1.65-2.4-2.45l-1.6-1h-2.88c-2.85 0-2.9 0-4.2.85-2.38 1.5-3.67 3.65-4.05 6.63-.73 5.72 1.65 10.43 5.7 11.38 1.4.35 3.55.3 4.93-.05zm48.83.03c1.27-.3 2.7-1.13 3.58-2 .88-.93 1.92-3.42 2.28-5.38.57-3.45-.55-7.85-2.47-9.6-1.77-1.63-2.47-1.85-5.57-1.85-3.4 0-4.25.35-6.07 2.38-1.98 2.2-2.75 5.45-2.2 9.32.65 4.7 3.47 7.35 7.85 7.4.8.03 1.98-.1 2.63-.28zm-11.6-.1c.22-.08.4-.28.4-.4 0-.28-4.25-6.25-5.7-8.02-.45-.55-.77-1.15-.7-1.33.2-.5 4.13-5.85 5.1-6.95l.88-.98-.57-.47c-.82-.68-2.67-.6-3.53.13-.65.52-2.9 3.35-4.22 5.3-1.58 2.28-1.48 2.38-1.5-1.42 0-3.38 0-3.42-.65-3.92-.77-.6-3.1-.75-3.1-.2-.03.2 0 16.25 0 18 0 .1.85.17 1.88.17h1.88v-8.28l1.15 1.7c2.35 3.42 4.5 5.97 5.47 6.53.55.3 2.58.4 3.22.15zm-16.15-.68c.17-.82-.45-1.88-1.25-2.15-.43-.15-2.17-.28-3.88-.28h-3.1l.08-2.42.08-2.45 2.92-.08 2.9-.08.03-1.48v-1.5h-6l.08-2.17.08-2.2 3.33-.13c3.15-.13 3.38-.15 3.83-.73.25-.32.47-.95.47-1.42v-.85h-11.5v18.5l5.93-.05c5.53-.08 5.95-.1 6.03-.52z"/>
    <path d="M126.88 113.32c-2.92-.75-3.25-5.32-.45-6.5 2.5-1.02 4.82.6 4.82 3.4 0 2.03-2.25 3.63-4.38 3.1zm.32-1.73c.52-.38.63-.38 1.02 0 .25.22.63.4.85.4.68 0 .75-.47.15-.98-.52-.43-.55-.47-.15-1.05.57-.8.52-1.45-.13-2.15-.77-.82-.98-.73-.8.4.1.65.03 1.2-.22 1.67-.4.73-.4.7-.35-.88.08-1.7-.32-2.28-.98-1.4-.38.5-.5 4.38-.15 4.38.1 0 .45-.17.75-.4zM76.18 95.97c-2.05-.35-3.3-2.83-3.28-6.6.03-3.78 1.45-6.03 3.97-6.3 3.5-.4 5.32 3.45 4.35 9.15-.5 2.8-2.38 4.22-5.05 3.75zm48.72.03c-1-.3-1.6-.93-2.35-2.38-.6-1.13-.65-1.5-.65-4.13 0-2.65.05-2.97.68-4.2.57-1.1.93-1.42 1.85-1.85 1.75-.77 3.17-.52 4.35.75 1.2 1.25 1.55 2.55 1.55 5.6.03 2.2-.05 2.55-.73 3.85-.4.77-1 1.63-1.35 1.88-.75.55-2.38.77-3.35.47z"/>
  </g>
</svg>
