<svg xmlns="http://www.w3.org/2000/svg" version="1.1" shape-rendering="geometricPrecision" text-rendering="geometricPrecision" image-rendering="optimizeQuality" fill-rule="evenodd" clip-rule="evenodd" viewBox="0 0 324 460">
  <path fill="#e2b398" d="M133.5-.5h11c-.086.996.248 1.83 1 2.5-3.61.472-6.61 1.972-9 4.5h-1c-1.844-1.779-2.51-4.112-2-7z" opacity="1"/>
  <path fill="#556951" d="M74.5-.5h3c1.486 2.871.486 4.205-3 4v-4z" opacity=".137"/>
  <path fill="#452b1f" d="M222.5-.5h6a34.369 34.369 0 01-2 10c.051 1.6.384 3.1 1 4.5a99.319 99.319 0 00-5 17 64.848 64.848 0 011 12.5c-.814 2.131-1.314 4.464-1.5 7-1.719-5.96-1.886-11.96-.5-18-1.013-.665-2.013-1.832-3-3.5a128.68 128.68 0 004-29.5z" opacity="1"/>
  <path fill="#5e6e5d" d="M238.5 1.5c1.025.397 1.192 1.063.5 2a2.429 2.429 0 01-.5-2z" opacity=".039"/>
  <path fill="#3a241b" d="M90.5-.5h15a5.727 5.727 0 001 3c-2.524.457-5.191.457-8 0-.166 8.34 0 16.673.5 25a96.792 96.792 0 014.5 17 139.772 139.772 0 00-8.5-21 899.503 899.503 0 00-4.5-24z" opacity="1"/>
  <path fill="#7e4933" d="M169.5 6.5c.131-.876-.202-1.543-1-2l-3 1.5a67.442 67.442 0 00-15 2 2.427 2.427 0 002 .5c-4.134.985-8.468 1.318-13 1-3.222.392-6.222-.108-9-1.5 1.882-.198 3.548-.698 5-1.5h12v-3c6.365.206 12.698-.127 19-1 3.55-.15 4.55 1.183 3 4z" opacity="1"/>
  <path fill="#c2bcac" d="M231.5-.5h5a20.692 20.692 0 011 5c.219 1.175-.114 2.175-1 3a32.443 32.443 0 00-2.5-6c-.595 1.399-.428 2.732.5 4-1.602 2.737-2.436 5.737-2.5 9-.383-.556-.883-.89-1.5-1 .463-2.982.796-5.982 1-9v-5z" opacity="1"/>
  <path fill="#ebccb9" d="M105.5-.5h9c-.155 4.368 1.178 8.201 4 11.5a15.892 15.892 0 00-1 6.5 14.694 14.694 0 01-3.5-3 106.406 106.406 0 00-7.5-12 5.727 5.727 0 01-1-3z" opacity="1"/>
  <path fill="#4a1c0e" d="M169.5 6.5a165.83 165.83 0 01-17 2 2.427 2.427 0 01-2-.5 67.442 67.442 0 0115-2l3-1.5c.798.457 1.131 1.124 1 2z" opacity="1"/>
  <path fill="#a2694d" d="M144.5-.5h53a5.727 5.727 0 00-1 3c-2.088 1.836-3.421 4.169-4 7a90.658 90.658 0 01-9 9c-5.463 1.454-9.463 4.787-12 10a93.76 93.76 0 00-10 5v3a10.776 10.776 0 00-6 2 52.581 52.581 0 016 11.5c2.321.837 4.655 1.17 7 1a86.054 86.054 0 019-6.5c3.907 2.455 6.907 5.788 9 10 1.189.929 2.522 1.262 4 1 1.184 1.188 1.184 2.355 0 3.5a2.427 2.427 0 002 .5c-2.233 1.309-3.567 3.309-4 6a19.227 19.227 0 00-5 3 23.639 23.639 0 00-3-3.5c1.918-5.58.585-10.248-4-14-1-.667-2-.667-3 0-4.529 4.924-9.529 5.59-15 2a505.321 505.321 0 00-6-16.5h-7c2.139-2.91 4.973-3.576 8.5-2 4.736-2.115 8.736-5.115 12-9 .494-1.634.66-3.3.5-5h-12a64.632 64.632 0 017-2c1.586-1.673 2.253-3.673 2-6a44.193 44.193 0 00-13.5 4c-4.436-1.708-6.269-.375-5.5 4-1.752.082-2.752-.75-3-2.5a25.565 25.565 0 004-4.5c.543-.06.876-.393 1-1-2.602-.632-4.936-1.632-7-3 4.532.318 8.866-.015 13-1a165.83 165.83 0 0017-2c1.55-2.817.55-4.15-3-4a111.808 111.808 0 01-19 1v3h-11c2.39-2.528 5.39-4.028 9-4.5-.752-.67-1.086-1.504-1-2.5z" opacity="1"/>
  <path fill="#d2a185" d="M119.5-.5h14c-.51 2.888.156 5.221 2 7-1.452.802-3.118 1.302-5 1.5 2.778 1.392 5.778 1.892 9 1.5 2.064 1.368 4.398 2.368 7 3-.124.607-.457.94-1 1-4.729.55-6.396 3.05-5 7.5l18 1c2.158 1.312 2.491 2.978 1 5a37.06 37.06 0 01-12 3.5 289.348 289.348 0 00-10 3c-1.226-.02-2.226-.353-3-1 5.245.657 8.245-1.676 9-7-4.544-.228-8.211-2.061-11-5.5-2.834-.045-5.334-.879-7.5-2.5a205.885 205.885 0 00-5.5-18z" opacity="1"/>
  <path fill="#8c5037" d="M154.5 20.5h-10c-.769-4.375 1.064-5.708 5.5-4a44.193 44.193 0 0113.5-4c.253 2.327-.414 4.327-2 6a64.632 64.632 0 00-7 2z" opacity="1"/>
  <path fill="#868f7c" d="M237.5 4.5c1.092 2.605 1.759 5.438 2 8.5-.175 1.658-.842 2.991-2 4 .457.414.791.914 1 1.5l-3 2c1.338 3.575 2.338 7.075 3 10.5-.676 1.683-1.676 1.85-3 .5l-2-2a234.79 234.79 0 00-3-16c.617.11 1.117.444 1.5 1 .064-3.263.898-6.263 2.5-9-.928-1.268-1.095-2.601-.5-4a32.443 32.443 0 012.5 6c.886-.825 1.219-1.825 1-3z" opacity=".753"/>
  <path fill="#deb298" d="M114.5-.5h5a205.885 205.885 0 015.5 18c2.166 1.621 4.666 2.455 7.5 2.5 2.789 3.439 6.456 5.272 11 5.5-.755 5.324-3.755 7.657-9 7-1.105-1.1-2.438-1.767-4-2-.762-1.762-2.096-2.762-4-3-.333-1-1-1.667-2-2h-1a34.492 34.492 0 01-6-8 15.892 15.892 0 011-6.5c-2.822-3.299-4.155-7.132-4-11.5z" opacity="1"/>
  <path fill="#1e1411" d="M211.5-.5h10a88.702 88.702 0 01-5.5 22c-.5 6.325-.666 12.658-.5 19-.817-2.469-1.317-5.135-1.5-8a245.579 245.579 0 00-2 17 84.9 84.9 0 01-.5-13c-2.138.203-3.805 1.203-5 3a1595.625 1595.625 0 01-2-21.5c.788-6.847 3.122-13.014 7-18.5z" opacity="1"/>
  <path fill="#b58065" d="M145.5 13.5a25.565 25.565 0 01-4 4.5c.248 1.75 1.248 2.582 3 2.5h22a12.93 12.93 0 01-.5 5c-3.264 3.885-7.264 6.885-12 9-3.527-1.576-6.361-.91-8.5 2-.597-.235-.93-.735-1-1.5a20.967 20.967 0 013-4.5 37.06 37.06 0 0012-3.5c1.491-2.022 1.158-3.688-1-5l-18-1c-1.396-4.45.271-6.95 5-7.5z" opacity="1"/>
  <path fill="#43261d" d="M195.5 7.5c-1.05 11.376.45 22.376 4.5 33 2.461 3.258 4.127 6.925 5 11 3.739 4.245 7.906 7.911 12.5 11a62.55 62.55 0 00-9-3.5c-7.206-8.944-11.706-19.111-13.5-30.5-.821-7.18-.655-14.18.5-21z" opacity="1"/>
  <path fill="#1b100d" d="M106.5 2.5a106.406 106.406 0 017.5 12 14.694 14.694 0 003.5 3 34.492 34.492 0 006 8c2.594 12.65.928 24.65-5 36a107.127 107.127 0 01-11 9c-.572-8.277-1.906-16.277-4-24v-2a96.792 96.792 0 00-4.5-17c-.5-8.327-.666-16.66-.5-25 2.809.457 5.476.457 8 0z" opacity="1"/>
  <path fill="#ae7353" d="M126.5 27.5c1.904.238 3.238 1.238 4 3a53.543 53.543 0 011 4.5 363.95 363.95 0 00-1.5 23.5c-2.346 4.162-5.179 7.829-8.5 11a572.326 572.326 0 005.5-18c.499-8.012.333-16.012-.5-24z" opacity="1"/>
  <path fill="#7d482e" d="M192.5 9.5c-2.561 15.612-.228 30.279 7 44a11.743 11.743 0 01-5-3c-3.703-6.796-5.869-14.13-6.5-22-.368-1.41-1.201-2.41-2.5-3-6.331 4.498-10.998 10.332-14 17.5l-2.5.5a36.37 36.37 0 01-5.5-3.5c1.168-1.406.835-2.572-1-3.5 8.859-3.86 15.859-9.86 21-18a90.658 90.658 0 009-9z" opacity="1"/>
  <path fill="#8a5f4d" d="M231.5 4.5a104.652 104.652 0 01-1 9 234.79 234.79 0 013 16c.521 3.98.854 7.98 1 12a75.92 75.92 0 01-5-13 147.116 147.116 0 01-4.5 11 103.719 103.719 0 011-17 194.84 194.84 0 005.5-18z" opacity="1"/>
  <path fill="#583628" d="M228.5-.5h3v5a194.84 194.84 0 01-5.5 18 103.719 103.719 0 00-1 17 147.116 147.116 0 004.5-11 75.92 75.92 0 005 13c1.893 7.432 2.56 15.099 2 23h-1a112.97 112.97 0 00-.5-15 80.609 80.609 0 01-5-11c-.724 2.459-2.057 3.459-4 3l-1 10a18.991 18.991 0 01-1.5-8 64.848 64.848 0 00-1-12.5 99.319 99.319 0 015-17c-.616-1.4-.949-2.9-1-4.5a34.369 34.369 0 002-10z" opacity="1"/>
  <path fill="#331d16" d="M221.5-.5h1a128.68 128.68 0 01-4 29.5c.987 1.668 1.987 2.835 3 3.5-1.386 6.04-1.219 12.04.5 18 .186-2.536.686-4.869 1.5-7a18.991 18.991 0 001.5 8l1-10c1.943.459 3.276-.541 4-3a80.609 80.609 0 005 11c.499 4.989.666 9.989.5 15v7c-3.635-.652-6.969-1.986-10-4l-1-2a2.427 2.427 0 002-.5c-6.277-6.998-9.944-15.165-11-24.5-.166-6.342 0-12.675.5-19a88.702 88.702 0 005.5-22z" opacity="1"/>
  <path fill="#bd8d71" d="M82.5-.5h2a316.812 316.812 0 009 29c.065.438-.101.772-.5 1-.556-2.095-1.056-2.262-1.5-.5.91 1.79 1.076 3.623.5 5.5l-1-2a662.987 662.987 0 01-2 17 601.1 601.1 0 00-5.5 19l-2 8c-1.025-.874-1.692-2.04-2-3.5a25.686 25.686 0 012.5-7.5c.903-13.843 2.07-27.51 3.5-41 .284 9.95.45 19.95.5 30 2.448-9.512 3.115-19.179 2-29-.39-2.604-1.224-4.938-2.5-7a375.29 375.29 0 00-3-19z" opacity="1"/>
  <path fill="#a16d50" d="M85.5 18.5c1.276 2.063 2.11 4.396 2.5 7 1.115 9.821.448 19.488-2 29-.05-10.05-.216-20.05-.5-30v-6z" opacity="1"/>
  <path fill="#150a07" d="M197.5-.5h14c-3.878 5.486-6.212 11.653-7 18.5.617 7.155 1.283 14.322 2 21.5 1.195-1.797 2.862-2.797 5-3a84.9 84.9 0 00.5 13 245.579 245.579 0 012-17c.183 2.865.683 5.531 1.5 8 1.056 9.335 4.723 17.502 11 24.5a2.427 2.427 0 01-2 .5 32.894 32.894 0 01-7-3c-4.594-3.089-8.761-6.755-12.5-11-.873-4.075-2.539-7.742-5-11-4.05-10.624-5.55-21.624-4.5-33a20.692 20.692 0 011-5 5.727 5.727 0 011-3z" opacity="1"/>
  <path fill="#915a3e" d="M183.5 18.5c-5.141 8.14-12.141 14.14-21 18 1.835.928 2.168 2.094 1 3.5a36.37 36.37 0 005.5 3.5l2.5-.5c3.002-7.168 7.669-13.002 14-17.5 1.299.59 2.132 1.59 2.5 3 .631 7.87 2.797 15.204 6.5 22-1.338-1.613-3.005-2.113-5-1.5 2.544 1.563 2.544 3.063 0 4.5.363.684.696 1.35 1 2-1.478.262-2.811-.071-4-1-2.093-4.212-5.093-7.545-9-10a86.054 86.054 0 00-9 6.5c-2.345.17-4.679-.163-7-1a52.581 52.581 0 00-6-11.5 10.776 10.776 0 016-2v-3a93.76 93.76 0 0110-5c2.537-5.213 6.537-8.546 12-10z" opacity="1"/>
  <path fill="#b67e60" d="M146.5 36.5h6a505.321 505.321 0 016 16.5c5.471 3.59 10.471 2.924 15-2 1-.667 2-.667 3 0 4.585 3.752 5.918 8.42 4 14a23.639 23.639 0 013 3.5 19.227 19.227 0 015-3c.438-.065.772.101 1 .5l-3 2.5c.124.607.457.94 1 1 1.01 2.905-.156 4.905-3.5 6a22.147 22.147 0 00-4 7c-1.226 2.048-2.726 2.381-4.5 1 .133-5.437-1.2-10.437-4-15-3.283-2.381-6.95-3.381-11-3-.536-2.467-1.036-4.8-1.5-7-7.2-2.907-10.034-8.074-8.5-15.5a53.065 53.065 0 00-4-6.5z" opacity="1"/>
  <path fill="#c48d6c" d="M130.5 30.5c1.562.233 2.895.9 4 2 .774.647 1.774.98 3 1a289.348 289.348 0 0110-3 20.967 20.967 0 00-3 4.5c.07.765.403 1.265 1 1.5h1a53.065 53.065 0 014 6.5c-1.534 7.426 1.3 12.593 8.5 15.5.464 2.2.964 4.533 1.5 7 4.05-.381 7.717.619 11 3 2.8 4.563 4.133 9.563 4 15h-1c-.236-2.37-1.236-4.37-3-6a71.745 71.745 0 01-16-4 34.299 34.299 0 00-3-7.5c1.692-2.935 2.358-6.102 2-9.5-5.574-2.214-11.408-3.548-17.5-4a85.525 85.525 0 00-2.5 12 11.99 11.99 0 01-6 1v3c-4.622-.045-6.955 2.288-7 7a335.157 335.157 0 01-9 7.5c-9.687 2.621-19.354 3.121-29 1.5h6c13.165-.038 23.832-5.038 32-15 3.321-3.171 6.154-6.838 8.5-11a363.95 363.95 0 011.5-23.5 53.543 53.543 0 00-1-4.5z" opacity="1"/>
  <path fill="#cf9a79" d="M174.5 83.5c-.789-.283-1.456-.783-2-1.5l-22-1a45.67 45.67 0 00-7.5-4.5 3.942 3.942 0 00-2 1c-4.01-1.79-8.01-3.457-12-5-.928 1.835-2.094 2.168-3.5 1-1.122 1.13-2.456 1.797-4 2 .045-4.712 2.378-7.045 7-7v-3a11.99 11.99 0 006-1 85.525 85.525 0 012.5-12c6.092.452 11.926 1.786 17.5 4 .358 3.398-.308 6.565-2 9.5a34.299 34.299 0 013 7.5 71.745 71.745 0 0016 4c1.764 1.63 2.764 3.63 3 6z" opacity="1"/>
  <path fill="#693e2d" d="M196.5 2.5a20.692 20.692 0 00-1 5c-1.155 6.82-1.321 13.82-.5 21 1.794 11.389 6.294 21.556 13.5 30.5 3.1.939 6.1 2.105 9 3.5a32.894 32.894 0 007 3l1 2a204.988 204.988 0 00-18-4.5 216.54 216.54 0 01-8-9.5c-7.228-13.721-9.561-28.388-7-44 .579-2.831 1.912-5.164 4-7z" opacity="1"/>
  <path fill="#b8af9c" d="M80.5-.5h2a375.29 375.29 0 013 19v6a1017.182 1017.182 0 00-3.5 41 25.686 25.686 0 00-2.5 7.5c.308 1.46.975 2.626 2 3.5 0 .667.333 1 1 1v5l1 2c-2.05.206-2.382 1.04-1 2.5-.744 1.039-1.744 1.539-3 1.5-2.946.397-5.613 1.397-8 3-.342-.838-1.008-1.172-2-1a82.4 82.4 0 019-4c-1.469-1.692-2.135-3.692-2-6a555.026 555.026 0 014.5-21 490.37 490.37 0 012.5-38 248.322 248.322 0 00-3-22z" opacity="1"/>
  <path fill="#9d694d" d="M93.5 28.5c3.867 6.437 6.034 13.437 6.5 21-1.223-3.943-2.89-7.61-5-11l-1 17a20.216 20.216 0 00-1.5-6 106.345 106.345 0 01-5.5 19c-1.073-.299-2.24-.299-3.5 0a601.1 601.1 0 015.5-19 662.987 662.987 0 002-17l1 2c.576-1.877.41-3.71-.5-5.5.444-1.762.944-1.595 1.5.5.399-.228.565-.562.5-1z" opacity="1"/>
  <path fill="#311b15" d="M103.5 46.5c2.094 7.723 3.428 15.723 4 24a107.127 107.127 0 0011-9c-.703 2.216-2.036 4.049-4 5.5l-12 9c-5.5 1.462-10.5 3.962-15 7.5l-2-2a5.576 5.576 0 01-3 1v-5c.923.803 1.923.97 3 .5a84.89 84.89 0 017-8.5c1.021.502 1.188 1.168.5 2L88.5 76c2.401-1.467 4.901-2.3 7.5-2.5 3.209-8.92 5.709-17.92 7.5-27z" opacity="1"/>
  <path fill="#8c5c45" d="M194.5 50.5a11.743 11.743 0 005 3 216.54 216.54 0 008 9.5 204.988 204.988 0 0118 4.5c3.031 2.014 6.365 3.348 10 4v-7h1v8h-5a5135.34 5135.34 0 01-18-5c-.886.825-1.219 1.825-1 3-3.333.667-5.333-.667-6-4-3.704-.869-6.371-3.036-8-6.5a18.437 18.437 0 00-6-.5 2.427 2.427 0 01-2-.5c1.184-1.145 1.184-2.312 0-3.5a44.147 44.147 0 00-1-2c2.544-1.437 2.544-2.937 0-4.5 1.995-.613 3.662-.113 5 1.5z" opacity="1"/>
  <path fill="#5f3728" d="M84.5-.5h6a899.503 899.503 0 014.5 24 139.772 139.772 0 018.5 21v2c-1.791 9.08-4.291 18.08-7.5 27-2.599.2-5.099 1.033-7.5 2.5l4.5-4.5c.688-.832.521-1.498-.5-2a84.89 84.89 0 00-7 8.5c-1.077.47-2.077.303-3-.5-.667 0-1-.333-1-1l2-8c1.26-.299 2.427-.299 3.5 0a106.345 106.345 0 005.5-19 20.216 20.216 0 011.5 6l1-17c2.11 3.39 3.777 7.057 5 11-.466-7.563-2.633-14.563-6.5-21a316.812 316.812 0 01-9-29z" opacity="1"/>
  <path fill="#a1715a" d="M192.5 59.5a18.437 18.437 0 016 .5c1.629 3.464 4.296 5.631 8 6.5.667 3.333 2.667 4.667 6 4-.219-1.175.114-2.175 1-3a5135.34 5135.34 0 0018 5c-2.53 1.276-5.197 1.276-8 0a70.49 70.49 0 00-7.5 6c-5.926-1.884-10.426-5.551-13.5-11-5.264-1.01-10.264-.343-15 2-.543-.06-.876-.393-1-1l3-2.5c-.228-.399-.562-.565-1-.5.433-2.691 1.767-4.691 4-6z" opacity="1"/>
  <path fill="#5f3727" d="M123.5 25.5h1c.944 9.317 1.11 18.65.5 28-2.002 8.175-6.169 15.008-12.5 20.5-5.234-.745-8.901 1.255-11 6-4.36.838-8.36 2.338-12 4.5h-6l-1-2a5.576 5.576 0 003-1l2 2c4.5-3.538 9.5-6.038 15-7.5l12-9c1.964-1.451 3.297-3.284 4-5.5 5.928-11.35 7.594-23.35 5-36z" opacity="1"/>
  <path fill="#b7b09e" d="M233.5 29.5l2 2a2881.713 2881.713 0 006 36h-3c-.42 2.174-.42 4.174 0 6 4.158 3.603 8.824 6.27 14 8v2h-1a18.95 18.95 0 01-5-3c-4.549-1.26-7.882-3.926-10-8v-8c.56-7.901-.107-15.568-2-23-.146-4.02-.479-8.02-1-12z" opacity=".788"/>
  <path fill="#8c583e" d="M124.5 25.5c1 .333 1.667 1 2 2 .833 7.988.999 15.988.5 24a572.326 572.326 0 01-5.5 18c-8.168 9.962-18.835 14.962-32 15 3.64-2.162 7.64-3.662 12-4.5 2.099-4.745 5.766-6.745 11-6 6.331-5.492 10.498-12.325 12.5-20.5.61-9.35.444-18.683-.5-28z" opacity="1"/>
  <path fill="#b88a73" d="M231.5 72.5h5c2.118 4.074 5.451 6.74 10 8 .913 1.586.913 3.086 0 4.5a70.325 70.325 0 01-13 2.5c-4.442.383-4.776 1.383-1 3 .976 2.997.81 5.997-.5 9a15.28 15.28 0 00-4.5-1.5c-2.51-4.752-6.51-6.585-12-5.5a547.227 547.227 0 01-38 4c-.709-.904-1.709-1.237-3-1v-12h1c1.774 1.381 3.274 1.048 4.5-1a22.147 22.147 0 014-7c3.344-1.095 4.51-3.095 3.5-6 4.736-2.343 9.736-3.01 15-2 3.074 5.449 7.574 9.116 13.5 11a70.49 70.49 0 017.5-6c2.803 1.276 5.47 1.276 8 0z" opacity="1"/>
  <path fill="#ceaa97" d="M252.5 81.5h4a44.093 44.093 0 003 2 340.158 340.158 0 0026 1.5c.916.278 1.582.778 2 1.5-2.165-.384-3.832.283-5 2 .579 3.596.579 7.263 0 11 8.919 3.396 11.419 9.396 7.5 18-9.033 1.432-17.2 4.932-24.5 10.5-3.688.45-7.354.283-11-.5-2.308-3.543-3.475-7.543-3.5-12-.808-3.527-.641-6.86.5-10a91.743 91.743 0 001.5 15c2.373 5.52 6.373 7.52 12 6 6.153-5.511 13.32-9.177 21.5-11 2.6-2.794 2.6-5.627 0-8.5a74.414 74.414 0 00-16-4c-2.844-3.422-6.511-5.255-11-5.5a4.934 4.934 0 00-.5-3 22.911 22.911 0 01-7.5 7v-4c-.013-5.841 2.32-10.341 7-13.5a18.437 18.437 0 00-6-.5v-2z" opacity="1"/>
  <path fill="#c99f8a" d="M287.5 86.5c4.704 3.346 9.371 6.679 14 10a36.903 36.903 0 01-5.5-2 3.942 3.942 0 00-2 1c-.899-4.07-3.399-6.07-7.5-6a17.648 17.648 0 00-.5 6 63.307 63.307 0 018 11 12.494 12.494 0 010 7c-1.751 1.99-2.751 4.323-3 7a288.042 288.042 0 00-24.5 13.5c-6.847 1.164-12.347-1.003-16.5-6.5a242.43 242.43 0 01-.5-22c.065-2.928.732-5.595 2-8v8c-1.141 3.14-1.308 6.473-.5 10 .025 4.457 1.192 8.457 3.5 12 3.646.783 7.312.95 11 .5 7.3-5.568 15.467-9.068 24.5-10.5 3.919-8.604 1.419-14.604-7.5-18 .579-3.737.579-7.404 0-11 1.168-1.717 2.835-2.384 5-2z" opacity="1"/>
  <path fill="#cca793" d="M246.5 80.5a18.95 18.95 0 005 3c-5.875 8.425-9.542 17.758-11 28-.47-5.343-1.803-9.843-4-13.5a61.71 61.71 0 001-8.5c-1.88.27-3.213-.396-4-2a70.325 70.325 0 0013-2.5c.913-1.414.913-2.914 0-4.5z" opacity="1"/>
  <path fill="#dabdb0" d="M71.5 91.5c-1.23 1.797-1.896 3.797-2 6-4.047.035-6.714 2.035-8 6-4.99 1.168-9.99 1.168-15 0a514.314 514.314 0 01-14 2.5c-2.247 1.277-4.247 2.777-6 4.5-1.208.734-2.541 1.067-4 1-.219-1.175.114-2.175 1-3 3.788-4.128 8.454-6.461 14-7a3.646 3.646 0 00-1-1.5c3.325.225 5.658-1.108 7-4l4-2a488.284 488.284 0 0124-2.5z" opacity="1"/>
  <path fill="#ddb9a7" d="M87.5 92.5h8c.667 0 1 .333 1 1 3.425 4.709 8.092 6.709 14 6 .418.722 1.084 1.222 2 1.5 7.079.114 14.079.781 21 2 1.955 2.168 2.621 4.502 2 7 2.33 1.523 4.664 2.023 7 1.5a444.282 444.282 0 0014 4c.693-3.778 1.86-3.778 3.5 0l1-1c.661 2.416 2.161 4.082 4.5 5a6.846 6.846 0 011 4 8.43 8.43 0 00-4 .5 4.457 4.457 0 012 1.5 10.258 10.258 0 01-4 1.5l3 1a7.293 7.293 0 00-3 2 13.92 13.92 0 013 4 8.43 8.43 0 004 .5c-.048 2.792 1.285 4.625 4 5.5-2.666 1.833-4.332 4.333-5 7.5a337.361 337.361 0 00-13 33h-1c-.617-.111-1.117-.444-1.5-1a345.467 345.467 0 01-1.5-13c1.591 3.704 2.424 7.704 2.5 12a1431.77 1431.77 0 004.5-21.5c4.12-5.6 5.287-11.767 3.5-18.5a26.254 26.254 0 01-7-3c-1.235 1.115-2.402 1.115-3.5 0-1.017 2.528-2.184 2.528-3.5 0a26.53 26.53 0 00-2.5 11c-1.795-4.02-2.962-8.353-3.5-13a128.845 128.845 0 00-10.5-8 11.068 11.068 0 01-2-3.5c.83-1.465.996-2.965.5-4.5a1689.64 1689.64 0 00-7.5-4.5 71.394 71.394 0 01-16-4.5 215.765 215.765 0 00-17 10c-4.028-1.031-5.861-3.698-5.5-8a148.437 148.437 0 00-1.5-14c.996-.086 1.83.248 2.5 1-.16 4.315 1.006 8.149 3.5 11.5 13.02.275 15.354-4.725 7-15-2.208-.19-4.208-.69-6-1.5z" opacity="1"/>
  <path fill="#be9079" d="M301.5 96.5c8.406 4.157 13.406 10.824 15 20-3.425-8.092-9.092-13.759-17-17 1.941 9.744-1.059 17.577-9 23.5a25.471 25.471 0 00-9 4 274.698 274.698 0 00-9 13.5c-4.139.582-8.305.248-12.5-1-6.819.991-10.319 4.991-10.5 12 .547 1.869.88 3.702 1 5.5-.928 5.201-2.261 10.034-4 14.5a97.747 97.747 0 01-6-25l6-24a343.58 343.58 0 01-1-4c1.091-4.5 2.424-8.834 4-13-.166 7.341 0 14.674.5 22 4.153 5.497 9.653 7.664 16.5 6.5a288.042 288.042 0 0124.5-13.5c.249-2.677 1.249-5.01 3-7a12.494 12.494 0 000-7 63.307 63.307 0 00-8-11 17.648 17.648 0 01.5-6c4.101-.07 6.601 1.93 7.5 6a3.942 3.942 0 012-1 36.87 36.87 0 005.5 2z" opacity="1"/>
  <path fill="#cda48f" d="M174.5 83.5v12c1.291-.237 2.291.096 3 1 1.439 2.088 2.106 4.421 2 7 3.997 2.001 6.997 1.001 9-3 1.412-1.306 3.079-2.14 5-2.5a140.683 140.683 0 0021.5-4.5c5.632 1.632 9.298 5.298 11 11 3.572 1.881 5.572 4.881 6 9 .42 4.315.92 8.315 1.5 12-2.563 5.09-2.896 10.09-1 15a21.614 21.614 0 01-4 5 14.698 14.698 0 00-3-3.5 22.703 22.703 0 002-5c-.113-1.28-.78-2.113-2-2.5-1.939 2.118-4.106 2.451-6.5 1-.967 1.178-1.467 2.511-1.5 4a14.748 14.748 0 00-4.5 3c-.717-.544-1.217-1.211-1.5-2 4.02-5.091 5.02-10.757 3-17-7.848 1.306-15.514 1.306-23 0a23.663 23.663 0 01-6 2.5c1.017 1.049 1.184 2.216.5 3.5a92.622 92.622 0 00-6.5 0l-2-1c.774-1.211 1.607-1.211 2.5 0 .617-.949.451-1.782-.5-2.5 2.919-1.754 4.919-4.254 6-7.5a4.457 4.457 0 00-2-1.5c1.054-1.388 1.22-2.888.5-4.5-.718.951-1.551 1.117-2.5.5 2.707-2.696 2.374-4.862-1-6.5-.996.086-1.829-.248-2.5-1-.093-2.507-.926-4.674-2.5-6.5-2.441-.036-4.441-.87-6-2.5 1.992-3.752 2.325-7.585 1-11.5a40.827 40.827 0 00-9 1c-2.67 1.922-5.67 3.088-9 3.5-2.436-.6-4.102-2.1-5-4.5-7.178-1.26-13.345-3.426-18.5-6.5-5.458 1.185-5.625 2.351-.5 3.5-1.333 1.667-1.333 3.333 0 5a99.972 99.972 0 0121.5 6.5c.945-.405 1.612-1.072 2-2a20.509 20.509 0 012.5 4.5 74.373 74.373 0 0010 2.5c.572 2.417 1.572 4.584 3 6.5a3.647 3.647 0 00-1 1.5 9.425 9.425 0 013 3l-1.5 1a161.696 161.696 0 00-24.5-1.5 20.64 20.64 0 00-6-2c2.151-7.824-.682-9.99-8.5-6.5a88.658 88.658 0 00-18.5-1c-5.908.709-10.575-1.291-14-6h2c1.621 1.617 3.621 2.784 6 3.5l34 1c1.504 1.337 2.504 3.004 3 5 4.333.667 8.667.667 13 0 2.509-2.09 2.175-3.923-1-5.5a32.147 32.147 0 00-7-3c-1.1-1.058-2.434-1.892-4-2.5-15.839-.828-31.505-.661-47 .5h-8c-3.109-.236-6.109.097-9 1a20.677 20.677 0 001-5c1.256.039 2.256-.461 3-1.5-1.382-1.46-1.05-2.294 1-2.5 9.646 1.621 19.313 1.121 29-1.5a335.157 335.157 0 009-7.5c1.544-.203 2.878-.87 4-2 1.406 1.168 2.572.835 3.5-1 3.99 1.543 7.99 3.21 12 5a3.942 3.942 0 012-1 45.67 45.67 0 017.5 4.5l22 1c.544.717 1.211 1.217 2 1.5z" opacity="1"/>
  <path fill="#bd8a70" d="M95.5 92.5c15.495-1.161 31.161-1.328 47-.5 1.566.608 2.9 1.442 4 2.5-.17 1.322.163 2.489 1 3.5-3.567 1.075-6.567.242-9-2.5a102.326 102.326 0 00-24.5 0 56.111 56.111 0 01-15.5-2h-2c0-.667-.333-1-1-1z" opacity="1"/>
  <path fill="#e5cabb" d="M87.5 92.5c1.792.81 3.792 1.31 6 1.5 8.354 10.275 6.02 15.275-7 15-2.494-3.351-3.66-7.185-3.5-11.5-.67-.752-1.504-1.086-2.5-1-1.406-.473-2.073-1.473-2-3 2.891-.903 5.891-1.236 9-1z" opacity="1"/>
  <path fill="#cc9c84" d="M98.5 93.5a56.111 56.111 0 0015.5 2c8.183-.981 16.35-.981 24.5 0 2.433 2.742 5.433 3.575 9 2.5-.837-1.011-1.17-2.178-1-3.5a32.147 32.147 0 017 3c3.175 1.577 3.509 3.41 1 5.5a42.479 42.479 0 01-13 0c-.496-1.996-1.496-3.663-3-5l-34-1c-2.379-.716-4.379-1.883-6-3.5z" opacity="1"/>
  <path fill="#d7b19c" d="M180.5 106.5c.42 5.012.587 10.012.5 15a72.59 72.59 0 00-11.5 8.5c1.997 1.193 3.664 2.693 5 4.5-2.314.679-2.647 2.012-1 4-1.159 4.019-3.492 7.019-7 9 .668-3.167 2.334-5.667 5-7.5-2.715-.875-4.048-2.708-4-5.5a8.43 8.43 0 01-4-.5 13.92 13.92 0 00-3-4 7.293 7.293 0 013-2l-3-1a10.258 10.258 0 004-1.5 4.457 4.457 0 00-2-1.5 8.43 8.43 0 014-.5 6.846 6.846 0 00-1-4c-2.339-.918-3.839-2.584-4.5-5l-1 1c-1.64-3.778-2.807-3.778-3.5 0a444.282 444.282 0 01-14-4c-2.336.523-4.67.023-7-1.5.621-2.498-.045-4.832-2-7a133.243 133.243 0 00-21-2c-.916-.278-1.582-.778-2-1.5a88.658 88.658 0 0118.5 1c7.818-3.49 10.651-1.324 8.5 6.5a20.64 20.64 0 016 2c8.135-.125 16.302.375 24.5 1.5l1.5-1a9.425 9.425 0 00-3-3 3.647 3.647 0 011-1.5c-1.428-1.916-2.428-4.083-3-6.5a74.373 74.373 0 01-10-2.5 20.509 20.509 0 00-2.5-4.5c-.388.928-1.055 1.595-2 2a99.972 99.972 0 00-21.5-6.5c-1.333-1.667-1.333-3.333 0-5-5.125-1.149-4.958-2.315.5-3.5 5.155 3.074 11.322 5.24 18.5 6.5.898 2.4 2.564 3.9 5 4.5 3.33-.412 6.33-1.578 9-3.5a40.827 40.827 0 019-1c1.325 3.915.992 7.748-1 11.5 1.559 1.63 3.559 2.464 6 2.5 1.574 1.826 2.407 3.993 2.5 6.5.671.752 1.504 1.086 2.5 1z" opacity="1"/>
  <path fill="#b4846b" d="M316.5 116.5c1.518 3.034 2.351 6.367 2.5 10a1382.253 1382.253 0 014.5 40v6c-.617.111-1.117.444-1.5 1-.179 3.525-.679 6.859-1.5 10 .166-9.339 0-18.673-.5-28a449.74 449.74 0 00-5.5-37c-1.354-3.532-3.354-6.698-6-9.5-1.333-.667-2.667-.667-4 0a64.77 64.77 0 00-6.5 11.5 110.872 110.872 0 01-14 11 37.852 37.852 0 01-2.5 12 130.373 130.373 0 01-16 1.5c-3.372.562-6.205 2.062-8.5 4.5a287.462 287.462 0 01-5.5 18c.446 2.51-.22 4.51-2 6h-2l-1-2c1.739-4.466 3.072-9.299 4-14.5a25.635 25.635 0 00-1-5.5c.181-7.009 3.681-11.009 10.5-12 4.195 1.248 8.361 1.582 12.5 1 2.888-4.62 5.888-9.12 9-13.5a25.471 25.471 0 019-4c7.941-5.923 10.941-13.756 9-23.5 7.908 3.241 13.575 8.908 17 17z" opacity="1"/>
  <path fill="#c9c0ab" d="M256.5 81.5a881.671 881.671 0 0029 1.5 320.41 320.41 0 0024 16 58.317 58.317 0 017.5 10.5 541.176 541.176 0 016.5 34v23a1382.253 1382.253 0 00-4.5-40c-.149-3.633-.982-6.966-2.5-10-1.594-9.176-6.594-15.843-15-20a4170.784 4170.784 0 00-14-10c-.418-.722-1.084-1.222-2-1.5a340.158 340.158 0 01-26-1.5 44.093 44.093 0 01-3-2z" opacity=".255"/>
  <path fill="#d3b09d" d="M78.5 93.5c-.073 1.527.594 2.527 2 3a148.437 148.437 0 011.5 14c-.361 4.302 1.472 6.969 5.5 8a215.765 215.765 0 0117-10 71.394 71.394 0 0016 4.5 1689.64 1689.64 0 017.5 4.5c.496 1.535.33 3.035-.5 4.5a11.068 11.068 0 002 3.5 128.845 128.845 0 0110.5 8c.538 4.647 1.705 8.98 3.5 13 3.782 6.022 5.782 12.689 6 20 .417 4.335.917 8.668 1.5 13 .383.556.883.889 1.5 1 .236 2.726-.597 5.059-2.5 7-.174-5.184-.674-10.184-1.5-15 .067-1.459-.266-2.792-1-4a220.352 220.352 0 01-1.5-12c-.624-2.254-1.957-3.921-4-5-2.056-9.687-6.889-17.52-14.5-23.5-2.507-.093-4.674-.926-6.5-2.5-1.434-3.025-1.934-6.025-1.5-9-15.051-7.514-25.884-3.514-32.5 12 .034 4.34-.8 8.174-2.5 11.5 4.054 5.944 7.22 12.444 9.5 19.5 3.613.863 5.613 3.197 6 7a416.61 416.61 0 0118 22c1.893 3.59 2.727 7.423 2.5 11.5-.543 4.442-.877 8.609-1 12.5a16.635 16.635 0 00-5-6v-2c-.065-.438.101-.772.5-1 .837 1.507 2.004 2.007 3.5 1.5a365.42 365.42 0 00-.5-9.5 12.804 12.804 0 01-3-6c-7.076-8.409-14.743-16.076-23-23l-2-4a3.647 3.647 0 01-1.5 1c-1.195-1.797-2.862-2.797-5-3 .262-1.478-.071-2.811-1-4a42.258 42.258 0 01-5-7c-.722-.418-1.222-1.084-1.5-2l-.5-7a174.976 174.976 0 002-45c-.172-.992.162-1.658 1-2z" opacity="1"/>
  <path fill="#d6b5a4" d="M251.5 105.5v-4a22.911 22.911 0 007.5-7c.483.948.649 1.948.5 3 4.489.245 8.156 2.078 11 5.5a74.414 74.414 0 0116 4c2.6 2.873 2.6 5.706 0 8.5-8.18 1.823-15.347 5.489-21.5 11-5.627 1.52-9.627-.48-12-6a91.743 91.743 0 01-1.5-15z" opacity="1"/>
  <path fill="#d2ad9a" d="M69.5 97.5a1095.438 1095.438 0 00-5 44 41.742 41.742 0 00-1-9c-2.45-.202-4.783.131-7 1 1.672-2.837 1.006-3.504-2-2-1.022-.355-1.689-1.022-2-2a4.934 4.934 0 003-.5 28.04 28.04 0 01-5-1.5c-2.287 2.156-4.787 2.489-7.5 1-3.416 3.484-7.25 4.317-11.5 2.5l2-1a12.93 12.93 0 00-5-.5c1.09-4.915-.577-6.581-5-5-1.122-1.788-1.29-3.788-.5-6a17.417 17.417 0 003.5-8c1.753-1.723 3.753-3.223 6-4.5a514.314 514.314 0 0014-2.5c5.01 1.168 10.01 1.168 15 0 1.286-3.965 3.953-5.965 8-6z" opacity="1"/>
  <path fill="#c19883" d="M233.5 87.5c.787 1.604 2.12 2.27 4 2a61.702 61.702 0 01-1 8.5c2.197 3.657 3.53 8.157 4 13.5a333.505 333.505 0 00-5.5 25c-.2 1.82-1.034 3.153-2.5 4-1.896-4.91-1.563-9.91 1-15-.58-3.685-1.08-7.685-1.5-12-.428-4.119-2.428-7.119-6-9-1.702-5.702-5.368-9.368-11-11a140.683 140.683 0 01-21.5 4.5c-1.921.36-3.588 1.194-5 2.5-2.003 4.001-5.003 5.001-9 3 .106-2.579-.561-4.912-2-7a547.227 547.227 0 0038-4c5.49-1.085 9.49.748 12 5.5a15.28 15.28 0 014.5 1.5c1.31-3.003 1.476-6.003.5-9-3.776-1.617-3.442-2.617 1-3z" opacity="1"/>
  <path fill="#270d0c" d="M251.5 83.5h1a18.437 18.437 0 016 .5c-4.68 3.159-7.013 7.659-7 13.5-1.268 2.405-1.935 5.072-2 8a109.866 109.866 0 00-4 13 568.14 568.14 0 01-5.5 19c-.805 3.196-.638 6.196.5 9a97.747 97.747 0 006 25l1 2a111.06 111.06 0 005 16c-1-1.333-2-1.333-3 0-.889-5.869-2.889-11.202-6-16a362.018 362.018 0 00-4.5-21 35.797 35.797 0 00-4-10c-4.641 7.472-10.474 13.806-17.5 19a17.354 17.354 0 01-3.5 7c-.718-.951-1.551-1.117-2.5-.5-4.26 4.768-8.927 8.934-14 12.5l1-2a312.91 312.91 0 0025.5-26 46.153 46.153 0 004.5-7 21.614 21.614 0 004-5c1.466-.847 2.3-2.18 2.5-4a333.505 333.505 0 015.5-25c1.458-10.242 5.125-19.575 11-28z" opacity="1"/>
  <path fill="#d0a48d" d="M180.5 106.5c3.374 1.638 3.707 3.804 1 6.5.949.617 1.782.451 2.5-.5.72 1.612.554 3.112-.5 4.5a4.457 4.457 0 012 1.5c-1.081 3.246-3.081 5.746-6 7.5.951.718 1.117 1.551.5 2.5-.893-1.211-1.726-1.211-2.5 0l2 1a92.622 92.622 0 016.5 0c.684-1.284.517-2.451-.5-3.5a23.663 23.663 0 006-2.5c7.486 1.306 15.152 1.306 23 0 2.02 6.243 1.02 11.909-3 17-2.258.275-2.592 1.275-1 3a28.931 28.931 0 00-1.5 4 14.506 14.506 0 00-5 4c-.617.949-.451 1.782.5 2.5-1.992.574-3.492 1.741-4.5 3.5-.893-1.211-1.726-1.211-2.5 0a4.457 4.457 0 002 1.5c-2.363.589-3.363 2.089-3 4.5a27.538 27.538 0 00-11 5c-.381-1.431-1.381-2.264-3-2.5a6.802 6.802 0 003-1.5c-2.872-1.283-5.705-1.283-8.5 0-2.152-1.824-4.652-2.157-7.5-1v-3a4.934 4.934 0 003-.5 13.015 13.015 0 01-4-4.5 220.905 220.905 0 018-11.5c.443-3.281-.224-6.448-2-9.5-1.336-1.807-3.003-3.307-5-4.5a72.59 72.59 0 0111.5-8.5c.087-4.988-.08-9.988-.5-15z" opacity="1"/>
  <path fill="#2f1311" d="M79.5 88.5a20.677 20.677 0 01-1 5c-.838.342-1.172 1.008-1 2a360.228 360.228 0 00-6.5 34 42.343 42.343 0 00.5 15c-3.605-2.787-5.772-1.787-6.5 3a18.476 18.476 0 01-3.5 2 28.786 28.786 0 013-8 1095.438 1095.438 0 015-44c.104-2.203.77-4.203 2-6 2.387-1.603 5.054-2.603 8-3z" opacity="1"/>
  <path fill="#d0a792" d="M147.5 168.5c-2.245-3.254-3.745-6.92-4.5-11-.708-.881-1.542-1.547-2.5-2a20.093 20.093 0 00-1.5-6c-5.267-6.151-10.433-11.651-15.5-16.5-2.45 1.126-4.45.459-6-2-6.112-.909-12.112-.576-18 1-4.052 2.991-5.385 6.825-4 11.5a140.323 140.323 0 0015 23c1.72 1.434 3.72 2.267 6 2.5-1.333 1.84-1.166 2.34.5 1.5 2.109.535 2.609 1.535 1.5 3 .355 1.022 1.022 1.689 2 2-.039 1.859.794 3.192 2.5 4 .155 5.431 1.321 10.597 3.5 15.5-.392 5.146-1.726 9.98-4 14.5.646 1.799.979 3.466 1 5-.342.838-1.008 1.172-2 1l-2-3c.123-3.891.457-8.058 1-12.5.227-4.077-.607-7.91-2.5-11.5a416.61 416.61 0 00-18-22c-.387-3.803-2.387-6.137-6-7-2.28-7.056-5.446-13.556-9.5-19.5 1.7-3.326 2.534-7.16 2.5-11.5 6.616-15.514 17.449-19.514 32.5-12-.434 2.975.066 5.975 1.5 9 1.826 1.574 3.993 2.407 6.5 2.5 7.611 5.98 12.444 13.813 14.5 23.5 2.043 1.079 3.376 2.746 4 5 .392 4.028.892 8.028 1.5 12z" opacity="1"/>
  <path fill="#ca9c83" d="M140.5 155.5a107.76 107.76 0 01-8-8.5c-4.508-1.751-8.508-4.251-12-7.5a3.647 3.647 0 00-1.5 1c-1.299-1.48-2.966-2.146-5-2-9.781 3.384-10.947 8.884-3.5 16.5 3.695 2.659 7.695 4.993 12 7a140.272 140.272 0 016.5 8.5c2.365 5.327 1.698 5.993-2 2-2.009.495-4.176.495-6.5 0v3c-.978-.311-1.645-.978-2-2 1.109-1.465.609-2.465-1.5-3-1.666.84-1.833.34-.5-1.5-2.28-.233-4.28-1.066-6-2.5a140.323 140.323 0 01-15-23c-1.385-4.675-.052-8.509 4-11.5 5.888-1.576 11.888-1.909 18-1 1.55 2.459 3.55 3.126 6 2 5.067 4.849 10.233 10.349 15.5 16.5a20.093 20.093 0 011.5 6z" opacity="1"/>
  <path fill="#ac785c" d="M314.5 118.5c0 .667-.333 1-1 1-.767-.672-1.434-1.505-2-2.5a16.242 16.242 0 00-8 0 66.678 66.678 0 00-2 5.5c-2.272.634-3.939 1.968-5 4-8.513 4.013-11.18 10.346-8 19-.97 3.167-2.97 5.5-6 7-1.291-2.459-3.291-3.959-6-4.5-12.311-3.032-19.145 1.801-20.5 14.5-.656 2.486-2.156 4.153-4.5 5a287.462 287.462 0 005.5-18c2.295-2.438 5.128-3.938 8.5-4.5a130.373 130.373 0 0016-1.5 37.852 37.852 0 002.5-12 110.872 110.872 0 0014-11 64.77 64.77 0 016.5-11.5c1.333-.667 2.667-.667 4 0 2.646 2.802 4.646 5.968 6 9.5z" opacity="1"/>
  <path fill="#aa8475" d="M77.5 95.5a174.976 174.976 0 01-2 45l.5 7c.278.916.778 1.582 1.5 2v4a1437.77 1437.77 0 01-6-9 42.343 42.343 0 01-.5-15 360.228 360.228 0 016.5-34z" opacity="1"/>
  <path fill="#dcc0b2" d="M149.5 166.5c-.218-7.311-2.218-13.978-6-20a26.53 26.53 0 012.5-11c1.316 2.528 2.483 2.528 3.5 0 1.098 1.115 2.265 1.115 3.5 0a26.254 26.254 0 007 3c1.787 6.733.62 12.9-3.5 18.5a1431.77 1431.77 0 01-4.5 21.5c-.076-4.296-.909-8.296-2.5-12z" opacity="1"/>
  <path fill="#ceaa98" d="M228.5 145.5a46.153 46.153 0 01-4.5 7 312.91 312.91 0 01-25.5 26c-.709-.904-1.709-1.237-3-1-3.272-2.65-4.438-5.983-3.5-10-2.415.632-4.582 1.632-6.5 3-2.433-.286-2.433-.952 0-2a27.538 27.538 0 0111-5c-.363-2.411.637-3.911 3-4.5a4.457 4.457 0 01-2-1.5c.774-1.211 1.607-1.211 2.5 0 1.008-1.759 2.508-2.926 4.5-3.5-.951-.718-1.117-1.551-.5-2.5a14.506 14.506 0 015-4 28.931 28.931 0 011.5-4c-1.592-1.725-1.258-2.725 1-3 .283.789.783 1.456 1.5 2a14.748 14.748 0 014.5-3c.033-1.489.533-2.822 1.5-4 2.394 1.451 4.561 1.118 6.5-1 1.22.387 1.887 1.22 2 2.5a22.703 22.703 0 01-2 5 14.698 14.698 0 013 3.5z" opacity="1"/>
  <path fill="#d6a88f" d="M52.5 129.5c.311.978.978 1.645 2 2 3.006-1.504 3.672-.837 2 2a46.215 46.215 0 00-8.5 7c-2.753 5.67-4.587 11.67-5.5 18 .628 3.248 1.794 6.248 3.5 9 3.155-1.712 4.822-4.379 5-8a55.208 55.208 0 016.5-6 235.467 235.467 0 00-8.5 20l-3 2a18.982 18.982 0 01-1.5-8h-3v-8a2.427 2.427 0 00-.5-2c-4.232.739-7.065 3.073-8.5 7-.663 2.141-.997 4.475-1 7a3716.806 3716.806 0 003 81c-1.325-1.453-2.158-1.119-2.5 1l-1-3c-.21 1.558-.71 2.891-1.5 4a1697.13 1697.13 0 00-3.5-66c-2.095-4.261-1.928-8.427.5-12.5-2.819-7.799-2.152-15.299 2-22.5a3.646 3.646 0 00-1-1.5c2.938-3.2 5.938-6.033 9-8.5.913-2.335 2.247-4.501 4-6.5l-1-1a54.876 54.876 0 0110-2.5c-.032-2.119.968-3.452 3-4z" opacity="1"/>
  <path fill="#d6ab92" d="M174.5 134.5c1.776 3.052 2.443 6.219 2 9.5a220.905 220.905 0 00-8 11.5 13.015 13.015 0 004 4.5 4.934 4.934 0 01-3 .5v3c2.848-1.157 5.348-.824 7.5 1 2.795-1.283 5.628-1.283 8.5 0a6.802 6.802 0 01-3 1.5c1.619.236 2.619 1.069 3 2.5-2.433 1.048-2.433 1.714 0 2 .543.06.876.393 1 1-5.914 2.104-11.914 2.438-18 1-3.067 1.447-5.234 3.78-6.5 7-2.72 11.431-1.72 22.431 3 33a81.316 81.316 0 002.5 3c-.237 1.291.096 2.291 1 3l-3 4c-2.297-3.698-4.131-7.698-5.5-12a150.242 150.242 0 01-3-26c-1.092-2.431-2.259-2.431-3.5 0v-4a337.361 337.361 0 0113-33c3.508-1.981 5.841-4.981 7-9-1.647-1.988-1.314-3.321 1-4z" opacity="1"/>
  <path fill="#8f6355" d="M245.5 118.5a343.58 343.58 0 001 4l-6 24c-1.138-2.804-1.305-5.804-.5-9a568.14 568.14 0 005.5-19z" opacity="1"/>
  <path fill="#a56f51" d="M296.5 126.5c-.951 2.12-2.451 3.786-4.5 5l-.5 4.5c.173 4.827.173 9.661 0 14.5a9.201 9.201 0 002 4.5c-1.504 1.788-3.171 2.288-5 1.5-3.148.64-3.481 1.64-1 3-1.48 2.547-.814 3.714 2 3.5 1.261-3.018 2.595-2.852 4 .5l-1.5 18-1 4c-2.412 2.071-4.412 4.404-6 7a4.934 4.934 0 01-.5-3c-3.664.297-6.83-.703-9.5-3-.667-4-.667-8 0-12a68.907 68.907 0 016-10 12.494 12.494 0 000-7c-1.011-.837-2.178-1.17-3.5-1 .17-1.322-.163-2.489-1-3.5a25.775 25.775 0 01-7.5-3.5 56.398 56.398 0 00-8 6 193.676 193.676 0 01-7 21c-1.041.971-1.874 1.971-2.5 3-1.574-1.602-2.241-3.602-2-6 1.78-1.49 2.446-3.49 2-6 2.344-.847 3.844-2.514 4.5-5 1.355-12.699 8.189-17.532 20.5-14.5 2.709.541 4.709 2.041 6 4.5 3.03-1.5 5.03-3.833 6-7-3.18-8.654-.513-14.987 8-19z" opacity="1"/>
  <path fill="#9a6c55" d="M314.5 118.5a449.74 449.74 0 015.5 37c.5 9.327.666 18.661.5 28a655.874 655.874 0 00-1 17 480.666 480.666 0 00-5 21 1090.355 1090.355 0 002-38c.832-9.928.832-19.928 0-30 .811-11.415-.189-22.749-3-34 .667 0 1-.333 1-1z" opacity="1"/>
  <path fill="#360a16" d="M71.5 144.5c1.97 2.979 3.97 5.979 6 9l4 6a8.435 8.435 0 00.5 4 85.21 85.21 0 018 12 33.335 33.335 0 018 8 72.755 72.755 0 0110 17c4.447 2.888 6.114 6.888 5 12a3.647 3.647 0 00-1.5-1c-.411.762-.577 1.762-.5 3a9.839 9.839 0 00-4-1c-4.129 2.337-8.629 4.004-13.5 5 .774 1.211 1.607 1.211 2.5 0 .905 2.732.238 3.399-2 2-1.744 2.129-3.91 2.962-6.5 2.5 2.528-.669 2.528-1.502 0-2.5-.359 3.367-1.859 6.033-4.5 8a9.568 9.568 0 01-3-3c-1.455 2.913-3.788 4.913-7 6a3.647 3.647 0 00-1.5-1 47.059 47.059 0 01-5 6.5c-4.394-.497-6.728 1.336-7 5.5-4.47-.47-4.97.53-1.5 3a20.093 20.093 0 011.5 6 10.162 10.162 0 00-3-3c.073-1.527-.594-2.527-2-3a1304.39 1304.39 0 01-6-9l-1-4c.572-1.473.572-3.14 0-5a47.78 47.78 0 004.5 8 119.71 119.71 0 015.5-16.5c-1.102-2.401-1.269-4.901-.5-7.5a3.647 3.647 0 011.5-1 71.433 71.433 0 014-15c-.535-1.771-1.369-2.104-2.5-1a4.932 4.932 0 01-.5-3c2.411.363 3.911-.637 4.5-3 .638-3.036.472-6.036-.5-9 .36-3.912 1.36-7.579 3-11a178.638 178.638 0 00-.5-9l-3-3a8.908 8.908 0 01-3 4c-.39 4.474-1.558 8.474-3.5 12 .116-3.36.45-6.693 1-10a133.978 133.978 0 013-11l1-2a18.476 18.476 0 003.5-2c.728-4.787 2.895-5.787 6.5-3z" opacity="1"/>
  <path fill="#420f1b" d="M47.5 227.5c-2.414-7.838-2.58-15.838-.5-24a1079.173 1079.173 0 019.5-31c1.942-3.526 3.11-7.526 3.5-12a8.908 8.908 0 003-4l3 3c.252 3.167.418 6.167.5 9-1.64 3.421-2.64 7.088-3 11 .972 2.964 1.138 5.964.5 9-.589 2.363-2.089 3.363-4.5 3a4.932 4.932 0 00.5 3c1.131-1.104 1.965-.771 2.5 1a71.433 71.433 0 00-4 15 3.647 3.647 0 00-1.5 1c-.769 2.599-.602 5.099.5 7.5a119.71 119.71 0 00-5.5 16.5 47.78 47.78 0 01-4.5-8z" opacity="1"/>
  <path fill="#bf9179" d="M140.5 155.5c.958.453 1.792 1.119 2.5 2 .755 4.08 2.255 7.746 4.5 11 .734 1.208 1.067 2.541 1 4a237.543 237.543 0 01-1.5 35c-.383.556-.883.889-1.5 1 1.8-11.268 2.3-22.601 1.5-34a115.668 115.668 0 00-7.5-10 7.248 7.248 0 00-2.5 2 310.27 310.27 0 00-2.5 14c1.221 4.565.388 8.898-2.5 13-1.236 7.784-4.07 14.784-8.5 21-.021-1.534-.354-3.201-1-5 2.274-4.52 3.608-9.354 4-14.5-2.179-4.903-3.345-10.069-3.5-15.5-1.706-.808-2.539-2.141-2.5-4v-3c2.324.495 4.491.495 6.5 0 3.698 3.993 4.365 3.327 2-2a140.272 140.272 0 00-6.5-8.5c-4.305-2.007-8.305-4.341-12-7-7.447-7.616-6.281-13.116 3.5-16.5 2.034-.146 3.701.52 5 2a3.647 3.647 0 011.5-1c3.492 3.249 7.492 5.749 12 7.5a107.76 107.76 0 008 8.5z" opacity="1"/>
  <path fill="#000" d="M2.5 158.5c1.333.667 1.333.667 0 0z" opacity=".004"/>
  <path fill="#e4bba2" d="M26.5 110.5a17.417 17.417 0 01-3.5 8c-.79 2.212-.622 4.212.5 6-1.973 3.865-2.64 7.865-2 12a28.043 28.043 0 011.5 5c1.5.833 2.667 2 3.5 3.5a99.699 99.699 0 00-3.5 6.5l-.5 16.5c1.054 26.034 2.721 52.2 5 78.5a196.373 196.373 0 01-3 33.5c-.262 5.174.405 10.34 2 15.5.486 6.691-1.348 12.691-5.5 18a388.628 388.628 0 00-4 17c-.759 1.563-1.926 2.563-3.5 3a40.846 40.846 0 002-12c2.865-5.604 4.531-11.604 5-18 1.518-4.066 2.351-8.399 2.5-13a711.011 711.011 0 00-3-99c-.145-4.023-.979-7.856-2.5-11.5.616-1.4.95-2.9 1-4.5a142.864 142.864 0 01-2-20 68.94 68.94 0 000-21c.626-5.952 2.46-11.618 5.5-17 .495-1.973.662-3.973.5-6 1.459.067 2.792-.266 4-1z" opacity="1"/>
  <path fill="#dfb49c" d="M64.5 141.5a28.786 28.786 0 00-3 8l-1 2c-1.527-.073-2.527.594-3 2a55.208 55.208 0 00-6.5 6c-.178 3.621-1.845 6.288-5 8-1.706-2.752-2.872-5.752-3.5-9 .913-6.33 2.747-12.33 5.5-18a46.215 46.215 0 018.5-7c2.217-.869 4.55-1.202 7-1a41.742 41.742 0 011 9z" opacity="1"/>
  <path fill="#8a573d" d="M316.5 183.5a1090.355 1090.355 0 01-2 38c.175 2.121-.159 4.121-1 6a216.954 216.954 0 00-4.5 26 407.35 407.35 0 01-2.5 34c-1.157-8.824-1.324-17.824-.5-27 1.303-8.17 1.97-16.503 2-25 2.476-12.662 4.31-25.662 5.5-39a32.611 32.611 0 00-2-10.5c2.481-1.804 2.481-3.304 0-4.5a18.404 18.404 0 00-2-7 610.191 610.191 0 00-11 25c-.617.111-1.117.444-1.5 1a25.238 25.238 0 010-10 22198.4 22198.4 0 0013-36c2.148 1.477 3.482 3.477 4 6a104.775 104.775 0 012.5 23z" opacity="1"/>
  <path fill="#dbd0bf" d="M69.5 90.5c.992-.172 1.658.162 2 1a488.284 488.284 0 00-24 2.5l-4 2c-1.342 2.892-3.675 4.225-7 4 .457.414.79.914 1 1.5-5.546.539-10.212 2.872-14 7-.886.825-1.219 1.825-1 3a1346.338 1346.338 0 01-6 7 15.42 15.42 0 00-1 7c-1.059 1.1-1.892 2.434-2.5 4a617.725 617.725 0 00.5 58c-1.276-2.062-2.11-4.396-2.5-7a245.639 245.639 0 010-52c.763-9.089 4.596-16.589 11.5-22.5 7.74-5.033 15.74-9.7 24-14a125.504 125.504 0 0123-1.5z" opacity="1"/>
  <path fill="#b2836b" d="M145.5 208.5a9.82 9.82 0 01-3 4c2.027-9.804 2.527-19.804 1.5-30a506.083 506.083 0 00-9.5 15 665.07 665.07 0 01-7.5 19c-.708.881-1.542 1.547-2.5 2a6.547 6.547 0 01-3-3c.992.172 1.658-.162 2-1 4.43-6.216 7.264-13.216 8.5-21 2.888-4.102 3.721-8.435 2.5-13a310.27 310.27 0 012.5-14 7.248 7.248 0 012.5-2 115.668 115.668 0 017.5 10c.8 11.399.3 22.732-1.5 34z" opacity="1"/>
  <path fill="#dbb199" d="M52.5 129.5c-2.032.548-3.032 1.881-3 4a54.876 54.876 0 00-10 2.5l1 1c-1.753 1.999-3.087 4.165-4 6.5-3.063 2.467-6.063 5.3-9 8.5.457.414.79.914 1 1.5-4.152 7.201-4.819 14.701-2 22.5-2.428 4.073-2.595 8.239-.5 12.5a1697.13 1697.13 0 013.5 66 326.687 326.687 0 01-2 41h-1c-1.595-5.16-2.262-10.326-2-15.5a196.373 196.373 0 003-33.5 1711.593 1711.593 0 01-5-78.5l.5-16.5a99.699 99.699 0 013.5-6.5c-.833-1.5-2-2.667-3.5-3.5a28.043 28.043 0 00-1.5-5c-.64-4.135.027-8.135 2-12 4.423-1.581 6.09.085 5 5 1.7-.16 3.366.006 5 .5l-2 1c4.25 1.817 8.084.984 11.5-2.5 2.713 1.489 5.213 1.156 7.5-1a28.04 28.04 0 005 1.5 4.934 4.934 0 01-3 .5z" opacity="1"/>
  <path fill="#875034" d="M311.5 181.5v3c-2.792-.048-4.625 1.285-5.5 4a551.42 551.42 0 01-9.5 22 25.02 25.02 0 005 7.5 14.51 14.51 0 00-4.5 4.5 74.344 74.344 0 01-1.5 9.5c1.115 1.235 1.115 2.402 0 3.5l2 3c-2.994 7.256-3.327 14.589-1 22a1235.972 1235.972 0 01-2 15.5c.698 5.063-.302 9.896-3 14.5-2.452 2.559-5.452 4.059-9 4.5-.833 1.5-2 2.667-3.5 3.5a92.936 92.936 0 01-4.5 15 18.924 18.924 0 003 5 19.953 19.953 0 014.5-3c1.789.909 3.623 1.076 5.5.5l5-7a10.258 10.258 0 014-1.5c2.694 2.869 6.027 4.869 10 6a168.522 168.522 0 012-6v9h-9v-3c-1.967.239-3.801-.094-5.5-1l-1.5 3a40.252 40.252 0 00-8.5 6c-2.885-.817-5.385.016-7.5 2.5a12.93 12.93 0 01-5 .5v-3a452.977 452.977 0 004.5-22 288.754 288.754 0 0116-15c.023-7.783.857-15.45 2.5-23a173.197 173.197 0 01-3-25.5c.616-2.64.283-5.306-1-8a17.437 17.437 0 013-6.5c-1.093-3.608-1.26-7.275-.5-11a42.51 42.51 0 005.5-11 610.191 610.191 0 0111-25 18.404 18.404 0 012 7z" opacity="1"/>
  <path fill="#d7bcaf" d="M77.5 149.5a42.258 42.258 0 005 7c.929 1.189 1.262 2.522 1 4 2.138.203 3.805 1.203 5 3a3.647 3.647 0 001.5-1l2 4c8.257 6.924 15.924 14.591 23 23a12.804 12.804 0 003 6c.215 3.303.382 6.47.5 9.5-1.496.507-2.663.007-3.5-1.5-.399.228-.565.562-.5 1a1086.939 1086.939 0 00-33-45l-4-6v-4z" opacity="1"/>
  <path fill="#be8c72" d="M60.5 151.5a133.978 133.978 0 00-3 11 129.333 129.333 0 00-7 21c-.617.111-1.117.444-1.5 1a74.276 74.276 0 01-7.5-17h3a18.96 18.96 0 001.5 8l3-2a235.467 235.467 0 018.5-20c.473-1.406 1.473-2.073 3-2z" opacity="1"/>
  <path fill="#633727" d="M272.5 157.5v2c.315 3.871-.018 7.538-1 11a4.934 4.934 0 00-.5-3 347.211 347.211 0 01-10 28 102.727 102.727 0 00-3.5 30c-.667 1.333-1.333 1.333-2 0a376.287 376.287 0 00-3-35 18.473 18.473 0 013.5 2 141.078 141.078 0 018.5-17.5 230.579 230.579 0 012-11.5c.951.826 1.951.992 3 .5.359-2.63 1.359-4.797 3-6.5z" opacity="1"/>
  <path fill="#340914" d="M168.5 234.5c-.617-.111-1.117-.444-1.5-1-2.794.993-5.627 1.493-8.5 1.5a3.647 3.647 0 01-1-1.5c1.778-1.226 2.778-2.893 3-5 6.351-2.688 10.684-7.355 13-14 .825-.886 1.825-1.219 3-1a10.098 10.098 0 011.5-6 64.783 64.783 0 008-11c4.775-3.951 8.608-8.618 11.5-14 2.584-.069 4.584-1.235 6-3.5 1.333-.667 2.667-.667 4 0a14.828 14.828 0 00-2 6.5c5.051-1.641 8.718.025 11 5a59.503 59.503 0 007 3l-1 2c5.025 2.807 5.692 2.307 2-1.5.761-4.358 1.928-4.525 3.5-.5 7.113-.688 8.113 1.646 3 7l-1 11c-3.132 2.903-5.298 2.236-6.5-2-.886.825-1.219 1.825-1 3-1.175-.219-2.175.114-3 1 3.987 2.422 3.654 4.422-1 6-1.895-2.132-4.062-2.466-6.5-1a9.258 9.258 0 01-2.5-2 19.745 19.745 0 00-5 5.5 84.902 84.902 0 01-13 .5c.262 1.478-.071 2.811-1 4a108.267 108.267 0 01-7.5 4c-1.44-1.546-3.273-2.379-5.5-2.5 2.284-1.363 2.451-2.863.5-4.5-1.83 2.584-2.664 5.251-2.5 8-1.759 1.254-3.259.921-4.5-1-1.481.971-2.315 2.304-2.5 4z" opacity="1"/>
  <path fill="#ddbaa7" d="M195.5 177.5c-1.439 3.186-3.606 5.852-6.5 8a4.933 4.933 0 00-2.5-1c-6.575 2.354-13.075 2.354-19.5 0-2.474 6.083-3.141 12.416-2 19 .706 3.752 1.873 6.585 3.5 8.5a10.98 10.98 0 01-1 3.5 81.316 81.316 0 01-2.5-3c-4.72-10.569-5.72-21.569-3-33 1.266-3.22 3.433-5.553 6.5-7 6.086 1.438 12.086 1.104 18-1-.124-.607-.457-.94-1-1 1.918-1.368 4.085-2.368 6.5-3-.938 4.017.228 7.35 3.5 10z" opacity="1"/>
  <path fill="#2d0711" d="M243.5 173.5c-1.77 3.253-.936 5.586 2.5 7 1.437 5.183 1.437 10.183 0 15-1.016 1.134-1.683.801-2-1-1.744 1.149-1.911 2.483-.5 4-3.131 5.543-4.798 11.543-5 18h-5c-.919 4.069-3.586 6.236-8 6.5-2.057 3.3-3.057 3.133-3-.5-4.651-.089-8.484 1.578-11.5 5-2.139-1.269-4.305-1.269-6.5 0a46.548 46.548 0 01-8 5c-.925-1.141-1.759-1.141-2.5 0-.388-.928-1.055-1.595-2-2-3.493 3.23-7.493 3.897-12 2-3.61 1.542-7.444 2.208-11.5 2 .185-1.696 1.019-3.029 2.5-4 1.241 1.921 2.741 2.254 4.5 1-.164-2.749.67-5.416 2.5-8 1.951 1.637 1.784 3.137-.5 4.5 2.227.121 4.06.954 5.5 2.5a108.267 108.267 0 007.5-4c.929-1.189 1.262-2.522 1-4a84.902 84.902 0 0013-.5 19.745 19.745 0 015-5.5 9.258 9.258 0 002.5 2c2.438-1.466 4.605-1.132 6.5 1 4.654-1.578 4.987-3.578 1-6 .825-.886 1.825-1.219 3-1-.219-1.175.114-2.175 1-3 1.202 4.236 3.368 4.903 6.5 2l1-11c5.113-5.354 4.113-7.688-3-7-1.572-4.025-2.739-3.858-3.5.5 3.692 3.807 3.025 4.307-2 1.5l1-2a59.503 59.503 0 01-7-3c-2.282-4.975-5.949-6.641-11-5a14.828 14.828 0 012-6.5c-1.333-.667-2.667-.667-4 0-1.416 2.265-3.416 3.431-6 3.5-2.892 5.382-6.725 10.049-11.5 14a64.783 64.783 0 01-8 11 10.098 10.098 0 00-1.5 6c-1.175-.219-2.175.114-3 1-2.316 6.645-6.649 11.312-13 14l1-2c1.667-1 3-2.333 4-4l3-4a312.152 312.152 0 0129-38c5.073-3.566 9.74-7.732 14-12.5.949-.617 1.782-.451 2.5.5a17.354 17.354 0 003.5-7c7.026-5.194 12.859-11.528 17.5-19a35.797 35.797 0 014 10 362.018 362.018 0 014.5 21z" opacity="1"/>
  <path fill="#865239" d="M272.5 157.5c-1.641 1.703-2.641 3.87-3 6.5-1.049.492-2.049.326-3-.5a230.579 230.579 0 00-2 11.5 141.078 141.078 0 00-8.5 17.5 18.473 18.473 0 00-3.5-2v-1a111.06 111.06 0 01-5-16h2c-.241 2.398.426 4.398 2 6 .218 3.681 1.384 4.348 3.5 2a107.134 107.134 0 008-24c2.646-1.326 4.979-2.992 7-5 2.157.885 2.99 2.552 2.5 5z" opacity="1"/>
  <path fill="#784732" d="M41.5 166.5v1a74.276 74.276 0 007.5 17c.383-.556.883-.889 1.5-1-.554 3.246-1.554 6.246-3 9a144.019 144.019 0 01-6.5-20c-.79-2.212-.623-4.212.5-6z" opacity="1"/>
  <path fill="#9d674a" d="M313.5 119.5c2.811 11.251 3.811 22.585 3 34-1.485-5.876-1.985-11.876-1.5-18a37.28 37.28 0 01-4.5-12l-2-1a50.426 50.426 0 01-9 5c2.35 1.274 2.183 2.607-.5 4-1.85 3.037-1.85 6.037 0 9 6.108 2.822 8.108 7.488 6 14a1597.534 1597.534 0 01-14.5 42.5c-2.61.147-4.944.981-7 2.5a87.52 87.52 0 01-8.5-7c-.978-4.06-2.145-8.06-3.5-12 2.702-6.425 3.536-13.092 2.5-20-.383-.556-.883-.889-1.5-1v-2c.49-2.448-.343-4.115-2.5-5-2.021 2.008-4.354 3.674-7 5a107.134 107.134 0 01-8 24c-2.116 2.348-3.282 1.681-3.5-2 .626-1.029 1.459-2.029 2.5-3a193.676 193.676 0 007-21 56.398 56.398 0 018-6 25.775 25.775 0 007.5 3.5c.837 1.011 1.17 2.178 1 3.5 1.322-.17 2.489.163 3.5 1a12.494 12.494 0 010 7 68.907 68.907 0 00-6 10c-.667 4-.667 8 0 12 2.67 2.297 5.836 3.297 9.5 3a4.934 4.934 0 00.5 3c1.588-2.596 3.588-4.929 6-7l1-4 1.5-18c-1.405-3.352-2.739-3.518-4-.5-2.814.214-3.48-.953-2-3.5-2.481-1.36-2.148-2.36 1-3 1.829.788 3.496.288 5-1.5a9.201 9.201 0 01-2-4.5c.173-4.839.173-9.673 0-14.5l.5-4.5c2.049-1.214 3.549-2.88 4.5-5 1.061-2.032 2.728-3.366 5-4a66.678 66.678 0 012-5.5 16.242 16.242 0 018 0c.566.995 1.233 1.828 2 2.5z" opacity="1"/>
  <path fill="#a26e54" d="M142.5 212.5l-2 1a92.175 92.175 0 002-16c-1.175-.219-2.175.114-3 1a69.17 69.17 0 00-3 11c-1.624-.14-2.79.527-3.5 2a37.66 37.66 0 00-3.5 13c1.808.009 3.475-.491 5-1.5 2.735-2.535 4.735-5.368 6-8.5-.711 6.711-4.378 10.378-11 11-2.4-1.796-4.067-4.13-5-7 .958-.453 1.792-1.119 2.5-2a665.07 665.07 0 007.5-19 506.083 506.083 0 019.5-15c1.027 10.196.527 20.196-1.5 30z" opacity="1"/>
  <path fill="#e1c4b6" d="M195.5 177.5c1.291-.237 2.291.096 3 1l-1 2a312.152 312.152 0 00-29 38c-.904-.709-1.237-1.709-1-3a10.98 10.98 0 001-3.5c-1.627-1.915-2.794-4.748-3.5-8.5-1.141-6.584-.474-12.917 2-19 6.425 2.354 12.925 2.354 19.5 0a4.933 4.933 0 012.5 1c2.894-2.148 5.061-4.814 6.5-8z" opacity="1"/>
  <path fill="#b0a894" d="M323.5 172.5v9a191.496 191.496 0 00-4 19c.26-5.672.593-11.339 1-17 .821-3.141 1.321-6.475 1.5-10 .383-.556.883-.889 1.5-1z" opacity=".051"/>
  <path fill="#ebc6af" d="M22.5 111.5a18.437 18.437 0 01-.5 6c-3.04 5.382-4.874 11.048-5.5 17a68.94 68.94 0 010 21c.197 6.713.864 13.379 2 20-.05 1.6-.384 3.1-1 4.5 1.521 3.644 2.355 7.477 2.5 11.5a711.011 711.011 0 013 99c-.149 4.601-.982 8.934-2.5 13a615.126 615.126 0 00-1.5-111c-.71-1.473-1.876-2.14-3.5-2a276.036 276.036 0 010-65 15.42 15.42 0 011-7c2.052-2.378 4.052-4.711 6-7z" opacity="1"/>
  <path fill="#220409" d="M252.5 189.5v1a376.287 376.287 0 013 35c-1.807-7.604-2.64-15.604-2.5-24-.561 3.595-1.728 6.928-3.5 10 .995 2.602 1.328 5.435 1 8.5-2.618 3.352-3.951 7.186-4 11.5h-3a455.036 455.036 0 01-1 15h-3c-.042-3.085-1.375-5.419-4-7a11.38 11.38 0 00-2 2.5c-10.81 1.809-21.643 1.309-32.5-1.5-5.838.029-11.671.029-17.5 0-2.197-.348-4.03-1.348-5.5-3-2.964.166-6.131.666-9.5 1.5.916.278 1.582.778 2 1.5a27.624 27.624 0 01-10-2.5c2.041-1.741 4.208-1.908 6.5-.5a263.816 263.816 0 0016.5-3 9.201 9.201 0 014.5 2 203.92 203.92 0 0121.5-3 3.647 3.647 0 00-1-1.5c5.886.015 11.553-.818 17-2.5 2.108 1.449 3.775.949 5-1.5 8.303-2.667 12.469-8.5 12.5-17.5l4-10c1.387 1.801 2.887 2.468 4.5 2-1.333-1.333-1.333-2.667 0-4a6.802 6.802 0 00-3-1.5c.935-2.381 1.268-4.881 1-7.5 1-1.333 2-1.333 3 0z" opacity="1"/>
  <path fill="#8e573c" d="M140.5 213.5v1c-1.265 3.132-3.265 5.965-6 8.5-1.525 1.009-3.192 1.509-5 1.5a37.66 37.66 0 013.5-13c.71-1.473 1.876-2.14 3.5-2a69.17 69.17 0 013-11c.825-.886 1.825-1.219 3-1a92.175 92.175 0 01-2 16z" opacity="1"/>
  <path fill="#c7a18d" d="M148.5 172.5c.826 4.816 1.326 9.816 1.5 15 1.903-1.941 2.736-4.274 2.5-7h1v4a165.964 165.964 0 002.5 37c1.406 2.244 3.239 3.91 5.5 5l-1 2-3 2c-1.042-1.291-2.208-1.291-3.5 0-1.813-2.261-3.313-4.595-4.5-7-4.675-.631-7.342 1.369-8 6-2.567.221-4.901.888-7 2-2.39-1.391-4.057-3.391-5-6 6.622-.622 10.289-4.289 11-11v-1l2-1a9.82 9.82 0 003-4c.617-.111 1.117-.444 1.5-1a237.543 237.543 0 001.5-35z" opacity="1"/>
  <path fill="#451614" d="M57.5 162.5a76.944 76.944 0 00-1 10 1079.173 1079.173 0 00-9.5 31c-2.08 8.162-1.914 16.162.5 24 .572 1.86.572 3.527 0 5a46.753 46.753 0 01-3-8c-1.623-10.923-.623-21.589 3-32 1.446-2.754 2.446-5.754 3-9a129.333 129.333 0 017-21z" opacity="1"/>
  <path fill="#000" d="M13.5 214.5c1.333.667 1.333.667 0 0z" opacity=".004"/>
  <path fill="#60311f" d="M267.5 189.5a571.109 571.109 0 014.5 37c3.379 8.059 3.046 16.059-1 24a227.27 227.27 0 00-10.5-16h1c3.627 5.306 6.627 4.806 9-1.5a2040.716 2040.716 0 00-4-36.5c.003-2.525.337-4.859 1-7z" opacity="1"/>
  <path fill="#31110a" d="M271.5 170.5a19.22 19.22 0 00-1 6c-1.295 2.479-2.295 5.146-3 8-2.307 4.311-3.807 8.977-4.5 14a159.829 159.829 0 00.5 29.5c.003 2.484-.663 4.651-2 6.5h-1c-.342-.838-1.008-1.172-2-1 2.351-3.066 2.518-6.399.5-10-.278.916-.778 1.582-1.5 2a102.727 102.727 0 013.5-30 347.211 347.211 0 0010-28c.483.948.649 1.948.5 3z" opacity="1"/>
  <path fill="#bc8b71" d="M165.5 222.5c-1 1.667-2.333 3-4 4-2.261-1.09-4.094-2.756-5.5-5a165.964 165.964 0 01-2.5-37c1.241-2.431 2.408-2.431 3.5 0a150.242 150.242 0 003 26c1.369 4.302 3.203 8.302 5.5 12z" opacity="1"/>
  <path fill="#4d2415" d="M267.5 184.5v5c-.663 2.141-.997 4.475-1 7a2040.716 2040.716 0 014 36.5c-2.373 6.306-5.373 6.806-9 1.5 1.337-1.849 2.003-4.016 2-6.5a159.829 159.829 0 01-.5-29.5c.693-5.023 2.193-9.689 4.5-14z" opacity="1"/>
  <path fill="#afa794" d="M319.5 200.5a986.116 986.116 0 00-8 65c-.661-1.634-.994-3.467-1-5.5a279.008 279.008 0 003-32.5c.841-1.879 1.175-3.879 1-6a480.666 480.666 0 015-21z" opacity=".239"/>
  <path fill="#2f0711" d="M81.5 159.5a1086.939 1086.939 0 0133 45v2a41.541 41.541 0 011 8c2.403-.107 4.236.893 5.5 3 2.722 5.721 6.555 10.555 11.5 14.5-6.374 4.149-13.374 5.316-21 3.5 2.137-.58 3.97-1.58 5.5-3l1 1c.52-1.789.187-3.456-1-5-3.728 3.385-7.228 3.385-10.5 0-2.174 1.363-4.341 1.697-6.5 1a233.391 233.391 0 00-13.5 3 77.53 77.53 0 00-12.5 7l-1-1c-.043 2.717-1.043 3.384-3 2-2.27 2.878-5.103 4.878-8.5 6-.16 1.699.007 3.366.5 5a26.466 26.466 0 008 4c3.828-.831 7.661-1.664 11.5-2.5.556-.383.89-.883 1-1.5l4-1a5.728 5.728 0 01-1 3 144.761 144.761 0 01-20 4c-1.235-.221-2.235-.888-3-2a168.724 168.724 0 01-2 6 34.17 34.17 0 00-1-10 20.093 20.093 0 00-1.5-6c-3.47-2.47-2.97-3.47 1.5-3 .272-4.164 2.606-5.997 7-5.5a47.059 47.059 0 005-6.5 3.647 3.647 0 011.5 1c3.212-1.087 5.545-3.087 7-6a9.568 9.568 0 003 3c2.641-1.967 4.141-4.633 4.5-8 2.528.998 2.528 1.831 0 2.5 2.59.462 4.756-.371 6.5-2.5 2.238 1.399 2.905.732 2-2-.893 1.211-1.726 1.211-2.5 0 4.871-.996 9.371-2.663 13.5-5a9.839 9.839 0 014 1c-.077-1.238.089-2.238.5-3a3.647 3.647 0 011.5 1c1.114-5.112-.553-9.112-5-12a72.755 72.755 0 00-10-17 33.335 33.335 0 00-8-8 85.21 85.21 0 00-8-12 8.435 8.435 0 01-.5-4z" opacity="1"/>
  <path fill="#ac7b65" d="M41.5 159.5v7c-1.123 1.788-1.29 3.788-.5 6a144.019 144.019 0 006.5 20c-3.623 10.411-4.623 21.077-3 32a8.435 8.435 0 01-.5 4c-.763-2.563-1.263-2.563-1.5 0 .56 3.035 1.227 6.035 2 9a190.207 190.207 0 00-1 27c0 .667-.333 1-1 1a121.98 121.98 0 01-2.5-20l-1-38-1 3-.5-5c1.82-8.528 1.32-16.862-1.5-25a72.496 72.496 0 010-17 54.666 54.666 0 015.5-4z" opacity="1"/>
  <path fill="#360915" d="M153.5 239.5c-.107 1.879.393 2.212 1.5 1 1.066 1.599 2.566 2.599 4.5 3 1.698-1.181 3.365-1.181 5 0a25.866 25.866 0 01-5 3c1.409.154 3.076.321 5 .5a32.367 32.367 0 003 4.5l2-4c.951-.826 1.951-.992 3-.5-1.054 1.388-1.22 2.888-.5 4.5 3.17 1.891 6.337 3.058 9.5 3.5a13.92 13.92 0 003 4l-5 2.5c-5.944-1.014-6.611.652-2 5-2.511-.597-4.844.069-7 2-18.351-2.763-36.685-2.596-55 .5a23.423 23.423 0 01-6 2.5c1.227-4.262 3.893-5.928 8-5a20.506 20.506 0 01-7-3.5 130.883 130.883 0 0012-2c2.333-2.521 2.666-5.355 1-8.5a213.957 213.957 0 00-4-5 3.647 3.647 0 00-1.5 1c-.368-1.41-1.201-2.41-2.5-3a91.524 91.524 0 01-8 .5c-5.49 1.47-10.49 3.97-15 7.5 1.033.952 2.2.952 3.5 0 1.28.113 2.113.78 2.5 2a390.24 390.24 0 00-11.5 3c-1.824-1.249-1.657-2.415.5-3.5-.544-.717-1.21-1.217-2-1.5a5.728 5.728 0 001-3c3.344-1.818 7.01-2.818 11-3a1430.725 1430.725 0 0122-5.5 110.33 110.33 0 0015.5-2.5c2.475 1.035 4.475.702 6-1 4.15 1.431 8.316 1.764 12.5 1z" opacity="1"/>
  <path fill="#666559" d="M256.5 235.5a17.843 17.843 0 01-4 6 20.093 20.093 0 011.5-6c.977-1.274 1.811-1.274 2.5 0z" opacity=".173"/>
  <path fill="#905a3e" d="M316.5 153.5a180.598 180.598 0 010 30 104.775 104.775 0 00-2.5-23c-.518-2.523-1.852-4.523-4-6a22198.4 22198.4 0 01-13 36 25.238 25.238 0 000 10c.383-.556.883-.889 1.5-1a42.51 42.51 0 01-5.5 11c-.76 3.725-.593 7.392.5 11a17.437 17.437 0 00-3 6.5c1.283 2.694 1.616 5.36 1 8a173.197 173.197 0 003 25.5 109.384 109.384 0 00-2.5 23 288.754 288.754 0 00-16 15 452.977 452.977 0 01-4.5 22h-1c.251-5.007.584-10.007 1-15v-1c1.159-10.826 1.326-21.826.5-33l-5.5-22c1.772 2.661 3.105 5.661 4 9 1.471.881 2.304 2.214 2.5 4 3.318-11.702 5.485-23.702 6.5-36-1.321-11.138-4.155-21.805-8.5-32-.5-6.325-.666-12.658-.5-19a19.22 19.22 0 011-6c.982-3.462 1.315-7.129 1-11 .617.111 1.117.444 1.5 1 1.036 6.908.202 13.575-2.5 20 1.355 3.94 2.522 7.94 3.5 12a87.52 87.52 0 008.5 7c2.056-1.519 4.39-2.353 7-2.5a1597.534 1597.534 0 0014.5-42.5c2.108-6.512.108-11.178-6-14-1.85-2.963-1.85-5.963 0-9 2.683-1.393 2.85-2.726.5-4a50.426 50.426 0 009-5l2 1a37.28 37.28 0 004.5 12c-.485 6.124.015 12.124 1.5 18z" opacity="1"/>
  <path fill="#1b0306" d="M255.5 225.5c.667 1.333 1.333 1.333 2 0 .722-.418 1.222-1.084 1.5-2 2.018 3.601 1.851 6.934-.5 10v1c-.667 0-1 .333-1 1h-1c-.689-1.274-1.523-1.274-2.5 0a20.093 20.093 0 00-1.5 6c.268 1.599-.066 2.932-1 4-2.084 2.276-3.584 4.943-4.5 8a84.902 84.902 0 00-.5 13 27.195 27.195 0 00-3 5 12.93 12.93 0 00-.5-5c-2.244-1.821-3.41-4.154-3.5-7a174.95 174.95 0 00-17-4 51.569 51.569 0 00-7-1 60.756 60.756 0 00-6-3.5 5970.924 5970.924 0 00-39-10.5c-.418-.722-1.084-1.222-2-1.5 3.369-.834 6.536-1.334 9.5-1.5 1.47 1.652 3.303 2.652 5.5 3 5.829.029 11.662.029 17.5 0 10.857 2.809 21.69 3.309 32.5 1.5a11.38 11.38 0 012-2.5c2.625 1.581 3.958 3.915 4 7h3c.416-4.993.749-9.993 1-15h3c.049-4.314 1.382-8.148 4-11.5.328-3.065-.005-5.898-1-8.5 1.772-3.072 2.939-6.405 3.5-10-.14 8.396.693 16.396 2.5 24z" opacity="1"/>
  <path fill="#28070e" d="M243.5 173.5c3.111 4.798 5.111 10.131 6 16 .268 2.619-.065 5.119-1 7.5a6.802 6.802 0 013 1.5c-1.333 1.333-1.333 2.667 0 4-1.613.468-3.113-.199-4.5-2l-4 10c-.031 9-4.197 14.833-12.5 17.5-1.225 2.449-2.892 2.949-5 1.5-5.447 1.682-11.114 2.515-17 2.5.457.414.791.914 1 1.5a203.92 203.92 0 00-21.5 3 9.201 9.201 0 00-4.5-2 263.816 263.816 0 01-16.5 3c-2.292-1.408-4.459-1.241-6.5.5a27.624 27.624 0 0010 2.5 5970.924 5970.924 0 0139 10.5 60.756 60.756 0 016 3.5c-1.644.214-3.144-.12-4.5-1-1.577 2.699-3.743 3.366-6.5 2 1.211-1.22 1.211-2.387 0-3.5a73.67 73.67 0 01-19-6c-5.833.33-11.166-1.003-16-4a90.673 90.673 0 01-16-2.5c-4.184.764-8.35.431-12.5-1-1.525 1.702-3.525 2.035-6 1a110.33 110.33 0 01-15.5 2.5 1430.725 1430.725 0 00-22 5.5c1.885-1.811 4.219-2.978 7-3.5 7.726-.801 15.06-2.801 22-6-5.304-1.066-10.304-.4-15 2-4.72.221-9.387.721-14 1.5l-2-1a74.894 74.894 0 01-17 6.5c-4.093 5.076-2.76 6.576 4 4.5-.11.617-.444 1.117-1 1.5-3.839.836-7.672 1.669-11.5 2.5a26.466 26.466 0 01-8-4 12.935 12.935 0 01-.5-5c3.397-1.122 6.23-3.122 8.5-6 1.957 1.384 2.957.717 3-2l1 1a77.53 77.53 0 0112.5-7 233.391 233.391 0 0113.5-3c2.159.697 4.326.363 6.5-1 3.272 3.385 6.772 3.385 10.5 0 1.187 1.544 1.52 3.211 1 5l-1-1c-1.53 1.42-3.363 2.42-5.5 3 7.626 1.816 14.626.649 21-3.5-4.945-3.945-8.778-8.779-11.5-14.5-1.264-2.107-3.097-3.107-5.5-3a41.541 41.541 0 00-1-8 16.635 16.635 0 015 6l2 3a6.547 6.547 0 003 3c.933 2.87 2.6 5.204 5 7 .943 2.609 2.61 4.609 5 6 2.126 4.377 5.626 6.043 10.5 5 5.574.796 9.741-1.204 12.5-6l3-2c-.222 2.107-1.222 3.774-3 5a3.647 3.647 0 001 1.5c2.873-.007 5.706-.507 8.5-1.5.383.556.883.889 1.5 1 4.056.208 7.89-.458 11.5-2 4.507 1.897 8.507 1.23 12-2 .945.405 1.612 1.072 2 2 .741-1.141 1.575-1.141 2.5 0a46.548 46.548 0 008-5c2.195-1.269 4.361-1.269 6.5 0 3.016-3.422 6.849-5.089 11.5-5-.057 3.633.943 3.8 3 .5 4.414-.264 7.081-2.431 8-6.5h5c.202-6.457 1.869-12.457 5-18-1.411-1.517-1.244-2.851.5-4 .317 1.801.984 2.134 2 1 1.437-4.817 1.437-9.817 0-15-3.436-1.414-4.27-3.747-2.5-7z" opacity="1"/>
  <path fill="#190204" d="M97.5 247.5c-3.99.182-7.656 1.182-11 3l-4 1c-6.76 2.076-8.093.576-4-4.5a74.894 74.894 0 0017-6.5l2 1c4.613-.779 9.28-1.279 14-1.5 4.696-2.4 9.696-3.066 15-2-6.94 3.199-14.274 5.199-22 6-2.781.522-5.115 1.689-7 3.5z" opacity="1"/>
  <path fill="#caad9d" d="M157.5 230.5c-2.759 4.796-6.926 6.796-12.5 6-4.874 1.043-8.374-.623-10.5-5 2.099-1.112 4.433-1.779 7-2 .658-4.631 3.325-6.631 8-6 1.187 2.405 2.687 4.739 4.5 7 1.292-1.291 2.458-1.291 3.5 0z" opacity="1"/>
  <path fill="#eacdbb" d="M15.5 125.5a276.036 276.036 0 000 65c1.624-.14 2.79.527 3.5 2a615.126 615.126 0 011.5 111c-.469 6.396-2.135 12.396-5 18a306.72 306.72 0 005-65.5 351.484 351.484 0 00-2.5-48.5c-.278-.916-.778-1.582-1.5-2a57.666 57.666 0 01-3-18 617.725 617.725 0 01-.5-58c.608-1.566 1.441-2.9 2.5-4z" opacity="1"/>
  <path fill="#615e55" d="M251.5 245.5a748.177 748.177 0 00-5 21 84.902 84.902 0 01.5-13c.916-3.057 2.416-5.724 4.5-8z" opacity=".082"/>
  <path fill="#2e0711" d="M153.5 239.5a90.673 90.673 0 0016 2.5c4.834 2.997 10.167 4.33 16 4a73.67 73.67 0 0019 6c1.211 1.113 1.211 2.28 0 3.5 2.757 1.366 4.923.699 6.5-2 1.356.88 2.856 1.214 4.5 1 2.361.174 4.694.507 7 1 2.444 1.572 5.11 3.072 8 4.5l2 5a128.139 128.139 0 00-2 13c-.185 2.376-1.185 4.209-3 5.5a239.555 239.555 0 01-21-4.5 133.199 133.199 0 01-19.5-7.5 3.647 3.647 0 01-1.5 1c-5.213-.967-10.213-2.3-15-4 2.156-1.931 4.489-2.597 7-2-4.611-4.348-3.944-6.014 2-5l5-2.5a13.92 13.92 0 01-3-4c-3.163-.442-6.33-1.609-9.5-3.5-.72-1.612-.554-3.112.5-4.5-1.049-.492-2.049-.326-3 .5l-2 4a32.367 32.367 0 01-3-4.5 317.314 317.314 0 01-5-.5 25.866 25.866 0 005-3c-1.635-1.181-3.302-1.181-5 0-1.934-.401-3.434-1.401-4.5-3-1.107 1.212-1.607.879-1.5-1z" opacity="1"/>
  <path fill="#79462f" d="M270.5 176.5c-.166 6.342 0 12.675.5 19 4.345 10.195 7.179 20.862 8.5 32-1.015 12.298-3.182 24.298-6.5 36-.196-1.786-1.029-3.119-2.5-4-.895-3.339-2.228-6.339-4-9a22.755 22.755 0 00-4-5c-.565-4.037-1.899-7.703-4-11v-1c.992-.172 1.658.162 2 1a227.27 227.27 0 0110.5 16c4.046-7.941 4.379-15.941 1-24a571.109 571.109 0 00-4.5-37v-5c.705-2.854 1.705-5.521 3-8z" opacity="1"/>
  <path fill="#3c0c18" d="M109.5 271.5c-15.413 2.151-29.913 7.151-43.5 15-1.86-6.951-2.36-13.951-1.5-21-.09-2.464-.757-4.63-2-6.5 1.237-.232 2.237-.732 3-1.5a144.761 144.761 0 0020-4c.79.283 1.456.783 2 1.5-2.157 1.085-2.324 2.251-.5 3.5a390.158 390.158 0 0111.5-3c-.387-1.22-1.22-1.887-2.5-2-1.3.952-2.467.952-3.5 0 4.51-3.53 9.51-6.03 15-7.5a91.524 91.524 0 008-.5c1.299.59 2.132 1.59 2.5 3a3.647 3.647 0 011.5-1c1.38 1.674 2.713 3.34 4 5 1.666 3.145 1.333 5.979-1 8.5a130.883 130.883 0 01-12 2 20.506 20.506 0 007 3.5c-4.107-.928-6.773.738-8 5z" opacity="1"/>
  <path fill="#95725f" d="M313.5 227.5a279.008 279.008 0 01-3 32.5c.006 2.033.339 3.866 1 5.5 0 .667-.333 1-1 1a8020.474 8020.474 0 00-3 24 284.616 284.616 0 007 40h-1a113.008 113.008 0 00-5-18v-5a69.588 69.588 0 01-2-20 407.35 407.35 0 002.5-34 216.954 216.954 0 014.5-26z" opacity="1"/>
  <path fill="#220409" d="M222.5 255.5a174.95 174.95 0 0117 4c.09 2.846 1.256 5.179 3.5 7a12.93 12.93 0 01.5 5l-1 8c-1.779 4.095-3.112 8.428-4 13l-8-4a400.493 400.493 0 01-3-5c1.815-1.291 2.815-3.124 3-5.5a128.139 128.139 0 012-13l-2-5c-2.89-1.428-5.556-2.928-8-4.5z" opacity="1"/>
  <path fill="#b9b19c" d="M257.5 235.5c0-.667.333-1 1-1 2.101 3.297 3.435 6.963 4 11a19.22 19.22 0 011 6c.086 4.357.42 8.69 1 13l-2 2c.758-10.855-.909-21.188-5-31z" opacity=".675"/>
  <path fill="#562b1e" d="M56.5 248.5a10.162 10.162 0 013 3 34.17 34.17 0 011 10c.907 7.604 1.74 15.271 2.5 23 .037 2.474.87 4.474 2.5 6l-1 2c-.838.342-1.172 1.008-1 2a85.308 85.308 0 01-3 11l-1 1a48.145 48.145 0 01-2.5-5 222.533 222.533 0 011.5-45c.165-2.506-.835-4.339-3-5.5.752-.671 1.086-1.504 1-2.5z" opacity="1"/>
  <path fill="#d2b1a0" d="M155.5 269.5a41.73 41.73 0 019 1c-1.684 3.207-2.684 6.707-3 10.5 1.986 5.617 2.486 11.45 1.5 17.5-1.617 3.284-3.95 5.951-7 8-4.785 13.474-8.285 13.141-10.5-1-.035-8.851.132-17.851.5-27 .117-3.004.951-5.671 2.5-8a21.435 21.435 0 017-1z" opacity="1"/>
  <path fill="#cca590" d="M34.5 252.5a6655.005 6655.005 0 013 28.5c-1.397 4.837-1.73 9.67-1 14.5-.998 2.528-1.831 2.528-2.5 0-.572 4.77-2.073 9.104-4.5 13-.958.453-1.792 1.119-2.5 2l-.5-2a52.37 52.37 0 001-13 326.687 326.687 0 002-41c.79-1.109 1.29-2.442 1.5-4l1 3c.342-2.119 1.175-2.453 2.5-1z" opacity="1"/>
  <path fill="#5e5f52" d="M246.5 266.5c-.339 4.746-1.672 9.08-4 13l1-8a27.195 27.195 0 013-5z" opacity=".322"/>
  <path fill="#d5b19e" d="M110.5 295.5c.738-2.217 1.071-4.384 1-6.5-1.721-1.437-3.221-.937-4.5 1.5a4.457 4.457 0 01-1.5-2 6.846 6.846 0 001-4c2.666.434 3.833-.566 3.5-3-3.297.579-6.297-.421-9-3-2.064 1.091-4.23 1.258-6.5.5 1.237-.232 2.237-.732 3-1.5 6.623-3.206 13.623-5.206 21-6 2.292-.256 4.459.077 6.5 1 2.47-1.987 5.303-2.487 8.5-1.5a83.811 83.811 0 01-11.5 15.5c-1.86 5.196-5.193 9.196-10 12l-1.5-3z" opacity="1"/>
  <path fill="#caa693" d="M148.5 270.5c-1.549 2.329-2.383 4.996-2.5 8a611.694 611.694 0 00-.5 27c2.215 14.141 5.715 14.474 10.5 1 3.05-2.049 5.383-4.716 7-8 .986-6.05.486-11.883-1.5-17.5.316-3.793 1.316-7.293 3-10.5a507.562 507.562 0 0125 5c2.293 2.7 1.293 4.2-3 4.5-5.614 5.239-8.78 11.739-9.5 19.5-6.822 7.623-12.155 16.29-16 26l-1-1c-4.56 4.904-10.06 6.237-16.5 4a61.042 61.042 0 01-2-16.5 5827.706 5827.706 0 003-40.5 6.846 6.846 0 014-1z" opacity="1"/>
  <path fill="#986b5b" d="M44.5 224.5a46.753 46.753 0 003 8l1 4a956.592 956.592 0 01-1 15.5 1197.222 1197.222 0 013.5 98.5c-1.17 7.335-4.17 13.669-9 19a108.273 108.273 0 00-2 9 2717.42 2717.42 0 00-7 14 209.065 209.065 0 01-8 27l-1-2c-3.357 4.05-5.024 8.717-5 14-2.788 3.479-4.122 7.479-4 12-3.022 4.9-4.522 10.234-4.5 16h-8a142.991 142.991 0 013.5-21A6920.388 6920.388 0 0019.5 417c-1.076-1.726-1.243-3.559-.5-5.5 5.559-10.894 10.059-21.894 13.5-33 9.065-8.796 14.398-19.463 16-32 .11-1.874-.556-3.374-2-4.5a23.252 23.252 0 001-6.5c-1.346-23.811-2.68-47.478-4-71a190.207 190.207 0 011-27 127.759 127.759 0 01-2-9c.237-2.563.737-2.563 1.5 0a8.435 8.435 0 00.5-4z" opacity="1"/>
  <path fill="#68695e" d="M242.5 279.5c.054 5.159-1.279 9.825-4 14v-1c.888-4.572 2.221-8.905 4-13z" opacity=".078"/>
  <path fill="#9b6a51" d="M201.5 279.5a272.607 272.607 0 0125 8c-4.564 11.425-7.564 23.592-9 36.5 1.134 1.016.801 1.683-1 2a4.934 4.934 0 003 .5v1a41.541 41.541 0 01-8 1c.17-1.322-.163-2.489-1-3.5 2.595-1.346 3.262-3.18 2-5.5a323.557 323.557 0 013-23 55.05 55.05 0 016-6.5c-.837-1.011-1.17-2.178-1-3.5-2.177-.086-4.177-.753-6-2-4.637 4.217-6.97 9.55-7 16a38.22 38.22 0 011.5 9 239.531 239.531 0 01-7 16c-.671.752-1.504 1.086-2.5 1a316.895 316.895 0 004.5-17c.793-3.923.626-7.756-.5-11.5a98.623 98.623 0 002-8c-1.945-3.984-4.612-4.484-8-1.5a179.029 179.029 0 00-9.5 36c-1.107 2.613-2.94 4.28-5.5 5-3.837-.703-4.003-2.036-.5-4 2.327-5.99 4.661-11.99 7-18a62.744 62.744 0 011.5-11c2.014-3.029 3.18-6.363 3.5-10a28.415 28.415 0 017.5-4.5c-1.098-.77-1.098-1.603 0-2.5z" opacity="1"/>
  <path fill="#310e0e" d="M65.5 257.5c-.763.768-1.763 1.268-3 1.5 1.243 1.87 1.91 4.036 2 6.5-.86 7.049-.36 14.049 1.5 21 13.587-7.849 28.087-12.849 43.5-15a23.423 23.423 0 006-2.5c18.315-3.096 36.649-3.263 55-.5 4.787 1.7 9.787 3.033 15 4a3.647 3.647 0 001.5-1 133.199 133.199 0 0019.5 7.5 239.555 239.555 0 0021 4.5 400.493 400.493 0 003 5 5.727 5.727 0 01-3-1h-1a272.607 272.607 0 00-25-8l-6-2-6-2a507.562 507.562 0 00-25-5 41.73 41.73 0 00-9-1c-6.487-1.154-13.154-1.321-20-.5-5.914.123-11.581.956-17 2.5-7.377.794-14.377 2.794-21 6-10.789 1.705-20.789 5.372-30 11-1 .333-1.667 1-2 2-1.63-1.526-2.463-3.526-2.5-6-.76-7.729-1.593-15.396-2.5-23a168.724 168.724 0 002-6c.765 1.112 1.765 1.779 3 2z" opacity="1"/>
  <path fill="#a57156" d="M262.5 245.5a22.755 22.755 0 014 5l5.5 22c.826 11.174.659 22.174-.5 33 .166-9.672 0-19.339-.5-29-.186-2.536-.686-4.869-1.5-7-1.904-4.375-3.071-9.042-3.5-14a51.22 51.22 0 01-2.5-4 19.22 19.22 0 00-1-6z" opacity="1"/>
  <path fill="#7f492e" d="M311.5 181.5c2.481 1.196 2.481 2.696 0 4.5a32.611 32.611 0 012 10.5c-1.19 13.338-3.024 26.338-5.5 39-.03 8.497-.697 16.83-2 25-.824 9.176-.657 18.176.5 27a69.588 69.588 0 002 20 168.522 168.522 0 00-2 6c-3.973-1.131-7.306-3.131-10-6a10.258 10.258 0 00-4 1.5l-5 7c-1.877.576-3.711.409-5.5-.5a19.953 19.953 0 00-4.5 3 18.924 18.924 0 01-3-5 92.936 92.936 0 004.5-15c1.5-.833 2.667-2 3.5-3.5 3.548-.441 6.548-1.941 9-4.5 2.698-4.604 3.698-9.437 3-14.5.699-5.161 1.366-10.328 2-15.5-2.327-7.411-1.994-14.744 1-22l-2-3c1.115-1.098 1.115-2.265 0-3.5a74.344 74.344 0 001.5-9.5 14.51 14.51 0 014.5-4.5 25.02 25.02 0 01-5-7.5 551.42 551.42 0 009.5-22c.875-2.715 2.708-4.048 5.5-4v-3z" opacity="1"/>
  <path fill="#a5755b" d="M211.5 328.5a98.432 98.432 0 01-14-.5c.916-.278 1.582-.778 2-1.5.996.086 1.829-.248 2.5-1a239.531 239.531 0 007-16 38.22 38.22 0 00-1.5-9c.03-6.45 2.363-11.783 7-16 1.823 1.247 3.823 1.914 6 2-.17 1.322.163 2.489 1 3.5a55.05 55.05 0 00-6 6.5 323.557 323.557 0 00-3 23c1.262 2.32.595 4.154-2 5.5.837 1.011 1.17 2.178 1 3.5z" opacity="1"/>
  <path fill="#ce9f83" d="M92.5 330.5a94.052 94.052 0 01-22-3c.215-5.825-.118-11.825-1-18-2.38-4.827-3.713-9.994-4-15.5.308-1.459.975-2.626 2-3.5 1.564 4.068 2.564 8.401 3 13 3.244 5.668 5.244 11.668 6 18 2.442.381 3.109-.286 2-2 2.374-8.799 2.374-17.632 0-26.5 2-3.681 5-5.015 9-4a80.632 80.632 0 004.5 24.5c.378 5.869.544 11.536.5 17z" opacity="1"/>
  <path fill="#b68975" d="M41.5 159.5a54.666 54.666 0 00-5.5 4 72.496 72.496 0 000 17c2.82 8.138 3.32 16.472 1.5 25l.5 5 1-3 1 38a121.98 121.98 0 002.5 20 313.39 313.39 0 01-2 53 32.487 32.487 0 004 12.5c3.472 9.469 2.472 18.302-3 26.5a110.394 110.394 0 00-2.5-8c-.907 5.962-2.407 6.295-4.5 1-2.653 1.079-5.153 3.079-7.5 6-2.159-2.456-2.992-1.79-2.5 2h3c-.268 2.619.065 5.119 1 7.5a55.861 55.861 0 01-4.5 5.5 1163.622 1163.622 0 01-15 43 42.754 42.754 0 01-4.5 6 18.438 18.438 0 01.5-6c2.84-6.528 5.674-13.028 8.5-19.5a3.942 3.942 0 01-1-2 312.789 312.789 0 019-25 259.395 259.395 0 01-1-30.5l4-4c.02 1.643-.647 2.976-2 4 1.177 4.727 4.177 6.727 9 6-.285-1.915.049-3.581 1-5v8c2.041.354 3.874.354 5.5 0a33.6 33.6 0 004.5-13c-6.443-9.284-7.61-19.284-3.5-30 .54-8.831 1.04-17.664 1.5-26.5a694.229 694.229 0 01-3.5-34.5l-1-55a62.201 62.201 0 01-3.5-23c1.435-3.927 4.268-6.261 8.5-7 .464.594.631 1.261.5 2z" opacity="1"/>
  <path fill="#aa806c" d="M195.5 279.5a2.428 2.428 0 012 .5 109.306 109.306 0 00-5.5 5.5 311.944 311.944 0 01-17 37c-2.386 1.263-4.219 3.097-5.5 5.5a7.293 7.293 0 003 2c-1.558.21-2.891.71-4 1.5a1026.64 1026.64 0 01-63 1c-.667 0-1-.333-1-1 19.669.167 39.336 0 59-.5l-3-1c2.602-.883 4.769-2.383 6.5-4.5a173.345 173.345 0 017.5-14 26.585 26.585 0 013.5-2 876.477 876.477 0 019-23 23.162 23.162 0 004.5-6.5 8.43 8.43 0 014-.5z" opacity="1"/>
  <path fill="#d9d2bd" d="M264.5 264.5a236.69 236.69 0 01-3.5 53c-.278.916-.778 1.582-1.5 2a75.435 75.435 0 012.5-19c.5-11.328.667-22.662.5-34l2-2z" opacity=".95"/>
  <path fill="#a79e8a" d="M310.5 266.5c.309 9.29-.358 18.456-2 27.5a463.25 463.25 0 017 37.5h-1v-1a284.616 284.616 0 01-7-40 8020.474 8020.474 0 013-24z" opacity=".769"/>
  <path fill="#d8ac94" d="M97.5 277.5c-.763.768-1.763 1.268-3 1.5 2.27.758 4.436.591 6.5-.5 2.703 2.579 5.703 3.579 9 3 .333 2.434-.834 3.434-3.5 3a6.846 6.846 0 01-1 4 4.457 4.457 0 001.5 2c1.279-2.437 2.779-2.937 4.5-1.5.071 2.116-.262 4.283-1 6.5-.099 2.524-.432 5.19-1 8a6.802 6.802 0 003 1.5 172.518 172.518 0 00-7 17.5l3 4c-1.141.925-1.141 1.759 0 2.5-3.797 1.424-7.797 1.924-12 1.5h-4a235.154 235.154 0 00-.5-17 80.632 80.632 0 01-4.5-24.5c-4-1.015-7 .319-9 4 2.374 8.868 2.374 17.701 0 26.5 1.109 1.714.442 2.381-2 2-.756-6.332-2.756-12.332-6-18-.436-4.599-1.436-8.932-3-13v-2c9.211-5.628 19.211-9.295 30-11z" opacity="1"/>
  <path fill="#c28e71" d="M67.5 288.5v2c-1.025.874-1.692 2.041-2 3.5.287 5.506 1.62 10.673 4 15.5.882 6.175 1.215 12.175 1 18h-2c-1.419-.951-3.085-1.284-5-1 .03-11.344.364-22.678 1-34l1-2c.333-1 1-1.667 2-2z" opacity="1"/>
  <path fill="#a87a63" d="M195.5 277.5l6 2c-1.098.897-1.098 1.73 0 2.5a28.415 28.415 0 00-7.5 4.5c-.32 3.637-1.486 6.971-3.5 10a62.744 62.744 0 00-1.5 11c-2.339 6.01-4.673 12.01-7 18-3.503 1.964-3.337 3.297.5 4v1a82.73 82.73 0 01-14 1c1.109-.79 2.442-1.29 4-1.5a7.293 7.293 0 01-3-2c1.281-2.403 3.114-4.237 5.5-5.5a311.944 311.944 0 0017-37 109.306 109.306 0 015.5-5.5 2.428 2.428 0 00-2-.5v-2z" opacity="1"/>
  <path fill="#8c573b" d="M226.5 287.5h1c.859 2.952 2.859 4.785 6 5.5a254.637 254.637 0 00-12 31.5 31.147 31.147 0 01-2 2 4.934 4.934 0 01-3-.5c1.801-.317 2.134-.984 1-2 1.436-12.908 4.436-25.075 9-36.5z" opacity="1"/>
  <path fill="#c19984" d="M155.5 269.5a21.435 21.435 0 00-7 1 6.846 6.846 0 00-4 1 5827.706 5827.706 0 01-3 40.5 61.042 61.042 0 002 16.5c6.44 2.237 11.94.904 16.5-4l1 1c3.845-9.71 9.178-18.377 16-26 .72-7.761 3.886-14.261 9.5-19.5 4.293-.3 5.293-1.8 3-4.5l6 2v2a8.43 8.43 0 00-4 .5 23.162 23.162 0 01-4.5 6.5 876.477 876.477 0 00-9 23 26.585 26.585 0 00-3.5 2 173.345 173.345 0 00-7.5 14c-1.731 2.117-3.898 3.617-6.5 4.5l3 1c-19.664.5-39.331.667-59 .5-2.885.306-5.552-.027-8-1 4.203.424 8.203-.076 12-1.5-1.141-.741-1.141-1.575 0-2.5l-3-4a172.518 172.518 0 017-17.5 6.802 6.802 0 01-3-1.5c.568-2.81.901-5.476 1-8l1.5 3c4.807-2.804 8.14-6.804 10-12a83.811 83.811 0 0011.5-15.5c-3.197-.987-6.03-.487-8.5 1.5-2.041-.923-4.208-1.256-6.5-1 5.419-1.544 11.086-2.377 17-2.5 6.846-.821 13.513-.654 20 .5z" opacity="1"/>
  <path fill="#7b4931" d="M227.5 287.5c.891.61 1.891.943 3 1l8 4v1c-2.972 8.969-4.972 18.302-6 28 .073 2.09.406 4.09 1 6h-14v-1a31.147 31.147 0 002-2 254.637 254.637 0 0112-31.5c-3.141-.715-5.141-2.548-6-5.5z" opacity="1"/>
  <path fill="#895a46" d="M64.5 292.5a637.173 637.173 0 00-1 34c1.915-.284 3.581.049 5 1-1.915-.284-3.581.049-5 1-.897 1.098-1.73 1.098-2.5 0l-.5-7.5a187.555 187.555 0 003-26.5c-.172-.992.162-1.658 1-2z" opacity="1"/>
  <path fill="#905c42" d="M199.5 326.5c-.418.722-1.084 1.222-2 1.5 4.655.499 9.321.666 14 .5-9.469 1.365-19.135 2.032-29 2v-1c2.56-.72 4.393-2.387 5.5-5a179.029 179.029 0 019.5-36c3.388-2.984 6.055-2.484 8 1.5a98.623 98.623 0 01-2 8c1.126 3.744 1.293 7.577.5 11.5a316.895 316.895 0 01-4.5 17z" opacity="1"/>
  <path fill="#a39280" d="M238.5 293.5a83.569 83.569 0 01-2.5 17c-.5 8.66-.666 17.327-.5 26l-2-9a22.791 22.791 0 01-1-6c1.028-9.698 3.028-19.031 6-28z" opacity=".875"/>
  <path fill="#ddbaa5" d="M264.5 264.5c2.096 5.514 3.096 11.347 3 17.5a441.78 441.78 0 01-4.5 33.5 306.347 306.347 0 000 35c3.451 2.658 5.617 6.158 6.5 10.5a681.096 681.096 0 012 37.5 1698.947 1698.947 0 00-12-62 411.583 411.583 0 010-17c.722-.418 1.222-1.084 1.5-2a236.69 236.69 0 003.5-53z" opacity="1"/>
  <path fill="#ac7961" d="M292.5 396.5c-.617.111-1.117.444-1.5 1-.71-1.473-1.876-2.14-3.5-2a267.598 267.598 0 00-3-23c-.212-5.594-.379-11.261-.5-17l-1-3-1 1-.5-4.5c.551-2.477.551-4.81 0-7 2.544-1.563 2.544-3.063 0-4.5a6.846 6.846 0 001-4h5a12.93 12.93 0 01.5-5c1.706-.808 2.539-2.141 2.5-4a12.93 12.93 0 015 .5 3.943 3.943 0 011 2c.206 4.268-.128 8.602-1 13a36.682 36.682 0 003 9.5c-.209 1.494-.876 2.661-2 3.5 2.528 1.017 2.528 2.184 0 3.5 1.187 2.475.853 4.809-1 7 .756 1.951 1.089 3.784 1 5.5-1.615 3.077-2.615 6.41-3 10 .597 1.889.931 3.722 1 5.5-.668 4.03-1.334 8.03-2 12z" opacity="1"/>
  <path fill="#dbd2be" d="M16.5 205.5c.722.418 1.222 1.084 1.5 2a351.484 351.484 0 012.5 48.5 306.72 306.72 0 01-5 65.5 40.846 40.846 0 01-2 12 18059.008 18059.008 0 01-14 37v-9c6.855-17.431 12.355-35.431 16.5-54a583.622 583.622 0 00.5-102z" opacity=".667"/>
  <path fill="#a57159" d="M271.5 306.5a455.036 455.036 0 00-1 15c1.611 6.917 4.777 7.584 9.5 2 1.494 1.247 2.994 1.247 4.5 0a14.972 14.972 0 013-3.5l12-1.5c.255 2.516 1.089 4.85 2.5 7 3.059 19.789 2.392 39.455-2 59a246.045 246.045 0 01-2.5 30c.253-6.244-.247-12.578-1.5-19-.487 6.506-.987 12.839-1.5 19a3.647 3.647 0 01-1.5-1c-.689-4.654-.189-9.154 1.5-13.5a18.473 18.473 0 01-2-3.5c.666-3.97 1.332-7.97 2-12-.069-1.778-.403-3.611-1-5.5.385-3.59 1.385-6.923 3-10 .089-1.716-.244-3.549-1-5.5 1.853-2.191 2.187-4.525 1-7 2.528-1.316 2.528-2.483 0-3.5 1.124-.839 1.791-2.006 2-3.5a36.682 36.682 0 01-3-9.5c.872-4.398 1.206-8.732 1-13a3.943 3.943 0 00-1-2 12.93 12.93 0 00-5-.5c.039 1.859-.794 3.192-2.5 4a12.93 12.93 0 00-.5 5h-5a6.846 6.846 0 01-1 4c2.544 1.437 2.544 2.937 0 4.5.551 2.19.551 4.523 0 7l.5 4.5 1-1 1 3c.121 5.739.288 11.406.5 17a60.931 60.931 0 01-.5 11 85.308 85.308 0 01-3-12l-1.5-1.5c-.257-1.371.077-2.871 1-4.5a130.406 130.406 0 01-1.5-7l-1 2c-1.187 10.438-1.687 21.105-1.5 32h-1a707.069 707.069 0 01-.5-51c-.609-5.553-2.609-10.553-6-15a56.738 56.738 0 00-1.5-6.5 186.867 186.867 0 004-13.5z" opacity="1"/>
  <path fill="#3c0c16" d="M38.5 459.5h-8a563.898 563.898 0 005.5-18 49.248 49.248 0 000-14l-1 4c-.87-.608-1.37-1.441-1.5-2.5a82.65 82.65 0 003-16.5c5.343-22.01 12.843-43.344 22.5-64a69.865 69.865 0 004.5-17c4.763-2.344 9.763-2.511 15-.5l-2 1a121.85 121.85 0 017.5 2.5c4.051.205 8.218.205 12.5 0a8.902 8.902 0 014 3 3.643 3.643 0 01-1 1.5c1.943-.305 3.943-.305 6 0-.906 1.699-1.239 3.533-1 5.5a20.093 20.093 0 00-6 1.5l8 1c-2.551 1.516-2.218 2.349 1 2.5.238 3.599-.762 3.933-3 1-3.64 4.664-8.307 5.998-14 4a21.096 21.096 0 01-7 2 50.869 50.869 0 00-16-.5c-1.402 1.342-1.069 2.176 1 2.5a20.223 20.223 0 015-1c-.396 2.544.271 4.711 2 6.5a14.706 14.706 0 00-5 4c.32 1.653 1.32 2.653 3 3-2.616 1.709-3.616 3.876-3 6.5-3.81 1.238-3.81 1.904 0 2a223.634 223.634 0 01-2 34 23.6 23.6 0 00-2.5 6c-1.595-1.925-1.761-3.925-.5-6-2.473-1.598-2.473-3.098 0-4.5l-1.5-1.5c-1.254 3.476-1.92 7.142-2 11a24.939 24.939 0 01-.5-7c-7.104-.394-10.938 2.939-11.5 10a10.255 10.255 0 00-1.5-4 123.242 123.242 0 00-2 11.5 95.141 95.141 0 002 17c-4.17 1.83-6.336 4.997-6.5 9.5a19.555 19.555 0 00-3.5 4z" opacity="1"/>
  <path fill="#340913" d="M68.5 327.5h2a94.052 94.052 0 0022 3h4c2.448.973 5.115 1.306 8 1 0 .667.333 1 1 1 2.107.968 4.441 1.302 7 1 4.47.986 9.137 1.319 14 1v7c2.948.277 5.781-.056 8.5-1a8.43 8.43 0 01.5 4c3.35-.165 6.683.002 10 .5a29.808 29.808 0 00-10.5 4.5c-1.882-1.106-3.716-1.106-5.5 0l6 2.5a324.1 324.1 0 01-17.5-.5 110.214 110.214 0 00-10.5 7 11.38 11.38 0 002.5 2c1.945-2.426 4.445-3.259 7.5-2.5-3.63.271-4.63 1.938-3 5a32.38 32.38 0 007-.5c3.006.679 6.006 1.346 9 2-1.555 4.745.112 6.078 5 4-.928-1.268-1.095-2.601-.5-4l1 2c1.955-2.482 4.121-2.648 6.5-.5 3.986.499 7.986.666 12 .5-.006 3.048.994 3.548 3 1.5 1.667-.667 3.333-.667 5 0-1.924 1.905-4.257 3.072-7 3.5a13.116 13.116 0 00-1 7 14.83 14.83 0 01-7.5-3c-3.816 2.78-7.316 2.446-10.5-1-5.821 3.598-11.821 6.598-18 9a8.43 8.43 0 01-.5 4c-.718-.951-1.551-1.117-2.5-.5a11.295 11.295 0 00-2 4c2.974 3.603 2.641 6.77-1 9.5-.925-1.141-1.759-1.141-2.5 0l-2-2-.5 7c-1.85-.742-2.516-1.742-2-3a6.802 6.802 0 00-1.5 3c-1.868-1.172-3.702-1.005-5.5.5 1.333 1 1.333 2 0 3 1.801.317 2.134.984 1 2-2.28.233-4.28 1.066-6 2.5-1.154-2.356-2.487-2.523-4-.5l3.5 4.5c2.046-4.176 4.213-4.51 6.5-1a3.647 3.647 0 001.5-1 6.547 6.547 0 003 3c.667.667.667 1.333 0 2-1.566.561-2.899-.106-4-2-.5 1.833-1.667 3-3.5 3.5l1 1c-5.284 1.378-5.284 2.711 0 4-6.634.823-6.634 1.323 0 1.5v4c-1.788-.285-3.455.048-5 1a63.91 63.91 0 005.5 1c.717 3.521.55 7.188-.5 11h5c-.236 2.473-1.569 4.14-4 5l1 1c1.601-.665 3.101-.999 4.5-1 .605 1.981 1.605 2.315 3 1 3.62 1.791 7.453 1.791 11.5 0a28.043 28.043 0 005 1.5 94.252 94.252 0 01-11 6.5h-39c-.412-13.19-1.412-13.19-3 0h-32a19.555 19.555 0 013.5-4c.164-4.503 2.33-7.67 6.5-9.5a95.141 95.141 0 01-2-17 123.242 123.242 0 012-11.5 10.255 10.255 0 011.5 4c.563-7.061 4.396-10.394 11.5-10-.163 2.357.003 4.69.5 7 .08-3.858.746-7.524 2-11l1.5 1.5c-2.473 1.402-2.473 2.902 0 4.5-1.261 2.075-1.095 4.075.5 6a23.6 23.6 0 012.5-6 223.634 223.634 0 002-34c-3.81-.096-3.81-.762 0-2-.616-2.624.384-4.791 3-6.5-1.68-.347-2.68-1.347-3-3a14.706 14.706 0 015-4c-1.729-1.789-2.396-3.956-2-6.5-1.699.12-3.365.454-5 1-2.069-.324-2.402-1.158-1-2.5a50.869 50.869 0 0116 .5 21.096 21.096 0 007-2c5.693 1.998 10.36.664 14-4 2.238 2.933 3.238 2.599 3-1-3.218-.151-3.551-.984-1-2.5l-8-1a20.093 20.093 0 016-1.5c-.239-1.967.094-3.801 1-5.5-2.057-.305-4.057-.305-6 0a3.643 3.643 0 001-1.5 8.902 8.902 0 00-4-3c-4.282.205-8.449.205-12.5 0a121.85 121.85 0 00-7.5-2.5l2-1c-5.237-2.011-10.237-1.844-15 .5v-3c1.419-.951 3.085-1.284 5-1z" opacity="1"/>
  <path fill="#26060b" d="M219.5 327.5h11c-3.422 2.243-7.089 3.743-11 4.5a22.981 22.981 0 015 2c1.118 2.346 2.785 4.179 5 5.5a44.73 44.73 0 006.5 14c.576 1.877.409 3.711-.5 5.5.576 1.714 1.743 2.881 3.5 3.5a8.43 8.43 0 01.5 4h3a290.471 290.471 0 0111 28.5 11.333 11.333 0 00-1.5 3.5l-1-2c-.667 1.667-.667 3.333 0 5a112.058 112.058 0 013 13c3.983 5.173 5.816 10.839 5.5 17 2.514 2.057 3.847 4.39 4 7 .781 6.822 2.447 13.322 5 19.5-.556.383-.889.883-1 1.5h-16c.672-.767 1.505-1.434 2.5-2 2.288.237 4.788.237 7.5 0 .214-1.644-.12-3.144-1-4.5 1.544-.29 2.877-.956 4-2l-1.5-1.5c-4.061 1.436-5.227.102-3.5-4a599.776 599.776 0 01-5-8.5c2.667-1.333 2.667-2.667 0-4 1.284-1.297 1.117-2.464-.5-3.5-.71 1.473-1.876 2.14-3.5 2v-3c4-.333 4-.667 0-1-.37-4.922-1.37-9.589-3-14a96.195 96.195 0 01-.5-10c-.273 1.829-1.107 3.329-2.5 4.5.758 1.364.258 2.531-1.5 3.5a168.167 168.167 0 01-1.5-8h3a205.73 205.73 0 00-3-20h-3c.944-9.609-2.056-17.609-9-24a18.986 18.986 0 00-7-2.5 60.746 60.746 0 0010-5c-1.544-.29-2.877-.956-4-2 .693-2.224.859-4.724.5-7.5a3.647 3.647 0 01-1.5 1 24.91 24.91 0 00-5-6.5c-2.431-.295-4.264-1.462-5.5-3.5-3.631.681-7.131.681-10.5 0-2.528 2.374-5.528 3.374-9 3-.173 2.679-1.173 5.013-3 7a7.248 7.248 0 01-2.5-2c-2.395 3.021-5.229 3.521-8.5 1.5 2.621-.906 2.454-1.406-.5-1.5-4.03 2.36-7.363 1.36-10-3a12.93 12.93 0 01-.5-5h-60c-2.559.302-4.893-.032-7-1a1026.64 1026.64 0 0063-1 82.73 82.73 0 0014-1c9.865.032 19.531-.635 29-2a41.541 41.541 0 008-1z" opacity="1"/>
  <path fill="#ba8466" d="M269.5 269.5c.814 2.131 1.314 4.464 1.5 7 .5 9.661.666 19.328.5 29v1a186.867 186.867 0 01-4 13.5 56.738 56.738 0 011.5 6.5c3.391 4.447 5.391 9.447 6 15a707.069 707.069 0 00.5 51l-2-6a1313.225 1313.225 0 00-1.5-37c-.237-4.147-2.237-6.813-6-8-.667-9-.667-18 0-27 2.181-5.054 3.514-10.387 4-16 .579-9.68.412-19.347-.5-29z" opacity="1"/>
  <path fill="#5f5f53" d="M233.5 327.5l2 9a86.618 86.618 0 003.5 18 177.665 177.665 0 0110.5 23c-10.552-14.837-15.886-31.503-16-50z" opacity=".957"/>
  <path fill="#c6c1ad" d="M259.5 336.5a1698.947 1698.947 0 0112 62v2c.31 3.213-.023 6.213-1 9a436.781 436.781 0 00-10.5-61 72.367 72.367 0 01-.5-12z" opacity=".808"/>
  <path fill="#2e0711" d="M112.5 333.5h60a12.93 12.93 0 00.5 5c2.637 4.36 5.97 5.36 10 3 2.954.094 3.121.594.5 1.5 3.271 2.021 6.105 1.521 8.5-1.5a7.248 7.248 0 002.5 2c1.827-1.987 2.827-4.321 3-7 3.472.374 6.472-.626 9-3 3.369.681 6.869.681 10.5 0 1.236 2.038 3.069 3.205 5.5 3.5a24.91 24.91 0 015 6.5 3.647 3.647 0 001.5-1c.359 2.776.193 5.276-.5 7.5 1.123 1.044 2.456 1.71 4 2a60.746 60.746 0 01-10 5c2.51.376 4.843 1.21 7 2.5 6.944 6.391 9.944 14.391 9 24h3a205.73 205.73 0 013 20h-3c.433 2.666.933 5.332 1.5 8 1.758-.969 2.258-2.136 1.5-3.5 1.393-1.171 2.227-2.671 2.5-4.5 0 3.482.167 6.816.5 10 .127 2.415.293 4.749.5 7-1.572-2.063-3.405-2.729-5.5-2 1.155 1.45 2.655 2.45 4.5 3 .741 3.062.575 6.062-.5 9 .776 1.856 2.109 3.189 4 4-2.491 1.041-2.491 1.874 0 2.5-3.057.551-3.39 2.217-1 5-1.247 1.494-1.247 2.994 0 4.5 1.605-1.087 2.271-.421 2 2l-.5 3c-.893-1.211-1.726-1.211-2.5 0a6.802 6.802 0 003 1.5c-2.391.691-2.391 1.691 0 3-.789 3.097-1.956 3.264-3.5.5l-2 2a70.907 70.907 0 00-16.5-1 32.462 32.462 0 00-.5-8c-.819-3.736-2.485-7.069-5-10-.622-7.502-2.622-14.502-6-21-1.331-9.994-2.664-19.994-4-30-4.144-8.023-6.31-16.689-6.5-26h-3c.039-1.859-.794-3.192-2.5-4-.741 1.141-1.575 1.141-2.5 0l-3 3c-2.145.238-3.812 1.238-5 3a266.124 266.124 0 0113 51c-1.737-6.937-3.904-13.937-6.5-21 .047 6.304-1.953 7.304-6 3a34.251 34.251 0 00-1.5-8c-1.024 1.353-2.357 2.02-4 2-.953 5.74-3.287 5.907-7 .5l-3-.5c-2.77 1.794-5.936 2.794-9.5 3a24.007 24.007 0 01-7.5-2 22.202 22.202 0 01-7.5 2 59.594 59.594 0 01-9.5-4 3.647 3.647 0 00-1.5 1 161.989 161.989 0 00-7.5-4.5 12.93 12.93 0 00-5-.5c-.086 2.177-.753 4.177-2 6 1.092 1.331 2.426 2.164 4 2.5a4.934 4.934 0 01-3 .5v6c-1.992.172-3.658-.495-5-2a64.603 64.603 0 01-7.5 6 23.86 23.86 0 01-4.5 8.5c1.763 1.654 2.096 3.487 1 5.5a6.802 6.802 0 003 1.5 27.232 27.232 0 00-9.5.5 84.902 84.902 0 00-.5 13h-5v5h7v5a817.966 817.966 0 0014.5 3 20.532 20.532 0 002.5-4.5c6.621-.98 12.288.853 17 5.5-.921 2.256-2.588 3.256-5 3a9.86 9.86 0 01-1 6c-1.22 1.211-2.387 1.211-3.5 0-.717.544-1.217 1.211-1.5 2h-17a94.252 94.252 0 0011-6.5 28.043 28.043 0 01-5-1.5c-4.047 1.791-7.88 1.791-11.5 0-1.395 1.315-2.395.981-3-1-1.399.001-2.899.335-4.5 1l-1-1c2.431-.86 3.764-2.527 4-5h-5c1.05-3.812 1.217-7.479.5-11a63.91 63.91 0 01-5.5-1c1.545-.952 3.212-1.285 5-1v-4c-6.634-.177-6.634-.677 0-1.5-5.284-1.289-5.284-2.622 0-4l-1-1c1.833-.5 3-1.667 3.5-3.5 1.101 1.894 2.434 2.561 4 2 .667-.667.667-1.333 0-2a6.547 6.547 0 01-3-3 3.647 3.647 0 01-1.5 1c-2.287-3.51-4.454-3.176-6.5 1l-3.5-4.5c1.513-2.023 2.846-1.856 4 .5 1.72-1.434 3.72-2.267 6-2.5 1.134-1.016.801-1.683-1-2 1.333-1 1.333-2 0-3 1.798-1.505 3.632-1.672 5.5-.5a6.802 6.802 0 011.5-3c-.516 1.258.15 2.258 2 3l.5-7 2 2c.741-1.141 1.575-1.141 2.5 0 3.641-2.73 3.974-5.897 1-9.5a11.295 11.295 0 012-4c.949-.617 1.782-.451 2.5.5a8.43 8.43 0 00.5-4c6.179-2.402 12.179-5.402 18-9 3.184 3.446 6.684 3.78 10.5 1a14.83 14.83 0 007.5 3 13.116 13.116 0 011-7c2.743-.428 5.076-1.595 7-3.5-1.667-.667-3.333-.667-5 0-2.006 2.048-3.006 1.548-3-1.5a72.367 72.367 0 01-12-.5c-2.379-2.148-4.545-1.982-6.5.5l-1-2c-.595 1.399-.428 2.732.5 4-4.888 2.078-6.555.745-5-4-2.994-.654-5.994-1.321-9-2a32.38 32.38 0 01-7 .5c-1.63-3.062-.63-4.729 3-5-3.055-.759-5.555.074-7.5 2.5a11.38 11.38 0 01-2.5-2 110.214 110.214 0 0110.5-7 324.1 324.1 0 0017.5.5l-6-2.5c1.784-1.106 3.618-1.106 5.5 0a29.808 29.808 0 0110.5-4.5 50.464 50.464 0 00-10-.5 8.43 8.43 0 00-.5-4c-2.719.944-5.552 1.277-8.5 1v-7c-4.863.319-9.53-.014-14-1z" opacity="1"/>
  <path fill="#d3a487" d="M263.5 251.5a51.22 51.22 0 002.5 4c.429 4.958 1.596 9.625 3.5 14 .912 9.653 1.079 19.32.5 29-.486 5.613-1.819 10.946-4 16-.667 9-.667 18 0 27 3.763 1.187 5.763 3.853 6 8a1313.225 1313.225 0 011.5 37 60.931 60.931 0 01-.5 11c-.232 1.237-.732 2.237-1.5 3v-2a681.096 681.096 0 00-2-37.5c-.883-4.342-3.049-7.842-6.5-10.5a306.347 306.347 0 010-35 441.78 441.78 0 004.5-33.5c.096-6.153-.904-11.986-3-17.5-.58-4.31-.914-8.643-1-13z" opacity="1"/>
  <path fill="#9b907c" d="M316.5 333.5c.513 12.658.846 25.325 1 38 .181 12.869-.486 25.536-2 38-.331-25.505.002-50.839 1-76z" opacity=".863"/>
  <path fill="#86543b" d="M313.5 330.5h1v65c-2.266 1.693-2.6 3.86-1 6.5a75.347 75.347 0 00-3 18c-.483 4.592-.483 9.092 0 13.5a15.044 15.044 0 00-3.5 6 202.275 202.275 0 01-4.5 20h-4a2511.244 2511.244 0 017-70.5c-.077-10.154.923-20.321 3-30.5a135.275 135.275 0 014.5-11c.499-5.657.666-11.324.5-17z" opacity="1"/>
  <path fill="#b28b74" d="M201.5 362.5c3.264 5.546 5.764 11.546 7.5 18a328.845 328.845 0 017.5 33c-1.544 2.608-3.877 3.942-7 4h-3a415.926 415.926 0 00-7-41.5 3.943 3.943 0 001-2 61 61 0 00-5-9.5 168.522 168.522 0 006-2z" opacity="1"/>
  <path fill="#80624f" d="M314.5 331.5h1l1 2a1444.401 1444.401 0 00-1 76 242.945 242.945 0 01-1 17c-.647-10.16-.647-20.494 0-31v-64z" opacity="1"/>
  <path fill="#d1a28a" d="M26.5 295.5h1a52.37 52.37 0 01-1 13l.5 2c.708-.881 1.542-1.547 2.5-2 .869 2.217 1.202 4.55 1 7-1.322.17-2.489-.163-3.5-1-1.158.498-1.991 1.331-2.5 2.5a224.82 224.82 0 00-3 15.5 6.807 6.807 0 01-1.5-3 40.91 40.91 0 00-3.5 13.5c-5.373 7.21-6.373 15.044-3 23.5a123.454 123.454 0 00-3.5 20c-2.6 11.77-6.1 23.104-10.5 34v-6c1.61-2.649 2.443-5.649 2.5-9a1730.748 1730.748 0 013-47c4.967-7.518 7.8-15.851 8.5-25 1.574-.437 2.741-1.437 3.5-3a388.628 388.628 0 014-17c4.152-5.309 5.986-11.309 5.5-18z" opacity="1"/>
  <path fill="#a77d6d" d="M43.5 264.5c1.32 23.522 2.654 47.189 4 71a23.252 23.252 0 01-1 6.5c1.444 1.126 2.11 2.626 2 4.5-1.602 12.537-6.935 23.204-16 32-3.441 11.106-7.941 22.106-13.5 33-.743 1.941-.576 3.774.5 5.5A6920.388 6920.388 0 016 438.5a142.991 142.991 0 00-3.5 21h-2c.452-7.331.952-14.665 1.5-22 .763-2.97 2.263-5.47 4.5-7.5-1.054-1.388-1.22-2.888-.5-4.5 3.932-3.526 6.599-7.859 8-13l6-8c3.702-8.439 6.702-17.439 9-27 3.833-6.994 8-13.66 12.5-20 5.472-8.198 6.472-17.031 3-26.5a32.487 32.487 0 01-4-12.5 313.368 313.368 0 002-53c.667 0 1-.333 1-1z" opacity="1"/>
  <path fill="#a07865" d="M196.5 361.5c1.915-.284 3.581.049 5 1a168.522 168.522 0 01-6 2 61 61 0 015 9.5 3.943 3.943 0 01-1 2 415.926 415.926 0 017 41.5h3c-1.068.934-2.401 1.268-4 1 .237-1.291-.096-2.291-1-3a266.124 266.124 0 00-13-51c1.188-1.762 2.855-2.762 5-3z" opacity="1"/>
  <path fill="#c1927c" d="M32.5 164.5a62.201 62.201 0 003.5 23l1 55a694.229 694.229 0 003.5 34.5c-.46 8.836-.96 17.669-1.5 26.5-4.11 10.716-2.943 20.716 3.5 30a33.6 33.6 0 01-4.5 13c-1.626.354-3.459.354-5.5 0v-8a40.939 40.939 0 00-.5-9c-.648-6.06-2.982-7.06-7-3a24.939 24.939 0 00-.5 7l-4 4a259.395 259.395 0 001 30.5 312.789 312.789 0 00-9 25 3.942 3.942 0 001 2c-2.826 6.472-5.66 12.972-8.5 19.5a18.438 18.438 0 00-.5 6 27.736 27.736 0 01-5 9v-9c4.4-10.896 7.9-22.23 10.5-34a123.454 123.454 0 013.5-20c-3.373-8.456-2.373-16.29 3-23.5a40.91 40.91 0 013.5-13.5 6.807 6.807 0 001.5 3 224.82 224.82 0 013-15.5c.509-1.169 1.342-2.002 2.5-2.5 1.011.837 2.178 1.17 3.5 1 .202-2.45-.131-4.783-1-7 2.427-3.896 3.928-8.23 4.5-13 .669 2.528 1.502 2.528 2.5 0-.73-4.83-.397-9.663 1-14.5a6655.005 6655.005 0 00-3-28.5 3716.806 3716.806 0 01-3-81c.003-2.525.337-4.859 1-7z" opacity="1"/>
  <path fill="#ab775d" d="M32.5 338.5c-.951 1.419-1.285 3.085-1 5-4.823.727-7.823-1.273-9-6 1.353-1.024 2.02-2.357 2-4-.163-2.357.003-4.69.5-7 4.018-4.06 6.352-3.06 7 3 .498 2.982.665 5.982.5 9z" opacity="1"/>
  <path fill="#966249" d="M308.5 312.5a113.008 113.008 0 015 18 145.053 145.053 0 01-.5 17 135.275 135.275 0 00-4.5 11c-2.077 10.179-3.077 20.346-3 30.5a2511.244 2511.244 0 00-7 70.5h-3a22.791 22.791 0 01-1-6c1.532-13.356 2.532-26.356 3-39a246.045 246.045 0 002.5-30c4.392-19.545 5.059-39.211 2-59-1.411-2.15-2.245-4.484-2.5-7l-12 1.5a14.972 14.972 0 00-3 3.5c-1.506 1.247-3.006 1.247-4.5 0-4.723 5.584-7.889 4.917-9.5-2h1v3a12.93 12.93 0 005-.5c2.115-2.484 4.615-3.317 7.5-2.5a40.252 40.252 0 018.5-6l1.5-3c1.699.906 3.533 1.239 5.5 1v3h9v-4z" opacity="1"/>
  <path fill="#cfac9a" d="M87.5 362.5a519.876 519.876 0 00-5.5 27c-2.146 2.626-3.479 5.626-4 9-1.011.837-2.178 1.17-3.5 1v-12a119.272 119.272 0 015.5-24c2.357-2.146 4.857-2.479 7.5-1z" opacity="1"/>
  <path fill="#29070e" d="M247.5 413.5c1.63 4.411 2.63 9.078 3 14 4 .333 4 .667 0 1v3c1.624.14 2.79-.527 3.5-2 1.617 1.036 1.784 2.203.5 3.5 2.667 1.333 2.667 2.667 0 4a599.776 599.776 0 005 8.5c-1.727 4.102-.561 5.436 3.5 4l1.5 1.5c-1.123 1.044-2.456 1.71-4 2 .88 1.356 1.214 2.856 1 4.5-2.712.237-5.212.237-7.5 0-.995.566-1.828 1.233-2.5 2h-36c.709-3.09 2.376-4.423 5-4 1.101 1.098 2.434 1.265 4 .5-.8-4.08-1.3-8.247-1.5-12.5a3.647 3.647 0 00-1.5-1c-.952 1.545-1.285 3.212-1 5-1.879.107-2.212-.393-1-1.5a168.167 168.167 0 00-8-1.5c.113 5.018.447 10.018 1 15h-83c.283-.789.783-1.456 1.5-2 1.113 1.211 2.28 1.211 3.5 0a9.86 9.86 0 001-6c2.412.256 4.079-.744 5-3-4.712-4.647-10.379-6.48-17-5.5a20.532 20.532 0 01-2.5 4.5 817.966 817.966 0 01-14.5-3v-5h-7v-5h5a84.902 84.902 0 01.5-13 27.232 27.232 0 019.5-.5 6.802 6.802 0 01-3-1.5c1.096-2.013.763-3.846-1-5.5a23.86 23.86 0 004.5-8.5 64.603 64.603 0 007.5-6c1.342 1.505 3.008 2.172 5 2v-6a4.934 4.934 0 003-.5c-1.574-.336-2.908-1.169-4-2.5 1.247-1.823 1.914-3.823 2-6a12.93 12.93 0 015 .5 161.989 161.989 0 017.5 4.5 3.647 3.647 0 011.5-1 59.594 59.594 0 009.5 4 22.202 22.202 0 007.5-2 24.007 24.007 0 007.5 2c3.564-.206 6.73-1.206 9.5-3l3 .5c3.713 5.407 6.047 5.24 7-.5 1.643.02 2.976-.647 4-2a34.251 34.251 0 011.5 8c4.047 4.304 6.047 3.304 6-3 2.596 7.063 4.763 14.063 6.5 21 .904.709 1.237 1.709 1 3 1.599.268 2.932-.066 4-1 3.123-.058 5.456-1.392 7-4a328.845 328.845 0 00-7.5-33c-1.736-6.454-4.236-12.454-7.5-18-1.419-.951-3.085-1.284-5-1l3-3c.925 1.141 1.759 1.141 2.5 0 1.706.808 2.539 2.141 2.5 4h3c.19 9.311 2.356 17.977 6.5 26 1.336 10.006 2.669 20.006 4 30 3.378 6.498 5.378 13.498 6 21 2.515 2.931 4.181 6.264 5 10 .497 2.646.664 5.313.5 8a70.907 70.907 0 0116.5 1l2-2c1.544 2.764 2.711 2.597 3.5-.5-2.391-1.309-2.391-2.309 0-3a6.802 6.802 0 01-3-1.5c.774-1.211 1.607-1.211 2.5 0l.5-3c.271-2.421-.395-3.087-2-2-1.247-1.506-1.247-3.006 0-4.5-2.39-2.783-2.057-4.449 1-5-2.491-.626-2.491-1.459 0-2.5-1.891-.811-3.224-2.144-4-4 1.075-2.938 1.241-5.938.5-9-1.845-.55-3.345-1.55-4.5-3 2.095-.729 3.928-.063 5.5 2a179.42 179.42 0 01-.5-7z" opacity="1"/>
  <path fill="#b18878" d="M41.5 357.5a203.192 203.192 0 00-12.5 20c-2.298 9.561-5.298 18.561-9 27l-6 8c-1.401 5.141-4.068 9.474-8 13-.72 1.612-.554 3.112.5 4.5-2.237 2.03-3.737 4.53-4.5 7.5a1705.035 1705.035 0 00-1.5 22h-1v-30a27.736 27.736 0 005-9 42.754 42.754 0 004.5-6 1163.622 1163.622 0 0015-43 55.861 55.861 0 004.5-5.5c-.935-2.381-1.268-4.881-1-7.5h-3c-.492-3.79.341-4.456 2.5-2 2.347-2.921 4.847-4.921 7.5-6 2.093 5.295 3.593 4.962 4.5-1 .94 2.654 1.774 5.321 2.5 8z" opacity="1"/>
  <path fill="#67685c" d="M249.5 377.5c2.479 3.22 4.312 6.887 5.5 11a74.096 74.096 0 015.5 22 1076.346 1076.346 0 01-11-33z" opacity=".29"/>
  <path fill="#a1715d" d="M284.5 372.5a267.598 267.598 0 013 23c1.624-.14 2.79.527 3.5 2 .383-.556.883-.889 1.5-1a18.473 18.473 0 002 3.5c-1.689 4.346-2.189 8.846-1.5 13.5.414.457.914.791 1.5 1 .513-6.161 1.013-12.494 1.5-19 1.253 6.422 1.753 12.756 1.5 19-.468 12.644-1.468 25.644-3 39 .073 2.09.406 4.09 1 6h-13c1.032-11.22 1.032-22.554 0-34 2.961-13.366 1.794-26.366-3.5-39a156.446 156.446 0 00-2 23l-1-1a10.134 10.134 0 00-1.5 4c-1.149-.291-1.816-1.124-2-2.5l.5-2.5c1.558.845 2.558.179 3-2 .499-4.321.666-8.654.5-13-.187-10.895.313-21.562 1.5-32l1-2c.436 2.347.936 4.681 1.5 7-.923 1.629-1.257 3.129-1 4.5l1.5 1.5a85.308 85.308 0 003 12c.499-3.652.665-7.318.5-11z" opacity="1"/>
  <path fill="#c19a85" d="M87.5 362.5h4a480.702 480.702 0 01-11.5 55 32.438 32.438 0 00-.5 8h-4a28.233 28.233 0 01-1.5-4c-.5-9.327-.666-18.661-.5-28-.295-2.235.039-4.235 1-6v12c1.322.17 2.489-.163 3.5-1 .521-3.374 1.854-6.374 4-9a519.876 519.876 0 015.5-27z" opacity="1"/>
  <path fill="#1d0708" d="M230.5 327.5h3c.114 18.497 5.448 35.163 16 50a1076.346 1076.346 0 0011 33c.667 0 1 .333 1 1-.639.597-.972 1.43-1 2.5a226.481 226.481 0 011.5 8.5c.383.556.883.889 1.5 1 .667 0 1 .333 1 1-.55 9.932 1.117 19.598 5 29 .204 2.185.87 4.185 2 6h-4c.111-.617.444-1.117 1-1.5-2.553-6.178-4.219-12.678-5-19.5-.153-2.61-1.486-4.943-4-7 .316-6.161-1.517-11.827-5.5-17a112.058 112.058 0 00-3-13c-.667-1.667-.667-3.333 0-5l1 2a11.333 11.333 0 011.5-3.5 290.471 290.471 0 00-11-28.5h-3a8.43 8.43 0 00-.5-4c-1.757-.619-2.924-1.786-3.5-3.5.909-1.789 1.076-3.623.5-5.5a44.73 44.73 0 01-6.5-14c-2.215-1.321-3.882-3.154-5-5.5a22.981 22.981 0 00-5-2c3.911-.757 7.578-2.257 11-4.5z" opacity="1"/>
  <path fill="#aa846f" d="M273.5 386.5l2 6h1a84.902 84.902 0 01-.5 13c-.442 2.179-1.442 2.845-3 2l-.5 2.5c.184 1.376.851 2.209 2 2.5v3c-.973 2.448-1.306 5.115-1 8-.991-4.548-1.991-9.215-3-14 .977-2.787 1.31-5.787 1-9 .768-.763 1.268-1.763 1.5-3 .499-3.652.665-7.318.5-11z" opacity="1"/>
  <path fill="#24050b" d="M140.5 403.5c.558 2.093 1.891 3.593 4 4.5l-3 1c6.639 2.119 13.139 1.952 19.5-.5a71.789 71.789 0 0111.5 3c.146-2.442-.687-3.109-2.5-2l-1.5-1.5c1.902-.199 3.402-1.033 4.5-2.5a6.978 6.978 0 003.5 2.5c-2.473 1.402-2.473 2.902 0 4.5.504-3.022 2.171-4.189 5-3.5-1.246 2.813-.412 4.979 2.5 6.5a22.725 22.725 0 007-3l5 2c1.826-.51 1.993-1.344.5-2.5.753-1.487 1.586-1.654 2.5-.5l2.5 8a6.802 6.802 0 01-3 1.5c1.851.837 3.684 1.671 5.5 2.5.029 2.867.862 5.367 2.5 7.5l-1.5 1.5c-1.117-1.449-1.784-3.116-2-5a10.756 10.756 0 01-2.5 3 67.557 67.557 0 004 7c-3.457.747-5.957 3.08-7.5 7a10.258 10.258 0 00-1.5-4c-1.667 1.333-3.333 1.333-5 0a7.293 7.293 0 01-3 2c-2.664-1.999-5.664-2.999-9-3a386.617 386.617 0 00-22 5c-2.096-1.568-3.762-1.234-5 1a118.954 118.954 0 00-.5-6c-.5 1.167-1.333 2-2.5 2.5-3.695.318-7.362.818-11 1.5l-2-1c1.141-.925 1.141-1.759 0-2.5a34.251 34.251 0 01-8-1.5 28.931 28.931 0 001.5-4c.654 1.196 1.154 1.196 1.5 0-.82-1.611-2.154-2.278-4-2 .17-1.322-.163-2.489-1-3.5-2.269.374-4.602.374-7 0-1.41-.368-2.41-1.201-3-2.5 2.351-1.729 5.018-2.396 8-2v-3c2.573.352 4.906-.148 7-1.5-6.45-2.634-7.45-6.467-3-11.5 1.062 2.442 2.562 4.442 4.5 6l1.5-1c-1.303-2.089-.803-3.756 1.5-5 1.183 1.231 2.349 1.231 3.5 0l-2-1c1.688-1.021 3.021-2.355 4-4z" opacity="1"/>
  <path fill="#e2baa1" d="M13.5 333.5c-.7 9.149-3.533 17.482-8.5 25a1730.748 1730.748 0 00-3 47c-.057 3.351-.89 6.351-2.5 9v-44c4.616-12.159 9.283-24.492 14-37z" opacity="1"/>
  <path fill="#646558" d="M261.5 411.5a260.977 260.977 0 012 12c-.617-.111-1.117-.444-1.5-1a226.481 226.481 0 00-1.5-8.5c.028-1.07.361-1.903 1-2.5z" opacity=".624"/>
  <path fill="#815c50" d="M73.5 393.5c-.166 9.339 0 18.673.5 28 .41 1.401.91 2.734 1.5 4-.996.086-1.83-.248-2.5-1-.825-10.508-.659-20.842.5-31z" opacity="1"/>
  <path fill="#916251" d="M282.5 459.5h-3a179.427 179.427 0 00-1-44h-4v-3a10.134 10.134 0 011.5-4l1 1c.103-7.744.769-15.411 2-23 5.294 12.634 6.461 25.634 3.5 39 1.032 11.446 1.032 22.78 0 34z" opacity="1"/>
  <path fill="#b59382" d="M214.5 419.5c2.252.416 3.752 1.749 4.5 4 1.541 4.575 2.208 9.242 2 14-2.626 3.572-5.626 3.905-9 1-2.062-4.831-2.729-9.831-2-15 1.397-1.57 2.897-2.904 4.5-4z" opacity="1"/>
  <path fill="#815445" d="M48.5 236.5a1304.39 1304.39 0 006 9c-.22 2.597-.72 2.597-1.5 0 .647 36.279.647 72.613 0 109-2.956 4.518-4.956 9.518-6 15-5.118 7.089-8.118 15.089-9 24-4.07 7.826-6.737 16.159-8 25a129.507 129.507 0 01-13 23 79.084 79.084 0 01-2 10 17.417 17.417 0 00-3.5 8h-1c-.022-5.766 1.478-11.1 4.5-16-.122-4.521 1.212-8.521 4-12-.024-5.283 1.643-9.95 5-14l1 2a209.065 209.065 0 008-27 2717.42 2717.42 0 017-14 108.273 108.273 0 012-9c4.83-5.331 7.83-11.665 9-19 .185-32.884-.981-65.717-3.5-98.5.376-5.169.709-10.335 1-15.5z" opacity="1"/>
  <path fill="#4e4c42" d="M264.5 424.5a578.84 578.84 0 005 29c-3.883-9.402-5.55-19.068-5-29z" opacity="1"/>
  <path fill="#744633" d="M314.5 395.5c-.647 10.506-.647 20.84 0 31v3c-1.856 4.235-3.023 8.902-3.5 14a128.507 128.507 0 00-.5 16h-8a202.275 202.275 0 004.5-20 15.044 15.044 0 013.5-6c-.483-4.408-.483-8.908 0-13.5a75.347 75.347 0 013-18c-1.6-2.64-1.266-4.807 1-6.5z" opacity="1"/>
  <path fill="#b49186" d="M73.5 429.5c1.478-.262 2.811.071 4 1a92.025 92.025 0 00-3.5 13 98.432 98.432 0 01-.5-14z" opacity="1"/>
  <path fill="#794f41" d="M274.5 415.5h4a179.427 179.427 0 011 44h-1a188.894 188.894 0 00-1.5-29c-1.459-1.932-2.625-3.932-3.5-6v-1c-.306-2.885.027-5.552 1-8z" opacity="1"/>
  <path fill="#3e231e" d="M36.5 412.5a82.65 82.65 0 01-3 16.5c.13 1.059.63 1.892 1.5 2.5l1-4a49.248 49.248 0 010 14 563.898 563.898 0 01-5.5 18h-2c4.11-8.305 6.11-16.972 6-26-1.657 4.28-3.657 8.28-6 12h-1c1.199-10.664 3.532-21.164 7-31.5.336-1.03 1.003-1.53 2-1.5z" opacity=".975"/>
  <path fill="#645042" d="M273.5 424.5c.875 2.068 2.041 4.068 3.5 6a188.894 188.894 0 011.5 29h-7c-1.13-1.815-1.796-3.815-2-6 1.337.815 2.337 1.982 3 3.5a8.43 8.43 0 004 .5 1954.872 1954.872 0 00-3-33z" opacity="1"/>
  <path fill="#9a7669" d="M220.5 455.5c1.248-.834 1.915-2.167 2-4-.085-1.833-.752-3.166-2-4-.285-1.788.048-3.455 1-5a3.647 3.647 0 011.5 1c.2 4.253.7 8.42 1.5 12.5-1.566.765-2.899.598-4-.5z" opacity="1"/>
  <path fill="#706351" d="M314.5 429.5a1031.597 1031.597 0 00-3 30h-1c-.166-5.344.001-10.677.5-16 .477-5.098 1.644-9.765 3.5-14z" opacity=".969"/>
  <path fill="#683c2c" d="M54.5 245.5c1.406.473 2.073 1.473 2 3 .086.996-.248 1.829-1 2.5 2.165 1.161 3.165 2.994 3 5.5a222.533 222.533 0 00-1.5 45 48.145 48.145 0 002.5 5l1-1a85.308 85.308 0 003-11 187.555 187.555 0 01-3 26.5l.5 7.5c.77 1.098 1.603 1.098 2.5 0v3a69.865 69.865 0 01-4.5 17c-9.657 20.656-17.157 41.99-22.5 64-.997-.03-1.664.47-2 1.5-3.468 10.336-5.801 20.836-7 31.5-1.517.011-2.684.677-3.5 2-.113 2.474-1.113 4.474-3 6a18.437 18.437 0 00-.5 6h-9a17.417 17.417 0 013.5-8 79.084 79.084 0 002-10 129.507 129.507 0 0013-23c1.263-8.841 3.93-17.174 8-25 .882-8.911 3.882-16.911 9-24 1.044-5.482 3.044-10.482 6-15 .647-36.387.647-72.721 0-109 .78 2.597 1.28 2.597 1.5 0z" opacity="1"/>
  <path fill="#b49484" d="M220.5 447.5c1.248.834 1.915 2.167 2 4-.085 1.833-.752 3.166-2 4-2.624-.423-4.291.91-5 4h-3a170.744 170.744 0 01-1-15c2.666.433 5.332.933 8 1.5-1.212 1.107-.879 1.607 1 1.5z" opacity="1"/>
  <path fill="#654b3c" d="M27.5 445.5h1a8088.11 8088.11 0 00-5 14h-3a18.437 18.437 0 01.5-6c1.887-1.526 2.887-3.526 3-6 .816-1.323 1.983-1.989 3.5-2z" opacity="1"/>
  <path fill="#997266" d="M73.5 459.5h-3c1.588-13.19 2.588-13.19 3 0z" opacity="1"/>
</svg>
