<svg version="1.0" xmlns="http://www.w3.org/2000/svg" preserveAspectRatio="xMidYMid meet" viewBox="0 0 1252 1199">
  <g fill="#000">
    <path d="M216 907c-12.2-4-22.9-14.8-26.7-27.1-1.6-5-1.7-21.8-2-223.7-.3-213.9-.3-218.5 1.6-226.4 3.1-12.7 10-21.4 22.1-27.9 4.5-2.3 4.7-2.4 42.3-2.7l37.8-.4 1-2.4c.5-1.4.9-18.3.9-38.3 0-34.1.1-36.1 2.1-40.5 4.6-10.5 10-16.5 19.3-21.4l5.1-2.7H679c354.5 0 359.6 0 364 2 12.5 5.4 21.5 17.4 24.1 32.2.6 3.2.8 92.6.7 224-.3 210.9-.4 218.9-2.2 222.8-4.4 9.5-5.2 10.9-8.8 15-2.1 2.3-6.9 5.9-11 8.1l-7.3 3.8-36.5.4c-31.2.3-36.7.5-38.2 1.8-1.5 1.4-1.7 5.3-2 39.2l-.3 37.7-3 5.9c-3.9 7.6-10.6 14.6-17.5 18.2l-5.5 2.9-358.5.2c-197.2.1-359.6-.2-361-.7zm716.7-13.2c7.3-3.4 12.9-8.3 15.5-13.5l2.3-4.8.3-220c.3-247.1.9-226.9-7.2-235-2.4-2.4-6.8-5.5-9.8-6.9l-5.5-2.6H222.5l-5 2.4c-7.1 3.3-10.7 6.6-13.8 12.8l-2.7 5.4.2 222.9.3 223 2.8 4.8c3.4 5.6 7.3 8.8 14.2 11.6 5 2 6 2 357.2 2l352.2.1 4.8-2.2zm106.9-107c5.6-2.9 9.8-7.3 12.3-12.8 1.5-3.2 1.6-24.3 1.6-226.5 0-203.7-.1-223.3-1.6-226.6-2.7-5.7-7.9-10.9-13.7-13.5l-5.4-2.4h-707l-6 3.2c-5.9 3.1-9.9 7.2-13.4 13.8-1.7 3.2-1.9 6.4-2.2 38-.3 29.1-.1 34.8 1.2 36.5 1.4 2 2.9 2 315.8 2.5l314.3.5 5 2.8c8.3 4.6 12.2 8.4 16.7 16l4.3 7.2.3 180.4c.2 167.5.4 180.6 1.9 182.3 1.6 1.8 3.6 1.9 36.2 1.6l34.6-.3 5.1-2.7z"/>
    <path d="M455 831c-4.2-4.2-1-9.5 6.4-10.5 2.3-.3 48-.5 101.6-.3 93.2.3 97.6.4 100.3 2.2 3.3 2.3 3.5 5.5.4 8.4l-2.3 2.2H559.2c-100.9 0-102.2 0-104.2-2zm-166.4-62.1c-3.1-2.4-3.4-5.9-.7-8.3 1.7-1.6 19.1-1.7 271.2-1.6 251.1 0 269.5.1 270.7 1.7 1.4 2 1.6 6.2.2 8.3-.8 1.3-32.1 1.5-269.8 1.8l-268.9.2-2.7-2.1zm6.7-76.9c-4.1-1.7-4.4-6-4.1-49.6.2-33 .6-41.4 1.7-42.7 1.2-1.6 7.5-1.7 71.1-1.7 69.6 0 69.7 0 71.6 2.1 1.8 2 1.9 4.4 2.2 41.3.2 21.5 0 41-.3 43.4-.5 3.4-1.3 4.7-3.8 6.3-3.1 1.8-5.6 1.9-69.7 1.8-36.6 0-67.5-.4-68.7-.9zm128.1-13.1l2.7-2.1-.3-32.5c-.3-30.8-.4-32.5-2.2-33.9-1.7-1.2-11.4-1.4-59.7-1.4-50.9 0-57.8.2-58.9 1.6-1.8 2-1.6 67 .1 69.1.9 1.1 11.8 1.3 58.4 1.3 56.7 0 57.3 0 59.9-2.1zM774 571.3c-14.9-2.6-29.5-12.6-35.4-24.1-2.3-4.5-5.6-16.9-5.6-21.2 0-4.6 3.3-16.5 5.9-21.5 4.5-8.5 9.1-12.7 21.1-19.4 7.2-4 22.9-5.4 29.7-2.6 1.9.8 5.8 1.5 8.5 1.5s6.5-.7 8.5-1.5c10.3-4.3 32 .9 41.5 10 5 4.8 11.7 15.9 13.3 22.1 6.2 23.8-7.8 47.8-32.1 54.9-7.7 2.3-14.2 2.3-23.5 0-7.6-1.8-7.7-1.8-16.7.3-9 2.2-10.4 2.3-15.2 1.5zm7.2-14.8c.9-2 .8-2.8-.4-4.2-2.4-2.8-5.6-10.8-6.9-17.4-2-10.1-.6-20 4.1-29.6 2.2-4.4 4-8.8 4-9.7 0-2.7-2.7-3-10.3-1.2-10 2.5-14.7 6-21.6 16.6-3.5 5.4-3.5 5.7-3.5 15 .1 8.5.4 10 3 14.5 4.7 8.3 11.2 14.1 18.5 16.4 8.9 2.8 11.7 2.7 13.1-.4zm51.5-1.7c6.7-3.3 11-7.7 14.8-15.2 3-6 2.9-22.5-.3-28.1-4.5-8.1-13.1-15-20.7-16.7-8-1.8-10.8-2-14.4-1-2 .6-4.8 1.3-6.3 1.6-3.3.7-12.8 9.3-17.1 15.5-3.1 4.5-3.2 4.9-3.2 15.1 0 9.8.2 10.8 2.8 14.9 11.1 17 27.6 22.2 44.4 13.9z"/>
  </g>
</svg>
