<svg version="1.1" xmlns="http://www.w3.org/2000/svg" viewBox="0 0 1252 1199">
  <path d="M343.857 292.016c3.57.03 7.14.01 10.7-.01 6.25-.02 12.5 0 18.74.03 9.29.04 18.58.04 27.87.03 15.63-.01 31.26.01 46.9.06 15.49.04 30.98.07 46.47.08h17.62c34.7.01 69.4.06 104.1.14 33.64.06 67.28.11 100.93.14h3.13c9.37.01 18.74.02 28.11.02 37.89.03 75.79.07 113.68.12h2.91c23.28.03 46.56.06 69.83.1 1.73.01 3.46.01 5.19.01 1.27.01 1.27.01 2.57.01l17.5.03c6.99.01 13.99.02 20.98.04 3.51 0 7.02.01 10.53.01 7.32.01 14.63.04 21.95.13 2.32.03 4.65.05 6.97.07 3.42.03 6.83.1 10.24.17 1.01.01 2.01.01 3.04.02 9.07.27 15.87 3.96 22.55 9.99 7.77 8.54 11.76 19.58 11.76 30.97v2.21c.01 2.45 0 4.9 0 7.35v5.31c.01 4.87.01 9.75 0 14.62 0 5.26.01 10.51.01 15.76v66.89c0 22.71 0 45.42-.01 68.14v58.41c.01 22.62.01 45.23.01 67.84v66.5c-.01 5.19-.01 10.39 0 15.59 0 4.77 0 9.54-.01 14.31v5.15c.01 8.15-.05 16.29-.43 24.44-.05 1.23-.1 2.47-.16 3.74-1.24 8.23-6.47 17.7-13.13 22.78-1.82 1.23-3.66 2.39-5.53 3.53-.63.4-1.27.8-1.92 1.21-4.43 2.78-6.91 4.17-12.11 4.23-1.08.02-2.16.04-3.28.05-1.76.02-1.76.02-3.56.05-1.22.01-2.44.03-3.69.05-3.92.06-7.84.11-11.75.16-16.21.22-32.39.46-48.57 1.5-.73 11.42-1.06 22.79-1.07 34.22l-.03 7.57c-.02 3.88-.02 7.75 0 11.63.02 3.81 0 7.62-.03 11.43.02 1.14.04 2.29.05 3.46-.18 12.01-6.03 20.35-14.32 28.66-7.85 6.15-13.98 7.77-23.92 7.66-1.22.01-2.45.01-3.71.02-3.39.02-6.77.01-10.16-.01-3.69-.01-7.38 0-11.07.01-6.46.02-12.92.02-19.39 0-9.61-.02-19.22-.01-28.83 0-17.16.03-34.32.02-51.49 0-15.02-.01-30.04-.02-45.06-.02-1 0-1.99 0-3.02.01h-12.13c-37.94.01-75.88-.01-113.81-.04-33.71-.03-67.42-.03-101.13-.02-8.63 0-17.26.01-25.89.01h-3.22c-28.16.01-56.33.01-84.49-.01h-15.12c-15.01-.01-30.02-.01-45.03 0-17.07.01-34.14 0-51.21-.02-9.55-.02-19.11-.02-28.66-.01-6.38.01-12.76 0-19.14-.02-3.64-.01-7.28-.01-10.91 0-3.92.02-7.84 0-11.76-.02l-3.41.03c-11.2-.11-18.73-3.46-26.78-11.17-7.8-8.16-11.64-15.98-11.94-27.3-.03-.93-.06-1.86-.1-2.82-.48-16.07-.37-32.17-.36-48.25 0-5.13-.01-10.26-.01-15.39-.01-10.01-.01-20.03-.01-30.05 0-8.14-.01-16.28-.01-24.42-.01-23.12-.01-46.24-.01-69.35v-7.54c0-20.2-.01-40.4-.03-60.61-.01-20.77-.02-41.55-.02-62.33 0-11.65 0-23.3-.01-34.95-.01-9.91-.01-19.82 0-29.73 0-5.05 0-10.1-.01-15.15-.01-4.63-.01-9.26 0-13.89.01-1.67 0-3.34 0-5.01-.05-14.82 1.29-27.59 10.5-39.89 8.15-7.96 15.82-11.89 27.34-12l2.19-.03c2.37-.04 4.73-.05 7.09-.07l4.95-.06c4.32-.05 8.65-.09 12.97-.13 4.42-.04 8.83-.09 13.25-.14 8.65-.09 17.31-.18 25.96-.26.01-.95.03-1.9.04-2.88.11-9 .26-18 .43-27 .09-4.63.17-9.26.23-13.89.05-4.47.13-8.94.23-13.42.03-1.7.06-3.39.07-5.09.08-10.61 1.05-18.55 7-27.72.42-.65.83-1.31 1.26-1.99 1.43-1.93 2.96-3.39 4.74-5.01.73-.67 1.45-1.34 2.2-2.03 10.97-8.35 23.42-7.08 36.66-6.95zm-36.84 29.14c-2.32 4.2-2.14 8.84-2.15 13.53v1.97c-.01 2.14 0 4.28 0 6.42v13.82c.01 4 .01 7.99 0 11.99v13.65c-.01 2.05 0 4.11 0 6.17 0 1.17.01 2.34.01 3.54-.06 2.72-.06 2.72 1.12 4.75 12.55 1.82 25.67 1.17 38.31 1.19l6.71.03c6.13.02 12.25.04 18.38.05l17.93.06c11.55.04 23.11.08 34.66.11 16.91.05 33.83.11 50.74.17 64.54.24 129.08.41 193.62.43h8.78c14.52 0 29.05.01 43.58.02 1.42.01 1.42.01 2.88.01 8.58.01 17.17.01 25.76.03 21.62.02 43.25.03 64.88 0 15.17-.02 30.34-.01 45.5.02 9.07.02 18.14.01 27.21-.02 6.09-.02 12.18-.01 18.27.02 3.47.01 6.95.01 10.42-.01 3.76-.03 7.51-.01 11.26.02 1.08-.02 2.15-.03 3.26-.05 9.49.16 15.57 4.3 22.67 10.3 3.05 3.67 5.62 7.6 8.18 11.62l2 3c.26 2.14.26 2.14.26 4.67.01.96.02 1.93.02 2.92 0 1.07 0 2.13-.01 3.22.01 1.13.01 2.26.02 3.42.01 3.8.02 7.61.02 11.41 0 2.72.01 5.44.02 8.16.02 5.89.03 11.77.04 17.66.01 8.58.03 17.17.06 25.76.04 14.03.07 28.07.1 42.1.02 13.46.05 26.91.08 40.37 0 .82 0 1.64.01 2.48l.06 27.12c0 .81.01 1.61.01 2.45.01 3.24.02 6.48.02 9.72.03 8.56.05 17.12.06 25.69.06 32.01.19 64.03.57 96.05.04 3.22.07 6.44.1 9.66.03 3.76.08 7.51.13 11.27.02 1.38.03 2.76.04 4.14.02 1.89.05 3.78.08 5.67.01 1.05.02 2.11.04 3.2.28 2.96 1.03 5.17 2.27 7.86 8.96.14 17.91.25 26.87.32 4.15.03 8.31.07 12.47.14 4.02.06 8.04.1 12.06.11 1.53.01 3.06.04 4.58.07 9.28.19 16.73-.3 24.02-6.64 10.62-11.93 8.15-28.56 8.13-43.72v-5.19c.01-4.71.01-9.42 0-14.13 0-5.1.01-10.2.01-15.29v-64.78c0-21.99 0-43.99-.01-65.99v-56.55c.01-21.92.01-43.84.01-65.77v-64.38c-.01-5.03-.01-10.05 0-15.08 0-4.62 0-9.23-.01-13.84v-4.98c.01-8.03-.07-16.06-.48-24.08-.09-1.9-.09-1.9-.19-3.84-.86-6.34-3.8-10.23-8.68-14.18-5.35-3.74-10.27-6.44-16.91-6.45-1.02-.01-2.04-.01-3.1-.02-1.11 0-2.23.01-3.38.01-1.79 0-1.79 0-3.62-.01-3.33-.01-6.66-.01-9.98-.01-3.62 0-7.24-.01-10.85-.01-7.18-.02-14.36-.02-21.53-.03-8.6 0-17.19-.01-25.79-.02-20.77-.04-41.54-.05-62.31-.06-9.83 0-19.65-.01-29.48-.02-33.62-.02-67.25-.04-100.87-.05h-12.68c-4.25 0-8.5-.01-12.74-.01h-3.19c-34.14 0-68.28-.04-102.42-.08-36.08-.05-72.17-.08-108.25-.08h-14.84c-15.7-.01-31.4-.03-47.1-.06-15.78-.03-31.56-.03-47.34-.02-9.37.01-18.75.01-28.12-.03-6.27-.02-12.53-.01-18.79.01-3.57.01-7.14.01-10.71-.02-3.84-.02-7.69 0-11.53.02-1.11-.01-2.21-.03-3.35-.05-12.67.18-20.58 7.16-27.88 16.95zm-100.64 100.91c-1.27 1.85-1.27 1.85-2.38 3.93-.51.88-1.02 1.75-1.55 2.66-1.64 3.8-1.86 6.96-1.82 11.02 0 .76-.01 1.51-.01 2.29-.01 2.54 0 5.08.01 7.62 0 1.84 0 3.68-.01 5.51-.01 5.06 0 10.11.02 15.16.01 5.45 0 10.9 0 16.34-.01 11.92.01 23.83.03 35.74l.03 22.32c.02 24.59.06 49.19.11 73.78 0 1.34.01 2.68.01 4.02v2.01c.05 20.85.07 41.71.06 62.56 0 23.43.02 46.86.07 70.29.03 12.4.05 24.81.04 37.21-.01 10.56 0 21.13.05 31.69.02 5.39.03 10.77.01 16.16-.02 4.94 0 9.87.04 14.81.01 1.78.01 3.56-.01 5.35-.07 9.14.05 16.3 6.17 23.69 2.12 2.14 4.11 3.88 6.75 5.34.79.45 1.57.91 2.38 1.38 6.15 2.48 12.8 2.2 19.33 2.19 1.45.01 1.45.01 2.92.01 3.24.01 6.49.01 9.73.01 2.34.01 4.69.01 7.03.02 5.78.01 11.56.02 17.33.02 6.93.01 13.86.02 20.78.04l38.44.06c12.76.01 25.52.03 38.28.05.8 0 1.59 0 2.41.01 4.05 0 8.1.01 12.15.02 28.74.04 57.48.09 86.23.13l82.91.12c.84 0 1.69 0 2.55.01l20.38.03c29.87.05 59.73.09 89.59.14 4.75.01 9.5.01 14.26.02 7.71.01 15.42.03 23.14.04 3.78 0 7.56.01 11.34.01 15.32.03 30.64.05 45.96.06 5.61 0 11.21 0 16.81.01h4.15c19.5.01 38.99.09 58.48.23 8.8.07 17.6.11 26.4.15 7.57.03 15.13.1 22.69.18 4.6.04 9.19.06 13.79.07 2.11.01 4.22.03 6.32.06 15.54.27 15.54.27 29.22-6.64 1.4-.86 1.4-.86 2.82-1.75 8.76-9.01 9.04-18.01 8.92-29.91 0-1.79.01-3.59.02-5.39.02-4.92 0-9.84-.03-14.76-.02-5.32-.01-10.63 0-15.95.01-10.4-.01-20.81-.04-31.21-.04-12.13-.04-24.25-.04-36.37 0-21.64-.04-43.28-.08-64.92-.05-20.98-.08-41.97-.09-62.95v-19.49c-.01-20.02-.03-40.03-.06-60.04-.01-7.25-.01-14.49-.02-21.74-.01-11.5-.02-22.99-.05-34.49-.02-5.25-.03-10.5-.03-15.76 0-4.81-.01-9.62-.03-14.44 0-1.73-.01-3.47 0-5.2.55-17.12.55-17.12-4.22-33.06-4.4-3.68-9.11-6.7-14.07-9.57-.61-.35-1.22-.71-1.85-1.07-2.54-1.09-4.39-1.18-7.15-1.18l-3.08-.02c-1.12 0-2.23.01-3.38.01-1.19-.01-2.39-.01-3.61-.01-3.32-.01-6.65-.02-9.97-.01-3.61 0-7.21-.01-10.82-.02-7.16-.02-14.33-.03-21.49-.03-8.58 0-17.16-.02-25.73-.03-20.74-.04-41.47-.06-62.21-.07l-29.42-.03c-33.57-.03-67.14-.05-100.7-.06h-6.33c-1.04-.01-2.09-.01-3.16-.01h-19.08c-34.07-.01-68.15-.05-102.23-.11-36.02-.06-72.04-.09-108.06-.1h-14.81c-15.67 0-31.34-.03-47.01-.06-15.76-.04-31.51-.05-47.26-.03-9.36.01-18.71 0-28.07-.04-6.26-.02-12.51-.02-18.76 0-3.57.02-7.13.02-10.69-.01-22.78-.64-22.78-.64-40.75 11.95z" fill="#2B0000"/>
  <path d="M299.957 758.748c.91 0 1.82-.01 2.75-.01 3.06-.01 6.11 0 9.17.01 2.21 0 4.42-.01 6.62-.01 6.08-.01 12.16-.01 18.24 0 5.88 0 11.76 0 17.64-.01 12.76-.01 25.53-.01 38.3 0 11.17.01 22.35.01 33.52 0h11.26c28.22 0 56.43 0 84.64.01 25.07.01 50.15.01 75.22 0 28.16-.01 56.32-.01 84.48-.01h11.25c11.16.01 22.33 0 33.5 0 12.69-.01 25.39-.01 38.08.01h19.45c5.93-.01 11.85-.01 17.78 0 2.15.01 4.3.01 6.45 0 2.91-.01 5.83 0 8.74.01.84 0 1.68-.01 2.55-.01 4.26.02 7.52.29 11.4 2.26.1 6.15.1 6.15 0 8-2.18 2.18-7.14 1.43-10.17 1.56l-2.86.12c-10.39.43-20.77.47-31.17.46-2.15 0-4.31.01-6.47.01-5.86.01-11.72.01-17.58.01-6.35 0-12.69.01-19.04.02-14.55.01-29.11.02-43.66.02-7.2 0-14.4.01-21.6.01-24.65.02-49.31.03-73.97.03h-20.91c-25.01.01-50.01.02-75.02.05-26.46.02-52.93.03-79.4.03-2.9 0-5.8.01-8.7.01h-2.17c-11.5 0-23.01.01-34.52.02-11.54.02-23.09.02-34.63.01-6.26 0-12.52 0-18.77.01-5.72.02-11.44.01-17.17 0-2.07 0-4.15 0-6.22.01-2.81.01-5.62.01-8.43-.01l-2.47.03c-3.25-.03-5.67-.2-8.58-1.69-1.49-1.71-1.49-1.71-1.74-5.4.09-1.09.17-2.18.25-3.31 4.67-2.36 8.86-2.28 13.96-2.25zm-.422-160.882c1.76-.01 1.76-.01 3.56-.01h3.94c1.37 0 2.75-.01 4.12-.01 3.74-.01 7.48-.01 11.22-.01 3.12 0 6.24-.01 9.36-.01 7.35-.01 14.71-.01 22.07-.01 7.59 0 15.19-.01 22.78-.03 6.52-.01 13.03-.02 19.55-.02 3.89.01 7.79 0 11.68-.01 3.66-.01 7.32-.01 10.99 0 1.98 0 3.97-.01 5.96-.02l3.57.02c1.03 0 2.06 0 3.11-.01 2.55.25 2.55.25 5.55 2.25 1.57 3.76 1.15 8.01 1.15 12.01 0 .81.01 1.61.01 2.44.01 2.65.01 5.31.01 7.96.01 1.85.01 3.69.01 5.54.01 3.86.01 7.73.01 11.6 0 4.95.01 9.91.03 14.87.01 3.81.01 7.62.01 11.43 0 1.83.01 3.65.02 5.48.01 2.56 0 5.11 0 7.66 0 .76.01 1.51.01 2.29-.04 6.95-.04 6.95-2.26 9.72-3.68 1.8-6.66 2.26-10.74 2.26-1.72.02-1.72.02-3.47.03-1.25-.01-2.5-.01-3.79-.01-1.34 0-2.67.01-4.01.01-3.62.02-7.24.02-10.86.02-3.02-.01-6.04 0-9.06 0-7.13.01-14.26.02-21.38.01-7.36-.01-14.71.01-22.07.03-6.32.01-12.63.02-18.95.02-3.77 0-7.54 0-11.31.01-4.21.02-8.41.01-12.61 0l-3.8.02c-1.14-.01-2.28-.01-3.46-.02h-3.01c-2.87-.44-3.74-1.09-5.48-3.38-1.49-3.73-1.14-7.82-1.12-11.79-.01-.78-.01-1.56-.01-2.37v-24.42c.01-4.81.01-9.63 0-14.45v-16.45c0-2.49 0-4.98.01-7.46-.01-.73-.01-1.46-.01-2.21.02-4.05.19-7.91 1.13-11.85 2.64-1.31 4.59-1.13 7.54-1.13zm23.59 11.57l-2.45.06c-2.27.06-4.53.12-6.79.19-1.93.05-1.93.05-3.9.11-2.91.01-2.91.01-4.99 1.2-1.93 9.51-1.15 19.93-1.13 29.6.01 2.7 0 5.4 0 8.1-.03 15.18-.03 15.18 1.13 30.3 1.92 1.92 5.37 1.25 7.91 1.32l2.22.06c2.46.07 4.91.13 7.37.19l2.58.06c22.97.55 45.95.57 68.92.37.81 0 1.61-.01 2.44-.02 4.61-.03 9.21-.11 13.81-.23 1.06-.01 2.12-.02 3.21-.04.95-.03 1.9-.06 2.87-.1l2.41-.06c3.25-.78 4.89-2.21 7.26-4.55.69-2.87.69-2.87.5-6.09l-.06-3.74c-.04-1.33-.08-2.67-.13-4.01-.03-1.38-.06-2.76-.08-4.14-.07-3.62-.18-7.24-.29-10.86-.08-2.95-.14-5.91-.2-8.87l-.24-10.57c-.02-.67-.04-1.35-.05-2.04-.05-1.9-.1-3.81-.16-5.71l-.09-3.28c-.09-2.79-.09-2.79-1.2-5.69-2.92-1.46-5.89-1.24-9.1-1.31-1.09-.03-1.09-.03-2.21-.07l-7.31-.18-2.55-.06c-26.57-.65-53.13-.61-79.7.06z" fill="#2B0000"/>
  <path d="M845.313 488.813c8.56 6.97 15.4 17.25 17.69 28.19.9 14.8-.4 26.43-9.8 38.52-8.82 9.91-20.25 15.19-33.36 16.73-3.85.12-7.47-.52-11.22-1.25-6.84-1.32-13.2-1.71-20 0-12.01 2.88-22.78.46-33.45-5.61-11.39-7.62-18.32-16.02-21.63-29.35-2.36-13.14.3-25.46 7.02-36.92 6.61-9.01 17.53-15.76 28.44-18.12 1.46-.09 2.93-.13 4.4-.14h2.51c.85 0 1.71.01 2.59.01 1.28 0 1.28 0 2.59-.01h2.5c.75.01 1.5.01 2.27.01 2.17.13 4.05.58 6.14 1.13 6.27.37 12.3.28 18.43-1.13 12.39-2.5 24.14 2.07 34.88 7.94zm-90.31 16.19c-7.37 9.41-8.64 16.21-8 28 1.26 7.8 7.06 14.84 13.09 19.67 6.53 4.25 12.19 5.59 19.91 5.33.86-2.95 1.18-4.52.07-7.43-.68-1.21-.68-1.21-1.38-2.45-5.65-10.06-6.72-22.95-4.23-34.23 1.17-3.8 2.79-7.34 4.54-10.89 1.55-3.47 2-5.08 2-9-10.26-.91-19.23 3.44-26 11zm38 1c-7.54 8.97-7.99 16-7.31 27.58 1 7.91 6.48 12.96 12.24 17.92 8.07 5.92 15.03 7.64 25.07 6.5 11.37-2.79 17.52-7.53 23.61-17.38 3.84-7.27 3.85-19.18 1.45-27-3.86-8.13-10.65-14.08-18.7-17.78-14.63-5.21-26.08-.65-36.36 10.16z" fill="#2A0000"/>
  <path d="M466.748 819.873h2.42c2.68-.01 5.36-.01 8.04 0 1.92 0 3.83-.01 5.75-.01h15.66c5.46.01 10.92 0 16.38 0 9.18 0 18.35 0 27.53.01 10.6 0 21.2 0 31.81-.01h43.61c5.12 0 10.23 0 15.35.01 1.87 0 3.75 0 5.62-.01 2.57 0 5.13.01 7.7.01.74 0 1.47 0 2.23-.01 12.32.05 12.32.05 16.15 2.32 1.51 2.74 1.38 4.76 1 7.82-1.01 1.66-1.01 1.66-3 3-2.79.29-5.36.4-8.15.38-.84 0-1.68.01-2.55.01-2.83.01-5.66 0-8.49 0-2.02 0-4.04 0-6.07.01-5.5.01-11 .01-16.51 0-5.75-.01-11.5 0-17.26 0-9.66.01-19.32 0-28.99-.01-11.18-.02-22.36-.01-33.54 0-9.58.02-19.17.02-28.76.01-5.73 0-11.47 0-17.2.01-5.38 0-10.77 0-16.16-.02h-5.94c-2.7.01-5.4 0-8.1-.01-.78 0-1.57.01-2.38.02-3.22-.04-5.53-.21-8.39-1.74-1.51-1.66-1.51-1.66-1.95-4.66.44-3 .44-3 1.75-4.82 3.86-2.71 7.94-2.32 12.44-2.31z" fill="#2B0000"/>
</svg>
