<svg version="1.1" xmlns="http://www.w3.org/2000/svg" viewBox="0 0 740 740">
  <path d="M427 216h3c-.39 12.8-2.64 19.35-11.78 28.31-13.58 12.73-30.18 21.56-46.21 30.8-4.64 2.67-9.24 5.38-13.82 8.14-1.12.67-2.24 1.34-3.39 2.02-2.38 1.47-4.68 3.02-6.99 4.61-3.14 2.02-6.1 2.72-9.75 3.5-9.43 2.14-15.22 7.78-20.39 15.75-6.27 10.78-10.31 22.21-14.42 33.93-4.29 12.23-8.95 24.31-13.63 36.39-.64 1.65-1.28 3.31-1.92 4.96-.31.81-.63 1.63-.95 2.46-2.02 5.23-4.02 10.47-5.98 15.72-.25.66-.5 1.33-.76 2.01-1.14 3.06-2.29 6.13-3.42 9.19-3.21 8.58-6.62 16.97-12.15 24.33-3 4.14-5.3 8.25-7.44 12.88 4.07-2.92 6.44-5.84 9-10.12.64-1.06 1.28-2.11 1.94-3.2 4.76-8.33 8.45-16.92 11.76-25.92.43-1.16.85-2.31 1.3-3.5l3.42-9.24c1.88-5.08 3.78-10.15 5.67-15.22.7-1.87 1.39-3.73 2.09-5.6 3.73-10 7.56-19.95 11.54-29.86 2.06-5.16 4-10.34 5.84-15.59 5.53-15.59 11.66-27.66 26.43-35.86 3.82-1.8 6.84-2.25 11.01-1.89 2.43 1.04 4.63 2.11 6.94 3.38 13.2 6.87 26.85 12.7 40.78 17.94.75.28 1.51.57 2.29.86 3.75 1.41 7.51 2.81 11.28 4.18 17.38 6.41 17.38 6.41 22.42 12.81 1.68 3.69 1.67 7.01 1.58 10.97 0 .77-.01 1.54-.01 2.34-.02 2.44-.05 4.89-.09 7.33-.02 1.67-.03 3.33-.04 4.99-.04 4.07-.09 8.13-.15 12.2-5.62-3.65-11-7.44-16.19-11.69-1.3-1.05-2.6-2.1-3.9-3.16l-1.97-1.59c-3.59-2.89-7.24-5.72-10.88-8.54-2.78-2.18-5.52-4.39-8.18-6.72-10.33-8.99-18.67-14.02-32.53-13.8-3.66.55-5.48 1.18-8.35 3.5-1.54 2.15-2.81 4.14-4.06 6.44-.35.63-.7 1.26-1.05 1.91-5.49 10.24-7.86 21.31-10.61 32.52-1.64 6.71-3.45 13.33-5.47 19.93-1.28 4.25-2.37 8.5-3.38 12.82-5.05 21.57-12.39 43.16-21.43 63.38 5.88-4.58 7.54-10.83 9.94-17.69.4-1.11.81-2.23 1.22-3.37 1.08-3 2.13-5.99 3.17-9 .69-1.99 1.39-3.97 2.1-5.95 4.94-14.08 8.29-28.52 11.74-43.03 2.87-12 5.91-23.86 9.93-35.54.32-.92.63-1.84.95-2.79 2.51-7.03 5.23-14.09 10.76-19.25 7.55-3.26 17.96 1.13 25.37 3.85 4.27 1.8 7.49 4.62 10.82 7.77 1.5 1.38 3 2.75 4.5 4.12.83.76 1.65 1.52 2.5 2.29 3.7 3.19 7.55 6.14 11.44 9.09.73.56 1.47 1.12 2.23 1.69.72.55 1.45 1.1 2.2 1.67 20.24 15.35 20.24 15.35 24.13 23.14.07 1.54.08 3.08.06 4.62-.01.82-.02 1.64-.02 2.48L437 393c-5.42-1.45-9.32-4.04-13.81-7.25-.71-.49-1.42-.98-2.15-1.49-2.96-2.06-5.89-4.14-8.77-6.32-4.38-3.23-7.55-4.75-13.07-4.33-6.22 1.11-12.11 3.36-16.2 8.39-4.93 8.87-7.79 18.83-10.94 28.44-.53 1.62-1.07 3.24-1.61 4.86-2.96 8.98-5.79 17.98-8.43 27.06-3.7 12.54-8.29 24.88-14.02 36.64 6.51-7.64 10.83-16.37 13.37-26.06 1.51-5.61 3.25-11.13 5.06-16.65l.97-2.97c1.01-3.08 2.02-6.17 3.04-9.26.67-2.06 1.35-4.13 2.02-6.19l4.74-14.43c.7-2.13 1.39-4.26 2.08-6.39.34-1.06.68-2.12 1.04-3.21.27-.85.54-1.7.83-2.58 1.99-5.27 4.83-10.42 9.85-13.26 5.89-1.96 12.16-2.29 17.88.32 2.81 1.78 5.47 3.68 8.12 5.68 1.6 1.15 3.2 2.3 4.81 3.44.81.57 1.62 1.14 2.45 1.74 3.23 2.14 6.55 4.05 9.93 5.94 2.27 1.29 4.54 2.59 6.81 3.88 1.14.64 1.14.64 2.31 1.3 5.16 3.23 7.14 7 8.69 12.7.71 3.9 1.24 7.83 1.79 11.76 1.22 8.35 3.73 15.78 7.85 23.2 1.53 3.41 1.67 5.7 1.55 9.42l-.08 3.21c-.04.79-.07 1.59-.11 2.41-6.48 2.39-12.25 4.18-19 2-5.25-2.63-10.12-5.75-15-9-1.15-7.42 1.48-16.23 5.6-22.39 1.65-1.92 1.65-1.92 4.4-4.61l-3 1-1-10h-2c-.08 1.18-.16 2.35-.25 3.56-.85 7.75-2.88 15.9-5.85 23.11-1.45 3.76-1.77 7.37-.9 11.33 2.76 2.34 2.76 2.34 6 4 1.05 1.64 2.04 3.31 3 5 1.12 1.51 2.24 3 3.38 4.5 6 8.51 8.86 18.55 11.62 28.5 1.17-11.75-4.15-21.15-10-31l4 2v-3c.5.16.99.33 1.5.5 8.04 1.61 14.18-.55 21.68-3.2 6.85-2.39 13.91-3.91 21.01-5.36L492 459l1-2c-8.85 1.11-17.4 2.64-26 5 0-.57-.01-1.14-.01-1.73-.32-6.83-2.46-11.77-5.44-17.86-3.17-6.96-5.09-14.29-6.28-21.83-.12-.75-.24-1.5-.37-2.27-.22-1.45-.42-2.91-.6-4.36-.88-6.03-3.34-10.73-8.28-14.44-.59-.27-1.17-.54-1.77-.82C441 397 441 397 440 395c-.2-3.18-.32-6.36-.43-9.54-.58-3.54-1.82-5.55-3.69-8.55-1.67-3.63-1.29-7.43-1.13-11.35.02-.82.04-1.65.05-2.5.05-2.02.12-4.04.2-6.06 10.11 3.78 17.88 10.39 25.57 17.74 2.87 2.66 3.53 3.26 7.43 3.26 1.83 1.69 1.83 1.69 3.81 4 .65.74 1.29 1.49 1.96 2.25 21.58 26.61 34.42 62.52 34.42 96.72 0 2.19.02 4.39.03 6.59.06 13.98-.54 24.15-10.16 34.82-7.15 7.99-10.62 16.29-14.2 26.28a419.8 419.8 0 01-2.77 7.27c-4.9 12.54-9.16 25.2-13.09 38.07-4.49-1.25-7.17-2.7-10.5-5.94-5.14-4.81-10.55-9.12-16.12-13.42-2.9-2.24-5.7-4.59-8.5-6.95-11.66-9.29-23.05-11.54-37.5-12.13-24.53-1.01-45.57-9.67-67.93-19.12-2.27-.95-4.55-1.88-6.84-2.79l-3.19-1.27c-.93-.37-1.86-.73-2.81-1.11-2.9-1.41-5.16-3.17-7.61-5.27l-1 1c-4.29.26-8.58.19-12.88.19l-3.6.03c-11.43.02-20.86-.23-29.52-8.22-.94-.83-.94-.83-1.91-1.67C252.12 511.8 249 506.1 248 498c-.07-2.64-.1-5.24-.06-7.88 0-.68.01-1.37.01-2.08.01-1.68.03-3.36.05-5.04-.9-.14-.9-.14-1.83-.29-2.65-.87-3.34-1.78-4.94-4.03-.49-.7-.99-1.39-1.49-2.1-.52-.75-1.03-1.5-1.55-2.27-.8-1.14-.8-1.14-1.61-2.31-8.55-12.6-16.01-26.24-13.58-42 2.56-5.19 5.87-9.61 9.38-14.19 16.5-22.22 21.26-50.48 27.74-76.88 1.09-4.44 2.19-8.89 3.3-13.33.5-2.04.99-4.07 1.49-6.11 1.71-6.86 3.68-13.5 6.12-20.13.24-.66.48-1.32.73-2 2.92-7.67 7.49-13.66 14.24-18.36-.57-.18-1.13-.35-1.72-.53-3.46-2.23-4.87-5.4-6.78-8.97-.39-.73-.79-1.46-1.19-2.21-.78-1.45-1.54-2.9-2.3-4.35-.81-1.56-1.66-3.09-2.52-4.62-3.73-7.53-3.08-16.25-1.49-24.32 1.76-5.07 4.86-8.96 9.79-11.38 6.17-1.74 13.46-1.8 19.4.82 5.19 3.12 9.48 7.37 13.81 11.56.99.95.99.95 2.01 1.91 2.22 2.12 4.42 4.26 6.61 6.4l2.2 2.11c.67.66 1.34 1.32 2.03 2.01.61.59 1.21 1.18 1.84 1.79C329 251 329 251 329 255c18.37-10.23 36.79-20.55 54.36-32.12 2.27-1.22 4.13-1.27 6.64-.88.08.95.16 1.9.25 2.88.39 3.15.39 3.15 2.45 4.29 7.27 2.61 15.2 1.16 22.04-1.97 5.48-2.91 9.13-5.72 12.26-11.2zM296 504l1 4zm1 6l1 2zm1 3l1 2z" fill="#FBC2AC"/>
  <path d="M321 119c1.36 3.68.54 5.49-1 9-5.76 23.14 4.71 46.85 15 67 5.04-.46 7.57-1.83 11.38-5.12.95-.82 1.9-1.63 2.88-2.47.91-.8 1.81-1.59 2.74-2.41.73-.63 1.46-1.26 2.21-1.91 1.3-1.13 2.6-2.27 3.9-3.41 1.28-1.14 2.58-2.27 3.88-3.39 13.73-11.81 29.08-26.31 31.01-45.29 2.32 2.86 3.8 5.57 5.12 9l1.01 2.56c5.66 15.89 1.66 33.98-5.32 48.69-7.38 14.13-20.48 25.17-35.71 30.12-6.99 1.94-13.85 3.39-21.1 3.63-.64.03-1.29.05-1.95.08-14.52.52-26.83-1.54-40.36-7.02-1.27-.5-1.27-.5-2.56-1.02-1.17-.49-1.17-.49-2.37-1-.7-.3-1.4-.6-2.12-.9-1.64-1.14-1.64-1.14-2.38-3.27-.08-.62-.17-1.23-.26-1.87l-2-.12c-9.68-2.83-16.5-12.27-21.61-20.46-6.73-12.58-7.62-29.39-4.55-43.2 3.21-8.39 8.6-15.91 16.85-19.84 7.94-2.68 16.53-1.47 24.22 1.57 3.97 2 7.23 4.86 10.59 7.74.73.6 1.45 1.21 2.2 1.84 1.78 1.48 3.54 2.97 5.3 4.47l.18-3.61c.09-1.57.17-3.14.26-4.7l.12-2.38.12-2.3c.04-.69.08-1.39.11-2.11.21-1.9.21-1.9 1.21-4.9h3v-3z" fill="#F3F3F3"/>
  <path d="M346.688 107.063c6.92 4.05 9.78 8.98 11.87 16.61.44 2.33.44 2.33.44 6.33 3.24-1.12 5.79-2.54 8.57-4.5 5.09-3.23 10.42-4.48 16.43-4.5 3.04.85 5.53 2.02 8 4 2.05 4.1 1.62 8.55 1 13-3.79 11.13-11.04 19.58-19 28-.52.55-1.03 1.1-1.57 1.66-5.38 5.67-10.9 10.95-17.2 15.61-3.51 2.72-6.72 5.77-9.97 8.81-2.97 2.52-4.82 3.85-8.75 4.04-4.01-1.79-4.92-5.16-6.57-9.06-.35-.78-.69-1.56-1.05-2.37-.68-1.55-1.35-3.1-2.01-4.65-.68-1.59-1.4-3.16-2.14-4.73-6.79-15.05-9.97-35.42-4.74-51.31.26-.83.52-1.66.78-2.52 2.13-6.11 5.03-10.54 10.22-14.48 5.35-1.78 10.31-1.49 15.69.06z" fill="#772131"/>
  <path d="M352 286c.99.5.99.5 2 1l-6 7c1.24.39 2.48.78 3.75 1.19 4.9 1.62 9.61 3.61 14.36 5.63 2.37.97 4.7 1.8 7.14 2.56 4.01 1.28 7.8 2.95 11.63 4.68 8.63 3.9 17.51 7.08 26.45 10.21 19.18 6.88 19.18 6.88 23.83 15 .97 3.15 1.08 5.98 1.22 9.26.24 7.81.24 7.81 4.21 14.25 2.82 1.85 5.65 3.51 8.61 5.12 3.15 1.92 5.75 4.39 8.42 6.91l2.92 2.71c2.05 2.07 3.8 4.09 5.46 6.48l-1 2c-.61-.64-1.21-1.28-1.84-1.94-8.47-8.75-17.67-14.97-28.16-21.06.06 2.86.15 5.71.25 8.56.01.8.03 1.6.04 2.43.17 4.12.51 7.13 2.72 10.68 2.2 3.69 2.48 5.84 2.55 10.08-.06 4.33-.06 4.33 1.78 8.03 1.48 1.09 3.04 2.07 4.6 3.03 4.52 3.23 6.66 6.47 7.93 11.9.2 1.36.39 2.73.57 4.1 1.68 10.88 4.02 21.92 9.37 31.63 2.68 4.85 2.71 9.12 2.19 14.56.81-.28 1.62-.55 2.45-.84 1.07-.36 2.14-.72 3.24-1.1 1.05-.36 2.11-.72 3.2-1.09 4.4-1.37 8.31-2.1 12.92-2.03.79.01 1.58.02 2.4.02l1.79.04-1 3c-2.42.8-4.7 1.4-7.19 1.94l-4.38 1.02c-.74.17-1.48.34-2.24.52-6.52 1.56-13.01 3.4-19.33 5.63-4.72 1.47-9.12 1.47-13.86-.11l-1 3-3-2c.55.94 1.11 1.88 1.68 2.85.73 1.26 1.46 2.52 2.2 3.77.54.93.54.93 1.1 1.88 3.31 5.71 5.31 10.65 5.14 17.38-.01.96-.03 1.93-.05 2.92-.02.73-.05 1.45-.07 2.2-3.55-2.7-4.24-6.46-5.38-10.56-2.7-9.1-5.74-17.06-12.48-23.97C432 465 432 465 432 462c-.78-.29-1.57-.58-2.38-.88C427 460 427 460 425 458c-.8-6.71.73-11.78 3-18.1 2.31-6.52 3.71-13.1 5-19.9h2c.99 4.45.99 4.45 2 9l3-1c-1.16 2.75-2.35 4.37-4.44 6.56-4.91 5.71-5.75 14.17-6.56 21.44.52.25 1.04.51 1.58.77 1.88.95 3.72 1.96 5.56 2.99 6.85 3.77 12 6.37 19.86 4.24 1.35-.2 2.71-.39 4.06-.56.97-.15 1.94-.29 2.94-.44-.03-8.28-1.76-14.14-5.44-21.51-4.01-8.98-5.74-19.03-6.87-28.74-1.09-4.33-2.7-8.19-6.26-10.97-1.86-1.1-3.74-2.08-5.68-3.03-6.73-3.53-12.96-7.47-19.17-11.86A553.9 553.9 0 00414 383c-.67-.47-1.34-.94-2.03-1.42-6.08-4.07-10.71-4.48-17.97-3.58-4.98 1.45-6.96 3.86-9.61 8.23-3.15 6.28-5.07 13.1-7.2 19.77-.53 1.62-1.06 3.23-1.59 4.85-1.05 3.22-2.09 6.44-3.14 9.66-2.26 6.96-4.61 13.89-6.96 20.82-1.48 4.4-2.81 8.79-3.97 13.29-1.32 4.91-3.1 9.3-5.41 13.82-.32.68-.65 1.36-.98 2.06-2.11 4.19-4.18 6.8-8.14 9.5 1.13-3.79 2.58-7.31 4.25-10.88 4.66-10.16 8.37-20.47 11.31-31.24 2.7-9.82 5.87-19.47 9.13-29.11.58-1.71 1.15-3.42 1.72-5.12.81-2.44 1.64-4.87 2.47-7.29.24-.73.48-1.45.72-2.2 2.72-7.82 6.47-14.45 13.4-19.16 5.16-2.04 10.51-3.05 16-2 3.29 1.63 6.09 3.76 9 6 7.1 5.13 14.38 9.69 22 14-.04-8.66-3.1-13.06-9.06-19.08-5.66-5.3-11.81-9.88-18.04-14.47-4.78-3.54-9.23-7.31-13.6-11.35-10.37-9.47-20.3-15.53-34.3-18.1-4.06.3-6.3.5-9.62 2.88-11.34 14.91-14.62 36.67-18.88 54.56-4.58 19.21-10.11 37.87-16.69 56.5-.41 1.18-.83 2.36-1.26 3.57-5.97 16.59-5.97 16.59-9.67 18.7L304 467c1.82-5.59 3.76-11.13 5.8-16.64 6.74-18.23 12.1-36.54 16.87-55.36 2.32-9.12 4.72-18.21 7.38-27.24 1.06-3.62 2.09-7.23 2.96-10.9 2.5-10.39 6.61-23.64 15.8-30.14 7.35-2.42 16.31-1.65 23.25 1.53 6.02 3.43 11.03 7.89 16.17 12.47 3.92 3.47 8.03 6.63 12.21 9.78 6.36 4.8 12.63 9.7 18.83 14.72 2.52 2.04 5.03 3.98 7.73 5.78.1-4.73.17-9.46.22-14.2.02-1.6.05-3.21.08-4.82.05-2.32.07-4.64.09-6.96l.06-2.16c.01-5.1-1.24-7.94-4.45-11.86-8.92-6.29-20.32-9.41-30.47-13.09-7.67-2.8-15.23-5.77-22.72-9.03-.94-.41-1.88-.82-2.85-1.25-5.03-2.23-9.93-4.63-14.78-7.23-7.62-4.27-7.62-4.27-16.09-4.28-15.2 6.43-22.39 18.18-28.43 32.9-1.95 4.91-3.69 9.89-5.43 14.88-3.24 9.26-6.75 18.4-10.29 27.54-1.33 3.42-2.65 6.84-3.97 10.26-.33.86-.66 1.72-1.01 2.6-2.23 5.78-4.43 11.57-6.62 17.37-.58 1.54-1.16 3.07-1.74 4.61-.82 2.17-1.64 4.34-2.45 6.51-4.08 10.93-8.31 21.88-15.27 31.33-.65.89-1.29 1.78-1.95 2.7-1.9 2.14-3.3 3.14-5.93 4.18 1.28-4.3 2.91-7.75 5.38-11.5.58-.9 1.17-1.79 1.77-2.72 1.25-1.87 2.52-3.73 3.81-5.58 1.94-3.04 3.24-5.82 4.5-9.18.69-1.83.69-1.83 1.4-3.69.5-1.36 1.01-2.72 1.52-4.08.54-1.45 1.09-2.89 1.63-4.34 1.26-3.33 2.51-6.66 3.76-9.99 2.57-6.84 5.17-13.67 7.77-20.51.48-1.28.97-2.57 1.46-3.86.37-.96.37-.96.74-1.94.25-.65.49-1.29.74-1.95.25-.65.49-1.29.74-1.95 2.62-6.89 5.23-13.77 7.84-20.66.44-1.15.88-2.31 1.33-3.5 1.84-4.84 3.67-9.69 5.45-14.55 4.89-13.3 4.89-13.3 8.41-19.44.38-.66.75-1.31 1.14-1.99 6.18-10.34 13.71-15.49 25.17-18.51 2.85-.88 4.75-1.74 7.25-3.25 1.05-.6 2.11-1.19 3.19-1.81z" fill="#E99A85"/>
  <path d="M430 200c2.38 1.88 2.38 1.88 3 5-1.78 8.26-6.75 16.14-13.76 20.86-6.24 3.49-11.02 5.28-18.18 5.39-1.02.03-2.04.05-3.09.08-3.43-.38-5.26-1.22-7.97-3.33-1.31-4.71-1.23-7.68 1-12 1.82-1.48 1.82-1.48 4.12-2.75.89-.49 1.77-.99 2.67-1.5 1.06-.57 2.12-1.15 3.21-1.75 1.37-.78 2.74-1.56 4.11-2.35 15.68-8.94 15.68-8.94 24.89-7.65z" fill="#772030"/>
  <path d="M291.898 217.762c4.63 1.72 7.34 3.04 10.1 7.24-.89-.33-1.77-.66-2.69-1-6.3-1.76-13.6-2.35-19.82-.09-4.54 2.61-6.54 5.14-8.49 10.09-.47 2.95-.6 5.88-.69 8.87-.03.79-.06 1.57-.1 2.38-.08 1.91-.15 3.83-.21 5.75-3.88-3.4-4.41-7.02-5-12-.3-6.87 1.36-11.47 5.24-17.09 5.9-6.39 13.65-6.25 21.66-4.15z" fill="#7D2736"/>
  <path d="M356.383 285.633c3.52.49 4.44 1.79 6.68 4.49.68.82 1.36 1.64 2.07 2.48 5.87 7.52 5.87 7.52 5.87 10.4-8.12-2.09-15.47-5.36-23-9 1.9-4 3.66-7.64 8.38-8.37z" fill="#FBC2AC"/>
  <path d="M380 119l1 3c-1.07.24-1.07.24-2.16.48-4.77 1.16-8.85 2.19-12.78 5.21C363 130 363 130 359 130l-3-11c7.44-2.97 16.44-3.22 24 0z" fill="#F2F0F1"/>
  <path d="M422 97c3 2 3 2 3.94 4.81.06 3.19.06 3.19-1.44 6.07-2.5 2.12-2.5 2.12-6.06 2.62-3.44-.5-3.44-.5-5.38-1.56-1.67-3.06-1.43-5.53-1.06-8.94 2.23-4.06 5.79-3.38 10-3z" fill="#F4F4F4"/>
</svg>
