<svg version="1.1" xmlns="http://www.w3.org/2000/svg" viewBox="0 0 1252 1199">
  <path d="M665 160c.87.6 1.75 1.2 2.64 1.81 6.72 5.25 10.13 11.74 13.99 19.15 3.25 6.19 6.88 11.83 10.99 17.48 5.88 8.12 11.05 16.52 16.07 25.18.54.94.54.94 1.1 1.9 1.42 2.47 2.85 4.94 4.27 7.41 2.89 5 5.85 9.96 8.88 14.88.43.7.85 1.4 1.3 2.12 2.13 3.48 4.3 6.93 6.51 10.36 10.59 16.54 16.52 32.75 12.19 52.77-1.7 6.04-4.48 11.4-7.42 16.91-1.24 2.47-1.93 4.38-2.52 7.03 1.29.05 2.57.09 3.89.14 8.28.83 15.99 3.91 23.8 6.61l4.68 1.59c3.06 1.04 6.12 2.09 9.18 3.14 6.47 2.22 12.96 4.37 19.45 6.52-.16-.74-.32-1.48-.49-2.24-2.76-14.88-.72-31.94 7.49-44.76 8.74-12.33 20.21-20.69 32.77-28.86 4.53-3 8.95-6.15 13.39-9.3 3.92-2.78 7.86-5.55 11.81-8.3 7.98-5.54 15.9-11.12 23.65-16.98.67-.5 1.33-1 2.01-1.51 2.63-1.98 5.26-3.97 7.88-5.96 5.55-4.09 11.48-7.47 17.49-10.84.83-.47 1.66-.95 2.52-1.43 13.78-7.58 29.2-10.18 44.48-5.82 13.88 4.77 27.88 12.8 35.62 25.71 8.26 18.44 10.44 39.46 13.53 59.25l1.74 10.98c1.04 6.52 2.07 13.05 3.09 19.57.68 4.36 1.38 8.73 2.09 13.09l1.38 8.59.96 5.88c2.57 16.07 4.2 31.6-2.41 46.93 6.4 1.07 12.79 2.13 19.2 3.15l7.49 1.23c1.25.19 2.5.39 3.8.59 10.66 1.77 20.37 4.4 27.51 13.03 4.92 8.54 5.42 18.51 3.34 28.02-4.61 14.27-15.97 23.23-28.47 30.48-7.96 4.65-15.34 10.09-22.7 15.63-7.08 5.29-14.47 9.58-22.17 13.87-4.99 2.87-9.83 5.83-14.5 9.19-4.83 3.43-9.83 6.57-14.88 9.69-1.17.73-1.17.73-2.38 1.48-.74.45-1.49.91-2.26 1.38-.67.41-1.34.82-2.03 1.25-1.98 1.02-3.77 1.56-5.95 2.01v4c.55.11 1.1.22 1.67.33a107.42 107.42 0 0115.83 4.61c1.21.45 1.21.45 2.44.9 8.98 3.41 17.73 7.34 26.49 11.25 17.23 7.67 34.63 15.25 52.38 21.66C1061 584 1061 584 1063 586v3c.6.08 1.19.16 1.8.24 4.28 1.48 6.09 5.98 8.2 9.76 3.5 8.1 3.16 18.4.56 26.75-4.55 10.7-12.57 16.96-23.13 21.32-6.33 2.43-12.75 4.61-19.19 6.73-6.05 2.01-11.59 4.27-17.24 7.2h-2v2c1.23.39 2.47.77 3.74 1.17 5.99 2 11.69 4.56 17.45 7.14 8.56 3.87 8.56 3.87 17.24 7.46 10.34 4.1 17.51 9.13 22.69 19.15 1.91 4.53 2.04 8.54 2.07 13.46.01 1.28.03 2.57.04 3.89-.39 6.38-2.52 10.6-6.23 15.73-.54.8-1.07 1.61-1.62 2.44-6.41 6.9-14.74 10.99-23.32 14.56-1 .42-1.99.85-3.02 1.29-10.42 4.38-21.01 8.26-31.68 11.98-9.86 3.54-19.33 7.85-28.85 12.2a771.044 771.044 0 01-31.57 13.59c-.65.27-1.31.53-1.98.81-7.87 3.19-15.77 6.17-23.84 8.85-3.45 1.42-6.09 3.12-9.12 5.28 1.23 11.81 3.04 23.41 5.31 35.06.32 1.64.63 3.27.95 4.91.62 3.21 1.25 6.43 1.88 9.65.74 3.73 1.44 7.46 2.15 11.2 2.67 13.83 6.54 27.12 10.94 40.49 4.42 15.46 2.29 32.49-5.11 46.63-8.75 14.77-20.01 23.63-36.37 29-18.09 4.31-35.24-.45-50.75-9.94-12.95-9.53-19.94-21.54-24.38-36.76-.22-.74-.43-1.48-.65-2.24-2.37-8.23-4.35-16.54-6.28-24.88-.39-1.63-.77-3.26-1.15-4.9-3.92-16.72-7.74-33.47-11.54-50.22-3.6.61-6.69 1.59-10.04 3.04-.96.41-1.92.82-2.91 1.25l-3.11 1.33c-7.47 3.18-14.92 6.15-22.63 8.69-10.25 3.44-20.02 7.92-29.85 12.4-.61.28-1.23.56-1.86.85-.62.28-1.24.57-1.88.86-8.23 3.74-16.56 7.26-24.89 10.8-1.1.47-2.2.93-3.33 1.42-.97.41-1.94.82-2.94 1.24-2.52 1.06-2.52 1.06-4.72 2.27-1.84.85-1.84.85-4.84.85 0 1.26.01 2.52.01 3.82.04 11.93.07 23.86.09 35.8.01 6.13.03 12.26.05 18.39.02 5.93.03 11.86.04 17.78 0 2.25.01 4.51.02 6.76.1 20.93-.18 42.74-15.33 59.07-14.41 13.37-30.91 18.11-50.11 17.78-16.34-.76-30.9-10.47-41.9-22.09-9.34-11.55-11.04-26.6-10.98-40.93v-3.16c0-3.44 0-6.87.01-10.31 0-2.39.01-4.78.01-7.17 0-6.27.01-12.55.02-18.82.01-6.41.02-12.82.02-19.23.01-12.56.03-25.13.05-37.69-1.17-.22-1.17-.22-2.36-.45-2.6-.54-4.7-1.33-7.12-2.42-1.34-.6-1.34-.6-2.71-1.21-.99-.45-1.98-.9-3-1.36-2.24-1-4.48-1.99-6.72-2.99-.93-.41-.93-.41-1.87-.82-9.07-4.02-18.17-7.96-27.28-11.87-1.37-.59-1.37-.59-2.77-1.19-12.35-5.31-24.74-10.34-37.39-14.92-5.49-2-10.84-4.29-16.17-6.68-2.22-.93-4.28-1.54-6.61-2.09-.13 1.3-.25 2.59-.38 3.93-.54 4.82-1.47 9.48-2.55 14.2-.2.86-.39 1.72-.59 2.6-.63 2.8-1.27 5.6-1.92 8.39A3029.795 3029.795 0 01443 902c-.22.94-.45 1.89-.68 2.86-1.27 5.35-2.56 10.69-3.89 16.03-.41 1.63-.8 3.26-1.2 4.9-4.28 17.69-10.56 33.27-26.54 43.52-15.21 8.78-30.76 13.35-48.29 10-16.47-4.71-30.3-14.84-38.83-29.83-9.64-19.53-6.87-38.48-1.02-58.57 4.81-16.61 8.08-33.5 11.33-50.47.24-1.26.48-2.51.72-3.81.7-3.65 1.39-7.3 2.08-10.95.2-1.08.41-2.17.62-3.28 1.39-7.45 2.59-14.91 3.7-22.4-.6-.17-1.21-.34-1.83-.51-7.56-2.14-14.86-4.93-22.19-7.74-1.83-.69-3.67-1.37-5.51-2.04-17.05-6.29-17.05-6.29-21.47-10.71-.29-3.21-.26-5.41 1.06-8.38 2.95-2.47 5.16-1.91 8.94-1.62 2.64.94 5.03 1.91 7.54 3.11 1.06.49 1.06.49 2.15.99 1.53.7 3.05 1.4 4.57 2.11 4.03 1.88 8.08 3.71 12.13 5.54 1.23.55 1.23.55 2.47 1.11 7.39 3.3 14.87 6.22 22.45 9.02 11.52 4.25 22.77 8.93 33.99 13.92 7.04 3.12 14.14 6.12 21.22 9.14 2.37 1.01 4.74 2.03 7.1 3.05 7.56 3.23 15.14 6.32 22.84 9.22 16.7 6.28 33.04 13.34 49.41 20.42 6.79 2.94 13.59 5.86 20.41 8.75.76.32 1.51.65 2.3.98 4.79 2.02 9.61 3.8 14.54 5.45 10.6 3.61 20.71 8.32 30.92 12.88 20.17 8.94 40.71 17.1 61.24 25.19 2.72 1.12 2.72 1.12 4.6 2.27 7.87 3.15 15.39-.8 22.68-3.77 1.17-.47 2.34-.93 3.54-1.41 2.3-.91 4.59-1.83 6.89-2.76 2.35-.94 4.7-1.88 7.06-2.79 15.75-6.14 31.24-13 46.69-19.84 11.86-5.24 23.62-10.25 36.01-14.13 6.42-2.06 12.35-4.71 18.39-7.69 10.91-5.34 22.19-9.85 33.41-14.5 3.64-1.5 7.27-3.03 10.89-4.59 8-3.44 16.03-6.59 24.25-9.48 8.81-3.12 17.25-6.8 25.71-10.76 8.34-3.89 16.75-7.56 25.22-11.12.67-.28 1.34-.56 2.02-.84 8.07-3.38 16.17-6.57 24.42-9.47 8.7-3.06 17.18-6.57 25.63-10.25.64-.28 1.27-.56 1.93-.84 6.76-2.95 13.5-5.95 20.21-9.03 12.13-5.53 24.27-10.42 36.89-14.72 11.77-4.03 23.12-8.86 34.47-13.97.8-.37 1.61-.73 2.44-1.1 4.48-2.03 8.94-4.08 13.4-6.17 1.27-.59 2.56-1.19 3.84-1.78 1.67-.77 3.33-1.55 4.99-2.34.91-.42 1.82-.85 2.75-1.29 3.35-2.12 5.74-4.75 7.12-8.49.94-7.12 1.28-14.79-2.73-21.02-5.49-6.23-13.48-8.05-21.14-10.41-7.03-2.22-13.81-5.11-20.54-8.09-1.53-.68-1.53-.68-3.09-1.37-2.03-.9-4.07-1.82-6.1-2.74-7.3-3.25-13.12-5.63-20.94-2.64-1.22.46-2.43.93-3.69 1.41-6.8 2.75-13.54 5.66-20.28 8.55-7.28 3.11-14.6 5.97-22.03 8.67-9.07 3.31-17.9 7.06-26.69 11.06-.61.28-1.23.56-1.86.84l-1.86.85c-15.78 7.16-31.67 13.79-47.97 19.68-10.73 3.89-21.1 8.34-31.47 13.09-9.43 4.29-18.94 8.35-28.53 12.29-.72.29-1.43.59-2.17.89-10.51 4.31-21.09 8.42-31.71 12.44-8.96 3.43-17.66 7.3-26.36 11.31-15.37 7-30.91 13.66-46.78 19.44-14.81 5.39-29.19 11.25-43.44 17.98-1.8.85-3.6 1.69-5.41 2.53-1.69.79-3.38 1.58-5.06 2.39-6.67 3.09-12.88 4.99-20.11 2.77-6.15-2.35-12.11-5.19-18.08-7.94-16.16-7.36-32.6-13.87-49.23-20.07-12.6-4.71-24.88-10-37.17-15.47-15.72-6.98-31.5-13.61-47.6-19.65-12.84-4.81-25.45-10.04-38-15.56-.84-.37-1.67-.73-2.53-1.11-4.72-2.08-9.43-4.16-14.14-6.25-10.78-4.77-21.47-9.45-32.64-13.2-11.77-3.95-22.99-9.14-34.27-14.28-22.1-10.23-22.1-10.23-44.92-18.6-5.17-1.63-10.05-3.59-15-5.79-.92-.4-.92-.4-1.86-.82-3.1-1.37-6.18-2.76-9.26-4.19-8.29-3.7-14.62-5.55-23.48-3.05-1.06.47-2.12.93-3.21 1.42-.61.26-1.22.52-1.85.78-1.39.6-2.77 1.2-4.15 1.8-4.75 2.07-9.54 4.05-14.32 6.04-1.03.43-2.06.87-3.12 1.31-7.19 3.01-14.43 5.78-21.8 8.34-4.49 1.93-7.35 4.09-9.95 8.23-2.15 5.63-1.9 12.22-1.19 18.12 1.44 2.75 1.44 2.75 3 5v2c.69.27 1.39.55 2.1.83 5 2.01 9.95 4.12 14.91 6.23 1.28.54 2.57 1.08 3.85 1.62a3162.465 3162.465 0 018.97 3.8c3.61 1.73 7.31 3.66 10.17 6.52.29 3.21.26 5.41-1.06 8.38-2.95 2.46-5.17 1.9-8.94 1.62-2.56-.87-4.86-1.76-7.29-2.89-.67-.3-1.33-.59-2.02-.9-1.4-.63-2.79-1.27-4.19-1.92-2.12-.97-4.25-1.93-6.38-2.87-1.37-.62-2.73-1.25-4.1-1.87-.94-.42-.94-.42-1.91-.85-4.18-1.96-7.02-4.3-10.11-7.7-.62-.63-1.24-1.27-1.88-1.92-7.21-7.83-9.74-14.53-9.59-25.2.43-9.72 4.45-16.34 11.47-22.88 8.49-6.24 18.63-9.81 28.31-13.75 1.65-.68 3.3-1.36 4.94-2.04 3.01-1.23 6.02-2.47 9.04-3.7.96-.4.96-.4 1.94-.8a190.2 190.2 0 014.71-1.79c2.23-.74 2.23-.74 3.06-2.92-.86-.28-1.71-.55-2.59-.84-3.37-1.14-6.62-2.44-9.91-3.78-4.65-1.9-9.32-3.69-14.05-5.38-.97-.34-1.93-.68-2.92-1.03-1.89-.67-3.78-1.34-5.68-1.99-10.88-3.85-18.66-7.82-24.07-18.36-4.34-9.42-5.89-19.93-2.22-29.93 4.15-8.86 9.55-14.95 18.71-18.59 2.59-.94 5.19-1.83 7.79-2.72 8.69-3.07 17.05-6.57 25.4-10.45 19.81-9.19 40.09-17.28 60.54-24.93-1.46-3.7-3.19-5.05-6.59-7.03-.94-.56-1.88-1.12-2.85-1.69-1.51-.88-1.51-.88-3.06-1.78-7.55-4.48-14.99-9.06-22.25-14-4.49-3.05-8.91-5.96-13.75-8.44-5.87-3.05-11.05-6.98-16.38-10.88-5.46-4-10.99-7.87-16.62-11.62-.75-.5-1.51-1-2.28-1.52a200.84 200.84 0 00-11.97-7.35c-9.31-5.56-14.49-15.6-17.93-25.67-1.36-8.48-1.46-17.27 3.01-24.8 9.95-13.21 24.02-13.97 39.29-16.41 1.69-.27 3.38-.55 5.07-.82 4.1-.67 8.21-1.33 12.31-1.99-.14-1.22-.29-2.43-.44-3.69-.08-.68-.16-1.37-.24-2.07-.23-1.57-.51-3.14-.84-4.69-3.61-19.1.79-39.43 4.2-58.25.65-3.6 1.28-7.22 1.9-10.83.26-1.46.51-2.92.76-4.39.13-.72.25-1.44.38-2.18.38-2.18.76-4.35 1.14-6.52 1.53-8.71 2.97-17.44 4.29-26.19.16-1.04.31-2.08.47-3.14.58-3.85 1.16-7.69 1.71-11.53 4.69-32.23 4.69-32.23 17.26-41.72 9.54-6.8 20.67-14.07 32.41-15.8.87-.13 1.74-.27 2.63-.4 17.3-2.05 31.46 2.65 45.51 12.44 2.51 1.72 5.03 3.23 7.67 4.71 4.38 2.58 8.21 5.6 12.13 8.81 7.89 6.47 16.25 12.14 24.71 17.84 3.69 2.51 7.33 5.08 10.97 7.66.69.49 1.37.97 2.08 1.47 1.38.99 2.77 1.97 4.15 2.95 2.27 1.61 4.54 3.2 6.81 4.8.77.54 1.54 1.08 2.33 1.63 1.46 1.03 2.93 2.06 4.39 3.08 8.08 5.69 8.08 5.69 10.62 8.01v3c.58.1 1.16.21 1.76.32 7.73 2.36 13.44 11 17.24 17.68 4.32 9.59 6.17 17.58 6.12 28 .01.89.01 1.78.02 2.7-.01 4.22-.06 8.18-1.14 12.3 10.36-3.39 20.68-6.83 30.88-10.69 20.46-7.68 20.46-7.68 30.12-7.31-.71-1.68-.71-1.68-1.43-3.4-8.22-19.72-13.6-37.5-5.42-58.56 3.07-6.48 6.96-12.41 10.92-18.38 4.51-6.87 8.67-13.93 12.83-21.02 7.18-12.22 14.6-24.19 22.44-36 3.61-5.46 7.11-10.92 10.28-16.64 9.71-17.48 22.21-29.67 41.76-35.36 18.97-4.66 37.08 1.31 52.62 12.36zm-75.17 15.53c-5.16 6.91-9.71 14.01-13.97 21.51-1.82 3.19-3.66 6.35-5.5 9.52-.37.64-.74 1.27-1.12 1.92a504.613 504.613 0 01-19.98 31.54c-5.21 7.6-9.72 15.31-13.86 23.55-1.67 3.29-3.21 6.19-5.52 9.08-2.24 2.8-3.32 5.49-4.57 8.85-.62 1.66-.62 1.66-1.26 3.34-3.73 11.22-2.77 22.73 1.98 33.5 5.23 10.06 12.3 19.03 22.97 23.35 1.01.41 2.02.83 3.06 1.26 4.14 1.48 7.87 2.19 12.25 2.11L568 345c1.65-3.3 1.38-6.99 1.56-10.62.07-1.21.07-1.21.13-2.43.11-1.99.21-3.97.31-5.95l9-1v127c3.4 1.7 4.84 2.29 8.39 2.62.86.09 1.72.17 2.61.25.92.08 1.85.16 2.8.24 1.46.13 1.46.13 2.95.25 9.82.79 19.62.94 29.46.9 2.92-.01 5.84 0 8.75.01 9.45.01 18.81-.26 28.22-1.16l2.52-.24c5.51-.43 5.51-.43 10.3-2.87.89-3.43 1.12-6.66 1.12-10.19v-3.11c0-1.11 0-2.23-.01-3.38v-3.57c0-3.23 0-6.46-.01-9.69 0-3.38-.01-6.76-.01-10.13 0-6.4-.01-12.79-.02-19.18-.01-7.28-.01-14.56-.02-21.84-.01-14.97-.03-29.94-.05-44.91h9v19c12.35.72 23.64-3.49 32.97-11.74 8.52-9.01 14.02-21.82 14.41-34.2-.39-12.5-5.37-23.72-12.69-33.75-3.06-4.19-5.41-8.51-7.75-13.12-3.97-7.75-8.61-14.9-13.49-22.1-8.28-12.22-16.11-24.71-23.2-37.65-8.81-15.91-19.4-27.12-37.07-33.05-17.6-3.15-36.51 2.34-48.35 16.14zM283 238v3l-2.25.69c-3.35 1.6-4.66 3.3-6.81 6.31-.65.89-1.3 1.77-1.98 2.69-4.58 7.73-6.68 15.59-8 24.42-.24 1.56-.24 1.56-.5 3.15-1.59 10.27-3.02 20.56-4.41 30.86-3.66 27-3.66 27-5.84 39.49-.14.81-.28 1.62-.42 2.46-.65 3.7-1.31 7.4-2.01 11.09-1.32 7.18-2.01 14.11-2.04 21.4 0 .74 0 1.48-.01 2.24.14 11.36 4.02 20.55 11.27 29.2.65.78 1.29 1.56 1.96 2.37 7.91 8.72 18.41 14.17 30.22 14.8 6 .03 11.17-.07 16.82-2.17-.36-4.22-.72-8.15-2.06-12.19-1.03-3.08-1.09-5.58-.94-8.81h9c7.19 20.46 12.82 40.99 17.64 62.13.32 1.35.65 2.7 1 4.04.88 3.45 1.46 6.74 1.73 10.28.55 4.82 1.32 8.85 4.63 12.55 8.43 5.29 18.46 7.56 28 10 1.04.28 2.07.56 3.14.84 21.29 5.6 45.94 9.97 67.86 6.16.51-10.67-1-20.5-3-30.94-.16-.83-.31-1.66-.47-2.51-5.8-30.62-15-60.34-24.98-89.82-.55-1.64-.55-1.64-1.12-3.32-.68-1.99-1.36-3.97-2.06-5.95-1.78-5.2-2.9-9.98-3.37-15.46l9-1c.17.65.34 1.3.52 1.98 1.49 5.39 3.08 9.57 6.48 14.02 7.91-.84 12.96-5.45 18.02-11.37 8.37-11.43 12.07-22.5 10.98-36.63-3.23-17.05-11.67-28.09-25.76-37.75-2.49-1.69-5-3.37-7.51-5.04-4.02-2.7-7.91-5.53-11.73-8.52-1.02-.8-2.04-1.59-3.09-2.41-.96-.75-1.92-1.51-2.91-2.28-5.22-4-10.3-7.73-16.19-10.69-4.99-2.61-9.13-5.85-13.43-9.43-26.15-21.76-52.62-37.51-85.38-19.88zm606.7 16.53c-16.06 11.89-16.06 11.89-24.2 16.91-4.83 3.01-9.24 6.45-13.66 10.01-6.04 4.81-12.36 9.18-18.74 13.52-13.29 9.13-22.5 18.34-27.75 33.96-2.18 12.84-.19 26.5 7.32 37.31.66.87.66.87 1.33 1.76.43.59.86 1.18 1.3 1.79A45.27 45.27 0 00830 382c2.71.26 2.71.26 5 0 .84-2.08 1.67-4.16 2.5-6.25.46-1.16.93-2.32 1.41-3.52 1.3-3.29 1.3-3.29 1.09-7.23l12 2c-.36.97-.73 1.93-1.11 2.93-9.31 24.72-18.24 49.48-24.89 75.07-.27 1.03-.54 2.07-.82 3.13-3.61 14.08-6.22 28.29-8.56 42.62-.13.82-.26 1.63-.4 2.47-.38 2.34-.75 4.68-1.12 7.01-.11.7-.22 1.4-.34 2.11-.6 3.92-1.05 7.7-.76 11.66 1.81 2.24 1.81 2.24 4.39 2.22 24.76-.41 49.07-3.11 72.99-9.66 1.01-.27 2.03-.55 3.07-.83 11.23-3.14 11.23-3.14 20.5-9.84 1.68-4.63 2.78-9.34 3.86-14.14.26-1.11.52-2.22.79-3.36 1.29-5.51 2.54-11.02 3.77-16.54 3.02-13.32 6.85-26.15 11.38-39.01.42-1.21.84-2.42 1.27-3.67.38-1.07.76-2.14 1.16-3.25 1.05-3.22 1.05-3.22.82-7.92l10 1c-.13.86-.27 1.71-.4 2.6-.37 2.35-.72 4.7-1.08 7.05-.3 1.9-.6 3.81-.95 5.7-.37 1.99-.37 1.99-.57 4.65 3.32 3.32 7.53 3.17 12.06 3.25 10.87-.13 22.13-3.29 30.5-10.44.81-.93 1.61-1.85 2.44-2.81.7-.72 1.4-1.44 2.12-2.19 9.62-10.11 14.2-20.38 14.1-34.33-.48-7.64-2.05-15.15-3.41-22.67l-1.92-10.95c-.16-.92-.32-1.83-.49-2.77-1.78-10.15-3.35-20.34-4.89-30.53-.28-1.83-.28-1.83-.56-3.71-.16-1.06-.32-2.13-.49-3.22-.41-2.73-.41-2.73-1.46-5.63-.24-1.96-.44-3.92-.61-5.89-2.81-32.02-2.81-32.02-20.39-58.11-29.16-21.91-57.78-2.65-82.3 15.53zm-368.2 92.03c-1.53.56-3.07 1.11-4.61 1.67l-2.43.88c-4.08 1.47-8.18 2.9-12.27 4.33l-5.07 1.77c-2.56.9-5.12 1.79-7.68 2.69-.84.29-1.69.59-2.56.89-.84.29-1.68.59-2.54.89-2.5.87-4.99 1.75-7.48 2.62-3.24 1.14-6.49 2.26-9.74 3.38-.77.26-1.55.53-2.35.81-1.45.5-2.9 1-4.35 1.49-7.9 2.74-12.45 7-18.17 12.9-5.22 5.36-10.89 9.21-17.25 13.12.41 7.39 1.65 13.86 3.94 20.88 3.7 12 6.44 24.17 9.12 36.43.32 1.47.32 1.47.65 2.97 1.06 4.82 2.11 9.65 3.15 14.47 1.5 6.92 3.04 13.84 4.58 20.75.22 1 .44 2.01.67 3.04 1.59 7.17 3.24 14.31 4.89 21.46 14.85-.5 14.85-.5 30-1v8c-1.13.13-2.26.27-3.43.41-3.79.47-7.55 1.06-11.32 1.69-36.95 6.15-72.62 1.15-108.53-8.38-1.7-.45-3.41-.9-5.12-1.33-11.09-2.83-21.07-7.1-31.29-12.23-2.25-1.13-4.51-2.22-6.79-3.31-16.03-7.71-16.03-7.71-19.52-11.85-.56-3.31-.56-3.31 0-6 1-1 1-1 2.77-1.04 6.16.52 10.35 2.34 15.54 5.6 1.37.84 2.74 1.68 4.12 2.51.59.37 1.18.74 1.79 1.12 2.06 1.09 2.06 1.09 5.78.81-.35-8.79-2-16.99-4.33-25.45-.55-2.01-1.08-4.02-1.61-6.03-1.95-8.25-1.95-8.25-6.06-15.52-2.57-.64-2.57-.64-5.49-.38l-3.31.09c-1.16.06-2.32.11-3.51.17-15.46.33-29.89-.45-41.74-11.68-1.97-1.93-3.85-3.9-5.74-5.91-3.02-3.13-3.67-3.25-8.13-3.56-7.69.08-15.21 1.67-22.74 3.1-2.6.48-5.19.95-7.79 1.42-1.67.31-3.34.62-5 .93-.77.13-1.54.27-2.33.41-6.1 1.17-11.51 3.22-16.22 7.41-2.1 6.3-2.28 15.38-.06 21.66 1.22 1.98 2.48 3.64 4.06 5.34 1.08 1.24 1.08 1.24 2.19 2.5 1.39 1.24 1.39 1.24 2.81 2.5.65.58 1.3 1.17 1.98 1.77 5.62 4.77 11.54 8.31 17.99 11.81 5.35 2.93 10.09 6.34 14.91 10.1 4.23 3.15 8.7 5.84 13.2 8.59 4.15 2.55 8.02 5.27 11.86 8.29 4.52 3.49 9.11 6.18 14.18 8.75 6.16 3.13 11.93 6.56 17.63 10.44 15.23 10.35 30.88 19.69 47.03 28.52 7.58 4.18 14.93 8.62 22.22 13.29 9.48 6.07 19.23 11.35 29.26 16.44 7.58 3.85 14.97 7.91 22.28 12.23 5.87 3.46 11.83 6.68 17.87 9.82 2.85 1.5 5.57 3.16 8.3 4.85 5.4 3.27 11.02 5.81 16.79 8.35 7.25 3.26 14.35 6.61 21.25 10.56 7.01 4.01 14.12 7.77 21.33 11.41 1.71.86 3.42 1.73 5.12 2.61 6.65 3.33 13.34 6.22 20.28 8.91 12.33 4.81 24.06 10.77 35.88 16.7 13 6.5 26.04 12.42 39.64 17.56l2.4.91c3.37 1.27 6.74 2.52 10.12 3.77 3.48 1.32 3.48 1.32 6.87 2.99 7.34 2.71 12.92 1.63 19.94-1.53.84-.4 1.68-.79 2.55-1.2 5.77-2.67 11.55-5.12 17.55-7.23 11.04-3.9 21.41-8.81 31.87-14.07 13.95-7.01 27.88-13.85 42.39-19.64 6.44-2.58 12.43-5.57 18.49-8.95 4.6-2.53 9.37-4.7 14.13-6.93 6.63-3.1 13.09-6.36 19.44-10 6.99-3.99 14.15-7.51 21.44-10.93 12.3-5.8 24.06-12.36 35.81-19.19 3.64-2.11 7.29-4.21 10.94-6.31.87-.51 1.75-1.01 2.65-1.53 4.98-2.84 9.99-5.49 15.16-7.97 10.43-5.04 20.2-11.26 30.09-17.27 4.85-2.94 9.72-5.84 14.6-8.73.91-.54 1.82-1.08 2.75-1.64 4.74-2.79 9.52-5.49 14.37-8.09 9.29-5 17.98-10.74 26.7-16.65 7.76-5.27 15.57-10.26 23.92-14.55 3.53-1.84 6.64-3.82 9.74-6.32 6.32-5.05 13.12-9.38 19.89-13.8 2.29-1.5 4.58-3.01 6.87-4.52 7.75-5.08 15.54-10.06 23.54-14.75 8.35-4.92 13.58-9.98 17.78-18.87 1.8-7.03 1.56-13.48-.95-20.27-1.8-2.97-4.15-4.45-7.43-5.47-.88-.16-1.76-.33-2.67-.51-1-.19-2-.39-3.03-.59-1.06-.2-2.13-.39-3.23-.6-1.1-.21-2.2-.42-3.34-.63-3.45-.66-6.9-1.29-10.35-1.93-1.65-.31-1.65-.31-3.34-.63-3.14-.59-6.27-1.17-9.41-1.75-.96-.17-1.91-.35-2.9-.54-1.34-.24-1.34-.24-2.71-.48-.78-.14-1.56-.28-2.36-.43-4.05-.31-6.56.21-9.67 2.86-.76.82-1.52 1.63-2.3 2.47-4.17 4.43-4.17 4.43-6.31 5.5v3c-.8.25-1.61.5-2.44.75-3.42 1.2-6.58 2.64-9.83 4.25-8.81 3.22-17.57 3.25-26.85 3.12-1.25 0-2.49-.01-3.77-.02-3.04-.03-6.07-.06-9.11-.1-3.58 9.16-6.31 18.43-8.81 27.94-.32 1.17-.63 2.34-.95 3.55-1.46 5.63-2.67 10.69-2.24 16.51 3.62-.59 6.45-1.57 9.69-3.29.86-.44 1.72-.89 2.61-1.35l5.4-2.85c1.29-.67 1.29-.67 2.61-1.36.78-.41 1.56-.82 2.37-1.25 2.61-1.01 4.54-1.14 7.32-.9 1 1 1 1 1.5 3.69-.6 3.97-2 5.15-5.05 7.63-5.34 3.67-11.24 6.35-17.07 9.12-.7.33-1.39.66-2.1 1-11.5 5.48-22.95 10.24-35.28 13.56l-3.29.89C875.33 520.56 853.2 525.41 831 526l-2.08.06c-16.87.45-33.59-.8-50.08-4.47-2.85-.69-2.85-.69-5.84-.59l1-8c.78.07 1.55.14 2.35.22 8.24.71 16.39.89 24.65.78 2.9-5.98 4.13-11.87 5.38-18.38 2.85-14.28 5.99-28.5 9.2-42.71.57-2.49 1.12-4.98 1.68-7.46 3.04-13.63 6.29-27.07 10.58-40.35.29-.88.57-1.76.86-2.67.38-1.14.38-1.14.76-2.31.7-2.4.7-2.4.54-6.12-2.1-1.81-2.1-1.81-4.81-3.25-.9-.52-1.79-1.04-2.71-1.58-2.47-1.38-2.47-1.38-5.48-1.17l-.12-1.69c-1.32-3.48-4.01-5.04-6.88-7.31l-1-2h-3c-.21-.58-.41-1.15-.62-1.75-3.8-6.21-11.42-7.82-17.95-9.86l-3.12-1c-3.29-1.06-6.58-2.1-9.87-3.14-4.3-1.36-8.59-2.73-12.88-4.11-1.06-.34-2.11-.67-3.2-1.02-7.92-2.57-15.7-5.43-23.4-8.61-5.07-2.03-10.41-3.98-15.96-3.51-2 1.29-3.53 2.71-5.22 4.38-6.35 5.8-15.25 6.65-23.4 8.01-3.23.42-3.23.42-5.38 1.61v92c7.51.21 7.51.21 14-1.44 4.7-1.56 9.07-2.16 14-2.56l1 10c-1.58.28-3.17.56-4.8.84-4.89.89-9.73 1.92-14.58 3.01-21.51 4.86-42.62 6.34-64.62 6.34-3.03 0-6.06.02-9.09.03-17.15.05-34.35-.77-51.22-4.03-.89-.17-1.79-.33-2.7-.51-7.43-1.44-14.64-3.44-21.85-5.73-2.91-1.05-2.91-1.05-5.14-.95v-9l8.25 1.44c.78.13 1.55.27 2.36.41 1.13.19 1.13.19 2.28.4.69.12 1.38.24 2.1.36 2.01.39 2.01.39 3.77.94 3.35.67 6.82.45 10.24.45v-92l-20-5c-4.91-2.14-9.03-4.29-13.38-7.31-4.91-3.16-9.11-.98-14.12.87zM930 556.62c-2.14 1.39-4.29 2.78-6.44 4.16-1.09.71-2.18 1.41-3.3 2.14-5.01 3.2-10.12 6.22-15.26 9.2-1.48.87-1.48.87-2.99 1.74-7.99 4.62-16.09 9.03-24.22 13.38-6.52 3.5-12.95 7.12-19.35 10.82-10.97 6.33-22.18 12.16-33.44 17.94-4.52 2.32-9.03 4.64-13.55 6.96-1.34.7-2.69 1.39-4.03 2.08-8.31 4.26-16.52 8.65-24.67 13.21-8.74 4.86-17.71 8.93-26.88 12.9-9.46 4.13-18.66 8.68-27.87 13.35-20.42 10.34-41.28 19.5-62.48 28.12-5.68 2.32-11.29 4.7-16.82 7.36-1.46.7-1.46.7-2.96 1.41-1.79.87-3.57 1.76-5.34 2.67-7.31 3.53-14.4 4.52-22.26 2.04-2.93-1.23-5.75-2.6-8.58-4.04-2.11-1.02-4.23-2.04-6.34-3.05-1.05-.51-2.09-1.02-3.17-1.55-4.45-2.13-8.95-4.09-13.49-6.02l-2.6-1.12c-4.42-1.88-8.85-3.68-13.35-5.36-15.84-6-30.77-13.4-45.86-21.06-10.45-5.3-20.95-10.38-31.69-15.09-10.2-4.47-20.09-9.28-29.86-14.62-3.8-2.06-7.63-4.06-11.45-6.07-.77-.4-1.55-.81-2.35-1.23-6.29-3.31-12.59-6.6-18.9-9.89-1.95-1.02-3.9-2.04-5.85-3.05-3.58-1.87-7.15-3.73-10.74-5.58-8.69-4.52-17.22-9.19-25.57-14.32-3.88-2.43-3.88-2.43-8.34-3.05-.41.47-.82.95-1.25 1.44-2.63 2.34-5.34 2.24-8.75 2.56l.2-2.27c-.09-3.83-.54-6.25-2.2-9.73-4.47-3.91-10.21-6.24-15.53-8.79-3.81-1.87-7.45-3.99-11.09-6.15-.69-.4-1.38-.8-2.09-1.22-6.61-3.93-12.91-8.27-19.19-12.69-5.65-3.92-10.3-3.93-17.1-3.15-5.01 1.56-9.69 3.71-14.44 5.94-1.33.6-2.65 1.2-3.98 1.8-2.65 1.18-5.29 2.38-7.92 3.59-4.9 2.24-9.83 4.37-14.78 6.48-.83.36-1.66.71-2.52 1.08-11.08 4.73-22.25 9.27-33.58 13.39-18.65 6.14-18.65 6.14-33.58 18.04-2.57 5.75-2.02 11.57-1.2 17.68.11.87.21 1.75.32 2.65 1.37 4.97 4.45 7.13 8.82 9.66 3.88 2.07 7.85 3.9 11.86 5.69.9.4 1.81.81 2.74 1.22 12.2 5.37 24.6 10.03 37.16 14.45 9.21 3.28 18.05 7.18 26.9 11.31 5.24 2.43 10.54 4.71 15.84 7 1.72.74 3.43 1.49 5.15 2.23 12.06 5.23 24.15 10.21 36.52 14.67 11.34 4.09 22.28 8.85 33.24 13.84.61.28 1.22.55 1.84.84.61.28 1.22.56 1.86.84 7.49 3.41 15.05 6.68 22.63 9.91.69.3 1.39.6 2.11.91 9.65 4.1 19.37 7.77 29.32 11.09 6.24 2.11 12.11 4.59 18.01 7.49 22.42 10.94 46.02 20.07 69.35 28.87 10.65 4.01 21.09 8.33 31.45 13.02.63.28 1.25.56 1.89.85 4.81 2.18 9.62 4.37 14.42 6.57 9.51 4.36 19.18 7.94 29.05 11.4 7.9 2.8 15.52 6.01 23.06 9.66 5.5 2.61 10.3 4.54 16.47 3.15 1.03-.39 2.06-.79 3.11-1.2 1.22-.46 2.43-.92 3.68-1.4 5.8-2.34 11.53-4.85 17.26-7.35 5.33-2.32 10.68-4.4 16.19-6.25 13.56-4.58 26.52-10.84 39.54-16.75 13.23-5.96 26.62-11.25 40.2-16.37 13.29-5.03 26.34-10.52 39.32-16.31 14.19-6.33 28.41-12.26 42.97-17.67 19.3-7.23 38.26-15.42 57.05-23.85 10.84-4.86 21.72-9.4 32.86-13.55 9.98-3.71 19.81-7.66 29.56-11.93.61-.27 1.22-.54 1.85-.81l7.53-3.3c7.64-3.36 15.31-6.68 22.99-9.96.71-.29 1.41-.59 2.13-.9 8.86-3.78 17.76-7.27 26.9-10.31 8.45-2.86 16.51-6.53 24.57-10.34 2.14-1 4.29-1.98 6.44-2.95 7.79-3.61 12.82-7.04 17.22-14.43 1.65-7.1 1.3-14.31-2.38-20.69-4.97-5.6-11.41-8.34-18.19-11.19-1.09-.47-2.18-.94-3.31-1.42-9.15-3.91-18.41-7.53-27.69-11.12-8.84-3.44-17.55-7.1-26.25-10.89-.63-.28-1.26-.55-1.9-.83-6.33-2.76-12.65-5.54-18.94-8.37-.95-.43-1.91-.85-2.89-1.29-1.73-.77-3.46-1.55-5.19-2.35-10.82-4.79-16.2-2.25-25.64 4.08zM355 806c-3 3.82-3.78 7.88-4.55 12.56-.28 1.57-.56 3.15-.85 4.72-.15.84-.29 1.68-.45 2.54-3.75 21.1-8.97 41.74-14.49 62.44-.3 1.13-.6 2.25-.91 3.42-.56 2.11-1.13 4.23-1.71 6.34-3.47 12.95-6.65 31.51-.04 43.98 8.19 12.86 17.72 21.74 32.81 25.31 12.73 2.1 26.59 1.59 37.46-6.01.57-.43 1.14-.86 1.73-1.3 1.01-.72 2.02-1.44 3.06-2.19 22.69-19.85 26.46-61.53 31.84-89.47.27-1.42.55-2.83.82-4.24 1.45-7.42 2.64-14.52 2.28-22.1-13.19-6.8-26.7-12.32-40.56-17.56-29.74-11.25-29.74-11.25-41.74-17.67-1.84-.98-1.84-.98-4.7-.77zm533.89 3.11c-1.48.68-2.96 1.35-4.43 2.02-.78.36-1.56.71-2.36 1.08-12.62 5.77-25.26 11.17-38.35 15.79-10.35 3.66-20.14 7.69-29.75 13-.99.5-.99.5-2 1-.31 7.34.56 13.92 2.19 21.06.47 2.13.93 4.27 1.4 6.4.23 1.08.47 2.17.72 3.28.66 3.13 1.27 6.26 1.85 9.4 2.12 11.36 4.68 22.49 7.84 33.61l.97 3.42c3.5 12 7.22 22.95 15.03 32.83.52.72 1.04 1.44 1.58 2.18 6.05 7.79 15.14 12.08 24.8 13.57 15.63 1.47 30.06-1.25 42.37-11.44 9.09-8.53 14.01-20.12 14.5-32.5-.31-15.91-4.74-31.59-8.63-46.9-4.7-18.48-9.13-36.95-12.53-55.72-.24-1.29-.48-2.58-.72-3.91-.2-1.1-.39-2.2-.59-3.34-.83-3.13-1.82-5.36-3.78-7.94-3.87 0-6.67 1.51-10.11 3.11zM579 900c-1.21 14.79-1.18 29.58-1.03 44.41l.06 5.51c.06 6.57.13 13.15.23 19.73.04 2.21.06 4.42.09 6.64.2 19 .76 38.16 14.21 53.15 10.33 9.34 23.47 13.08 37.11 12.81 12.45-.92 24.73-5.99 33.33-15.25 9.79-11.79 12.17-23.98 12.11-38.9v-2.9c0-3.14 0-6.28-.01-9.42 0-2.18-.01-4.37-.01-6.56 0-5.73-.01-11.46-.02-17.2-.01-5.86-.02-11.72-.02-17.57-.01-11.49-.03-22.97-.05-34.45-5.65-.19-5.65-.19-10.94 1.47l-2.09.97-2.18 1.06-4.71 2.19c-2.45 1.15-4.89 2.31-7.33 3.47-18.43 8.76-18.43 8.76-28.58 6.1-.8-.38-1.6-.75-2.42-1.14-.99-.44-1.98-.89-3-1.35L610 911c-2.75-1.3-5.5-2.6-8.25-3.88-1.92-.9-3.84-1.81-5.75-2.73-5.8-2.72-10.59-4.05-17-4.39z" fill="#2A0000"/>
  <path d="M600.5 730.688c.79-.02 1.59-.03 2.41-.05.69.12 1.38.24 2.09.36 2.48 3.72 2.55 5.61 2 10-2.12 2-2.12 2-5 3-3.19-.12-3.19-.12-6-1-2.45-3.67-2.32-5.66-2-10 2.43-2.42 3.17-2.29 6.5-2.31z" fill="#2B0000"/>
  <path d="M934.313 594.563c2.02 1.72 2.83 2.92 3.69 5.44.12 2.75.12 2.75 0 5-6.67 3.72-6.67 3.72-11 3-2.68-4.02-2.16-6.24-2-11 6.32-3.17 6.32-3.17 9.31-2.44zm-71.438 27.171c.7.01 1.4.01 2.12.02.71-.01 1.41-.01 2.13-.02 1.87.27 1.87.27 3.87 2.27.49 1.87.49 1.87.76 4 .14 1.05.14 1.05.29 2.12-.05 1.88-.05 1.88-2.05 3.88-3.4.96-6.73 1.59-10 .06-1.65-3.42-1.29-6.29-1-10.06 2-2 2-2 3.88-2.27z" fill="#2A0000"/>
  <path d="M671 704c2.45 3.67 2.32 5.66 2 10-2 2-2 2-3.88 2.27-.7-.01-1.4-.01-2.12-.02-.7.01-1.4.01-2.12.02C663 716 663 716 661 714c-.57-2.66-.74-5.29-1-8 4.08-2.72 6.15-2.39 11-2z" fill="#2B0000"/>
  <path d="M312 612c2.29 3.44 2.18 4.99 2 9-5.22 3.04-5.22 3.04-8.75 2.88C303 623 303 623 301 620c-.31-3.06-.31-3.06 0-6 4.08-2.72 6.15-2.39 11-2z" fill="#2A0000"/>
  <path d="M737 677c2 2 2 2 2.2 3.95-.07 2.01-.13 4.03-.2 6.05-3.96 1.32-6.82 1.27-11 1-2.16-3.23-2.47-4.25-2-8 2.38-4.31 6.68-3.34 11-3zm-231 14c2.27 2.65 2.96 4.33 3.19 7.81-.06.72-.13 1.45-.19 2.19-5.34 3.04-5.34 3.04-8.25 2.88C499 703 499 703 497 700c-.31-3.56-.31-3.56 0-7 3.47-2.32 4.91-2.6 9-2z" fill="#2B0000"/>
  <path d="M408 651c1.88 1.06 1.88 1.06 3 3 .31 3.56.31 3.56 0 7-2 2-2 2-3.95 2.2-2.01-.07-4.03-.13-6.05-.2-1.85-3.11-2.46-5.38-2-9 2.26-3.65 4.97-3.5 9-3z" fill="#2A0000"/>
  <path d="M804 651c1 1 1 1 1.19 4.44C805 659 805 659 803 661c-1.88.27-1.88.27-4 .25-.7.01-1.4.01-2.12.02C795 661 795 661 793 659c-.27-2.69-.09-5.29 0-8 4.46-1.87 6.69-2.34 11 0z" fill="#2B0000"/>
</svg>
