<svg version="1.1" xmlns="http://www.w3.org/2000/svg" viewBox="0 0 1252 1199">
  <path d="M853.313 562.563c1.77.82 3.54 1.64 5.32 2.46.99.47 1.99.93 3.02 1.41 5.93 2.77 11.89 5.5 17.85 8.22 1.51.7 3.02 1.39 4.53 2.08 11.15 5.11 22.35 10.1 33.6 14.99 12.27 5.33 24.47 10.8 36.66 16.3 11.46 5.17 22.93 10.31 34.42 15.4 14.48 6.42 28.94 12.87 43.29 19.58.82.38 1.65.76 2.5 1.15 2.28 1.06 4.54 2.14 6.81 3.22.65.3 1.29.6 1.96.9 3.93 1.93 5.96 3.7 7.73 7.73.73 3.78.33 7.09-1 10.68-5.19 6-13.12 8.86-20.27 11.84-.98.41-1.96.83-2.98 1.26-2.09.89-4.19 1.77-6.3 2.65-5.55 2.34-11.09 4.7-16.63 7.06-1.66.71-1.66.71-3.35 1.43-9.38 4.02-18.7 8.18-27.97 12.45-.7.32-1.4.65-2.12.98-3.46 1.59-6.91 3.19-10.35 4.78-6.71 3.11-13.43 6.18-20.16 9.24-.66.3-1.32.61-2 .92-13.68 6.22-27.44 12.27-41.21 18.28-10.86 4.74-21.67 9.56-32.46 14.44-3.01 1.35-6.02 2.7-9.02 4.04a8446.38 8446.38 0 00-40.05 18.04c-17.62 7.98-35.27 15.89-52.96 23.73-10.08 4.47-20.16 8.95-30.24 13.43-3.84 1.71-7.69 3.42-11.54 5.13-.92.41-1.83.81-2.77 1.23-5.03 2.23-10.05 4.46-15.08 6.69-2.12.94-4.24 1.88-6.35 2.82-1.01.45-2.01.89-3.04 1.35-6.75 3-13.49 6.03-20.22 9.08-1.8.81-3.6 1.63-5.4 2.44-3.52 1.59-7.03 3.18-10.54 4.78-3.95 1.79-7.91 3.56-11.88 5.3-1.35.59-2.71 1.19-4.06 1.8-1.72.76-3.45 1.49-5.19 2.23-.92.39-1.85.79-2.81 1.2-7.29 1.66-13.64-.57-20.2-3.67-.77-.35-1.53-.69-2.31-1.05-2.5-1.14-4.99-2.3-7.48-3.46-1.78-.81-3.55-1.63-5.33-2.44-3.72-1.7-7.43-3.4-11.14-5.11-7.97-3.67-15.98-7.28-23.98-10.89-3.51-1.59-7.02-3.18-10.53-4.76-2.62-1.19-5.25-2.38-7.88-3.57-3.44-1.55-6.88-3.11-10.31-4.67-18.99-8.59-38.02-17.08-57.15-25.37-11.68-5.06-23.3-10.25-34.87-15.56-.72-.33-1.44-.67-2.19-1.01-2.85-1.31-5.7-2.62-8.56-3.93-14.13-6.5-28.32-12.9-42.61-19.05-.93-.4-.93-.4-1.89-.82-2.52-1.08-5.04-2.16-7.55-3.24-7.03-3.02-14.02-6.11-20.94-9.37-.64-.31-1.28-.61-1.94-.92-3.06-1.44-6.11-2.89-9.15-4.36-10.14-4.92-10.14-4.92-20.98-3.57-6.71 2.67-13.26 5.71-19.8 8.75-3.82 1.77-7.65 3.53-11.47 5.28-.8.37-1.59.73-2.41 1.11-8.32 3.82-16.67 7.58-25.04 11.3-1.6.72-3.2 1.43-4.8 2.15-2.23 1-4.47 2-6.7 2.99l-2.02.91c-4.59 2.03-4.59 2.03-6.82 2.03v3c.59.12 1.18.25 1.79.37 8.62 2.07 16.33 5.67 24.3 9.43 3.3 1.56 6.61 3.09 9.91 4.63 1.67.77 3.34 1.55 5 2.32 6.74 3.14 13.51 6.19 20.31 9.19 7.61 3.36 15.22 6.74 22.8 10.16l2.44 1.11c1.68.75 3.35 1.51 5.02 2.26 14.75 6.66 29.54 13.23 44.36 19.71 12.44 5.44 24.84 10.94 37.19 16.57.67.3 1.34.61 2.03.92 3.31 1.51 6.62 3.03 9.93 4.54 6.53 2.98 13.07 5.95 19.61 8.91.63.29 1.27.58 1.93.88 9.95 4.5 19.94 8.86 29.97 13.16 11.95 5.15 23.78 10.54 35.6 15.97 8.64 3.97 17.3 7.9 26 11.74 10.47 4.64 20.92 9.31 31.36 14.01 2.61 1.17 5.23 2.34 7.84 3.51 7.44 3.35 14.88 6.71 22.26 10.21 1.1.52 2.2 1.04 3.34 1.57 1.97.93 3.94 1.88 5.89 2.83 6.17 2.92 10.62 4.08 17.36 1.99 1.2-.51 2.4-1.03 3.63-1.55l2.16-.93c11.37-4.9 22.6-10.12 33.86-15.27 9.24-4.22 18.48-8.42 27.73-12.62.89-.4 1.77-.8 2.68-1.21 13.53-6.13 27.11-12.11 40.73-18.02 12.49-5.42 24.93-10.92 37.34-16.52.84-.38 1.68-.75 2.54-1.14 8.51-3.84 17.01-7.69 25.5-11.57 2.67-1.22 5.35-2.44 8.02-3.66.66-.3 1.32-.6 1.99-.91 12.47-5.69 25.02-11.19 37.57-16.68 12.14-5.3 24.22-10.7 36.26-16.23.72-.33 1.44-.66 2.19-1 2.84-1.31 5.69-2.61 8.53-3.92 19.15-8.79 38.43-17.27 57.72-25.73 11.8-5.17 23.6-10.35 35.38-15.57 1.53-.68 3.05-1.36 4.58-2.03 9.37-4.15 18.71-8.33 27.81-13.05 4.36-2.17 7.68-2.82 12.54-2.38 3.48 1.27 5.46 2.37 7.87 5.18 1.46 3.65 1.88 6.94 1.13 10.82-2.12 4.77-4.73 6.28-9.38 8.5-.69.33-1.38.66-2.1 1.01-9.25 4.39-18.63 8.51-27.98 12.67-8.82 3.93-17.62 7.92-26.41 11.91-14.74 6.68-29.51 13.32-44.31 19.87-12.45 5.52-24.86 11.11-37.26 16.72-1.81.82-3.61 1.64-5.42 2.46-2.62 1.19-5.25 2.38-7.87 3.57-15.11 6.84-30.21 13.67-45.42 20.26-.8.35-1.6.7-2.42 1.05-1.64.72-3.29 1.43-4.94 2.14-.82.36-1.64.72-2.49 1.09-1.23.53-1.23.53-2.49 1.08-13.9 6.03-27.68 12.28-41.42 18.63-12.22 5.65-24.5 11.14-36.81 16.58-5.83 2.59-11.65 5.21-17.47 7.83-10.01 4.5-20.06 8.93-30.12 13.31-12.63 5.5-25.2 11.11-37.76 16.76-.83.37-1.67.75-2.54 1.14-2.43 1.09-4.87 2.19-7.3 3.29-1.16.52-1.16.52-2.35 1.05-3.7 1.68-7.4 3.38-11.07 5.13-1.02.48-1.02.48-2.07.97-1.82.88-3.65 1.75-5.47 2.63-7.71 3.32-12.98 2.68-20.63-.22-6.9-2.82-13.67-5.95-20.45-9.05-4.7-2.16-9.42-4.3-14.13-6.44-1.41-.64-1.41-.64-2.85-1.29-7.99-3.63-16.02-7.16-24.07-10.65-12.18-5.29-24.29-10.71-36.38-16.19-.87-.4-1.75-.79-2.66-1.2-7.25-3.3-14.51-6.59-21.77-9.89-5.61-2.54-11.21-5.09-16.82-7.63-2.58-1.17-5.15-2.34-7.73-3.51-8.34-3.79-16.71-7.49-25.14-11.08-9.27-3.95-18.47-8.04-27.64-12.22-2.65-1.2-5.3-2.41-7.96-3.61-6.58-2.98-13.16-5.97-19.75-8.96-5.59-2.55-11.19-5.09-16.79-7.63-2.58-1.16-5.15-2.33-7.71-3.5-8.33-3.78-16.69-7.48-25.1-11.06-9.54-4.06-18.99-8.29-28.43-12.58-3.64-1.65-7.28-3.3-10.92-4.96l-5.49-2.49c-15.42-6.99-30.87-13.94-46.39-20.74-4.08-1.79-8.15-3.59-12.23-5.39-2.13-.94-4.27-1.87-6.41-2.79-3.3-1.43-6.58-2.87-9.87-4.32l-3.02-1.29c-5.79-2.58-10.59-5.29-13.79-10.96-.89-3.88-.39-7.06 1.12-10.75 5.18-6.22 13.19-8.69 20.44-11.75 2.68-1.14 5.35-2.29 8.02-3.44.73-.31 1.45-.62 2.2-.94 10.34-4.45 20.62-9.04 30.91-13.62 1.95-.87 3.9-1.74 5.86-2.61 8.83-3.93 17.66-7.86 26.45-11.89-.67-3.12-.67-3.12-3.06-4.15-.9-.36-1.81-.72-2.74-1.09-1.03-.42-2.05-.84-3.11-1.28-1.12-.44-2.25-.89-3.4-1.36-2.41-.99-4.81-1.98-7.21-2.97-.62-.26-1.24-.52-1.88-.78-7.62-3.18-15.07-6.71-22.52-10.24a598 598 0 00-20.2-9.05 932.8 932.8 0 01-4.66-2c-2.28-.97-4.55-1.94-6.84-2.89-15.02-6.22-15.02-6.22-19.38-13.19-.82-2.91-.84-5.1 0-8 3.9-6.8 10.2-9.46 17.12-12.44 1.13-.5 2.27-1.01 3.43-1.53 2.49-1.11 4.98-2.2 7.47-3.29 4.08-1.79 8.15-3.59 12.22-5.41 4.43-1.97 8.87-3.95 13.31-5.91 11.97-5.3 23.9-10.7 35.82-16.11 13.15-5.97 26.33-11.83 39.6-17.52 11.38-4.9 22.63-10.05 33.88-15.24 3.39-1.56 6.79-3.12 10.19-4.66 1.31-.6 2.62-1.2 3.92-1.8 1.87-.87 3.75-1.72 5.63-2.57 1.07-.48 2.14-.97 3.24-1.48 3.61-1.19 6.39-1.36 10.17-1.04 3.1 1.75 5.49 3.49 8 6 1.26 4.64 1.15 7.68-1 12-5.12 5.69-11.75 8.53-18.63 11.56-1.13.51-2.27 1.03-3.44 1.56-3.03 1.36-6.07 2.71-9.1 4.06-2.97 1.32-5.93 2.66-8.9 3.99-4.19 1.89-8.38 3.77-12.58 5.64-5.76 2.58-11.52 5.16-17.27 7.77-.66.3-1.31.6-1.99.9-.66.3-1.32.6-1.99.9-10.85 4.92-21.71 9.79-32.65 14.49-6.58 2.84-13.1 5.78-19.62 8.74-1.83.84-3.66 1.67-5.49 2.5-2.76 1.25-5.51 2.5-8.26 3.77-2.58 1.18-5.17 2.36-7.75 3.53-1.17.54-1.17.54-2.37 1.1-.73.33-1.45.66-2.2.99-.63.29-1.27.58-1.92.88-1.84.62-1.84.62-5.84.62 4.33 5.21 9.27 7.08 15.5 9.5 2.18.88 4.36 1.76 6.54 2.65 1.15.46 2.29.92 3.47 1.4 5.8 2.4 11.52 4.99 17.24 7.57 2.45 1.11 4.9 2.21 7.35 3.32.62.28 1.25.57 1.9.86 4.97 2.24 9.95 4.46 14.93 6.66 1.14.51 1.14.51 2.3 1.02 1.54.68 3.08 1.37 4.63 2.05 10.98 4.86 21.94 9.76 32.83 14.84 11 5.13 22.11 10.02 33.24 14.88 13.16 5.74 26.27 11.57 39.32 17.56l2.18 1c1.43.66 2.87 1.32 4.31 1.98.69.32 1.39.64 2.11.97.69.32 1.38.64 2.09.96 18 8.26 36.11 16.26 54.24 24.24 10.91 4.8 21.81 9.66 32.68 14.54 9.1 4.09 18.22 8.15 27.33 12.2 19.05 8.45 38.07 16.95 56.97 25.73 2.06.95 4.12 1.9 6.18 2.84 1.57.72 3.13 1.47 4.66 2.28 5.36 2.72 10.54 2.08 16.13.25 2.17-.89 4.29-1.85 6.41-2.85l2.39-1.09c2.57-1.17 5.13-2.36 7.69-3.55 1.8-.82 3.6-1.65 5.4-2.47 3.63-1.66 7.25-3.32 10.87-4.99 6.4-2.95 12.82-5.86 19.24-8.76 1.88-.85 3.76-1.7 5.63-2.55 9.63-4.35 19.3-8.57 28.98-12.79 10.56-4.59 21.05-9.32 31.51-14.13 11.67-5.36 23.38-10.66 35.12-15.87 1.1-.49 1.1-.49 2.22-.98 3.82-1.7 7.65-3.4 11.48-5.09 9.06-4.01 18.12-8.03 27.18-12.06.95-.42 1.89-.84 2.87-1.27 13.5-6 26.98-12.03 40.44-18.1a7629.29 7629.29 0 0167.94-30.25c9.55-4.2 19.09-8.41 28.63-12.64 1.54-.68 3.09-1.37 4.63-2.05 9.03-4 18.02-8.07 26.91-12.37 5.11-2.44 5.11-2.44 7.33-2.44v-3c-1.87-.59-1.87-.59-3.77-1.2-5.79-1.93-11.37-4.28-16.98-6.68-1.69-.72-1.69-.72-3.42-1.45-11.52-4.92-22.96-10.05-34.38-15.21-5.22-2.36-10.45-4.7-15.67-7.04-12.41-5.54-24.78-11.14-37.16-16.74-12.94-5.86-25.89-11.72-38.87-17.5-1.08-.47-2.15-.95-3.25-1.44-4.35-1.94-8.7-3.84-13.11-5.63-.66-.27-1.33-.54-2.01-.82-1.62-.65-3.25-1.28-4.88-1.91-3.61-1.99-5.67-4.73-7.5-8.38-.66-4.79-.76-7.98 2.19-11.94 8.3-6.09 15.51-3.61 24.12.5z" fill="#2A0000"/>
  <path d="M642 312c4.43 2.35 6.92 4.45 9 9 .59 3.55.77 7.1.95 10.7.09 1.58.09 1.58.19 3.19.2 3.41.37 6.82.55 10.23.12 2.34.25 4.67.38 7 .63 12.08 1.22 24.16 1.31 36.26.01 1.04.02 2.09.04 3.17-.04 6.13-.87 9.61-5.04 14.26-3.77 1.89-7.26 1.92-11.38 1.19-4.33-2.44-5.7-4.02-7.15-8.78-1.32-6.54-1.06-13.14-.97-19.78 0-1.3.01-2.59.02-3.93.03-3.17.06-6.34.1-9.51h-2c-.1.64-.2 1.28-.3 1.94-.95 4.15-2.43 8.06-3.89 12.06-27.91 78.95-2.89 153.47 23.13 229.31 23.49 68.53 23.49 68.53 30.74 103.64.37 1.77.37 1.77.74 3.57 1.28 7.67 2.2 14.91-2.42 21.48-1.91 2.13-3.26 2.89-6.08 3.32-3.82.19-6.34-.03-9.8-1.76-5.68-6.85-6.5-17.47-8.31-26.02-6.88-32.3-17.18-63.33-27.89-94.52C592.16 525.59 592.16 525.59 587 480c-.09-.78-.19-1.56-.28-2.36-4.01-37.53.29-74.6 14.18-109.68 1.22-2.75 1.22-2.75 1.1-4.96-.98.57-1.95 1.13-2.96 1.71-1.28.75-2.57 1.49-3.85 2.23-.97.56-.97.56-1.95 1.13-5.87 3.38-10.49 4.91-17.24 3.93-3.01-1.28-3.81-2.32-6-5-1.32-4.13-1.52-7.61 0-11.69 5.73-6.63 12.9-10.87 20.35-15.29 3.13-1.85 6.25-3.73 9.37-5.6.62-.38 1.24-.75 1.88-1.13 6.41-3.87 12.69-7.94 18.92-12.09 15.65-10.37 15.65-10.37 21.48-9.2zm-141 80c3.4 2.55 5.42 5.09 7 9 .3 2.34.5 4.7.63 7.06.04.7.09 1.39.13 2.11.13 2.28.25 4.55.36 6.83.05.77.09 1.55.13 2.35.58 10.86.95 21.71 1 32.59.01 1.74.01 1.74.03 3.53-.01 1.07-.01 2.14-.01 3.24-.01.93-.01 1.86-.01 2.82-.28 2.66-.79 4.24-2.26 6.47-4.79 2.84-8.47 3.51-13.98 2.64-3.26-1.03-4.4-2.72-6.02-5.64-1.94-4.6-2.49-9.07-3-14-19.09 34.09-9.02 81.14.58 116.56 5.7 20.02 12.72 39.67 19.38 59.37 2.4 7.1 4.78 14.19 7.15 21.29l2.22 6.6c8.13 24.2 8.13 24.2 5.67 31.18-2.74 3.44-4.18 4.65-8.45 5.47-4.31.25-6.79.04-10.43-2.41-4.82-6.95-7.09-14.88-9.43-22.94-3.57-11.92-7.61-23.64-11.75-35.37C449.57 544.48 449.57 544.48 448 520c-.08-1.17-.16-2.34-.25-3.54-.44-12.99 2.01-25.71 4.25-38.46.16-.94.32-1.87.49-2.83 2.1-12.15 5.31-23.59 9.51-35.17-.57.29-1.14.58-1.72.88-4.91 2.35-8.73 3.96-14.28 3.12-3.39-1.47-5.39-2.59-6.89-6.06-1.27-4.81-1.66-8.51.89-12.94 5.63-5.79 11.8-9.95 18.88-13.75 9.73-5.39 19.14-11.19 28.48-17.23 4.34-2.71 8.63-2.73 13.64-2.02zm296.906 45.27c5.89 4.96 5.89 4.96 6.33 8.78l.15 2.56c.06.96.12 1.92.18 2.91.06 1.04.13 2.08.19 3.16.06 1.07.13 2.15.2 3.26.13 2.28.27 4.57.4 6.86.2 3.46.41 6.92.63 10.38.37 6.27.72 12.55 1.01 18.82.04.76.08 1.52.11 2.31.45 10.61.45 10.61-3.11 15.69-2.88 2.73-4.92 3.45-8.87 3.5-4.06-.16-6.98-.76-10.01-3.74-2.26-3.57-2.56-7.65-3.12-11.76-.31-1.34-.64-2.67-1-4-6.25 16.77-8.58 33.15-8.43 51 0 .8 0 1.6.01 2.42.17 27.83 6.02 54.74 14.86 81.08 2.22 6.72 4.32 13.41 2.56 20.5-1.91 3.2-4.39 4.46-7.93 5.65-3.88.8-6.03.36-9.82-1.02-8.37-5.66-9.74-19.93-12.18-29.13-.22-.82-.44-1.64-.67-2.48-2.73-10.2-5.31-20.41-7.4-30.77-.18-.91-.36-1.81-.55-2.74-2.73-14.41-3.83-28.68-3.76-43.32 0-.79.01-1.57.01-2.38.09-21.02 3.65-39.85 10.3-59.81-.95.5-1.89.99-2.87 1.5-4.66 1.95-9.16 2.62-14.13 1.5-2.91-1.85-4.54-3.87-6-7-.86-4.24-.66-7.54 1.14-11.49 2.32-3.13 5.06-5.01 8.3-7.07.65-.42 1.3-.85 1.97-1.28 7.16-4.61 14.49-8.97 21.82-13.31 2.95-1.75 5.89-3.53 8.8-5.35.59-.38 1.19-.75 1.8-1.13 1.55-.98 3.1-1.96 4.64-2.94 4.42-2.49 9.91-4.18 14.44-1.16z" fill="#2A0000"/>
</svg>
