<svg version="1.0" xmlns="http://www.w3.org/2000/svg" preserveAspectRatio="xMidYMid meet" viewBox="0 0 1252 1199">
  <g fill="#000">
    <path d="M698.2 904.8c-7-.9-14.8-4.1-21.9-8.9-2.6-1.7-20.8-19.1-40.3-38.5-25.4-25.3-36.2-35.4-37.8-35.4-1.3 0-4.7 2.2-8.1 5.3-3.2 2.8-10.4 9.3-16.1 14.2-5.7 5-13.7 12-17.9 15.8-16.6 14.8-38.1 18.5-59.6 10.3-17-6.5-27.4-18.3-32.6-37.3-1.7-6.1-2-9.1-1.5-14.3.4-3.6.8-7.6.9-9l.2-2.5-13-.6c-14.2-.7-17.8-1.6-27.6-7.2-9.6-5.5-16.2-12.5-21.1-22.2-5.1-10.1-6.1-14.8-5.7-27.4l.4-11.6-5.9-.1c-20.2-.5-36-6.9-46.1-18.6-8.6-10-14.1-25.6-13.1-37.3.3-3.8.7-8.3.9-10l.2-3-9-.8c-20.5-1.7-28.7-5-39.7-16-9.8-9.8-14.4-19.7-15.3-33l-.8-9.9-5.1-6.1c-13.9-16.5-24.8-30.7-34.5-45.2-12.6-18.8-14-21.2-22.5-38.2-8.8-17.6-12.3-26.5-18.1-45.8-1.4-4.9-3-10.1-3.5-11.5-.4-1.4-1.1-4.1-1.4-6-.3-1.9-1.4-7.5-2.4-12.5-1.1-4.9-2-10.6-2-12.5 0-1.9-.6-8.1-1.3-13.7-.9-8-.9-13.4 0-24.5 1.1-12.3 2.2-19.5 6.1-37.8 1.4-6.7 8.9-27.8 12.2-34.6 7.4-15 16.1-29.5 23.7-39.4 10.8-14.2 22.3-26.5 34.6-37.3 2.2-1.9 5.6-4.9 7.5-6.6 10.7-9.6 55.1-36.2 66.1-39.6 1.3-.4 4.7-1.8 7.5-3.1 16.2-7.4 51.7-16 75.9-18.3 28.9-2.9 55.6-2.2 80 2 19.4 3.3 46.9 11 59.5 16.6 7 3.1 27.6 13.6 30.2 15.5 5 3.5 4.8 8.7-.3 11.3-2.9 1.5-3.3 1.4-16.7-5.3-24-12.1-38.8-17.6-61.2-22.8-15.9-3.8-20-4.3-39.9-5.5-18.4-1.1-52.1 0-63.6 2-52 9-99.8 31.8-138.7 65.9-13.6 11.9-23.7 23.7-38.1 44.4-11.6 16.5-24.7 48.1-28.6 68.8-3.7 19.7-3.4 56.7.8 78 7.2 37 25.5 76.1 55.3 118 6.3 8.9 21 26 22.3 26 .8 0 3.4-2.7 5.9-5.9 2.5-3.2 10.3-11 17.3-17.2 7.1-6.3 14.8-13.2 17.3-15.5 12.4-11.5 20.5-16.7 31.5-20.5 5.9-2 25.7-1.7 31.5.5 2.5 1 5.4 2 6.5 2.3 7.5 2.3 23.1 16.1 26.3 23.5 6.1 13.8 7.7 22 6.1 31.7-.5 3.6-1.3 6.9-1.6 7.4-1.1 1.8 2.2 2.7 10.2 2.7 15.6.2 27.3 4.7 38.7 15 6.8 6.1 11.1 13.1 14.3 23 1.7 5.2 2.3 18.4 1.3 27.5l-.3 3 11.5.6c13.8.7 22.2 3.2 30.9 9 10.7 7.1 17 15.8 21.8 29.8 1.1 3.2 1.4 7.7 1.2 16.5l-.4 12.1 13 .6c7.2.3 13.9.9 15 1.3 1.1.5 4.4 1.9 7.3 3.2 2.9 1.3 5.5 2.4 5.8 2.4 1 0 9.7 7.4 13.3 11.4 10.5 11.4 15.3 29.8 11.7 45.4-.9 3.9-1.6 7.7-1.6 8.5 0 1.7 71.9 73.5 77.5 77.4 15.9 11.2 33.5 9.5 48.7-4.6 20.4-18.8 20.6-50.4.6-66.2-4.9-3.8-31.8-29.4-60.5-57.5-10.3-10.1-12.3-12.5-12.3-15.1 0-3.8 2.7-6.3 6.9-6.3 3 0 5.5 2.1 23 19.3 10.8 10.7 25 24.5 31.5 30.8 6.5 6.3 15.5 15 20 19.4 4.5 4.4 10.4 9.1 13.1 10.5 24.9 12.3 64.5-15.4 64.5-45.2 0-12.2-2.2-15.2-27.5-38.2-5.5-4.9-11.1-10.2-12.5-11.6-1.4-1.4-9-8.6-17-16s-17.9-16.7-22-20.5c-4.1-3.9-10.4-9.8-14-13-3.6-3.3-10.1-9.5-14.5-13.7-4.4-4.2-12.3-11.7-17.5-16.5-5.3-4.8-15.9-14.7-23.5-21.9-7.7-7.2-16.3-15.1-19.1-17.6-8.8-7.7-12.4-12.1-12.4-14.8 0-4 2.6-7 6.2-7 3.4 0 3.4 0 27.8 23 8.5 8.1 21.2 20 28.3 26.6 7 6.5 13 12.6 13.3 13.4.3.8 2.8 3.1 5.6 5.2 2.7 2 9.6 8 15.2 13.5 5.7 5.4 15.4 14.5 21.6 20.3 6.3 5.8 18.6 17.3 27.3 25.5 43.5 41 44.2 41.5 56.1 41.5 8.1 0 14.4-2.1 23.2-7.6 8.5-5.2 15.9-13.1 20-21.2 2.6-5 2.9-6.9 3.2-16.2.3-10.1.2-10.7-2.7-15.6-2.1-3.6-12.6-14.3-33.8-34.5-16.9-16.1-38-36.3-46.9-44.8-8.8-8.6-19.6-19-24-23.1-4.3-4.1-19.5-18.7-33.7-32.4-14.2-13.7-26.7-25.6-27.7-26.3-6.8-4.8-5.4-14.3 2-14.3 3.1 0 4.5 1.2 37.9 33.5 6.8 6.6 13.9 13.4 15.6 15 1.8 1.7 7.7 7.3 13.1 12.5 5.5 5.3 15.3 14.7 21.9 21 6.6 6.3 22.8 21.9 36 34.5 54.8 52.5 50.6 48.8 58.1 51 5 1.4 6.7 1.5 11.4.5 3-.7 6.4-1.6 7.5-2.1 1.1-.5 3.3-1.3 4.8-1.9 11.1-4 25.7-19.5 31-32.8 2.1-5.2 2.2-15 .3-19.6-.8-2-9.5-11.3-21.3-22.7-10.9-10.7-22.5-22.1-25.9-25.4-3.3-3.3-12.1-11.8-19.5-18.9-7.4-7.1-21.5-20.8-31.4-30.5-9.9-9.7-23.6-23-30.5-29.6-6.9-6.6-24.3-23.5-38.7-37.7C768 437 764 432.7 764 430.2c0-3.6 3.3-7.2 6.6-7.2 2.6 0 2.2-.3 61.9 58.1 9.9 9.7 24.7 24.1 32.9 32 20.2 19.4 18.9 18.2 55.7 53.9 46 44.8 45.5 44.3 47.2 43.3 3.9-2.1 25.6-24.7 34.2-35.3 27.4-34.3 42.6-63.2 52.5-100 .7-2.5 1.6-5.6 2-7 1.1-3.1 3.6-17.9 5.1-29 1.2-9.5.7-41.2-.9-53-.6-4.1-1.8-10.6-2.7-14.5-.9-3.8-1.9-8.1-2.1-9.5-.3-1.4-.9-3.4-1.4-4.5-.4-1.1-1.6-4.9-2.5-8.5-2-7.5-9.9-28.9-12.5-33.4-.9-1.7-3.8-7.1-6.5-12.1-22.4-41.4-61.1-78.9-104-100.7-20.1-10.2-48.1-19.5-68.5-22.7-20.2-3.2-49-4.1-64.7-2.1-24.5 3.3-32.7 4.8-49.8 9.5-10.2 2.7-42 15.9-51.6 21.3-1.9 1-6.1 3.4-9.4 5.2-3.3 1.9-7.9 4.6-10.2 6.2-2.3 1.5-4.4 2.8-4.8 2.8-1.9 0-31.6 21.7-41 30-9.8 8.7-79.9 76.6-118.6 115-19.9 19.7-21.9 22.1-25.2 29-6.4 13.7-7 20.8-2.8 33.8 3.5 10.7 9.7 18.9 20.6 27 8.4 6.2 11.8 7.7 21.5 9.7 11 2.2 22 1.6 31.3-1.8 12.2-4.5 10.8-3.3 52.7-46.6 11.8-12.3 22.4-22.7 23.7-23.2 1.3-.5 10.5-.2 22.5.7 18.3 1.4 21.7 1.4 35.8-.1 23.6-2.4 35.5-4.7 50-9.8 24.8-8.6 47.8-25.8 63-47.2 8.5-12.1 9.9-13.5 13-13.5 5.5 0 7.6 6 4.4 12.3-3 5.9-17.7 23.8-25.7 31.3-13.5 12.7-33.1 24.2-51.9 30.5-10 3.3-33.5 8.2-45.8 9.5-10.1 1.1-37 1.1-50 0l-10.5-.8-27.8 28.5c-15.3 15.7-30.6 30.6-34.1 33.1-7.8 5.6-19.5 10.3-29.1 11.8-9.7 1.5-23.4-.1-31.2-3.7-3-1.4-6.2-2.5-6.9-2.5-.8 0-1.4-.4-1.4-1 0-.5-.7-1-1.6-1-2.6 0-13.6-8-20.4-15-11.3-11.3-17.5-26.3-17.5-42 0-10.7 1.4-16.2 7.3-28 4.2-8.6 13.1-17.9 73.2-76 19-18.4 42.6-41.3 52.5-51 9.9-9.7 20.7-19.8 24-22.5 3.3-2.7 6.2-5.2 6.5-5.6.3-.3 6.1-4.5 13-9.2 6.9-4.8 14.3-10 16.5-11.6 2.2-1.6 7.2-4.6 11-6.6 3.9-2.1 7.5-4.1 8-4.5 1.6-1.2 24.5-12.6 30.5-15.3 11-4.8 42.4-14.9 54.5-17.6 20.9-4.6 49.5-6.7 70.2-5.2 13.5 1 37 4.1 43.3 5.7 4.5 1.1 19.4 5.5 22 6.4 24.3 8.6 38.7 15.5 58.5 28.1 38 24.2 70.1 60.2 91 101.9 11.3 22.7 15.6 34.8 20.4 58 5.1 24.2 6.1 32.4 6.1 51.7 0 19.9-1.3 31.7-6 54.8-1 4.9-6 22-8.1 28-.6 1.7-2 5.5-3.1 8.5-3.1 8.7-15.6 33.4-21.9 43.1-14.5 22.7-26.7 37.7-49.1 60.5l-15.8 16v7.1c0 17.4-12.9 37.5-32 49.8-8.3 5.3-20.6 9.6-29.5 10.2-3.8.3-7.5 1-8.1 1.4-.6.5-1.4 4.8-1.7 9.7-.3 5.6-1.3 11-2.9 15.3-8.1 22-34 40.9-55.8 40.9-7.9 0-8.7.9-9.3 11-.9 14.3-8.1 28.5-20.1 39.8-13 12.1-24 17.4-40.9 19.4l-10.7 1.2v10.8c0 14.1-2.5 23.9-8.6 33.5-12.4 19.5-33.8 30.6-54.2 28.1zm-169.7-47.3c8.8-2.3 14-5.7 28.7-18.5 19.2-16.8 30.7-27.9 33.4-32.6 2.9-4.9 5.4-13.9 5.4-19.3 0-5.1-3.6-15.6-7-20.6-4.3-6.2-10.6-11.4-17.9-14.8-5.4-2.5-8.2-3.1-15.9-3.5-14.2-.7-19.1 1.7-40 19.3-23.3 19.6-34.2 30.7-36.5 37-4 10.9-3.2 24.3 1.9 33.2 3.1 5.4 11.7 13.9 16.9 16.6 8.7 4.6 20.7 5.8 31 3.2zm-59.9-69.8c5.2-2.6 21.5-15.7 31.9-25.5 3.3-3.2 8.7-8.1 12.1-10.9 7.3-6.2 10.6-10.8 13.9-19.3 5.4-13.8 1.6-28.9-10-39.9-9.3-8.9-20.7-12.8-33.3-11.7-4.1.4-8.1 1.1-9 1.5-11.8 5.6-10.8 4.9-40.6 31-14.8 12.9-16.6 15-20.4 22.9-3.1 6.6-3.5 8.1-3.4 15.7.1 7.6.4 9.3 3.6 15.8 4.3 8.9 8.7 13.6 17.2 18.3 8.7 4.9 11.1 5.4 22.9 5 8.2-.3 10.9-.8 15.1-2.9zm-63.4-70.4c3.9-2 11.5-7.7 17.3-12.7 5.6-5 15-13.3 20.9-18.5 12.8-11.2 14.8-13.6 18.2-22.7 6.2-16.3-.4-35.5-15.3-45.1-8.8-5.6-15.4-7.5-25.3-7.1-12.3.5-18 3.5-35.5 18.7-7.7 6.8-18.1 15.8-23.2 20.2-9.4 8.2-13.3 13.5-15.9 21.9-2.8 9.1-1.3 20.7 3.9 30 3.2 5.5 11.6 13 18.2 16.1 5.5 2.6 7 2.8 17.9 2.9 11.7 0 11.9 0 18.8-3.7zm-70.7-65.8c5.9-1.8 10.7-4.9 20.9-13.9 13.7-12 17.3-15.2 23.6-20.6 16-13.7 17.6-15.9 20.6-28.6 1.9-8.3.6-16.1-4.4-25.6-4.2-8.2-9.3-13-18-17.1-11.3-5.3-28.3-4.9-38.4.8-6 3.4-29 22.9-45.5 38.7-3.3 3.1-6.4 7.4-8.3 11.5-2.9 6-3.2 7.6-3.1 16.2 0 8.8.2 10 3.6 16.7 5.9 12 16.1 19.6 29.5 22 9.1 1.7 13.4 1.6 19.5-.1z"/>
    <path d="M619.8 705.3c-2.4-2.1-11.7-10.9-20.8-19.8-29.4-28.6-28.2-27.2-27.8-30.7.2-1.9 1.3-3.8 2.9-5 2.4-1.8 2.9-1.8 6-.5 1.9.8 14.3 12.1 28.2 25.7 26.5 26 27.4 27.3 22.7 32-3 3-6.5 2.5-11.2-1.7z"/>
  </g>
</svg>
