<svg version="1.1" xmlns="http://www.w3.org/2000/svg" viewBox="0 0 1252 1199">
  <path d="M818.125 162.688c1.05 0 1.05 0 2.13-.01 22.1-.01 45.56 1.75 66.75 8.32.99.31 1.99.61 3.01.93 14.4 4.48 28.45 9.4 41.99 16.07l2.3 1.13c30.72 15.15 60.26 37.23 81.6 64.22 1.37 1.74 2.78 3.46 4.22 5.15 29.29 34.42 45.55 76.62 53.88 120.5.2 1.09.41 2.17.62 3.29 1.86 11.09 1.77 22.24 1.75 33.46v3.16c-.04 16.04-.74 31.42-4.37 47.09-.23.99-.45 1.98-.69 2.99-1.57 6.74-3.37 13.38-5.31 20.01-.23.78-.45 1.56-.68 2.36-12.64 43.2-39.39 80.12-69.7 112.64-.92 1-.92 1-1.87 2.02-3.2 3.43-6.47 6.67-10.01 9.76-8.51 7.17-8.51 7.17-11.87 17.31 0 2.02.05 4.03.13 6.06 0 13.27-9.33 25.51-18.26 34.6-13.16 12.94-27.89 18.36-45.74 21.25-1.67.33-3.34.66-5 1-.07.58-.13 1.15-.2 1.74-1.9 16.27-4.48 28.81-15.8 41.26-.71.79-1.41 1.57-2.13 2.38-13.64 14.44-29.8 19.17-48.87 21.62-1.48 4.09-2.36 7.88-2.88 12.19-2.52 16.92-11.68 31.97-25.38 42.36-14.88 10.76-28.75 13.77-46.74 15.45l.06 2c.68 24.63.68 24.63-4.06 35-.64 1.42-.64 1.42-1.29 2.87-7.71 15.51-21.08 25.27-36.97 31.38-14.05 2.81-27.48 2.12-40.03-5.32-7.89-5.59-14.68-12.73-21.39-19.66-1.92-1.87-3.87-3.61-5.91-5.35-4.68-4.09-9.05-8.46-13.41-12.89l-5.13-5.16c-2.66-2.69-5.32-5.37-7.97-8.06-2.59-2.62-5.18-5.23-7.78-7.84-1.17-1.19-1.17-1.19-2.36-2.41-7.28-7.54-7.28-7.54-15.76-13.56-8.75.89-17.9 12.57-24.24 18.45-2.83 2.61-5.68 5.17-8.6 7.68-1.7 1.47-3.38 2.98-5.05 4.5-12.22 10.94-25.11 17.8-41.87 17.68-1.32 0-1.32 0-2.66-.01-15.27-.29-28.32-5.36-39.4-16.02-9.88-10.31-15.61-23.54-15.37-37.9v-2.24c.03-3.83.27-7.41 1.19-11.14-.56.01-1.12.03-1.7.04-19.85.22-36.14-2.46-51.02-16.56-3.79-4.11-6.74-8.5-9.28-13.48-.43-.83-.86-1.67-1.3-2.53-3.8-8.06-4.33-14.89-4.02-23.72.04-1.85.04-1.85.07-3.74.06-3 .14-6 .25-9.01-.78.02-1.55.03-2.34.05-18.86.2-34.37-4.19-48.67-16.82-8.79-9.02-14.25-23.16-14.22-35.68.01-.72.02-1.43.04-2.17v-2.2c.03-4.16.38-8.08 1.19-12.18-.91-.03-1.82-.07-2.76-.11-18.88-.99-33.48-4.15-47.24-17.89-.67-.65-1.33-1.3-2.01-1.97-7.4-7.79-11.54-18.05-12.24-28.73-.6-8.63-1.65-13.54-8.14-19.77-2.95-2.86-5.42-5.9-7.93-9.15-.69-.9-.69-.9-1.4-1.81-.95-1.23-1.9-2.47-2.85-3.7-.94-1.23-1.89-2.45-2.84-3.67-12.75-16.42-24.95-33.76-34.59-52.2-.48-.89-.96-1.78-1.44-2.7-26.78-50.64-39.54-106.48-28.56-163.3.25-1.33.25-1.33.51-2.7 4.8-23.82 14.82-45.69 27.49-66.3.37-.62.75-1.25 1.14-1.89 12.31-20.18 29.82-38.95 47.86-54.11 1.08-.92 1.08-.92 2.19-1.86 20.15-16.61 44.77-31.07 68.81-41.14.71-.3 1.43-.6 2.17-.91 66.81-27.61 149.95-30.46 217.28-2.59 3.22 1.41 6.38 2.95 9.55 4.5 1.89.9 3.78 1.81 5.67 2.71 2.01.97 4.01 1.94 6.01 2.92.95.45 1.89.91 2.87 1.38 4.95 2.46 8.96 4.65 12.45 8.99.62 3.06.62 3.06 0 6-2.13 2.44-2.13 2.44-5 4-4.26-.37-7.56-1.53-11.36-3.44l-3.04-1.51c-1.07-.53-2.13-1.06-3.23-1.61-20.96-10.25-42.05-18-64.81-23.19-.85-.2-1.69-.4-2.56-.6-16.85-3.65-34.21-4-51.38-3.9-.94.01-1.87.01-2.84.01-23.49.11-45 2.22-67.78 8.24-.91.24-1.81.48-2.74.72-19.28 5.17-37.67 12.9-55.26 22.28-.72.38-1.44.76-2.17 1.15-19.84 10.5-38.03 23.32-54.43 38.66-1.63 1.48-3.3 2.91-5.03 4.27-3.62 2.92-6.4 6.36-9.37 9.92-.46.54-.92 1.09-1.4 1.64-31.04 36.69-49.81 79.48-49.86 127.93v2.17c.03 20.92 2.29 41.17 8.26 61.26.2.73.41 1.45.63 2.2 11.52 39.22 33.77 77.88 60.37 108.8 1.19 1.43 1.19 1.43 2.41 2.89 1.19 1.39 1.19 1.39 2.4 2.8.71.83 1.41 1.66 2.14 2.51 2.09 2.24 2.09 2.24 6.05 1.8 1.49-1.23 1.49-1.23 2.81-3.06 7.5-9.09 16.17-17.63 25.19-25.21 2.1-1.81 4.1-3.71 6.11-5.61 14.01-13.2 29.29-24.6 49.26-24.37.84.01 1.68.02 2.54.02 5.88.1 11.43.47 17.09 2.23.81.25 1.62.49 2.46.74 6.95 2.43 12.09 6.38 17.54 11.26.8.72 1.61 1.43 2.45 2.17 9.61 8.99 14.57 20.95 15.86 34.04.13 6.5-.96 12.46-2.31 18.79.85.02.85.02 1.72.03 16.48.34 29.64 1.92 43.28 11.97.73.54 1.46 1.07 2.21 1.62 9.69 7.76 15.13 19.13 17.53 31.13.69 7.88 1.11 16.54-.74 24.25.57.02 1.14.03 1.73.05 19.48.55 35.23 2.5 49.98 16.47 10.48 11.36 13.96 23.5 13.53 38.67-.01 1.24-.03 2.48-.05 3.75-.05 3.02-.11 6.04-.19 9.06l2.12.03c3.23.06 6.46.14 9.69.22 1.65.02 1.65.02 3.33.05 7.67.22 13.83 1.68 20.86 4.7l2.15.85c10.64 4.27 20.01 15.07 24.85 25.15 4.96 12.05 5.53 25.16 2.74 37.81-.37 3.79.11 5.01 2.46 8.09.99 1.05 2 2.1 3.02 3.12.54.57 1.08 1.13 1.63 1.72 1.7 1.76 3.42 3.51 5.15 5.26 1.03 1.07 2.07 2.13 3.11 3.19 3.17 3.24 6.38 6.45 9.59 9.65l3.52 3.52c2.44 2.44 4.87 4.88 7.31 7.31 3.11 3.1 6.21 6.2 9.31 9.31 2.41 2.42 4.83 4.83 7.25 7.25l3.43 3.43c18.07 19.19 18.07 19.19 42.48 26.34 11.56-1.01 21.21-6.53 29-15 8.57-10.86 12.42-23.21 11-37-2.52-14.28-11.5-22.95-22-32-1.38-1.19-2.76-2.37-4.13-3.56-.61-.53-1.22-1.05-1.85-1.6-3.51-3.19-6.81-6.6-10.12-9.99-2.09-2.1-4.28-4.05-6.53-5.97-6.12-5.3-11.71-11.15-17.38-16.91-5.29-5.35-10.56-10.64-16.31-15.5-7.24-6.28-7.24-6.28-8.12-10.62-.06-2.16-.06-2.16.44-5.85 2-2 2-2 5.43-2.69 11.05.38 22.92 16.86 30.25 24.32 2.52 2.56 5.05 5.11 7.58 7.66.9.92.9.92 1.83 1.85 3.49 3.51 7.08 6.83 10.86 10.04 2.74 2.44 5.3 5.04 7.87 7.66.52.53 1.04 1.06 1.58 1.6 2.15 2.19 4.31 4.38 6.45 6.59 14.45 15.69 14.45 15.69 33.71 22.35 15.64-.04 27.71-6.24 39.11-16.89 3.83-4.1 6.66-8.57 9.33-13.49l1.09-1.88c2.22-4.59 2.3-9.53 2.47-14.55l.12-2.14c.04-8.67-5.41-14.24-11.15-20.22-1.63-1.62-3.26-3.23-4.91-4.83-.81-.81-1.62-1.62-2.46-2.45-4.29-4.23-8.66-8.3-13.23-12.23-3.4-2.97-6.66-6.09-9.93-9.2-1.5-1.41-3-2.83-4.5-4.24l-2.27-2.15c-3.45-3.25-6.9-6.49-10.36-9.73l-1.99-1.87c-6.95-6.51-13.92-13.01-20.88-19.51-11.8-11-23.6-22.01-35.34-33.08-6.87-6.48-13.76-12.95-20.71-19.34-5.28-4.86-10.49-9.78-15.71-14.71-3.75-3.54-7.52-7.04-11.35-10.5-13.55-12.23-13.55-12.23-14.52-18.18.63-3.19.63-3.19 1.69-5.12 3.28-1.8 5.24-1.67 8.94-1.07 2.99 2 5.43 4.49 8 7 1.68 1.51 3.37 3.01 5.06 4.5 3.52 3.18 6.91 6.44 10.23 9.83 1.82 1.78 3.71 3.45 5.64 5.11 3.45 2.97 6.66 6.1 9.81 9.37 1.9 1.84 3.83 3.55 5.83 5.26 6.36 5.52 12.15 11.64 18.03 17.66 5.42 5.49 10.99 10.53 17.01 15.34 2.73 2.21 5.15 4.52 7.57 7.06 3.5 3.58 7.09 6.91 10.89 10.16 2.77 2.46 5.33 5.11 7.93 7.74 1.93 1.91 3.93 3.7 6 5.47 3.51 3.02 6.75 6.23 9.99 9.53 2.59 2.55 5.32 4.89 8.07 7.26 2.5 2.21 4.82 4.58 7.16 6.97 1.84 1.81 3.75 3.5 5.71 5.18 2.81 2.42 5.46 4.92 8.07 7.56 3.83 3.88 7.85 7.46 12 11 1.04.92 2.09 1.83 3.14 2.74 1.14.99 2.28 1.97 3.42 2.95.53.46 1.06.93 1.6 1.41 7.27 6.22 13.73 9.4 23.43 8.72 13.12-1.83 25.09-9.27 33.54-19.37 6.14-8.46 8.41-15.01 8.43-25.38.03-.96.07-1.91.11-2.89.04-7.23-1.8-10.95-6.67-16.18-.74-.85-.74-.85-1.49-1.72-1.43-1.65-2.9-3.25-4.39-4.84l-1.45-1.59c-2.68-2.9-5.46-5.58-8.46-8.16-5.7-4.9-10.88-10.31-16.15-15.66-4.26-4.3-8.59-8.42-13.18-12.37-3.72-3.27-7.13-6.86-10.6-10.41-2.98-3.02-6.01-5.91-9.22-8.68-4.95-4.28-9.49-8.94-14.06-13.61-3.22-3.25-6.47-6.41-9.94-9.39-5.42-4.67-10.35-9.8-15.35-14.9-3.48-3.51-6.97-6.94-10.71-10.17-5.4-4.64-10.31-9.76-15.29-14.83-4.16-4.19-8.39-8.2-12.88-12.05-2.74-2.41-5.29-5-7.83-7.62-3.42-3.5-6.83-6.73-10.69-9.75-2.72-2.31-3.88-3.9-4.5-7.44.19-3.81.19-3.81 1.19-6.31 3.01-2.26 5.3-1.82 9-1.5 2.59 1.48 2.59 1.48 5.06 3.63.93.81 1.87 1.63 2.83 2.47 4.12 3.79 8.08 7.75 11.98 11.76 2.9 2.97 5.84 5.81 8.99 8.51 5.43 4.69 10.39 9.84 15.42 14.96 4.13 4.17 8.33 8.14 12.78 11.96 3.96 3.5 7.6 7.33 11.29 11.11 3.11 3.15 6.26 6.18 9.61 9.07 4.95 4.26 9.47 8.91 14.04 13.57 3.23 3.28 6.5 6.45 10 9.46 4.93 4.25 9.44 8.9 14 13.54 3.23 3.28 6.5 6.45 10 9.46 4.93 4.25 9.44 8.9 14 13.54 3.92 3.98 7.96 7.73 12.19 11.38 2.35 2.06 4.51 4.27 6.68 6.52 7.88 7.93 15.62 15.71 27.25 16.56 10.2-.39 19.94-5.38 27.88-11.5l3-2.12c4.82-4.19 8.41-9.65 12-14.88.55-.8 1.11-1.61 1.68-2.44 3.84-6.44 4.81-14.1 3.94-21.53-2.37-7.68-10.56-14.24-16.12-19.75-.79-.8-1.59-1.59-2.4-2.4-1.67-1.66-3.33-3.32-5-4.98-2.54-2.52-5.06-5.04-7.59-7.57-1.63-1.62-3.26-3.24-4.89-4.87-1.12-1.11-1.12-1.11-2.26-2.25-4.04-4.02-8.19-7.84-12.5-11.57-2.81-2.47-5.43-5.1-8.05-7.76-.82-.83-.82-.83-1.66-1.67-2.3-2.32-4.59-4.64-6.88-6.96-7.41-7.58-7.41-7.58-15.24-14.72-6.85-5.83-13.02-12.46-19.34-18.85-8.58-8.68-8.58-8.68-17.64-16.84-5.46-4.87-10.5-10.23-15.64-15.44-1.55-1.57-3.11-3.14-4.67-4.71-.91-.92-1.82-1.85-2.76-2.8-2.18-2.16-4.45-4.18-6.78-6.19-4.61-4-8.92-8.27-13.23-12.59-.83-.82-1.65-1.65-2.51-2.5-1.73-1.74-3.46-3.47-5.19-5.21-2.66-2.66-5.32-5.31-7.98-7.97l-5.07-5.07c-.79-.79-1.59-1.59-2.41-2.4-1.1-1.11-1.1-1.11-2.23-2.24-.64-.65-1.29-1.29-1.96-1.96-2.61-2.81-3.59-4.38-3.94-8.26.32-3.5.32-3.5 1.38-5.43 3.32-1.83 5.19-1.74 8.94-1.07 2.14 1.7 3.9 3.53 5.71 5.57 1.84 1.96 3.65 3.63 5.7 5.37 7.01 6.05 13.38 12.8 19.89 19.38 1.76 1.78 3.52 3.56 5.29 5.34.52.53 1.05 1.06 1.59 1.61 2.83 2.85 5.72 5.55 8.76 8.18 3.96 3.42 7.66 7.05 11.34 10.77.65.66 1.31 1.32 1.99 2.01 2.78 2.79 5.55 5.59 8.32 8.38 2.04 2.06 4.08 4.12 6.12 6.17.62.62 1.23 1.24 1.86 1.88 3.72 3.75 7.58 7.26 11.57 10.71 2.49 2.19 4.84 4.52 7.17 6.88.46.46.91.93 1.39 1.4 1.91 1.93 3.82 3.87 5.73 5.81 6.55 6.67 6.55 6.67 13.47 12.95 6.45 5.52 12.29 11.73 18.25 17.77 7.22 7.37 7.22 7.37 14.85 14.32 6.42 5.48 12.22 11.67 18.15 17.68 6.1 6.16 12.2 12.24 18.85 17.82 1.33 1.15 2.66 2.29 4 3.44.99.85 1.98 1.69 3 2.56 3.53-1.98 6.32-4.08 9.17-6.95l2.32-2.32c.79-.8 1.57-1.59 2.38-2.42.78-.77 1.55-1.55 2.36-2.35 4.78-4.83 9.36-9.78 13.77-14.96.74-.86.74-.86 1.5-1.73 14.19-16.51 26.5-34.92 36.5-54.27.35-.67.71-1.34 1.07-2.03 10.39-19.76 17.69-42.07 21.93-63.97.19-1.02.19-1.02.4-2.05 2.27-12.05 3.07-23.78 2.99-36.03-.02-2.78 0-5.57.02-8.36.02-16.6-1.69-33.02-6.17-49.06-.25-.94-.51-1.89-.77-2.86-10.23-37-26.95-69.8-52.47-98.64-.78-.88-1.55-1.76-2.34-2.67-8.05-9.09-16.46-17.55-26.03-25.04-1.16-.91-2.31-1.83-3.46-2.75-31.3-25.14-70.23-43.58-110.17-49.54l-2.11-.32c-11.57-1.7-23.22-2.27-34.89-2.68a382.9 382.9 0 01-3.17-.13c-65.59-1.41-129.38 28.11-179.83 68.13-.9.71-1.8 1.41-2.73 2.14-11.26 8.98-21.65 19.03-31.71 29.34-2.65 2.69-5.35 5.23-8.23 7.68-5.56 4.82-10.67 10.11-15.83 15.34-1.99 2.02-3.98 4.03-5.97 6.03-.87.89-1.75 1.77-2.64 2.68-2.15 2.12-4.39 4.1-6.68 6.07-4.63 4.02-8.93 8.33-13.25 12.69-.83.84-1.67 1.68-2.53 2.54-2.65 2.66-5.29 5.33-7.93 7.99-3.49 3.52-6.98 7.03-10.47 10.53-.79.8-1.58 1.59-2.39 2.41-4.16 4.19-8.42 8.19-12.89 12.04-14.23 12.34-33.21 29.09-34.99 49.2-.34 14.71 4.39 27.04 14.3 37.95 7.38 6.9 17.01 13.16 26.94 15.37.72.18 1.44.36 2.18.55 15.48 2.51 30.64.15 43.82-8.55 3.61-3.09 6.93-6.44 10.25-9.83.96-.96 1.92-1.92 2.87-2.88 2-2 3.99-4.01 5.97-6.02 2.52-2.56 5.05-5.11 7.59-7.66 2.44-2.45 4.88-4.92 7.32-7.38l2.72-2.74c4.95-5.02 9.7-10.14 14.28-15.49 9-10.34 9-10.34 15.35-11.73 3.62-.02 7.06.28 10.65.73 2.26.18 4.54.35 6.81.5 1.88.13 1.88.13 3.8.26 44.54 2.61 92.03-4.72 126.45-35.13 1.65-1.54 3.3-3.08 4.94-4.63.81-.75 1.62-1.49 2.46-2.26 6.19-5.9 11.16-12.37 16.09-19.32.42-.58.83-1.16 1.26-1.76 1.09-1.52 2.17-3.05 3.25-4.58 1.94-2.08 1.94-2.08 4.01-2.64 5.7.34 5.7.34 7.93 2.56 1.12 5.01.23 9.27-2.26 13.69-4.17 6.35-9.25 12.01-14.3 17.67-1.27 1.44-2.5 2.9-3.73 4.37-21.28 25.03-53.17 37.38-84.53 43.52-.67.13-1.33.26-2.02.4-13.42 2.61-26.25 3.52-39.87 3.48-2.39 0-4.79 0-7.19.01h-2.37c-1.58 0-3.16 0-4.74.02-3.9 0-7.55-.19-11.38-.93-5.21-.93-9.94-1.75-14.72.97-5.47 4.12-9.96 9.18-14.52 14.24-1.4 1.48-2.81 2.96-4.21 4.44a479.09 479.09 0 00-14.85 16.36c-2.38 2.72-4.79 5.33-7.44 7.8-1.06.99-1.06.99-2.14 2.01l-2.17 2.02c-.71.66-1.43 1.33-2.16 2.02-2.12 1.98-4.26 3.95-6.4 5.91-.68.64-1.36 1.27-2.06 1.92-6.31 5.75-13.09 8.92-20.94 12.08-.9.37-1.79.73-2.72 1.11-16.04 5.39-34.48 2.17-49.28-5.11-.66-.28-1.31-.57-1.99-.86-16.31-7.39-29.1-22.23-35.4-38.77-4.26-14.05-4.18-27.73 1.39-41.37l1.17-3.01c3.64-8.22 9.04-14.04 15.25-20.36 1.51-1.56 2.97-3.16 4.42-4.78 5.99-6.68 12.29-12.88 18.87-18.97 8.29-7.72 16.24-15.78 24.2-23.83 8.89-8.97 8.89-8.97 13.02-12.48 6.21-5.3 11.83-11.27 17.57-17.07 13.28-13.43 13.28-13.43 19.47-18.69 4.72-4.21 9.09-8.81 13.53-13.31 5.77-5.85 11.52-11.67 17.78-17.02 2.49-2.15 4.84-4.45 7.22-6.73 6.27-5.85 13.17-10.55 20.31-15.28 2.25-1.51 4.45-3.06 6.66-4.63 10.81-7.65 21.94-14.25 33.69-20.35 2.79-1.46 5.54-2.97 8.3-4.48 25.82-13.88 56.82-24.2 85.91-28.26 1.06-.16 2.12-.32 3.21-.48 12.16-1.79 24.24-2.54 36.54-2.58zm-491.12 393.31c-1.3 1.04-1.3 1.04-2.63 2.1-6.33 5.07-12.31 10.44-18.23 15.98-2.78 2.61-5.64 5.11-8.52 7.61-8.56 7.7-15.03 16.1-15.79 27.93-.09 12.61 3.5 22.15 12.17 31.53 9.68 8.97 21.77 11.55 34.67 11.19 9.74-.99 16.14-6.08 23.33-12.34 1.2-1.03 2.4-2.06 3.61-3.09 6.41-5.51 12.73-11.1 18.98-16.79 2.63-2.32 5.35-4.5 8.09-6.68 9.85-8.06 16.14-16.61 17.55-29.63.33-10.57-3.83-20.47-10.23-28.81-19.21-18.91-44.01-14.86-63 1zm52.92 79.32c-2.5 2.19-5.03 4.36-7.56 6.52-1.76 1.5-3.52 3.01-5.27 4.52-1.82 1.56-3.64 3.09-5.5 4.6-7.02 5.77-13.95 13.85-15.59 23.04-1.04 12.19.14 23.27 8.1 33.09 7.74 7.81 16.65 13.23 27.77 13.66l2.14.1c19.17.72 31.63-10.1 45.19-22.55 1.64-1.52 3.27-3.05 4.9-4.58 2.33-2.18 4.67-4.32 7.08-6.41.61-.53 1.22-1.06 1.85-1.61 1.47-1.27 2.96-2.53 4.46-3.77 8.85-7.54 14.73-15.63 15.84-27.51.13-12.12-2.03-20.8-10-30.12-7.55-7.41-17.26-12.6-27.93-12.77-.75.01-1.5.02-2.28.04l-2.4.02c-17.01.51-28.69 13.06-40.8 23.73zm70.03 63.94c-2.63 2.48-5.38 4.75-8.21 6.99-4.84 3.92-9.47 8.03-14.06 12.25-.67.61-1.34 1.21-2.03 1.84-8.82 8.21-15.47 18.09-15.91 30.35.16 10.45 4.31 19.7 11.19 27.51 9.9 9.56 19.58 12.33 32.91 12.37 8.54-.23 14.86-2.87 21.72-7.94.59-.43 1.18-.87 1.79-1.31 10.34-7.66 19.83-16.43 29.21-25.21 2.87-2.7 5.81-5.25 8.87-7.73 4.35-3.77 6.97-8.3 9.57-13.38.34-.62.68-1.25 1.03-1.89 3.47-7.42 3.07-16.61 1.16-24.39-4.26-11.43-12.32-19.45-23.19-24.72-.69-.34-1.37-.68-2.08-1.02-20.07-8.29-37.79 2.86-51.97 16.28zm83.05 54.74c-.99.71-1.98 1.41-2.99 2.14-11.2 8.22-21.6 17.58-31.85 26.93-1.87 1.67-3.78 3.24-5.73 4.81-8.66 7.43-14.8 15.39-15.74 26.85-.5 11.2 1.1 19.96 8.62 28.58 1.54 1.59 3.1 3.15 4.69 4.69.56.6 1.13 1.2 1.71 1.82 7.04 6.88 16.34 8.57 25.85 8.68 21.43-.28 36.66-16.98 51.45-30.74 2.03-1.89 4.08-3.74 6.16-5.58 10.04-8.93 18.42-17.45 20.24-31.35.48-10.56-3.05-19.83-9.69-28.02-8.31-8.71-17.68-13.82-29.68-14.15-8.84-.1-15.71-.1-23.04 5.34z" fill="#2A0000"/>
  <path d="M578.176 647.98c5.18 1.38 7.74 4.09 11.45 7.83 1.42 1.39 2.84 2.77 4.26 4.16l2.12 2.08c2.23 2.18 4.53 4.29 6.84 6.38 6.03 5.45 11.86 11.11 17.65 16.82.77.74 1.54 1.49 2.33 2.26 9.11 9.05 9.11 9.05 11.17 14.49-.34 2.34-.84 3.76-2.12 5.75-2.24 1.49-4.09 2.04-6.8 1.92-4.33-1.39-7.33-5.01-10.49-8.15-1.91-1.83-3.89-3.57-5.87-5.33-6.9-6.19-13.54-12.65-20.14-19.16-1.48-1.45-2.96-2.89-4.45-4.32-2.18-2.1-4.33-4.22-6.48-6.34l-2.02-1.93c-3.19-3.2-4.52-4.65-5.14-9.24.51-3.2.51-3.2 2.08-5.7 2.43-1.5 2.43-1.5 5.61-1.52z" fill="#2A0000"/>
</svg>
