<svg version="1.0" xmlns="http://www.w3.org/2000/svg" preserveAspectRatio="xMidYMid meet" viewBox="0 0 1252 1199">
  <g fill="#000">
    <path d="M226 891.5c-3.6-.8-10.8-3.6-16-6.1-8-4-10.9-6.2-18.5-13.8-7.4-7.4-9.9-10.7-13.2-17.6-8.6-17.7-7.8 7.7-7.8-260.5s-.7-245 7.8-261.4c9.2-17.9 24.1-30.2 43.7-36.3l7.5-2.3h800l7.7 2.6c15.7 5.4 30.1 16.1 38.5 28.7 5.7 8.6 10.1 21.4 11.3 32.9.7 6.6 1 85.5.8 242.3-.4 261.8.4 236.4-8.1 254-3.4 7-5.7 10.1-13.2 17.5-9.4 9.5-16.6 14-29.5 18.7l-6.5 2.3-399 .2c-338.2.1-400-.1-405.5-1.2zm795.2-28.4c16.6-2.2 29.9-13.2 34.9-29 1.8-6.1 1.9-10.5 1.9-155.7V529H200v149.4c0 143.8.1 149.6 1.9 155.5 4.9 15.9 18.2 27.2 34 29.1 9.1 1 777 1.1 785.3.1zm36.8-400.6V426H200v73h858v-36.5zm0-84.3c0-20.4-1.1-27.3-5.5-34.9-6.4-10.8-18.6-18.7-31.3-20.4-8.3-1-771.6-1.1-782.8 0-15.6 1.5-27.8 9.9-34.6 23.9l-3.3 6.7-.3 21.8-.4 21.7H1058v-18.8z"/>
    <path d="M297.1 802.4c-21.9-7.4-35.1-25.8-35.1-49 0-25.8 18.5-46.8 44.8-50.6 16.6-2.4 34.4 4.7 45.7 18.1 10.6 12.9 14.5 32.2 9.5 48.2-8.3 27-38.3 42.4-64.9 33.3zm26-29.4c7.3-3.8 11.9-11.5 11.9-20.1 0-5.6-4.8-13.9-10-17.4-4-2.7-5.3-3-12-3-6.4 0-8.1.4-11.7 2.7-11.9 7.7-13.5 23.7-3.3 33.9 7 7 16.2 8.4 25.1 3.9zm92.9-4.9c-9.9-5.2-9.5-21.5.6-25.7 5-2.1 423.8-2.1 428.8 0 10.8 4.5 10.8 21.7 0 26.2-2.8 1.2-36.7 1.4-214.6 1.4-204.2 0-211.4-.1-214.8-1.9z"/>
  </g>
</svg>
