<svg version="1.0" xmlns="http://www.w3.org/2000/svg" preserveAspectRatio="xMidYMid meet" viewBox="0 0 1124 1091">
  <g fill="#333">
    <path d="M149.9 1051.9c-1.2-2.4-.7-3.1 3.6-5.3 2.9-1.5 2.5-1.6-8.7-1.6-11.7 0-11.7 0-13.3-3-2-3.9-2-3.9 1.8-5.5 2.4-1.1 2.7-1.4 1.2-1.5-2.7 0-4.5-1.9-4.5-4.6 0-2.6 1-3 10.5-3.9 3.9-.3 8.5-.9 10.3-1.2 3-.5 3.1-.7 1.5-1.9-1.4-1-1.6-1.7-.7-3.1 1.1-1.8 1.9-1.9 21.9-3.7 9.3-.9 19-2.4 21.8-3.5 1.6-.6 5.1-1.1 7.8-1.1 3.5 0 4.9-.4 4.9-1.4 0-3 3.5-3.4 13.5-1.5 7.5 1.3 15.4.5 20.8-2.2 5.2-2.7 38.7-36.4 38.7-38.9 0-.5-2.4-.2-5.2.6-2.9.7-7.1 1.4-9.2 1.4-4.2 0-15.7 2.5-19.1 4.1-4 1.9-13.1 4.1-19.2 4.6s-6.2.5-6.9-2.3c-.5-1.8-.3-2.9.4-3.2.7-.2 1.2-.7 1.2-1.1 0-.8-1.8-.5-14.5 2.3-3.8.9-10 1.6-13.8 1.6-6.2 0-7-.3-10.3-3.2-2.9-2.7-3.5-4.1-3.7-7.7-.2-4.5-.2-4.5 4.2-5.4 3-.6 4.5-1.5 4.8-2.8.5-1.7 1.5-1.9 12.9-1.9 10.9 0 12.3-.2 11.7-1.6-.9-2.5 1.6-3.4 10.2-3.4 13.1-.2 39.2-3.7 43.2-5.8 1.2-.7 3.1-1.2 4.2-1.2 1 0 2.1-.3 2.3-.7.2-.5 2.2-2.1 4.6-3.7 2.3-1.6 4.2-3.3 4.2-3.7 0-.5.4-.9 1-.9.5 0 2.2-1.2 3.8-2.7 1.6-1.6 9.5-9.1 17.7-16.8 8.2-7.7 20.1-19.4 26.4-26 23.5-24.3 35-35.5 36.7-35.5.3 0 2.3-1.3 4.4-3 2.1-1.6 4.3-3 4.9-3 .6 0 1.1-.4 1.1-.9s.8-1.2 1.8-1.5c.9-.3 3.3-2.1 5.3-3.8 3.5-3.2 3.7-3.6 4.3-11.8.9-11.2 3.2-18.2 9.5-29.9 3.3-6.1 25.4-24.1 29.6-24.1 1.4 0 9.5-8.8 9.5-10.4 0-.4 1.4-2.5 3-4.6 1.7-2.1 3-4.1 3-4.5 0-.4 1.4-2.4 3-4.5 1.7-2.1 3-4.3 3-4.9 0-.6.4-1.1.9-1.1.8 0 8.1-13.8 8.1-15.4 0-1 8.3-11.8 10.4-13.5.9-.7 1.6-2.3 1.6-3.5 0-1.2.6-3 1.3-4.1.8-1.1 1.7-3.6 2.1-5.5.7-4 15.8-35.1 22.1-45.5 2.3-3.8 4.5-8 4.9-9.2.4-1.3 1.2-2.3 1.7-2.3s.9-.7.9-1.6c0-.9.6-2.8 1.4-4.2.7-1.5 2.2-4.5 3.1-6.7 1-2.2 2.2-4.7 2.7-5.5.4-.8 1.1-2.2 1.4-3 .3-.8 1.9-4.4 3.6-8 3.3-7.3 5.5-12.1 7.3-16.5.7-1.6 2.2-5.1 3.4-7.6 1.2-2.5 2.1-5.1 2.1-5.8 0-.6.5-1.1 1-1.1.6 0 1-.9 1-2 0-1 .6-3.4 1.4-5.2 2.3-5.6 3.8-10.1 4.7-14.8.5-2.4 1.4-4.9 1.9-5.4.6-.6 1-2.2 1-3.7s.5-4 1.1-5.6c.7-1.5 1.5-4.8 1.9-7.3.9-5.5 2.7-12.9 4.6-19.1.8-2.6 1.4-5.9 1.4-7.3 0-1.5.5-3.6 1.1-4.7.6-1.1 1.4-4.1 1.9-6.7 1.6-9.3 9.8-28.3 15.2-35.3 1.5-2 2.8-3.9 2.8-4.2 0-1.6 12.5-14.6 19.9-20.7 2.9-2.5 5.9-5 6.5-5.5.6-.6 2.9-2.4 5.1-4 2.2-1.7 4.2-3.2 4.5-3.6.3-.3 4.3-3.4 9-6.9 4.7-3.5 8.7-6.6 9-6.9.3-.4 2.3-1.9 4.5-3.6 2.2-1.6 4.2-3.2 4.5-3.5.3-.3 3-2.5 6-4.9 5.2-4.1 21.4-19 34-31.4 5.4-5.3 12.9-11.7 22.5-19.2 5.1-4 11.4-9.2 14.5-11.8 1.4-1.2 5.2-4.4 8.5-7.2 10.9-9.1 11.9-9.9 21.7-19.6 5.4-5.3 9.8-10 9.8-10.4 0-.4 1.3-2.4 2.8-4.4 1.5-2 4.5-7.2 6.7-11.6 2.1-4.4 4.2-8.2 4.5-8.5.4-.3 1-1.7 1.4-3.3.3-1.5 1.1-2.7 1.6-2.7.6 0 1-.7 1-1.5s1.4-4.3 3.1-7.7c1.7-3.5 3.8-7.9 4.6-9.8.8-1.9 1.9-4.2 2.4-5 .5-.8 1.2-2.2 1.5-3 .6-1.5 6.5-13.3 9.3-18.8.8-1.5 1.8-2.9 2.3-3 .4-.2.8-.8.8-1.3 0-1.3 7.2-10.9 8.2-10.9.4 0 .8-.5.8-1 0-1.2 9.8-13.3 11.1-13.8.5-.2.9-1 .9-1.7s.4-1.5.9-1.7c.4-.2 2.7-2.5 5.1-5.3 6.7-8 14.3-16.5 17.1-19.4 1.4-1.4 5.8-6.4 9.8-11.1 4-4.7 7.7-8.6 8.2-8.8.5-.2.9-1 .9-1.8s.4-1.4.9-1.4 2-1.7 3.2-3.7c1.3-2.1 2.9-4.2 3.6-4.6.7-.4 1.3-1.5 1.3-2.2 0-.8.4-1.5.9-1.5.4 0 2.1-1.9 3.7-4.3 1.6-2.3 3.2-4.4 3.7-4.5.4-.2.7-.9.7-1.6 0-.7 1.2-3.1 2.8-5.2 1.5-2.1 4.2-6.9 6-10.6 3.1-6.5 3.2-7.3 3.2-18.7 0-11.9 0-11.9 4.7-16 2.5-2.3 5.8-4.4 7.2-4.8 1.4-.3 3.2-1 3.9-1.6.7-.5 3.2-1.3 5.7-1.8 4.4-.8 13.4-5.9 17.1-9.6 2.9-2.9 12.6-10.6 15.3-12.1 5.2-3 12.2-4.4 24.8-4.9 11.2-.5 13.7-.3 15.8 1.1 1.4.9 4.5 1.6 7.6 1.6 3.5 0 6.3.7 8.6 2.1 3 1.9 3.4 2.6 3.1 5.8-.3 3.4-.5 3.6-4.3 3.9-2.2.2-4.9 1.2-6 2.2-3.2 2.9-9.3 6-11.9 6-2.1 0-7.4 3.6-15.4 10.4-3.4 3-22.2 21.6-22.2 22.1 0 .2-1.6 2.1-3.6 4.2-1.9 2.1-4.9 5.7-6.6 8.1-1.7 2.3-3.5 4.2-4 4.2-.4 0-.8.6-.8 1.4 0 .8-.4 1.6-.9 1.8-1 .4-17.1 21.4-17.1 22.4 0 .3-1.4 2.3-3 4.4-1.6 2.1-3 4.1-3 4.5 0 .4-1.3 2.4-2.8 4.4-1.5 2-3.7 5.4-4.7 7.5-1.1 2.2-3.5 6.3-5.3 9-1.8 2.8-5.3 9.2-7.8 14.1-2.5 5-5.4 10.4-6.4 12-3.3 5.2-4.4 7.2-6.9 12.2-1.4 2.6-4.4 7.8-6.8 11.5-2.4 3.7-4.3 7-4.3 7.3 0 .3-1.2 2.4-2.7 4.8-2.8 4.5-11.7 22.1-17.8 35.2-2 4.4-5 10.7-6.6 14-1.6 3.3-2.9 6.5-2.9 7.2 0 .6-.6 2.4-1.4 4-4 7.7-7.6 16-7.6 17.2 0 .7-.6 2.5-1.4 3.9-.8 1.5-6.1 12.4-11.8 24.2-5.8 11.8-11.5 23.5-12.7 26-4.2 8.7-7.4 13.6-14.6 22.5-3.9 5-12.7 16.4-19.5 25.5-6.7 9.1-12.9 17-13.6 17.6-.8.6-1.4 1.4-1.4 1.8 0 .4-5.4 7.8-12 16.6s-12 16.2-12 16.5c0 .4-1.2 2.2-2.6 4.1-1.5 1.9-4.3 6.9-6.4 11.1-4.1 8.3-4.1 8.4.4 14.8 2.4 3.3 4.2 6.3 5.2 8.5.4.8 1 1.7 1.3 2 .4.3 1.9 3 3.4 6 1.6 3 3.7 6.9 4.7 8.5 1 1.7 7.6 14.5 14.6 28.5s13.4 26.1 14.1 26.8c.7.7 1.3 2 1.3 2.8 0 .9.7 2.2 1.5 3 .8.9 1.5 2.4 1.5 3.5 0 1 .4 1.9.9 1.9s1.2 1.3 1.6 3c.4 1.6 1.1 3 1.6 3s.9.5.9 1.2c0 .6 6.2 13.8 13.9 29.2 7.6 15.5 15.5 32.2 17.5 37.1 2 5 4.1 9.8 4.6 10.7.6 1 1 2.3 1 2.8 0 .6 1.4 3.8 3 7.2 1.7 3.3 3 6.4 3 6.9 0 .6 3.4 8.1 7.6 16.7 4.2 8.6 9 18.6 10.6 22.2 1.6 3.6 3.6 7.8 4.4 9.3.8 1.6 1.4 3.3 1.4 3.7 0 .5 1.3 2.9 3 5.3 1.6 2.5 3 5 3 5.6 0 .6.4 1.1.9 1.1s1.4 1.4 2.1 3c.7 1.7 1.6 3 2.1 3s.9.7.9 1.5.3 1.5.8 1.5c.4 0 2 2 3.5 4.5 1.6 2.5 3.3 4.5 3.8 4.5s.9.7.9 1.5.4 1.5.8 1.5c.5 0 1.4 1 2.1 2.3.6 1.2 1.9 3.4 2.9 4.9 4.5 6.9 9.2 15 9.2 15.8 0 .5.3 1 .7 1.2 1.5.6 19.8 36.7 20.8 41.1.4 1.5 1.1 3 1.6 3.3.5.3.9 1.2.9 2.1 0 1.4.7 3.3 4.1 10.8 1.3 3 3.1 10.2 4.9 20.2.6 2.9 1.5 6.4 2 7.8.6 1.5 1 4.1 1 5.9 0 1.9.7 5.3 1.5 7.6s1.5 5.6 1.5 7.3c0 1.7.6 5.3 1.4 8.1 2.3 8.4 3.7 13.9 4.3 17.1.2 1.7 1.1 4.4 1.9 6.2.8 1.7 1.4 3.8 1.4 4.6 0 2.2 6.6 18.1 9.3 22.4 1.3 2.1 2.7 4.5 3.1 5.3 1.1 2.3 3.1 5.7 4.3 7.1 2.3 3 7.3 12.9 7.3 14.6 0 1.1.6 2.5 1.3 3.1.7.8 1.2 4.3 1.2 9.5 0 7.3-.3 8.5-2.5 11-1.4 1.6-4.3 3.8-6.5 4.9-3.6 1.9-5.2 2-17 1.5-7.2-.3-23.4-.2-36.1.3-25.1.8-52.6-.1-58.9-1.9-2.2-.7-5.6-1.6-7.5-2-1.9-.4-4.4-1.3-5.5-1.9-1.1-.6-3.7-1.8-5.7-2.6-2.1-.8-3.8-2-3.8-2.5 0-.6-.8-1.1-1.8-1.1-2.4 0-5.2-3.1-5.2-5.6 0-3.8 2.3-5.5 8.7-6.4 7.4-1 12-2.4 18.8-5.7 6.4-3.2 14.1-5.7 23.5-7.8 10.3-2.3 16.6-4.3 29.1-9.1 6.2-2.4 7.3-5.2 5.4-14.1-.8-3.6-1.9-7.1-2.4-7.6-.6-.6-1.1-1.9-1.1-2.8 0-1-1.3-4.7-3-8.2-1.6-3.6-3-7.2-3-8 0-.8-.7-2-1.5-2.7-.8-.7-1.5-1.7-1.5-2.3 0-.6-2.2-5.6-4.9-11.1-16.5-33.9-23-46.9-27-53.6-5.6-9.6-14.5-26.8-17.8-34.5-2.9-7-10.3-22-14-28.5-1.4-2.5-3.6-6.5-4.8-9-3.3-6.3-9.4-14.3-17.6-22.8-3.8-3.9-6.9-7.5-6.9-7.8 0-.3-1.3-1.7-2.8-3.2-1.6-1.5-4.4-4.7-6.3-7.2-1.9-2.4-4.1-5.2-4.9-6.1-1.5-1.6-2.4-2.6-10-11.9-2.4-3-5.5-6.5-6.7-7.7-1.3-1.2-2.3-2.5-2.3-2.8 0-.8-13.1-15.9-14.2-16.3-.4-.2-.8-1-.8-1.8s-.4-1.4-.8-1.4c-.5 0-2.2-1.9-3.9-4.2-1.7-2.4-4-5.2-5-6.3-1-1.1-4.8-5.8-8.3-10.5-3.5-4.7-6.9-8.9-7.6-9.5-.6-.5-3.7-4.1-6.8-8-3.2-3.8-6.5-7.9-7.5-9-.9-1.1-3.5-4.2-5.6-7-2.2-2.7-4.3-5.1-4.8-5.3-.4-.2-.7-.8-.7-1.3 0-.6-1.1-2-2.4-3.2-2.9-2.8-12.6-14.4-12.6-15.2 0-.3-.9-1.5-2-2.7-1-1.1-2.6-3.6-3.5-5.4-2.8-5.9-3.9-5.4-7.4 3.6-1.2 3-2.9 6.8-3.7 8.3-.8 1.6-1.4 3.6-1.4 4.5 0 .9-.6 3.4-1.4 5.7-.7 2.2-2 6.5-2.9 9.5-.8 3-2.2 8-3 11-.9 3-1.9 7.3-2.2 9.5-.4 2.2-1 4.5-1.5 5-.4.6-1 3.3-1.4 6-.4 2.8-1.1 8.2-1.6 12-.5 3.9-.9 11.9-1 17.9 0 13.1-3.1 27.9-7.1 34.6-.5.8-1.3 2.4-1.8 3.6-1.8 4.1-12.7 13.9-20 17.9-2 1.1-3.8 2.3-4.1 2.6-1 1.1-33.3 16.9-34.6 16.9-.8 0-1.4.4-1.4.9s-1.2 1.3-2.7 1.9c-4.3 1.5-12 8.8-12.6 11.9-.5 2.6-2.9 10.4-4.7 14.8-.9 2.3-2.7 9.3-4 15-.9 3.9-.3 11.5.9 12.5 1.5 1.2 5 7 7.4 12.2 4.5 9.5 3.2 14.9-4.8 19.8-2.1 1.3-3.8 3.4-4.5 5.6-1.1 3.3-5.4 6.4-6.8 4.9-.3-.3-1.1.8-1.8 2.4-1 2.3-2.1 3.1-5.1 3.7-5.1.9-6.3 2-6.3 6 0 4.1-2.5 6.9-6 6.6-.3 0-5.1-.5-10.6-1.2-9.8-1-17.8-.4-19.3 1.7-1.6 2.1-8.6 4.3-14.1 4.3-6.8 0-7.2.6-5.3 6.9 1.8 6.1 1.7 21.8-.2 25.5-.8 1.5-1.5 3.5-1.5 4.3 0 .8-1.3 3.2-3 5.3-1.7 2.1-3 4.2-3 4.7s-1.3 2.2-3 3.8c-2.8 2.7-3 2.7-3 .8 0-1.2.5-3.4 1.1-4.9.5-1.6.8-3.8.4-5.1-.5-2.2-.6-2.2-2.3-.4-2.8 2.9-5.7 8.1-9.2 16.6-1.3 3-1.3 3-2.7-2-1.2-4.2-1.2-7.2-.2-18 .6-7.1 1.8-15 2.5-17.5.8-2.5 1.4-5.9 1.4-7.6 0-1.7.7-5.1 1.5-7.4 2-5.7 1.9-7.7-.5-8.3-1.6-.4-7 3.1-7 4.6 0 2.4-35.6 37.7-38.1 37.7-.5 0-.9.4-.9 1 0 .5-1.2 1.6-2.7 2.4-1.6.8-4.4 2.9-6.3 4.6-1.9 1.7-5.3 4.3-7.5 5.8s-4.1 3-4.3 3.5c-.2.4-.8.7-1.3.7s-1.7.6-2.6 1.4c-1 .8-12.8 9.6-26.3 19.6-13.5 10-25.3 18.8-26.3 19.6-.9.8-2.1 1.4-2.6 1.4s-1.1.3-1.3.8c-.4.9-4.9 4-22 15.4-7.6 5-13.8 9.5-13.8 10 0 .4-.5.8-1 .8-.6 0-3.8 2.7-7.3 6-8.1 7.8-14.4 10.8-25.5 12.1-4.8.5-9.8 1.1-11.2 1.4-1.4.2-9.5.6-18 1-14.9.6-24.7 2-35.6 5.1-2.8.7-8.1 1.4-11.7 1.4-5.7 0-6.8-.3-7.8-2.1zm20.1-1.9c7-2.6 23.6-5 34.2-5 13.4-.1 37.8-3.1 42.9-5.3 2.9-1.3 15.9-12 17.9-14.7.3-.4 9.5-6.8 20.5-14.2 16-10.7 53.1-37.6 62.8-45.4.9-.8 2.1-1.4 2.6-1.4s1.1-.4 1.3-.9c.4-1.2 9.6-8.1 10.7-8.1.5 0 1.1-.4 1.3-.9.3-.9 9.5-8.1 10.3-8.1.3 0 1.3-.7 2.3-1.6.9-.8 4.4-3.6 7.7-6.2 10.7-8.3 36.9-35.4 44.4-45.8 1.3-1.9 2.8-3.4 3.3-3.4.4 0 .8-.5.8-1.1 0-.7.6-1.7 1.4-2.3 2.3-1.9 19.4-25.2 21.7-29.5 1.2-2.3 2.5-4.4 3-4.7.5-.3.9-1.4.9-2.5 0-1 .5-1.9 1-1.9.6 0 1.5-1 2-2.2.6-1.3 1.9-3.6 3-5.3 1.1-1.6 2.3-3.7 2.7-4.5.4-.8 2.5-4.2 4.8-7.5 2.3-3.4 4.5-6.7 4.9-7.5 1.9-3.9 3.8-6.7 8.2-12.1 2.7-3.2 5.2-5.9 5.7-5.9.4 0 .7-.4.7-1 0-1.3 3.7-5 5-5 .6 0 1-.4 1-1 0-1.2 7.3-5 9.7-5 1 0 2.7-.7 3.7-1.5 1.1-.8 2.8-1.5 3.8-1.5.9 0 3.4-.7 5.5-1.6 9.4-4 10.9-4.7 12.3-5.5.8-.5 2.6-1.4 4-2 1.3-.5 2.7-1.3 3-1.7.3-.4 2.3-1.6 4.5-2.7s4.2-2.2 4.5-2.5c1.1-1.1 7-5 7.5-5 2.1 0 9.6-7.7 10.6-10.8.6-2 1.6-4.2 2.1-4.9.5-.6.9-7.1.9-14.5 0-13.6-.8-17.6-5.6-27.8-5.3-11.5-14.9-20.6-28.1-26.9-3.8-1.8-7.7-3.7-8.6-4.2-1-.5-3.3-.9-5.1-.9-2.9 0-4.6 1.4-14.2 11.4-12.7 13.1-14.5 15.1-18.1 20.6-1.5 2.2-3.1 4-3.5 4-.5 0-.9.6-.9 1.4 0 .8-.3 1.6-.7 1.8-1 .4-5.3 6.5-5.3 7.4 0 .3-1.3 2.3-3 4.4-1.7 2.1-3 4-3 4.3 0 .3-1.6 2.9-3.5 5.8-3.8 5.8-4.9 10.4-1.2 5.2 1.2-1.8 2.8-3.3 3.6-3.3 1.1 0 1.1.4-.2 1.8-1 1-1.7 2.2-1.7 2.6 0 .5-1.3 2.5-3 4.6-1.6 2.1-3 4.1-3 4.5 0 .4-1.3 2.4-3 4.5-1.6 2.1-3 4.2-3 4.8 0 .5-.6 1.2-1.2 1.5-.7.3-2.2 2.2-3.3 4.3-1.1 2.2-2.2 4.1-2.5 4.4-1.3 1.2-7.4 11.4-10.5 17.5-.9 1.7-2.4 4.4-3.5 6-1.1 1.7-2.4 3.9-2.9 5-1.1 2.6-23.5 35.9-27.2 40.6-1.6 2-2.9 4.1-2.9 4.7 0 .6-.4 1.2-.9 1.4-.5.2-4.6 5.2-9.1 11.1-7.5 10-18.2 21.2-25.5 26.8-1.6 1.3-3.6 2.9-4.2 3.5-.7.7-4.4 3.3-8.3 5.9-3.8 2.5-11.6 9.2-17.3 14.8-10.3 10.2-24.7 25.5-24.7 26.3 0 .5-5.7 6.4-34.6 36.4-6.1 6.3-13.5 14.1-16.5 17.3-3 3.3-6.5 6.9-7.7 8-1.3 1.2-4.2 3.9-6.4 5.9-8 7.4-17.2 9.7-45.7 11.3-6.8.4-13.8 1.3-15.5 2-2.9 1.2-12.7 2.2-27.5 3-7.2.4-10 2-5.6 3.1 2.6.6 13.2.1 25-1.2 4.3-.4 4.7-.3 3 .8-2.3 1.4-8.5 2.5-23 3.9-24.5 2.4-30.2 3.6-27.8 6 1.2 1.2 24.5.7 30.8-.6 4.9-1 19.5-2.1 19.5-1.4 0 1.1-4.1 2.1-12.5 2.9-4.4.4-9.1 1-10.4 1.3-1.3.4-5.8.9-10 1.3s-9.8 1.2-12.6 1.9c-4 1-4.9 1.6-4.7 3.1.6 2.8 2.2 3.5 6.7 3 2.2-.3 9.4-.9 16-1.2 6.6-.4 12.2-1 12.5-1.4.7-1.1 12.3-3.9 13.4-3.2 1 .5-11.3 5.6-17.4 7.1-13.4 3.4-16.1 7.7-4.1 6.6 3.6-.4 7.7-1 9.1-1.5zm718.5-38c19-.8 19-.8-6.3-.5-19.6.2-25 0-24.2-1 1.2-1.5 37.2-2.5 53.5-1.6 9.2.6 10.4.8 7 1.5-6.6 1.3-6.4 1.4 1.8 1.5 13 .2 16.7-3.2 16.7-14.9 0-3.9-.4-7.8-.9-8.8-.6-.9-2.7-5.3-4.8-9.7-2-4.4-4.9-9.8-6.3-12-4-6.4-4.8-7.7-7-12.5-1.2-2.5-2.8-5.8-3.5-7.3-.8-1.6-1.5-3.5-1.5-4.2 0-.7-.6-2.6-1.4-4.2-1.8-3.7-6.2-19.4-7.4-26.8-.4-2.2-1.1-4-1.7-4-.5.1-3.6 1.3-6.9 2.8-3.2 1.5-6.8 2.7-8 2.7-1.2 0-3.6.4-5.3.9-1.9.5-6.9.6-12 .1-4.8-.4-9-.6-9.2-.5-.3.4.7 2.7 6.8 15.5 1.7 3.6 3.1 7 3.1 7.5 0 .6 1.4 4.4 3.1 8.5 2.3 5.5 3.1 9.3 3.2 14.2.2 6.1 0 6.9-2.3 8.5-2.6 1.8-7.2 3.8-12.5 5.3-1.6.4-4.3 1.3-6 1.8-8.5 2.8-13.4 4.2-14.8 4.2-2.9 0-14.9 4-24.2 8.1-4 1.7-5.5 2.2-17 5.5-7.1 2-10.5 3.5-10.5 4.5 0 1.9 3.4 4 5.4 3.4 1.2-.3 3.9-.8 6.1-1 3.9-.5 4-.5.8.5-3.7 1.2-4.5 2.2-3.7 4.4.8 2 6 2.1 6.7.2.6-1.5 5.7-2.8 5.7-1.5 0 .5-.6.9-1.4.9-2.2 0-3.8 2.4-2.4 3.8 2.1 2.1 6 1.3 9-1.8 1.5-1.6 3-3 3.3-3 1.2 0 .3 2.9-1.4 4.4-1.1 1-1.7 2.4-1.4 3.2 1 2.6 3.8 1.4 6.8-3.1 2.2-3.3 3.7-4.5 5.5-4.5 2.3 0 2.2.3-2 4.5-2.8 2.8-3.9 4.6-3 4.6 3.5.4 9.6-.4 10.5-1.2 1.4-1.3 2.5-1.1 2.5.5 0 2.6 2.3 2.6 51.5.6zm-650-37.6c2.8-.9 6.1-2.1 7.4-2.6 3.2-1.2 17-3.8 25.1-4.7 10.2-1.2 18-4.4 18-7.6 0-.5 3-3.7 6.6-7 8-7.3 14-13.2 17.8-17.6 14.8-17.4 27.6-30.6 36.1-37.4 2.8-2.2 5.2-4.3 5.3-4.7.2-.5 1-.8 1.7-.8s1.5-.3 1.7-.7c.2-.5 2.3-2.1 4.8-3.8 5.2-3.5 28-25.7 28-27.3 0-.5.6-1.2 1.3-1.5 1-.3 1-1.1 0-3.9-.7-1.9-1.3-5.8-1.3-8.6 0-4-.4-5.2-1.5-5.2-.8 0-1.5.4-1.5.9 0 .4-1.9 2.1-4.2 3.7-2.4 1.6-4.4 3.2-4.6 3.7-.2.4-1 .7-1.7.7s-1.5.3-1.7.8c-.3.8-6.4 5.2-7.2 5.2-.9 0-10 8.4-14.6 13.3-2.5 2.7-8 8.5-12.2 12.9-4.3 4.4-7.8 8.1-7.8 8.4 0 .5-7 7.4-7.5 7.4-.2 0-3.2 2.8-6.7 6.3-3.5 3.4-11.5 10.9-17.8 16.7-6.2 5.8-12.6 11.7-14.2 13.3-1.6 1.5-3.3 2.7-3.8 2.7-.6 0-1 .4-1 .9 0 1.2-9.5 7.3-14 9-3.8 1.5-8.4 2.3-23.7 4.5-5.5.7-10.6 1.7-11.2 2-.6.4-5.2 1.2-10.3 1.7-5.1.6-10.8 1.7-12.6 2.6-1.7.8-4.5 1.6-6.1 1.7-1.6.1-3.3.5-3.7.9-.4.4-4.9.7-10.1.7-9.3 0-9.3 0-8.9 2.6.3 1.5.7 2.8.9 3.1.4.4 6.7-.4 22.7-2.7 3-.5 7.5-.8 10-.8 4.5 0 4.5 0-.3.8-2.7.5-6.2 1.3-7.8 1.9-1.7.6-7.7 1.3-13.5 1.7-5.7.4-10.4.8-10.4 1 0 .2.8 1.3 1.7 2.4 1.5 1.8 3 2 11.8 2 5.5 0 11.6-.5 13.5-1 1.9-.6 6.1-1.4 9.2-1.9 5.2-.9 28.8-11.4 29.6-13.2.2-.5 1-.5 1.8-.2 1.1.4.8 1-1.2 2.5-3.2 2.6-13.3 7.8-15 7.8-1.7 0-8.4 4-8.4 5 0 .4-.9 1-2 1.3-1.1.3-2 1.2-2 2.1 0 1.2 1 1.4 5.3 1 2.8-.2 7.5-1.2 10.2-2zm195-35.1c.4-2.4 1.1-4.5 1.6-4.9.5-.3.9-2.4.9-4.7 0-5.1.9-8.7 2.1-8.7 1.4 0 1 8.3-.6 12.9-1 3-1.1 4-.2 3.5 3.8-2.3 7.7-12.9 7.7-21.3 0-4 .3-5.2 1.1-4.4.7.7.9 3.7.6 7.9-.6 8.4-1.5 12.4-3.4 14.6-1.1 1.2-1.3 2.8-.9 5.3.8 4 1 4.1 3.4 1.7 2.9-2.9 4.5-10.1 4.9-21.8.4-11.9-1-18.4-4.1-18.4-.9 0-1.6.1-1.7.3 0 .1-.6 3.6-1.3 7.7-1.3 7.5-1.3 7.5-1.5-.2-.1-6.2-.4-7.8-1.6-7.8-1 0-1.5 1-1.5 2.9 0 1.6-.7 4.4-1.5 6.2-1.6 3.4-1.6 3.4-1.2-3.3.1-3.8 0-6.8-.3-6.8-.9 0-3 8.6-3 12.3 0 1.8-.5 4.8-1.1 6.7-1.3 4.3-3.8 28-3.1 29.8.7 1.8 3.8-4.6 4.7-9.5zm452-28.4c2.8-.6 7.5-2.3 10.5-3.7 5.5-2.7 5.5-2.7 5.2-7.2-.3-4.3-1.5-10.5-4.8-24.7-.8-3.4-1.4-7.4-1.4-8.9 0-6-7.1-26.6-14.3-41.4-1.2-2.5-2.4-4.7-2.7-5-.3-.3-2.7-5-5.5-10.5-2.7-5.5-5.2-10.2-5.5-10.5-1.1-1-4.5-6.6-6.8-11-3-5.9-3.9-7.4-8.9-14.2-2.4-3.1-4.3-6.1-4.3-6.7 0-.6-.4-1.1-.9-1.1-.4 0-2.1-2-3.7-4.5-1.5-2.5-3.2-4.5-3.6-4.5-.4 0-.8-.6-.8-1.4 0-.8-.3-1.6-.7-1.8-1.2-.5-4.7-5.8-7.2-10.8-1.2-2.5-2.6-5.2-3.1-6-1.8-3.2-10-20.8-10-21.5 0-.5-2.7-6.3-5.9-12.9-7.5-15.3-12.1-25.4-12.1-26.4s-4.6-12.1-5.4-12.9c-.3-.3-.6-1.3-.6-2 0-1.6-4.2-10.7-21-44.8-6.4-13.2-12.7-26-13.9-28.5-1.2-2.5-2.6-5.2-3.1-6-.5-.8-1.1-2.2-1.4-3-.4-.8-2.2-4.2-4-7.5-1.9-3.3-8.7-16.5-15.2-29.3-6.6-12.8-12.3-24.1-12.9-25-.5-.9-2.8-4.9-5-8.7-2.2-3.9-4.5-7.9-5.2-9-.7-1.1-1.7-3-2.2-4.2-.6-1.3-1.5-2.3-2.1-2.3-.5 0-1-.7-1-1.5s-.4-1.5-.9-1.5-1.2-.8-1.5-1.8c-1.3-4-22.6-22.2-26-22.2-.7 0-1.7-.5-2.3-1.1-2-2-11.7-4.8-16.7-4.9-4.2 0-4.7-.2-3.6-1.5 1.6-1.9 7.2-1.9 12.5 0 2.2.8 4.7 1.5 5.6 1.5.9 0 2.2.7 2.9 1.5.7.8 1.8 1.5 2.6 1.5 1.5 0 9.5 5.2 11.4 7.5.7.8 1.6 1.5 2.1 1.5s2.9 2 5.2 4.5c2.4 2.5 4.8 4.5 5.4 4.5.5 0 2.3-2.6 3.8-5.7 1.6-3.2 4.1-7.4 5.7-9.4 1.5-2 2.8-4.2 2.8-4.8 0-.5 1.4-2.6 3-4.4 1.7-1.9 3-3.8 3-4.2 0-.9 7.1-9.9 8.2-10.3.5-.2.8-1 .8-1.8s.4-1.4.8-1.4c.8 0 8.2-9.5 8.2-10.6 0-.3 1.2-2.1 2.8-3.9 4.9-5.8 6.2-7.5 6.2-8.2 0-.3.6-1.1 1.4-1.7 2.1-1.7 16.6-21.4 16.6-22.6 0-.5.3-1 .8-1 .4 0 1.8-1.7 3.2-3.7 1.4-2 3-4.1 3.5-4.7 5-5 11.6-15.5 17.5-27.6 5.4-11 7.1-14.3 11-21.7 2.4-4.3 4.7-8.2 5.1-8.8.5-.5.9-1.5.9-2.2 0-.7 1.4-4.2 3-7.6 1.7-3.5 3-6.9 3-7.5 0-.6.7-2.5 1.6-4.4 3.8-7.5 4.4-9 4.4-10.3 0-.7.6-2.6 1.4-4.2.8-1.5 2.9-5.9 4.6-9.8 4.8-10.6 19.5-40 24.5-49 2.4-4.4 4.9-8.9 5.5-10 .6-1.1 1.9-3.3 2.9-5 1.1-1.6 3-5 4.2-7.5 2-4 7.7-13.4 10.1-16.6.5-.7.3-1.8-.7-2.7-.8-.9-1.5-1.9-1.5-2.4s-3-4.1-6.7-7.9c-6.4-6.6-13.8-11.4-17.7-11.4-2 0-2.3.3-18 18.5-3.8 4.4-7.2 8.2-7.5 8.5-.4.3-2.9 3.4-5.6 7-2.7 3.6-5.4 7-6.1 7.5-.6.6-3.5 4.2-6.4 8-2.9 3.9-5.6 7.2-6 7.5-.3.3-1 1.2-1.3 2-.4.8-1.6 2.9-2.7 4.5-2 3.2-6.9 13-13.2 26.5-2.2 4.7-5.7 12.2-7.9 16.7-2.1 4.4-3.9 8.6-3.9 9.2 0 .6-.4 1.1-1 1.1-.5 0-1 .9-1 1.9 0 1.1-.4 2.2-.9 2.5-.5.4-1.9 2.7-3.2 5.4-1.2 2.6-3.5 6.3-5.1 8.3-1.5 2-2.8 4-2.8 4.3 0 1.6-10.5 12.5-20.9 21.6-4 3.6-8.1 7.2-9 8.1-2.5 2.4-17 14-22.3 17.8-2.7 1.9-4.8 3.8-4.8 4.3 0 .4-.5.8-1 .8-1.5 0-13.4 10.7-31.2 28-11.6 11.3-15.8 15.2-25.3 23.4-4.4 3.8-8.2 7.2-8.5 7.6-.3.4-5.4 4.3-11.5 8.8-6 4.4-12.3 9.2-13.8 10.6-1.5 1.5-3.2 2.6-3.7 2.6-.6 0-1 .4-1 .8 0 .5-1.9 2.2-4.3 3.9-7.3 5.3-24 22.8-26.1 27.3-.3.8-1.5 2.9-2.6 4.5-1.1 1.7-2.3 3.7-2.6 4.5-.3.8-1.2 2.9-1.9 4.5-2.2 5-4.2 10.7-5.9 16.8-4 14.2-4.5 16.4-5 19.2-.5 3.1-1.8 8.4-4.2 17.1-.8 2.8-1.4 6.2-1.4 7.5-.1 1.3-.7 3.5-1.5 4.9-2.2 3.9-1.8 6.4 1.4 8.3 1.6 1 4.2 3.1 5.8 4.9 8.2 9.2 19 19.8 20.1 19.8.6 0 1.2.4 1.2.8 0 .8 9.5 8.2 10.6 8.2.3 0 2.3 1.3 4.3 2.8 3.9 3.1 21.9 12.2 24 12.2.7 0 2.5.6 3.9 1.4 2.6 1.3 9.9 3.4 15.3 4.3 2.2.4 2.9 0 4-2.6.8-1.7 1.7-3.1 2.1-3.1 1.2 0 1 2.8-.2 3.5-1.5.9-1.2 2.5.5 2.5.8 0 1.5-.7 1.5-1.6 0-.9.8-2.9 1.7-4.5 2-3.3 1.3-4.4-3.7-5.5-4.6-1-9.3-3.9-14.2-8.8-2.6-2.6-4.8-5.2-4.8-5.7 0-2 2.6-.7 4.5 2.1 1.1 1.6 2.5 3 3.2 3 .6 0 1.3.4 1.5.8.6 1.4 6.2 4.9 9.1 5.6 3 .7 3.4 0 1.3-2.3-.8-.9-1.8-2.9-2.2-4.6-.7-3-.7-3 1.5-1.1 1.1 1.1 2.1 2.3 2.1 2.8s.8 1.8 1.9 2.9c1.8 2 1.8 1.9 1-2.3-1-5.1-1.1-10.4-.3-9.5.3.3 1.4 3.7 2.4 7.5 1.7 6.3 2.3 8 5.1 13.2.5.8 1.8 3.5 3.1 5.9 1.3 2.4 2.8 4.6 3.5 4.8.7.3 1.3.9 1.3 1.3s1.1 2.1 2.4 3.6c7.2 8.5 10.4 12.4 13.1 15.8 4.3 5.5 9 11.3 10.6 12.9.8.7 2.8 3.1 4.4 5.2 2.8 3.6 8.5 10.4 11.1 13.2.7.7 3.4 4.2 6 7.8 2.6 3.6 5.1 6.5 5.6 6.5.4 0 .8.7.8 1.5s.3 1.5.8 1.5c.4 0 3.9 3.9 7.7 8.7 3.9 4.8 8.3 10.1 9.8 11.7 1.5 1.7 4.5 5.2 6.5 7.9 2 2.6 4 4.7 4.4 4.7 1.4 0 .9-1.9-.9-3.9-1-1-2.9-3.4-4.3-5.2-1.4-1.8-3.2-4-4-4.9-.8-.9-4.4-5.2-7.9-9.5-3.5-4.4-6.9-8.4-7.5-9-.6-.5-3.3-3.7-5.9-7-6.4-8-6.4-7.9-12.7-16-5.6-7.1-7.1-9-11-13.5-1.2-1.4-4.3-5.2-6.8-8.5s-4.9-6.2-5.2-6.5c-.3-.3-1.8-2.4-3.4-4.7-1.6-2.4-3.3-4.3-3.7-4.3-.5 0-.9-.6-.9-1.4 0-.8-.5-1.6-1.1-1.8-1.6-.5-9.5-14.5-8.7-15.4.2-.1 5.5 6.7 11.8 15.2 6.2 8.5 11.8 15.4 12.2 15.4.4 0 .8.6.8 1.4 0 .8.4 1.6.9 1.8.5.2 3.2 3.4 6.1 7.2 2.9 3.7 5.9 7.6 6.7 8.5 1.4 1.6 4.8 5.8 10.8 13.6 4.2 5.3 9 11.1 13.8 16.8 2.2 2.6 5.4 6.7 7.1 9.1 1.7 2.5 5.9 7.9 9.4 12.1 5.4 6.7 6.2 8.1 5.7 10.6-.4 1.6-.3 2.9.2 2.9.4 0 3.5 3.4 6.8 7.5s6.3 7.5 6.8 7.5c.4 0 .7.5.7 1 0 .6 1 2.1 2.3 3.3 1.3 1.2 3 3.2 3.8 4.4.9 1.2 3.9 4.7 6.7 7.8 2.9 3.1 5.2 5.7 5.2 5.9 0 .2 3.2 3.8 7.2 8 8.2 8.7 12.2 11.1 17.3 10.3 1.9-.3 3.7-.2 4 .3.8 1.2-6.1 3.3-8.5 2.5-1.4-.4-2-.2-2 .9 0 .8.4 1.7.8 2 .5.3 2.6 4 4.8 8.3 2.1 4.3 4.2 8 4.5 8.3.3.3 1.5 2.5 2.7 5 6.2 13.3 20.7 42.6 21.3 43 .4.3 1 1.7 1.4 3.2.4 1.5 1.3 2.9 2.1 3.2.8.3 1.4 1.2 1.4 2s1.4 3.5 3 5.9c1.7 2.5 3 4.8 3 5.1 0 .7 6.1 13.6 7.9 16.6.4.8 3 6 5.6 11.5 2.6 5.5 5.5 11.4 6.4 13.2 1.3 2.9 2.1 3.3 7.1 3.8 3 .4 6 .8 6.5 1 1.2.5 7.2-.2 14-1.6zm-428.6-12.5c6.3-.7 7.2-1.5 4.6-4-1.8-1.8-2-3.4-.4-3.4.6 0 1.3.9 1.6 2 .3 1.1 1.1 2 1.8 2s1.5.5 1.7 1.1c.4 1.2 3.8-.3 6.6-2.8 1.9-1.8 17.3-1.7 24 .1 7.3 2 8.5 1.4 7.9-3.8-.3-2.3-.3-3.3 0-2.3.4 1.5.8 1.2 2.1-1.5 1.3-2.4 2.5-3.4 4.7-3.6 4.2-.5 5.5-1.9 5.5-5.9 0-3.1.2-3.3 2.1-2.3 3.2 1.8 6.9.4 6.9-2.4 0-1.6 1.3-3.2 4.3-5.2 2.3-1.6 5-3.7 6-4.8 2.4-2.7 2.1-8.3-.8-13.1-1.4-2.2-2.8-4.7-3.2-5.5-.4-.8-2-3.4-3.5-5.6-3.3-4.9-3.8-11.9-1.4-19.4.8-2.5 2.4-7.9 3.6-12 1.2-4.1 2.6-8.3 3.1-9.2.5-1 .9-2.9.9-4.2 0-1.7 1.9-4.5 5.9-8.6 3.2-3.3 5.3-6 4.6-6-.7 0-1.8.7-2.5 1.5s-2 1.5-2.9 1.5c-.9 0-2.5.7-3.5 1.5-1.1.8-2.9 1.5-4.1 1.5-1.2 0-2.5.4-3 .9-.6.5-2.6 1.4-4.5 1.9-8 2.4-18.6 6.5-22 8.7-5.5 3.5-16.3 15.5-19.8 22.2-1.1 2-.8 2.4 3 5 5.1 3.4 6.7 7 4.9 10.9-.8 1.9-1.5 2.4-2.2 1.7-.7-.7-.7-1.7.2-3.1 1.2-1.8 1-2.4-.9-4.5-3.6-3.9-6.8-5.2-8.7-3.7-1.9 1.6-2 4.6-.1 5.3 1.5.6 2.7 5 1.7 6.5-.3.5-2.3 1.2-4.3 1.5-2.9.4-3.8.2-3.8-.8 0-.8 1.1-1.7 2.5-2.1 2.8-.7 3.3-1.9 1.1-2.7-1.3-.5-4.6 2.1-4.6 3.6 0 .3-1.3 2.6-2.9 4.9-2.6 3.8-2.8 4.5-1.5 5.9 2.1 2.3 1.7 2.9-1.6 2.3-1.9-.4-3-.2-3 .5 0 .6.7 1.1 1.5 1.1s1.5.7 1.5 1.5c0 1-1 1.5-3 1.5-2.2 0-3 .5-3 1.7 0 1.3.3 1.4 1.2.5 1.4-1.4 4.8-1.6 4.8-.3 0 .5-2 1.7-4.4 2.7-3.2 1.3-5.3 3.2-7.7 6.9-1.9 2.7-4 5.4-4.6 5.8-.7.4-1.3 1.2-1.3 1.7s-3.9 5.7-8.6 11.6c-8.5 10.7-8.5 10.7-5.2 12.2 6.6 2.9 12.6 3.6 22.7 2.6zM397 845.2c-.3-3.1-.3-8.2 0-11.2.6-5.5.6-5.5 1.3.5 1.7 13 1.8 13.4 3.3 12.8.8-.3 1.4-1 1.4-1.5 0-.6 1.4-2.7 3-4.8 1.7-2.1 3-4.1 3-4.5 0-.3 1.9-3.2 4.3-6.3 10.7-14.1 12.8-18 13.1-24.1.2-3.3 1.1-7.1 2.2-9.1 1.8-3.1 10.8-13 11.9-13 .9 0 4.5-3.5 4.5-4.4 0-.5.7-1.8 1.7-2.8 3.7-4.1 1.5-3.2-19.7 7.8-3 1.6-5.7 3.1-6 3.5-1.4 1.9-10 7.7-10 6.8 0-2.3 9.3-9.8 17.5-14 3.7-1.9 7.1-4 7.7-4.6.6-.7 1.5-1.3 2.2-1.3 2 0 13.4-6.2 14-7.6.7-1.8.8-1.8-3.9.6-2.2 1.1-4.5 2-5.2 2-.7 0-1.3.5-1.3 1 0 .6-.9 1-1.9 1-1.1 0-2.6.6-3.3 1.3-.7.6-3.1 2.1-5.3 3.2-8.1 4-17.1 10.3-22.5 15.7-5.4 5.4-12 16.2-12 19.7 0 1-.7 3.5-1.5 5.4-2 4.7-2.2 33.6-.3 35.5 1.8 1.8 2.5-.8 1.8-7.6zm52.2-79.6c7-3.2 7.5-3.7 10.6-9.6 1.8-3.5 3.2-7.6 3.2-9.3 0-2.8 1.4-8.6 4.4-18.4 1.8-5.9-.7-4.7-3.6 1.8-1.3 2.7-2.6 4.9-3 4.9-.5 0-.8.8-.8 1.7 0 1.4-10.8 18.5-14.5 23-.5.7-1.6 1.9-2.2 2.7-.7.8-1.3 1.8-1.3 2.2 0 .4-.7 1.6-1.7 2.6-2.6 2.9.4 2.3 8.9-1.6zm117.7-.7c2.5-1.1 6.2-2.8 8.1-3.6 1.9-.9 4.7-2.2 6.2-3 1.4-.7 3.3-1.3 4.2-1.3.9 0 2.4-.4 3.4-.9.9-.5 3.8-1.9 6.3-3 6.7-3.1 15.3-11.8 17.9-18.1.6-1.4 1.5-3.4 2-4.5 2.8-5.9 4.2-14.1 3.8-21.8-.3-4.5-.8-9-1.2-9.9-.6-1.3-.4-1.8.8-1.8 1.3 0 1.6-1.2 1.7-6.7 0-3.8.2-7.5.4-8.4.1-.9-.1-2.3-.6-3-.6-1-.9-.7-.9 1.1-.1 2.5-.1 2.5-1.1.2-.5-1.3-.7-2.7-.5-3.1.5-.8-3.4-2.9-11.4-6-3-1.2-6.4-2.6-7.5-3-1.1-.5-4.2-1.7-7-2.6-2.7-1-6.6-2.4-8.5-3.2-1.9-.8-4.8-2.1-6.5-2.8-1.6-.7-6.1-2.7-10-4.5-7.8-3.6-12.3-5.5-14.5-6.4-.8-.3-2.2-1-3-1.4-.8-.5-3.1-1.6-5-2.4-8.1-3.4-17.8-8.4-22.6-11.5-2.8-1.8-5.5-3.3-6-3.3s-1.7 1.9-2.8 4.3c-2.1 4.9-5.3 11.5-6.5 13.7-5.6 10.1-5.8 9.3 2.9 14.9 7.4 4.8 9.6 7.1 7 7.1-.6 0-2-.9-3.2-2-1.1-1-3.6-2.6-5.4-3.5-1.8-.8-3.6-2-3.9-2.5-.3-.6-1.6-1-2.9-1-2.5 0-5.2 4.7-21.2 37.3-.8 1.6-1.4 3.6-1.4 4.5 0 .9-.7 3-1.5 4.6-.8 1.5-1.5 3.7-1.5 4.7s-.6 3.3-1.4 5.1c-1.7 4-4.6 13-4.6 14.1 0 1.5 2.4-1.7 4.5-5.8 1.1-2.2 2.9-5.3 4-7 1.1-1.6 2.1-3.2 2.3-3.5.2-.2.8.2 1.3 1 .8 1.2.9 1 .4-.6-.3-1.4.3-3.5 1.7-5.7 2.8-4.3 4.2-4.7 3.4-.9-.5 2.2-.4 2.4.4.9.6-.9.8-2.7.5-3.8-.4-1.2-.3-2.4.2-2.8.5-.3 2.2-2.4 3.8-4.6 1.7-2.2 3.2-4.2 3.5-4.5.3-.3 3.1-3.8 6.4-7.8 3.2-4 7.7-8.7 10-10.5 2.2-1.7 4.6-3.9 5.3-4.7.6-.8 1.5-1.2 1.9-.8.4.4-3.3 4.7-8.2 9.5-8.3 8.2-14.4 14.9-14.4 15.9 0 .3-.8 1.3-1.7 2.4-1 1-2.7 3.4-3.7 5.2-1.9 3.3-1.9 3.3 1.7-.5 2.1-2.1 3.7-4 3.7-4.3 0-1.3 23.7-24.5 25.6-25 2.3-.6 10.9 2 17.4 5.2 4.3 2.1 15.9 10.6 18 13.1 4.9 5.9 8 10.2 8 11 0 .5.5 1.4 1.2 2.1 3.5 3.5 7.8 21.6 7.8 32.9 0 12.7-2.3 19.3-8.7 25.1-5.3 4.7-5 5.1 1.6 2.1zM624 663c6.1-23.3 9.8-36.6 11.6-40.8.8-1.8 1.4-4 1.4-5 0-1.4-.2-1.4-1.3.3-.8 1.1-1.7 2.9-2 4-.3 1.1-1.5 4.7-2.7 8-5 13.9-11.5 42-10.2 44 .4.5 1-.6 1.4-2.5.3-1.9 1.2-5.5 1.8-8zm-4.9 3.4c.3-3.2 1.1-6.9 1.7-8.1.7-1.2 1.2-3.2 1.2-4.5 0-1.3.6-4.3 1.4-6.8.8-2.5 2.1-6.8 3-9.6.9-2.9 1.6-5.7 1.6-6.4 0-.7.7-2.8 1.6-4.8.9-2.1 2.2-5.1 2.9-6.9.8-1.8 1.1-3.4.7-3.7-.4-.2-4.3-1.2-8.7-2.1-4.4-.9-8.4-2-9-2.6-.5-.5-1.7-.9-2.7-.9-3.8 0-35.8-18-35.8-20.2 0-.4-.7-.8-1.5-.8s-1.5-.4-1.5-.9c0-.4-1.7-2-3.7-3.3-2.1-1.4-6.9-5.8-10.8-9.9-15.2-15.9-15.7-16.3-16.8-14.3-.6 1-1.4 3.4-1.8 5.4-.9 4.3-2.7 9.5-4.5 13.3-.8 1.6-1.4 3.3-1.4 3.8s-1.3 3.7-2.8 7.1c-1.6 3.5-3.7 8.3-4.6 10.8-1.9 4.7-6.7 15.4-9.2 20.3-2.3 4.5-1.7 6.1 2.9 8.7 2.3 1.3 4.4 2.6 4.7 2.9.3.3 2.1 1.3 4 2.2 9.6 4.3 17.7 8.2 19 9 .8.5 2.2 1.2 3 1.5 2.6.9 7.3 3 14 6.1 14.6 6.8 17.7 8.1 21.5 9.3 2.2.7 4.4 1.6 5 2.1.5.5 1.5.9 2.2.9.7 0 4.2 1.4 7.6 3 3.5 1.7 7 3 7.8 3 .8.1 2.5.7 3.9 1.5s3 1.3 3.5 1.1c.6-.1 1.3-2.9 1.6-6.2zm259.4-486.7c1.4-2.9 3.1-6.1 3.8-7.2 4.7-7.7 6.4-10.5 8.1-14 1.1-2.2 3.2-5.6 4.8-7.6 1.5-2 2.8-4 2.8-4.4 0-.4 1.4-2.4 3-4.5 1.7-2.1 3-4.2 3-4.7s1.3-2.4 3-4.3c1.6-1.9 2.9-4 3-4.7 0-.6.3-1.3.8-1.5.4-.2 2-2.1 3.7-4.3 3.2-4.3 6.1-7.9 8.5-10.4.8-.9 3.3-4 5.5-6.9 2.1-2.8 4.3-5.2 4.7-5.2.4 0 .8-.4.8-1 0-1 21.6-23 22.6-23 .3 0 1.7-1.3 3.2-2.8 3.5-3.6 13.2-11.7 15.2-12.5.8-.4 2.2-1.1 3-1.6 3.2-2 10.7-5 15.3-6.2 2.6-.6 4.7-1.5 4.7-1.9 0-4.2-6-6.8-11.4-5-3.1 1-3.7.9-5.5-.9-1.9-1.9-3.3-2.1-16.1-2.1-11.7 0-14.8.3-19.2 2.1-5.3 2-12.3 6.9-18.6 12.8-1.8 1.7-3.7 3.1-4.3 3.1-.5 0-.9.4-.9.9s-1.9 2-4.2 3.3c-4.1 2.5-4.1 2.5 0 4.8 4.5 2.6 7.3 7.3 5.3 9.3-.8.8-1.1.6-1.1-1 0-1.1-1.4-3.5-3.2-5.2-2.8-2.7-3.8-3.1-8.9-3.1-9.2 0-18.8 5.2-21.5 11.7-1.2 2.6-1.2 4.7-.3 10.5 1.1 7.2 3.3 10.6 6.9 10.8 1.2.1 1.2.3-.2 1.4-1 .7-1.5 1.6-1.2 1.9.3.3-1.3.3-3.5 0-3.3-.5-4.1-.2-4.1 1 0 1.3-5 11.6-8.5 17.5-2.5 4.2-17 23.2-17.7 23.2-.4 0-.8.6-.8 1.4 0 .8-.4 1.6-.9 1.8-.5.2-3.2 3.1-6 6.4-5.1 6.2-5.1 6.2-1.8 7.4 8.8 3.3 14 7.4 20.7 16.2 1.9 2.5 3.8 4.4 4.2 4.1.5-.2 1.9-2.8 3.3-5.6z"/>
    <path d="M909 125.2c0-1.5 14.5-20.4 25-32.6 5-5.8 17.5-17.6 24.5-23.1 2.8-2.2 5.2-4.3 5.5-4.6.3-.4 1.6-1 2.9-1.4 2.3-.7 2.4-.7.5 1.2-1 1-3.9 3.4-6.4 5.3-6.6 5-24 21.3-24 22.5 0 .2-1.4 1.9-3.1 3.7-1.7 1.8-5.2 6-7.7 9.3-2.5 3.3-5.1 6.5-5.7 7-.7.6-2.7 3-4.5 5.5-4 5.4-7 8.4-7 7.2z"/>
  </g>
</svg>
