<svg version="1.0" xmlns="http://www.w3.org/2000/svg" preserveAspectRatio="xMidYMid meet" viewBox="0 0 1252 1199">
  <path d="M1004.7 917.9c-7.9-1.9-13.7-6.7-13.7-11.5 0-2.1.5-2.4 3.8-2.4 3.2 0 4.1.5 5 2.6 2.4 5 13.4 7.1 20.1 3.6 4.2-2.1 7-7.2 7.8-14.3l.6-5.4-3.4 3.2c-4.3 4-7.7 5.3-14.2 5.3-8.8-.1-17-5.4-19.9-12.9-6-15.7.3-32.6 13.6-36.6 8.9-2.7 15.8-1.4 21.1 3.9l2.5 2.5v-3.4c0-3.4.1-3.5 4.1-3.5h4l-.3 26.8c-.3 24.8-.5 27-2.4 31.3-4.5 9.6-15.8 13.8-28.7 10.8zm15.1-28.1c4.6-2.9 7.2-8.6 7.2-16.6 0-11.6-5.1-17.7-14.6-17.6-9.6.2-14.5 6.1-14.6 17.9-.2 7.3 2.7 14.1 6.9 16.7 3.9 2.5 10.8 2.3 15.1-.4zm-399.3 9.3c-12.5-2.3-19.4-12.8-18.3-28 1.2-16 13.9-25.6 29.5-22.1 9.4 2.1 15.8 10.2 17 21.5l.6 5.5H611v2.6c0 7.7 6.5 13.5 15.4 13.7 6.1.1 9.8-1.8 12.4-6.4 1.4-2.4 2.4-2.9 5.5-2.9 2 0 3.7.5 3.7 1 0 1.8-3.7 8.4-5.6 10.1-5.1 4.5-13.9 6.5-21.9 5zm19.5-31.9c0-1.1-1.3-3.7-3-6-6.1-8.4-18.6-7.8-24 1.1-4 6.5-3.7 6.7 12.5 6.7 13.4 0 14.5-.1 14.5-1.8zm35.5 32.4c-.5-.3-2.6-.7-4.6-1-4.7-.8-12.2-7.3-14.2-12.4-5.7-14.1-1.1-29.2 10.7-35.5 6-3.2 16.6-3.1 22.4.3 5.2 2.9 9.6 9.6 11.1 16.8 1.9 8.9 3.5 8.2-18.5 8.2h-19.6l.7 3.8c1.5 8.3 6.7 12.2 16.3 12.2 5.7 0 6.7-.3 9.3-2.9 1.6-1.6 2.9-3.7 2.9-4.5 0-1.2 1.1-1.6 4.4-1.6 4 0 4.3.2 3.9 2.4-.6 3.2-6.6 10.2-10.3 12.1-2.8 1.4-12.6 2.8-14.5 2.1zm17.5-31.3c0-.4-.9-2.6-2.1-4.9-3.7-7.8-14.1-10.6-20.8-5.6-3 2.2-5.7 5.9-6.6 9l-.6 2.2h15c8.3 0 15.1-.3 15.1-.7zm48.7 30.7c-8-2.1-13-6.7-13.9-13-.3-2.3.1-2.5 3.7-2.8 3.7-.3 4.1 0 5.1 2.6 1.8 4.6 5.4 6.5 13 6.5 7.9 0 11.7-2.2 12.2-7.1.4-4.1-2.2-5.7-14.1-8.7-15.1-3.7-18.8-6.5-18.9-14.4 0-5 1.9-8.1 6.9-11.2 3.2-2 5.1-2.4 12.3-2.4 11.1 0 15.5 2 18.8 8.7 2.8 5.7 2.3 7.1-2.6 6.3-2-.3-3.6-.7-3.6-.8-1.3-4.6-7.5-8-13.8-7.3-6.1.6-8.8 2.4-8.8 5.8 0 3.9 3.7 6.2 13.2 8.2 11 2.3 16.1 4.8 18.3 9 2.1 3.9 1.7 10.2-1 14.2-3.5 5.4-17.5 8.7-26.8 6.4zm74.9-.1c-5.2-1.2-10.5-5.3-12.2-9.5-2.3-5.4-1.9-6.4 2.6-6.4 3.5 0 4.1.4 5.5 3.4 2.1 4.3 6.2 6.1 13.8 5.9 8.7-.3 13.4-4.3 10.7-9.3-1.5-2.8-5.5-4.6-14.1-6.6-12.8-2.9-17.7-6.3-18.6-13.2-.7-5.2 1.7-9.2 7.1-12.4 3.4-1.9 5.5-2.3 12.6-2.3s9.2.4 12.7 2.4c4.2 2.4 7.3 7 7.3 10.8 0 1.5-.8 1.9-3.9 1.9-3.4.1-4.1-.2-5.1-2.7-3.2-7.6-22-7.2-22 .5 0 3.6 2.9 5.4 12.5 7.6 14.9 3.4 18.7 5.7 20.5 12.1 1.3 4.5-.2 9.8-3.8 13.3-5 4.7-16.3 6.7-25.6 4.5zm53.9.2c-13.9-3.4-21.5-18.3-17.1-33.5 4.3-14.7 19.6-21.4 34.6-15.3 9.1 3.7 14 11.9 14 23.8 0 17.8-14.3 29.2-31.5 25zm15.3-9.1c4.3-2.7 7.2-8.9 7.2-16 0-12.9-9.8-21.5-20.4-18-8.1 2.6-12.6 12.1-10.7 22.5.9 5 1.7 6.6 5 9.8 3.7 3.4 4.5 3.7 9.8 3.7 4.1 0 6.8-.6 9.1-2zm-335.3 8.2c-.3-.3-.5-15.8-.5-34.4V830h46v8h-37v22h33v7h-33v31.6h-4c-2.2 0-4.2-.2-4.5-.4zm160.1.1c-.3-.4-.6-15.9-.6-34.5v-33.9l4.3.3 4.2.3v67.9l-3.6.2c-2.1.2-4 0-4.3-.3zM938 873.8V849h8v9.5l2.7-3.4c2.9-3.7 9.3-7 13.6-7.1 2.5 0 2.7.3 2.7 4.4v4.3l-4.6.6c-5.4.6-9.1 3-11.9 7.8-1.7 2.9-2 5.6-2.3 18.5l-.4 15H938v-24.8zm36.3 24.5l-3.3-.4V849h8v25c0 13.8-.3 24.9-.7 24.8-.5 0-2.3-.3-4-.5zm73.3-.1c-.2-.4-.4-15.8-.3-34.2l.2-33.5 4.3-.3 4.2-.3v25.9l3.1-2.9c5.5-5.1 15.1-6.3 22.7-2.9 7.2 3.3 8.2 6.7 8.2 29.6v19h-7.9l-.3-18.8-.3-18.8-2.7-2.7c-4.9-4.9-15.5-3.3-20.2 3-1.9 2.6-2.1 4.4-2.4 20.3l-.3 17.4h-3.9c-2.1 0-4.1-.4-4.4-.8zm68.2-.2c-10.4-.8-10.2-.5-10.6-23l-.4-18.9-4.1-.3c-3.9-.3-4.2-.5-4.2-3.3s.3-3 4.3-3.3l4.2-.3v-15l4.3.3 4.2.3.3 7.3.3 7.2h9.9v7h-10v17c0 18.5-.3 17.6 6 18.3 3 .3 3.5.7 3.8 3.1.2 1.6 0 3.1-.5 3.5-.4.4-3.8.4-7.5.1zM971 835v-5h8v10h-8v-5zM566 676.4c-20.8-3.8-33-10.1-43.8-22.8-4.9-5.8-10.5-16.5-12.8-24.6-2.2-7.6-3.1-46.1-1.4-56.8 5.9-36.8 32.9-58.8 69.5-56.9 22.1 1.1 38.1 9.3 48.7 24.9 8.3 12.3 11.8 25.5 11.8 44.1 0 13.2-1.8 17.6-8.5 21.1-3.8 2-5.7 2.1-45.9 2.4l-41.9.3.7 5.6c.8 6.4 3.7 13.7 6.9 17.1 3 3.3 10.1 6.7 16.9 8.2 7.6 1.7 23.5-.1 36.6-4.1 10.6-3.3 14.5-3.2 20 .1 6.7 4.1 9.7 17 5.5 24.2-3.7 6.4-15.1 12.2-29.4 15.2-7.6 1.5-28.5 2.8-32.9 2zm33.7-94.2c2.5-.5 2.5-.6 2.1-7.6-.6-8.6-3.1-14-8.8-18.9-2.2-1.9-6.2-4.1-8.8-4.8-6-1.8-17.8-1.5-22.5.4-5.4 2.3-12.2 9.1-14.5 14.6-2.2 5-4.3 15.7-3.3 16.7.7.6 52.1.3 55.8-.4zM761.5 675c-4.7-1-8.3-3.9-11.3-8.9l-2.7-4.6-.5-44.5c-.5-42.7-.6-44.7-2.6-49-1.2-2.5-3.2-5.5-4.5-6.7-9.5-8.6-26.3-9.5-42.5-2.4l-4.3 2-.3 50.3-.3 50.3-2.5 4.5c-3.6 6.3-8 9-14.9 9-9.5 0-15.8-5.6-18.6-16.7-1.4-5.3-1.5-14.1-1.3-63.7.3-56.3.3-57.5 2.4-60.3 4.7-6.4 19.6-13.4 35.9-16.9 11.5-2.5 33.5-3 43.5-1 22.6 4.6 37 17.8 43.6 40.1 1.5 5.3 1.8 11.8 2.1 54 .5 51.1.3 52.9-4.3 58.5-4.3 5-10.7 7.3-16.9 6zm101.8-.1c-18.9-1.8-36.1-11.6-46.5-26.7-4.2-6.1-9.2-17.4-11.4-25.7-2.8-10.3-2.7-52.9 0-62.5 11.8-41 58-59.6 99.4-39.9 20.9 10 32.9 32 25.4 46.6-4.2 8.2-11.7 11.5-20.4 9.2-4.5-1.2-5.8-2.1-8.8-6.4-9.6-13.6-17.8-18.1-31.9-17.3-13 .8-21.8 7.1-26.2 18.8-1.9 4.9-2 7.3-1.7 24.5.3 18 .4 19.3 2.9 24.5 5.9 12.6 14.1 18 27.1 18 13 0 20.2-3.9 27.3-15 5-7.8 8.1-10.5 13-11.4 13.6-2.6 24.2 11.4 20 26.2-6.9 23.9-36.5 40-68.2 37.1zm243.2-.5c-2.1-.7-5.3-2.7-7.2-4.6-6.5-6.3-6.4-3.7-6.1-101.9.3-87.2.3-88.5 2.4-92.3 5.8-11.2 18.6-13.9 27.4-6 2.1 2 4.5 5.2 5.2 7.2 1 2.9 1.3 22.2 1.3 93.7v90l-2.3 4.7c-1.3 2.7-3.7 5.7-5.2 6.8-4.1 2.9-11 4-15.5 2.4zm-115.5-2c-12-3.6-17.4-6.8-26.6-15.9-6.3-6.2-9-9.7-11.7-15.5-6.7-13.9-7.2-17.4-7.2-46.5 0-22.4.3-27 1.9-33 6.5-23.9 22.8-40.3 45.7-45.9 3.9-1 10.8-1.6 17.1-1.6 19.1 0 33.1 5.3 44.8 17 12 12 17.7 26.7 18.7 48.1.8 16.8-.8 21.7-8.2 25.8-2.6 1.4-8.1 1.6-43 1.9l-40 .2.3 5.8c.7 11.8 7.1 20.3 17.9 23.7 10.1 3.2 28 1.7 42.5-3.5 7.1-2.5 10.1-2.5 15.4-.1 5.9 2.7 8.7 7.2 9.2 14.7.3 5.1 0 7-1.8 10.1-6 10.7-26.6 17.4-53.4 17.2-11 0-14.5-.4-21.6-2.5zm43.9-90.1l5.3-.6-.4-7.1c-.6-8.6-3.1-14-8.8-18.9-5.1-4.4-11.5-6.2-20.6-6-16.2.3-26.4 9.7-28.8 26.5-.4 2.7-.4 5.2-.1 5.8.7 1.1 44.5 1.4 53.4.3zm-594.4 90.4c-4.2-1.9-9.2-7.9-10.4-12.4-.7-2.5-1.1-29.8-1.1-79.5v-75.7l-26.8-.3-26.9-.3-4.1-2.7c-5.7-3.8-7.6-7.8-7.5-15.6.2-8.8 3.4-14.1 10.3-17.1 5-2.1 5.1-2.2 75.2-1.9l70.3.3 4.1 2.7c11.3 7.3 11.1 24-.4 31.9-3.5 2.4-4.1 2.4-30.1 2.9l-26.6.5-.5 78c-.6 87-.1 81.4-7.6 87.1-4.3 3.3-13 4.3-17.9 2.1zm728.8-176.4c-.9-.3-1.3-3.3-1.3-9.9V477h-2.6c-3.6 0-6.4-1.7-6.4-4.1 0-2.9 3.3-3.8 13.3-3.6 8.4.2 10.6 1 10.7 3.9 0 1.5-3.3 3.8-5.6 3.8s-2.4.2-2.4 8.1c0 10.4-1.3 13-5.7 11.2zm13.9-.5c-.6-.9-.5-4.6.4-11.3 1.8-13.2 2.4-14.5 6.8-14.5 4.3 0 5.3 1.6 7.6 11.5l1.6 7 1.8-7.5c2.2-9 3.9-11.2 8-10.8 4.2.4 5.4 3.4 6.2 15.5.7 10.6.2 12.3-3.5 10.3-1.4-.7-2.2-2.5-2.6-5.8-.4-2.6-1-6.3-1.4-8.2-.8-3.5-.8-3.5-2 2.4-.8 3.3-1.8 7-2.3 8.2-2.2 4.8-8 3-9.2-2.8-.3-1.7-1.1-5-1.8-7.2l-1.1-4.1-1.3 8.4c-.7 4.6-1.8 8.8-2.6 9.2-1.9 1.2-3.4 1.1-4.6-.3z" fill="#333"/>
  <g fill="#51b68a">
    <path d="M386 778.9c-41.4-4.7-85.3-28.2-113.8-61.1-9-10.4-10.1-12.5-10.2-19.7v-5.4l7.8-7.6c13.6-13.1 22.8-27 26.8-40.3 14.5-48.5 0-96.4-42.6-140.8-5-5.2-9.5-10.5-10.1-11.8-3.8-9.4 3.9-20.2 14.4-20.2 4.2 0 5.3.5 9.4 4.2 31.6 29.1 54.4 68.1 60.9 104.3 2.7 14.8 2.5 41.5-.5 55.3-5 23.8-12.1 39.1-26.3 56.9l-5.1 6.4 3.9 4.1c6.1 6.3 19.1 16.4 28.9 22.5 15.1 9.4 31.2 16 50 20.6l9 2.2 393 .5 393 .5 3.4 2.4c8.2 5.9 8.1 17.5-.3 24.9l-3.7 3.2-390.2-.1c-214.6-.1-393.6-.5-397.7-1zm-178.5-47c-22.4-2.7-41.4-10.4-57.7-23.5-12.8-10.3-17.5-18.8-15-27.3 2.1-6.8 10.6-11.5 17.7-9.7 1.4.4 5.9 3.9 9.9 7.9 7.9 7.8 18.1 13.9 29.6 17.5 13.2 4.2 27.1 5.8 36.5 4.1 8.6-1.5 14.4.5 18 6 4.9 7.3 4.1 14.6-2 20-5.5 4.8-21 6.9-37 5z"/>
    <path d="M206.1 677.5c-13.7-3.9-27.8-11.5-39.5-21.4-15-12.7-35.2-38.9-36.3-47-.5-3.6-.2-4.4 3-7.6 6.8-6.8 11.5-4.4 22.2 11.5 9.6 14.2 26.2 29.8 39.9 37.5 9.8 5.4 16.8 7.5 25.7 7.5 10.1 0 16.4-2.7 23.7-10.1 6.6-6.7 10.8-15 12.7-25.2 1.9-9.8 1.9-13.7 0-25.7-5.5-36.7-24.8-66.9-50.1-78.6-11.1-5.2-23.3-6.2-27.9-2.4-4.4 3.7-8.1 18.7-7.2 29.4 1.6 19.5 12.6 41.2 28.1 55.4 8.1 7.3 12.5 8.1 14.7 2.5 1.5-4 .4-7-10-25.7s-11.1-21.7-6.2-26.7c3.3-3.3 8.2-3.9 11.8-1.4 2.1 1.4 19.1 31.3 23.4 41 3.1 7.1 2.9 16.6-.5 23.8-7.4 15.6-23.6 19.2-39.1 8.6-4.7-3.2-15-13.5-19.9-20-9.8-13-16.9-28-20.1-42.3-2.4-10.8-1.7-30.3 1.5-39.6 7-20.6 14.7-27.1 33.5-28.6 19.2-1.5 43.7 11.6 60.6 32.5 12.1 15 21 35.1 26 58.6 3.3 15.3 3.3 36.3.1 47.9-3.2 11.2-7.3 19-14.6 28.1-11.1 13.8-20.8 18.5-39.1 19.1-7.8.3-12.6-.1-16.4-1.1z"/>
    <path d="M108.3 665.4c-9.2-6-25-39.7-32.2-68.6-12.8-51.4-9.5-113.3 9-169.6 6.2-18.6 7.7-19.6 30.9-20.7 22.1-1.1 50.7 2.7 71.1 9.4 23.7 7.9 52.7 25.9 57.3 35.5 3.1 6.5 1.7 12.3-4.4 18.1-2.7 2.6-3.9 3-8.8 3-5.5 0-6-.2-14-6.6-22.4-17.9-58.1-28.9-93.6-28.9h-11.3l-3.3 12.1c-4.3 16.4-7.6 33.6-9.4 49.9-2.1 17.8-2.1 49.1 0 65.2 3.6 27.9 13.6 57.1 26.4 76.9 2.2 3.4 4.2 7.7 4.6 9.6.9 5-1.1 10.6-5.1 14.2-4.8 4.1-11.2 4.3-17.2.5z"/>
    <path d="M117.2 576c-3.3-3.1-4.2-8.3-4.2-24.4 0-29.8 5.6-51.1 17.5-67.1 8.6-11.4 22.8-20.3 37.5-23.3 9.8-2 12.7-1.2 15.3 4 3.6 7.3-.9 13.7-10.8 15.8-13.2 2.7-25.4 12.2-31.2 24.2-6.8 14-10.1 33.6-8.9 53.5.6 9.3.4 11.8-.9 14.3-2.6 5.1-10.3 6.7-14.3 3z"/>
  </g>
</svg>
