<svg version="1.0" xmlns="http://www.w3.org/2000/svg" preserveAspectRatio="xMidYMid meet" viewBox="0 0 360 540">
  <g fill="#4c6317">
    <path d="M331.55 452.2c-1.15-1.05-5.75-6.15-10.2-11.4-9.45-11.25-20.7-22.75-23.7-24.25-1.2-.6-3-1.25-4-1.45-1.45-.3-1.95-.65-2.05-1.55-.2-1.2-3.4-3-5.45-3.05-.6 0-1.25-.2-1.4-.5-.15-.25-.75-.5-1.3-.5-.65 0-.95-.35-.95-1.05 0-1 .2-1.05 2.3-.7 1.65.25 2.2.15 1.95-.25-.2-.3-3.65-3.15-7.65-6.35-4.05-3.2-9.1-7.35-11.25-9.25-4.3-3.75-11.05-7.4-13.7-7.4-1.35 0-1.65-.2-1.65-1.05 0-1 .2-1.05 2.1-.75 1.85.3 2 .25 1.4-.45-.35-.45-4.95-4.35-10.2-8.65-5.25-4.3-11-9.1-12.8-10.65-4.65-4.1-14.15-7.95-19.55-7.95-2.35 0-2.6-.1-3.1-1.5-.35-.9-.95-1.5-1.45-1.5-.7 0-.9-.4-.9-1.75 0-1.55.15-1.75 1.3-1.75 1.1 0 1.2-.15.75-.7-.35-.4-.55-1.5-.45-2.5l.15-1.7 4.75 3.2c2.6 1.75 4.95 3.2 5.2 3.2s-1.7-2.2-4.35-4.85c-8.75-8.95-23.15-25.9-29.9-35.15-2.35-3.25-8.05-11.9-10.65-16.15-2.45-4-8.65-5.45-23.3-5.55-5.1-.05-14.45 0-20.8.1-6.35.05-11.95 0-12.4-.2-.45-.15-.8-.6-.8-.95 0-.5-.5-.5-2.3-.15-1.85.4-3.15.3-6.85-.6-5.1-1.25-9.35-2.85-9.35-3.6 0-.25-.3-.4-.6-.35-1.85.35-16.8-5.15-17.25-6.35-.15-.4-.9-.7-1.65-.7-1.7 0-16.15-7.1-17.8-8.75-.6-.6-1.65-1.25-2.3-1.4-2.55-.65-10.2-8.2-13.55-13.35-.95-1.5-2.8-4-4.05-5.5s-2.3-2.9-2.3-3.1c0-.25-.25-.4-.55-.4-.6 0-5.9-4.6-11.75-10.2-4.45-4.25-6.25-7.2-6.6-10.75-.2-2 0-2.5 1.2-3.7 1.85-1.85 2.95-2.05 9.15-1.6 2.9.2 9.15.45 13.8.5 9.4.1 12.9.8 18.9 3.8 3.7 1.85 8.9 5.5 10.2 7.1.5.65 1.25 1.3 1.65 1.45.4.2 3.3 2.6 6.4 5.35 7.25 6.4 14.9 12.2 18.5 14 3.6 1.8 11.45 4.3 16.6 5.25 4.95.95 9.35 2.75 12 4.85 1.7 1.35 2.2 1.55 2.95 1.1.85-.5.95-.3 1.2 2.3.5 4.45.55 4.55 3.7 4.55 2.35 0 2.7.1 2.45.9-.45 1.35 6.15 7.45 10.45 9.7 1.95 1 5.4 2.3 7.7 2.9 2.3.55 5.6 1.6 7.35 2.25 1.75.65 3.2 1.1 3.2 1 0-.35-5.55-10.45-6.65-12-.55-.8-1.4-1.85-1.9-2.25-1-.8-2.7-4.55-2.1-4.45.25.05.55.05.75 0 .4-.05-4.6-11-12-26.1-5.85-11.95-7.2-13.95-14.4-21.25-2.05-2.05-3.7-4.05-3.7-4.4 0-.4-.7-.8-1.6-1-3.1-.6-13.3-9.65-19.4-17.2-6.4-7.95-9.3-15.65-11.25-30.1-1.2-8.6-1.8-11.05-5.5-22.1-4.3-12.85-5-17-4.45-26.4.55-9.25.35-15-.65-20.15-1.2-6.25-1.4-12.3-.5-14.5 1.55-3.6 6.3-4.9 10.4-2.85 2.4 1.25 4.35 3.9 7.1 9.5 2.45 5.05 4.7 8.55 9.85 15.25 7.95 10.35 12.85 18.6 15.45 25.95 2 5.6 6.55 23.6 6.55 25.8 0 .9.3 1.9.65 2.2.4.3 2 4.05 3.6 8.3 1.6 4.25 3.15 8.05 3.4 8.4 1.1 1.4 3.95 8.95 3.9 10.3 0 .8.35 1.7.7 2 .4.3 1.15 3.05 1.75 6.3 1.2 6.65 1.4 17.1.5 25.65-.35 3.75-.4 6.25-.05 8.1.5 2.75 3.9 12.15 7.8 21.8 3.65 8.9 10.7 22.45 11.75 22.45.2 0 .2-.95-.05-2.1-.65-3.55-.45-10.8.5-17.05l.9-5.95-1.95-3.15c-1.05-1.75-1.9-3.7-1.9-4.35 0-2.5-.55-3.4-2.05-3.4-1.3 0-1.45-.15-1.45-1.75 0-1.2-.25-1.75-.75-1.75-.6 0-.75-.9-.75-5.05 0-5.6.75-9.45 1.85-9.45.55 0 .55-.2.15-1-.4-.7-.4-1.3.05-2.05.3-.6.7-2.1.9-3.4.25-1.9.5-2.35 1.45-2.45.85-.15 1.1.1 1.1.85 0 1.15 2.4 6.4 3.4 7.45.3.35.6 1 .6 1.4 0 .4.25.7.5.7.3 0 .5-1.85.5-4.5 0-4.45 0-4.5 1.25-4.5 1 0 1.25-.25 1.25-1.25s-.25-1.25-1.2-1.25-1.3-.35-1.55-1.45c-.15-.8-.65-1.6-1.05-1.75-.4-.15-.7-.6-.7-1.05 0-.4-.25-.75-.5-.75-.3 0-.65-.35-.85-.8-.15-.45-.85-1.4-1.5-2.1-.65-.7-1.3-1.8-1.45-2.45-.2-.65-.5-1.15-.7-1.15-.45 0-1.85-7-2.25-11.25-.2-1.65-.4-3.5-.55-4.15-.2-.9 0-1.1 1-1.1 1.05 0 1.35.4 2.3 3.55.6 1.95 1.05 4.15 1 4.9-.15 2.25-.05 2.55 1.15 2.55.8 0 1.55.7 2.75 2.7.85 1.5 1.6 2.95 1.6 3.25 0 .3.25.55.5.55.3 0 .5.35.5.8 0 .4.2.65.45.5.25-.15.7-2.1 1.1-4.25.5-3.4.8-4.05 1.65-4.2 1-.2 1-.2-.05-.3-.8-.05-1.15-.35-1.15-1.05 0-.55-.2-1-.45-1s-.65-.45-.8-1c-.2-.55-.85-1.6-1.55-2.35-.65-.7-1.2-1.6-1.2-1.95 0-.4-.2-.7-.5-.7-.25 0-.5-.35-.5-.75s-.2-.75-.5-.75c-.6 0-4.25-6.2-5.2-8.8-.65-1.85-.65-2.35 0-4.25 1.75-5 2.55-5.15 4.1-.75.65 1.75 1.95 4.5 2.9 6.05.9 1.6 1.7 3.05 1.7 3.3s.2.45.45.45c.2 0 1.05.9 1.8 2s1.55 2 1.7 2c.2 0 .6-1.8.95-4 .7-4.35.45-5.3-1.75-7.15-.65-.5-1.15-1.2-1.15-1.6 0-.35-.3-.75-.65-.9-.35-.15-1.4-1.65-2.3-3.35-1.5-2.75-1.65-3.4-1.35-5.65.6-4.25 2.8-6.9 3.55-4.2.55 2.05 3 7.05 4 8.25l1 1.2.3-1.2c.45-1.55.5-6.75.15-9.6-.3-2-.5-2.3-1.5-2.3-.65 0-1.45-.45-1.8-1-.35-.55-.9-1-1.2-1-.4 0-.55-.7-.4-1.85.1-1.05.3-4.5.4-7.65.3-6.45.6-8 1.6-8 .55 0 .7.85.7 3.5 0 2.4.35 4.35 1.1 6.35 1.1 2.8 1.15 2.85 1.3 1.3.15-1.5.3-1.65 1.9-1.65 1.2 0 1.7.25 1.7.75 0 .4.45.75.95.75.55 0 1.1.4 1.2.85.2.7.25.7.3-.15.05-.75.5-1.15 1.55-1.4.9-.15 1.5-.6 1.5-1.05 0-.4.3-.75.7-.75.5 0 .6-.55.4-2.25-.25-2.2-.2-2.25 1.25-2.25 1.2 0 1.8.4 2.85 2 1.5 2.3 1.55 2.5.55 2.5-.4 0-.75.25-.75.5 0 .3-.35.5-.75.5-.45 0-.75.45-.75 1.25 0 .7-.2 1.25-.5 1.25-.25 0-.5.35-.5.75s-.2.75-.5.75c-.25 0-.5.35-.5.75s-.35.75-.75.75-.75.45-.75.95c0 .55-.75 1.6-1.6 2.35-1.65 1.35-1.65 1.4-1.8 6.25-.2 4.65-.25 4.95-1.25 5-.85.05-.9.1-.2.3.45.1.85.55.85.95 0 1.05.85.85 1.15-.3.15-.6.7-1 1.3-1 .6 0 1.05-.25 1.05-.6 0-.8 2.55-3.4 3.35-3.4.35 0 .65-.45.65-1s.35-1.15.75-1.3c.4-.2.75-.6.75-.95s.15-.75.4-.85c.2-.1.9-1.35 1.55-2.8 1.05-2.3 1.4-2.65 2.5-2.5 1 .1 1.4.6 2 2.5.7 2.3.7 2.45-.7 5-2.25 4.15-4.15 6.4-5.55 6.4-.9 0-1.2.25-1.2 1.15 0 1.2-1.85 3.35-2.85 3.35-.3 0-.65.35-.85.75-.15.4-.5.75-.85.75-.3 0-1 .55-1.55 1.25s-1.3 1.25-1.7 1.25c-.4 0-.7.3-.7.65 0 .3-.35 2.85-.75 5.6-.35 2.75-.6 5.05-.5 5.15.3.3 8.4-4.9 10.85-6.95 1.3-1.05 2.55-1.95 2.85-1.95.3 0 .55-.4.55-.85.05-1.1 1.15-2.65 1.95-2.65.3 0 .55-.35.55-.75s.35-.75.75-.75.75-.2.75-.5c0-.25.5-.5 1.05-.5 1.05 0 1.1.15.8 3.65-.2 2.55-.55 3.8-1.2 4.35-.5.45-1.15 1.25-1.45 1.75-.3.55-1.05 1.05-1.65 1.15-.65.1-1.05.55-1.05 1.15 0 1.2-2.4 2.95-9.95 7.2-3.65 2.1-6.15 3.85-6.5 4.55-.7 1.55-3.65 16.75-3.3 17.1.15.15.25-.1.25-.55 0-.5.4-.85 1-.85.55 0 1-.2 1-.4 0-.25.95-.85 2.15-1.4 1.15-.5 2.4-1.2 2.75-1.55.35-.35 1-.65 1.4-.65.4 0 .7-.2.7-.5 0-.25.2-.5.45-.5s2.2-1.8 4.35-4c3.35-3.5 4.1-4 5.6-4h1.7l-.2 2.8c-.15 1.55-.45 2.95-.7 3.1-.25.2-.7.8-1 1.35-.3.55-1.05 1.05-1.65 1.15-.65.1-1.05.55-1.05 1.1 0 .9-2.4 3-3.45 3-.3 0-.55.25-.55.5 0 .3-.35.5-.75.5s-.75.2-.75.4c0 .8-3.9 2.25-5.45 2-1.35-.2-1.55-.05-1.55.85 0 1.15-1.75 2.25-3.45 2.25-1 0-1.55 1.3-1.55 3.65 0 1-.25 1.35-1 1.35-.9 0-1 .35-1 2.75 0 2.1.15 2.75.75 2.75.55 0 .75.6.75 2.45v2.45l2 .35c1.85.3 2 .45 2 2 0 1.45-.2 1.7-1.3 1.85-1.55.2-2.5 2.45-3 7.35-.35 3.1-.35 3.15.7 2.6.55-.3 1.45-.55 2-.55s1.1-.45 1.25-1c.15-.55.7-1 1.25-1s1.1-.4 1.25-.95c.4-1.5 2.55-2.65 4.75-2.45l2 .15-2.25 3.75c-2.9 4.75-5.3 7.8-5.55 7.05s-3.1-.7-3.1.1c0 .35-.8 1.05-1.7 1.55-1.85 1-1.85.95-2.9 7.45-.5 3.15-.75 3.85-1.5 3.85-.7 0-.9.4-.9 1.7 0 .95.25 1.8.55 1.9.35.1.55 3.25.6 9.25.1 7.55.25 9.2.9 9.95.45.55 1.35 1.95 1.95 3.2 1.55 3.15 3 4.65 3.8 3.95.8-.65 1.7-.2 1.7.9 0 .4.5 1.45 1.1 2.3l1.05 1.6-1.9-1.75c-2.3-2.1-2.2-1.9 3.15 6 7.2 10.55 20.5 26.45 19.95 23.7-.2-.85-.05-1 .7-.85.55.15.95.55.95.95 0 .35.6 1.9 1.3 3.4 1.45 3.1 13.8 17.3 15.05 17.3.45 0 .65-.3.45-.75-.15-.4-.45-1.1-.6-1.5-.2-.55 0-.75.75-.75 1.25 0 2.8 1.3 3.25 2.75.15.55.75 1.55 1.3 2.25l1 1.25-.3-2.1c-.5-3.3.05-4.65 1.8-4.65 1.4 0 1.5.15 1.5 1.75 0 .95.45 3.95.95 6.75.75 3.65 1.4 5.55 2.45 7.1 1.8 2.6 7.8 8.45 13.6 13.2 2.35 1.95 7.45 6.2 11.4 9.45 11.3 9.35 28.85 22.8 29 22.2.1-.25-2.15-4.05-5-8.35-2.9-4.3-5.35-8.25-5.55-8.7-.15-.5-.5-.9-.75-.9s-2.1-1.95-4.05-4.35c-2-2.45-4.3-5.2-5.15-6.15-2.25-2.6-7.05-9.85-8.8-13.3-2.95-5.8-3.35-8.05-3.35-17.95 0-8.1.15-9.6 1.45-15.25 2.45-10.6 2.35-13.45-.9-25.75-2.85-10.75-1.95-21.45 2.65-30.25.75-1.5 2-3.85 2.75-5.25 1.85-3.5 2.35-6.8 1.75-10.9-.5-3-.45-3.55.35-4.4.5-.55 1.5-.95 2.4-.95 2.6.05 7.8 3 7.8 4.45 0 .3.35.55.75.55 1.85 0 6.75 10.35 6.75 14.2 0 1.25.2 2.3.5 2.4.55.2 1.4 7.6 1.45 13 .05 2.15-.3 6.3-.7 9.2-.65 4.25-.75 8.1-.6 18.65.3 14.55.25 14.9-2.95 23.55-1.15 3.1-1.4 4.6-1.4 8.5-.05 2.6.25 5.9.65 7.25.8 3 5.55 12.85 6.4 13.4.35.2 1.55 2 2.7 3.95 1.65 2.8 1.9 3.6 1.4 3.95-.55.35-.5.45.2.45 1.55 0 4.55 7.05 4.75 11.15.15 1.85.4 3.35.6 3.35.5 0 1.1 2.8 2.5 11.25 1 6.35 2.65 11.1 5.05 14.55.8 1.2 5 5.4 9.35 9.35 12.8 11.75 20.95 20.65 25.05 27.4 1.35 2.2 1.45 5.95.15 7.1-1.4 1.3-2.7 1.05-5.05-.95zm-160-218.7c.5 0 .95-.2.95-.5 0-.25-.35-.5-.75-.5-.45 0-.75-.45-.75-1.05 0-1.3-2-5.55-2.85-6.1-.35-.2-.65-.7-.65-1.1 0-.35-.2-.75-.45-.85-.25-.05-1.3-1.5-2.25-3.1l-1.8-3v3.25c0 2.35.35 3.9 1.25 5.85.7 1.5 1.25 3.6 1.25 4.65 0 1.85.1 1.95 1.5 1.95 1.15 0 1.5.2 1.5 1 0 .55.35 1 .75 1s.8.4.85.9c0 .45.15.1.25-.75.15-1.25.45-1.65 1.2-1.65zm-74.2-125.6c-.1-.65-.2-.25-.2.85-.05 1.1.05 1.6.2 1.15.1-.5.1-1.4 0-2zM186 387.25v-1.75h5v3.5h-5v-1.75zm18-2c0-1.2.25-1.75.75-1.75.45 0 .75-.45.75-1.25 0-1.15.15-1.25 2.5-1.25h2.5v2c0 1.9-.1 2-1.5 2-1.15 0-1.5.2-1.5 1s-.35 1-1.75 1c-1.65 0-1.75-.1-1.75-1.75zm-23.5-4.2v-2.4l2.25.05 2.25.05v4.75h-4.5v-2.45z"/>
    <path d="M183.5 360.4c0-1.5.25-1.75 2.4-2.6 1.3-.5 4-1.95 6.05-3.2 2.05-1.25 4.5-2.4 5.45-2.55l1.75-.3-3.45-1.45c-3.9-1.6-5.65-1.75-6.3-.6-.25.45-.75.8-1.15.8-.35 0-.75.2-.85.4-.2.6-6.25 4.6-6.85 4.6-.3 0-.55.2-.55.45 0 .45-5.05 2.85-9.4 4.5-2.5.9-2.75.95-5.35.15-2.25-.7-2.75-1.05-2.75-1.95 0-1.35.85-1.85 4.65-2.7 1.55-.4 2.85-.85 2.85-1.05 0-.25.55-.4 1.25-.4s1.25-.2 1.25-.5c0-.25.55-.5 1.25-.5.75 0 1.25-.3 1.25-.75 0-.4.55-.85 1.2-1.05.7-.15 1.35-.55 1.45-.9.15-.3 1.15-1.05 2.3-1.55 1.1-.55 2.05-1.15 2.05-1.35 0-.25.35-.4.75-.4s.75-.2.75-.5c0-.25.35-.5.8-.5 1.65 0 .3-1.2-2.5-2.2l-2.9-1.05-3.8 2c-2.1 1.1-4.15 2.3-4.5 2.6-.35.35-1.2.8-1.9.95-.65.15-1.2.5-1.2.7 0 .2-.75.65-1.6 1.05-.9.35-1.75.8-1.9 1-.45.65-4.7 2.3-8.65 3.4-3.65 1.05-3.8 1.05-6.15.15-1.75-.6-2.5-1.2-2.6-1.9-.15-1.15.7-1.6 5.4-2.9 2.75-.75 18.4-8.25 18.45-8.85.05-.2-1.75-.6-3.95-.95-4.7-.75-6.3-.3-11.25 3-1.65 1.1-3.3 2-3.6 2-.35 0-.65.2-.65.5 0 .25-.55.6-1.25.8-.7.15-1.25.45-1.25.65s-1.8 1.2-3.95 2.25c-3.85 1.8-4 1.85-5.5 1.05-1.25-.6-1.55-1.1-1.55-2.4 0-1.55.2-1.75 3.15-3.15 1.7-.8 3.2-1.55 3.35-1.7.15-.15 2.1-1.35 4.4-2.75 3.9-2.3 4.9-3.25 3.5-3.25-.35 0-2.05-.65-3.8-1.5l-3.15-1.45-3.35 1.6c-1.85.85-3.45 1.75-3.6 1.95-.55.65-8.15 4.95-10.9 6.1-5.7 2.35-6.3 2.45-9.35 1.5-2.25-.75-2.75-1.1-2.75-2 0-.9.5-1.3 2.65-1.95 3.25-1.05 12.35-5.25 13.25-6.1.35-.35 1-.65 1.4-.65.4 0 .7-.15.7-.35 0-.25 1.25-1.05 2.75-1.9 2.55-1.35 2.65-1.5 1.85-2.25-1.3-1.1-6.85-4-7.75-4-.45 0-3.9 1.35-7.7 3.05-8.8 3.9-13.2 5.4-16.65 5.8-2.75.25-2.85.25-4.4-1.55-.9-1-1.6-2-1.6-2.25 0-.2 1.65-.7 3.6-1.05 3.4-.6 19.35-6.85 19.4-7.55 0-.2-2.05-1.15-4.55-2.1l-4.6-1.8-9.5 3.8c-9.5 3.75-9.55 3.75-11.2 2.95-.95-.45-2-.8-2.4-.8-.5 0-.75-.5-.75-1.45 0-1.25.25-1.5 2.15-1.95 1.2-.3 4.45-1.55 7.3-2.75l5.1-2.2-4.05-.7c-3.3-.5-4-.8-4-1.55 0-.5-.35-.9-.75-.9s-.75.4-.75.9c0 .6-.65 1.1-2.2 1.55-1.25.35-3.65 1.3-5.4 2.15-1.75.8-4.85 1.9-6.9 2.4-2.05.5-3.95.95-4.25 1.05-.25.1-1.55-.2-2.85-.7-1.95-.75-2.4-1.15-2.4-2.1 0-1.3-.05-1.25 5.25-2.55 1.95-.45 4.4-1.2 5.5-1.6l2-.8-5.15-.65c-4.55-.55-14.65-3.4-16.55-4.6-1-.65-.3-2.85 1.05-3.25 2-.5 3.55-.35 9.4 1.15 8.1 2 11 2.35 11 1.35 0-.6.5-.8 2.15-.8 1.15 0 2.9-.2 3.9-.45 1.55-.35 2.2-.15 5.4 1.7 2.8 1.65 4.5 2.25 7.45 2.65 2.1.35 4.35.75 5 .9.75.2 1.1.1 1.1-.4 0-1-2.1-2.9-3.2-2.9-.5 0-1-.45-1.15-.95-.15-.6-1.05-1.2-2.45-1.6-3.75-1.1-2.9-2 2.65-2.75l2.6-.3 2.75 2.6c1.55 1.45 2.8 3.05 2.8 3.55 0 .55.35.95.75.95.45 0 .95.4 1.1.9.55 1.4 2.5 2.75 7.35 4.9 2.5 1.15 4.55 2.05 4.6 2 .35-.4-.55-3.8-1-3.8-.35 0-.95-.6-1.35-1.35-.4-.8-1.1-1.7-1.55-2.05-.5-.35-.9-1.05-.9-1.55s-.45-1.05-1-1.2c-.55-.15-1-.65-1-1.2 0-.85-2-2.15-3.35-2.15-.35 0-.65-.45-.65-1 0-1.1.6-1.2 4.9-.7 1.7.25 2.6.55 2.6 1 0 .4.45.7 1 .7s1.2.4 1.35.9c.2.45.6 1.05 1 1.25.35.2.65.8.65 1.3s.45 1.05 1 1.2c.6.15 1 .7 1 1.3 0 .6.2 1.05.45 1.05.2 0 1.45 2.2 2.7 4.9 2.1 4.55 2.5 5.1 4.95 6.65 1.45.9 2.75 1.85 2.8 2.05.1.25.4.4.65.4s-.15-1.55-.8-3.45c-.7-1.9-1.25-4-1.25-4.75 0-.8-.25-1.3-.75-1.3-.4 0-.75-.45-.75-.95 0-.55-.2-1.05-.45-1.15-1-.35-4.1-6-3.95-7.15l.15-1.2 2.6.9c2.85.95 5.15 3 5.15 4.6 0 .5.2.95.45.95.45 0 1.7 2.8 4.65 10.75 1.15 3.05 2.25 5.6 2.5 5.65.2.1.4.45.4.75 0 .55 4.45 2.85 6.9 3.6.8.25 1.1.1 1.1-.45 0-.45-.2-.8-.4-.8-.75 0-1.6-2.45-1.6-4.5 0-1.55-.2-2-.85-2-.6 0-1.55-1.25-2.8-3.65-1.8-3.45-2.4-6.35-1.35-6.35.25 0 1.85.95 3.45 2.15 2.75 1.9 3 2.25 3 4 .05 1.5.25 1.85 1.05 1.85s1 .35 1 1.8c0 2.05.75 3.7 1.7 3.7.35 0 1.15 1.15 1.85 2.55.65 1.4 1.65 2.85 2.2 3.25.9.55 8.3 2.2 10.1 2.2.6 0 .6-.1-.05-.8-.45-.4-.8-1.1-.8-1.5 0-.4-.2-.7-.45-.7s-.7-.75-1.1-1.6c-.35-.9-1.35-2.35-2.3-3.2-1.6-1.55-2.2-3.2-1.1-3.2 1.65 0 7.1 1.85 7.35 2.5.15.4.6 1.05.95 1.4.35.35.65 1 .65 1.4 0 .4.25.7.5.7.3 0 .5.35.5.75s.15.75.4.75c.2 0 1 1.15 1.8 2.55 1.1 1.95 1.9 2.75 3.65 3.5 3.5 1.5 4.05 1.15 1.95-1.35-4.15-4.9-5.8-7.3-5.8-8.4v-1.25l2.65.75c2.9.85 4.75 2 5.55 3.45.3.55.95 1.3 1.45 1.65.45.35.85.9.85 1.15 0 .25.25.75.55 1.1.3.35 1.35 2.2 2.35 4.1 1.65 3.1 2.15 3.65 4.55 4.85 1.5.8 2.85 1.3 2.95 1.15.4-.4-4.1-6.75-6.1-8.7-1.35-1.3-1.8-2.15-1.8-3.4 0-.9.2-1.65.4-1.65.45 0 6.3 3.55 9.45 5.8 1.15.8 2 1.75 1.9 2.1-.15.35.3 1.75 1 3.1.85 1.65 1.25 3.3 1.25 5 0 2.3-.1 2.5-1.2 2.5-.75 0-1.3.35-1.45 1-.15.6-.7 1-1.3 1-.85 0-1.05.3-1.05 1.75 0 1.25-.25 1.85-.85 2.05-2.25.7-4.15 1.95-4.15 2.75 0 .55-.5 1-1.35 1.15-2.5.55-8.35 1.3-10 1.3-1.55 0-1.65-.1-1.65-1.6zm24.5-93.9c0-2 0-2 1.95-2 2.95 0 3.55.4 3.55 2.3v1.7H208v-2zm-29-42.75c0-1.65.1-1.75 1.75-1.75 1.55 0 1.75-.15 1.75-1.25 0-1 .25-1.25 1.25-1.25.9 0 1.25-.25 1.25-1 0-.8.35-1 1.7-1 1.8 0 2.3.75 2.3 3.65 0 1.1-.2 1.35-1.25 1.35-.9 0-1.25.25-1.25 1 0 .8-.35 1-1.7 1-1.2 0-1.8-.25-1.95-.85-.15-.55-.25-.35-.3.5-.05 1.2-.25 1.35-1.8 1.35-1.65 0-1.75-.1-1.75-1.75zm11.65-7.5c-.75-.85-.85-3.75-.15-3.75.3 0 .5-.35.5-.75 0-.45.35-.9.75-1.05.4-.2.75-.6.75-1s.2-.7.45-.7.6-.55.75-1.25c.25-1.05.6-1.25 2.05-1.25 1.6 0 1.75.15 1.75 1.4-.05 2.35-.9 5.8-1.45 6-.3.1-.55.55-.55 1.05 0 .45-.25 1.1-.6 1.45-.8.8-3.5.7-4.25-.15zm-10.15-83c0-3.9-.15-4.75-.75-4.75s-.75-.65-.75-2.8c0-2.5.15-2.95 1.7-4.5 1.7-1.7 2.8-2.15 2.8-1.2 0 .3.35.5.75.5.8 0 .95 1.35.45 3.95-.25 1.05-.6 1.55-1.25 1.55-.55 0-.95.35-.95.75s.35.75.75.75c.6 0 .75.9.75 5.25V138h-3.5v-4.75z"/>
  </g>
  <g fill="#4a5b12">
    <path d="M331.85 452.45c-1-.85-1.85-1.85-1.85-2.25 0-.5.8-.1 2.25 1.15 2.1 1.75 2.75 2.65 1.85 2.65-.2 0-1.2-.7-2.25-1.55zm4.15 0c-.6-.35-.55-.45.25-.5.55 0 .7-.15.4-.3-.95-.35-.85-4.15.1-4.15.55 0 .75.6.75 2.45 0 2.65-.35 3.25-1.5 2.5zm-9.9-6c-2.9-3.4-4.05-5.35-2.35-3.95 1.8 1.5 5.8 6.55 5.65 7.05-.1.3-1.6-1.05-3.3-3.1zm8.35-1.8a1.89 1.89 0 010-.75c0-.25-.25-.4-.65-.4s-.8-.35-1-.75c-.15-.4-.1-.75.15-.75.45 0 2.55 2.15 2.55 2.65 0 .45-1 .45-1.05 0zm-13.55-4.4c-1.3-1.7-1.1-2.1.35-.75 1.25 1.15 1.6 2 .9 2-.25 0-.8-.55-1.25-1.25zm10.6.5c-.35-.4-.4-.75-.1-.75.25 0 .75.35 1.1.75.35.4.4.75.1.75-.25 0-.75-.35-1.1-.75zm-1.75-2.25c-1.05-1.15-.2-1.35.95-.2.9.85 1 1.2.4 1.2-.25 0-.85-.45-1.35-1zm-13.45-3.55c-1.3-1.65-2.3-3.1-2.15-3.25.35-.35 4.85 4.9 4.85 5.65 0 .9 0 .9-2.7-2.4zm11.45 1.05c-.7-.75-.75-1-.2-1 .4 0 1 .45 1.35 1 .35.55.4 1 .2 1-.25 0-.85-.45-1.35-1zm-6.9-7.35c-2.35-2.4-4.2-4.45-4.05-4.6.1-.15 2.3 1.8 4.85 4.35 2.5 2.55 4.35 4.6 4.1 4.6-.3 0-2.5-1.95-4.9-4.35zm-9.6.35c-.5-.55-.8-1.1-.65-1.25.15-.15.65.2 1.15.75.5.55.8 1.1.65 1.25-.15.15-.65-.2-1.15-.75zm-80.95-4.8c-1.9-.4-6.05-1.65-9.25-2.8-13.5-4.7-14.4-4.9-20.8-5.15-13.35-.5-21.9-4.9-33.1-17.05-4.4-4.8-7.8-7.2-10.25-7.2-1.9 0-7.7-1.4-10.9-2.55-5.8-2.1-10-7.4-10-12.55 0-3.3 1.1-3.85 4.3-2.15 2.95 1.55 4.65 1.55 11.2-.05 4.05-1 6.45-1.3 10.5-1.25 5.75 0 8.8.75 16.5 3.9 2.3.95 4.7 1.65 5.35 1.5 1.05-.2 1.15-.05 1.15 1.75 0 1.6.3 2.3 1.55 3.45 2.55 2.4 4.5 1.9 6.2-1.65.75-1.55 1.3-2.1 2-2.05 5.55.55 11.2-.45 17.4-3.1.65-.25.85-.1.85.65 0 .6-.4 1.25-.85 1.55-.75.4-.8.5-.15.75 4.8 1.7 6.9 2.65 10.75 4.85 2.5 1.45 4.85 2.6 5.25 2.55.4-.05 1.7.05 2.9.2 2.6.3 2.85 1.5.35 2-.95.15-1.75.5-1.75.7 0 .6 7.85 3.8 11.5 4.65 4.1 1 12.9 2.35 15.2 2.35 2.8 0 9.2 2.25 13.95 4.95 2.7 1.5 6.45 3.05 9.75 4.05 2.95.85 5.8 1.75 6.35 2 .55.25 1.7.55 2.5.75 2.5.45 4.9 2.15 4.6 3.25-.15.6.1 1 .7 1.15.55.15.95.5.95.85 0 .65-5.25.3-8.5-.55-.95-.25-2.8-.45-4.05-.45-3.7 0-13.4 2.75-20.3 5.8-8.7 3.8-14.3 5.2-22.15 5.45-4.4.15-7.25 0-9.7-.55zm-18.65-31.25c1.4-.8 2.8-2.5 2.85-3.5 0-1.15-1.8-3.35-3.55-4.2-1.4-.75-1.5-.7-2.95.75-1.85 1.9-1.95 4-.35 6 1.2 1.55 2.3 1.8 4 .95zM209 383c0-.25-.45-.5-1.05-.5-.55 0-.85.25-.7.5.15.3.65.5 1.05.5s.7-.2.7-.5zm-25.5-2c0-.55-.35-1-.75-1s-.75.45-.75 1 .35 1 .75 1 .75-.45.75-1zM315 422.75c-1.45-.8-4.4-3.75-3.7-3.75.25 0 1.6 1 2.95 2.25 2.65 2.35 2.75 2.55.75 1.5zm-13.75-3.55c-1.35-1.2-2.9-2.35-3.35-2.5-.5-.15-.9-.6-.9-1 0-.6.2-.6 1.05-.2.55.3 1.15.9 1.3 1.3.15.35.4.6.6.45.45-.25 4.35 3.6 4 3.95-.1.1-1.3-.8-2.7-2zm-6.6-12.8c-.25-.35-1.65-3.8-3.05-7.65-4.3-11.95-4.5-12.25-8.4-14.65-1.9-1.15-3.5-1.95-3.6-1.85-.1.1.3.9.9 1.75.6.85 1 1.65.85 1.8-.1.15-1.1-.95-2.15-2.4-1.1-1.45-4.4-5.55-7.35-9.15-8.55-10.25-13.15-17.45-15.1-23.75-1.05-3.4-1.65-16.85-.8-19.5.45-1.5.45-1.25.2 1.6-.35 4.5.1 6.55 1.95 8.65 1.75 2 7.4 6.45 7.75 6.1.4-.4-1.3-8.3-2.15-10-1.05-1.95-3.3-5.5-3.8-5.85-.15-.15-.9-1.25-1.55-2.45-1.15-1.95-1.3-2.05-1.8-1.25-.55.9-.6.9-.35-.05.15-.55.75-3.35 1.35-6.25.6-2.9 1.25-5.9 1.4-6.7.45-2.15-.3-9.3-1.4-12.8-.5-1.65-.75-3-.55-3 .55 0 1.35 2.5 2.2 7.1.9 4.75 1.65 6.15 4.9 9.7l2.6 2.8.6-1.7c.35-.9.65-3.55.65-5.85l.05-4.2-2.3-2.2c-1.25-1.15-2.55-2.15-2.9-2.15-.75-.05-6.5-5.15-6.75-6.05-.55-2.15-1-4.5-1.25-6.7-.25-2.25-.2-2.35.25-.8 1.25 4.15 5.4 9.55 9.95 13.05 2.25 1.7 2.65 1.8 2.25.5-.2-.6-.6-2.95-.95-5.25-.6-4.1-1.3-5.45-4.8-9.3-1.8-2-2.95-3.55-4.3-5.65l-1.45-2.3-.6 2.1-.65 2.15.3-2.95c.35-3.6 2-10 3-11.75.45-.8.65-.9.4-.3-1.7 5.1-1.8 6.3-.7 9.25.6 1.55 1.9 3.85 2.9 5.1 1 1.25 2.4 3 3.1 3.85.7.85 1.4 1.55 1.6 1.55.25 0 .4-.9.4-1.95 0-1.1.25-2.1.65-2.2.5-.2.5-.3 0-.3-1-.05-.85-4.05.1-4.05.4 0 .75-.35.75-.75s-.2-.75-.45-.75-.6-.4-.8-.9c-.15-.55-1.2-2.15-2.3-3.65-2.5-3.35-3.7-6-2.9-6.45.35-.25.25-.45-.25-.65-1.1-.45-1-1.65.2-3.35 2.65-3.7 3.65-8.35 2.95-13.15-.5-3-.45-3.55.35-4.4 1.7-1.85 5.5-.9 9.55 2.4 5.85 4.8 9.15 13.85 9.95 27.3.3 4.75.25 5.35-.45 5.35-.5 0-.85-.35-.85-.75s-.1-.75-.2-.75c-.65 0-10.9 7.25-12.3 8.7l-1.7 1.8.65 5.65c.3 3.05.75 5.75 1 6 .2.2 1.65-1 3.25-2.65s3.05-3 3.2-3c.2 0 1.3-.9 2.5-2 1.7-1.6 2.2-2.4 2.45-4.25.2-1.6.5-2.25 1.1-2.3.5 0 .6-.1.2-.3-1.1-.4-.8-3 .4-3.3.85-.25 1-.1.75 1.05-.15.75-.4 2.7-.55 4.35-.55 5.25-.7 5.6-2.2 5.9-.85.2-3.15 1.95-5.75 4.45l-4.3 4.15v4.9c0 3.95.15 4.8.65 4.5 1.6-.95 6.8-5.55 7.9-6.95 1.5-1.95 2.95-1.75 2.95.4 0 1.25-.15 1.45-.95 1.25-.65-.15-1.5.35-2.65 1.5-.9.95-3.15 2.95-4.95 4.45-1.85 1.5-3.6 3.35-3.85 4.1-.85 2.15-2.7 12.15-2.35 12.5.2.2.95-.35 1.65-1.25.75-.85 1.9-1.85 2.55-2.15 1.5-.75 1.8-1 5.6-4.45 3.3-3 3.95-4.55 3.95-9.4 0-2.45.15-3.15.75-3.15s.75.9.75 5.2c0 5.75-.2 6.8-1.45 6.8-.7 0-.7.1-.05.55.6.4.55.45-.3.35-.65-.1-2 .7-3.75 2.3-1.5 1.35-3.5 2.95-4.45 3.55-.95.65-2.7 2.05-3.85 3.1-1.75 1.6-2.15 2.35-2.15 3.7.05 2 1.3 9.45 1.7 9.8.15.15.8-.35 1.4-1.1.65-.75 1.85-2.1 2.7-2.95.85-.85 2.05-2.4 2.75-3.4 1.6-2.5 2.8-2.55 2.55-.15-.1.95-.5 1.75-.8 1.75-.75 0-7.3 7.9-7.3 8.75 0 .35.85 2.5 1.95 4.8l1.9 4.2 2.1-4.45c1.1-2.45 2.05-4.65 2.05-4.85 0-.25.3-.45.65-.45.4 0 .95.85 1.25 1.95.8 2.55.75 2.65-.35 2.3-.8-.25-1.2.3-2.45 3.35-1.2 2.85-1.4 3.85-1 4.85.8 2.15 3.5 6.1 4 5.95.8-.3 2.95-6.05 2.75-7.25-.3-1.75.75-1.35 2.15.75 1.7 2.55 1.75 2.6.45 2.5-1-.15-1.35.3-2.3 2.85-1.45 4-1.4 4.95.6 8.75l1.65 3.25.6-1.5c.9-2.35 1.6-6.75 1.4-8.85-.1-1.05 0-1.9.2-1.9.4 0 2 2.2 3.15 4.45.85 1.65.8 1.7-.15 1.45-.85-.25-1.1.25-2.05 3.95-.55 2.3-1.05 4.75-1.05 5.45 0 1.5 2.9 6.8 3.55 6.4.85-.5 2.05-5.8 1.8-7.8-.2-1.65-.1-1.95.55-1.8.85.15 1.55 2.6 2.3 7.6.3 1.9.2 2.3-.4 2.3-.5 0-.8-.45-.8-1.1 0-1.7-.8-.5-1.7 2.6l-.75 2.75 2.2 6.45c2.15 6.2 2.75 9.3 1.8 9.3-.25 0-.65-.3-.9-.6zm-11.45-26.75c-3.1-5.35-4.2-6.65-5.65-6.65-.8 0-2.4-.35-3.55-.75-3.15-1.1-3.25-.95-1.15 1.55 1.7 2.1 10.1 8.2 11.25 8.2.3 0-.1-1.05-.9-2.35zm-5-9.75c-.2-.35-1.45-2.25-2.75-4.2l-2.4-3.55-4.65-1.6c-2.55-.9-5.15-1.95-5.75-2.35-2-1.3-2.2-.75-.55 1.8 4.65 7.15 5.8 8.2 10.45 9.5 3.9 1.15 6.15 1.25 5.65.4zm-7.2-11.5c-.05-1.75-3.45-6.75-5.8-8.65-6.9-5.4-8.8-6.8-8.95-6.65-.35.35 1.2 7.4 1.9 8.75 1.2 2.2 2.8 3.45 7.1 5.35 4.25 1.9 5.75 2.2 5.75 1.2zm-5.75-30.1c.45-2.95.7-5.95.55-6.6-.15-.6-1.2-2.2-2.3-3.45-1.1-1.25-2.25-2.75-2.5-3.3-.9-1.65-1.3-1.1-2.15 2.95-1.1 5-1.05 5.65.3 8.5 1.4 2.9 4.8 7.85 5.15 7.5.05-.1.45-2.6.95-5.6zm4.75-42.9c.95-.85 3.9-3 6.6-4.75 2.65-1.75 4.9-3.45 5.05-3.8.25-.75-.5-7.85-.9-8.25-.15-.15-.75.2-1.4.7-.6.55-3.15 2.25-5.7 3.75-4.2 2.45-4.65 2.85-5.1 4.7-.75 2.95-1.25 9.25-.75 9.25.25 0 1.25-.7 2.2-1.6zm-2.5-12.8c.95-3.45.65-5.25-1.3-7.8-1-1.3-1.65-2.7-1.5-3.1.15-.35.2-.7.1-.7-.15 0-.55-.15-1-.3-.5-.2-1.05.35-1.75 1.75-.6 1.1-1.05 2.3-1.05 2.65 0 .65 2.35 5.2 4.25 8.25 1.15 1.85 1.55 1.75 2.25-.75zm10.4-5.4c1.15-.95 2.1-2.15 2.1-2.7 0-1.5-2.3-7.8-3.75-10.35l-1.4-2.35-.65 2.5c-.35 1.35-1.1 3.65-1.7 5.15-.55 1.5-1.25 4.3-1.5 6.25-.25 1.95-.6 4.3-.8 5.2l-.35 1.6 2.95-1.75c1.65-1 3.9-2.55 5.1-3.55zm-9.4-8.1c-.3-1.8-1-4.55-1.55-6.05-.75-2.15-.8-2.85-.3-3.15.45-.3.4-.4-.2-.4-.45 0-1.2-.5-1.6-1.1-.75-1.1-.8-.8-.55 3.85.25 5 1 8.75 1.75 8.75.2 0 .8.65 1.3 1.5 1.35 2.3 1.9.7 1.15-3.4zm3.55-5.5c.3-1.7.45-3.45.3-3.85-.35-.8-3.6-3-5.25-3.5-1.15-.35-1.15-.3.3 2.35 1.45 2.55 2.1 4.4 2.85 7.6.45 2.1 1.15 1.05 1.8-2.6zM275.1 398c-.6-.5-.9-1.05-.65-1.2.25-.2.8.15 1.2.7.35.55.85.85 1 .65.2-.15.35-.05.35.25 0 .85-.55.7-1.9-.4z"/>
    <path d="M286 393.6c-3.5-5.55-3.85-6.95-.55-2.15 3.05 4.35 3.65 5.45 3.45 6.05-.1.25-1.4-1.5-2.9-3.9zm-2.5 2.15c-.8-.95-.05-.95 1.2 0 .8.6.85.75.2.75-.4 0-1.05-.35-1.4-.75zm12 .25c0-.25.35-.5.75-.5s.75.25.75.5c0 .3-.35.5-.75.5s-.75-.2-.75-.5zm-15.25-2.75c-1.95-1.65-.95-1.6 1.25 0 .95.7 1.35 1.25.95 1.25-.4-.05-1.35-.6-2.2-1.25zm14.75-.75c0-.55.35-1 .75-1s.75.45.75 1-.35 1-.75 1-.75-.45-.75-1zm-32.25-4.55c-1.35-.8-2.9-1.45-3.45-1.45-1.35 0-4.15-1.85-4.45-2.95-.15-.75 0-.85.85-.7.8.2.55-.25-1.05-1.8-1.15-1.1-1.9-2.15-1.7-2.25.6-.4 2.55 1.15 2.55 2 0 .4.25.6.5.45.3-.15.65.05.8.45.15.45 2.1 2.05 4.25 3.6 3.7 2.6 4.75 3.55 4.4 3.95-.1.05-1.3-.5-2.7-1.3zm11.75.8c-.8-.95-.05-.95 1.2 0 .8.6.85.75.2.75-.4 0-1.05-.35-1.4-.75zm20-.25c0-.25.35-.5.75-.5s.75.25.75.5c0 .3-.35.5-.75.5s-.75-.2-.75-.5zm-44-5.5c0-1.05.5-1.2 2.4-.7 1.8.5 1.35 1.7-.65 1.7-1.4 0-1.75-.2-1.75-1zm14.6-1.6c-1.75-1.4-3-2.65-2.9-2.8.3-.25 2.2 1.15 5.3 3.85 2.9 2.5 1 1.7-2.4-1.05zm-48.1-4.35c0-1.3 2.25-2.05 4.35-1.4 3.1.95 1.6 2.35-2.45 2.35-1.55 0-1.9-.2-1.9-.95zm40.75-1.65c-1.7-1.45-4.55-3.85-6.4-5.35-1.85-1.45-3.3-2.8-3.15-2.95.3-.3 3.8 2.35 9.7 7.35 2.3 1.95 3.85 3.55 3.5 3.55-.35 0-2-1.2-3.65-2.6zm34.1.75c-.15-.25-.6-1.25-1-2.25-.6-1.4-.65-1.9-.2-1.9.75 0 2.35 2.55 2.35 3.7 0 .8-.75 1.1-1.15.45zm-46.2-10.6c-1.15-.95-1.45-1.55-.75-1.55.75.05 3.35 2.5 2.6 2.5-.4-.05-1.25-.45-1.85-.95zm40.2-1.4c-.6-.55-.4-1.15.35-1.15.4 0 .8.35 1 .75.25.75-.7 1.05-1.35.4zm-42.6-1.15c-1.15-.4-2.65-2-1.95-2 .25.05 1.15.6 1.95 1.25 1.6 1.3 1.6 1.45 0 .75zm-58.75-2.5c0-1.3.35-1.65 2.95-3 1.65-.8 4.4-2.4 6.1-3.5 4.55-2.95 7.45-2.75 7.45.5 0 1.55-.2 1.95-1.15 2.2-1.15.25-5.85 3.2-6.4 3.95-.15.25-1.3.55-2.45.7-1.85.25-2.1.2-1.85-.5.2-.5.15-.85-.1-.85s-.55.4-.65.9c-.2.6-.8.9-2.1 1-1.7.1-1.8.05-1.8-1.4zm3.05-.8c2.35-1.35 2.3-1.35-.65-.2-1.05.4-1.9.9-1.9 1.1 0 .6.2.5 2.55-.9zm4.95-.75l1.25-1-1.75.85c-2.15 1-2.35 1.2-1.45 1.2.4 0 1.25-.5 1.95-1.05zm7.4-4.6c.1-.55-.15-.85-.75-.8-.5 0-.65.15-.25.3.85.35.75 1.05-.25 1.35-.7.2-.7.2.1.15.55-.05 1.05-.5 1.15-1z"/>
    <path d="M165.05 360.55c-.4-.25-.55-.8-.35-1.35.3-.9.25-.9-.4-.05-.95 1.2-1.4 1.05-1.2-.45.15-1.15.7-1.5 4.9-3.05 4.65-1.75 9.4-4.4 14.9-8.2l2.75-1.95-1.45-.55c-.8-.3-2.3-.85-3.35-1.25-2.25-.8-1.75-1-11.4 4.6-6.7 3.9-9.6 5.2-14.85 6.65-2.95.8-3.6.85-5.35.2-2.4-.85-2.85-1.25-2.5-2.25.35-.9 1.65-1.5 6-2.7 2.6-.7 14.75-6.6 17.35-8.4.8-.6.6-.75-2-1.25-6.15-1.2-7.7-.8-15.15 4.1-2.4 1.55-6.2 3.7-8.45 4.8l-4.1 2-2.95-1.45c-3-1.55-3.75-2.5-1.95-2.5 1.15 0 9.9-4.45 14.75-7.55l3.35-2.1-2.45-.85c-1.3-.45-3.3-1.3-4.4-1.85l-2-1.05-6.5 3.75c-8.8 5.05-9.9 5.6-14.4 7.2-2.95 1.05-4.25 1.3-5.15.95-1.55-.6-1.5-1.3.2-2.25.75-.45.95-.7.45-.55-.5.15-1.1.3-1.35.3s-.8.35-1.2.8c-.75.7-.8.7-.8-.25 0-.7.55-1.3 1.65-1.75 5.7-2.5 10.2-4.7 15.3-7.65 3.2-1.8 5.85-3.35 5.95-3.4.25-.2-8.4-5.25-8.95-5.25-.35 0-4.45 1.7-9.15 3.8-11.65 5.15-17.65 6.6-19 4.55-.45-.7-.4-1 .2-1.35.65-.4.65-.5-.1-.5-.45 0-.9.3-1.05.65-.15.4-.35.3-.6-.3-.2-.5-.25-1-.1-1.15.1-.15 2.05-.7 4.3-1.2 2.2-.55 7.15-2.35 11-4 3.8-1.65 7.2-3 7.5-3 1.6 0 .1-1.05-3.3-2.25-2.15-.8-4.35-1.7-4.9-2.05-.85-.5-2.25-.1-9.85 3-7.8 3.1-8.9 3.7-8.9 4.65 0 1.1-.05 1.1-2.35-.35-1.3-.85-2.75-1.5-3.25-1.5-.6 0-.9-.35-.9-1.15 0-.95.5-1.35 2.65-2.1 1.4-.5 4.85-1.9 7.55-3.05l4.95-2.1-1.95-.35c-1.05-.2-2.75-.55-3.7-.8-3.25-.85-5.4-.5-10.1 1.6-4.1 1.8-12.5 4.4-14.25 4.45-.35 0-.65-.4-.65-.85 0-.65-.15-.7-.4-.3-.3.5-.75.5-2 .05-1.7-.65-2-1.45-.95-2.3.3-.25 2.75-1.05 5.35-1.75 2.6-.7 5.5-1.6 6.45-2l1.7-.7-3.45-.35c-8.4-.9-19.25-4.25-19.65-6.05-.1-.7.1-.85 1-.6 1.1.3 1.15.25.25-.4-.85-.65-.75-.7 1-1.05 1.45-.3 3.5.05 8.2 1.25 3.45.9 8.2 1.9 10.55 2.25l4.3.6-.25-1.2c-.15-.9-.05-1.15.35-.9.35.2.9.15 1.25-.15.45-.4.65-.35.65.2 0 .4-.2.6-.45.45-.2-.15-.4-.15-.4 0s.95.9 2.15 1.65l2.1 1.4-1.75.3c-1.75.3-1.75.3.45.4l2.2.05-1.15-1.25c-.65-.7-.95-1.25-.7-1.25s-.1-.45-.8-1c-.7-.5-1.05-1.1-.8-1.35.25-.2.55-.1.65.25.15.3.8.6 1.5.6.75 0 2.35.65 3.6 1.45 1.75 1.1 3.55 1.7 7.25 2.3 2.7.4 5 .7 5.1.6.3-.25-5.8-6.35-6.35-6.35-.8 0-.3-1.65.55-1.8 4.8-.95 4.35-1.05 7.55 2.1 1.65 1.6 3.85 4.05 4.85 5.4 1.45 2 2.55 2.8 5.85 4.35 2.2 1.05 4.65 2.05 5.4 2.25l1.45.35-1.35-2.7c-1.85-3.6-7.75-10.95-8.85-10.95-.55 0-.9-.4-.9-.95 0-1.2 1.8-1.25 3.25-.1.9.75.95.75.35-.05-.55-.7-.55-.8.25-.65.5.1 1.75.35 2.8.5 1 .15 1.85.55 1.85.85 0 .25.95 1.65 2.05 3.1 1.15 1.4 3.35 5.25 4.95 8.55 2.9 5.95 2.95 6.05 6.05 7.85 1.75 1.05 3.2 1.8 3.3 1.7.45-.45-3.8-10.4-6.35-14.8-1.25-2.2-1.35-4.5-.1-4.5.7 0 .75.1.1.5-.65.45-.35.7.6.55.2 0 .2.35.05.85-.15.45-.15.7.1.5.2-.2.75-.1 1.2.25.7.55.7.5.1-.3-1-1.3-.35-1.6 1.8-.75 1.3.45 1.9 1 1.95 1.65 0 .55.25 1.55.55 2.25 2.2 4.95 2.95 6.8 4.5 11 .95 2.6 2.35 5.5 3 6.45 1.2 1.55 5.7 4.05 7.4 4.05.95 0 .6-.85-3.8-9.8-1.9-3.85-3.45-7.55-3.45-8.15 0-1.1.1-1.1 2.4.6 1.55 1.2 2.3 2.1 2.2 2.7-.15.7-.05.75.4.3 1-.9 3.85 1.15 3.85 2.8 0 .7 1.35 4 2.95 7.3 2.75 5.6 3.05 6 4.7 6.4 2.15.55 9.2 1.8 9.35 1.65.05-.05-1-2-2.35-4.3-2.35-4-3.05-6-2.1-6 .2 0 .7.3 1.05.65.55.5.65.5.35 0-.45-.8-.05-.8 3.2-.1 1.5.3 2.5.8 2.5 1.2 0 .35-.2.75-.45.85-.25.1.8 2.2 2.25 4.65 2.55 4.25 2.85 4.55 5.5 5.65 1.55.65 2.9 1.05 3.05.95.1-.15-.95-1.9-2.35-3.9-1.35-2.05-2.5-4.25-2.5-4.95.05-1.2.05-1.2 1.5.5.8.95 1.5 1.55 1.5 1.3s.4-.1.9.25c.7.55.7.5-.1-.4-.5-.65-1.15-1-1.45-.8-.25.15-.35 0-.25-.4.15-.4-.05-1.1-.5-1.55-.7-.8-.65-.9.2-.9.5 0 1.2.2 1.45.4 1.65 1.15 5.4 6.4 7.2 10 2 4 2.2 4.2 5.15 5.6 1.7.8 3.2 1.35 3.3 1.25.15-.15-.55-1.55-1.55-3.2-1.05-1.6-1.85-3.55-1.85-4.3v-1.35l1 1.15c.5.65.95 1 1 .75 0-.25.4-.1.9.25.45.35.2-.05-.6-.95-1.5-1.6-1.5-1.6-.3-1.6 2.6 0 6.5 6.25 6.5 10.5 0 1.9-.2 2.5-.75 2.5-.4 0-.75.35-.75.75 0 .5-.5.75-1.45.75-1.75 0-7.6-1.75-10.15-3.05-1-.5-1.95-.75-2.1-.5-.4.65-11.25 7.8-13.75 9.05-5.75 2.9-10.35 4.05-12 3.05zm37.4-10.2c-.1-.1-.85-.35-1.7-.5-1.35-.3-1.4-.25-.35.25.6.3 1.1.8 1.1 1.1 0 .3.2.3.6-.1.3-.3.5-.65.35-.75zm.75-1.15c.45-.15.8-.55.8-.8 0-.3-.3-.3-.75.1-.4.3-1.2.45-1.85.25-.9-.25-1-.2-.4.2.9.6 1.15.65 2.2.25zm-39.3-11.05c-.5-.1-1.4-.1-2 0-.65.1-.25.2.85.2 1.1.05 1.6-.05 1.15-.2zm-47.6-20.4c-.55-.4-1.35-.75-1.75-.75-.45.05-.1.35.7.75 1.95.9 2.2.9 1.05 0zm3.2-.5c-.7-.4-1.45-.7-1.75-.7-.25 0 .05.3.75.7.7.4 1.5.7 1.75.7.3 0-.05-.3-.75-.7zm-23.05-5.4c-.8-.65-3.95-2.4-3.95-2.2 0 .35 3.15 2.35 3.7 2.35.25 0 .35-.05.25-.15zm14.05-2c0-.05-1.2-1.25-2.6-2.6l-2.65-2.5 2.5 2.65c2.3 2.4 2.75 2.85 2.75 2.45zm101.1 44.05c-.8-.8-.75-3.45.1-4.55.6-.8.7-.8 1-.05.5 1.25.35 1.7-.45 1.7-.9 0-.9.25-.25 1.55.3.5.9.95 1.35.95.75 0 .75-.1 0-.85-.6-.75-.65-1.05-.15-1.75.55-.75.65-.75 1.3.25.4.6.65 1.4.6 1.75-.1.3.35.6.9.6.6 0 .9.25.75.5-.45.7-4.45.6-5.15-.1zm4.1-2.3c-.9-.6-2.3-3.65-2-4.4.2-.55.85-.35 2.9 1.05 1.4 1 2.85 1.7 3.25 1.55.4-.15.65.1.65.7 0 .75-.35 1-1.45 1-.8 0-1.75.1-2.15.25-.35.15-.9.05-1.2-.15zm15.05-3.6c-.35-1.6-.75-1.8-1.55-1-.3.3-.9.4-1.3.25-.9-.35-3.15-3.6-3.95-5.6-.45-1.25-.5-1.25-1.6-.35-.95.85-1 .85-.4.05.6-.8.55-1.15-.35-2.75-.55-1-1.9-5-2.95-8.85l-1.9-7V310.5c-.05-6.75-.2-12.8-.45-13.5-.8-2.65-5.45-13-5.85-13-.2 0-.5.7-.7 1.5-.3 1.45-1.5 2.05-1.85.95-.1-.35.1-2.1.5-3.9.35-1.8.5-3.8.35-4.4-.25-1.05-.1-1.15 1.65-1.15 1.3 0 2.25-.35 2.85-1 .5-.55 1.2-1 1.6-1 1.35 0 .7-2.85-1.05-4.7-1.95-2.05-2.45-2.15-4.7-.8-2 1.25-3.35 1.3-3.5.15-.05-.5-.45-3.25-.9-6.15-1.05-6.9-.4-18.35 1.5-25.5 3.1-11.95 6.95-24.35 9.5-30.9 4.45-11.45 4.65-12.65 4.15-24.35-.1-2.5-.1-2.5 1.5-2.65 2.15-.2 5.35 1.7 8.6 5.15 3.1 3.3 3.1 3.25 8.35 19.25 5.25 16.05 5.85 18.6 5.85 24.5 0 4.75-.15 5.6-3.8 19.25-1.3 4.8-1.35 10.6-.2 15.25 1.35 5.6 2.1 17.9 1.45 24.85-1.05 10.55-2.6 16.7-8.35 33.15-2.65 7.6-2.7 7.85-2.6 12.65.1 3.5 0 4.85-.45 4.85-.3 0-.75.35-.9.8-.45 1.1-.4 1.15.7.85.55-.15 1-.15 1 0s.35 2.05.75 4.2c.9 4.75.9 4.65.05 4.65-.4 0-.85-.65-1.05-1.5zM211 266.5c0-.25-.35-.5-.75-.5s-.75.25-.75.5c0 .3.35.5.75.5s.75-.2.75-.5zm-.2 80.7c-.45-1.2-.35-2.7.2-2.7.25 0 .35.3.2.7-.15.4-.05.85.25 1.05.65.4.75 1.75.1 1.75-.25 0-.6-.35-.75-.8zm6.7.05c-.35-.45-.55-.9-.4-1 .15-.15.55.05.9.5s.55.9.4 1c-.15.15-.55-.05-.9-.5zm-1-10c-.95-.95-1.45-1.75-1.2-1.75.6 0 1.65.85 2.9 2.4 1.5 1.75.15 1.3-1.7-.65zm-9.45-1.05c-1.1-1.4-1.4-2.5-.6-1.95.5.3 2.1 3.25 1.8 3.25-.1 0-.65-.6-1.2-1.3zm5-3.9c-.4-.45-.4-.8-.1-1 .3-.2.75.15 1.05.7.6 1.15-.1 1.35-.95.3zm-9.5-1.25c-1.1-1.55-1.35-2.3-.6-1.8.5.3 2.1 3.25 1.8 3.25-.1 0-.65-.65-1.2-1.45zm-5.95-6.9c-1.15-1.3-1.95-2.45-1.85-2.6.3-.3 2.25 1.5 2.25 2.05 0 .3.5.9 1.15 1.4.6.5.95 1.05.8 1.25-.2.15-1.25-.75-2.35-2.1zm8.6.55c-.5-.7-1-2.25-1.2-3.4-.3-2-.25-2.1.8-1.9.85.15 1.25.75 1.7 2.5.3 1.3.8 2.75 1.05 3.25.75 1.45-1.4 1.05-2.35-.45zm-2.95-3.7c-.15-.25-.15-.5.05-.5s-.15-.6-.85-1.35c-1.15-1.35-1.15-1.35.45.05.85.85 1.6 1.65 1.6 1.9 0 .55-.9.5-1.25-.1zm-10.2-2.3c-1.2-1.55-1.4-2.6-.3-1.7.4.35.75.9.75 1.25 0 .4.3.75.65.9.3.1.45.35.3.55-.2.2-.8-.25-1.4-1zm-3.35-4.25c-.95-1.1-.95-1.1.2-.5.6.3 1.1.8 1.1 1.05 0 .75-.25.6-1.3-.55zm-2.2-2.9c-.6-.85-.8-1.55-.5-1.55.3 0 .7.4.85.9.2.45.55 1 .85 1.2.3.2.4.5.2.65-.15.15-.8-.4-1.4-1.2zm-3.35-4.65c-.95-1.25-1.2-1.9-.7-1.9.3 0 .55.3.55.7 0 .4.3.8.65.95.3.1.45.35.3.55-.15.2-.55.05-.8-.3zm97.75-5.75c-1.25-.3-1.15-1.65.1-1.65.65 0 1 .35 1 1 0 .55-.05.95-.1.95-.1-.05-.55-.15-1-.3zm-102.3-1.25c-.35-.35-.6-.95-.6-1.35 0-.55.25-.4.8.35.9 1.25.75 1.95-.2 1zm-2-2.9c-.4-.65-.4-1-.1-1 .3 0 .65.35.85.75.45 1.2-.05 1.35-.75.25zm3.85-3.8c-.6-.7-.55-.8.25-.65.55.1 1.05.5 1.2.85.25.85-.65.75-1.45-.2zm.5-2.5c-.65-.75-1.95-1.65-2.8-2-1.8-.75-2.2-1.35-.75-1.1.45.05 1.15-.05 1.5-.25.35-.25.6-.2.6.1 0 .3.35.55.75.55s.75.4.75.9.35 1.4.8 2c1.05 1.5.65 1.4-.85-.2zm-55.35-2.1c-3.8-.1-5.1-.3-4.95-.75.15-.4 2.25-.65 7.4-.7 7.55-.15 10.45.1 10.45.85 0 .5-5.9.8-12.9.6z"/>
    <path d="M114.85 287.75c-2.1-.3-4-.7-4.15-.9-.65-.6.35-1.25 2-1.25.95 0 2.25-.15 2.85-.35 2.25-.65 15.45-8 15.3-8.5-.3-.85-7.95-5.25-9.2-5.25-1.45 0-6.85 2.65-12.6 6.25-2.4 1.45-5.3 3.05-6.5 3.55l-2.2.85 1.15.95c1.8 1.45.8 1.6-2.4.3-1.75-.7-2.85-1.4-2.7-1.8.1-.3.5-.6.85-.6 1.1 0 6.65-2.65 11.75-5.6 2.6-1.5 5.95-3.35 7.4-4.1 1.45-.75 2.5-1.55 2.35-1.85-.4-.6-4.45-2.65-6.85-3.4-2.45-.8-4.55-.2-12.05 3.25-3.2 1.5-8.5 3.6-11.75 4.7-5.65 1.85-5.8 1.95-4.45 2.55 1.25.55 1.85 1.45.95 1.45-.45 0-9.7-4-11.95-5.2-.9-.45-1.65-1.05-1.65-1.3 0-.7.2-.65 3.5 1 1.75.9 3.75 1.5 4.9 1.5 3.3 0 12.55-3.25 24.25-8.5 2.2-1 2.35-1.15 1.5-1.7-.5-.35-3.35-1.5-6.35-2.5-6.6-2.3-7.55-2.3-17.3.7-7.8 2.4-13.1 3.5-16.55 3.5-1.35 0-2.45.2-2.45.45s1.6 1.25 3.5 2.25c1.95 1.05 3.5 2.1 3.5 2.4 0 .3-.4.35-.85.15-1.55-.55-7.1-3.75-7.4-4.2-.15-.25-1.25-.95-2.45-1.5-2.1-1.05-10.6-8.95-10.1-9.4.15-.15 2.25 1.55 4.75 3.75 5.2 4.6 5.95 4.8 12.8 4.1 3.85-.4 19.7-4.4 21.65-5.45.35-.2-1.5-1.7-5-3.95l-5.55-3.6H71.8c-3.05 0-7.8.35-10.55.75-2.75.35-6.95.85-9.35 1.05-4.1.3-5.1.7-3.9 1.45.3.15.5.5.5.8 0 1.05-.85.3-2.2-1.95-1.95-3.1-6-8.05-7.85-9.5-1.75-1.4-2.05-2.95-.45-2.1 1.25.65 5.8.3 14.05-1.05 3.2-.5 6.75-.95 7.9-.95 1.1 0 2.05-.15 2.05-.35 0-.55-8.65-6.1-10.5-6.8-1.1-.4-2.4-.4-5.1.1-6.05 1.15-12.1 1.25-15.5.3-1.65-.45-3.1-.7-3.25-.55-.15.15.2.85.8 1.6.55.75 1.05 1.15 1.05 1 0-.2 1.25.7 2.75 1.95 3 2.6 3.75 4 1.1 2.2-2.5-1.8-11.1-10.4-10.7-10.75.2-.2.8.05 1.3.5 1.35 1.2 9.05 2.85 13.3 2.85 3.65 0 9.75-1 9.75-1.55 0-.5-6.3-3.3-10.8-4.8-4.55-1.5-14.7-3.85-15.1-3.45-.15.15.1 1.45.55 2.85.9 2.8.75 4-.2 1.6-.95-2.45-1.15-5.15-.45-6.5.4-.75.8-1 1-.7.2.3 2.8 1.1 5.8 1.8 6.95 1.55 12.65 3.4 16.4 5.25 3.4 1.7 3.3 1.65 3.3.8 0-.35-1.85-2.4-4.05-4.5-3.6-3.4-4.3-3.85-6-3.85-1.05 0-2-.15-2.1-.35-.15-.25 1.9-.4 4.55-.4 2.7 0 4.25.05 3.5.15-1.75.2-1.75.55.25 2.1 2.55 2.05 4.4 4.1 6 6.7 1.25 2 2.7 3.2 7.55 6.4 3.35 2.15 6.15 3.65 6.2 3.4.25-.65-1.15-4.95-2.45-7.7-1.55-3.35-6.9-9.8-8.4-10.1-2.9-.65-3.85-1.15-1.55-.85 3.3.4 7.9 1.6 10.65 2.75 3.45 1.5 2.55 1.65-1.35.25-1.8-.7-3.3-1.05-3.3-.9 0 .2.55.9 1.25 1.55 2.25 2.1 4.3 5.9 6.25 11.4 1.05 2.95 2.05 5.7 2.25 6.15.15.45 1.8 1.95 3.65 3.25 1.8 1.35 4 3.1 4.8 3.85 1.15 1 1.6 1.2 1.7.65.3-1.35-2.3-11.65-3.9-15.5-1.5-3.6-1.85-4-5.15-6.35-1.9-1.35-3.15-2.45-2.75-2.45 1.5 0 6.9 4.2 17.15 13.3 2.2 1.95 5.75 4.9 7.95 6.6 2.15 1.7 3.65 3.1 3.3 3.1-.35 0-1.65-.8-2.85-1.8-2.3-1.9-3.1-2-2.2-.3.3.55 1.15 2.65 1.85 4.7.75 2 2 4.95 2.8 6.55 1.25 2.5 1.8 3.1 4.05 4.15 1.45.65 2.85 1.2 3.2 1.2.3 0 2.3.65 4.35 1.45 2.1.8 3.8 1.4 3.8 1.35 0-.45-5.15-9.75-5.85-10.6-.5-.6-2.65-2.1-4.8-3.45-2.15-1.3-3.75-2.5-3.65-2.65.15-.15 1.15.3 2.2 1 3 2 6.6 3.7 10.1 4.8 4.4 1.35 6.2 2.1 5.9 2.35-.15.15-1.65-.2-3.35-.8-1.75-.55-3.25-.9-3.4-.75-.3.3 3.6 7.85 4.95 9.55.9 1.15 9.7 6.25 10.8 6.25.6 0 .3-1.2-1.35-5.5-1.4-3.75-3.8-7.4-5.15-8-.85-.4-.35-.45 1.85-.2 3.85.4 9.55 2.6 12.2 4.7 1.8 1.45 2.25 1.6 3.1 1.1.85-.55.95-.45.95.9 0 1-.25 1.5-.75 1.5-.4 0-.75-.35-.75-.75s-.45-.75-1-.75c-.6 0-1.55-.55-2.15-1.15-1.25-1.35-7.35-4.35-8.85-4.35-.85 0-.8.35.9 3.65 1 1.95 2.3 5.05 2.85 6.8 1.1 3.5 1.75 4.15 8.35 8.2 4.05 2.45 4.6 2.4 3.4-.25-.55-1.2-1-2.5-1-2.95 0-.45-.7-1.75-1.5-2.85-.85-1.15-1.25-2.1-.95-2.1.3 0 .45-.35.25-.75-.45-1.2 1.1-.9 2.8.5 1 .85 2.1 1.25 3.45 1.25 1.8 0 1.9.1 1.35.95-.45.75-.95.9-2.2.7-1.45-.25-1.65-.15-1.45.65.9 4.2 2.7 7.4 4.7 8.45.75.35 4.4 1.4 8.1 2.25 3.7.85 9.8 2.55 13.55 3.85 6.35 2.1 6.85 2.4 6.8 3.5-.15 1.35-.3 1.4-1.4.4-.9-.85-10.25-3.5-19.35-5.55-3.25-.7-7.6-1.85-9.65-2.5-2.05-.65-4.3-1.2-5-1.2-.7 0-2.95 1.05-5 2.3-2.05 1.25-5.05 2.95-6.65 3.75-2.55 1.3-2.85 1.6-2.55 2.7.15.7.1 1.2-.1 1.2-.25-.05-2.2-.35-4.35-.7zm-24.3-34.85c-.8-1.75-2.3-5.4-3.35-8.15-1.55-4.1-2.4-5.5-4.7-7.95-2.45-2.6-6.45-5.8-7.2-5.8-.2 0 0 .8.4 1.75s1.35 4.7 2.1 8.35l1.35 6.65 2.5 2.35c2.05 2 8.6 5.9 9.9 5.9.2 0-.25-1.4-1-3.1zm-32.8-3.15c3.05-.45 8.25-.9 11.6-1.1l6.1-.3-1.85-1.5c-1-.8-3.3-2.5-5-3.75-4.65-3.3-4.4-3.3-25.95.2-.9.15-1.65.45-1.65.7 0 .25 1.25 1.8 2.8 3.45 2.8 3.05 2.8 3.05 5.65 3.05 1.55 0 5.3-.35 8.3-.75z"/>
    <path d="M107.75 286c.15-.25.65-.5 1.05-.5s.7.25.7.5c0 .3-.45.5-1.05.5-.55 0-.85-.2-.7-.5zm-17.6-5.65c-5.9-2.25-5.4-3.15.6-1.2 2.7.9 4.75 1.85 4.75 2.2 0 .9-.7.8-5.35-1zm75.3-1.45c-.85-1.7-2.1-4-2.8-5.05-.65-1.05-1.1-2.2-.95-2.5.1-.35.25-.25.25.25.05.45.25.9.45 1 .5.2 4.4 6.95 4.85 8.35.65 2.05-.25 1-1.8-2.05zM145 275.5c-1.65-1.3-.7-1.3 1.25 0 .85.55 1.15 1 .75 1-.4 0-1.3-.45-2-1zm43.1-1.25c-1.35-1.5-1.4-2.25-.2-2.25 1 .05 2.85 3.5 1.9 3.5-.35 0-1.1-.55-1.7-1.25zm-28.85-4.7c-1.95-1.05-2.7-2.05-2.75-3.5 0-.8.2-1.05.7-.9 1.15.45 1.3-.2.45-1.85-.65-1.3-.7-1.45-.05-.95.7.65 3.7 7.55 3.35 7.85-.1.1-.85-.2-1.7-.65zm11.2-3.85c-.05-3.1-.1-3.2-.4-1.35-.55 3.15-1.05 3.2-1.05.15 0-3.25-.35-3.05-.95.55l-.45 2.7-.05-4.1c0-2.25.4-7.25 1-11.15l1-7.1-4.4-6.5-4.4-6.55-.1-4.8c-.1-3.15.05-4.45.35-3.8.35.85.45.75.45-.6.05-2.45.75-2 1.75 1.1.45 1.55 2.2 4.8 3.9 7.3 3.35 5.05 3.9 5.1 3.9.45 0-2.5-.25-3.1-2.85-7-1.6-2.35-3.6-5.55-4.45-7.15-1.5-2.8-1.5-3-.9-5 .4-1.15.8-2.95.95-3.95.2-1.1.55-1.9.95-1.9.4 0 .8.8 1 1.9.15 1 1.35 3.75 2.65 6.05l2.4 4.25.3-3.75c.75-9.1.85-8.7-3.1-14.25-4.05-5.65-4.9-7.35-5.15-10.4-.1-1.2-.35-2.45-.55-2.75-.15-.35-.4-2.15-.5-4.05-.1-1.95-.35-3.75-.5-4-.15-.3.25-.5.9-.5 1.05 0 1.3.35 1.8 2.3.7 2.8 3.7 8.75 6.65 13.35l2.2 3.4.95-5 .9-4.95-4.8-7.2c-5.95-8.9-7.15-11.6-6.5-14.55.3-1.3.7-2.05 1.1-1.95.45.1.55-.15.35-.65-.3-.8.65-2.75 1.3-2.75.25 0 .4.7.4 1.55 0 2.25 3 8.3 6.65 13.4l3.25 4.55.35-2.9c.15-1.55.55-3.7.8-4.75.5-1.85.4-2-2.3-5.25-2.85-3.4-6.25-9.5-6.25-11.15 0-1.05 2.55-5.45 3.15-5.45.2 0 .5.4.65.9 1.1 3.55 5.3 10.7 5.9 10.05.1-.1.35-2.35.55-4.95l.35-4.8-2.3-2.75c-1.2-1.5-2.5-3.35-2.75-4.1-.7-1.8-.7-7.35-.05-7.35.3 0 .5.25.5.6 0 .3.1.45.25.3.15-.15.05-.8-.2-1.45-.25-.65-.5-.9-.5-.5-.05.4-.15.6-.3.45-.2-.15-.15-.85.05-1.6.35-1.45 1.7-1.8 1.75-.4 0 .45.75 2.4 1.6 4.25l1.6 3.45v-21.2l1.65-1.45c2.95-2.65 4.75-1.15 3.65 3.05-.6 2.4-.9 16.8-.35 17.4.35.3 5.3-7.35 5.3-8.2 0-.4.4-.7.9-.7.95 0 2.85 2.7 2.4 3.45-.15.25.2.6.85.8.95.3.95.4.25.6-.5.1-.9.6-.9 1.1 0 .45-.45 1.35-1 1.95-.55.6-1 1.3-1 1.6 0 .25-.2.5-.5.5-.25 0-.5.35-.5.75s-.2.75-.5.75c-.25 0-.5.3-.5.65 0 .3-.75 1.2-1.65 1.95-2.6 2.05-3.35 4.1-3.35 9.35 0 4.55 0 4.6 1.05 4 2.05-1.05 7.2-6.8 9.25-10.25 1.6-2.7 2.3-3.5 3.35-3.6.75-.1 1.35.05 1.35.35s-.3.55-.7.55c-.4 0-.85.4-1.05.9-.25.7-.2.75.3.25 1.05-1.05 1.85-.75 2.2.75.55 2.7-4.45 10-9.85 14.35-7.05 5.7-6.6 5.05-7.35 11-.4 2.9-.6 5.35-.5 5.5.15.1 2.45-1.2 5.2-2.9 5.1-3.1 9.15-6.75 10.5-9.4.45-.85 1.2-1.45 1.75-1.45s1-.2 1-.5c0-.25.4-.5.95-.5.8 0 .95.35.9 2.25 0 1.75-.2 2.25-.85 2.25-.45 0-1.25.5-1.8 1.15-.95 1.1-.95 1.1.1.2 1.15-.95 2.2-1.1 2.2-.3 0 .9-3.9 5.55-6.1 7.3-1.1.9-4.8 3.25-8.15 5.2-3.4 1.95-6.5 3.9-6.95 4.35-.7.8-4.15 16.45-3.7 16.9.35.3 5.4-2.25 8.9-4.55 1.8-1.15 4.6-3.5 6.25-5.2 1.65-1.65 3.25-3.05 3.6-3.05.35 0 .65-.2.65-.5 0-.25.45-.5 1-.5.9 0 1 .3.9 2-.05 1.5-.3 2-.95 2-.5 0-1 .2-1.15.45-.15.2.3.3.95.15 1.05-.2 1.2-.05.9.7-1.2 3.35-7.25 8.05-15.75 12.4-4.1 2.05-5.9 3.25-6.1 4-.15.55-.3 3.6-.3 6.7v5.65l3.8-2.65c5.25-3.65 10.05-8.2 12.45-11.85 1.75-2.65 2.2-3 3.65-3.05 1.4 0 1.6.15 1.6 1.4-.05 3.3-1.1 5.8-3.65 8.8-1.4 1.7-2.75 3.15-2.95 3.3-.15.15-1.05.9-2 1.65-2.25 1.9-8.85 6.85-9.1 6.85-.15 0-.95.7-1.85 1.6-1.7 1.7-2.15 3-2.7 7.35l-.35 2.7 2.4-1.4c1.35-.75 3.5-2.25 4.75-3.35 1.9-1.55 2.75-1.9 4.45-1.9 1.45 0 2 .2 1.85.65-.1.3-.75.55-1.4.45-1-.1-1.05-.05-.35.4.75.45.7.7-.45 2.8-1.4 2.45-5.15 5.55-8.65 7.05-1.25.55-2.5 1.3-2.8 1.7-.3.4-.95 3.4-1.4 6.7-1.4 9.65-2.3 14.9-2.55 15.15-.15.15-.3-1.3-.3-3.2zm4.3-22.7c.15-.3-.05-.35-.45-.2-.55.2-.8 0-.8-.6 0-.45-.15-.75-.3-.55-.45.4.15 1.85.75 1.85.25 0 .65-.2.8-.5zm1.5-15.4c.25-.65.1-.65-.75.15-1 .9-1 .9-1.1-1.3-.05-1.9-.1-2-.25-.55-.15.95-.1 2 .05 2.4.3.85 1.6.4 2.05-.7zm-3.4-15.95c-.15-.5-.25-.1-.25.85s.1 1.35.25.9c.1-.5.1-1.3 0-1.75zm24.65-18.8c.65-.25.65-.3 0-.3-.45-.05-2.45 1.7-4.5 3.85l-3.75 3.85 3.75-3.55c2.05-2 4.1-3.7 4.5-3.85zM180.1 182c-.1-.8-.3-1.5-.4-1.5-.1 0-.2.7-.2 1.5 0 .85.2 1.5.4 1.5.25 0 .35-.65.2-1.5zm10.7-24.1l1.45-1.65-1.6 1.45c-.9.85-1.65 1.55-1.65 1.65 0 .4.4.05 1.8-1.45zm-9.95-2.75c-.1-.8-.2-.25-.2 1.1 0 1.4.1 2 .2 1.4.1-.65.1-1.75 0-2.5zm2-3.75c-.1-1.2-.2-.25-.2 2.1s.1 3.3.2 2.15c.1-1.2.1-3.1 0-4.25zm0-8.75c-.15-.5-.25-.1-.25.85s.1 1.35.25.9c.1-.5.1-1.3 0-1.75zm-2-1.25c-.1-.65-.2-.25-.2.85-.05 1.1.05 1.6.2 1.15.1-.5.1-1.4 0-2zm1.5-10.25c-.1-.8-.2-.25-.2 1.1 0 1.4.1 2 .2 1.4.1-.65.1-1.75 0-2.5zm-48.45 124.5c-1-.25-1.2-1.4-.35-1.9.3-.2 1.3-.2 2.25-.05 1.25.25 1.7.6 1.7 1.3 0 1-1.35 1.25-3.6.65zm12.2-16.75c-.3-.7-1.25-2.7-2.1-4.35-.8-1.7-1.3-3.05-1.05-3.05.55 0 4.15 7.5 3.9 8.2-.15.3-.45-.05-.75-.8zm-2.45-10c-.3-.35-1.8-3.7-3.4-7.4-1.6-3.7-3.1-7.05-3.4-7.35-.55-.75-7.35-.9-7.35-.25 0 .25 1.3 1.7 2.9 3.25 4.15 4.05 4.85 4.9 6.1 7.1.95 1.7.7 1.55-1.8-1.25-4.6-5.2-8.35-8.65-12.55-11.65-4.4-3.15-8.15-6.55-8.15-7.4 0-.5 3.35 1.95 5.45 3.95 2.65 2.55 13.1 4.8 13.85 2.95.25-.75-4.45-10.45-5.55-11.35-.35-.3-3.25-1.2-6.35-2-6.2-1.6-10.2-3.25-15.65-6.45-3.05-1.8-3.5-1.95-3.8-1.2-.25.75-.4.7-1.1-.35-1-1.6-4.15-8.85-4.55-10.6-.2-.85-.1-1.4.2-1.4.25 0 .5.3.5.7 0 .4.6 2.1 1.3 3.75 1.15 2.6 1.75 3.3 4.4 5 6.05 3.95 14.5 7.5 21.95 9.25 1.85.45 1.75-.15-.85-5.8-3-6.35-4.2-7.5-9.4-8.85-6.85-1.8-11.05-3.45-14.55-5.8-1.8-1.25-3.5-2.25-3.75-2.25s-.35.75-.3 1.65l.15 1.6-.45-1.75c-.25-.95-.7-3.3-1-5.25-.3-1.9-.65-4-.8-4.6-.1-.65 0-1.15.2-1.15.25 0 .6 1.15.75 2.55.2 1.4.65 3.1 1.05 3.7 1.2 1.85 8.75 6.1 13.35 7.55 2.3.7 5.5 1.75 7.15 2.25l2.9.9-.25-1.1c-.5-2.2-5.9-13.6-6.8-14.4-.5-.4-3.5-1.6-6.6-2.6-3.15-1-7-2.6-8.65-3.6-1.6-.95-3.05-1.75-3.15-1.75-.15 0-.15 1.2 0 2.65.4 3.55-.35 1.6-1.15-2.9-.35-1.9-1.4-5.8-2.35-8.65-2.2-6.5-1.95-7.7.3-1.5.9 2.55 1.9 5.3 2.15 6.05 1 2.65 8.35 6.65 15.25 8.4 1.45.35 2.75.5 2.9.4.3-.35-3.55-10.7-4.55-12.2-.75-1.15-2-1.8-8.5-4.25-2.25-.85-5.3-2.4-6.85-3.5-1.5-1.1-3-2-3.25-2-.9 0-4.05-12.65-4.1-16.65 0-1.3.05-1.35 1.15-.6 2.4 1.55 13.55 4.75 14.25 4.05.4-.45-2.75-11.15-3.85-13.05-.55-1-2.3-2.25-5.3-3.85l-4.5-2.35-.55 2.1c-.45 1.9-.5 1.65-.45-2.55.05-2.55.25-4.75.45-4.95.15-.15.3.35.3 1.2 0 1.7.9 2.5 5.65 4.75l2.85 1.35v-1.15c0-.65-1.2-4.4-2.7-8.35-2.65-7.1-3.95-12-4.6-17.6-.25-2.15-.55-2.85-1.15-2.85-.55-.05-.4-.25.45-.75 1.75-1 5.2-.9 7.4.2 2.1 1.05 2.9 1.9 4.8 4.9 1 1.65 1.15 2.15.6 2.15-.45 0-1.35-1-2.05-2.25-1.95-3.25-4.4-5.25-6.6-5.25H89.9l.35 2.9c.7 5.7 1.8 9.95 4.35 16.95 1.45 3.95 2.75 7.15 2.9 7.15.7 0 6-9.6 6-10.9 0-1.7.95-1.15 2.95 1.6 1.8 2.55 1.7 3.95-.15 1.65l-1.15-1.45-3.1 5.45c-3.45 6.15-3.65 7.3-2.05 11.95.6 1.6 1.5 4.75 2.05 6.95 1.35 5.3 1.6 5.7 2.5 3.9.4-.75 1.55-2.85 2.55-4.65 2.55-4.55 5.5-13.35 4.85-14.6-.95-1.75.75-.95 2.2 1.05 1.5 2.15 1.6 2.55.8 2.55-.25 0-.35-.25-.15-.55.2-.35-.05-.5-.55-.35-.65.1-1.1.95-1.55 3.15-.65 3.2-2 6.3-5.8 13.25l-2.35 4.3 1.2 4.45c1.8 6.5 2.75 9.25 3.25 9.25.25 0 1.2-1.05 2.05-2.35.9-1.35 2.35-3.3 3.25-4.4 3.3-4.15 8.1-14 7.5-15.5-.55-1.45.85-.5 2 1.35 1 1.6 1.05 1.75.25 1.55-.75-.2-1.1.3-1.75 2.45-1.3 3.9-3.5 7.85-7.35 13.05-1.9 2.55-3.8 5.35-4.25 6.3-.75 1.6-.75 1.8.75 5.75.9 2.2 1.85 4.7 2.2 5.5l.65 1.4 1.5-2.4c.85-1.35 3.3-4.7 5.5-7.45 5.8-7.25 7.35-9.6 7.05-10.45-.2-.5-.05-.8.4-.8.85 0 1.05.3 1.45 2.35.25 1.15.15 1.6-.35 1.75-1.05.25-11.65 14.1-13.45 17.6-.95 1.8-.95 2.05-.2 4.35.45 1.35 1.85 4.8 3.15 7.7 1.7 3.9 2.45 5.1 2.9 4.75.9-.75 8.45-13.9 9.4-16.4.5-1.15.85-2.9.85-3.85 0-2.8 1.25-2.15 2.15 1.15.45 1.55.95 3.25 1.1 3.75.25.5.1.85-.25.85s-.95-.4-1.3-.85c-.6-.8-.7-.75-1.25.85-.9 2.45-3.35 6.95-6.7 12.25s-3.35 5.4-.25 12.45c3.1 7.1 2.8 6.95 6.1 2.4 3.4-4.7 6.9-11.4 7-13.4.05-.8-.05-2.05-.25-2.8-.65-2.5.8-1.55 2.15 1.35 1 2.05 1.15 2.75.65 2.85-.4.1-1.4 1.85-2.3 3.9-.9 2.1-3.15 5.9-4.95 8.5-1.8 2.6-3.45 5.25-3.6 5.85-.25.8.4 2.6 2.3 6.4 1.45 2.9 2.85 5.2 3.1 5.1.25-.1 1.45-2.05 2.65-4.4 2.2-4.3 4.85-13.3 5.1-17.3.1-1.55 1.5-.45 2.25 1.7 1 2.95 1 3.3-.15 3-.8-.2-1 .3-1.7 3.85-.6 2.95-1.65 5.65-3.85 9.95-1.65 3.25-3 6.2-3 6.55 0 .4 1 2.9 2.2 5.6 2.35 5.4 5.3 13.4 5.3 14.5 0 .85-.7.9-1.35.1zm-36.9-84.25c-.6-2.65-4.25-13.9-4.7-14.55-.2-.4-2.95-1.3-6.1-2.05-3.15-.8-6.55-1.8-7.65-2.25l-1.9-.8.3 2.4c.2 1.3.8 4 1.4 6 1 3.5 1.15 3.7 4.25 5.9 2.95 2.1 4.7 3 10.9 5.55 3.5 1.45 3.95 1.45 3.5-.2zm39.75 75.85c0-.7.35-1 1.05-1 .75 0 .95.2.75.8-.15.45-.3.9-.3 1 0 .1-.35.2-.75.2s-.75-.45-.75-1zm.5-4.2c0-.75.35-1.3 1-1.45 1.1-.3 1.15-.15.7 1.55-.4 1.5-1.7 1.45-1.7-.1zm-120.85.35c.75-.1 1.95-.1 2.75 0 .75.1.1.2-1.4.2s-2.15-.1-1.35-.2zM147.5 211c0-.25.35-.5.75-.5s.75.25.75.5c0 .3-.35.5-.75.5s-.75-.2-.75-.5zm0-8.25c0-1.65.2-2.25.75-2.25s.75.6.75 2.25-.2 2.25-.75 2.25-.75-.6-.75-2.25z"/>
    <path d="M112.2 200.9c-3.65-3.75-7.7-8.75-7.7-9.5 0-.85 1.45.6 3.65 3.6 1.1 1.5 3.25 3.9 4.75 5.35 1.5 1.45 2.6 2.85 2.5 3.15-.1.3-1.55-.9-3.2-2.6zm36.3-2.4c0-.25-.3-.5-.7-.5-.6 0-1.3-2.3-1.3-4.35 0-1.3 1.45-.6 1.7.85.15.85.45 2.2.6 3 .15.85.15 1.5 0 1.5s-.3-.2-.3-.5zm-10.7-29.8c-.4-1.1-.4-1.2.4-1.2.6 0 1.3 1 1.3 1.8 0 .6-1.45.1-1.7-.6zm-.8-2.2c0-.25.35-.5.75-.5s.75.25.75.5c0 .3-.35.5-.75.5s-.75-.2-.75-.5zm-.7-1.8c-.4-1.1-.4-1.2.4-1.2.6 0 1.3 1 1.3 1.8 0 .6-1.45.1-1.7-.6zm-1-2.5c-.4-1.1-.4-1.2.4-1.2.6 0 1.3 1 1.3 1.8 0 .6-1.45.1-1.7-.6zm-3.95-12.8c-.35-1.35-.15-1.6.9-1.25.95.4 1 2.35.05 2.35-.35 0-.8-.5-.95-1.1zm-.85-2.9c0-.25.35-.5.75-.5s.75.25.75.5c0 .3-.35.5-.75.5s-.75-.2-.75-.5zM85.6 118c-.05-1.25.15-3.15.35-4.25l.45-2v1.75c0 .95-.15 2.9-.4 4.25l-.35 2.5-.05-2.25zm34.4-1c-.3-.55-.35-1-.1-1 .25 0 .85.45 1.35 1 .8.9.8 1 .1 1-.45 0-1.05-.45-1.35-1zm-10-14.25c-.5-.6-.5-.75.15-.75.4 0 .85.35 1.05.75.15.4.1.75-.15.75s-.7-.35-1.05-.75zM85.9 99.5c-1.75-7.65-2.5-16.05-1.5-16.65.2-.15.3 1.05.2 2.6-.1 1.7.3 5.15.9 8.2.6 2.9 1 5.7.85 6.2-.15.7-.25.65-.45-.35z"/>
  </g>
  <g fill="#5f6e27">
    <path d="M169.8 361.75c-2.2-.45-4.1-.9-4.2-1-.25-.25.75-.7 7.65-3.55 1.95-.75 6.65-3.5 10.5-6.05 3.8-2.55 7.25-4.65 7.6-4.65.4 0 1.55.45 2.65 1 1.05.55 3.2 1.45 4.75 2.05 1.5.55 2.75 1.25 2.75 1.55 0 .3.3.3.75-.1.4-.35.75-.95.75-1.35 0-.5.35-.7 1-.5.75.2 1 0 1-.7 0-1.5-2.35-5.9-4.55-8.55-1.05-1.3-1.95-2.55-1.95-2.85 0-.25-.4-.75-.85-1-.75-.45-.75-.5-.1-.55.8 0 4.45 2.5 3.65 2.5-.25.05.25.35 1.05.7 2.05.9 9 5.95 9.05 6.55 0 .3.25 1.15.6 1.9 1.15 2.7 1.25 3.85.4 3.85-.95 0-1 .25-.3 1.45.3.65 1.1.9 2.75.95 3.25.05 10.95 2.5 12.3 3.9 1.55 1.65 1 1.9-2.1.85-3.5-1.15-11.25-1.25-11.95-.15-.65 1.05-1 .45-1.35-2.45-.2-1.8-.5-2.55-1.05-2.55-.45 0-1.15-.3-1.55-.7-1.85-1.6-5.35-.85-6.85 1.45-.7 1.05-.95 1.9-.65 2.3.25.4.45 1.4.45 2.25 0 1.3-.2 1.6-1.15 1.6-.6 0-3.45.35-6.3.85-2.8.45-5.25.75-5.4.6-.4-.45.35-1.35 1.15-1.35.4 0 2.1-.95 3.8-2.05 1.65-1.15 3.6-2.25 4.35-2.4.7-.2 1.35-.75 1.45-1.2.3-1.5-2-.95-5.75 1.35-1.95 1.25-4.75 2.75-6.2 3.35-3.3 1.4-3.35 1.4-2.45 1.95 1.3.8.2 1.05-5.8 1.25-4.05.15-7.2 0-9.9-.5z"/>
    <path d="M157.25 358.05c-3-1.05-6.05-2.15-6.75-2.45l-1.25-.5 1.25-.5c.7-.3 3.15-1.1 5.5-1.85 2.75-.85 6.95-2.9 12.05-5.8 10-5.7 10.25-5.8 13.6-4.7 3.55 1.15 7.35 2.8 7.35 3.2-.05.55-13.4 9.05-16.2 10.3-1.5.65-3.95 1.55-5.55 2-1.55.45-2.95 1.15-3.1 1.55-.35.95-.7.9-6.9-1.25zM145 353.5c-1.25-.5-3.1-1.35-4.15-1.85-2.25-1.15-2.05-1.45 2.6-3.65 1.65-.8 5.35-2.9 8.25-4.75 6.5-4.05 8.1-4.75 11.15-4.75 2.55 0 10.95 1.4 12.1 2 1.2.65-16.1 9.8-21.2 11.2-4.05 1.15-5.75 1.85-5.75 2.35 0 .6-.4.55-3-.55zm75.5-.5c-.7-.25-2.15-.7-3.3-.95-1.6-.45-2.2-.9-2.85-2.3-1.55-3.25-.95-3.55 2.45-1.2 1.25.85 2.55 1.4 2.95 1.25.65-.2 1.65.85 2.95 3.1.4.7-.35.75-2.2.1zm-85.5-4.3c-.95-.45-4-1-6.75-1.25-5.95-.5-10.35-1.35-10-1.95.15-.2.85-.55 1.6-.75 3.2-.8 8.95-3.4 13.6-6.2 2.7-1.65 6.4-3.75 8.2-4.6l3.3-1.65 3.9 1.85c2.15 1 4.95 2.05 6.3 2.4 1.3.3 2.35.7 2.35.9-.05.5-20.35 12.35-20.75 12.05 0-.05-.8-.4-1.75-.8zm63.65-.9c-4.65-1.75-5.45-2.45-7.6-6.7-1.05-2.15-3.45-5.7-5.25-8-1.85-2.25-3.25-4.1-3.2-4.1.4 0 7.85 2.5 9.55 3.25 1 .4 1.85 1.05 1.85 1.4 0 .35.7 1.3 1.55 2.15 3.5 3.3 8.45 11.5 7.7 12.7-.45.7-1.1.6-4.6-.7zm-85.9-4c-2.6-1.25-7.75-5.4-9.95-8.1l-1.3-1.55 2.65-.3c3.35-.4 7.9-2 16.45-5.75 8.55-3.8 9.6-4 12.4-2.6 2.7 1.35 8.75 5.15 9.05 5.6.2.35-9.55 6.15-15 8.85-1.55.8-4.55 2.05-6.65 2.8-2.15.75-3.9 1.6-3.9 1.8 0 .75-1.1.5-3.75-.75zm71.8-2.2l-4.65-1.85-4.2-6.65c-2.3-3.7-3.85-6.6-3.5-6.45.4.15 2.8.65 5.3 1.15 2.55.45 4.35 1 4.05 1.2-.45.25-.4.5.15 1 2 1.6 7 9.1 8.3 12.4.65 1.5.2 1.4-5.45-.8zm-15.05-3.9c-3.45-.65-6.75-1.4-7.4-1.7-.85-.35-2.3-2.85-5.15-8.75-2.15-4.55-3.95-8.4-3.95-8.5 0-.6 1.25-.05 4.95 2.2 2.15 1.3 5.3 2.9 6.9 3.5 1.6.65 3.45 1.45 4.15 1.8 1.2.65 7.9 10.85 7.95 12.15.05.75.25.75-7.45-.7zm-14.5-3c-4.3-1.15-7.85-3.05-8.9-4.85-.55-.9-1.85-3.85-2.85-6.6-2.45-6.7-4.85-11.8-6.55-14-.75-.95-1.2-1.9-1.05-2.1.4-.4 4.6 1.35 7.15 2.95 3.05 2 7.7 5.7 7.45 6-.15.15.6 1.95 1.7 3.95 1.75 3.25 7.05 14.7 7.05 15.25 0 .35-1.15.15-4-.6zm-58.15-5.4c-2.15-2.2-3.7-4.1-3.5-4.3.95-.8 18.9-7.55 20.1-7.6.7 0 4.1 1.15 7.55 2.55s6.3 2.55 6.35 2.55c.1 0 .15.2.15.45s-1.3.95-2.85 1.55c-1.55.6-5.9 2.35-9.6 3.95-3.75 1.6-8.35 3.2-10.3 3.55-1.9.35-3.6.8-3.75.95-.15.15-2-1.5-4.15-3.65zm45.4-.4c-.55-.3-2.95-1.75-5.35-3.25l-4.35-2.7-2.85-5.85c-1.75-3.6-4-7.3-6-9.75-1.75-2.2-3.15-4.1-3.05-4.2.3-.25 9.7 1.75 12.05 2.6 1.1.4 1.75.7 1.4.75-.4 0 .1 1.15 1.25 2.9 1 1.55 2.3 3.85 2.95 5.1 1.5 3.15 5.3 13.9 5.1 14.45-.1.3-.55.3-1.15-.05zm-58.5-5.15c-7.8-1.55-9.75-2.15-9.75-3 0-.4.6-.85 1.4-1.05 5-1.15 7.55-1.9 9.55-2.9 1.25-.65 3.85-1.7 5.75-2.35 3.2-1.05 3.7-1.1 7.5-.55 2.2.35 5.75 1 7.8 1.5l3.75.95-1.75.8c-4.1 1.9-13.9 5.75-15.35 6.1-.95.2-1.65.65-1.65 1.05 0 .85.05.85-7.25-.55zm38.05-5.4l-6.95-3.05-3.35-4.05c-1.85-2.2-4.2-4.75-5.2-5.65-1-.9-1.7-1.85-1.6-2.05.35-.55 10.2-1.15 12.25-.75 2.95.6 9.7 10 12.6 17.6.6 1.55.25 1.45-7.75-2.05zm-53.55.35c-3.35-2.25-4.3-3.3-5.8-6.45-1.7-3.5-1.95-6.05-.55-5.55.45.15 3.45 1.2 6.65 2.3 4.3 1.45 7.5 2.2 12.5 2.8 3.7.45 6.9 1 7.15 1.25.7.65-5.5 3.3-11.05 4.7-2.7.65-4.95 1.45-5.05 1.75-.3.85-1.8.55-3.85-.8zm38.5-5c-1.35-.4-4.3-1-6.5-1.35-3.1-.5-4.85-1.15-7.6-2.75-2-1.2-3.65-2.35-3.65-2.55 0-.45 6-2.2 10.1-3 1.9-.35 2.65-.25 3.75.45 1.6.95 6.35 5.95 8.1 8.4l1.1 1.6-1.4-.05c-.75-.05-2.5-.4-3.9-.75zm-26.45-3.75c-8.25-1.3-16.3-3.65-16.3-4.75 0-.3 1.65-.1 9.5 1.05 2.6.4 6.55.75 8.75.8 3.65.05 4.25.2 6.65 1.8 1.4.95 2.6 1.8 2.6 1.95 0 .45-5.55.05-11.2-.85zm77.2-21.65c0-.1.55-.3 1.25-.4.7-.15 1.25-.05 1.25.15 0 .25-.55.45-1.25.45s-1.25-.1-1.25-.2zm30.8-13.85c-.4-.6-.95-.9-1.25-.7-.35.15-.55-.1-.55-.7 0-.8.3-1.05 1.3-1.05 1.05 0 1.25.2 1.05 1-.15.55-.05.9.2.7.25-.15.45-.15.45 0 0 .1.15.55.3 1 .45 1.15-.6 1-1.5-.25zm-17.8.05c0-.25.35-.5.75-.5s.75.25.75.5c0 .3-.35.5-.75.5s-.75-.2-.75-.5zm1.05-4.1c0-.8-.3-1.4-.6-1.4-1.45 0 1.15-22.55 2.7-23.6.3-.25 1.85-1.1 3.35-1.9 1.5-.75 3.5-2 4.45-2.7 1.6-1.2 3.55-1.75 3.55-1 0 .15-1.3 2.15-2.95 4.35-3.95 5.5-5.9 8.75-6.8 11.4-1.45 4.1-2.85 9.7-3.25 12.95-.2 1.8-.4 2.65-.45 1.9zm-4-10.15c-.05-8.15-.25-9.5-2.15-14-1.95-4.55-4.25-12.15-4.65-15.25l-.35-2.75 1.2 1.6c3.55 5 9.4 14.65 9.4 15.65 0 .8-2.4 16.85-3 20.25-.25 1.3-.4-.65-.45-5.5zm5.95-18.6c0-.75.25-3.35.55-5.85l.6-4.55 2.5-2.4c1.4-1.3 4.2-3.6 6.3-5.05 3.55-2.55 9.1-7.7 10.8-10.1.95-1.4 2.9-2 2.55-.8-.15.45-.6 2.45-1 4.35-1.8 8.6-6.65 18.45-8.75 17.9-.55-.15-1.95.7-3.6 2.1-2.2 1.9-8.7 5.75-9.7 5.75-.15 0-.25-.6-.25-1.35zm-5.9-5.7c-4.7-6.65-6.05-9.85-6.15-14.45-.15-4.3 1.45-10.75 2.05-8.45.55 2 2.5 5.45 5.7 10.2l3.05 4.5v4.5c-.05 4.7-.55 8.25-1.15 8.2-.2 0-1.8-2.05-3.5-4.5zm6.95-14.6c0-3.9.2-8.1.35-9.35l.35-2.25 6.25-3.25c7.75-4 10.35-5.85 13.1-9 2.9-3.35 3.4-3.25 3.35.65-.05 3.5-.75 12.1-.85 10.75-.15-1.6-1.35-.9-3.1 1.95-2.85 4.55-5.15 6.8-12.5 12.35l-7 5.3.05-7.15zm-5.4-1.45c-4.9-7.95-4.9-7.9-4.8-14.55.1-4.25-.15-7.25-.85-10.7-1.3-6.15-1.25-6.4.3-3.4 1.4 2.65 4.6 7.5 7.35 11.15 1.8 2.45 1.7 1.8 1.45 15-.05 3.6-.25 6.6-.5 6.6-.2 0-1.5-1.85-2.95-4.1zm6.35-14.4c0-2.35 2.8-17 3.55-18.7.35-.7 3-2.55 7.1-4.85 5.45-3.05 7.3-4.4 10.7-7.8 2.2-2.3 4.3-4.15 4.6-4.15 1.05 0 .65 2.85-2.1 16.45-.75 3.8-1.4 5.8-1.9 5.95-.35.15-2.7 2.2-5.2 4.55-3.8 3.6-5.5 4.8-10.6 7.45l-6.15 3.15v-2.05zm-4.1-5.85c-3.65-5.1-7-11.2-8.2-14.95-.7-2.15-1.5-4.2-1.8-4.55-.8-1-.05-8.95 1.15-11.6.5-1.2.95-2.55 1-3 0-.45.35.45.75 1.95.9 3.3 2.8 6.8 6.8 12.4 3.5 4.95 4.9 7.5 4.9 8.85 0 1.6-2.1 12.45-2.5 12.9-.2.25-1.15-.65-2.1-2zm1.25-20.75c-4.45-6.25-5.2-7.6-6.9-12.1l-1.15-3.1 1.25-2.5c2.4-4.85 4.65-7.45 4.65-5.4 0 .4.2.65.45.5.25-.2.35.1.2.65-.35 1.35 1.9 5.4 5.4 9.8l3.1 3.8-.8 4.1c-.45 2.25-.95 5.1-1.1 6.35-.65 4-.85 3.95-5.1-2.1zm7.35 3.25c0-2.7 2.15-15 2.65-15.4 9-7.2 12-10.25 14.4-14.75.85-1.65 1.9-3 2.25-3 .75 0 2.05 5.45 2.75 11.5.55 4.65.3 6.5-.8 6.5-.4 0-1.65 1.25-2.75 2.75s-3.2 3.65-4.6 4.8c-2.3 1.8-13.05 8.45-13.65 8.45-.15 0-.25-.4-.25-.85zm-3.35-18.5c-2.35-3.4-3.5-5.55-4.65-8.65-.8-2.15-.75-2.35.25-5 .6-1.5 1.3-3.2 1.5-3.75.2-.55.35-2 .3-3.25l-.1-2.25 1.45 3c.8 1.65 2.1 3.55 2.85 4.25 2.35 2.15 2.7 3.6 2.25 9.75-.25 3.05-.45 6.25-.45 7.15-.05 2.4-1.05 2-3.4-1.25zm5.75.6c-.1-.1 0-1.95.15-4.1.2-2.15.4-5.65.4-7.8.05-3.9.05-3.9 2.2-6.25 2.2-2.35 5.9-7.65 6.5-9.2.8-2.25 4.7 2.2 6.6 7.6.9 2.55.9 2.5.15 2.5-.35 0-1.4 1.4-2.25 3.15-.9 1.7-2.65 4.3-3.95 5.7-2.35 2.7-9.4 8.75-9.8 8.4zm-3.6-18.35c-.7-.95-1.7-2.7-2.25-3.95-1.25-2.9-2.6-7.55-2.1-7.25.25.15.45-1.05.45-2.7.05-3.65 1.6-6.8 4.85-10l2.2-2.15-.75 2.7c-.55 2.1-.7 5.15-.6 13.55.05 5.95 0 10.95-.2 11.15-.15.15-.9-.45-1.6-1.35zm4.05-3c-.2-1.45-.35-6-.35-10.15 0-10.75 1.35-14.35 3.15-8.6.5 1.55 1.95 4 3.6 6 2.4 3.05 2.65 3.55 2 4.2-.4.4-.75 1-.75 1.35 0 .8-4.5 7.2-6.1 8.7l-1.25 1.15-.3-2.65z"/>
  </g>
  <g fill="#3d4d07">
    <path d="M233.5 424.25c0-.4.3-.75.65-.75 2.1 0 10.9-3.7 16.85-7.1 1.25-.7 4.4-2.45 7-3.9 2.6-1.45 4.95-2.8 5.15-3 .6-.55-11.6-1.2-14.55-.8-1.25.15-5.1 1.55-8.55 3.1-7.1 3.15-17.15 6.7-19.1 6.7-.7 0-1.7.35-2.25.75-1.35 1-2.7.95-2.7-.15 0-.8 1.05-1.2 5.9-2.45 5.85-1.55 12.8-4.1 19.35-7.2l3.5-1.65-4.25-.4c-2.35-.25-7.15-.85-10.7-1.4l-6.4-.9-7.85 2.9c-7.95 3-19 6.5-20.35 6.5-.4 0-.7.35-.7.8 0 .55-.3.7-1.1.4-1.3-.4-2.05-1.3-1.5-1.75.2-.15 1.95-.7 3.85-1.15 4.95-1.15 24.3-7.95 23.85-8.4-.6-.55-9.1-2.9-10.65-2.9-.75 0-5.65 1.2-10.85 2.7-10.2 2.95-14.15 3.8-17.25 3.8-1.7 0-1.9.1-1.6 1 .4 1.25.3 1.25-1.7-.2-1.5-1.1-1.55-1.25-.7-1.7.5-.25 2.6-.6 4.65-.7 4.05-.25 24.85-5.8 24.15-6.45-.25-.15-2.65-1.3-5.4-2.5-6.05-2.65-7.25-2.7-16.75-.5-3.7.9-8.45 1.85-10.5 2.1-2.05.3-3.9.8-4.1 1.1-.2.35-.8.1-1.6-.8-1.45-1.6-1.8-2.95-.4-1.7.75.7 1.3.7 5.1.05 4.55-.8 18.1-3.7 18.45-4 .45-.4-.5-.85-5.95-2.75-6.5-2.3-9.4-2.45-16.25-1-2.5.5-5.35 1.1-6.35 1.25-1.1.2-1.9.65-1.9 1.05 0 .5-.35.55-1.75.1-2.4-.7-2.2-1.7.4-2.1 4.1-.65 15.05-2.8 15.25-3 .55-.55-10.95-3.75-13.35-3.75-.7 0-3.3.55-5.8 1.25-2.45.7-6.05 1.4-8 1.55-1.9.2-3.8.55-4.15.85-.45.35-.9.2-1.6-.4-1.55-1.4-1.2-1.75 1.95-1.75 3 0 10.1-1.15 11.15-1.8.35-.2-1.3-.8-3.6-1.3-4.8-1-9.45-3.1-11.9-5.4-.9-.8-1.95-1.5-2.25-1.5-.65-.05 1.05-1.5 1.75-1.5.2 0 1.5 1 2.85 2.2 2.95 2.6 6.4 4 12 4.8 4.3.65 5.45.4 3.8-.85-1.6-1.15-5.9-3.35-7.25-3.7-1.2-.25-1.15-.3.5-.8.95-.25 1.85-.35 2-.15.15.2 1.05.75 2 1.25s3.3 1.9 5.2 3.15c2.35 1.55 5.4 2.85 9.65 4.2 3.45 1.1 6.35 1.85 6.5 1.7.55-.55-7.35-10.3-8.75-10.85-.7-.25-.65-.3.05-.6 1.35-.5 2.65.25 4.3 2.4 5.9 7.85 7.45 9.75 8.55 10.6 1.4 1.05 12.4 5.4 12.8 5.05.4-.45-2.05-4.9-2.65-4.9-.35 0-.65-.3-.65-.7 0-.85 2.55-1.95 4.1-1.7l1.15.15-1.15 1.15-1.2 1.2 1.45 2.8c1.15 2.25 2 3.15 3.95 4.2 3.2 1.8 10.15 4.6 10.5 4.25.15-.15-.1-.95-.55-1.85-.45-.9-.7-1.7-.55-1.9.15-.15.05-.55-.25-.95-.45-.5-.25-.65 1.15-.65 1.6 0 2.9.7 2.9 1.6 0 .2-.45.4-1 .4-.95 0-1 .1-.3 1.4 1.45 2.75 3.45 4.1 8.1 5.3 2.45.7 4.55 1.1 4.65 1 .1-.1-.6-1.4-1.55-2.8-1-1.45-2.4-3.85-3.15-5.35l-1.35-2.7-1.2 1.35c-1.55 1.65-2.2 1.65-2.2.05 0-.9.25-1.25.95-1.25.8 0 1.05-.5 1.3-2.75.35-2.75 1.2-3.35 1.3-.85 0 .9.15 1.1.35.6.25-.55 1.35-.8 3.85-.9 1.9-.1 3.75-.4 4.1-.7.4-.3 1.15-.35 2-.05.8.25 1.85.4 2.45.35 1.6-.1 9.2-2.75 9.2-3.2 0-.2-1.05-.65-2.35-.95-2.7-.65-15.3-5.65-15.55-6.1-.05-.2-1.05 0-2.1.35-1.1.4-3.45.95-5.25 1.3-2.45.5-3.25.85-3.25 1.45 0 .75-.2.8-1.45.3-1.15-.4-1.9-.35-3.75.35-1.25.5-2.3 1.1-2.3 1.4 0 .65 1.65 3.6 2.15 3.8.65.3.35 1.1-.4 1.1-.45 0-1.4-1-2.15-2.25-1.1-1.85-1.8-2.4-3.6-2.95-2.1-.65-2.3-.65-3.1.25-1.2 1.4-1.4 1.2-1.4-1.4 0-2.2.05-2.25.9-1.5.8.75 1.55.8 6.4.35 3-.3 6.25-.75 7.2-1.05 2.45-.8 6-2.55 6-3.05 0-1.3-7.6-3.35-8.8-2.35-.55.45-.7.2-.7-1.5 0-1.5.2-2.05.75-2.05.4 0 .75.35.75.75s.6.85 1.4 1.05c2.9.65 11.95 3.2 13.85 3.85 1.1.45 2.1.7 2.15.6.9-.9-11.05-16.4-12.25-16-.45.15-.65-.3-.65-1.25 0-1.25.2-1.5 1.25-1.5.9 0 1.25.25 1.25.95 0 .5.9 1.55 2.05 2.35 3.2 2.2 6.25 5.9 9.25 11.25 1.5 2.75 3.25 5.3 3.85 5.7 1.75 1.15 6.35 2.15 13.7 3 3.8.4 7.85 1 9 1.25 1.1.25 2.9.6 4 .8 2.15.35 4.95 1.9 5.6 3.15.45.8.2.8-4.35.15-7.5-1.05-12.2-.6-19.85 1.9-3.55 1.2-6.65 2.4-6.85 2.7-.25.35-.4.2-.4-.3 0-1.05-.4-1.1-2.2-.4-.75.25-3.05.6-5.2.8-2.1.15-3.95.4-4.1.55-.3.3 2.9 6 5.15 9.05 1.1 1.5 2.65 3 3.55 3.35 1.7.7 16.75 2.5 17.15 2.05.2-.15-1.5-2.15-3.65-4.45-3.75-3.95-6.8-8.35-5.75-8.35 1.1 0 2.05.65 2.05 1.45 0 1.25 5.35 7.35 8.55 9.75 2.5 1.85 3.35 2.2 6.05 2.45 7 .7 14.15.95 13.75.55-.2-.25-2.45-2.55-5-5.05l-4.6-4.65h1.85c1.8 0 3 .7 1.85 1.1-.7.25 7.1 7.65 9.05 8.65.8.4 2.75.85 4.35 1 6.95.7 18.45 2.4 19.15 2.85.55.35.4.4-.5.2-3.65-.7-12.5-1.45-18-1.5l-6.25-.05-7.25 4c-4 2.15-9.65 5.15-12.6 6.6-5.15 2.5-6.55 3.85-4.5 4.25.45.1-1.25.25-3.75.3-3.85.1-4.65-.05-4.65-.65zm60.7-20.1c-.5-2.05-3.45-9.8-5.55-14.5-1.75-4.05-1.85-4.15-5.8-6.65-2.2-1.4-4.3-2.45-4.6-2.3-.35.1-1.3-.45-2.05-1.25l-1.45-1.5 1.4.5c.8.3 2.95 1.45 4.8 2.55 1.85 1.1 3.5 2 3.7 2 .8 0 .2-1.8-1.75-5.15-2.8-4.85-3.2-5.25-5.55-5.6-1.15-.2-3.15-.65-4.45-1-1.6-.45-2.5-.5-2.7-.2-.2.3-.7.1-1.25-.5-1.55-1.65-1.1-2 1.45-1.05 3.05 1.15 7.35 1.95 8.1 1.5.7-.45.35-1.2-2.85-6.1l-2.2-3.35-4.6-1.5c-4.25-1.45-10.45-4.6-7.35-3.75.7.2 2.05.7 3 1.2 2.55 1.25 7 2.65 7.4 2.3.45-.5-3.45-8.2-4.9-9.5-.7-.65-2.6-2.05-4.25-3.2-4.35-2.9-7.25-5.95-7.25-7.5.05-.75.1-.7.6.15.3.55 1 1.55 1.6 2.2 1.5 1.65 8.35 6.7 8.65 6.35.4-.35-.8-7.5-1.65-9.85-.45-1.45-4.75-8.3-7.6-12.2-.2-.25-.3-1.05-.2-1.7.15-.95.4-.75 1.4 1.4 1.35 3 5.75 9.1 6.25 8.75.2-.1.5-1.75.7-3.7.2-1.9.55-3.5.8-3.5s.35-.55.15-1.25c-.15-.7-.1-1.25.15-1.25.8 0 .05-3.7-1.05-5.3-1.9-2.75-5.25-6.3-5.7-6-.25.15-.4-.3-.4-.95.1-1.6.7-1.65 1.75-.1 1.3 1.95 5.4 6.35 5.95 6.35.8 0 1.6-4.15 1.6-8.15 0-4.3-.6-5.4-4.6-8.05-3.45-2.35-8.4-7.2-8.4-8.3 0-.5-.15-1.35-.3-1.85-.2-.5.5.25 1.45 1.65 2.4 3.45 10.35 10.35 11.1 9.6.15-.1-.1-1.9-.5-3.95-.4-2.05-.85-4.5-1-5.5-.2-1.3-1.3-3-3.95-6.1-4.45-5.2-6.8-9.1-6.8-11.4 0-1.55.15-1.4 1.65 1.8 2 4.2 7.75 11.55 8.45 10.85.25-.25.5-2.4.5-4.8-.05-2.65.15-4.3.5-4.3.95 0-.15-2.65-2.3-5.75-2.65-3.65-3.95-6.15-3.55-6.7.15-.25.05-.55-.2-.65-.2-.05-.6-.7-.8-1.35-.65-2.15.5-.7 2.4 3.05 3.45 6.65 4.95 7.75 5.65 4.15.15-.95.45-1.75.65-1.75.15 0 .3-1 .3-2.2 0-1.75-.4-2.7-2.15-5-1.15-1.55-2-2.8-1.85-2.8.15 0-.15-.5-.75-1.1-1.05-1.15-1.3-2.15-.6-2.6.25-.15.8.55 1.3 1.5.45 1 1.55 2.7 2.45 3.8l1.6 2 .35-1.7c.2-.95.05-3.45-.4-6-.45-2.4-.8-4.55-.85-4.75 0-.25-.35-.7-.7-1.1-.4-.35-.6-.9-.5-1.25.1-.3-.1-.85-.5-1.2-.75-.8-.9-1.8-.15-1.35.85.55 2.85 4.9 3.65 7.95.9 3.4 1.15 3.75 1.6 2.35.15-.6.55-1.05.8-1.05.3 0 .35-.2.2-.5-.45-.75 1.3-6.5 2-6.5.35 0 .9.3 1.2.7.5.6.45.7-.3.5-.75-.2-1 .25-1.55 3.15-.35 1.85-1.15 4.55-1.8 5.9-.7 1.45-1.3 4-1.5 6-.15 1.95-.4 4.25-.55 5.15-.2.85-.15 1.6 0 1.6.6 0 7-3.9 8.95-5.45 2-1.6 3-1.9 3.55-1.05.15.3 0 .5-.35.5s-1.45.7-2.4 1.5-2 1.7-2.35 2c-.35.25-.85.5-1.15.5-.25 0-.5.2-.5.45s-.8.75-1.75 1.1c-.95.35-1.75.85-1.75 1.05 0 .2-.35.4-.75.4-.45 0-1.3.55-1.95 1.2-1 .95-1.25 1.85-1.55 5.6-.2 2.45-.4 4.95-.5 5.55-.25 1.65.3 1.8 1.7.45 1.85-1.75 13.1-9.3 13.9-9.3.35 0 .65.45.65 1 0 .7-.35 1-1.15 1-.65 0-1.6.4-2.15.9-.5.5-2.65 2.05-4.7 3.45-2.05 1.4-4.75 3.4-5.95 4.5l-2.25 2 .6 5.2c.65 6.25.9 6.95 2.25 6.95.55 0 .85-.15.65-.35-.35-.35 2.65-3.65 3.35-3.65.25 0 .9-.55 1.45-1.25.55-.7 1.3-1.25 1.7-1.25.4 0 .7-.25.7-.5 0-.3.85-.9 1.9-1.4 1-.45 2-1.05 2.2-1.35.2-.3.4-.1.4.4s-.6 1.1-1.35 1.4c-.75.25-1.65.95-2 1.45-.4.55-.95 1-1.2 1s-1.15.8-2 1.75c-.85.95-1.85 1.75-2.15 1.75-.75 0-2.4 1.7-2.05 2.1.15.15-.2.65-.75 1.15-.85.8-1 1.55-1 5.85 0 2.7.1 4.9.25 4.9.55 0 2.5-1.3 3.05-2 .35-.45 2-1.85 3.7-3.2 2.45-1.9 3-2.2 2.5-1.25-.8 1.5-3.05 3.95-3.65 3.95-.25 0-.9.55-1.45 1.25-.55.7-1.15 1.25-1.4 1.25-.85 0-4 3.65-4 4.6 0 .55-.2 1.35-.45 1.8-.45.85-.75 2.65-1.4 8.05l-.3 2.7 4-3.1c2.25-1.65 4.15-3.05 4.25-3.05.15 0 1.5-1.25 3.05-2.75 2.95-2.9 3.55-3.2 4.05-2 .15.45 0 .75-.45.75-.7 0-2.3 1.3-5.7 4.65-1.05 1-2.15 1.85-2.45 1.85-.35 0-.6.25-.6.5 0 .3-.3.5-.7.5-.4 0-.8.35-1 .75-.15.4-.5.75-.8.75-1.05 0-3.9 3.55-4.15 5.15-.25 1.6.9 9.5 1.55 10.7.25.4 1.1-.2 2.65-1.9 1.25-1.35 2.2-2.55 2.1-2.6-.05-.1.55-.8 1.35-1.6 1.75-1.65 2.7-1.3 1.1.4-.6.65-1.1 1.35-1.1 1.55 0 .25-.55.95-1.25 1.6-.7.65-1.25 1.35-1.25 1.6 0 .2-.55.9-1.25 1.5-1.6 1.4-1.6 2.3.25 6.15 2.65 5.55 3 5.85 4 3.45.35-.8.85-1.5 1.1-1.5.25 0 .35-.15.25-.4-.15-.2.15-1.15.7-2.1 1.1-2.05 1.25-1.2.25 1.25-.4.9-.6 1.8-.4 1.95.15.15.05.3-.2.3-.95 0-1.75 3.3-1.2 4.75.75 1.9 4 6.75 4.6 6.75.25 0 1.15-1.6 2.05-3.55 1.95-4.5 2.3-3.8.55 1.1-.75 2.05-1.35 4.25-1.3 4.85.1 1.35 3.5 8.1 4.1 8.1.6 0 1.95-3.7 2.25-6.1.5-3.5.75-4.4 1.25-4.4.3 0 .3.45 0 1.3-.3.7-.5 2-.5 2.9 0 .95-.35 2.65-.75 3.8-1.2 3.35-.95 5.65 1 9.5.95 1.95 2 3.5 2.25 3.5.3 0 .5.7.5 1.55 0 .85 1 4.45 2.25 8.05 1.25 3.6 2.25 6.75 2.25 6.95 0 1.05-1 .3-1.3-.9z"/>
    <path d="M154.4 391.65c-1.2-.3-1.15-1.15.1-1.15.55 0 1 .35 1 .75s-.05.7-.1.7c-.1-.05-.55-.15-1-.3zm50.35-4c.55-2.3 1.25-2.55 1.25-.5 0 1.35-.2 1.85-.8 1.85-.65 0-.75-.3-.45-1.35zM160.5 373.5c-.6-.4-.6-.5.25-.45.55 0 1.45.2 2 .45.9.4.9.45-.25.45-.7 0-1.6-.2-2-.45zm65.15-30.05c-.3-.4-.8-1.7-1.15-2.95-.3-1.25-1.1-3.1-1.8-4.1-.65-1.05-1-1.9-.7-1.9.6 0 .65-4.3.05-8.05-.25-1.55-1.6-5.2-3-8.1-1.75-3.65-2.55-5.9-2.5-7.2 0-1.8.05-1.85.55-.65.3.7 1 2.25 1.55 3.5s1.4 3.25 1.95 4.45c.5 1.2 1.05 2.1 1.15 1.95.15-.1.55-2.45.9-5.2.6-4.2.6-5.3.05-7.25-.75-2.45-4.45-8.45-5.25-8.45-.25 0-.45-.45-.45-1s.2-1 .5-1c.55 0 4.05 4.6 5.2 6.9.45.85 1.05 1.6 1.25 1.6.9 0 1.25-7.6.5-10.5-.7-2.65-.85-2.85-7.1-7.85-6.2-5-7.35-5.7-7.35-4.65 0 .3.3.5.65.5.45 0 .45.1 0 .4-.35.25-1.1 2.1-1.6 4.2-.9 3.55-2.75 7.7-4.95 11.15-.95 1.5-.95 1.55.2 6.5 2.6 11.2 3.4 18.75 1.95 18.75-.45 0-1.05-.6-1.35-1.35-.75-1.85-.7-1.75-1.8-6.95-.55-2.5-1.35-5.2-1.75-6-.45-.8-2.95-4.05-5.55-7.2-2.65-3.15-5.45-7.05-6.3-8.6-.85-1.6-1.9-2.9-2.3-2.9-.4 0-.7-.5-.7-1.25 0-1 .25-1.25 1.2-1.25.9 0 1.25.35 1.45 1.45.15.8 2.1 3.55 4.25 6.1 7.7 9.1 8.85 9.45 6.85 2.2-.75-2.65-1.25-5.85-1.25-7.75 0-4.65-1.45-7.3-6.7-12.5-2.95-2.85-4.1-4.35-3.65-4.6.4-.25.2-.4-.5-.4-.65 0-1.15-.2-1.15-.5 0-1.25 1.85-.3 3 1.55 1.5 2.5 6.75 7.45 7.85 7.45.9 0 .8-.75-.8-7-.65-2.35-1.45-4.5-1.85-4.8-1.15-.95-.8-1.2 1.55-1.2 2.45 0 2.75.3 1.4 1.25-.8.6-.75 1.05 1.05 6.35 1.65 4.7 2.05 6.75 2.5 12.35.35 4.35.75 6.8 1.15 6.9 1.3.45 5.3-9.75 5.9-14.95.2-1.95.15-2.9-.2-2.9-.3 0-.55-.2-.55-.5 0-.85 3.35-.6 3.7.3.45 1.2.4 1.35-.75 1.05-.75-.2-.95-.1-.75.5.15.4.3.8.3.95 0 .15 7 5.75 12.9 10.35 1.05.85 1.1.2.15-3.4-1.3-5-1.7-5.8-3.9-7.8-3.2-2.95-3.55-3.15-4.4-2.45-.65.55-.75.4-.75-.65 0-.7.15-1.6.3-2.05.45-1.2 2.05-.95 2.4.35.3 1.15 2.65 3.15 3.15 2.7.15-.15-.15-2.05-.6-4.15l-.85-3.9-5.1-5.25c-2.8-2.9-5.8-6.35-6.7-7.65-1.7-2.45-2.3-2.85-2.8-1.75-.15.3-.15-.75.05-2.4.3-3.05.65-4.3.65-2.3 0 1.25 2 4.4 5.65 8.8 2.35 2.8 6.45 6.75 7.05 6.75.4 0-.15-7.8-.75-10.4-.25-1.2-1.8-4.2-3.45-6.7-1.65-2.5-3-4.6-3-4.7 0-.1-.9-1.65-2-3.45-1.8-2.95-1.95-3.45-1.55-5.1.25-1.05.45-1.5.5-1.05.1 1.65 2.95 7.25 6.35 12.45l3.45 5.2.6-5c1-8.45 1.05-8.2-2.65-13.1-1.8-2.45-3.65-5.05-4.05-5.8-.55-1.1-.85-1.3-1.35-.9-.55.45-.55.15-.1-1.55.35-1.3.6-1.75.7-1.1.1.5.6 1.4 1.1 1.95.45.55 1.8 2.45 3 4.25 2.3 3.5 3.95 5.5 4.55 5.5.2 0 .5-.55.65-1.25.2-.7.5-1.25.75-1.25.2 0 .3-.55.2-1.15-.15-.65.05-1.5.45-1.9.35-.4.7-1.95.8-3.5.15-2.75.1-2.95-2.4-6-1.4-1.75-3.15-4.15-3.9-5.35-.75-1.15-1.6-2-1.95-1.9-.45.2-.45-.15-.05-1.25l.5-1.5 1.25 1.65c.65.9 1.7 2.45 2.25 3.4 1.45 2.4 4.4 6 4.9 6 .2 0 .7-1.1 1.05-2.5.35-1.35.75-2.5.9-2.5.15 0 .35-1.6.45-3.6.1-3.15 0-3.7-1.05-4.85-.65-.7-2.05-2.8-3.1-4.65-1.05-1.85-2.1-3.25-2.3-3.1-.2.1-.25-.25-.1-.8.25-1 .3-1 1.25-.15.55.5 1.45 1.8 2.05 2.9 1.65 3.3 3.45 5.4 3.9 4.65.6-.9.55-9.55-.05-13.3-.6-3.55-2.25-7.6-4.5-10.9-.85-1.25-1.4-2.5-1.25-2.75.2-.25 1.15-.4 2.15-.4 1.15.05 1.45.15.75.3-.65.1-1.15.3-1.15.45 0 .1.8 1.4 1.75 2.9 3.15 4.65 3.85 7.3 4.15 14.65.1 3.65.4 6.65.6 6.65.25 0 1.65-1.4 3.2-3.1 4.95-5.6 3.15-2.2-2.9 5.35-.55.65-1.35 3.3-1.9 6.1-.55 2.7-1.15 5.75-1.4 6.8-.3 1.55-.25 1.85.5 1.85 1.25 0 5.3-3.05 9.1-6.85 3.65-3.6 4.75-4 2.5-.85-1.8 2.45-5.95 5.95-9.95 8.4-1.7 1.05-3.25 2.3-3.35 2.75-1.4 4.7-3.3 12.7-3.1 12.9.15.15 1-.25 1.9-.95.9-.65 3.55-2.35 5.9-3.8 4.9-2.9 9.15-7.05 11.5-11.25 1.6-2.85 2.65-3.55 3.2-2.05.45 1.25.35 1.7-.4 1.7-.4 0-1.55 1.2-2.5 2.65-2.55 3.8-5.95 6.9-11.3 10.25-8.45 5.25-8.45 5.25-8.95 7.1-.75 2.7-1.25 9.5-.7 9.5.25 0 1.9-1.1 3.6-2.5 1.7-1.35 3.3-2.5 3.5-2.5.5 0 9.3-5.8 12.1-8l2.2-1.75-1.25 1.55c-1.25 1.6-11.3 8.85-14.45 10.45-.9.45-2.65 1.75-3.85 2.85-2 1.85-2.2 2.25-2.2 4.4 0 4.05.6 8.5 1.2 8.5.25 0 1.4-.85 2.55-1.95 1.1-1.05 3.9-3.2 6.25-4.8 2.35-1.6 4.9-3.45 5.65-4.1.8-.65 1.7-1.15 2-1.15 1.05 0-2.45 3.15-6.9 6.15-2.45 1.7-5.6 4.05-6.95 5.3l-2.4 2.3.3 3c.4 3.7 2 9.9 2.6 10.1.25.1.8-.4 1.2-1.1.45-.65 4-4.5 8-8.5 5-5.05 7.3-7.05 7.6-6.65.65 1.05.45 1.9-.4 1.9-1.1 0-11.75 10.75-13.65 13.8-.85 1.3-1.55 3.1-1.55 3.9 0 2.5 1.7 9.3 2.3 9.3 1.55 0 13.2-10.5 13.2-11.85 0-.35.3-.65.7-.65.4 0 .85-.3.95-.6.15-.35.3.6.3 2.1s-.15 2.5-.35 2.2c-.85-1.3-1.9-.95-3.75 1.4-1.05 1.35-3.5 3.65-5.5 5.1-5.75 4.3-5.7 4.15-6 10.95-.15 3.7-.1 5.85.25 5.85.75 0 4.25-2.6 8.4-6.2 3.75-3.3 5-3.95 5-2.55 0 .4-.35.75-.75.75-.45 0-2.1 1.3-3.75 2.9-1.65 1.55-4.45 3.75-6.25 4.85-2.95 1.8-3.3 2.2-4 4.5-1.05 3.6-1.9 10.8-1.35 11.35.25.25 1.6-.45 3.4-1.8 3.05-2.3 4.6-2.65 1.95-.45-5.1 4.3-5.25 4.5-5.3 6.75-.2 7.25.2 8.35 2.3 6.4 1.55-1.5 1.55-1.1 0 2-1.25 2.5-1.25 2.55-.45 5.25.85 3 .8 4.3-.15 3.2z"/>
    <path d="M219.85 332.95c-.5-1.1-.8-2.3-.7-2.65.3-.75 1.95 3.1 1.75 4.05-.1.4-.55-.25-1.05-1.4zM229 331c0-.25.35-.5.75-.5s.75.25.75.5c0 .3-.35.5-.75.5s-.75-.2-.75-.5zm4.85-13.9c-.6-.1-.8-.45-.65-.95.15-.4.3-.95.3-1.2s.45-.45 1-.45 1-.25 1-.6c0-.3.1-.45.25-.3.15.1-.05 1-.35 1.95-.5 1.25-.9 1.7-1.55 1.55zM240 286c0-.55.3-1 .7-1 .4 0 .85-.3.95-.6.2-.4.3-.35.3.2.05 1.3-.5 2.4-1.25 2.4-.4 0-.7-.45-.7-1zm-124 .3c0-.15 1.95-1.3 4.4-2.6 2.4-1.3 5.75-3.1 7.5-4.05 1.7-.95 3.1-1.6 3.1-1.5 0 .35-7.95 5.1-11.35 6.8-3.15 1.55-3.65 1.75-3.65 1.35z"/>
    <path d="M148.25 281.45c-12.15-3.05-15.4-4.05-16-4.75-.95-1.05-9.6-6.2-10.45-6.2-1.1 0-4.85 1.9-11.85 6.05-3.2 1.9-6.85 3.85-8.15 4.25-1.3.45-2.5 1.15-2.65 1.5-.15.4-.55.7-.95.7-1.5 0 0-1.4 3.2-2.95 1.85-.9 6.05-3.15 9.35-5s6.75-3.65 7.65-4.05c.9-.35 1.55-.9 1.45-1.2-.3-1.05-8-4.75-9.9-4.8-1.9 0-5.4 1.35-13.45 5.15-4.75 2.25-12.3 4.85-13.9 4.85-1.35-.05.1-.75 4.7-2.25 3.35-1.1 16.9-6.55 19.15-7.7.4-.2.8-.6.9-.85.25-.8-12.85-5.2-15.45-5.2-1.25 0-5.4.9-9.2 2.05-11.2 3.3-11.75 3.45-15.95 3.75-2.45.2-4.2.6-4.55 1-.45.55-.85.55-2.5-.3-2.2-1.1-2.05-1.15 1.6-1 1.45.05 4.35-.2 6.5-.5 3.8-.6 20.55-5.1 22.1-5.95.6-.35.25-.65-1.45-1.4-1.2-.55-4.1-2.3-6.4-3.85-2.35-1.5-4.9-2.9-5.75-3.05-.85-.1-2.1-.3-2.8-.4-.85-.15-.65-.25.65-.3 1 0 1.85-.25 1.85-.5 0-.5-6.8-5.85-9.5-7.5-.95-.55-2.25-1.05-2.85-1.05-.75 0-1-.25-.85-.85.2-.7-.95-1.65-4.4-3.9-8.3-5.4-8.2-5.3-10.3-4.5-4.65 1.75-12.05 2.3-16.4 1.2-3.65-.95-2.95-1.4.95-.65 4.05.8 8.85.4 14.5-1.15 3-.8-6.7-5.05-18.1-7.9-7.3-1.85-8.85-2.55-4.45-2.05 4.25.45 14.45 3.55 19.3 5.8 2.35 1.1 4.35 1.9 4.5 1.75.55-.5-1.2-2.85-4.35-6-1.8-1.8-3.05-3.25-2.7-3.25 1 0 6.95 6.2 8.1 8.4.85 1.6 2 2.7 4.8 4.5 2.05 1.3 4.65 2.95 5.85 3.7 1.2.75 2.55 1.65 3 2 1.3.95 1.45.35.6-2.85-1.05-4.1-3.25-8.55-5.7-11.45-1.1-1.3-2-2.5-2-2.65 0-.65 1.8 1 3.55 3.35 2.4 3.2 3.35 5.2 5.1 11.05.8 2.55 1.8 4.65 2.45 5.3 1.55 1.4 9.85 7.65 10.15 7.65.15 0 .25-.6.25-1.35 0-1.7.5-1.2.95.95.25 1.2 1.1 2.25 3.15 3.9 3.6 2.9 10.3 6.3 11.05 5.55.35-.35 1-.1 2.1.85 1.5 1.35 13.05 5.8 14.35 5.55.35-.1 3.25 1.2 6.4 2.8 6.55 3.4 7 3.6 7 2.65 0-1.1-2.05-7.05-2.85-8.15-.65-.95-.95-2.7-.35-2.1.2.2 1.4 2.95 2.65 6.15l2.35 5.85 4.95 3.2c4.6 2.95 7 4.1 7.5 3.55.1-.1-.3-1.55-.95-3.15-1.6-3.95-2.05-5.65-1.4-5 .25.3.75 1.4 1.1 2.5 1.8 5.9 3.7 7.4 11.8 9.25 7.7 1.75 10.7 2.65 10.7 3.05 0 .25-.05.45-.1.4-.1-.05-4.4-1.15-9.65-2.5zm-2-13c-1.9-.6-4.25-1.1-5.1-1.1-1.5-.1-1.65-.25-1.65-1.7 0-1.75.8-2.15 1.7-.9 1.05 1.45 10.95 3.45 11.95 2.45.15-.15-1-1.15-2.55-2.2-1.55-1.05-4.15-3.1-5.7-4.5-2.8-2.5-6.3-4.45-8-4.5-.5 0-.9-.3-.9-.6 0-.5-.1-.5-.4-.05-.5.8-7.9-1.6-9.45-3.15-.95-.95-1.25-1.05-1.45-.45-.55 1.35-1.2.8-1.2-1 0-1.4.2-1.75 1-1.75.55 0 1 .2 1 .5 0 .25 1.65 1.25 3.65 2.2 3.7 1.8 8.85 2.9 8.85 1.9 0-.6-4.05-4.6-4.6-4.6-.25 0-.4-.55-.4-1.25 0-1.05.25-1.25 1.5-1.25 1 0 1.4.2 1.25.65-.25.65 9.9 11.35 10.75 11.35.65 0 .65-.35-.3-3.55-1.5-4.95-5.6-11.9-7.1-11.95-.4 0-.6-.4-.5-.85.2-1 2.9-1.6 2.9-.65 0 .35.65 1.45 1.45 2.45 2 2.5 3.25 5 5.25 10.75 2.2 6.05 3.45 7.75 7.1 9.6 3.15 1.6 4.4 3.05 3.7 4.15-.75 1.25-8.55 1.25-12.75 0z"/>
    <path d="M133.7 267.75c-.9-.7-.85-.75.75-.65.95.1 1.8.45 1.95.8.25.85-1.5.75-2.7-.15zm104.7-14.6c-1.5-.4-1-2.15.8-2.8.75-.3.85-.2.55.5-.2.5-.35 1.3-.35 1.8 0 .45 0 .8-.05.8-.05-.05-.5-.15-.95-.3zm-148.8-4c-1.8-4.75-2.5-7.2-1.35-4.9 1.3 2.75 3.35 8.3 3.1 8.55-.15.15-.9-1.5-1.75-3.65zm-44.05 2.4c-.6-1.1-.25-1.35.95-.55.55.35.6.6.15 1.05-.4.4-.7.3-1.1-.5zm2.25 0c-.15-.2 1.9-.55 4.5-.75 2.65-.2 6-.55 7.45-.8 5.2-.85 12.45-1.2 12.05-.55-.2.3-1.55.55-2.95.55-1.45 0-5.95.45-10.05 1-8.15 1.1-10.6 1.2-11 .55zm-9.1-8.3c-.5-.4-.85-.75-.7-.8.9-.2 2.85-.45 7-.9 2.6-.3 5.95-.8 7.45-1.05s2.85-.4 2.95-.25c.45.45-1.75.85-12.9 2.55-1.25.15-2.4.5-2.55.75-.15.25-.7.1-1.25-.3zm36.35-8.35c-.35-1.2-.7-2.6-.85-3.15-.25-1-.25-1 .35-.05.85 1.4 1.95 5.3 1.5 5.3-.2 0-.65-.95-1-2.1zm166.45 1.35c0-.45.3-.6.75-.45.4.2.75.5.75.75s-.35.45-.75.45-.75-.35-.75-.75zm-75.8-1.15c-1-1.3-1.85-3.1-1.5-3.1.3 0 2.85 4.1 2.7 4.3-.15.1-.65-.45-1.2-1.2zM75.5 230c-.4-.25-1.15-.55-1.6-.7-.5-.15-.9-.5-.9-.8 0-.8.65-.6 2.25.75 1.5 1.25 1.6 1.55.25.75zm97.2-2.75c-.3-.95-.4-1.75-.15-1.75.2 0 .5-.4.6-.85.15-.5.25.3.3 1.75 0 1.4 0 2.6-.1 2.6-.05 0-.35-.8-.65-1.75zM140.75 221c-1.6-3.85-3.3-7.35-3.8-7.8-.7-.6-1.9-.75-5.85-.65-3.9.1-5.25-.05-6.2-.65-1.75-1.2-.95-1.4 2.35-.6 1.65.35 4.3.7 5.9.7 2.5 0 2.85-.1 2.85-.95 0-1.25-4.05-9.9-5.3-11.45-.7-.8-2.55-1.5-6.95-2.65-5.75-1.45-10.85-3.65-18-7.7-1.65-.95-3.1-1.45-3.3-1.2-.15.25-.55-.1-.85-.8-.55-1.25-.55-1.3.45-1 .6.2 1.85.9 2.9 1.6 6.3 4.3 22.2 10.2 23.65 8.75.35-.35-.15-1.95-1.6-5.2-3.6-7.9-5.1-9.25-11.45-10.65-5.2-1.15-9.45-2.95-13.7-5.7-2-1.3-4-2.5-4.45-2.7-.55-.2-.75-.6-.6-1.05.25-.7.4-.7 1.05 0 1.05 1 5.6 3.9 8.5 5.35 2 1 14.1 4.85 15.3 4.85.2 0 .35-.2.35-.45 0-.7-6.45-15.15-7.1-15.9-.3-.35-2.8-1.35-5.55-2.2-2.75-.9-6.05-2.05-7.3-2.6-2.8-1.2-8.25-4.85-7.85-5.2.15-.15 1.5.55 3.05 1.55 1.5 1.05 4 2.4 5.5 3.05 2.95 1.3 10.7 3.45 11.1 3.05.15-.15-.65-2.55-1.75-5.4-1.1-2.85-2.15-5.65-2.3-6.25-.6-1.85-3.1-3.5-8.7-5.65-2.95-1.15-6.25-2.75-7.35-3.55-1.1-.8-2.6-1.75-3.35-2.05-1.35-.6-2.3-1.9-1.4-1.9.25 0 2.1 1.1 4.1 2.45 3.2 2.15 12 6.05 13.8 6.05.95 0 .75-1.15-1.4-7.85-1.1-3.45-2-6.55-2-6.9 0-1.7-1.95-3.05-5.35-3.7-1.85-.4-5.3-1.3-7.6-2.1-2.35-.75-4.4-1.3-4.55-1.2-.15.1-.35-.25-.35-.85-.1-.75.1-.9.75-.65 4.9 2.1 12.1 4.2 14.25 4.25.55 0 .85-.4.85-1.05 0-1.35-2.9-11.3-3.75-12.95-.4-.8-2.6-2.3-5.8-4-6.4-3.45-7.2-4.9-1-1.8 2.5 1.25 4.75 2.3 5.05 2.3.9 0 .55-1.35-2.5-9.6-3.75-10.15-6.25-21.75-4.75-22.25.3-.1 1 2.75 1.6 6.5.8 5.15 1.7 8.25 3.9 14.1 1.55 4.15 2.9 7.6 3 7.7.1.1.95-.9 1.85-2.2 2.9-4.1 3-4.1.85.15l-2.1 4.1.75 2.65c.45 1.4 1.6 5.4 2.6 8.8.95 3.4 1.9 6.3 2 6.45.5.45 1.35-.55 2.55-2.95.7-1.35 1.55-2.45 1.85-2.45.3 0 .45-.15.3-.3-.2-.15.45-1.95 1.4-4s1.7-4.05 1.7-4.4c0-.35.35-1.05.8-1.6.75-.9.75-.9.45.55-.15.85-1.1 3.3-2.05 5.5-.95 2.2-1.8 4.2-1.85 4.5-.05.25-.45.85-.85 1.35-.4.45-1.4 2.1-2.2 3.6l-1.45 2.7 1.4 4.95c1.95 6.5 3.05 9.4 3.65 9.4 1.5 0 12.6-17.25 12.6-19.6 0-.35.25-.65.5-.65.65 0 .65.05-.55 3.35-1.15 3.05-3.35 6.95-6.05 10.7-4.85 6.8-5.9 8.5-5.9 9.4 0 .9 2.1 6.8 3.85 10.55.7 1.6.8 1.65 1.35.8.65-1.05 6.05-8.3 10.8-14.55 1.8-2.3 3.6-4.25 4-4.25.5 0 .55.15.2.4-.35.2-2 2.25-3.7 4.6-1.75 2.35-4.1 5.4-5.3 6.75-1.15 1.4-2.95 3.9-3.95 5.65-1.5 2.6-1.8 3.5-1.55 4.9.35 1.85 5.55 14.15 6.3 14.9.55.55 6.5-8.8 10.45-16.45.55-1.1 1-1.65 1.05-1.25 0 1.25-3.15 7.45-6.7 13.05-1.95 3.1-3.3 5.8-3.3 6.6 0 2.7 4.95 13.85 6.15 13.85.7 0 5.35-6.5 7.1-10.05.7-1.35 1.5-2.45 1.8-2.45.25 0 .35-.2.2-.5-.15-.25.25-1.55.95-2.85s1.25-2.05 1.3-1.6c.05 2.2-2.2 6.8-6.15 12.55-2.4 3.45-4.35 6.8-4.35 7.35 0 1.6 5.45 12.15 6.15 11.95 1.15-.35 5.75-10.35 6.8-14.7 1.15-4.9 1.8-6.15 1.3-2.45-.65 4.85-3.7 12.55-7.2 18-.6.9-.4 1.7 1.6 6.25 2.65 6.15 5.55 13.95 5.25 14.25-.1.1-1.5-2.95-3.15-6.75zm32.9-8c0-1.25.1-1.75.2-1.1.1.6.1 1.6 0 2.25-.1.6-.2.1-.2-1.15zm.25-6.15c-.15-1.4-.05-2.8.15-3.05.2-.2.45.9.55 2.45.2 3.6-.45 4.15-.7.6zm60.6-8.85c0-.25.35-.5.75-.5s.75.25.75.5c0 .3-.35.5-.75.5s-.75-.2-.75-.5zm-57.45-9.75c-.05-.85-.35-1.85-.65-2.2-.55-.5-.5-.55.2-.3.55.2.9 0 1.15-.7.3-1.05.8-1.3 1.4-.7.2.15 0 .7-.45 1.2s-1 1.65-1.2 2.55l-.4 1.65-.05-1.5z"/>
  </g>
  <path d="M206.55 393.75c-3.05-2.6-2.4-8.25 1.2-9.95 2.15-1.05 3.15-1 5.1.2 2.2 1.35 3.2 3.05 3.25 5.55 0 1.85-.25 2.4-1.8 3.8-2.35 2.15-5.45 2.3-7.75.4zm-21.5-8.2c-1.35-1.25-1.55-1.8-1.5-3.9 0-2.1.2-2.55 1.6-3.65 1.2-1 2.15-1.25 4.25-1.25 2.5 0 2.85.15 4.15 1.75 1.65 1.95 1.75 2.7.65 5.4-.9 2.25-2.35 3.1-5.4 3.1-1.75 0-2.55-.3-3.75-1.45zm11.15-10.75c-1.45-1.45-1.7-2.05-1.7-4.05 0-3.2 1.95-5.25 5-5.25 5.8 0 8.5 5.1 4.8 9.15-1.5 1.65-1.95 1.85-4.05 1.85-2 0-2.6-.25-4.05-1.7zm7.8-13.15c-3.75-1.45-5.5-6.25-3.35-9.2 1-1.35 4-2.95 5.5-2.95 3.3 0 6.35 2.45 7.15 5.8.2.8.6 1.6.9 1.8.35.25.2.4-.3.4s-.9.25-.9.55c0 1.45-4.2 3.95-6.5 3.9-.95 0-2.1-.15-2.5-.3zm-24.25-71.9c-1.35-1.3-2.2-2.25-1.8-2.15.35.1.8-.15.9-.45.15-.35 0-.65-.25-.65-.8 0 1.3-3.9 2.55-4.7 3.15-2 7.1-1.15 8.5 1.85.95 1.95 1.1 3.15.4 3.55-.25.15-.6.9-.75 1.6-.55 2.1-1.7 2.85-4.5 3.05-2.45.15-2.65.05-5.05-2.1zm27.55-12.85c-1.55-1.55-1.8-2.2-1.8-4.15 0-1.3.25-2.75.5-3.3.75-1.4 3.15-2.45 5.55-2.45 1.75 0 2.35.3 3.7 1.7 2.8 3 2.55 6.2-.75 8.95-2.3 2-4.85 1.7-7.2-.75zm-25.8-4.35c-1.25-1.25-1.5-1.85-1.5-3.9 0-2.85 1.2-4.35 4.1-5.2 2.25-.6 3.85 0 5.55 2.05 1.6 1.9 1.7 3.9.3 5.7-.55.75-.95 1.6-.8 1.95.15.4-.7.65-3 .75-2.95.15-3.3.05-4.65-1.35zm12.55-3.35c-4.65-3.9-1.6-11.55 4.2-10.5 5.55 1.05 6.35 8.2 1.2 10.8-2.55 1.3-3.55 1.25-5.4-.3zm-60.85-1.85c-1.1-.95-1.4-1.7-1.6-4-.2-2.75-.2-2.8 1.45-3.8 3-1.85 6.25-1 7.4 1.85.8 2.1 1 5.6.3 5.6-.35 0-.9.35-1.25.75-1 1.2-4.7.95-6.3-.4zm-15.95-15.5c-1.4-1.4-1.75-2.15-1.75-3.75 0-1.65.3-2.25 1.55-3.3 2.95-2.5 5.35-2.2 7.65.85 1 1.4 1.4 4.15.65 5.1-.2.3-.65.9-1 1.35-.35.55-1.55 1-2.95 1.2-2.25.3-2.45.25-4.15-1.45zm17-2.35c-.2-.3-1.15-.35-2.25-.2-4.5.75-7.2-4.6-4-7.8 1.6-1.6 4.1-1.3 6.25.7 1.6 1.55 1.8 1.95 1.65 3.95-.1 1.65-.3 2.15-.85 1.95-.5-.2-.65 0-.45.8.3 1.15.15 1.45-.35.6zm.9-7.65c-2.35-2.35-2.55-5.65-.5-7.1.6-.4 2-.75 3.15-.75 1.75 0 2.35.25 3.4 1.55 1.45 1.7 1.55 2.5.7 5-.7 2.15-1.15 2.45-3.65 2.4-1.35 0-2.35-.35-3.1-1.1z" fill="#acb174"/>
</svg>
