<svg xmlns="http://www.w3.org/2000/svg" version="1.1" viewBox="0 0 500 500">
  <path d="M302 59.5c0 2.735.403 3.5 1.845 3.5 1.954 0 5.155-2.932 5.155-4.722 0-1.235-2.327-2.278-5.082-2.278-1.525 0-1.918.716-1.918 3.5m-101.75 8.174c-2.853 1.991-2.838 3.425.064 6.152 3.009 2.826 4.469 2.745 5.868-.326.852-1.87.852-3.13 0-5-1.302-2.858-2.733-3.057-5.932-.826m60.124 7.793c-.866 2.256 1.083 6.993 3.033 7.371 4.047.784 7.743-6.799 4.011-8.231-2.829-1.086-6.468-.641-7.044.86m45.601 22.579c-.602 1.126-.955 3.488-.785 5.25.267 2.759.735 3.246 3.363 3.503 3.045.298 8.447-2.851 8.447-4.924 0-.538-1.314-1.437-2.92-1.997-1.606-.56-3.167-1.661-3.468-2.448-.802-2.088-3.372-1.747-4.637.616m-75.508 37.355c-1.17.855-3.185 1.195-5.176.871-2.763-.448-3.395-.166-4.144 1.85-1.067 2.87-.57 4.443 2.644 8.378 2.889 3.536 6.538 5.699 8.389 4.973 1.879-.736 5.78-7.023 6.456-10.404.42-2.099.012-3.421-1.532-4.965-2.463-2.463-4.007-2.627-6.637-.703m44.841 5.66c-3.993 1.515-5.544 5.201-4.775 11.354.379 3.039 1.319 6.047 2.087 6.685 2.171 1.801 8.342.308 11.622-2.812 3.983-3.79 5.044-6.013 4.294-9.001-.582-2.318-.961-2.475-4.585-1.895-3.43.548-3.951.383-3.951-1.258 0-2.692-2.089-4.06-4.692-3.073m-33.798 41.572c-1.456 1.456-1.664 3.061-1.273 9.804.258 4.435 1.043 9.27 1.746 10.745 3.198 6.72 13.015 5.777 18.293-1.756 5.088-7.26 5.442-14.901.806-17.382-1.667-.892-2.575-.576-5.28 1.842l-3.268 2.919-2.042-3.652c-2.36-4.222-6.202-5.3-8.982-2.52" fill="#772131" fill-rule="evenodd"/>
  <path d="M338.807 150.678c-2.443.644-4.425 7.623-3.963 13.951.165 2.25 4.424 4.677 9.207 5.246 1.843.219 3.949 6.878 3.949 12.486 0 5.767.996 6.976 4.904 5.954 2.93-.766 2.625 1.123-.404 2.503-2.171.989-2.5 1.783-2.5 6.036 0 2.693.279 6.289.619 7.992.523 2.616.901 2.946 2.435 2.125.998-.534 2.632-.957 3.63-.941 1.649.028 1.632.133-.184 1.137-1.1.608-2.979 1.992-4.176 3.074-1.197 1.083-2.659 1.67-3.25 1.305-.677-.419-1.074.481-1.074 2.435 0 2.986-.146 3.091-3.973 2.866-2.185-.129-3.764-.444-3.508-.699.255-.255.084-.955-.379-1.556-.464-.601-3.448-9.867-6.631-20.592-3.183-10.725-6.685-21.435-7.782-23.801-2.336-5.036-11.603-15.199-13.859-15.199-2.789 0-4.95 3.644-6.031 10.164-.997 6.019-.834 7.211 2.787 20.364l3.846 13.972.17 27.606c.135 21.866.511 28.935 1.808 34 2.269 8.864 5.574 15.603 10.246 20.894 8.351 9.458 16.98 27.865 25.783 55 3.868 11.922 6.05 17 7.306 17 .402 0 3.203-2.038 6.224-4.529 5.146-4.244 7.631-5.315 19.493-8.405 5.262-1.37 10.5-4.649 10.5-6.571 0-.844-2.03-5.577-4.511-10.518-10.681-21.266-14.763-35.756-14.644-51.977.083-11.227.789-14.791 6.633-33.5 2.851-9.127 3.873-14.332 4.269-21.738l.519-9.738-4.997-7.262c-6.589-9.574-7.674-11.81-12.415-25.585-4.926-14.313-6.761-17.4-11.587-19.487-3.409-1.474-15.545-4.857-16.411-4.574-.196.064-1.118.317-2.049.562M350.2 167.2c-1.439 1.439-1.585 3.8-.235 3.8.891 0 3.035-3.132 3.035-4.434 0-.971-1.545-.621-2.8.634m-29.7 23.224c-1.784 1.349-1.811 1.516-.25 1.544.962.018 1.75.482 1.75 1.032 0 1.434 2.182 1.177 4.427-.521 2.216-1.677 2.021-2.078-1.429-2.942-1.548-.388-3.259-.051-4.498.887M349 217c0 .55.927 1 2.059 1 1.132 0 1.781-.45 1.441-1-.34-.55-1.266-1-2.059-1-.793 0-1.441.45-1.441 1m-7 1.826c0 .935 3.736 4.47 6 5.675.825.44-.051-.843-1.946-2.851-3.642-3.858-4.054-4.144-4.054-2.824m-205.534 14.271c-2.146 6.103-5.841 14.541-8.211 18.75-10.159 18.04-11.355 21.223-12.342 32.847-1.157 13.621-2.416 19.804-6.033 29.624-5.098 13.841-4.164 18.245 9.27 43.691 15.895 30.107 17.701 42.876 9.406 66.491-1.932 5.5-3.522 10.972-3.534 12.161-.02 1.963 5.031 7.339 6.895 7.339.42 0 4.772 2.249 9.673 4.998 7.388 4.144 9.764 4.997 13.91 4.996 5.473-.002 10.934-2.609 11.886-5.675.311-1 3.067-11.245 6.124-22.767 6.156-23.2 9.824-40.436 11.503-54.052.611-4.95 1.546-10.344 2.079-11.986.721-2.222.586-3.757-.527-6-2.996-6.037-10.95-37.795-9.763-38.982.292-.293 2.594-.6 5.115-.682l4.583-.15-4.5-.6-4.5-.6-.056-19c-.073-24.975-2.213-35.071-7.992-37.704-1.711-.779-3.132-.807-4.702-.092-3.414 1.556-8.442 18.857-9.241 31.796-.687 11.128-2.39 24.472-3.315 25.986-.332.542-.478 2.444-.324 4.227.421 4.884-.668 7.287-3.303 7.287-1.263 0-3.507.951-4.985 2.114-3.173 2.496-4.676 1.752-2.134-1.057 1.711-1.891 1.659-2.023-1.589-4.044-1.848-1.15-4.597-2.354-6.109-2.677-4.163-.887-3.318-2.533.895-1.743l3.645.684-.718-6.34c-.394-3.486-1.181-7.207-1.749-8.268-.712-1.33-.702-3.672.032-7.549.966-5.101 1.443-13.043 1.227-20.418-.049-1.686-1.175-3.82-2.832-5.37l-2.75-2.573 3.104.668c2.62.564 3.368.265 4.794-1.911 2.403-3.668 3.602-2.267 3.602 4.21 0 3.084.277 5.331.615 4.992.338-.338.288-6.938-.112-14.666-.552-10.653-1.049-14.052-2.056-14.052-.731 0-1.651-.521-2.044-1.158-.491-.793-.037-.98 1.441-.593 2.105.551 2.156.321 2.156-9.761 0-10.081-.486-13.488-1.923-13.488-.391 0-2.465 4.994-4.611 11.097M158 297c.825.533 2.4.969 3.5.969 1.656 0 1.742-.166.5-.969-.825-.533-2.4-.969-3.5-.969-1.656 0-1.742.166-.5.969" fill="#fdc2ad" fill-rule="evenodd"/>
  <path d="M187.613 102.817c-.278.449-2.5 10.012-4.938 21.25-2.438 11.238-5.233 22.233-6.211 24.433-.977 2.2-1.892 5.125-2.033 6.5-.141 1.375-.968 6.775-1.839 12-2.244 13.458-2.101 17.582.708 20.391 1.265 1.264 5.891 4.168 10.281 6.452 4.389 2.283 11.554 7.122 15.92 10.753 8.111 6.743 17.582 12.152 25.349 14.478 2.514.753 5.028 2.337 5.956 3.753 1.596 2.435 1.673 2.446 13.219 1.794 13.871-.784 16.569-1.479 24.444-6.296C283.579 209.082 309 191.89 309 190.914c0-.595-.876-4.531-1.948-8.747-1.071-4.217-2.046-10.499-2.165-13.96-.12-3.462-.594-6.526-1.053-6.809-1.542-.954-.852-3.16 1.154-3.685 1.093-.286 2.432-1.688 2.975-3.116.543-1.428 1.654-2.597 2.469-2.597 3.873 0 17.568 17.927 17.568 22.996 0 2.476 1.817-.207 2.459-3.631.378-2.012 1.378-4.713 2.224-6.003.845-1.291 1.282-3.011.971-3.822-.312-.812-.136-1.742.39-2.067.526-.325.956-1.21.956-1.967 0-.757.499-2.643 1.109-4.191s1.23-4.39 1.377-6.315c.147-1.925.606-5.402 1.019-7.726.937-5.265 2.818-4.512-28.005-11.2-13.2-2.864-25.8-6.022-28-7.018-2.2-.996-8.05-2.372-13-3.059-4.95-.687-16.65-3.249-26-5.693-9.35-2.443-18.35-4.417-20-4.386-1.65.031-9.155-1.287-16.678-2.931-14.162-3.093-18.346-3.566-19.209-2.17m42.3 31.409c-1.455 1.972-1.853 2.041-4.782.828-3.792-1.57-4.247-1.24-5.072 3.685-.759 4.527.968 8.055 5.44 11.12 5.352 3.667 8.681 2.561 12.081-4.014 2.415-4.67 1.513-9.85-2.08-11.948-3.804-2.22-3.702-2.226-5.587.329M273 140.378c0 .757-.675 1.937-1.5 2.622-1.012.84-1.496 3.077-1.486 6.872.023 9.501.419 10.128 6.4 10.128 4.695 0 5.533-.362 8.952-3.862 3.235-3.314 3.726-4.404 3.453-7.673-.266-3.18-.793-3.967-3.185-4.76-2.122-.702-3.077-.606-3.681.371-.586.948-.999.587-1.469-1.284-.842-3.353-7.484-5.496-7.484-2.414m-33.079 42.329c-2.146 5.646-.25 19.49 3.173 23.164 2.902 3.115 10.151 2.942 14.459-.344 4.009-3.057 7.447-9.931 7.447-14.888 0-6.55-7.248-11.467-9.513-6.454-1.459 3.23-2.75 3.107-5.007-.477-1.667-2.648-2.685-3.227-5.829-3.316-3.16-.089-3.966.305-4.73 2.315" fill="#fffefe" fill-rule="evenodd"/>
  <path d="M350.2 167.2c-1.439 1.439-1.585 3.8-.235 3.8.891 0 3.035-3.132 3.035-4.434 0-.971-1.545-.621-2.8.634M239.272 189c0 2.475.195 3.488.434 2.25.238-1.238.238-3.262 0-4.5-.239-1.238-.434-.225-.434 2.25M348 199.639c0 12.094.721 13.862 4.324 10.602 1.197-1.082 3.076-2.466 4.176-3.074 1.816-1.004 1.833-1.109.184-1.137-.998-.016-2.632.407-3.63.941-1.534.821-1.912.491-2.435-2.125-.34-1.703-.619-5.299-.619-7.992 0-4.253.329-5.047 2.5-6.036 3.517-1.602 3.107-2.637-1-2.521l-3.5.099v11.243m-27.5-9.215c-1.784 1.349-1.811 1.516-.25 1.544.962.018 1.75.482 1.75 1.032 0 1.434 2.182 1.177 4.427-.521 2.216-1.677 2.021-2.078-1.429-2.942-1.548-.388-3.259-.051-4.498.887M349 217c0 .55.927 1 2.059 1 1.132 0 1.781-.45 1.441-1-.34-.55-1.266-1-2.059-1-.793 0-1.441.45-1.441 1m-7 1.826c0 .935 3.736 4.47 6 5.675.825.44-.051-.843-1.946-2.851-3.642-3.858-4.054-4.144-4.054-2.824M139.5 246c.34.55 1.293 1 2.118 1s1.222-.45.882-1c-.34-.55-1.293-1-2.118-1s-1.222.45-.882 1m-.053 20.44c-1.477 2.254-2.208 2.554-4.843 1.987l-3.104-.668 2.75 2.573c1.657 1.55 2.783 3.684 2.832 5.37.216 7.375-.261 15.317-1.227 20.418-.734 3.877-.744 6.219-.032 7.549.568 1.061 1.355 4.782 1.749 8.268l.718 6.34-3.645-.684c-4.213-.79-5.058.856-.895 1.743 1.512.323 4.261 1.527 6.109 2.677 3.248 2.021 3.3 2.153 1.589 4.044-2.542 2.809-1.039 3.553 2.134 1.057 1.478-1.163 3.743-2.114 5.034-2.114 2.612 0 3.77-2.75 3.212-7.629-.286-2.502-.792-2.91-3.939-3.173l-3.611-.302-.494-24.004c-.518-25.087-1.122-28.357-4.337-23.452M158 297c.825.533 2.4.969 3.5.969 1.656 0 1.742-.166.5-.969-.825-.533-2.4-.969-3.5-.969-1.656 0-1.742.166-.5.969m23.5 16.907c-4.848.575-4.991.684-4.69 3.593.171 1.65 1.455 7.275 2.854 12.5s3.356 12.555 4.35 16.29c1.873 7.037 3.572 10.084 5.099 9.14.488-.301.887-1.61.887-2.907 0-5.099.918-5.687 4.55-2.917 4.15 3.166 6.839 2.841 7.268-.878.433-3.759-3.293-18.115-6.289-24.228-2.137-4.359-7.851-11.79-8.723-11.343-.168.087-2.556.424-5.306.75" fill="#e99783" fill-rule="evenodd"/>
  <path d="M236.89 103.254c-2.346 1.789-4.22 3.702-4.163 4.25.093.9 18.931 6.099 28.713 7.923 3.643.679 3.832.606 2.517-.979-1.59-1.916-14.366-11.526-17.684-13.302-3.277-1.754-4.757-1.421-9.383 2.108m-70.39 54.802c-2.75 2.173-8.713 6.305-13.25 9.183-4.537 2.877-8.25 5.511-8.25 5.854 0 .342 3.188 3.163 7.084 6.267 9.61 7.656 13.863 8.539 15.858 3.294.964-2.536 5.058-24.476 5.058-27.107 0-2.251-.933-1.891-6.5 2.509m168.5 9.638c-2.504.895-4 3.512-4 6.997 0 1.82.235 3.309.521 3.309 1.1 0 8.479-5.307 8.479-6.098 0-.457-.913-1.32-2.028-1.917s-1.764-1.513-1.441-2.035c.64-1.036.648-1.035-1.531-.256m10 6.606c0 1.485.426 2.7.948 2.7.521 0 1.131 2.137 1.356 4.75.283 3.29.361 2.829.255-1.497-.084-3.436-.695-6.789-1.356-7.45-.937-.937-1.203-.606-1.203 1.497m-120.5 54.601c-1.65 1.042-12.657 11.601-24.46 23.465-14.4 14.474-21.715 21.171-22.235 20.353-.89-1.401-1.125 2.284-.285 4.472.329.859 9.203-7.345 24.25-22.419l23.73-23.774 19.111-.65 19.111-.651 19.958 18.902c22.282 21.103 43.559 40.87 47.256 43.903l2.436 1.998-2.348-4c-2.932-4.996-6.088-8.578-7.04-7.99-.398.246-12.997-11.355-27.996-25.781-15-14.426-28.445-27.014-29.88-27.972-2.238-1.497-5.158-1.744-20.608-1.747-15.944-.002-18.343.214-21 1.891M312.272 238c0 2.475.195 3.488.434 2.25.238-1.238.238-3.262 0-4.5-.239-1.238-.434-.225-.434 2.25m-168.883 10.5c.001 7.15.161 9.944.353 6.208.193-3.735.192-9.585-.003-13-.194-3.414-.352-.358-.35 6.792m168.863 3c.011 2.2.216 2.982.455 1.738.239-1.244.23-3.044-.02-4s-.446.062-.435 2.262M154.232 298c0 1.925.206 2.712.457 1.75.252-.962.252-2.538 0-3.5-.251-.962-.457-.175-.457 1.75m-2.094 6.322c-1.598 1.94-.687 5.627.979 3.961.579-.579.902-2.078.718-3.333-.305-2.074-.458-2.131-1.697-.628m-8.006 4.985l-.132 4.808 4.172-.308c5.242-.386 6.14-2.307 1.079-2.307-3.502 0-3.792-.232-4.369-3.5-.578-3.268-.627-3.182-.75 1.307m78.368-1.816c-.55.184-2.238.607-3.75.941-4.1.904-3.321 2.568 1.203 2.568 4.129 0 9.047-1.718 9.047-3.161 0-.805-4.42-1.041-6.5-.348" fill="#ededec" fill-rule="evenodd"/>
  <path d="M233.15 101.167c-3.932 2.842-7.15 5.51-7.15 5.929 0 2.146 49.838 13.4 51.588 11.649.566-.566-11.494-10.161-22.715-18.073-9.179-6.471-12.177-6.403-21.723.495m3.74 2.087c-2.346 1.789-4.22 3.702-4.163 4.25.093.9 18.931 6.099 28.713 7.923 3.643.679 3.832.606 2.517-.979-1.59-1.916-14.366-11.526-17.684-13.302-3.277-1.754-4.757-1.421-9.383 2.108m-6.208 30.133c-.373.971.042 1.237 1.382.886 1.052-.275 1.667-.899 1.366-1.387-.814-1.316-2.144-1.074-2.748.501M273 140c0 1.253 1.061 1.253 3 0 1.213-.784 1.069-.972-.75-.985-1.238-.008-2.25.435-2.25.985m34.963 14.597c-.543 1.428-1.882 2.83-2.975 3.116-2.109.552-2.671 2.747-.972 3.797.559.346.777 1.016.484 1.49-.293.474-.075 1.144.484 1.49.597.369 1.016-.542 1.016-2.208 0-5.886 4.2-8.695 9.316-6.229 1.514.73 1.264.271-.816-1.495-3.8-3.228-5.298-3.219-6.537.039m-135.34-.136c.603 1.569-3.14 24.138-4.669 28.161-1.993 5.241-6.304 4.396-15.597-3.057-3.723-2.985-7.063-5.247-7.421-5.026-.358.222-.876 9.776-1.151 21.232-.332 13.818-.92 21.612-1.746 23.156-1 1.868-.994 2.483.031 3.116.988.611 1.407 10.567 1.858 44.123.321 23.834.944 43.897 1.386 44.584.944 1.467 6.299 1.685 7.161.291.326-.528.035-1.853-.647-2.944-1.02-1.634-.954-2.305.372-3.791 1.159-1.299 1.941-5.596 2.784-15.306.645-7.425 1.785-15.3 2.533-17.5.749-2.2 1.881-6.025 2.515-8.5 1.45-5.654 3.513-8 7.034-8 3.364 0 7.474 4.503 8.421 9.226.361 1.801 1.127 4.792 1.703 6.648l1.047 3.373 22.631-22.517c12.448-12.385 23.615-23.016 24.816-23.624 1.354-.686 8.956-1.103 20-1.099 15.258.005 18.195.256 20.457 1.75 1.453.958 12.928 11.657 25.5 23.775 12.572 12.117 25.538 24.492 28.811 27.5l5.953 5.468-3.573-5c-5.095-7.13-6.423-10.065-8.845-19.551-1.999-7.83-2.1-9.895-1.458-29.93.58-18.101.42-22.979-1.012-30.707l-1.702-9.189-6.592 4.607c-14.54 10.164-40.619 26.285-44.052 27.233-2.007.554-8.849 1.302-15.204 1.661-11.483.649-11.566.637-13.161-1.797-.928-1.416-3.442-3-5.956-3.753-7.767-2.326-17.238-7.735-25.349-14.478-4.366-3.631-11.531-8.47-15.92-10.753-10.836-5.637-12.59-7.532-12.545-13.548.019-2.637.858-9.52 1.864-15.295 1.005-5.775 1.638-10.838 1.405-11.25-.782-1.386-2.248-.766-1.682.711m158.895 12.789c-2.918 8.7-2.867 9.264 2.477 27.111 6.213 20.747 6.849 22.037 11.082 22.463l3.219.325-.537-19.788c-.357-13.181-.908-19.911-1.648-20.157-.611-.204-1.111-1.395-1.111-2.648 0-1.757-1.347-2.995-5.89-5.417-6.638-3.538-7.008-3.63-7.592-1.889m.517 2.684c-1.062 1.984-1.449 8.066-.514 8.066 1.035 0 8.479-5.284 8.479-6.018 0-.924-4.553-3.982-5.93-3.982-.55 0-1.465.87-2.035 1.934m-100.104 60.854l-6.569.295-23.695 23.771c-21.625 21.693-23.698 24.07-23.727 27.208-.017 1.891-.268 8.147-.557 13.903-.289 5.755-.248 11.943.091 13.75.608 3.237.697 3.285 6.071 3.285 3 0 5.455.427 5.455.948 0 .581 1.064.607 2.75.067 1.512-.485 7.588-1.18 13.5-1.544 7.799-.481 10.75-1.019 10.75-1.96 0-1.623 1.647-2.263 7.988-3.104 3.244-.43 5.012-.296 5.012.381 0 .575-.562 1.233-1.25 1.463-3.061 1.024 26.358 1.772 67.929 1.729l45.18-.047-2.608-5.717c-4.109-9.01-5.347-10.64-14.311-18.843-4.642-4.249-20.042-18.69-34.221-32.093l-25.781-24.367-12.719.29c-6.996.159-15.675.423-19.288.585" fill="#f5f4f5" fill-rule="evenodd"/>
</svg>
