<svg version="1.0" xmlns="http://www.w3.org/2000/svg" preserveAspectRatio="xMidYMid meet" viewBox="0 0 740 740">
  <g fill="#ddd">
    <path d="M446.4 597.15c-1.65-.4-1-1.65.85-1.65 1.4 0 1.75.2 1.75 1 0 1-.7 1.15-2.6.65zm3.6-.65c0-.8.35-1 1.75-1 2 0 2.45 1.2.65 1.7-1.9.5-2.4.35-2.4-.7zm-9.1-.55c-1.45-.8-1.05-1.45.85-1.45 1.4 0 1.75.2 1.75 1 0 1.1-1.2 1.3-2.6.45zm15.1-1.2c0-1.05.25-1.25 1.5-1.25 1.4 0 1.5-.15 1.5-1.75 0-1.5.15-1.75 1.2-1.75 1.65 0 1.2 1.5-1.2 4.05-2.15 2.25-3 2.45-3 .7zm-22.35-2.5c-1.4-.95-3.05-2.4-3.65-3.25l-1.05-1.5h1.3c1.55 0 3.75 1.85 3.75 3.15 0 .6.4.85 1.5.85 1.25 0 1.5.2 1.5 1.25 0 .7-.15 1.25-.4 1.25-.2 0-1.5-.8-2.95-1.75zm51.9-2.85c-2.3-.65-5.7-3.05-7.05-4.9l-1.05-1.5h1.4c1.5 0 3.65 1.85 3.65 3.2 0 .55.45.8 1.5.8.85 0 1.5.25 1.5.55 0 .4 1.05.45 3.5.2 3-.3 3.5-.25 3.5.45 0 .5-.65.85-1.85 1.05-1.05.2-2.25.4-2.65.5-.4.1-1.5-.05-2.45-.35zM461 585.65c0-.45.25-2.7.6-5 .5-3.45.75-4.15 1.5-4.15.5 0 .9.15.9.4 0 .5-.95 6.55-1.3 8.25-.3 1.45-1.7 1.9-1.7.5zm-33.95-3.75c-1.2-6.25-1.2-6.9-.2-6.9.75 0 1.05.65 1.55 3.9.75 4.95.75 5.6-.1 5.6-.5 0-.9-.9-1.25-2.6zm79.95.35c0-.95.35-1.3 1.35-1.55.75-.2 1.7-.65 2.05-1.05.35-.35 1.2-.65 1.9-.65.75 0 1.2-.3 1.2-.75 0-.4.35-.75.75-.75s.75-.2.75-.5c0-.25.35-.5.75-.5s.75-.2.75-.5c0-.25.45-.5 1-.5s1-.35 1-.75.45-.75 1-.75c.65 0 1-.35 1-1 0-.55.25-1 .5-1 .3 0 .4-1 .2-2.75-.4-3.25.45-3.75 1.6-1 1.2 2.95.95 4.1-1.7 6.65-2.45 2.35-8.75 6.4-12.2 7.85-1.9.75-1.9.75-1.9-.5zm-31.35-1.7c-2-2.65-2.05-3.05-.4-3.05.75 0 1.25.3 1.25.7 0 .4.25.8.55.9.3.1.45.95.35 1.9l-.15 1.75-1.6-2.2zM462.5 573c0-1.65.15-2 1-2 1.05 0 1.25.8.7 2.9-.55 1.95-1.7 1.35-1.7-.9zm5.4-6.85c-.6-1.35-1.15-2.55-1.25-2.75-.1-.25.35-.4 1.05-.4.95 0 1.3.25 1.3 1 0 .55.25 1 .5 1 .3 0 .5.8.5 1.75 0 2.45-.8 2.2-2.1-.6z"/>
    <path d="M518.8 565.2c-.45-1.15-.35-3.7.1-3.7.4 0 2.6 3.55 2.6 4.2 0 .7-2.4.25-2.7-.5zm-53.05-4.3l-.7-1.65-.05 1.4c0 1.25-.1 1.35-.75.65-.4-.4-.75-1.4-.75-2.25 0-1.45.15-1.55 1.7-1.55 1.8 0 2.3.75 2.3 3.65 0 1.85-.9 1.7-1.75-.25zm50.25-1.75l.05-1.9 1.2 1.4c1.6 1.8 1.55 2.35 0 2.35-1.1 0-1.25-.2-1.25-1.85zm20.3-.8c-3.5-1.3-4.25-2.35-1.6-2.35 1 0 1.8.2 1.8.45s1.15.55 2.5.75c2.05.25 2.5.5 2.5 1.3 0 1.3-1.4 1.25-5.2-.15zm6.7.2c0-1.05.95-1.55 2.8-1.55.85 0 1.2-.3 1.2-1 0-.55.35-1 .75-1s.75-.2.75-.5c0-.25.35-.5.75-.5s.75-.2.75-.5c0-.25.8-.5 1.8-.5 2.4 0 1.9.6-3.2 3.95-4.2 2.75-5.6 3.15-5.6 1.6zm-30-3.9l.05-1.9 1.2 1.4c1.6 1.8 1.55 2.35 0 2.35-1.1 0-1.25-.2-1.25-1.85zm43-4.6c0-1.45.15-1.55 1.8-1.55 1.95 0 1.9.45-.3 2l-1.5 1.05v-1.5zm-47-.05c0-.55-.35-1-.75-1s-.75-.45-.75-1-.35-1-.75-1c-.55 0-.75-.55-.75-1.85l.05-1.9 1.4 1.65c.8.9 2.15 2.65 3 3.9l1.6 2.2h-1.5c-1.2 0-1.55-.2-1.55-1zm51-3.4c0-1.55 1.8-3.6 3.15-3.6.55 0 .85-.4.85-1.25 0-1.05.25-1.25 1.55-1.25 1.2 0 1.45.15 1.1.65-2.35 3.1-4.4 5.4-5.45 6.05-1.2.8-1.2.8-1.2-.6zm-45.35-.25c-2.1-1.4-2.05-1.85.1-1.85 1.6 0 1.75.1 1.75 1.5 0 .85-.05 1.5-.1 1.45-.1 0-.9-.5-1.75-1.1zm-89.15-.45c0-1.95.6-3.4 1.3-3.4.5 0 .7.65.7 2.25 0 1.9-.15 2.25-1 2.25-.7 0-1-.35-1-1.1zm83.15-3.95c-1.45-1.1-2.65-2.1-2.65-2.2 0-.15.8-.25 1.75-.25 1.2 0 1.75.25 1.75.75 0 .4.45.75 1 .75.8 0 1 .35 1 1.5 0 .85-.05 1.5-.1 1.5-.1 0-1.35-.9-2.75-2.05zm-7.65-2.1c0-.35-.45-.9-1-1.25-.7-.4-1-1.15-1-2.35 0-1.7.05-1.75 2.05-1.75 1.6 0 2.1.2 2.3 1 .15.55.7 1 1.2 1 .75 0 .95.35.95 1.55v1.55l-1.75-1.3c-2-1.55-2.2-1.35-.7.75l1 1.45h-1.5c-.9 0-1.55-.25-1.55-.65zm65.5-2.1c0-1.4.2-1.75 1-1.75 1.1 0 1.3 1 .5 2.55-.8 1.5-1.5 1.15-1.5-.8zm-1.9-5.85c-.35-.35-.6-1-.6-1.5 0-.65-.4-.9-1.25-.9-.8 0-1.25-.3-1.25-.75s-.45-.75-1.25-.75c-.7 0-1.25-.2-1.25-.45s-.55-.6-1.25-.75c-.7-.2-1.25-.65-1.25-1.05s-.45-.75-1-.75-2-.5-3.25-1.1c-2-.95-2.25-1.3-2.25-2.75 0-2.05.5-2.1 7.2-.4 2.7.7 5.45 1.25 6.1 1.25.85 0 1.2.3 1.2 1 0 .55-.2 1-.4 1-.5 0-5.85-.9-7.5-1.3-1.85-.4-.95.45 3 2.8 4.35 2.6 6.65 4.35 7.7 5.9.7 1.05.65 1.1-.7 1.1-.75 0-1.65-.25-2-.6zm8.4-9.15c0-.9 2.45-3.2 3.4-3.25.3 0 .6-.55.6-1.25 0-.8.3-1.25.75-1.25s.75-.45.75-1.25.3-1.25.75-1.25c.4 0 .75-.45.75-.95 0-1.75.6-2.55 1.8-2.55.65 0 1.2.15 1.2.35 0 .85-6.25 10.75-7.15 11.4-1.4.95-2.85.95-2.85 0zm-147.2-3.1c-.95-5.05-.95-5.65.15-5.65.65 0 1.05.3 1.05.9 0 .45.15 2.05.3 3.5.3 2.15.2 2.6-.45 2.6-.45 0-.9-.6-1.05-1.35zM401 513c0-.85.35-1 2.25-1 2.45 0 3.2 1.15 1.15 1.7-2.25.6-3.4.35-3.4-.7zm6-.5c0-.85.35-1 2-1 2.25 0 2.85 1.15.9 1.7-2.1.55-2.9.35-2.9-.7zm-38.75 0c.15-.25-.35-.6-1.1-.8-5.8-1.25-10.65-2.9-10.65-3.6 0-.6.5-.7 2.35-.45 1.3.15 2.45.5 2.55.8.1.3.65.55 1.25.55.55 0 2.35.25 3.95.6 2.7.55 2.9.7 2.9 2 0 .95-.25 1.4-.8 1.4-.4 0-.6-.2-.45-.5zM412 512c0-.8.35-1 1.75-1 2 0 2.45 1.2.65 1.7-1.9.5-2.4.35-2.4-.7zm-58.35-4.25c-2.15-.9-2.1-1.75.1-1.75 1.55 0 1.75.15 1.75 1.25 0 .7-.05 1.25-.1 1.25-.1-.05-.9-.35-1.75-.75zm229.85-.55c0-2.55 1.1-5.2 2.15-5.2.8 0 .95.25.7 1.45-.8 3.95-2.85 6.65-2.85 3.75zm-236.1-1.9c-4.7-2.1-7.9-3.85-7.9-4.4 0-.45 2.55-.55 3.7-.1.45.15.8.6.8 1s.5.7 1.2.7c1.75 0 2.8.5 2.8 1.3 0 .45.6.7 1.75.7 1.55 0 1.75.15 1.75 1.25 0 .7-.05 1.25-.1 1.25-.1 0-1.9-.8-4-1.7zm-12.95-6.9l-2.2-1.65 1.75-.15c.95-.1 1.8.05 1.9.35.1.3.5.55.9.55s.7.5.7 1.25c0 1.65-.4 1.6-3.05-.35zm250.25-4.9c-.2-1.35-.5-2.5-.75-2.5s-.45-.65-.45-1.5c0-1.3-.15-1.5-1.45-1.5-.75 0-2.85-.65-4.6-1.45-1.75-.8-3.95-1.6-4.8-1.8-.9-.15-1.65-.55-1.65-.8s-.55-.45-1.2-.45c-.65 0-4.8-.9-9.2-1.95-4.45-1.05-11.8-2.7-16.35-3.6-6.9-1.4-8.25-1.85-8.25-2.55 0-.5.2-.9.4-.9 1 0 16.65 3.25 23.35 4.85 15 3.55 22.15 6.1 24.6 8.75.95 1.05 2.65 5.65 2.65 7.25 0 .35-.45.65-1 .65-.8 0-1.05-.45-1.3-2.5zm-260-3.35c-1.95-2-4.55-5-5.75-6.65-2.5-3.45-5.95-9-5.95-9.6 0-.2.55-.4 1.2-.4.95 0 1.4.4 1.85 1.75.35.95.85 1.75 1.05 1.75.2 0 .4.7.4 1.5 0 1.15.2 1.5 1 1.5.55 0 1 .35 1 .75s.25.75.5.75c.3 0 .5.55.5 1.25 0 .9.25 1.25 1 1.25.8 0 1 .35 1 1.75 0 1.6.15 1.75 1.4 1.75 2.05 0 4.75 2.9 4.5 4.8-.15 1.45-.2 1.4-3.7-2.15zm204.45-15.3c-2.15-.4-2.65-.7-2.65-1.5 0-.85.25-.9 1.9-.6 5.25.95 6.6 1.35 6.6 2.05 0 .8-1.85.85-5.85.05zm-13-2.75c-3-.65-3.65-.95-3.65-1.75 0-.85.25-.9 1.9-.6 5.7 1 8.6 1.9 8.6 2.55 0 .9-2.1.85-6.85-.2zm-8.15-2.6c0-1.05.5-1.2 2.4-.7 1.8.5 1.35 1.7-.65 1.7-1.4 0-1.75-.2-1.75-1zm-197.5-.5c-1-1.8-4-9.95-4-10.75 0-.4.4-.75.9-.75.9 0 2.1 2.65 2.1 4.7 0 .45.25.8.5.8.3 0 .5.45.5 1.05 0 .55.35 1.35.75 1.75.8.85 1.05 4.2.25 4.2-.25 0-.7-.45-1-1zm193.25.25c-.25-.1-3.05-.9-6.1-1.75-5.1-1.45-5.65-1.75-5.65-2.8v-1.15l3.4 1.15c1.85.65 5.3 1.65 7.75 2.3 2.75.75 4.35 1.4 4.35 1.85 0 .6-2.4.85-3.75.4zm-17.1-5.6c-.9-.45-1.65-1.1-1.65-1.45 0-.35-.6-.7-1.3-.8-.75-.1-1.6-.6-1.9-1.15-.3-.5-.85-1.25-1.15-1.65-.35-.35-.65-1.1-.65-1.65 0-.5-.2-.95-.5-.95-.25 0-.5-.65-.5-1.5 0-.9-.25-1.5-.65-1.5-.35 0-1.05-.8-1.5-1.75-.95-1.95-1.15-4.75-.35-4.75.3 0 1.65 2.4 3.05 5.3 3.2 6.6 4.25 7.85 8.5 10 1.9.95 3.45 1.95 3.45 2.2 0 .75-3.05.55-4.85-.35zm-198.55-1.1c-1.9-1.15-2.15-10.05-.3-10.05.55 0 .7.8.7 3.2 0 1.75.15 3.55.3 4 .35.95 1.2 1.05 1.2.15 0-.95 4.15-4.85 5.15-4.85.6 0 .85-.4.85-1.25 0-.7.3-1.4.7-1.55.4-.15.8-.7.95-1.25.15-.55.7-.95 1.3-.95.8 0 1.05-.3 1.05-1.25 0-.7.25-1.25.5-1.25.3 0 .5-.35.5-.75 0-.55.55-.75 2-.75 1.85 0 2 .1 2.5 1.9.3 1 .65 2.9.85 4.25.25 1.9.15 2.35-.5 2.35-.4 0-.9-.6-1.05-1.35-1-4.05-1.4-5.2-1.8-5.05-.2.1-2.2 2.45-4.45 5.25-5.3 6.65-9.15 10-10.45 9.2zm-15.05-4.1c-4.85-1.7-13.75-6.25-15.5-7.85-1.5-1.45-1.65-1.8-1.3-3.5.15-1 1.1-3.25 2.1-5 .95-1.75 1.6-3.3 1.45-3.45-.15-.15-1.1.4-2.15 1.2-4.75 3.7-10 5.75-11.15 4.4-.9-1.1.7-3.55 5.35-8.1 2.3-2.3 3.95-4.15 3.65-4.15-.35 0-2.3.45-4.4 1-10.25 2.6-23.9 3.6-31.05 2.3-6.8-1.2-12.55-4.9-12.55-8 0-2.6 4.05-5.45 10.7-7.6l3.55-1.15-1.75-.7c-.95-.4-4.55-1.9-8-3.35-19-7.9-34.55-17.05-41.8-24.55-6.2-6.45-7.4-9.85-5.45-15.45 2.5-7.05 9.45-7.9 18.9-2.25 1.6.95 3.15 1.75 3.45 1.75.45 0-4.3-5.35-12.2-13.7-1.35-1.4-2.4-2.65-2.4-2.85 0-.45 2.15-1.3 5.15-2 1.3-.3 2.35-.75 2.35-1s-.05-.45-.1-.45c-.1 0-3.95-.55-8.55-1.25l-8.4-1.2-4.85-4.55c-2.65-2.5-6.75-6.45-9.1-8.75l-4.25-4.25h4.9c3.15 0 4.85-.2 4.75-.5-.1-.3-3.85-3.05-8.4-6.15-5.7-3.9-8.8-6.4-10.05-8-2.6-3.5-5.6-8.65-7.2-12.6-1.3-3.05-1.45-4.15-1.5-8.6 0-5.7.55-7 3.8-8.9 2.25-1.3 8.35-1.3 12.95 0 3.55 1 11.75 4 13.1 4.75 1.8 1.05.85-.5-1.3-2.1-1.2-.9-4.65-3.75-7.6-6.35-3-2.6-8.2-7.1-11.55-10-3.4-2.9-6.15-5.45-6.15-5.65 0-.2 1.6-1.2 3.55-2.2 1.95-.95 3.4-1.95 3.15-2.15-.25-.25-2.6-.95-5.2-1.55-2.6-.6-5.2-1.4-5.75-1.75-1.1-.7-3.6-6.45-5.2-12.05-2.05-7-1.15-14.6 2.05-18.1 1.4-1.45 5.3-1.5 9.25-.05 4.9 1.8 18.4 10.4 23.4 14.85.55.5 2.6 2.15 4.5 3.6 1.95 1.5 6.6 5.4 10.4 8.65 3.8 3.25 7 5.85 7.1 5.75.1-.1-.65-1.3-1.7-2.7-2.35-3.15-9.1-14.25-11.3-18.65-4.55-9-4.15-12.7 1.1-10.45 1.5.65 9.9 6.3 12.4 8.3 3.75 3.05 17.8 15.7 23.5 21.15 4.05 3.85 6.45 5.95 11.5 9.85 3.25 2.55 3.7 4.1 1.1 4.1-1 0-2.35-.5-3.4-1.3-3.5-2.6-8-4.85-9.95-4.9-4.85-.1-7.15 6.45-5.2 14.7 2.2 9.45 8.4 18.15 21.1 29.75 5.3 4.85 6.05 5.7 6.05 7.15.05 1.5-.05 1.6-1.75 1.6-1.25 0-2.4-.45-3.65-1.45-9.65-7.55-27.55-17.3-31.9-17.3-2.55 0-4.45 1.3-6.1 4.2-1.1 2-1.15 2.35-.6 4.8.9 3.9 5.55 12.95 9.2 17.75 7.95 10.5 27.6 28.05 46.25 41.25 3.75 2.65 4.1 3.1 4.1 4.6 0 1.45-.15 1.65-1.3 1.65-.75 0-4.3-1.05-7.9-2.3-11.6-4.05-17.9-4.95-24.65-3.55-3.1.65-5.15 1.9-5.15 3.15 0 1.35 7.65 10.75 12.35 15.15 10 9.5 20.8 15.15 32.9 17.25 2.5.45 5.55.8 6.9.8 2.35 0 2.35 0 2.35 1.7 0 1.4-.25 1.8-1.5 2.3-3.3 1.35-7.5 5.35-7.5 7.1 0 1.05 10.45 2.9 16.45 2.9h4.05v2.2c0 2.5-2.4 13.45-4.3 19.75-1.45 4.8-1.85 4.15 4.05 7.15 2.2 1.1 4.1 2.2 4.25 2.4.15.2.8.5 1.5.65 6.1 1.45 8 2.15 8 3 0 1.15-2.4 1.1-5.95-.2z"/>
    <path d="M279.5 458.55c0-.55.55-1.4 1.2-1.9.65-.5 1.3-1.45 1.5-2.05.2-.6.55-1.1.75-1.1.25 0 .55-.9.75-2 .15-1.1.55-2 .8-2 .3 0 .5-.55.5-1.2 0-2.2.5-2.8 2.3-2.8h1.7v2.75c0 2.4-.1 2.75-1 2.75-.7 0-1-.35-1.05-1.1 0-1.3.1-1.55-1.95 3.6-.6 1.5-1.65 3.5-2.35 4.4-1.35 1.8-3.15 2.15-3.15.65zM472 439.7c0-2.2.9-2.1 1.85.2.65 1.55.6 1.6-.6 1.6-1.1 0-1.25-.2-1.25-1.8zm5-5.2c-3.15-1.1-5.85-2-5.95-2-.1 0-.05.55.05 1.25.2 1 .05 1.25-.8 1.25-.9 0-1.75-1.35-4.95-8.1-2.1-4.5-3.85-8.75-3.85-9.5 0-1.3.15-1.4 2.25-1.4 2.4 0 5.4-1 6.8-2.3.7-.65.8-1.35.6-3.5l-.3-2.7h1.7c7.6-.05 18.4-5.3 20.3-9.9.6-1.5.6-1.8-.05-2.55-.95-1.05-1.05-4-.15-4.25 4.25-1.05 14.75-4.95 19.1-7.1 6.55-3.25 11.85-6.65 11.6-7.4-.4-1.4-4.9-2.95-9.35-3.2l-4.5-.25v-1.65c0-1.1.25-1.7.65-1.7s3.35-1.35 6.65-3c6.7-3.35 14.25-8.6 20.2-13.95 10-9.05 19.45-23.05 23.75-35.15 2.1-5.85 1.1-6.45-7-4.15-5 1.45-14.8 6.05-19.65 9.3-1.75 1.15-6 4.3-9.5 7-5 3.9-6.7 4.95-7.95 4.95-1.55 0-1.65-.1-1.65-1.75 0-1.35.5-2.3 2.35-4.35 6.35-7.15 16.4-20.5 23.95-31.9 14.1-21.1 19.45-32.2 21.5-44.1 1.15-6.8 0-10.2-4-12.1-2.5-1.2-4.75-1-8.15.7-5.4 2.7-19.75 16.55-28.9 27.9-4.05 5.05-4.65 5.6-6.1 5.6-1.55 0-1.65-.1-1.65-1.6 0-1.65.9-3.4 5.25-10.15 8.55-13.35 13.2-24.7 13.25-32.3 0-5.55-3.15-12.65-6.5-14.65-1.15-.65-2.15-.85-3.4-.65-3.6.6-9.3 5.4-14.75 12.45-2.25 2.9-2.8 3.35-4.2 3.4-2.95 0-2.25-2 2.75-8.25 2.4-3 5.25-7.05 6.35-9 1.05-1.9 2.5-4.4 3.25-5.5 1.55-2.25 8.25-12.65 9.8-15.1 1.05-1.75 5.2-7.9 9.25-13.65 3.75-5.35 9.95-12.7 12.8-15.05 1.8-1.5 2.75-1.95 3.9-1.85 2.15.2 2.65 2.55 1.8 8.3-.8 5.75-5.45 22.25-7.1 25.2-.55 1.05-.6 2.4-.05 2.4.2 0 1.15-1.3 2.05-2.85.95-1.6 3.4-5.25 5.45-8.15 2.05-2.9 4.55-6.35 5.5-7.75 13.3-18.9 26.35-32.9 33.65-36.2 3.25-1.5 5.4-1.35 8.25.6 1.9 1.2 2.85 2.35 4.1 4.85 2.15 4.35 2.8 8.1 2.4 14.25-.45 6.85-.95 8.75-2.6 10-2.25 1.65-8.85 5.7-10.3 6.35-.8.35-1.4.8-1.4 1 0 .2 2.25.4 4.95.4 2.75 0 5.1.2 5.25.4.2.35-4.95 8.45-6.6 10.35-.2.3-1.3 1.85-2.4 3.45-1.05 1.65-2.3 3.5-2.7 4.1-1 1.5-6.45 9.5-9.65 14.1-1.35 2-2.35 3.75-2.2 3.95.2.15 1.55-.8 3-2.15 10.7-9.8 21-15.75 27.3-15.7 2.4.05 5.55 1.5 7.15 3.4 1.5 1.8 2.4 5.35 2.4 9.55 0 3.15-2.45 13.7-4.05 17.35-1 2.35-5.95 9-10.2 13.7-4.15 4.55-6.85 7.95-6.65 8.45.05.25 1.15 0 2.35-.55 4.1-1.85 8.55-3.4 8.55-2.9 0 .45-11 19.05-13.25 22.4-.75 1.1-2.9 2.65-6.45 4.65-2.95 1.6-5.45 2.95-5.6 2.95-.1 0-2.3 1.2-4.8 2.6-2.65 1.5-4.3 2.7-3.8 2.8.45.1 2.5-.2 4.6-.6 4.05-.85 5.8-1 5.8-.45 0 .3-2 4.1-6.5 12.4-.75 1.4-2.5 4.6-3.9 7.15-1.4 2.5-2.35 4.6-2.1 4.6.2 0 .75-.55 1.2-1.25 1.2-1.8 7.1-7.55 10.1-9.85 6.6-4.95 12.75-5.2 17.2-.65l2.25 2.3v4.1c0 3.8-.15 4.4-1.95 7.85-6.05 11.7-22.5 29.15-44.95 47.5-3.75 3.1-6.85 5.8-6.85 6 0 .2 1.3.05 2.9-.3 4-.95 12.75-.9 14.6.05 3.25 1.7 3 4.15-.9 8.35-5.3 5.7-12.45 9.5-26.95 14.3-4.8 1.6-19.35 5.4-24.55 6.4-1.3.25-1 1.2.35 1.2 1.85 0 10.8 2.6 12.4 3.55 1.9 1.2 2.15 2.65.55 3.55-1.3.75-10.35.75-15.25.05-3.55-.55-3.6-.2-.3 1.45 1.25.65 3.25 2 4.45 3.05 3.5 3.1 3.25 3.9-3.05 10.6-2.05 2.15-10.35 9.05-13.1 10.85-4.3 2.85-6.5 3.65-8.8 3.2-2-.35-7.5-4.2-8.35-5.8-.3-.55-.75-.9-.95-.75-.25.15.5 2.05 1.6 4.25 1.6 3.15 2.05 4.6 2.1 6.65v2.6l-2.5.15c-1.9.1-3.95-.4-8.25-1.9zm-183-96c0-1.4-.15-1.5-1.75-1.5-1.65 0-1.75-.1-1.75-1.55 0-1.75.2-1.7 3.4 1.25 1.55 1.45 1.7 1.5 2.3.7.95-1.3 1.3-1.1 1.3.85 0 1.65-.1 1.75-1.75 1.75-1.6 0-1.75-.1-1.75-1.5zm-21-18.05v-1.5l1.5 1.05c2.2 1.55 2.25 2 .3 2-1.65 0-1.8-.1-1.8-1.55zm171-23.3c0-2.55.55-3.65 1.75-3.65h1.15l-.8 2.5c-.85 2.7-2.1 3.4-2.1 1.15zm-204.5-3.7v-1.5L241 293c2.2 1.55 2.25 2 .3 2-1.65 0-1.8-.1-1.8-1.55zm203-3.55c0-1.5.65-2.9 1.3-2.9.45 0 .7.6.7 1.75 0 1.4-.2 1.75-1 1.75-.55 0-1-.3-1-.6zm5-6.15c0-1.4.2-1.75 1-1.75 1.05 0 1.2.5.7 2.4-.5 1.8-1.7 1.35-1.7-.65zM443 266.2c0-2.2.9-2.1 1.85.2.65 1.55.6 1.6-.6 1.6-1.1 0-1.25-.2-1.25-1.8z"/>
  </g>
  <g fill="#b9b9b9">
    <path d="M446.25 597.15c-7.6-1-15.55-5.9-17.8-10.95-.95-2.05-2.45-9.65-2.45-12.25 0-1.1.25-1.45.95-1.45.8 0 .95.55 1.25 3.9.2 2.1.8 5.1 1.35 6.6s1.15 3.35 1.3 4.15c.15.9.6 1.35 1.2 1.35.55 0 .95.35.95.75 0 .45.45.75 1.05.75.6 0 1.15.4 1.3.95.15.55.8 1.05 1.55 1.2.75.15 2.75.85 4.45 1.55 6 2.55 13 2.1 15.9-1 .6-.65 1.35-1.2 1.65-1.2.25 0 .6-.75.75-1.6.15-.9.7-3.95 1.3-6.8.55-2.8 1.05-5.8 1.05-6.6 0-1.15.2-1.5 1-1.5 1.25 0 1.25.4 0 7.8-1.7 9.75-3.6 12.65-9.45 14-2.75.65-4.35.75-7.3.35zm37.35-8.55c-2.5-1.35-5.45-4.4-8.25-8.55-2.55-3.85-7.7-14.1-9.35-18.7-.9-2.55-.95-2.6-.95-.85-.1 2.55-.55 4-1.35 4-.55 0-.7-.9-.7-3.75V557h1.75c1.2 0 1.75.25 1.75.7 0 .4.15.8.4.9.5.2 2.6 5.45 2.6 6.55 0 .45.2.85.4.85.6 0 1.6 2.35 1.6 3.75 0 .7.3 1.25.65 1.25.4 0 1.2 1.2 1.9 2.65.65 1.4 1.35 2.7 1.6 2.75.2.1.35.5.35.9s.25.7.5.7c.3 0 .5.35.5.75s.25.75.5.75c.3 0 .5.3.5.7 0 .4.35.8.75 1 .4.15.75.85.75 1.55 0 .9.25 1.25 1 1.25.65 0 1 .35 1 1 0 .75.35 1 1.25 1 .8 0 1.25.3 1.25.75 0 .5.5.75 1.5.75 1.15 0 1.5.2 1.5 1 0 1.25-1.15 1.25-3.4.1zm4.9 0c0-.75.6-1.05 2.9-1.55 1.55-.35 5.1-1.55 7.9-2.6 4.95-1.95 7.7-2.45 7.7-1.4 0 1-11.5 5.35-16.35 6.2-1.9.3-2.15.25-2.15-.65zm20.5-7.35c0-1 .25-1.25 1.25-1.25.75 0 1.25-.3 1.25-.75 0-.4.55-.85 1.25-1.05.7-.15 1.25-.5 1.25-.75s.35-.45.75-.45.75-.2.75-.5c0-.25.35-.5.75-.5s.75-.2.75-.5c0-.25.4-.5.95-.5.5 0 1.05-.45 1.2-1.05.15-.55.75-1.15 1.3-1.3.8-.2 1.05-.65 1.05-1.95 0-.95-.2-1.7-.4-1.7-.55 0-1.6-2.3-1.6-3.5 0-.55-.35-1-.75-1s-.85-.55-1.05-1.25c-.15-.7-.5-1.25-.75-1.25s-.45-.35-.45-.75-.2-.75-.5-.75c-.25 0-.5-.35-.5-.75s-.2-.75-.5-.75c-.25 0-.5-.35-.5-.75s-.2-.75-.5-.75c-.25 0-.5-.35-.5-.75s-.2-.75-.5-.75c-.25 0-.5-.3-.5-.7 0-.4-.35-.8-.75-1-.4-.15-.75-.6-.75-1.05 0-.4-.2-.75-.5-.75-.25 0-.5-.45-.5-1s-.35-1-.75-1-.75-.45-.75-1-.35-1-.75-1-.75-.45-.75-1-.35-1-.75-1-.75-.45-.75-1-.35-1-.75-1c-.45 0-.95-.4-1.1-.85-.2-.5-.6-1.1-1-1.3-.35-.2-.65-.85-.65-1.35 0-.55-.35-1-.75-1-.45 0-.75-.45-.75-1.25 0-.9-.25-1.25-1-1.25-.8 0-1-.35-1-1.75 0-1.7.05-1.75 2-1.75 1.45 0 2 .2 2 .75 0 .45.45.75 1.05.75.6 0 1.15.4 1.3 1 .15.55.7 1 1.2 1 .55 0 1.1.35 1.25.75.2.4.6.75 1 .75s.7.35.7.75.45.75 1 .75 1 .35 1 .75.45.75 1 .75 1 .15 1 .4c0 .2.7.65 1.5 1 .85.4 1.5 1 1.5 1.4 0 .4.45.7 1 .7s1 .25 1 .5c0 .3.35.5.75.5s.75.25.75.5c0 .3.35.5.75.5s.75.2.75.45.55.6 1.25.75c.7.2 1.25.55 1.25.8 0 .3.3.5.7.5.4 0 1.05.3 1.4.65.35.35 1.4.95 2.3 1.3 1.15.5 1.6 1 1.6 1.85 0 .65-.2 1.2-.4 1.2-1.75 0-26.1-16.5-27.35-18.55-.2-.25-.55-.45-.85-.45-.25 0 .4 1.05 1.45 2.4 3.3 3.95 10.8 14.1 13.95 18.85 3.95 5.9 5.95 9.55 6.7 12.1.55 1.85.55 2.25-.45 3.8-1.05 1.7-4.55 4.45-9.3 7.2-3.85 2.25-4.25 2.35-4.25.9zm-46.5-10c0-2.4.1-2.75 1-2.75.8 0 1 .35 1 1.65 0 2.35-.5 3.85-1.3 3.85-.5 0-.7-.75-.7-2.75zm-36.7-3.35c-.4-1.5-.4-21.3 0-22.75.2-.65.65-1.15 1-1.15.6 0 .7 2.2.7 12.5s-.1 12.5-.7 12.5c-.35 0-.8-.5-1-1.1zm112.2-9.1c-3.25-.9-7-2.65-7-3.25 0-.75 3.3-.7 4.1.1.75.75 5.25 1.85 7.45 1.85.8 0 1.95-.45 2.55-1 .6-.55 1.4-1 1.75-1 .35 0 .65-.2.65-.5 0-.25.35-.5.75-.5s.75-.2.75-.5c0-.25.35-.5.75-.5s.75-.2.75-.5c0-.25.3-.5.7-.5.4 0 .8-.35 1-.75.15-.4.6-.75 1-.75.35 0 .8-.35 1-.75.15-.4.7-.75 1.25-.75.5 0 1.05-.45 1.2-1 .2-.8.65-1 2.2-1l1.9.05-2.25 2c-2.35 2.05-10.1 7.6-12.7 9.05-1.8 1-4.65 1.05-7.8.2zm25.5-15.9c0-1.35.2-1.9.75-1.9.4 0 .75-.35.75-.75 0-.45.35-1.45.75-2.3.6-1.1.7-2.25.45-4.45l-.35-3h-1.7c-1.05 0-1.8-.3-1.95-.75-.2-.4-.6-.75-1-.75s-.7-.35-.7-.75c0-.45-.45-.75-1.25-.75s-1.25-.3-1.25-.75c0-.4-.45-.75-1-.75s-2.45-.7-4.25-1.6c-3-1.5-3.25-1.75-3.25-3.25 0-1.55.1-1.65 1.7-1.65.95 0 4.05.55 6.9 1.25 2.85.7 5.65 1.25 6.3 1.25.75 0 1.1.3 1.1 1 0 .6-.35 1-.85 1-.9 0-8.95-1.6-11.25-2.2-.6-.2-.25.15.85.75 5.7 3.05 10.3 6.15 12.2 8.2 1.75 1.9 2.05 2.55 2.05 4.35 0 2.55-1.3 5.45-3.45 7.9l-1.5 1.75-.05-1.85zm-187-18.85c0-1.05.95-1.55 2.8-1.55 1.5 0 1.55.7.1 1.7-1.55 1.1-2.9 1-2.9-.15zm-6.85-.8l-1.4-1.2 1.9-.05c1.65 0 1.85.15 1.85 1.25 0 1.55-.55 1.6-2.35 0zm200.85-.15c0-.8 2.85-2.1 4.75-2.1.45 0 .75-.45.75-1.2 0-.7.3-1.55.7-1.9.35-.4.85-1.2 1-1.8.2-.6.55-1.1.8-1.1.2 0 .55-.55.7-1.25.2-.7.65-1.25 1.05-1.25s.75-.45.75-1c0-.6.5-2 1.05-3.1 1.45-2.85 2.95-7.3 2.95-8.75 0-.8.3-1.15 1-1.15 1.35 0 1.3 1.5-.25 6.35-1.3 4.05-6.9 14.4-9.15 16.8-1.95 2.05-6.1 3.05-6.1 1.45zM381 521c0-.8.35-1 1.75-1 1.95 0 2.3.7.8 1.5-1.55.8-2.55.6-2.55-.5zm-14.5-1.45c-.8-1.55-.6-2.55.5-2.55.8 0 1 .35 1 1.75 0 1.95-.7 2.3-1.5.8zm59.25-.9c-1-6.05-1.1-6.15-6.05-6.15-3.45 0-3.7-.05-3.7-1.05 0-1.05.2-1.05 4.45-.85 3.15.15 4.65.45 5.2 1 1.65 1.6 2.55 8.9 1.1 8.9-.45 0-.8-.7-1-1.85zm-37.75-3.4c0-1.1.2-1.25 1.9-1.25l1.85.05-1.4 1.2c-1.8 1.6-2.35 1.55-2.35 0zm10.5-2.25c0-.9.35-1 2.75-1 2 0 2.75.2 2.75.7 0 .8-1.5 1.3-3.85 1.3-1.3 0-1.65-.2-1.65-1zm-30.55-.15c.65-.8.25-1.35-.95-1.35-3.85 0-25.5-8.1-25.5-9.55 0-.5 2.5-.6 3.7-.15.45.15.8.6.8 1 0 .45.6.7 1.7.7.95 0 2.05.3 2.4.65.35.4 1.5.85 2.55 1.05 1 .2 1.85.55 1.85.8 0 .3.35.5.8.5.45 0 3.1.65 5.9 1.5 2.75.8 6 1.6 7.2 1.8 2 .3 2.1.4 2.1 2 0 1.55-.1 1.7-1.55 1.7-1.25 0-1.45-.15-1-.65zm37.05-.35c0-.85.35-1 2.5-1 1.8 0 2.5.2 2.5.7 0 .75-1.5 1.3-3.6 1.3-1.05 0-1.4-.25-1.4-1zm5.5-.5c0-.85.35-1 2.25-1 2.45 0 3.2 1.15 1.15 1.7-2.25.6-3.4.35-3.4-.7zm-73.7-12.25c-3.45-2.05-7.4-4.95-8.3-6-.55-.65-.35-.75 1.25-.75 1.4 0 1.9.25 2.1 1 .15.55.7 1 1.2 1 .55 0 .95.25.95.5 0 .3.35.5.75.5s.75.25.75.5c0 .3.35.5.75.5s.75.2.75.4.8.7 1.75 1.05c1.35.45 1.75.9 1.75 1.85 0 .65-.2 1.2-.4 1.2-.25 0-1.7-.8-3.3-1.75zm247.7-5.6c-.65-2.95-3.1-6.15-5.25-6.8-.55-.15-2.55-.9-4.5-1.6-4.75-1.8-16.25-4.7-29.75-7.5-40.55-8.3-50.45-10.8-58.35-14.55-2.7-1.3-3.65-2-3.65-2.7 0-.65-.35-1-1-1-.55 0-1-.3-1-.7 0-.4-.2-.8-.45-.9-1.55-.6-4.05-8.8-2.5-8.3.25.1 1.55 2.2 2.85 4.65 2.1 3.9 2.65 4.65 5.05 6.05 6.15 3.7 16.95 6.7 45.8 12.7 32.1 6.65 42.2 9.2 48.55 12.2 4 1.9 4.95 2.95 6 6.9.95 3.55.9 4.4-.2 4.4-.75 0-1.1-.65-1.6-2.85zm-263.05-7.65c-7.1-8.35-13.05-20.6-16.7-34.2-1.35-4.85-1.6-5.4-2.25-4.3-1 1.8-7.15 9-9.9 11.65-5.05 4.75-5.85 3.85-5.5-6.1.15-3.7.05-6.3-.15-5.8-.2.55-1 2.65-1.75 4.7-1.6 4.35-3.75 7.05-5.6 7.05-2.9 0-8.25-1.75-14.5-4.8-3.65-1.8-6.75-3.55-6.9-3.95-.15-.4.4-3.05 1.25-5.9C261 439.65 264 427 264 425.7c0-.55-.95-.7-4.1-.7-4.6 0-9.1-.6-13.75-1.85-3.55-.9-3.8-1.45-2.2-4.9 1.15-2.45 2.5-3.75 6.05-5.7l2.75-1.55h-2.5c-5.9 0-15-2.3-22.1-5.5-10.2-4.65-23.6-16.65-29.6-26.5-3.15-5.25 1.25-8 12.75-8 5.45 0 10.85 1.2 19.4 4.15 3.55 1.25 6.25 2.1 6 1.9-.25-.25-2.6-1.95-5.2-3.8-13.05-9.3-25.05-19.45-35.45-29.8-7.15-7.2-11.65-12.95-14.75-18.95-4.35-8.4-5.3-13.5-3.15-17.2 1.8-3.2 3.35-4.05 7.5-4.05 3.3 0 4.05.2 8.85 2.5 8.9 4.2 18.25 9.85 24.65 14.9 3.8 2.95 2.1 1-3.8-4.4-15.65-14.35-21.8-24.8-21.85-36.8 0-6.25 1.9-10.1 5.35-10.75 3.65-.7 6.65.45 14.65 5.6.7.45.15-.25-1.25-1.5-3.3-3.05-2.35-2.9 2 .3 31.9 23.5 46.6 35.2 74.6 59.3 7 6 7.15 6.1 7.4 4.75.15-.8.7-3.2 1.2-5.4s1.05-4.35 1.15-4.75c.1-.5-.85-1-3.45-1.7-2.25-.55-3.65-1.2-3.65-1.6 0-.95 1.8-.9 5.75.1l3.25.8v1.85c0 1-.45 3.25-1 4.95-.55 1.75-1.15 4.4-1.3 5.9-.35 2.65-.35 2.7-2 2.7-1.2 0-1.7-.25-1.7-.75 0-.45-.45-.75-1.15-.75-1.45 0-2.35-.9-2.35-2.35 0-.95-.25-1.15-1.4-1.15-1.7 0-2.6-.8-2.6-2.3 0-.9-.3-1.15-1.6-1.3-1.25-.1-1.7-.4-1.8-1.25-.1-.75-.55-1.15-1.5-1.25-.95-.1-1.4-.5-1.5-1.25-.1-.75-.55-1.15-1.5-1.25-1.05-.1-1.4-.45-1.5-1.5-.15-1.15-.4-1.4-1.55-1.4-1.55 0-2.55-.8-2.55-2.05 0-.6-.45-.95-1.35-1.05-1-.1-1.45-.45-1.55-1.25-.1-.75-.55-1.15-1.5-1.25-.95-.1-1.4-.5-1.5-1.25-.1-.75-.55-1.15-1.5-1.25-.95-.1-1.4-.5-1.5-1.25-.15-.85-.5-1.15-1.45-1.15-.8 0-1.35-.35-1.5-1-.15-.55-.7-1-1.2-1-.6 0-.95-.35-.95-.95 0-.7-.4-1.05-1.35-1.15-1-.1-1.45-.45-1.55-1.25-.1-.85-.5-1.15-1.35-1.15-.65 0-1.4-.3-1.6-.65-.2-.4-.8-.8-1.25-1-.5-.15-.9-.65-.9-1.05s-.5-.8-1.1-.9c-.75-.1-1.2-.55-1.3-1.25-.15-.85-.5-1.15-1.4-1.15-.75 0-1.2-.3-1.2-.75s-.45-.75-1.05-.75c-.6 0-1.15-.4-1.3-1-.15-.55-.7-1-1.2-1-.55 0-1.1-.35-1.25-.75-.2-.4-.6-.75-1-.75s-.7-.35-.7-.75-.45-.75-1-.75-1-.2-1-.45-.45-.55-1-.7c-.6-.15-1-.7-1-1.3 0-.7-.3-1.05-1-1.05-1.45 0-1.25.55.8 2.55 2.1 2 11.75 13.15 14.35 16.6 1.4 1.85 1.85 2.9 1.85 4.4 0 1.9-.05 1.95-1.7 1.95-.9 0-2.65-.35-3.85-.8-1.2-.4-3.05-.75-4.05-.8-2.55-.05-5.95 1.95-7.15 4.2l-.95 1.8 1.35 3.5c1.8 4.5 5.85 11.3 9.2 15.35 1.95 2.4 2.65 3.65 2.65 4.8 0 1.55-.05 1.55-2.1 1.3-1.2-.1-2.9-.5-3.75-.9-1.45-.6-1.75-.55-3 .35-.8.6-1.7 1.85-2.05 2.85-.6 1.5-.6 2.15.1 4.45 2.05 6.95 9.1 15.2 15.95 18.6 2.15 1.05 4.75 2 5.85 2.15 1.9.25 2 .35 2 2.1 0 1.45-.3 2-1.35 2.65-2.05 1.2-4.05 3.45-4.4 4.95-.65 2.65 3.4 5.65 11.2 8.2l2.7.9-.3 9.55c-.2 5.25-.65 11.8-1.1 14.55-1.1 7.6-1.25 7.1 2.25 6.85l3-.2v2.25c0 1.75.3 2.65 1.35 3.95 1.8 2.15 2 2.3 4.4 2.95 2.85.8 5.2.65 8.55-.5 1.6-.6 3.65-1.05 4.55-1.05 1.55 0 1.65.1 1.65 1.8 0 3.5 1.95 4.7 5 2.95.7-.4 2.05-.7 3.05-.75 1.8 0 1.8.05 2.15 2.3.6 4.5 2.9 14.05 4.85 20 1.05 3.3 1.95 6.3 1.95 6.65 0 .35.35.95.75 1.35.4.45.75 1.3.75 1.95 0 .65.2 1.25.45 1.35.65.25 3.05 5.25 3.05 6.4 0 .55.3 1 .7 1 .4 0 .9.5 1.1 1.1.15.6.75 1.55 1.25 2.1.55.55.95 1.3.95 1.65 0 .35.25.65.5.65.3 0 .5.35.5.75s.25.75.5.75c.3 0 .5.55.5 1.25 0 .9.25 1.25.95 1.25 1.35 0 2.15 1.2 1.95 3.05l-.15 1.65-2.3-2.7zm151.8-42.6c-8.3-17.7-14.95-31.05-19.6-39.4-2.55-4.5-3.15-6.05-3.05-7.45.15-1.55.35-1.85 1.6-2.05 1.4-.25 1.45-.4 1.5-2.75l.05-2.5 5.75-3c7.5-3.9 8.3-4.5 9.8-7.1 1.5-2.5 1.35-3.9-.55-5.7-.8-.8-1.25-1.75-1.25-2.75 0-1.5.25-1.7 6.65-4.85C487 360 498 351.4 498 347.7c0-2.2-4.7-4.7-8.85-4.7-1.55 0-1.65-.1-1.65-1.65 0-1.3.3-1.8 1.65-2.55 5.85-3.4 12.15-10.3 15.5-17.05 3.75-7.5 4.3-13 1.65-16.45-2.4-3.15-4.75-3.05-9.05.45-3.35 2.75-5.75 3.1-5.75.9 0-.7.65-2.7 1.5-4.45 2.1-4.5 4.4-11.65 5.35-16.85.75-4.1.75-4.55-.05-6.2-1.2-2.55-4.5-3.9-7.85-3.2-3 .65-4.7 1.5-8.85 4.35-2.25 1.55-3.65 2.2-4.85 2.2-1.7 0-1.75-.05-1.75-1.95 0-2.25 5.8-15.55 11.35-25.9 1.95-3.8 2.9-6.05 2.45-5.85-.45.15-.8.6-.8 1s-.35.7-.75.7-.75.45-.75 1-.35 1.15-.75 1.3c-.4.2-.75.6-.75 1s-.35.7-.75.7c-.45 0-.75.45-.75 1.05 0 .6-.4 1.15-1 1.3-.55.15-1 .7-1 1.2 0 .55-.2.95-.5.95-.25 0-.5.35-.5.8 0 .45-.45.9-1 1.05-.55.15-1 .7-1 1.2 0 .55-.35.95-.75.95s-.75.45-.75 1-.35 1-.75 1-.75.45-.75 1-.2 1-.5 1c-.25 0-.5.35-.5.75 0 .45-.35.9-.75 1.05-.4.2-.75.65-.75 1 0 .4-.35.85-.75 1-.4.2-.75.6-.75 1s-.35.7-.75.7-.75.45-.75 1-.2 1-.5 1c-.25 0-.5.35-.5.75 0 .45-.35.9-.75 1.05-.4.2-.75.65-.75 1 0 .4-.35.85-.75 1-.4.2-.75.6-.75 1s-.2.7-.5.7c-.25 0-.5.35-.5.75 0 .45-.35.9-.75 1.05-.4.2-.75.6-.75 1s-.2.7-.5.7c-.25 0-.5.35-.5.75 0 .45-.35.9-.75 1.05-.4.2-.75.6-.75 1s-.35.7-.75.7-.75.45-.75 1-.2 1-.5 1c-.25 0-.5.35-.5.75s-.35.75-.75.75-.75.45-.75 1-.2 1-.5 1c-.25 0-.5.35-.5.75s-.2.75-.5.75c-.25 0-.5.35-.5.75s-.35.75-.75.75-.75.45-.75 1-.2 1-.5 1c-.25 0-.5.35-.5.75s-.2.75-.5.75c-.25 0-.5.35-.5.75 0 .35-.3.9-.65 1.1-.35.2-.9 1-1.2 1.8-.35.75-.85 1.35-1.15 1.35-.25 0-.5.35-.5.75s-.2.75-.5.75c-.25 0-.5.35-.5.75s-.2.75-.5.75c-.25 0-.5.35-.5.75s-.2.75-.5.75c-.25 0-.5.35-.5.75s-.2.75-.5.75c-.25 0-.5.35-.5.75s-.35.75-.75.75-.75.45-.75 1-.2 1-.5 1c-.25 0-.5.35-.5.75s-.2.75-.5.75c-.25 0-.5.35-.5.75s-.2.75-.5.75c-.25 0-.5.35-.5.75s-.2.75-.5.75c-.25 0-.5.35-.5.75s-.2.75-.5.75c-.25 0-.5.35-.5.75s-.2.75-.5.75c-.25 0-.5.35-.5.75s-.2.75-.5.75c-.25 0-.5.35-.5.75s-.2.75-.5.75c-.25 0-.5.35-.5.75s-.2.75-.5.75c-.25 0-.5.35-.5.75s-.2.75-.5.75c-.25 0-.5.35-.5.75s-.2.75-.5.75c-.25 0-.5.35-.5.75s-.2.75-.5.75c-.25 0-.5.35-.5.75s-.2.75-.5.75c-.25 0-.5.35-.5.75s-.2.75-.5.75c-.25 0-.5.35-.5.75s-.2.75-.5.75c-.25 0-.5.35-.5.75s-.35.75-.75.75c-.45 0-.75.45-.75 1.25 0 .7-.2 1.25-.5 1.25-.25 0-.5.35-.5.75s-.2.75-.5.75c-.25 0-.5.35-.5.75s-.2.75-.5.75c-.25 0-.5.35-.5.75 0 .45-.45.75-1.25.75-.7 0-1.25-.2-1.25-.45 0-.8 27.85-42.2 37.65-55.9 12.9-18.1 31.2-42.4 44.85-59.6 6.8-8.55 7.85-9.25 2.9-1.95-3.1 4.65-2.8 4.95.7.65 8.05-9.85 13.9-13.65 19.05-12.2 4.85 1.3 8.35 8.45 8.35 16.9-.05 9.8-5.1 22-15.5 37.3-1.5 2.2-3.4 5.8-2.65 5 .25-.25 2.5-2.95 4.95-6 8.05-9.9 22-23.65 27.05-26.6 8.95-5.2 17.15-1.55 17.15 7.65 0 6.75-3 16.9-7.75 26.35-6.95 13.75-23.1 37.55-35.35 52.05-2.25 2.7-4.5 5.4-4.9 6l-.75 1.05 1.35-1c.7-.55 4.3-3.25 8-6.05 10.3-7.8 18-11.95 26.75-14.45 6.1-1.75 10-1.6 11.1.35.7 1.2.65 1.6-.4 4.75-1.85 5.5-6.65 15.1-10 20.05-9.8 14.65-23.65 26.45-38.35 32.85l-3.7 1.6 4.4.25c2.4.15 5.25.65 6.35 1.1 2.1.9 4.75 3.15 4.75 4.05 0 .85-7.25 5.5-13.25 8.45-4.35 2.15-14.4 5.9-19.2 7.15-.55.15-.55.35.15 1.05 1.8 2 .6 6.35-2.45 9.05-3.75 3.3-12.5 6.5-17.7 6.55-1.4 0-1.6.15-1.3.9.8 1.9.85 3.15 0 4.4-1.1 1.7-4.45 3.2-7.35 3.2h-2.3l7 14.65c8.65 18.05 8.2 16.85 6.7 16.85-.95 0-1.5-.8-3.55-5.1zM413.5 350c0-1.35-.15-1.5-1.65-1.5-2.25 0-4.5-2.3-4.25-4.3.15-1.4.15-1.4 3.7 1.95 1.95 1.85 3.8 3.35 4.1 3.35.25 0 1.35-1.35 2.4-3 1.1-1.65 2.1-3 2.35-3 .2 0 .35.8.35 1.75s-.2 1.75-.5 1.75c-.25 0-.5.35-.5.75s-.2.75-.4.75-.65.7-.95 1.5c-.5 1.35-.8 1.5-2.6 1.5-1.95 0-2.05-.1-2.05-1.5zm-10.8-8.7c-.15-.4-.2-1.3-.1-2.05l.15-1.3 2 2 1.95 2.05h-1.85c-1.15 0-2-.25-2.15-.7zm-4.7-5.55c0-.4-.2-.75-.5-.75-.25 0-.5-.35-.5-.75s-.2-.75-.45-.75-.65-.5-.85-1.1c-.2-.65-.5-1.25-.7-1.4-.7-.45-3-5.45-3-6.5 0-.55-.3-1-.7-1-.35 0-1-.75-1.35-1.6-.35-.9-.95-1.95-1.3-2.3-.35-.35-.65-1-.65-1.4 0-.4-.2-.7-.5-.7-.25 0-.5-.35-.5-.75s-.2-.75-.5-.75c-.25 0-.5-.35-.5-.75s-.2-.75-.5-.75c-.25 0-.5-.35-.5-.75s-.2-.75-.5-.75c-.25 0-.5-.4-.5-.95 0-.5-.45-1.05-1-1.2-.75-.2-1-.7-1-1.8 0-1.3-.2-1.55-1.15-1.55-1.35 0-4.35-2.9-4.35-4.15 0-.6-.4-.85-1.25-.85-.7 0-1.4-.35-1.55-.75-.2-.4-.6-.75-1-.75s-.7-.2-.7-.45-.55-.6-1.25-.75c-.9-.25-1.25-.65-1.25-1.55 0-.7.2-1.25.4-1.25 1.2 0 7.15 4.5 10.35 7.75 4.5 4.65 8.55 10.5 13.8 20.05 2.25 4.1 4.75 8.4 5.55 9.6l1.45 2.1h-1.55c-1 0-1.5-.25-1.5-.75z"/>
    <path d="M287.7 322.25c-.4-.95.55-2.1 2.35-3.05 1.85-.95 1.95-.9 1.95.55 0 .9-.35 1.3-1.25 1.55-.7.15-1.25.6-1.25 1 0 .95-1.45.9-1.8-.05zm38.8-1.45c0-.7.25-1.4.5-1.55.3-.15.5 0 .5.4 0 2.45 6.05-2.85 7.05-6.1.75-2.55 1.95-2.75 1.95-.3 0 1.2-.25 1.75-.75 1.75s-.75.5-.75 1.5c0 1.25-.2 1.5-1.25 1.5-1 0-1.25.25-1.25 1.25s-.25 1.25-1.25 1.25c-.8 0-1.25.3-1.25.75 0 .5-.55.75-1.75.75-1.5 0-1.75-.15-1.75-1.2zm88.9-3.8c-3.95-.7-7.4-2.05-7.95-3.05-.3-.65-.85-.9-1.4-.7-.95.3-6.05-3.1-10.05-6.7-2-1.75-2.1-2-1.1-2.05.9 0 1.1-.25 1.1-1.75 0-1.4-.2-1.75-1-1.75s-1-.35-1-1.75c0-2.3.55-2.2 2 .4.65 1.15 1.8 3.05 2.6 4.25 1.35 2 1.4 2.1.4 2.1-.55 0-1 .25-1 .5 0 .3.6.5 1.3.5.85 0 1.4.3 1.55 1 .3 1.2 1.15 1.35 1.15.2 0-.65.35-.55 1.65.5.85.7 2.75 1.85 4.2 2.55 1.45.7 2.75 1.7 2.9 2.2.25.75.75.9 3.1.85 1.85-.05 2.9.15 3 .6.25.7 3.65.85 3.65.1 0-.25.85-.6 1.9-.8 1-.2 2.7-.65 3.75-1 1.6-.55 1.85-.55 1.85.05 0 .95.4.95 1.3.05.35-.4.45-.8.2-.9-.25-.1 1.1-1.55 3-3.3l3.5-3.15v1.5c0 1.3.2 1.55 1.25 1.55 1.1 0 1.25-.2 1.25-1.75 0-1.4.2-1.75 1-1.75.75 0 1-.35 1-1.25 0-.8.3-1.25.75-1.25s.75-.45.75-1.2c0-.7.35-1.55.75-2 .4-.4.75-1.3.75-2 0-1 .25-1.3 1.05-1.3.95 0 1.05.2.75 1.65-.9 4.65-6.05 11.3-11.4 14.75-5.5 3.55-12.7 5.15-18.5 4.1zm-118.9-.5c0-.4 6.5-4 7.25-4 .15 0 .25.5.25 1.15 0 .85-.55 1.4-2.25 2.25-2.35 1.15-5.25 1.45-5.25.6zm29-3.5c0-2.25 1.15-2.85 1.7-.85.55 2.05.35 2.85-.7 2.85-.85 0-1-.35-1-2zm-20.75-1c.15-.25 1.3-1.2 2.55-2l2.2-1.55V310c0 1-.25 1.5-.75 1.5-.4 0-.75.25-.75.5 0 .3-.8.5-1.8.5s-1.65-.2-1.45-.5zm29.1-6.25l-1.3-2.25H334c1.5 0 2 .75 2 3.05 0 2.05-.7 1.8-2.15-.8zm-22.15.3c1-1.1 3.8-2.55 5-2.55.45 0 .8.4.8.95 0 .65-.45 1.05-1.5 1.3-.8.2-1.5.55-1.5.8s-.8.45-1.85.45c-1.75 0-1.8-.05-.95-.95zm9.2.1c-1-.15-1.4-.5-1.4-1.2 0-1.45 3.05-1.3 4.85.3l1.4 1.2-1.75-.05c-.95 0-2.35-.15-3.1-.25zm66.95-6.65c-6.1-5.1-8.85-6.7-13.1-7.45-1.6-.3-3-.55-3.1-.55-.1 0-.15-.35-.15-.8 0-.75.45-.8 3.15-.5 1.7.15 3.2.55 3.25.8.1.3.7.5 1.35.5 1.7 0 2.75.5 2.75 1.3 0 .4.5.7 1.25.7.9 0 1.25.25 1.25 1s.35 1 1.25 1c1 0 1.25.25 1.25 1.25 0 1.05.25 1.25 1.5 1.25 1.35 0 1.5.15 1.5 1.5 0 1.4.15 1.5 1.75 1.5s1.75.1 1.75 1.5c0 .85-.05 1.5-.15 1.5-.05 0-2.5-2-5.5-4.5z"/>
    <path d="M437.6 303.6c.1-.25 1.15-2.95 2.4-6 2.2-5.5 3.5-7.05 3.5-4.1 0 1.55-.9 4-1.5 4-.2 0-.5.9-.7 2-.15 1.1-.55 2-.8 2-.3 0-.5.55-.5 1.25 0 1-.25 1.25-1.3 1.25-.7 0-1.2-.2-1.1-.4zM330.5 302c-.7-.55-1.5-1-1.85-1-.3 0-.75-.25-.9-.5-.35-.6 3.7-2.5 9.65-4.5 3.45-1.15 4.35-1.7 5.55-3.3 4.65-6.4 8.7-9.3 13.95-9.95 2.4-.3 2.6-.25 2.6.7 0 .85-.3 1.05-1.55 1.05-2.45 0-6.45 2-8.6 4.35-1.25 1.35-2.4 2.15-3.15 2.15-1 0-1.2.25-1.2 1.5 0 .85-.2 1.5-.45 1.5s-.6.55-.75 1.2c-.2.75-.75 1.3-1.65 1.5-.8.15-3.35 1.05-5.75 1.9-3.95 1.45-4.35 1.7-4.5 2.95l-.15 1.4-1.25-.95zm35-4.9c0-.5-7.7-2.1-10.1-2.1-1.85 0-1.9-.05-1.9-1.75 0-1.6.15-1.75 1.45-1.75.8 0 1.55-.2 1.65-.45.1-.3 1.9-.65 4.05-.85 3.3-.3 3.85-.25 3.85.45 0 .8-.85 1.05-5.75 1.65-3.35.35-3 .6 2.65 1.65 3.6.7 7.6 2.25 7.6 3.05 0 .25-.8.5-1.75.5s-1.75-.2-1.75-.4zm25.5-1.85c0-.9-.25-1.25-.9-1.25-1.4 0-2.7-1.7-2.5-3.35l.15-1.4 2 2c1.1 1.1 2.55 2.75 3.15 3.65l1.15 1.6h-1.5c-1.3 0-1.55-.2-1.55-1.25zm54-1.05c0-2.55 1.1-5.2 2.15-5.2.8 0 .95.25.7 1.45-.8 3.95-2.85 6.65-2.85 3.75z"/>
    <path d="M442.5 290.65c0-1.7.6-3.15 1.3-3.15.5 0 .7.65.7 2 0 1.65-.15 2-1 2-.6 0-1-.35-1-.85zm-60-2.1c0-.25-1-.6-2.25-.75-1.85-.3-2.25-.55-2.25-1.4 0-.9.2-.95 1.85-.65 2.25.4 6.15 2.2 6.15 2.8 0 .25-.8.45-1.75.45s-1.75-.2-1.75-.45zm64.7-5.65c0-3.95-.15-5.65-.6-5.8-.3-.1-.6-.95-.6-1.95 0-2.55 1.05-1.85 2.15 1.4 1.4 4.25 1.2 11.95-.35 11.95-.45 0-.6-1.45-.6-5.6zm-76.95 3.05c-1.65-.55-4.3-1.1-5.85-1.3-2.4-.25-2.9-.45-2.9-1.2 0-1.1.55-1.15 4.75-.45 4.7.75 10.25 2.55 10.25 3.3 0 .95-2.6.8-6.25-.35zm72.55-3.55c-.15-.9-.35-2.5-.5-3.55-.15-1.05-1.1-3.1-2.25-4.75-1.15-1.6-2.05-3.05-2.05-3.25 0-.2.55-.35 1.25-.35.9 0 1.25.25 1.25 1 0 .55.35 1 .75 1s.75.35.75.75.25.75.5.75c.3 0 .5.45.5.95 0 .55.2 1.05.5 1.15.25.1.65 1.9.8 4.05.3 3.35.25 3.85-.45 3.85-.5 0-.9-.55-1.05-1.6zm-33.25.25c-2.85-1.15-3.25-2.15-.85-2.15 1 0 1.8.25 1.8.5 0 .3 1.4.5 3.25.5 1.8 0 3.25-.2 3.25-.4 0-.55 3.3-2.1 4.5-2.1.55 0 1-.15 1-.35 0-.25-2.15-.4-4.85-.4-3.4 0-4.9-.2-5-.6-.15-.35-.65-.65-1.15-.65-1.6 0-2.5-.55-2.5-1.55 0-.6-.35-.95-.95-.95-1 0-1.55-1.25-1.55-3.6 0-2.1 1.2-1.7 2 .75.65 1.8 1.15 2.3 3.6 3.5 3.65 1.85 6.85 2 9.8.5 2.75-1.5 3.1-1.45 3.1.35 0 4.75-9.7 8.9-15.45 6.65zm-5.7-4c-1.2-1.4-3.25-5.7-3.6-7.75-.3-1.7-.25-1.9.65-1.9.85 0 1.1.4 1.4 2.25.15 1.25.5 2.25.75 2.25s.45.55.45 1.25c0 .8.3 1.25.75 1.25.5 0 .75.55.75 1.75 0 2-.05 2.05-1.15.9zm39.95-8.75c-.45-1.8-.35-3.9.25-3.9.55 0 1.95 3 1.95 4.25 0 1.2-1.85.9-2.2-.35zm-7.5-1.95c-.5-.8-1.95-2.55-3.25-3.85-1.35-1.3-3-3.25-3.7-4.35-1.45-2.2-3.25-3.45-5.7-4-2.25-.45-2.2-1.75.1-1.75 1.2 0 1.75.25 1.75.75s.55.75 1.75.75 1.75.25 1.75.75c0 .4.35.75.75.75s.75.35.75.75.25.75.5.75c.3 0 .5.25.5.5 0 .3.8 1.25 1.75 2.15.95.85 1.75 1.85 1.75 2.15 0 .35.45.7 1 .85.55.15 1 .6 1 1.05 0 .45.25.8.5.8.3 0 .5.8.5 1.75 0 2.15-.5 2.2-1.7.2z"/>
    <path d="M406.5 266c0-2.05 1.45-5.5 2.3-5.5.4 0 .7-.4.7-.9 0-1.3 1-2.1 2.6-2.1 1.05 0 1.4-.25 1.4-1s.6-1.15 2.6-1.75c3.25-.95 5.4-1 5.4-.05 0 .4-.95.9-2.3 1.25-5.25 1.35-8.9 4.5-10.55 9-1 2.85-2.15 3.4-2.15 1.05zm34.65-2.75c-.5-1.25-1.05-2.25-1.25-2.25-.25 0-.4-.35-.4-.75s-.2-.75-.5-.75c-.25 0-.5-.8-.5-1.8 0-1.55.1-1.75.7-1.2 1.05.8 3.6 4.9 4.55 7.15.75 1.85.75 1.85-.45 1.85-.95 0-1.4-.45-2.15-2.25zM400 264.4c0-1.5.65-2.9 1.3-2.9.45 0 .7.6.7 1.75 0 1.4-.2 1.75-1 1.75-.55 0-1-.3-1-.6zm1.35-4.75c.9-2.4 3.55-5.95 5.75-7.7 2.9-2.3 3.4-2.4 3.4-.7 0 .9-.25 1.25-.95 1.25-.5 0-1.05.45-1.2 1-.15.55-.6 1-1.05 1-.45 0-.8.35-.8.75 0 .45-.35.9-.75 1.05-.4.2-.75.6-.75 1s-.35.7-.75.7c-.45 0-.75.45-.75 1.25 0 1-.25 1.25-1.25 1.25-.95 0-1.15-.2-.9-.85zM433.5 254c0-.25-.35-.5-.75-.5s-.75-.2-.75-.4-.8-.7-1.75-1.05c-.95-.35-1.75-.8-1.75-1 0-.2-1.35-.65-3-1-2.35-.55-3-.85-3-1.6 0-1.25 1-1.2 5.15.25 3.35 1.2 7.7 3.7 8.85 5.1.55.6.35.7-1.2.7-1 0-1.8-.2-1.8-.5zm-21.5-4.5c0-.65 1.4-1.35 3.65-1.75 1.65-.3 1.85-.25 1.85.65 0 .7-.45 1.05-1.55 1.3-2.3.45-3.95.35-3.95-.2z"/>
  </g>
  <g fill="#ddd">
    <path d="M442.6 596.2c-3.15-.85-4.6-1.55-4.6-2.25 0-.65 2.55-.4 6.4.6 1.9.5 2.6.9 2.6 1.55 0 1.05-.8 1.1-4.4.1zm10.9-.7c0-.8.35-1 1.75-1 1.95 0 2.3.7.8 1.5-1.55.8-2.55.6-2.55-.5zm4-2c0-1 .25-1.5.75-1.5.45 0 .75-.45.75-1.25 0-.7.25-1.25.5-1.25.3 0 .5-.65.5-1.5 0-1.2.2-1.5 1.05-1.5.95 0 1.05.2.75 1.6-.5 2.4-2.15 5.55-3.3 6.3-.9.55-1 .5-1-.9zm-24.5-2.05c-3.8-3-5.4-6.15-6.25-12.55-.3-2.2-.2-2.4.7-2.4.8 0 1.05.3 1.05 1.4 0 .8.35 2.55.75 3.9s.75 2.95.75 3.6c0 .65.3 1.1.75 1.1.5 0 .75.5.75 1.5 0 1.35.15 1.5 1.5 1.5 1 0 1.5.25 1.5.75 0 .4.45.75 1 .75.75 0 1 .35 1 1.25 0 1.7-.5 1.6-3.5-.8zm55-2.95c0-.8.35-1 1.75-1 2 0 2.45 1.2.65 1.7-1.9.5-2.4.35-2.4-.7zm-5-.35c-1.8-1.2-3.95-3.2-5.1-4.75l-.95-1.4h1.5c1.45 0 1.55.15 1.55 1.75 0 1.65.1 1.75 1.75 1.75.95 0 1.75.25 1.75.5 0 .3.35.5.75.5.45 0 .75.45.75 1.25 0 1.45-.35 1.55-2 .4zm11-1.15c0-.8.35-1 1.75-1 2 0 2.45 1.2.65 1.7-1.9.5-2.4.35-2.4-.7zm10.5-3.7c0-1.3.85-1.8 3.05-1.8 2.5 0 1.7 1.2-1.75 2.5-1.15.45-1.3.35-1.3-.7z"/>
    <path d="M509.5 580.8c0-1.3.8-1.8 3.05-1.8 2 0 1.8.6-.5 1.9-2.4 1.35-2.55 1.35-2.55-.1zm-35.65-3.25c-1.1-1.9-1.1-2.05.4-2.05 1.1 0 1.25.2 1.25 1.75 0 2.15-.5 2.2-1.65.3zm-11.85-1.3c0-1.4.2-1.75 1-1.75 1.05 0 1.2.5.7 2.4-.5 1.8-1.7 1.35-1.7-.65zm55.5-.2c0-1.45.15-1.55 1.75-1.55 1.7 0 1.75-.05 1.8-1.85.05-1.05 0-2.75-.05-3.75-.05-1.05.15-1.9.45-1.9.8 0 1.65 1.9 1.7 3.8.05 1.75-1.4 3.7-4.25 5.8l-1.4.95v-1.5zm-91.2-1.65c-.6-2.25-.35-3.4.7-3.4.85 0 1 .35 1 2.25 0 2.45-1.15 3.2-1.7 1.15zm44.25-3l-1.05-2.15 1.05-.15c1.35-.25 1.95.65 1.95 2.8 0 2.2-.7 2-1.95-.5zm-8.05-1.9c0-1.65.15-2 1-2 1.05 0 1.25.8.7 2.9-.55 1.95-1.7 1.35-1.7-.9zm5.45-3.85c-2.1-4.75-2.05-4.65-.7-4.65 1.1 0 1.25.2 1.25 1.75 0 1.2.25 1.75.75 1.75s.75.55.75 1.75c0 2.45-.85 2.2-2.05-.6zm50.55-1.9c0-2.15.5-2.2 1.65-.3 1.1 1.9 1.1 2.05-.4 2.05-1.1 0-1.25-.2-1.25-1.75zm-55-5c0-1.65.1-1.75 1.75-1.75s1.75.1 1.75 1.75c0 2-.55 2.25-1.65.65l-.8-1.15v1.15c-.05 1.85-1.05 1.25-1.05-.65zm76.9.4c-1.3-.35-1.1-1.65.25-1.65.6 0 2.3-.15 3.75-.3 3.05-.4 3.45.3.9 1.5-1.65.8-3.15.9-4.9.45zm-4.4-1c-2.7-1-9-4.25-9-4.65 0-.8 2.8-.6 4.75.35.95.45 1.75 1.15 1.75 1.5 0 .35.6.65 1.4.65 2.35 0 3.6.55 3.6 1.55 0 .95-.95 1.15-2.5.6zm15-4.6c0-1.45.15-1.55 1.8-1.55 1.95 0 1.9.45-.3 2l-1.5 1.05v-1.5zM509.5 551c0-.55-.35-1-.75-1s-.75-.45-.75-1-.35-1-.75-1-.75-.45-.75-1-.35-1-.75-1c-.5 0-.75-.55-.75-1.75 0-.95.1-1.75.25-1.75.1 0 1.6 1.85 3.3 4.15 1.7 2.25 3.35 4.4 3.6 4.75.35.45.1.6-1.1.6-1.2 0-1.55-.2-1.55-1z"/>
    <path d="M517.15 547.7c-3.5-2.4-8.7-6.1-11.5-8.25-2.8-2.2-5.25-3.95-5.4-3.95-.2 0 .55 1.05 1.55 2.4 3.05 3.8 3 3.6 1.25 3.6-1.2 0-1.55-.2-1.55-.95 0-.5-.45-1.05-1-1.2-.6-.15-1-.7-1-1.3 0-.6-.2-1.05-.5-1.05-.25 0-.5-.8-.5-1.75 0-1.65.1-1.75 1.75-1.75 1.2 0 1.75.25 1.75.75 0 .4.45.75 1 .75.65 0 1 .35 1 1 0 .75.35 1 1.25 1 .8 0 1.25.3 1.25.75 0 .4.45.75 1 .75s1 .35 1 .75.45.75 1 .75 1 .35 1 .75.45.75 1 .75 1 .25 1 .5c0 .3.35.5.75.5.45 0 .75.45.75 1.25 0 1.1.2 1.25 1.75 1.25.95 0 1.75.25 1.75.5 0 .3.35.5.75.5s.75.25.75.5c0 .3.35.5.75.5s.75.25.75.5c0 .3.35.5.75.5s.75.35.75.75c0 .45.45.75 1.25.75 1 0 1.25.25 1.25 1.25 0 .7-.2 1.25-.45 1.25s-3.35-1.95-6.9-4.3zm40.45.75c.15-1.6.3-1.7 2.1-1.85 1.8-.15 1.9-.1 1.3.65-.35.45-1.3 1.25-2.1 1.85l-1.45 1 .15-1.65zm5.4-5.2c0-1.2.25-1.75.75-1.75.4 0 .75-.45.75-1 0-.75.35-1 1.25-1 .7 0 1.25.2 1.25.45 0 .45-3.4 5.05-3.75 5.05-.15 0-.25-.8-.25-1.75zm3.5-6.5c0-1.4.2-1.75 1-1.75 1.05 0 1.2.5.7 2.4-.5 1.8-1.7 1.35-1.7-.65zM426 527c0-3.15.1-3.5 1-3.5s1 .35 1 3.5-.1 3.5-1 3.5-1-.35-1-3.5zm135 2c0-.25-.35-.5-.75-.5s-.75-.35-.75-.75-.45-.75-.95-.75c-1.75 0-2.55-.6-2.55-1.8 0-.65.15-1.2.35-1.2.6 0 6.95 3.95 7.65 4.7.55.7.4.8-1.2.8-1 0-1.8-.2-1.8-.5zm2.25-5.35c-.55-.1-2.2-.45-3.6-.7-1.75-.35-2.65-.75-2.65-1.25 0-.85.95-.9 5.5-.1 2.8.5 3.5.8 3.5 1.5 0 .9-.65 1-2.75.55zm6.75-.55c0-.8.45-1.1 2-1.35 1.1-.2 2-.55 2-.8s.35-.45.75-.45.75-.35.75-.75.35-.75.75-.75c.45 0 .75-.45.75-1.25 0-1 .25-1.25 1.3-1.25 1.5 0 1.45.35-.5 3.45-1.4 2.2-3.05 3.25-5.95 3.8-1.65.3-1.85.25-1.85-.65zm-19.85-.45c-.95-.2-1.15-.55-1.15-1.95 0-1.45.15-1.7 1.2-1.7 2.7 0 4.3.6 4.3 1.6 0 .9-.25.95-1.85.7l-1.9-.3 1.75 1 1.75.95-1.5-.05c-.8 0-2-.15-2.6-.25zM425.4 516c-.7-3-.7-3 .35-3 .9 0 1.2.35 1.45 1.9.45 2.9.35 4.1-.4 4.1-.4 0-.95-1.15-1.4-3zm-36.9-.95c0-1.45.15-1.55 1.8-1.55 1.95 0 1.9.45-.3 2l-1.5 1.05v-1.5zm191.5-1.8c0-1.55.15-1.75 1.25-1.75 1.5 0 1.5.15.4 2.05-1.15 1.9-1.65 1.85-1.65-.3zm-212-.5c1.1-1.2 1.1-1.25.2-1.25-2.65 0-15.1-3.85-20.95-6.5-3.5-1.55-4.15-2.5-1.8-2.5 1.95 0 3.05.45 3.05 1.25 0 .35.9.7 2.3.9 1.3.1 2.45.45 2.65.7.15.2 1.45.7 2.8 1.05 1.4.35 2.6.85 2.65 1.15.1.25.95.45 1.9.45s1.7.2 1.7.45c0 .2 1.3.55 2.85.7 1.6.15 2.95.55 3.05.85.1.25.6.5 1.15.5.75 0 .95.35.95 1.75 0 1.7-.05 1.75-1.85 1.75h-1.8l1.15-1.25zm29 .25c0-.85.35-1 2.25-1 2.45 0 3.2 1.15 1.15 1.7-2.25.6-3.4.35-3.4-.7zm7.5-.5c0-.8.35-1 1.75-1 2 0 2.45 1.2.65 1.7-1.9.5-2.4.35-2.4-.7zm5-.5c0-.85.35-1 2-1 2.25 0 2.85 1.15.9 1.7-2.1.55-2.9.35-2.9-.7zm5.5-.5c0-.85.35-1 2-1 2.25 0 2.85 1.15.9 1.7-2.1.55-2.9.35-2.9-.7zm6.4.65c-1.65-.4-1-1.65.85-1.65 1.4 0 1.75.2 1.75 1 0 1-.7 1.15-2.6.65zM583 507.3c0-1.6.15-1.8 1.25-1.8 1.2 0 1.25.05.6 1.6-.95 2.3-1.85 2.4-1.85.2zm1.8-7.2l.35-4.45-2.2-.6c-11.25-3-17.25-4.15-32.45-6-18.65-2.3-39.45-3.55-59.5-3.55-17.35 0-26.95-1.15-36.7-4.4l-5.55-1.85-.15-1.9c-.1-1.25.1-2.25.6-2.75.4-.5.95-1.5 1.25-2.25 1.15-3-2.5-7.85-5.85-7.85-.7 0-1.8.65-2.6 1.5l-1.45 1.55-6.65-.6-6.6-.6-2.7-2.3c-9.45-8.05-12.75-11.1-20.2-18.65-9.85-9.95-19.6-21.05-24.8-28.35-1.95-2.7-2.1-5-.4-6.65 2.05-2 6-8.55 7.25-12 .45-1.25.8-1.4 2.75-1.4 1.65 0 2.6.35 3.7 1.25 1.8 1.5 1.85 1.5 3.1.35 1.45-1.35 2.15-3.5 2.45-7.85l.3-4 1.6-.15c1.1-.1 3.15.55 6.25 1.95 5.6 2.5 8.2 2.75 10.1 1 1.55-1.5 2.1-3.25 2.5-8.05.2-2.05.6-3.9.95-4.1 1.15-.75 3.7-.4 4.6.6 1.25 1.4 1.9 1.25 3.65-.75 1.65-1.85 2.6-4.45 2.6-7.1 0-1.55.1-1.65 1.7-1.65 2.05 0 3.8 1.7 8.2 8 1.65 2.35 3.6 4.95 4.3 5.8.7.9 1.3 1.9 1.3 2.3 0 .45.8 1.5 1.75 2.45.95.95 1.75 2 1.75 2.4 0 1.1 2.7 5.55 3.4 5.55.3 0 .6.35.6.75s-.3.75-.7.75c-1.5 0-1.2 1.05 1.9 6.55 1.7 3.15 4.2 7.85 5.5 10.45 1.35 2.6 2.9 5.75 3.55 7 .65 1.25 4.8 9.9 9.25 19.25s8.65 17.75 9.3 18.6c3.8 5.05 14.8 8.35 55.45 16.7 32.4 6.65 42.75 9.7 45.95 13.5 1.65 1.95 3 7.8 2.6 11.1-.55 3.9-.85 4.85-1.6 4.85-.6 0-.7-.75-.4-4.4zm-247.15 0c-1.75-1-3.15-2-3.15-2.2 0-.2.8-.4 1.75-.4 1.4 0 1.75.2 1.75 1s.35 1 1.75 1c1.55 0 1.75.15 1.75 1.25 0 .7-.15 1.25-.35 1.25-.25-.05-1.8-.85-3.5-1.9zm-7.65-5.2c-3.15-2.55-3.2-2.65-1.85-2.8 2-.25 2.85.2 2.85 1.4 0 .75.35 1 1.25 1 1.05 0 1.25.25 1.25 1.5 0 .85-.05 1.5-.15 1.5-.05 0-1.55-1.2-3.35-2.6zm-8.05-8c-1.25-1.45-2.75-3.4-3.4-4.25l-1.1-1.65h1.5c1.05 0 1.55.25 1.55.75 0 .4.25.75.5.75.3 0 .5.8.5 1.75 0 1.6.1 1.75 1.5 1.75s1.5.15 1.5 1.75c0 .95-.05 1.75-.15 1.75-.1 0-1.15-1.2-2.4-2.6zm-7.6-10.85c-1.1-1.9-1.1-2.05.4-2.05 1.1 0 1.25.2 1.25 1.75 0 2.15-.5 2.2-1.65.3zm-4.4-8.9c-2.1-4.75-2.05-4.65-.7-4.65 1.1 0 1.25.2 1.25 1.75 0 1.2.25 1.75.75 1.75s.75.55.75 1.75c0 2.45-.85 2.2-2.05-.6zm-4.9-14c-.6-2.15-1.7-6.95-2.4-10.65-.75-3.7-1.4-6.8-1.4-6.85-.05-.1-1.2.35-2.6.9-3.55 1.55-5.95 1.05-7-1.4-.4-1-.6-2.2-.5-2.75.3-1.1.25-1.1-1.9-.15-3.5 1.45-7.4 1.9-10.55 1.25-3.9-.8-4.7-1.25-6.3-3.35-1.05-1.35-1.4-2.4-1.4-4.05v-2.2l-1.85.3c-1.05.2-2.5.45-3.25.6-1.7.35-1.7.55-.4-8.55.55-3.85 1.15-10.65 1.3-15.1l.35-8.1-1.3-.35c-.75-.15-1.35-.65-1.35-1.05 0-.9 1.65-.75 7.25.5 1.95.45 5.45.95 7.9 1.15 4.25.35 4.35.4 4.35 1.6 0 .7-.25 2-.6 2.9-1.25 3.55 1.95 7.2 7.25 8.25l2.8.6-.1 5.3c-.1 7.45 1 9.4 5.75 10l2.65.3.55 5.75c.8 7.55 1.9 13.95 3.7 20.95 1.65 6.35 1.85 8.05.8 8.05-.45 0-1.1-1.4-1.75-3.85z"/>
    <path d="M455 394.15v-1.85l1.05 1.15c1.1 1.2.95 2.55-.3 2.55-.55 0-.75-.5-.75-1.85zm1-4.8c0-.85.5-1.4 1.75-2 1.95-.95 4.75-1.15 4.75-.35 0 .4-5.5 3.5-6.25 3.5-.15 0-.25-.5-.25-1.15zm-201.85-2.55c-1.45-1.8-1.5-3.3-.15-3.3 1.05 0 1.7 1.6 1.4 3.55-.15 1.2-.15 1.2-1.25-.25zM465 384.75c0-.85.25-1.25.9-1.25.45 0 1.1-.5 1.35-1.1.35-.8 1-1.2 2.15-1.3 1.65-.15 1.65-.15.85 1.05-.75 1.2-4.15 3.85-4.9 3.85-.2 0-.35-.55-.35-1.25zm-211.65-4.2c.15-.55.7-1.35 1.2-1.85.9-.85.95-.8.95.95 0 1.6-.15 1.85-1.2 1.85-.95 0-1.15-.2-.95-.95zm4.15-4.05c0-.3.35-.65.75-.8 1.15-.45.9-1.2-.35-1.2-1.95 0-3.4-.6-3.4-1.3 0-.45.6-.7 1.75-.7.95 0 1.75.25 1.75.5 0 .3.7.5 1.5.5 1.4 0 1.5.15 1.5 1.75 0 1.65-.1 1.75-1.75 1.75-.95 0-1.75-.25-1.75-.5zm212.2-1.1c-.4-1.3-1.4-2.4-2.15-2.4-.3 0-.55-.8-.55-1.75 0-1.6.1-1.75 1.5-1.75 1 0 1.5-.25 1.5-.75s.55-.75 1.75-.75c2.45 0 2.2.85-.6 2.05-2.05.85-2.3 1.1-1.65 1.6 1.2.9 2.5 2.95 2.5 3.95 0 1.3-1.85 1.15-2.3-.2zm-219-3.45c-1.6-.8-3.95-2.4-5.2-3.45l-2.25-1.95 1.9-.05c1.5 0 1.85.2 1.85 1 0 .75.35 1 1.25 1 .8 0 1.25.3 1.25.75 0 .4.45.75 1 .75 1.85 0 3.5 1.1 3.5 2.35 0 .6-.1 1.15-.2 1.15s-1.5-.7-3.1-1.55zm-9.3-7.45l-1.4-1.75 1.3-.15c1.65-.2 1.8-.05 1.6 1.95l-.15 1.7-1.35-1.75zm237.6.25c0-1.1.2-1.25 1.75-1.25 2.15 0 2.2.5.3 1.65-1.9 1.1-2.05 1.1-2.05-.4zm5-3c0-.8.3-1.25.75-1.25.4 0 .75-.2.75-.5 0-.25.8-.5 1.75-.5 1.55 0 1.75-.15 1.75-1.25 0-1 .25-1.25 1.25-1.25.9 0 1.25-.25 1.25-1s.35-1 1.25-1 1.25-.25 1.25-.9c0-1.3 1.6-2.6 3.2-2.6 1.3 0 1.3.05.55 1.2-1.15 1.7-12.25 10.3-13.35 10.3-.2 0-.4-.55-.4-1.25zm-246.15-2.2c-1.1-1.9-1.1-2.05.4-2.05 1.1 0 1.25.2 1.25 1.75 0 2.15-.5 2.2-1.65.3z"/>
    <path d="M235.75 355.4c-.35-.9-.8-2.5-1-3.5-.3-1.65-.25-1.9.6-1.9.7 0 1.1.6 1.55 2.25 1.15 4.3.3 6.6-1.15 3.15zM498 349.65c0-.5-.15-2.15-.35-3.65-.3-2.6-.25-2.7.55-2 1.3 1.05 1.9 3 1.55 4.85-.3 1.75-1.75 2.35-1.75.8zm-263.5-1.4c0-1.2 1.25-3.95 2.15-4.7.75-.6.85-.5.85.75 0 2.25-1.1 4.7-2.1 4.7-.5 0-.9-.35-.9-.75zm9.5-3.55c0-1.1.15-1.2 1.1-.9.85.25.6-.25-1.2-2.35-3.5-4.1-7.9-11.25-9.4-15.2-.45-1.1-.35-1.25.75-1.25.9 0 1.25.25 1.25 1 0 .55.2 1 .4 1 .55 0 2.1 3.3 2.1 4.5 0 .55.35 1 .75 1s.75.35.75.75.25.75.5.75c.3 0 .5.35.5.75s.25.75.5.75c.3 0 .5.35.5.75s.25.75.5.75c.3 0 .5.55.5 1.25 0 .9.25 1.25 1 1.25.8 0 1 .35 1 1.5 0 1.25.2 1.5 1.25 1.5 1.1 0 1.25.2 1.25 1.75 0 1.7-.05 1.75-2 1.75-1.8 0-2-.1-2-1.3z"/>
    <path d="M238 343.3c0-.85 1.7-1.35 3.55-.95.9.15 1.3.5 1.1.95-.35.95-4.65.95-4.65 0zm249-1.55c0-1.65.1-1.75 1.75-1.75 1.55 0 1.75-.15 1.75-1.25s.2-1.25 1.8-1.25c2.15 0 1.9.55-1.2 2.5-1.4.85-2 1.5-1.45 1.5.5 0 .85.4.85 1 0 .8-.35 1-1.75 1-1.65 0-1.75-.1-1.75-1.75z"/>
    <path d="M491 342.5c0-1.05.5-1.2 2.4-.7 1.8.5 1.35 1.7-.65 1.7-1.4 0-1.75-.2-1.75-1zm-198.5-5.05v-1.5L294 337c2.2 1.55 2.25 2 .3 2-1.65 0-1.8-.1-1.8-1.55zm202.6-2c.1-1.45.35-1.7 1.55-1.85 1.05-.15 1.35-.45 1.35-1.4 0-1 .25-1.2 1.55-1.2h1.5l-.95 1.4c-.95 1.3-2.35 2.6-4.25 4.1-.85.65-.9.55-.75-1.05zm-206.6-1.5v-1.5l1.5 1.05c2.2 1.55 2.25 2 .3 2-1.65 0-1.8-.1-1.8-1.55zm-4-3.5v-1.5L286 330c2.2 1.55 2.25 2 .3 2-1.65 0-1.8-.1-1.8-1.55zm217-2.15c0-1 .25-1.8.5-1.8.3 0 .5-.35.5-.75s.45-.75 1-.75c.8 0 1-.35 1-1.75 0-1.2.25-1.75.75-1.75.45 0 .75-.45.75-1.25 0-.7.4-2.65.9-4.25.65-2.3 1.1-3 1.8-3 .8 0 .85.25.55 1.9-.75 4-5 12.95-7 14.6-.65.55-.75.4-.75-1.2zm-212.6-4.85c-1.45-.8-1.05-1.45.85-1.45 1.4 0 1.75.2 1.75 1 0 1.1-1.2 1.3-2.6.45zm36.6-2.95c0-1.65.15-2 1-2 .7 0 1 .35 1 1.05 0 .75.25.95.75.75.55-.2.75.05.75.95 0 1.1-.2 1.25-1.75 1.25-1.7 0-1.75-.05-1.75-2zm-53.8.3c-.15-.4-.2-1.2-.1-1.8.15-1 .25-1 2.15.7l2 1.75-1.9.05c-1.2 0-2-.25-2.15-.7zm17.8-.7c0-.4 2.6-2.1 3.2-2.1.15 0 .3.55.3 1.25 0 1.1-.2 1.25-1.75 1.25-.95 0-1.75-.2-1.75-.4zm-56.5-.95c0-2.65 3.6-5.65 7.6-6.4 2.5-.45 7.4.6 7.4 1.6 0 .65-.45.75-2.8.45-3.65-.4-7.7.1-7.7 1 0 .4-.35.7-.75.7s-.75.35-.75.75-.2.75-.5.75c-.25 0-.5.45-.5 1 0 .65-.35 1-1 1-.6 0-1-.35-1-.85z"/>
    <path d="M249 316.05c0-.25-.15-.85-.35-1.3-.25-.7-.1-.8.75-.5.6.15 1.1.1 1.1-.15 0-1.7-13.1-16.65-26.5-30.3-6.2-6.35-10.45-10.95-9.5-10.3 9 6.2 18 14.35 18 16.35 0 .75.3 1.15.9 1.15 1.4 0 4.6 3.55 4.6 5.15 0 1.1.25 1.35 1.15 1.35 1.45 0 2.35.9 2.35 2.35 0 .8.3 1.15.9 1.15 1.1 0 2.6 1.5 2.6 2.55 0 .4.5.95 1.1 1.2.6.3 1.3.95 1.6 1.5.3.55.95 1.3 1.45 1.65.45.35.85 1 .85 1.4 0 .4.25.7.5.7.3 0 .5.25.5.55 0 .3.35.85.75 1.25.4.45.75 1.65.75 2.75 0 1.9-.05 1.95-1.75 1.95-.95 0-1.75-.2-1.75-.45zm16.5-1.3c0-1.05-.25-1.25-1.5-1.25-1.15 0-1.5-.2-1.5-1 0-.75-.35-1-1.25-1-1.05 0-1.25-.25-1.25-1.55 0-1.2.15-1.45.65-1.1 1.95 1.45 8.35 6.8 8.35 6.95 0 .1-.8.2-1.75.2-1.55 0-1.75-.15-1.75-1.25zm36-.65c0-.4 2.6-2.1 3.2-2.1.15 0 .3.55.3 1.25 0 1.1-.2 1.25-1.75 1.25-.95 0-1.75-.2-1.75-.4zm139.5-2.6c1.55-2.2 2-2.25 2-.3 0 1.65-.1 1.8-1.55 1.8h-1.5l1.05-1.5zm-116.2-1.05c-.45-2.3-.35-3.95.2-3.95.65 0 1.35 1.4 1.75 3.65.3 1.65.25 1.85-.65 1.85-.7 0-1.05-.45-1.3-1.55zm110.7-.1c0-.85-.3-1.35-.95-1.45-.85-.15-.75-.5 1.1-3 1.15-1.55 2.25-2.85 2.5-2.85.2-.05.35.65.35 1.45 0 1.3.2 1.5 1.3 1.5h1.35l-1.25 1.6c-.65.85-1.95 2.15-2.8 2.8l-1.6 1.25v-1.3zm2.5-2.85c0-.55-.35-1-.75-1s-.75.45-.75 1 .35 1 .75 1 .75-.45.75-1zm-38.5-.55v-1.5l1.5 1.05c2.2 1.55 2.25 2 .3 2-1.65 0-1.8-.1-1.8-1.55zm92 .1c0-2.05 1-4.55 1.8-4.55.45 0 .7-.6.7-1.75 0-.95.25-1.75.5-1.75.3 0 .5-.55.5-1.25s.25-1.25.5-1.25c.3 0 .5-.65.5-1.5 0-.8.25-1.5.5-1.5.3 0 .5-.4.5-.85 0-.5.4-3 .85-5.5.75-3.75 1.05-4.65 1.8-4.65 1.05 0 1.05-.1.1 4.95-.9 4.75-3.25 12-5.15 16l-1.35 2.85 2.6-2.1c3.4-2.75 5.95-3.55 8.65-2.75 2.25.65 4.3 3 4.8 5.45.3 1.35.2 1.6-.7 1.6-1 0-1.6-1.2-1.6-3.3 0-.8-.4-1.2-1.6-1.45-2.45-.5-5.6-.4-5.8.2-.1.3-.6.55-1.15.55-.5 0-.95.35-.95.75s-.45.75-1 .75c-.65 0-1.1.45-1.3 1.25-.25 1.05-.6 1.25-2 1.25-1.55 0-1.7-.15-1.7-1.45zm-237-1.6v-1.5L256 305c2.2 1.55 2.25 2 .3 2-1.65 0-1.8-.1-1.8-1.55zM391 302l-1.75-1.45 1.9-.05c1.75 0 1.85.1 1.85 1.5 0 .85-.05 1.5-.15 1.5-.05 0-.9-.65-1.85-1.5zm3.5-1.25c0-.8-.3-1.25-.75-1.25-.4 0-.75-.35-.75-.75s-.2-.75-.5-.75c-.25 0-.5-.8-.5-1.8 0-1.55.1-1.75.75-1.2.75.65 4.25 6.1 4.25 6.7 0 .15-.55.3-1.25.3-1 0-1.25-.25-1.25-1.25zm-152-4.8v-1.5l1.5 1.05c2.2 1.55 2.25 2 .3 2-1.65 0-1.8-.1-1.8-1.55zm110.5-2.7c0-1.65.1-1.75 1.75-1.75 1.9 0 2.3.65.9 1.45-.85.5-.85.5 0 .55.45 0 .85.35.85.75 0 .5-.55.75-1.75.75-1.65 0-1.75-.1-1.75-1.75zm27.9.85c-1.85-1.1-1.75-1.6.35-1.6 1.55 0 1.75.15 1.75 1.25 0 1.45-.3 1.5-2.1.35zm-142.4-1.15v-1.5l1.5 1.05c2.2 1.55 2.25 2 .3 2-1.65 0-1.8-.1-1.8-1.55zm203.5.45c0-1.5.65-2.9 1.3-2.9.45 0 .7.6.7 1.75 0 1.4-.2 1.75-1 1.75-.55 0-1-.3-1-.6zm4.5-4.65c0-1.4.2-1.75 1-1.75 1.05 0 1.2.5.7 2.4-.5 1.8-1.7 1.35-1.7-.65zM353 284.3c0-.65 1.4-1.3 2.9-1.3.3 0 .6.45.6 1 0 .8-.35 1-1.75 1-1.15 0-1.75-.25-1.75-.7zm121.5-3c0-1.25.25-2.3.5-2.3.3 0 .5-.55.5-1.2 0-.7.35-1.55.75-2 .4-.4.75-1.05.75-1.4 0-.35.9-2.75 2.05-5.25 1.8-3.95 2.25-4.65 3.3-4.65 1.35 0 1.65-.9-3.15 9.6-2.8 6.25-3.15 7.9-1.3 6.2.9-.8.95-.75.65 1.05-.3 1.75-.45 1.9-2.2 2.05l-1.85.15v-2.25zm-66.85.4c-2.15-1.05-2.1-1.7.1-1.7 1.55 0 1.75.15 1.75 1.25 0 .7-.05 1.25-.1 1.25-.1 0-.9-.4-1.75-.8zm12.85-1.95c0-1-.25-1.25-1.25-1.25-1.85 0-1.5-1.25.5-1.85 1.65-.55 1.75-.5 1.75.65 0 .95.25 1.2 1.4 1.2l1.35.05-1.4 1.2c-1.8 1.6-2.35 1.55-2.35 0zm26.5-.5c0-2 1.2-2.45 1.7-.6s.35 2.35-.7 2.35c-.8 0-1-.35-1-1.75zm51.5.25c0-.55-.2-1-.5-1-.25 0-.5-.65-.5-1.5 0-1.95.75-1.9 2 .15 1.3 2.1 1.3 3.35 0 3.35-.65 0-1-.35-1-1zm-17-1.45c0-.75 6-3.45 8.4-3.8 1.9-.3 2.1-.25 2.1.7 0 .75-.3 1.05-1.1 1.05-.65 0-2.35.55-3.8 1.25-2.7 1.25-5.6 1.65-5.6.8zm-58.5-2.3c0-.4.1-.75.2-.75s.55-.15 1-.3c.6-.2.8 0 .8.75 0 .7-.3 1.05-1 1.05-.55 0-1-.35-1-.75zm70-.75c0-1.05.5-1.2 2.4-.7 1.8.5 1.35 1.7-.65 1.7-1.4 0-1.75-.2-1.75-1zm-48.2-1.6c-.15-.65-.3-1.75-.3-2.5 0-2.3 1.25-1.6 2.1 1.1l.8 2.5h-1.15c-.75 0-1.25-.35-1.45-1.1zm-2.3-8.2c0-2.2.9-2.1 1.85.2.65 1.55.6 1.6-.6 1.6-1.1 0-1.25-.2-1.25-1.8zm31.5-.2c1.55-2.2 2-2.25 2-.3 0 1.65-.1 1.8-1.55 1.8h-1.5L474 265zm3-4c1.55-2.2 2-2.25 2-.3 0 1.65-.1 1.8-1.55 1.8h-1.5L477 261zm6.5-.25c0-1.55.15-1.75 1.25-1.75 1.45 0 1.5.1.5 2-1.05 2-1.75 1.9-1.75-.25zM480 257c1.55-2.2 2-2.25 2-.3 0 1.65-.1 1.8-1.55 1.8h-1.5L480 257zm6-.5c0-.85.55-2.65 1.25-4l1.25-2.45-1.55-.15-1.5-.15 1.5-1.75 1.5-1.75.05 1.65c0 1.1.25 1.6.75 1.6.4 0 .75-.45.75-1 0-1.05 1.8-5.05 2.5-5.5.2-.15.5-.75.7-1.35.2-.65.7-1.15 1.1-1.15.4 0 .7-.45.7-1.05 0-1.85 5.6-9.95 6.85-9.95.35 0 .65.1.65.25s-1.3 2.45-2.85 5.15c-4.2 7.2-8.35 14.6-10.7 19.1-1.15 2.2-2.25 4-2.5 4s-.45-.7-.45-1.5zm-60.6-.15c-2-.8-1.8-1.85.35-1.85 1.55 0 1.75.15 1.75 1.25 0 1.35-.1 1.4-2.1.6zm-7.9-1.35c0-.8.35-1 1.75-1 2 0 2.45 1.2.65 1.7-1.9.5-2.4.35-2.4-.7zm-12.75-.7c1.25-1.9 2.25-2.05 2.25-.3 0 1.35-.15 1.5-1.5 1.5-1.5 0-1.5 0-.75-1.2zm29.25-.85v-1.5l1.5 1.05c2.2 1.55 2.25 2 .3 2-1.65 0-1.8-.1-1.8-1.55zm-12-4.95c0-1.05.5-1.2 2.4-.7 1.8.5 1.35 1.7-.65 1.7-1.4 0-1.75-.2-1.75-1zm82.05-22.35c1.45-1.9 3.45-4.15 3.45-3.95 0 .6-3.25 4.8-3.65 4.8-.25 0-.15-.4.2-.85z"/>
  </g>
  <path d="M374.65 410.4c-1.65-2.3-4.55-6.5-6.4-9.4-13.8-21.25-16.65-25.25-22.3-31-4.7-4.8-9.4-8.3-14.6-10.85-10.55-5.25-19.5-5.65-27.35-1.3-4.4 2.5-4.5 2.7-4.5 8.35 0 4.55-1.45 17.6-2.25 20.95-.3 1.1-.65 1.35-1.95 1.35-1.55 0-1.65-.15-5.55-8.1-5.1-10.4-9.05-17.85-14.5-27.15-7.4-12.6-22.4-34.75-24.7-36.35-.9-.65-2.3-2.9-1.8-2.9.2 0 .75.25 1.3.5.5.3.95.35.95.15 0-2-14.85-19.05-27.85-32.1-5.3-5.3-9.05-9.3-8.3-8.8 1.55 1 19 14.05 28.05 21 10.15 7.75 32.95 26.5 46.3 38.15 3.55 3.05 6.65 5.6 6.9 5.6.2 0 .4-.65.4-1.4 0-1.2 1-5.45 2.3-9.95.25-.85.1-1.15-.5-1.15-.45 0-.8-.2-.8-.5 0-.95 3.5-.5 10.15 1.25 8.3 2.2 10.5 2.25 13.2.3 2.1-1.55 4-4.15 4.6-6.45.2-.75.75-1.45 1.25-1.5.7-.15.85.05.55.9-.35 1.05-.3 1.05 1.15.3 2.4-1.25 4.6-3.3 5.6-5.35 1.2-2.25 1.3-6.25.3-8.6-.8-1.85-3.35-4.35-5.55-5.5l-1.5-.75 1.25-.5c6.25-2.5 10.5-4.05 11.8-4.3.95-.2 1.75-.8 2.1-1.55.45-1 1-1.2 4.45-1.5 2.15-.2 5.3-.65 7.05-1.05 4-.9 5.6-.9 5.6 0 0 .45-1 .95-2.6 1.35l-2.65.65 3.8.4c14.1 1.3 24.85 10.85 36.2 31.9 3.95 7.35 4.65 8.4 7.95 12 3 3.2 12.9 12.5 13.35 12.5.15 0 1.15-1.4 2.2-3.1 5.9-9.7 30.45-46.15 40.7-60.4 15.15-21.2 39.3-53.05 46.2-61.05 1.8-2.05 1.75-1.95-.7 2.05-7.45 12.15-12.75 21.6-18.7 33.5-4.3 8.55-9.25 19.6-9.25 20.6 0 .3.6.05 1.35-.65 1.15-1.05 1.25-1.1.9-.2-.2.55-.5 1.45-.65 2-.1.55-.5 1.35-.85 1.75-.35.4-1.9 4-3.4 8-9.15 24-15.5 47-19.6 71.25-1.4 8.25-3.75 25.25-3.75 27.4 0 .2-.35.35-.75.35s-.75-.3-.75-.6c0-.35-.8-1.4-1.75-2.35-.95-.95-1.75-2-1.75-2.45 0-.4-.6-1.4-1.3-2.3-.7-.85-2.65-3.45-4.3-5.8-1.6-2.35-3.8-5.15-4.8-6.2l-1.85-2-.35 2.85c-.45 3.4-1.25 5.05-3.55 7.25-1.55 1.5-1.8 1.6-3.15 1.1-.8-.3-1.9-1-2.45-1.5-.55-.55-1.3-.8-1.6-.6-.35.2-.8 2.5-1.05 5.05-.5 4.95-1.3 6.7-3.65 7.95-2.1 1.15-6.7.45-11.7-1.8-2.45-1.1-4.65-1.95-4.85-1.8-.2.15-.35 1.65-.35 3.35.05 5.35-2.4 9.85-5.3 9.85-.6 0-1.95-.65-3-1.5-2.35-1.85-3.15-1.9-3.8-.1-1.25 3.45-5.2 10-7.25 12-.65.6-1.05 1.45-.9 1.85.25.55-.05.75-.9.75-.9 0-1.9-.95-4.25-4.1zm-19.05-88.7c5.35-2.7 11.55-10.45 9.95-12.4-.9-1.1-2.2-1-4.7.25-4.4 2.25-9.35 7.5-10.2 10.8-.3 1.3.55 2.65 1.7 2.65.35 0 1.85-.6 3.25-1.3z" fill="#812f4f"/>
  <path d="M332.3 427.65c-2.35-.35-8.2-6.6-10.55-11.25l-1.95-3.8-1.75 2.05c-3.85 4.6-7.6 7.25-13.5 9.75-3.35 1.35-3.85 1.35-4.2.1-.2-.8-.7-1-2.2-1-2.55 0-4.15-.9-5.35-3-.9-1.45-1.05-2.6-1.05-7.1 0-4.9-.1-5.4-.9-5.4-1.05 0-1.1.55 1-12.15l1.35-7.95-5.6-11.05c-6.1-12.2-12.95-24.45-18.6-33.35-6.15-9.65-15.4-22.85-17.85-25.55-.7-.75-1.15-1.8-1.05-2.35.45-2.6 3.75 1.1 13 14.65 10 14.65 18.05 28.45 26.4 45.2l5.9 11.75.5-2.7c1-4.9 2-15.15 2.05-19.95.05-5.35.25-5.75 4.25-8 4.5-2.55 7.55-3.25 13.3-3.25 6.25.05 11.1 1.25 17.35 4.35 10.45 5.2 18.25 13.25 29.4 30.35 2.4 3.7 6.05 9.3 8.1 12.4 2.05 3.15 5.15 7.6 6.9 9.95 1.8 2.4 3.25 4.45 3.25 4.65 0 .2-.8.8-1.85 1.25-2.9 1.4-9.2.7-14.6-1.65-4-1.7-9.1-4.75-9.45-5.7-.5-1.2-1.75 0-3.3 3.25-2.1 4.2-4.8 8.5-6.15 9.75-.5.45-1.55 1.65-2.35 2.7-2.25 3-5.1 3.85-10.5 3.05zm117.4-33.95l-1.35-2.3.85-8.1c1.95-17.65 6.2-39.6 11.35-58.3 4.35-15.7 13.1-40.3 15.05-42.25 1-1 1-1 .75 1.25-.1 1.25-1.5 5.5-3 9.45-10.7 27.45-18 56.55-21.9 87.2-1 8.05-1 11.85.05 11.85.3 0 .5.8.5 1.75 0 2.35-.7 2.2-2.3-.55zm-135.2-63.55c-5.85-.9-17-4.2-17-4.95 0-1.1 1.95-.85 10.4 1.3 9.65 2.5 10.7 2.45 14.15-1 1.35-1.35 2.55-3 2.75-3.7.4-1.7 2.2-1.8 2.2-.15 0 1.75-2.7 5.65-4.85 7-1.9 1.25-5.25 1.9-7.65 1.5zm36.15-5.65c-1.2-.5-2.15-1.95-2.15-3.35 0-1.95 2.6-6.35 5.25-8.95 6.6-6.4 14.05-7.5 13.85-2-.25 6.5-11.9 16.35-16.95 14.3zm5.45-3.3c3.55-1.85 9.4-8.5 9.4-10.75 0-.45-.35-1.1-.75-1.45-.65-.5-1.35-.35-3.95.95-1.75.85-3.45 1.55-3.75 1.55-.3 0-.55.3-.55.7 0 .4-.75 1.35-1.6 2.15-.9.8-2.3 2.6-3.05 4.05-1.35 2.5-1.4 2.7-.6 3.6.9 1 1.55.9 4.85-.8zm-53.6-7.55c0-.25.8-.9 1.75-1.55L306 311v1.5c0 1.4-.15 1.5-1.75 1.5-.95 0-1.75-.15-1.75-.35zm9.25-7.45c1.9-1.7 2-1.7 2.15-.7.3 1.9-.25 2.5-2.25 2.5l-1.9-.05 2-1.75zM342 294.65c0-.15.4-.9.85-1.7.6-1.05 1.15-1.35 1.85-1.15.9.2 5.25-.2 12.45-1.15 1.45-.2 1.85-.1 1.85.5 0 .9-4.9 2.1-10.65 2.6-1.85.2-4.05.55-4.9.75-.8.25-1.45.3-1.45.15z" fill="#401b25"/>
  <g fill="#b9b9b9">
    <path d="M443 596.2c-4.3-1.1-8.75-3.55-11.45-6.15-4.95-4.85-5.6-10.15-5.55-46.2.05-25.15-.15-29-1.5-30.6-1.05-1.25-3.9-1.4-12.7-.6-4.7.45-11.15 1-14.3 1.15-5.45.35-5.9.45-8.2 2.05-1.35.9-2.8 2.4-3.25 3.3-.6 1.2-1.35 1.8-3.15 2.35-1.35.4-2.4 1.05-2.4 1.35 0 .7-2.55 2.15-3.75 2.15-.4 0-.75-.45-.75-1 0-.75.35-1 1.25-1 .8 0 1.25-.3 1.25-.75 0-.4.25-.75.5-.75.3 0 .5-.35.5-.75 0-.45.5-.75 1.3-.75 1.4 0 4.2-2.45 4.2-3.65 0-.7 2-1.85 3.2-1.85.4 0 .85-.4 1-.85.15-.5.65-1.45 1.05-2.15 1.4-2.3-.25-6.2-3.25-7.75-1.95-1-2.2-.95-4.2.8l-1.8 1.55-4.95-.35c-4.7-.35-5-.3-5.5.7-.35.6-.45 1.8-.25 2.8.4 2.3-.15 5.25-1.05 5.25s-1.45 2.7-.8 3.95c.3.55.55 1.7.55 2.6 0 1.4-.1 1.5-.85.9-1.1-.95-2.15-3.6-2.15-5.45 0-1.1.5-2.05 1.5-3.1.85-.85 1.5-1.55 1.4-1.65-.1-.05-2.3-.6-4.9-1.25-10.05-2.4-21.75-7.3-29.75-12.6-4.9-3.2-12.05-10.3-15.85-15.65-7.8-11.1-13.15-25.25-16.15-42.5-1.25-7.2-2.25-16.25-1.75-16.1.55.2 5.35-1.9 7.75-3.35 3.6-2.15 5.3-3.65 8.3-7.15 1.4-1.75 2.95-3.15 3.4-3.15.5 0 1.65 1.65 3 4.4 3 5.85 8.25 11.3 11.45 11.8 2.75.4 5.05-.6 6.9-3.1.8-1.05 1.85-2.25 2.35-2.7 1.5-1.35 4.15-5.65 6.65-10.85l2.25-4.65 1.15 1.05c.6.55 1.35 1.05 1.65 1.05.3 0 .65.15.75.4.9 2.05 11.3 7 16.05 7.7 3.05.4 3.65.35 5.45-.6 1.9-1 2.1-1 2.55-.25.7 1.3 8.1 10.45 12.95 16.1 2.45 2.8 8.2 8.9 12.8 13.55 7.5 7.6 10.7 10.55 20.25 18.7l2.75 2.4 4.7.2c2.55.1 4.9.3 5.15.4.3.05 1.1-.45 1.8-1.2 3.1-3.1 8.6-1.8 10.85 2.6 1.45 2.8 1.3 6.3-.4 8.6-.6.85-.9 1.7-.65 1.95.2.2 2.8 1.2 5.75 2.15 9.6 3.15 19.25 4.3 36.4 4.3 30.6 0 68 3.45 84.95 7.75 9.65 2.45 8.9 2.1 9.2 4.35.7 5.05-1.55 11.7-6.85 20.4-3.7 6-4.95 6.95-10.05 7.35-3.35.3-10.25-.75-16.25-2.4-3.7-1-3.55-.9 3.25 2.85 9.45 5.15 12.2 8.05 11.5 12.2-.8 4.65-6.9 11.2-16.95 18.2-6 4.2-7.9 4.95-11.15 4.3-7.45-1.4-19.2-8.1-33.75-19.15-3.55-2.65-6.4-4.65-6.4-4.45 0 .2.8 1.35 1.8 2.6 8.25 10.3 16.15 21.5 19.2 27.25 3.2 6.05 2.7 7.8-3.15 11.9-9.1 6.4-25.95 12.95-31.4 12.2-2.7-.35-6.15-3-9.3-7.1-2.7-3.5-9.3-16.2-11-21.1-.5-1.45-1.05-2.65-1.25-2.65-.25 0-.4 1.75-.4 3.9 0 9.85-1.85 24.3-3.7 28.65-1 2.3-3.15 4.25-5.75 5.2-2.7.95-8.4.95-12.05-.05zm-5.15-112.25c.35-.3.65-.85.65-1.15 0-.35 1.05-.95 2.4-1.35 1.9-.55 2.5-1.05 3.25-2.5.55-1.1 1.55-2.15 2.75-2.7 1.95-.95 3.6-3.45 3.6-5.4 0-1.6-1.75-4.2-3.6-5.35-2.2-1.35-2.7-1.25-4.5.55l-1.55 1.55-5.1-.35c-6.1-.45-6.25-.3-5.9 4.45.25 2.8.15 3.15-1.05 4.25-1.6 1.5-1.65 2.9-.15 5.1 2.1 3.2 6.95 4.75 9.2 2.9z"/>
    <path d="M371.15 524.2c-2-1-2.1-1.7-.25-1.7 2.35 0 3.6.55 3.6 1.55 0 1.15-1.2 1.2-3.35.15zm-82.9-116.75c-4.25-1-6.8-4.05-6.85-8.25 0-1.15.25-2.55.55-3.1.55-1.05.5-1.1-1.55-1.1-6.15 0-18.45-3-23.15-5.65-3.9-2.2-5.3-6.35-3.3-9.65 1.05-1.7 4-4.2 5-4.2 1.4 0-.1-.9-2-1.2-2.35-.35-4.95-1.6-4.95-2.3 0-.75 1.75-.6 5.85.4l3.65.85v1.85c0 1.6-.15 1.85-1.45 2.15-.8.15-1.6.65-1.75 1.05-.15.4-.6.7-1.05.7-.4 0-.75.35-.75.75 0 .45-.35.9-.75 1.05-.85.35-1.1 4.2-.25 4.2.3 0 .5.3.5.65 0 .95 7.25 4.15 12.75 5.6 3 .8 7.05 1.45 10.15 1.6l5.1.3v1.95c0 1.1-.25 2.4-.55 3-.4.75-.3 1.55.65 3.6 1.05 2.5 1.3 2.7 3.9 3.45 1.55.5 3.1.85 3.45.85.85 0 .45 1.7-.45 1.8-.4.05-1.65-.1-2.75-.35zm162.6-11.9c-.3-.7-.7-1.4-.9-1.55-.15-.15-.4-.65-.6-1.1-.25-.7-.05-.9.9-.9.7 0 1.25.25 1.25.55 0 .5 1.2 1.95 1.65 1.95.15 0 .1-1.05-.05-2.3-.2-2-.1-2.3.85-2.55.55-.15 1.05-.45 1.05-.7 0-.25.8-.45 1.75-.45s1.75.25 1.75.5c0 .3-.15.5-.35.5-.25 0-1.05.55-1.85 1.2l-1.5 1.15 1.15 1.6c1.4 1.95 1.1 2.4-2.15 3-2.25.4-2.4.4-2.95-.9zm9.15-8.25c0-.9.55-1.4 2.65-2.35 1.4-.65 2.7-1.35 2.75-1.55.1-.25.95-.4 1.85-.4 1.8 0 1.85-.15 2.55-6.85.3-2.55.25-2.65-.95-2.65-.7 0-1.4-.35-1.55-.8-.55-1.4-.35-3.7.35-3.7.3 0 2.95-1.15 5.8-2.5 2.85-1.4 5.6-2.5 6.1-2.5.55 0 .95-.35.95-.75s.55-.85 1.25-1.05c.7-.15 1.25-.5 1.25-.75s.35-.45.75-.45.75-.2.75-.5c0-.25.35-.5.75-.5s.75-.2.75-.5c0-.25.3-.5.7-.5.4 0 .8-.35 1-.75.15-.4.6-.75 1-.75.35 0 .8-.35 1-.75.15-.4.7-.75 1.25-.75.5 0 1.05-.45 1.2-1 .2-.8.65-1 2.2-1l1.9.05-2.25 2c-4.15 3.65-11.2 8.15-18.4 11.75-4.45 2.25-6.85 3.7-6.35 3.85 2.3.9 3.5 6 2.05 8.8-1.4 2.65-5.75 5.9-10.05 7.55-1.1.4-1.25.35-1.25-.7zm-211.75-16.85c-7.05-4.45-13.8-14.85-13.75-21.15.05-3.3 2.45-6.8 4.7-6.8 1.85 0-.25 3.45-2.05 3.5-1.15 0-.75 4.8.7 8.4.7 1.85 1.6 3.65 2 4 .35.35.65.95.65 1.35 0 .35.35.75.75.95.4.15.75.75.75 1.3s.3 1 .65 1c.8 0 3.85 3.1 3.85 3.9 0 .35.45.6 1 .6s1.15.3 1.3.7c.15.4.8.85 1.5 1 .85.25 1.2.65 1.2 1.55 0 1.6-.3 1.55-3.25-.3zM496.55 352c0-.95.3-2.2.7-2.7.85-1.15 1-2.8.25-2.8-.25 0-.5-.3-.5-.65 0-1-4.4-2.35-7.6-2.35h-2.9v-1.8c0-1.55.2-1.85 1.5-2.35.85-.3 1.5-.75 1.5-.95 0-.2.35-.4.75-.4s.75-.2.75-.5c0-.25.3-.5.65-.5.35 0 .9-.45 1.25-1s1.15-1 1.85-1c.9 0 1.25-.25 1.25-.9 0-1.15 1.5-2.6 2.65-2.6.6 0 .85-.4.85-1.25 0-.7.35-1.4.75-1.55.4-.2.75-.6.75-1s.25-.7.5-.7c.3 0 .5-.3.5-.7 0-.4.15-.8.4-.9.65-.3 4.1-8.1 4.7-10.8.45-1.9.85-2.6 1.5-2.6 1.2 0 1.15 1.1-.15 5.3-2.75 9-8.9 17.1-16.75 22.25-1.75 1.15-3.2 2.1-3.2 2.15 0 0 1.35.1 2.95.1 7.4.2 10.8 5.65 6.5 10.4l-1.4 1.55V352z"/>
    <path d="M244.5 346.1c0-.25-.9-.75-2-1.1-1.35-.45-2-.95-2-1.6 0-1.2 1.8-1.2 3.9.1.9.55 1.75 1 1.9 1 .15 0-.75-1.2-1.95-2.6-2.35-2.8-7.35-10.25-7.35-10.95 0-.25.55-.45 1.25-.45.9 0 1.3.35 1.55 1.25.15.7.5 1.25.75 1.25s.45.35.45.75.25.75.5.75c.3 0 .5.35.5.75s.25.75.5.75c.3 0 .5.3.5.7 0 .4.35.8.75 1 .4.15.75.7.75 1.25 0 .5.45 1.05 1 1.2.7.15 1 .7 1 1.55 0 .95.25 1.3 1 1.3.8 0 1 .35 1 1.75 0 1.7-.05 1.75-2 1.75-1.1 0-2-.2-2-.4zm-9.75-19.45c-.75-1.6-1.45-3.6-1.6-4.5-.7-4.3 1.55-7.6 6.1-8.9 2.35-.7 3-.7 6.15-.05 3.8.8 6.6 2 6.6 2.85 0 .7-2.85.35-6.7-.85-2.8-.85-3.05-.85-5.4 0-4.65 1.65-5.85 4.35-3.95 8.75 1.05 2.55 1.4 5.55.6 5.55-.25 0-1.05-1.3-1.8-2.85zm58.5-1.95c-4.85-1.35-5.95-2.05-5.45-3.35.3-.8 6.9-4.7 9.85-5.8 1.2-.5 1.35-.4 1.35.6 0 .9-.6 1.45-2.75 2.5-1.55.75-3.45 1.35-4.25 1.35-1.15 0-1.5.25-1.5.95 0 .75.8 1.15 3.9 2 2.15.6 4.2 1.05 4.5 1.05.35 0 .6.45.6 1 0 1.25-.6 1.25-6.25-.3zm32.25-5.2c0-1.65.15-2 1-2 1.05 0 1.25.8.7 2.9-.55 1.95-1.7 1.35-1.7-.9zm86.8-3.25c-4.95-1.35-10.65-4.85-17.05-10.45l-2-1.75 1.65-.05c.85 0 1.6-.2 1.6-.5 0-.25-.35-.5-.75-.5-.5 0-.75-.55-.75-1.75 0-.95.15-1.75.4-1.75.2 0 1.2 1.35 2.2 3l1.85 3h-1.2c-.7 0-1.25.25-1.25.5 0 .3.7.5 1.5.5 1.15 0 1.5.2 1.5 1 0 .75.35 1 1.25 1 .7 0 1.25.25 1.25.5 0 .3.35.5.75.5s.75.25.75.5c0 .3.4.5.9.5.45 0 2.3.7 4.1 1.55 1.8.85 4.3 1.9 5.65 2.25 1.75.55 2.35 1 2.35 1.7 0 1.2-1.1 1.25-4.7.25zm9.85 0c-1.1-1.2-.75-1.55 2.25-2.4 5-1.4 10.6-5.8 13.15-10.35.4-.7 1.25-2.7 1.95-4.45 1.4-3.55 2.5-4.5 2.5-2.2 0 1.85-1.45 6.15-2.05 6.15-.25 0-.45.45-.45 1 0 .65-.35 1-1 1-.55 0-1 .35-1 .75 0 .45.45.75 1.25.75 1.05 0 1.25-.25 1.25-1.5 0-.8.25-1.5.5-1.5.3 0 .5-.35.5-.75 0-.45.45-.75 1.25-.75.7 0 1.25.2 1.25.4 0 .7-2.85 4.45-5.15 6.75l-2.1 2.1-.15-1.35c-.1-1-.45-1.4-1.15-1.4s-.95.35-.95 1.5c0 .85.25 1.5.65 1.5.3 0-.05.6-.8 1.25-1.5 1.3-2.35 1.6-2.35.75 0-.25-.2-.5-.45-.5s-.4.4-.35.9c.05.65-.8 1.15-3.2 1.95-3.8 1.3-4.55 1.35-5.35.4zm-96.65-1.1c0-.5-.15-2.1-.3-3.5-.3-2.2-.2-2.65.45-2.65.8 0 1.05.8 1.6 4.65.35 2.15.3 2.35-.7 2.35-.65 0-1.05-.3-1.05-.85zm-21.25-2.65c.15-.25 1.3-1.2 2.55-2l2.2-1.55v1.55c0 1-.25 1.5-.75 1.5-.4 0-.75.25-.75.5 0 .3-.8.5-1.8.5s-1.65-.2-1.45-.5zM491 307.25c0-1 .7-3.15 1.55-4.85 3.4-6.7 6.45-18.7 5.75-22.45-.25-1.4-.75-2-2.35-2.9-2.15-1.2-1.85-1.2-8.8-.2-2.65.35-2.9-.6-.5-1.6 6.25-2.6 12.75-.65 13.65 4.15.7 3.8-1.8 14.8-5.1 22.35-2.1 4.75-2.5 5.85-1.75 4.65.95-1.4 5.2-4.25 7.35-4.9 1.8-.55 2.35-.5 4.4.4 1.85.85 2.55 1.5 3.3 3.2 1.25 2.8 1.25 3.9 0 3.9-.55 0-1-.3-1-.65 0-1.3-2.7-4.75-3.9-5-1.35-.25-4.6.6-4.6 1.25 0 .2-.45.4-1 .4s-1 .3-1 .65c0 1.2-2.9 3.35-4.5 3.35-1.4 0-1.5-.15-1.5-1.75zm-168-.2c-.55-.8-1.55-1.05-4.6-1.35-4.25-.35-5.35-1.4-2.15-2 3.5-.65 9.75 1.8 9.75 3.85 0 .85-2.3.45-3-.5zm64.25-8.15c-4.65-3.9-4.9-4.15-3.55-4.3 1.9-.25 2.8.2 2.8 1.35 0 .7.4 1.05 1.4 1.15.95.1 1.4.45 1.5 1.3.15.8.5 1.1 1.4 1.1 1.35 0 1.85.85 1.6 2.5-.15.9-.8.5-5.15-3.1z"/>
    <path d="M443 300.15c0-.75.7-3.7 1.55-6.5 1.3-4.1 1.8-5.15 2.55-5.15 1.25 0 1.15.4-1 6.95-1.85 5.65-3.1 7.55-3.1 4.7zm-52.5-5.95c0-1.95.45-1.9 2 .3l1.05 1.5h-1.5c-1.45 0-1.55-.15-1.55-1.8zm-47.5-1.15c0-.3.55-1.15 1.25-1.9l1.2-1.4.05 1.9c0 1.65-.15 1.85-1.25 1.85-.7 0-1.25-.2-1.25-.45zm35.5-.1c-.7-.3-2.3-.75-3.6-1-1.5-.35-2.4-.8-2.4-1.25 0-.85 1.55-.9 5-.15 2.15.45 2.5.7 2.5 1.75 0 .65-.05 1.2-.1 1.15-.1 0-.7-.25-1.4-.5zm-20-1.95c0-.85.35-1 2.25-1 2.45 0 3.2 1.15 1.15 1.7-2.25.6-3.4.35-3.4-.7zm84 .4c0-1.5.65-2.9 1.3-2.9.45 0 .7.6.7 1.75 0 1.4-.2 1.75-1 1.75-.55 0-1-.3-1-.6zm-57.1-.8c-.35-.85-6.4-3.1-8.25-3.1-1.1 0-3.85-.6-6.2-1.3-4.6-1.45-11.7-1.85-16.9-1-2.2.4-2.65.35-2.45-.25.75-2.35 11.65-2.9 18.65-.95 2.2.6 5.55 1.3 7.45 1.55 3.7.45 8.9 2.65 10.55 4.45.9 1 .9 1-.9 1-.95 0-1.85-.2-1.95-.4z"/>
    <path d="M447 286c0-1.65.15-2 1-2 1.05 0 1.25.8.7 2.9-.55 1.95-1.7 1.35-1.7-.9zm-35.8-2.95c-4.45-1.15-3.45-1.9 2.55-1.9 2.9 0 5.25.2 5.25.4 0 1.2-5.15 2.15-7.8 1.5zm31.6-2.15c-.55-2.1-.35-2.9.7-2.9.85 0 1 .35 1 2 0 2.25-1.15 2.85-1.7.9zm34.25.25c.8-.95 6.4-4.65 7.05-4.65.2 0 .4.55.4 1.25 0 .9-.35 1.3-1.25 1.55-.7.15-1.25.5-1.25.75s-.3.45-.7.45c-.4 0-.8.35-1 .75-.15.5-.95.75-2.1.75-1.65 0-1.75-.1-1.15-.85z"/>
    <path d="M405.3 279.95c-2.05-1.8-4.65-6.75-5.1-9.8-.3-1.9-.2-2.15.6-2.15.75 0 1.1.6 1.6 2.65.3 1.45.6 3 .6 3.5 0 .45.35.85.75.85s.75.3.75.7c0 .4.35.8.75 1 .4.15.75.6.75 1 0 .35.45.8 1 .95.7.15 1 .7 1 1.55 0 1.7-.6 1.65-2.7-.25zm41.25-1.05c-1.1-4.3-1.3-6.55-.5-6.3s2.2 3.75 2.7 6.8c.3 1.85.2 2.1-.6 2.1-.7 0-1.1-.65-1.6-2.6zm-25.55.6c0-1-.25-1.5-.75-1.5-1.45 0-.7-1 1.7-2.2 1.35-.7 2.55-1.1 2.75-.95.7.7.25 1.65-.8 1.7-.85.05-.95.1-.25.3.45.1.85.35.85.45 0 .75-1.1 2.15-2.25 2.9-1.25.8-1.25.8-1.25-.7zm-7-1.5c0-.25-.65-.5-1.5-.5-.95 0-1.5-.25-1.5-.7 0-.45-.6-.8-1.6-.9-1.25-.1-1.7-.4-1.8-1.25-.1-.65-.35-1.15-.6-1.15-.65 0-1.15-4.75-.75-7.5.3-2.2.5-2.5 1.5-2.5 1.1 0 1.15.1.65 1.55-.3.8-.4 2.85-.3 4.55.2 2.6.45 3.25 1.75 4.4.8.75 2.9 1.75 4.55 2.25 3.45 1.05 4.15 2.25 1.35 2.25-.95 0-1.75-.2-1.75-.5zm25.7-4.65c-1.1-1.7-2.75-4.3-3.6-5.7l-1.55-2.65H436c.85 0 1.5.25 1.5.55 0 .3.35.85.75 1.25.4.45.75 1.55.75 2.5 0 1.35.2 1.7 1 1.7.65 0 1 .35 1 1 0 .55.35 1 .75 1 .5 0 .75.55.75 1.75 0 .95-.15 1.75-.35 1.75-.25 0-1.3-1.4-2.45-3.15zm3.9-3.8c-.35-1.05-.6-2.3-.6-2.75 0-.45-.2-.8-.5-.8-.25 0-.5-.8-.5-1.8 0-2.7 1.05-1.9 2.6 2.1 1.65 4.15 1.7 5.2.5 5.2-.65 0-1.1-.6-1.5-1.95zm-43.4-5.65c.35-2.4 3.1-8.4 3.85-8.4.25 0 .45.8.45 1.75 0 1.2-.25 1.75-.75 1.75-.4 0-.75.4-.75.85 0 .5-.3 2.05-.6 3.5-.5 2.05-.85 2.65-1.6 2.65-.8 0-.9-.25-.6-2.1zm8.8-3c0-1.55.15-1.9 1-1.9.65 0 1-.35 1-1 0-.55.35-1 .75-1s.75-.2.75-.5c0-.25.7-.5 1.5-.5.95 0 1.5-.25 1.5-.7 0-.75 1.5-1.3 3.65-1.3 2.1 0 1.65 1.25-.75 1.95-2.8.8-5.75 2.7-7.75 5l-1.6 1.8-.05-1.85zm20.35-1.4c-1.1-1.8-3.1-3.25-5.2-3.75-2.25-.45-2.2-1.75.1-1.75.95 0 1.75.25 1.75.5 0 .3.55.5 1.25.5 1 0 1.25.25 1.25 1.25s.25 1.25 1.25 1.25c1.1 0 1.25.2 1.25 1.75 0 2.15-.5 2.2-1.65.25zm8.5-.85c-.2-.15-.35-.95-.35-1.75 0-1.2-.2-1.4-1.5-1.4-1.25 0-1.5-.2-1.5-1.25 0-1.1-.2-1.25-1.75-1.25-1.2 0-1.75-.25-1.75-.75 0-.45-.45-.75-1.1-.75-.65 0-2.35-.45-3.8-1-1.45-.55-3.05-1-3.6-1-.7 0-1-.35-1-1.05 0-.95.2-1 2.15-.7 5.95 1 13.2 5.35 16.4 9.8l1 1.45h-1.45c-.8 0-1.6-.15-1.75-.35zm-32.8-4.5c2.3-2.85 7.6-5.9 11.35-6.45 1.9-.3 2.1-.25 2.1.75 0 .75-.3 1.05-1.05 1.05-1.2 0-7.1 2.5-7.35 3.1-.1.2-.75.4-1.4.4-.85 0-1.2.3-1.2 1 0 .8-.35 1-1.55 1-1.4 0-1.5-.1-.9-.85z"/>
  </g>
  <path d="M371.2 524.05c-3.7-1.7-5.95-6-4.7-9.05.35-.85 1.05-1.75 1.55-2 .75-.45.85-.95.6-3.9-.2-2.8-.1-3.55.65-4.5.9-1.1 1.1-1.1 5.65-.65l4.7.5 1.7-1.45c2.8-2.5 7.3-1.85 9.6 1.4 3.05 4.35 1.6 10.2-3 12.1-.8.35-1.45.95-1.45 1.35 0 1.2-2.8 3.65-4.2 3.65-.9 0-1.5.4-1.9 1.25-1.05 2.3-5.6 2.95-9.2 1.3zm59.55-38.5c-2.4-1.1-3.45-2.2-4.5-4.75-1.05-2.45-.65-4.75 1-6.3 1.1-1.05 1.2-1.4.9-4.2-.2-2.5-.1-3.25.65-4.2.95-1.1 1.05-1.1 5.8-.6l4.85.5 1.5-1.5c1.2-1.2 1.9-1.5 3.65-1.5 4.4 0 7.4 3.25 7.4 8 0 3.25-1.05 5.15-3.75 6.8-1 .6-2.2 1.85-2.65 2.75-.65 1.35-1.35 1.85-3.2 2.4-1.45.45-2.4 1.05-2.55 1.6-.55 2-5.7 2.6-9.1 1zm-143.9-78.75c-2.45-.9-3.2-1.6-4.45-3.95-1-1.95-1.05-4.55-.15-7.15.3-1 .15-1.05-4.85-1.35-6.15-.3-13.65-2.2-18.7-4.6-4.6-2.2-6.15-4.5-5.5-8 .35-1.9 3.8-5.6 5.6-6.05 1.9-.5 1.4-.95-1.75-1.6-4.85-1-8.85-3.4-13.55-8.1-8.25-8.2-11.15-18-6.55-22.1 2-1.75 4.05-1.8 7.35-.15 1.35.7 2.5 1.25 2.6 1.25.1 0-1.1-1.5-2.55-3.35-3.7-4.6-7.05-9.9-9.2-14.55-2.2-4.7-2.5-8.25-.85-10.45 1.5-2.1 4.95-3.65 7.95-3.65 2.6 0 8.4 1.6 9.7 2.65.9.75 6.2 7.95 11.1 15.1 9.6 14 17.6 27.65 26.25 45l5.8 11.5-1.55 8.8c-.85 4.8-1.55 9.35-1.55 10.1 0 1.2-.2 1.35-1.6 1.35-.9-.05-2.5-.35-3.55-.7zm163.25-12.9c-1.15-2.05-1.4-3.1-1.25-4.65C452.5 354.4 459.15 325.7 471 294c4.25-11.35 4.2-11.25 7.35-13.7 4.9-3.9 8.6-5.45 13.3-5.7 3.7-.15 4.3-.05 5.85 1 2.75 1.9 3.25 4.05 2.25 10.15-1 5.8-3.5 13.75-5.7 18.15-.85 1.7-1.55 3.2-1.55 3.4 0 .15 1.25-.85 2.75-2.2 3.1-2.85 5.5-3.85 8.35-3.45 4.95.65 7.1 6.55 5.15 14.1-2.45 9.5-9.45 18.9-17.95 24.15l-3 1.85 3.75.3c5.65.4 7.9 2.05 7.95 5.75 0 1.5-.4 2.6-1.45 4.05-1.6 2.25-7.8 7.25-13.45 10.85-3.75 2.45-14.4 7.8-15.45 7.8-1.05 0-.75.8.6 1.7 1.75 1.15 2.55 4.25 1.8 6.8-1 3.3-3.15 5.2-9.45 8.45-8.2 4.15-8 4-6.4 5.9.7.85 1.3 1.65 1.3 1.8 0 .4-3.05 1.35-4.3 1.35-.85 0-1.5-.65-2.6-2.6zm-137.35-64.2c-22.7-5.9-24.75-6.5-24.75-7.65 0-1.35 1.15-2.1 9.8-6.45 6.4-3.25 8.8-4.75 12-7.6 4.6-4.1 6.3-4.75 10.2-3.95 5.3 1.05 6 2 7 8.8 1.05 7.15-.5 12.2-4.75 15.45-1.45 1.1-2.4 1.35-5.15 1.5-1.85.05-3.8.05-4.35-.1zm37.1-6.1c-3.85-4.25 6.75-16.55 14.2-16.6 3.5 0 4.3 2.55 2.2 6.85-3.35 6.75-13.65 12.8-16.4 9.75zm63.9-7.15c-5.55-1.25-11.6-4.75-18.45-10.75-9.25-8.1-12.75-10.85-15.8-12.35-3.1-1.55-3.5-1.6-10.55-1.8-5.4-.1-8.45.05-11.35.65-2.15.45-4.7.8-5.65.8-.95.05-3.4.35-5.45.7-2.05.4-3.85.6-3.95.5-.45-.4 2.2-3.75 5.1-6.55 4.3-4.15 6.8-4.9 14.8-4.5 4.2.2 6.95.6 10 1.55 2.35.7 5.15 1.3 6.3 1.3 1.4 0 3.3.6 5.65 1.75 4.35 2.2 7.8 5.85 11.55 12.2 3.1 5.3 7.4 9.35 13.05 12.3l3.75 2h6c5.6 0 6.2-.1 8.95-1.45 3.7-1.8 8.7-6.7 10.45-10.3 3.6-7.3 4.5-10.5 4.75-16.25.25-6.5-.25-8.75-2.65-12.1-.95-1.3-2.2-3.35-2.75-4.55-.55-1.15-2.5-3.8-4.35-5.8-1.9-2.05-3.95-4.45-4.6-5.3-2.6-3.4-7.85-4-12.95-1.45-4.9 2.45-7.75 6.65-7.75 11.45 0 3.9 1.05 5.6 4.25 7 3.85 1.7 6.9 1.85 9.4.55 2.55-1.3 3.5-1.35 3.5-.05 0 1.5-3 4.55-5.75 5.8-4.95 2.35-10.65 1.3-14.4-2.55-6.75-6.95-6.15-19.15 1.25-26.05 8.65-8.1 22.35-7.2 31.6 2.05 3.85 3.85 5.1 6.2 8.35 15.5 2.4 6.85 2.6 7.9 2.65 12 0 4.05-.25 5.25-2.35 11.75-2.75 8.35-4.15 10.75-8.8 15.15-5.4 5.05-11.1 7.4-18.05 7.3-2.05-.05-4.65-.25-5.75-.5z" fill="#401b25"/>
</svg>
