<svg version="1.0" xmlns="http://www.w3.org/2000/svg" preserveAspectRatio="xMidYMid meet" viewBox="0 0 235 471">
  <g fill="#2f1712">
    <path d="M154.15 450.1c-2.45-.6-3.15-1-3.15-1.7 0-.75.25-.85 1.4-.6.75.2 1.75.55 2.3.8.5.3 4 .6 7.75.75 5.9.25 6.9.2 7.5-.55.35-.45 1.1-.8 1.6-.8 1.35 0 1.2 1.45-.15 1.7-.65.15-1.8.4-2.65.6-3.15.75-11.45.65-14.6-.2zm39.1-16.35c-1.35-.4-3.15-.9-3.9-1.05-1.3-.3-2.3-1.4-1.75-1.95.15-.15 3.9.75 8.5 2.1.75.2 1.45.65 1.5.9.25.8-1.6.75-4.35 0zm3.3-2.85c-1.45-.35-2.25-.8-2.4-1.45-.2-.75-.45-.85-.95-.4-.7.6-1.4.45-5.8-1.15-2.1-.75-2.9-1.3-2.9-1.95 0-.5.25-1.05.5-1.2.3-.15.5-.75.5-1.3 0-.5.25-.95.5-.95.3 0 .5-.35.5-.8 0-.7.1-.7.8-.15.65.55.85.5 1.25-.2.6-1 1.85-1.05 3.1-.1.55.35 1.2.6 1.55.45.3-.1 1.25.45 2 1.25.8.85 1.65 1.4 1.9 1.25.2-.15.75.05 1.15.5.45.45.55.85.25 1.05-.25.15-.5 1.1-.5 2 0 1.45.2 1.8 1.25 2.05 1.4.35 1.7 1.75.4 1.65-.5-.05-1.9-.3-3.1-.55zm-2.05-3.9c0-1.15-1.25-1.35-1.65-.3-.35.8.05 1.3 1 1.3.35 0 .65-.45.65-1zm-22-4.95c0-.85.6-2.35 1.3-3.4.7-1.05 1.6-3.2 2.05-4.75.8-2.8.85-2.9 2.55-2.9 1.25 0 1.65.2 1.45.7-.15.35-.4 1.7-.6 2.95-.2 1.25-1.1 3.7-1.95 5.45-1.45 2.75-1.8 3.15-3.2 3.3-1.5.15-1.6.05-1.6-1.35zm-161.6-5.9c-2.5-.15-2.9-.35-2.9-1.2s.25-.9 1.9-.65c3 .45 8.5.5 13.5.05 4.65-.45 5.95 0 3.25 1.05-1.5.6-11.15 1.05-15.75.75zm16.5-15.5c-.55-.15-.9-.7-.9-1.45 0-.95.4-1.45 1.9-2.05 1-.4 2.7-.9 3.75-1.05 1.4-.15 1.85-.45 1.85-1.15 0-.55.5-1.95 1.15-3.2.95-1.95 1.3-2.2 2.75-2.25 1.5 0 1.6.1 1.6 1.8 0 1.45-.5 2.35-2.6 4.75-1.4 1.6-3.2 3.3-4.05 3.7-1.7.85-4.2 1.25-5.45.9zm112.8-36.5c-1.45-.2-1.6-.4-2.15-3.05-.35-1.55-.85-3.85-1.15-5.1-1.3-5.95-1-26.5.6-35.5 1.75-10.3 1.85-9.4-1.7-13.75-2.9-3.55-6.4-6.85-11.55-10.85-4.25-3.35-13.95-9.9-14.55-9.9-.15 0-.9-.4-1.6-.95-1.25-.85-8.95-5.05-9.3-5.05-.1 0-.15 2.3-.15 5.15 0 8.95-2.45 13.9-18.15 36.1-4.05 5.7-7.25 10.75-10.65 16.75-1.95 3.5-9 13.55-11.05 15.85-2.05 2.25-2.15 2.3-3.8 1.75-.9-.35-2.2-.6-2.9-.6-3.15 0-11.2-3.3-15.4-6.3-2.1-1.5-4.3-2.7-5-2.7-1.45 0-1.45-.05-.25-2.4.5-1 1.05-2.5 1.25-3.35.5-2.2 2.2-6.6 3.85-9.95.8-1.6 1.45-3.25 1.45-3.6 0-.4.25-.7.5-.7.3 0 .5-.3.5-.7 0-1.05 4.75-9.1 7.4-12.55 2.65-3.45 8.55-9.5 12.7-12.95 3.35-2.8 3.75-3.7 2.65-5.85-.85-1.6-5.55-6.45-6.3-6.45-.2 0-.7-.3-1.05-.65-.35-.35-2.8-1.85-5.4-3.35-9.15-5.2-15.3-9.6-22.35-15.9-3.05-2.7-4.15-4-4.15-4.9 0-.85-.3-1.2-.9-1.2-1 0-5.45-6.2-7.75-10.8-4-8.05-5.9-18.8-4.85-28.2.65-6.2 1.35-8.7 3.5-13 4.2-8.35 10.45-13.75 24.15-20.9 10-5.25 11.9-6.6 14.65-10.35C52.95 176 54 175 54.75 175c1.25 0 4.3-.95 10.75-3.45l4.75-1.8h18.5l4.75 2.3c8.3 4 13.8 9.75 18.95 19.75l2.65 5.05-1.6 2.7c-.85 1.5-2.45 4.15-3.55 5.9-2.9 4.7-2.9 4.85.05 8.85 4.2 5.55 11.65 12.55 25.8 24.2 2.15 1.8 6.2 5.45 8.95 8.15 4.65 4.55 6.25 5.55 7 4.35.5-.85 9.8 9.95 13.45 15.6 1.4 2.2 1.7 3.15 1.5 4.3-.25 1.1.25 2.4 1.95 5.65 4.1 7.6 4.25 8.35 4.65 28.45.2 9.75.4 26.45.4 37.1l.05 19.4-1.25-.1c-.7-.05-1.7.05-2.25.25s-3.7.9-7 1.6c-5.05 1.05-7.1 1.25-13.75 1.15-4.25 0-8.45-.15-9.3-.25zM100.5 206.1c0-.25-.35-.85-.75-1.4-.7-.95-.7-.95-.75.1 0 .55.15 1.2.35 1.35.45.5 1.15.45 1.15-.05zm-95-2.3c0-1.95 5.65-9.8 7.05-9.8 1.35 0 1.2.85-.7 3.2-.9 1.15-2.4 3.1-3.3 4.45-.85 1.3-1.9 2.35-2.3 2.35-.4 0-.75-.1-.75-.2zm148.35-4.9c-1.25-.45-1.4-.7-1.25-2.6.15-2 .2-2.05 2.15-2.2 1.1-.05 3.45.3 5.25.8 3.2.9 3.25.95 3.4 2.75l.15 1.85-4.15-.05c-2.3 0-4.8-.25-5.55-.55zm-145.5-5.2c-.4-.45.55-2.25 1.85-3.4 4.15-3.7 7.35-5.65 8.25-5.05.8.5.35.95-3.6 3.95-2 1.45-4.05 3.15-4.55 3.75-1 1.1-1.4 1.25-1.95.75zm6.25-1.3c.15-1.1 4.3-4.3 7.4-5.7.95-.45 2.15-1 2.7-1.3 1-.55 2.15.15 1.6 1-.15.3-2.05 1.45-4.15 2.6-2.1 1.1-4.45 2.6-5.25 3.25-1.8 1.55-2.5 1.6-2.3.15zm93-10.15c-.35-.7-.6-2.05-.6-3 0-1.65.1-1.75 1.65-1.75.85 0 1.85.2 2.15.4.95.6 1.7 2.45 1.7 4.05 0 1.5-.1 1.55-2.15 1.55-1.85 0-2.3-.2-2.75-1.25zM101 152.2c-3.8-1.25-9.1-2.55-11.6-2.95-2.3-.3-2.4-.35-2.4-1.95 0-2.25.85-2.8 4.85-3.15 2.85-.25 3.8-.1 5.4.7 1.1.55 3.8 1.6 6 2.35 5.2 1.7 5.35 1.85 5.15 3.85-.15 1.65-.2 1.7-2.65 1.8-1.35.05-3.5-.25-4.75-.65zm50-10.3c-.25-.65-1.85-5.65-3.5-11.15-8.45-27.5-10.3-31.35-16.9-34.6-2.75-1.35-3.15-1.4-11.95-1.6l-9.15-.15v-1.95c0-1.8.1-1.95 1.4-1.95h1.35l-1.45-.95-1.45-.95-1.9 2.05c-1.1 1.1-1.95 2.45-1.95 2.95 0 .75-.4.9-2.35.9-3.85 0-11.6 2-15 3.85-1.15.65-2.95 1.15-4 1.15h-1.9l.25-3.4c.2-2.85.5-3.75 1.75-5.3 3-3.75 4.75-6.95 4.75-8.85 0-1 .2-2.45.5-3.25.25-.8.6-6.3.7-12.2.35-13.6.8-17.35 3.05-23.75 2.65-7.65 10.3-14.45 17.55-15.65 6.3-1.05 13.4-1.75 18.9-1.9 7.05-.15 9.6.7 13.2 4.5 1.95 2.05 2.75 3.4 3.55 6.05 1.25 4 1.25 3.75.3 3.75-1 0-.95.5.1 1.25.85.65.75 1.7-.95 10.5-.6 3-.6 3.65-.15 5.1.3 1 .2 1.15-.95 1.15-1.1 0-1.3.2-1.3 1.5 0 1.45-.05 1.5-2.45 1.5-2.1 0-2.65-.2-3.5-1.3-1.15-1.45-1.35-3.7-.55-5.25.3-.5 1.5-1.4 2.7-1.95 1.8-.8 2.15-1.15 1.95-2.05-.15-.55-.6-1.15-.95-1.3-.4-.15-.7-.8-.7-1.45 0-2.55-3.55-8.2-5.95-9.45-2.65-1.35-5.7-1.8-6.9-1-.6.4-1.5.75-1.95.75-1.5 0-6.05 3.5-9.4 7.3-2.7 2.95-3.3 3.95-3.3 5.35 0 .9-.45 3.05-1 4.7-.65 2.05-.95 4.1-.85 6.45l.1 3.45h-3.6c-3.65 0-4.35.4-1.65.95 1.5.25 1.55.4 1.4 2.4-.15 2.05-.25 2.15-1.9 2.4-2.3.35-.8 1 2.25 1h2.2l-.1 3.65c-.05 4.5.8 6.15 4.8 9.35 2.4 1.9 2.85 2.5 2.85 3.9V90h12.75l1.2-2.75c.65-1.5 1.55-3.05 2-3.5 1.25-1.1 5.45-2.25 8.35-2.25 2.35 0 2.6.1 2.9 1.25.2.7 4.85 5.9 10.5 11.7 5.6 5.75 10.8 11.45 11.45 12.65 2.9 5 4.1 12 2.9 16.85-.25 1-.75 3-1.05 4.45-.75 3.3-2.6 6.65-4.55 8.35-.85.7-3.3 2.1-5.5 3.15-2.15 1-3.95 2.15-3.95 2.5 0 1.1-2.5.7-3-.5zm12.15-33.4c-.3-1.1-16.45-17.85-16.85-17.5-.1.15 2.4 2.95 5.6 6.25 3.2 3.3 7.05 7.45 8.55 9.15 1.5 1.7 2.75 3.1 2.85 3.1.05 0 0-.45-.15-1zM143 35.15c0-.6-2.55-3.65-3.5-4.15-1.4-.75-1.25-.4.75 1.8.95 1.05 1.75 2.1 1.75 2.3 0 .2.25.4.5.4.3 0 .5-.15.5-.35z"/>
    <path d="M136 72.4c0-2.35.75-2.9 4.1-2.9h2.9v1.7c0 1.95-.35 2.15-4.3 2.6l-2.7.35V72.4zm-19.9-1.45c-1.55-.45-1.65-.65-1.5-2.35l.15-1.85 3.55-.15c1.95-.1 4.15.1 4.85.35 1.15.45 1.35.8 1.35 2.55v2l-3.35-.05c-1.9 0-4.15-.25-5.05-.5zm4.4-14.1c0-1.15.4-2.05 1.3-2.9 1.15-1.1 1.7-1.2 5.6-1.2h4.35l.15 1.95c.2 2.15-.35 2.8-2.5 2.8-.75 0-1.5.25-1.65.5-.15.3-1.85.5-3.8.5h-3.45v-1.65z"/>
  </g>
  <g fill="#ffb091">
    <path d="M165.75 430.5c.2-.3-.65-.5-2.25-.5-2.95 0-4.7-.8-8.5-3.9-1.5-1.25-3.8-2.8-5.1-3.55l-2.3-1.3.2-2.5c.15-1.35.5-3.3.8-4.3.8-2.85-.05-13.8-1.6-20.45-.3-1.25-.65-3.1-.85-4.15-.15-1.05-.5-2-.7-2.15-.25-.15-.45-.9-.45-1.7 0-.8-.2-1.6-.5-1.75-.25-.15-.5-.85-.5-1.5s-.2-1.7-.45-2.35c-.85-2.1-4.1-13.3-4.9-16.75l-.25-1.1 8.4.3c8.75.3 12.65-.2 21.75-2.7 1.55-.4 3.35-.65 4-.55l1.2.15.1 20c.05 12.85.25 20.5.6 21.4.3.8.55 2.1.55 2.95 0 2.7 1.05 4.9 2.35 4.9.6 0 1.65.25 2.35.55 1.15.55 1.2.65.45 1.75-.4.65-1.05 1.2-1.4 1.2-.3 0-.95 1.3-1.4 2.9-.45 1.55-1.35 3.7-2 4.65l-1.2 1.8 1.25-.25c1.1-.2 1.15-.15.65.8-.55 1.05-4.45 4.6-5.05 4.6-.2 0-.2.7-.1 1.55.15 1 0 1.7-.45 2-1 .6-5.1.55-4.7-.05zM27 400.3c-3.7-2.15-10.65-4.8-12.6-4.8-.5 0-.9-.1-.9-.2 0-.35 1.6-4.05 3.55-8.15 1.1-2.3 1.95-4.35 1.95-4.65 0-.3.2-.9.45-1.4 1.15-2.2 2.7-6.8 4.05-11.6.85-3.2 3.4-11.4 5.35-17.3.9-2.8 1.65-5.5 1.65-6.05 0-1.1 1.9-2.65 3.25-2.65.45 0 .9.35 1.1.8 1.05 2.75 14.15 9.15 18.95 9.2.8.05 2.05.3 2.8.65l1.35.6-3.5 4.5c-3.5 4.5-10.95 15.35-10.95 15.95 0 .15-.45 1.25-.95 2.45-1.7 3.7-2.65 7-2.9 10.25-.25 2.4-.45 3.1-1.1 3.1-.9 0-2.75 3.45-2.85 5.3-.05 1.45-.9 2.45-2.8 3.45-2.35 1.15-4.5 1.35-5.9.55zm5.4-.9c.35-.35.6-.9.6-1.2 0-.5-.55-.45-2.25.15-1.25.4-2.35.95-2.55 1.2-.4.7 3.5.55 4.2-.15zm133.05-128.75c-.4-.5-1.4-1.9-2.2-3.15-1.85-2.95-6.05-8.2-9.55-12-2.6-2.8-2.8-3.15-2.25-4.2.7-1.3.45-10.7-.4-16.55-1.15-7.25-1.5-9.6-2.05-12.25-.55-2.7-.9-4.6-2-11-.6-3.45-1.2-8.65-1.75-15.25-.4-4.55-2.2-10.45-5.55-18.25-.45-.95-1.4-3.2-2.15-5-1.25-3.1-1.4-3.25-3.2-3.4-1.55-.15-1.85-.35-1.85-1.3 0-.6.25-1.35.6-1.7.45-.45.2-1.3-.95-3.7-2.3-4.75-5.4-12.15-6.95-16.75l-1.4-4.05-4-1.95c-6.85-3.3-13.9-9-21.25-17.3-1.6-1.75-1.5-3.65.4-9.35 1.95-5.75 3.75-9.3 7.2-14.15 2.65-3.6 2.75-3.85 1.6-3.85-.85 0-1.8.8-3.45 2.9-3.4 4.45-5.15 7.65-8.15 15.1-2.8 6.95-3.95 8.7-5.8 9.15-1.1.3-11.2 4.4-12.1 4.95-.25.15-1.45.45-2.6.65-1.2.2-2.25.55-2.45.8-.45.75-4.5.55-5.15-.25-.5-.55-.4-1.15.35-2.65.55-1.05 1.15-2.45 1.35-3.15.4-1.5 7.3-15.65 7.75-16 .15-.15 1.45-2.2 2.8-4.6 1.65-2.95 2.75-4.4 3.35-4.4.5 0 1.85-.5 3-1.15 2.2-1.2 4.35-1.9 8.85-2.9 1.5-.35 3.05-.85 3.35-1.1.35-.25 1.7-.35 3-.15 1.35.15 2 .1 1.5-.1-.85-.35-.65-.65 1.3-2.2 1.2-1.05 2.5-2.55 2.85-3.4.7-1.65 1.55-1.9 2.5-.75 1.2 1.4 3.95 2.85 4.7 2.4.6-.35.15-.9-2-2.55-3.4-2.6-4.35-4.15-5.15-8.35-.55-2.6-.55-3.4-.05-4 .55-.65.3-.75-1.7-.75-3.15 0-4.3-.65-4.3-2.5 0-1.3.2-1.45 1.85-1.6 2.35-.2 2.7-1.25.55-1.8-1.5-.4-1.65-.55-1.65-2.4 0-1.65.15-1.95 1.2-2.1.65-.1 1.4.05 1.7.35.6.6 3.7.75 4 .15.15-.2.05-1.5-.1-2.95-.3-2-.1-3.4.8-6.25.65-2 1.15-4.4 1.15-5.3 0-1.35.65-2.4 3.3-5.3 3.35-3.8 7.9-7.3 9.4-7.3.45 0 1.4-.35 2.1-.8 2.65-1.75 10 .25 12.3 3.35 2.25 3 4.05 6.85 3.7 7.8-.2.45-.2.7 0 .5.6-.55 1.9 1.7 2.05 3.65.2 1.75.1 1.85-2.3 2.9-1.4.6-2.75 1.55-3.1 2.15-.45.85-.4 1 .1.7.45-.3.55-.2.3.35-.15.5.15 1.2.8 1.75l1.1.9-.95-1.1c-.6-.75-.75-1.15-.35-1.15.35 0 1.05.5 1.6 1.1.5.65.9.9.95.6 0-.3-.35-.85-.75-1.2-1.05-.85-.95-1.25.55-2.25 1.15-.75 1.35-.75 2.15-.05.5.45 1.1.8 1.35.8.3 0 .8.85 1.2 1.9.75 2.1.75 10.95 0 13.65-.3.95-.5 2.7-.5 3.95 0 1.3-.45 3.15-1 4.25s-1 2.25-1 2.6c0 .4-.7.65-1.85.65-2.2 0-6.45 1.2-7.55 2.1-.4.35-1.35 2-2.15 3.65l-1.4 3-6.7-.15c-6.95-.2-13.35.25-13.35.9 0 .2 4.1.45 9.15.55 8.8.2 9.2.25 11.95 1.6 5.15 2.5 8.2 7.25 11.8 18.35 3.35 10.35 8.1 25.75 8.1 26.4 0 .35.4 1 .9 1.5s1.3 2.45 1.75 4.35c.5 1.95 1.15 4.25 1.4 5.15 1.8 6.3 2.1 7.45 4.2 16.35.75 3.25 1.05 4.35 2.25 9.25.25.95 1.25 4.35 2.15 7.5 1.85 6.2 2.6 9.1 3.1 12.25.8 4.75 1.3 17.6 1.55 40.7.3 25.3.3 25.55-1.65 31.5-1.1 3.45-1.35 3.75-2.2 2.7zm-3.7-73.1c-.75-.65-6.7-2.15-7.25-1.8-1.6 1 .95 2.15 5 2.2 1.5.05 2.5-.15 2.25-.4zM140.7 72.7c1.25-1.2.95-1.8-.75-1.6-.95.1-1.9.6-2.35 1.3-.7 1.05-.65 1.1.8 1.1.85 0 1.9-.35 2.3-.8zM123 69.5c0-1.2-6.05-2.15-6.75-1-.15.25.45.7 1.35.95 2.25.65 5.4.65 5.4.05zm3.25-13c.15-.25.9-.5 1.65-.5 1.75 0 2.85-.7 2.35-1.5-.25-.4-1.3-.55-3.1-.4-2.1.2-3 .55-4.05 1.55L121.75 57h2.1c1.15 0 2.25-.2 2.4-.5z"/>
    <path d="M111 193.4c-5.2-10.1-10.7-15.8-19-19.85l-4.75-2.3H79.5c-7.7 0-7.8.05-12.5 1.8-7.3 2.8-9.5 3.45-11.75 3.45-1.1 0-2.35.3-2.75.65-.35.3-.2-.05.35-.9.9-1.35 3.45-6.55 4.75-9.75.3-.7.7-1.65.95-2.1.25-.5.45-1.45.45-2.1 0-.7.25-1.4.5-1.55.3-.15.5-.7.5-1.2 0-1.05 2-1.8 7.25-2.6 2.2-.35 4.4-1 4.95-1.4.7-.65 2.2-.8 7.25-.8 5.25 0 6.9.2 9.8 1.15 5.55 1.85 11.25 4.05 14.45 5.7 4 2.05 12.8 7.95 16.7 11.25 1.75 1.45 3.4 2.65 3.65 2.65 1 0-1.05 6.95-3.4 11.75-1.7 3.5-6.3 11.25-6.7 11.25-.15 0-1.5-2.3-2.95-5.1zm-.6-12.6c-.45-1.05-1.9-2.2-1.9-1.55 0 .8 1.3 2.75 1.8 2.75.55 0 .55-.25.1-1.2z"/>
  </g>
  <path d="M122.65 167.3c-5.05-3.35-6.85-4.45-9.9-6.05-1.1-.55-3.1-1.65-4.5-2.35-4.3-2.3-11.15-5.4-11.85-5.4-.4 0-.9-.2-1.2-.4-.4-.4-1.65-.8-6.5-2.05-2.6-.7-15.05-.75-15.45-.05-.15.3-.85.5-1.5.5s-1.35.25-1.5.5c-.15.3-.9.5-1.65.5-.75 0-2.25.35-3.35.75-4.2 1.5-4.35 1.2-2.7-5.95 2.9-12.7 3.55-14.8 4.95-16.05.5-.45.8-1.15.65-1.55-.2-.5.2-.7 1.55-.7 2.1 0 2.2.25.7 1.55l-1.15.9 2.25.05c1.3 0 2.55-.25 2.85-.55.3-.3 1.25-.6 2.1-.7 2.7-.25 8.9-2.9 15.85-6.8l2.1-1.15 4.55 4.35c4.05 3.8 8.65 7.8 13.3 11.5 2.05 1.65 5.95 3.6 9.15 4.5 2.25.7 2.6.7 2.6.05 0-.35.4-.7.9-.7.6 0 1.2.95 2.05 3.4 1.45 4.2 4.6 11.65 7.1 16.8l1.9 3.9-1.1 1.7c-1.15 1.75-2.25 2.25-5.6 2.45-1.7.1-2.65-.3-6.6-2.95zm-15.9-16.25c.25-.45-2.35-1.6-7-3.05-1.1-.35-2.85-1.05-3.9-1.6-2.1-1.05-5.85-.85-6.85.35-.45.55-.05.75 1.85 1 2.5.35 7.75 1.7 11.65 2.95 2.75.85 3.85.95 4.25.35z" fill="#772030"/>
  <g fill="#333">
    <path d="M170.35 449.6c-2.1-.45 2.05-2.6 5.05-2.6.95 0 2.2-.35 2.7-.85.8-.7.9-.7.9-.05 0 .45-.75 1.05-1.6 1.4-.9.3-2.65 1-3.9 1.45-1.25.45-2.65.75-3.15.65zm-22.1-1.45c-1.65-.7-3.5-1.45-4.1-1.7-.65-.25-1.15-.65-1.15-.95 0-1.15 1.65-1 4.55.45 1.7.85 3.85 1.7 4.85 1.85 1.65.3 1.7.4.85 1-1.2.9-1.45.85-5-.65zm53.75-12.9c.35-.4 1.4-.9 2.45-1.05 2.25-.45 4.9-1.5 5.3-2.2.15-.25.9-.5 1.65-.5h1.3l-1.7 1.75c-1.85 1.95-4.1 2.75-7.45 2.75-1.85 0-2.1-.1-1.55-.75zM187.25 432c-.55-.2-2.1-.8-3.4-1.25-2.1-.75-2.35-.95-1.75-1.6.6-.6 1.1-.55 3.55.4 3.1 1.2 5.3 3 3.55 2.9-.5 0-1.4-.2-1.95-.45zm-21.65-1.25c.1-1.1.35-1.25 2.15-1.35l2-.05-2-.2-1.95-.2 2.95-1.5c3.6-1.75 4.2-1.8 2.95-.3-.5.6-.6.8-.2.5.4-.35 1.35-.65 2.2-.65 1.4 0 1.4.05.6.95-1.15 1.3-6.45 4.05-7.75 4.05-.8 0-1-.3-.95-1.25zm33.65.7c-1.1-.25-2.5-.55-3.1-.7-.8-.2-1.15-.6-1.1-1.4v-1.1l.5 1.15c.25.75.65 1.05 1.05.8 1.35-.85 8.4.45 8.4 1.5 0 .45-3.45.25-5.75-.25zm-10.6-5.8c-.75-.15-1-.45-.8-1 .25-.6.1-.75-.5-.5-.7.25-.85 0-.85-1.15 0-1.65.3-1.8 1.7-.75.95.75 3.5.55 4.7-.4.75-.55.75-.3.1 1.35-.3.8-.3 1.35 0 1.55.3.2.5.5.5.8 0 .65-1.35.55-1.7-.15-.25-.5-.35-.5-.6 0-.3.6-.55.65-2.55.25zm-177.3-6.5c-1.9-.2-1.9-.25-1.05-1.2 1-1.1 1.3-1.15 4.7-.4 1.55.35 2.5.8 2.5 1.25 0 .7-1.65.8-6.15.35zm-3.7-3.9c-.4-1.1.1-1.4 1.6-1.05 1.1.3 1.25.45.75 1.05-.8.95-1.95.95-2.35 0zm6.95-3.6c-1.4-.2-1.55-.35-1.05-.95 1-1.2 8.9-.65 9.35.7.2.6-4.25.75-8.3.25zm147.45-20.25c.5-2 1.2-5.3 1.5-7.25.4-2.45.8-3.65 1.25-3.65.9 0 .9 1.8-.05 6.25-1.1 5.05-2.25 8.25-3 8.25-.5 0-.45-.75.3-3.6zM34 373.05c0-.25 2.3-2.6 5.15-5.25 3.45-3.25 5.5-4.8 6.3-4.8 1.2 0 1.2 0 .25 1.1-1.5 1.7-4.7 4.7-7.65 7.15-2.6 2.15-4.05 2.8-4.05 1.8zm34.7-62.55c-2.15-.85-3.7-4.5-1.95-4.5.45 0 .95.5 1.2 1.15.25.6.9 1.55 1.5 2.05 1.75 1.55 1.35 2.15-.75 1.3zm6.3-1.55c-2.5-1-6.85-4.25-9.8-7.35-2.85-2.95-3.1-3.15-3.85-2.35-1.2 1.15-1.05.35.35-1.9 1.3-2.1 1.35-2.1 3.95 2 1.6 2.5 6.35 6.25 10.1 7.95 3.55 1.65 2.9 3.1-.75 1.65zm70.45-5.1c1.25-1.55 3.8-2.8 7.45-3.6 4.05-.95 6.05-.7 4.45.5-.55.35-1.9.85-3 1.05-1.9.3-6.15 1.55-8.6 2.5-.9.35-.9.3-.3-.45zm-68.05-2.1c-.8-.85.3-1.25 3.25-1.25 2.1 0 2.9.15 2.55.5-.65.65-5.3 1.25-5.8.75zm67.9-2.2c-.4-.6 2.45-2.95 4.05-3.35.65-.2 1.45-.1 1.7.15.3.3-.55 1.05-2.5 2.1-1.65.85-3.1 1.35-3.25 1.1zm-64.05-29.5c-6.6-3.5-13.35-7.2-15-8.2-1.65-1-3.85-2.25-4.9-2.85-1.9-1.05-4.35-2.65-15.85-10.25-10.5-7-18.35-15.15-21.25-22.05-1.8-4.3-1.45-11.15.7-13.8 1.4-1.7 1.75-.85.85 2.15-2.2 7.4.35 14.55 7.95 22.1C38.6 242 47.5 248.5 56.75 254c2.5 1.45 5.3 3.15 6.25 3.75 8.25 5.2 17.6 10.55 23.25 13.35 8 3.9 10.2 5.4 7.9 5.4-.5 0-6.3-2.9-12.9-6.45zm25.8-58.8c-.05-.3-1.35-1.1-2.9-1.85-3.65-1.7-9.55-2.35-12.9-1.4-1.55.45-2.45.5-2.8.15-.9-.9 1.95-2.2 5.6-2.5 1.9-.15 3.45-.5 3.45-.75 0-.7-3.15-2.4-4.45-2.4-.95 0-1.05.15-.6.7.7.85-.25 1.3-2.65 1.3-2.05 0-2.4-.35-1.7-1.7.3-.55.7-1.4.9-1.8.45-.95 2.7-.75 6.6.55 3.65 1.2 3.8 1.2 2.45-.25-.9-.95-.95-1.25-.4-1.45.9-.35 2.3 1.1 4.2 4.35 1.25 2.2 2.6 3.4 5.2 4.65.55.3.65.75.4 1.65-.2.7-.35 1-.4.75zm-5.05-15c-1.8-1.95-5.45-4.05-8.25-4.75-3.1-.8-3.65-1.25-2.4-1.95 1.1-.55 4.25.2 7.15 1.7.85.45 1.7.7 1.85.55.5-.45-.95-1.9-3.7-3.65-2.85-1.8-3.3-2.65-1.5-2.65 3.25 0 10.35 7.65 10.35 11.15 0 1.3-2.15 1.05-3.5-.4zm-90-2.15c0-.45 3.7-3.6 4.2-3.6.15 0 .15.35 0 .75-.2.45-.05.75.35.75 1.2 0-2.25 2.45-3.4 2.5-.65 0-1.15-.2-1.15-.4zm28.5-1.25c0-.9 1.3-2.05 7.2-6.15 2.7-1.9 5.65-4 6.6-4.65 2.7-1.9 2.7-.65 0 1.8-2.75 2.5-9.85 7.65-12.25 8.9-1.25.6-1.55.65-1.55.1zm71-4.85c0-.15-.45-1.45-1-2.85-.95-2.55-.95-2.65-.05-2.65 1.2 0 2.55 4.2 1.6 5.15-.3.3-.55.45-.55.35zm-.4-10.95c-1.3-2.25-1.35-2.55-.45-2.55 1.1 0 2.35 1.7 2.35 3.15 0 1.9-.65 1.7-1.9-.6zm-7.7-3.75c-3.75-4.1-4.1-4.8-2.35-4.8 1.35 0 6.95 6.8 6.95 8.45 0 1.15-.9.4-4.6-3.65zM66 168.85c0-.4.45-1.75 1-3.05.75-1.6 1.35-2.3 2-2.3 1.3 0 1.25.25-.4 3.2-1.35 2.5-2.6 3.5-2.6 2.15zm32.9-32.35c-.7-.2-1.95-.75-2.75-1.15-.75-.45-2.45-1.15-3.8-1.65-1.95-.7-2.25-.95-1.75-1.55.75-.9 1.85-.6 7.2 1.85 5.05 2.3 5.75 3.9 1.1 2.5zm21.7-4.3c-1.6-4.8-1.65-5.7-.35-5.7.65 0 1.6 2.65 3.55 9.65.2.6 0 .85-.65.85-.7 0-1.3-1.05-2.55-4.8zm32.9-3.95c-.3-.7-.5-1.7-.5-2.15 0-.45-.7-3.5-1.5-6.7-1.5-5.85-3.35-11-5.75-15.95-1.45-3.1-1.45-2.95-.6-2.95s5.35 9 7 14c1.45 4.2 2.85 10.7 2.85 12.95 0 2-.9 2.45-1.5.8zm-75.3-7c.7-4.45 3.55-11.75 4.65-11.75 1 0 .8 1.35-.85 5.75-.8 2.2-1.5 4.4-1.5 4.85 0 1.4-1.1 3.4-1.9 3.4-.55 0-.65-.45-.4-2.25zm90.1-.1c-.15-.15-.3-1.05-.3-2 0-1.15.25-1.65.75-1.65s.75.5.75 1.7c0 1.7-.55 2.6-1.2 1.95zm-8.15-2.5c-.15-.5-.85-2.2-1.55-3.8-1.25-2.9-1.25-4 .1-2.9.8.65 2.8 5.55 2.8 6.8 0 1.05-.95.95-1.35-.1zm4.35-5.6c-.6-1.15-.65-2.55-.1-2.55.7 0 1.5.75 1.6 1.5.3 2.1-.55 2.75-1.5 1.05zM98.65 93.4c.15-.45 1.1-.6 2.8-.55 1.6.1 2.45-.05 2.3-.35-.2-.3 1.15-.5 3.45-.5 2.2 0 3.8.2 3.8.5s1.7.55 3.9.6l3.85.05-3.25.35c-1.8.2-6.35.4-10.15.45-5.35.05-6.9-.1-6.7-.55zm-1.3-4.55c2.45-2.65 3.15-4.8 3.15-9.65 0-3.8.25-4.5 1.35-3.65.8.7.9 6.35.1 9.15-.6 2.2-3.6 5.55-5.45 6.1-1.1.3-1.05.1.85-1.95zM122.4 85c-5.65-.7-6.55-.95-5.8-1.85.5-.65 1.4-.7 4.9-.45 6.45.5 7.5.75 7.5 1.85 0 1.05-.75 1.1-6.6.45zm17-27.05c-.75-.8-1.2-1.45-1.1-1.45.15 0-.1-.35-.5-.8-2-1.95-1.55-5.1 1-7.5 1.95-1.85 3.15-2 4.3-.45.8 1.05.8 1.1-.35.85-.9-.15-1.65.2-2.7 1.3-1.5 1.45-1.6 2.25-1.1 6.75.05.2.35.35.7.35.3 0 1 .6 1.5 1.25 1.25 1.75-.05 1.5-1.75-.3zM94.2 54.3c-.15-.45.15-1.75.75-2.9 2.4-5.05 10.35-10.45 15.2-10.35h2.6l-2.25 1.05c-1.25.55-3.6 1.65-5.25 2.4-3.85 1.75-7.35 4.9-8.65 7.7-1.2 2.55-2 3.2-2.4 2.1zm23.4-3.15c.15-.8 1.95-2.1 4.3-3.15.65-.25 2.95-.5 5.1-.5 3.55 0 4.1.15 5.35 1.3l1.4 1.3-2.5-.4c-4.9-.75-7.4-.55-10.2.95-3.05 1.55-3.7 1.65-3.45.5z"/>
    <path d="M101.5 50c0-.6 2.7-2 3.85-2 .75.05.65.25-.5 1.25-1.4 1.25-3.35 1.7-3.35.75zm29.25-18.05c-1.1-.6-2.2-1.25-2.45-1.5-.8-.75-1.3-.5-1.3.55 0 .55-.1 1-.25 1-.55 0-5.75-2.75-5.75-3.05 0-.2 1.85-.35 4.15-.35 3.95 0 4.15.05 6.25 1.75 3.2 2.6 2.85 3.45-.65 1.6z"/>
  </g>
  <g fill="#333">
    <path d="M177.5 447.05c0-.2.55-.9 1.25-1.55.95-.9 1.95-1.2 4.85-1.4 2.55-.2 4.05-.55 5-1.25 1.1-.8 2.6-1.1 6.75-1.45 3-.2 7.55-.6 10.15-.85 2.6-.3 5.75-.5 7-.55h2.25l-1.5.7c-3.1 1.35-5.15 1.8-8.55 1.8-6.65.05-17.2 1.6-22.2 3.35-3.85 1.3-5 1.6-5 1.2zm-9.85-1.85l-.45-1.35-8.45-.1c-5.7-.1-9.3-.4-11-.9-2.4-.7-2.45-.75-1.25-1.25.8-.3 2.7-.35 5.25-.05 2.2.2 6.85.4 10.3.4 6.25.05 6.3.05 6.85 1.3.8 1.75.75 3.25-.1 3.25-.4 0-.9-.6-1.15-1.3zm-13.4-5.2c-.55-.25-1.65-.45-2.5-.5-.8 0-2-.3-2.65-.7-.95-.5-1.05-.7-.45-1.2.5-.45 1.7-.4 4.9.15 2.3.4 5.3.9 6.6 1.1 1.35.2 2.45.65 2.5.9.15.65-7.05.85-8.4.25zm36.5-10.95c-8.25-2.75-7.6-2.35-6.3-3.75.8-.85 1.1-1.7.95-2.85-.2-2.1.95-2.45 2.2-.75.85 1.15.8 1.25-.35 2.5-1.35 1.45-1.55 2.05-.75 2.55.3.2.8-.4 1.1-1.25.5-1.5.65-1.6 2.5-1.35 1.45.2 1.9.1 1.8-.4-.1-.4.1-.7.35-.7.3-.05.5.35.5.85 0 .65.5.9 2.15 1 1.7.15 2.1.35 2.1 1.15 0 .75-.25.95-.9.7-.85-.25-.9-.05-.65 1.6.25 1.4.6 1.95 1.55 2.2.95.25 1.05.35.25.35-.55 0-3.45-.8-6.5-1.85zm1.15-2.7c.2-1.8-.55-1.7-1.25.2-.5 1.3-.5 1.5.25 1.35.5-.1.9-.75 1-1.55zm2.6.65c0-1.15-1.25-1.35-1.65-.3-.35.8.05 1.3 1 1.3.35 0 .65-.45.65-1zm-29.75 3c-1.25-.3-1.05-.4 1.25-.45 1.95 0 2.55.1 2 .45-.85.55-1.1.55-3.25 0zm-13.25-.95c-.95-.5-2.5-1.1-3.4-1.3-2.3-.5-1.7-1.5.8-1.45 2.05.05 6.1 2.15 6.1 3.2 0 .75-1.55.55-3.5-.45zm21-.25l1.25-1.4-1.25.35c-1 .3-1.15.25-.65-.3.45-.45.95-.5 1.7-.15 1.1.5 1.1.55-.6 1.7l-1.7 1.2 1.25-1.4z"/>
    <path d="M167.35 429l-2.45-.25 1.2-1.05c.6-.6 1.7-1.35 2.4-1.7.7-.35 2.4-1.5 3.85-2.6 1.45-1.1 3-1.9 3.5-1.8.7.15.35.8-1.95 3.2-1.6 1.65-2.75 3.15-2.6 3.35.6.6-1.65 1.1-3.95.85zM21.5 421.05c-1.1-.65-5.3-1.55-7-1.55-2.45 0-2.15-.9.4-1.25 3.4-.45 10.6 1.4 10.6 2.75 0 .6-2.95.6-4 .05zm.5-17c-.4-.25-2.3-.55-4.25-.75-5.85-.55-6.85-.8-6.2-1.6 1.25-1.55 12.7.1 12.7 1.8 0 .85-1.2 1.15-2.25.55zm121.05-95.35c1.4-1.75 6.9-3.75 10.65-3.95 1.95-.1 3-.1 2.3.05-1.85.35-8.9 2.7-11.45 3.8-1.95.85-2.1.85-1.5.1zm-67.45-3.8c-3.25-1.2-2.9-2.3.35-1.15 1.2.4 3.35.75 4.75.75s3.45.15 4.55.35c1.55.25 1.75.4 1 .7-2 .75-7.95.45-10.65-.65zm83.3-.95c.35-.35 2.05-.75 4-.8 4.25-.25 3.2.6-1.4 1.1-2.65.3-3.15.25-2.6-.3zm-75.5-32.7c-2.3-1.2-3.45-2.25-2.45-2.25.9 0 5.9 2.35 6.25 2.95.6.95-1.3.6-3.8-.7zm16.3-65.75c.05-.8.1-1.5.15-1.5.3 0 2.15 2.25 2.15 2.6 0 .2-.55.4-1.2.4-.95 0-1.15-.25-1.1-1.5zm5.1-3.1c-.15-.65-.3-1.6-.3-2.1 0-.55-.55-1.7-1.25-2.6-1.45-1.9-1.6-2.7-.35-2.7 1.9.05 2.8 1.4 3 4.55.25 3.1-.5 5.05-1.1 2.85zm-8.95-3.15c-1.85-1.7-2.2-2.25-1.5-2.25 1 0 5.15 3.25 5.15 4.05 0 1-1.35.3-3.65-1.8zm-70.4-12.35c.6-.8.55-.9-.25-.9-.7 0-.75-.15-.3-.6.45-.45.75-.45 1.2 0 .5.5.4.8-.35 1.5-.9.8-.9.8-.3 0zm87.3-32.15c-2.2-.95-4.65-1.95-5.45-2.25-1.35-.45-1.4-.6-.75-1.25.7-.7 1-.7 3 0 3.95 1.4 8.9 3.85 9.15 4.55.45 1.15-1.6.75-5.95-1.05zm-.25-10.8c-4.45-2.95-12.75-7.45-13.7-7.45-.4 0-1.2-.4-1.85-.95l-1.1-.9 1.3-.25c.7-.15 1.2-.05 1.05.15-.15.25.4.55 1.15.75 2.6.55 4.4 1.35 8.65 3.85 5.4 3.2 10 6.35 10 6.9 0 1-2 .25-5.5-2.1zm48.25-22.05c-.2-1.45-.45-3.3-.55-4.05-.1-.75-.4-1.8-.7-2.35-.8-1.45-.65-2.35.25-1.5 1.45 1.5 3.05 10.5 1.8 10.5-.25 0-.6-1.2-.8-2.6zm-15.95-20.5c-.9-1.25-1.05-2.4-.3-2.4.7 0 2.1 2.9 1.55 3.25-.25.15-.85-.25-1.25-.85zM127 85c-.55-.35-.55-.5-.1-.5.35 0 .5-.25.35-.55-.25-.35.65-.45 2.6-.35 2.15.1 2.9.35 2.9.9 0 .9-4.55 1.3-5.75.5zm5.65-10.5c-1.6-.65-1.45-1.5.25-1.5.9 0 1.9-.5 2.65-1.3 1.95-2.1 6.95-3.7 6.95-2.2 0 .3.35.5.75.5 1.4 0 .35 3.35-1.45 4.6-.75.55-7.8.45-9.15-.1zm8.7-3.2c.2-.15-.35-.3-1.2-.3s-1.8.3-2.1.7c-.5.6-.3.65 1.2.3 1-.25 1.95-.55 2.1-.7zm-44.1-2.8c-.3-.95 0-4.05.55-6.1.15-.5.7-.9 1.3-.9.9 0 .95.2.65 2.15-.85 5.3-1.8 7.15-2.5 4.85zm39.9-4.9c1.7-1.75 4.85-2.1 4.85-.55 0 1.1-.3 1.25-3.7 1.65l-2.5.3 1.35-1.4z"/>
  </g>
  <path d="M164 431.8c0-.4.5-.85 1.15-1.1.9-.3.65-.4-1.15-.55-3.45-.25-4.35-.55-6.1-2.05-.9-.75-2-1.55-2.45-1.85-.4-.25-2.2-1.45-3.95-2.6-1.75-1.2-3.45-2.15-3.85-2.15-.75 0-.85-.8-.15-1.25.3-.15.5-1 .5-1.8 0-.85.3-1.6.75-1.8 1.2-.4 1.5.2.8 1.55-.9 1.6-.1 3 2.45 4.3 1.05.55 2.7 1.75 3.6 2.7 1.75 1.8 4.8 3.3 6.7 3.3.65 0 1.2.25 1.2.5 0 .3 1.15.5 2.6.5 2.4 0 2.5.05 1.6.75-.7.5-.75.7-.2.75 1.2 0-.1.85-1.85 1.15-1.2.25-1.65.15-1.65-.35zm27.85-8c-.4-1.05 1.5-2.65 2.25-1.9.45.45.4.6-.25.6-.45 0-.85.3-.85.7 0 1.05-.85 1.45-1.15.6zM168 261.8c0-1.5.25-2.3.75-2.5.8-.3 1 1.4.45 3.6-.5 1.85-1.2 1.25-1.2-1.1zm-15.75-12.35c-.45-.7.25-6.5.75-6.2.2.1.5 1.1.65 2.15.4 3.3-.4 5.7-1.4 4.05zm-1-12.1c-.45-2.25.05-4 .75-2.85.6.95.6 3.05.05 3.95-.35.55-.55.25-.8-1.1zm17.05-2.7c-.5-6.35-.35-10.35.45-11.45.65-.85.7-.1.75 7.2 0 8.5-.6 10.8-1.2 4.25zm-19.05-10.1c-.35-1.1 0-2.05.8-2.05.55 0 .6 1.5 0 2.45-.35.55-.5.45-.8-.4zm-2-11.2c-.2-.5-.25-1.05-.05-1.2.5-.5.9.2.65 1.2-.2.85-.2.85-.6 0zm20.1-8.7c-.5-.5-.4-4.55.1-4.85.6-.4 1.05.95 1.05 3.25 0 1.85-.4 2.4-1.15 1.6zm-22-6c-.55-.55-.4-5.65.15-5.65.3 0 .5 1.2.45 3-.05 1.65-.15 3-.2 3-.05 0-.25-.15-.4-.35zm20.65-4.7c0-1.2 1.15-1.05 1.4.2.1.5-.15.85-.6.85-.5 0-.8-.45-.8-1.05zm-22.6-6.1c-.45-1.45-1.4-4.15-2.1-6.1-1.1-2.95-1.2-3.3-.35-2.25.55.65.85 1.4.75 1.6-.1.15.25 1.2.8 2.25 1.25 2.45 2.5 6.6 2.05 6.85-.2.15-.7-.95-1.15-2.35zm18.95-8.7c-.55-.5-.4-2.65.15-2.65.3 0 .5.7.5 1.5 0 1.55-.1 1.75-.65 1.15zM59 161.55c0-.3.25-.65.5-.8.3-.15.5-.8.5-1.4 0-.7.15-.9.5-.55s.4.95.05 1.85c-.5 1.3-1.55 1.9-1.55.9zm9.1-31c.05-.15-.05-.8-.3-1.4-.4-1.15.85-4.15 1.7-4.15.7 0 .6.9-.1 1.15-.5.15-.5.35.05 1 .45.6 1.5.85 3.5.9 1.55.05 2.35.2 1.8.3-.55.15-1.35.55-1.75.9-.85.65-5 1.8-4.9 1.3zm1.65-7.55c.2-.7.95-2.5 1.7-4 1-2.2 1.3-2.55 1.45-1.65.1.65-.3 1.8-.85 2.6-.6.8-1.05 1.8-1.05 2.2 0 .4-.35 1.05-.8 1.4-.75.6-.8.55-.45-.55zm28.6-6.35c-.45-.7 2-7.5 3.2-9.1.55-.65.95-1.1 1-1 .35 1.75.3 2.3-.3 2.95-.35.4-1 1.6-1.4 2.65-.45 1-1.05 1.85-1.35 1.85-.3 0-.45.2-.3.45.2.25.1.95-.1 1.6-.25.65-.55.9-.75.6zM76.4 109.7c-.35-.3.75-2.7 1.25-2.7.2 0 .35.3.35.65-.05.8-1.25 2.4-1.6 2.05zm68.4-32.25c-.2-1.15-.1-1.9.45-2.4.65-.7.75-.6.75.95 0 2.55-.8 3.5-1.2 1.45zm1.5-8.35c-.45-1.85.15-9.6.7-8.55.2.4.2 2.85.05 5.45-.25 3.85-.4 4.45-.75 3.1z" fill="#ffb091"/>
  <path d="M159.25 432.45c-.55-.9 0-1.05 4.6-1.3 4.65-.3 5.15.15 1.25 1.2-2.95.75-5.45.8-5.85.1zm28.4-.95c-.65-.25-1.15-.7-1.15-1 0-.75.75-.6 2.05.5 1.3 1.05.9 1.2-.9.5zM35.6 415.15c1.1-1.3 3.35-2.15 5.75-2.1 2.15 0 2.25.05 1.15.55-2.25.95-3.2 1.25-5.4 1.75-1.8.45-2 .4-1.5-.2zm-2.35-2.65c-.2-.3.35-1.35 1.15-2.4.8-1 1.6-2.35 1.8-2.95.35-1.15 1.8-1.6 1.8-.6 0 .3-.6 1.7-1.35 3.05-1.4 2.55-2.85 3.8-3.4 2.9zm-.6-13.7c.8-1.45 2.45-3.3 2.9-3.3.6 0 .05 2.05-.8 3-.45.5-1.25 1-1.75 1.15-.85.2-.85.1-.35-.85zm9.2-.75c-2.35-.8-3.1-1.65-1.75-1.95 1-.2 6.05 1.65 6.3 2.3.25.8-1.6.65-4.55-.35zm17.3-45.45c.5-.5.85-1.55.85-2.3 0-1.05.35-1.45 1.45-1.85 1.35-.45 2.55-2.2 2.55-3.65 0-.4.45-.8 1.05-.95.55-.15.95-.05.85.2-.4 1.1-6.6 9.45-7.05 9.45-.25 0-.15-.4.3-.9zM37.4 329.4c-.2-.5-.15-1 .1-1.15.3-.2.5-.75.5-1.3 0-.5.25-.95.5-.95.3 0 .5.45.5 1s-.2 1-.45 1-.55.5-.65 1.15c-.15.95-.2.95-.5.25zm135.6-9.7c0-1.7-.2-2.65-.5-2.45-.25.15-.5 0-.5-.45 0-.4.3-.85.65-.95.5-.2.5-.3 0-.3-.9-.05-.8-1.4.1-1.75.65-.2.75.45.75 4.2 0 2.5-.1 4.5-.25 4.5s-.25-1.25-.25-2.8zM61.4 297.8c1.05-1.7 1.5-2.1 2-1.65.55.45.5.6-.35.95-.6.2-1.05.6-1.05.9 0 .6-1.2 2-1.7 2-.15 0 .35-1 1.1-2.2zm-34.7-30.05c-2.5-2.1-6.9-7.2-6.55-7.55.15-.2 1.1-.4 2.05-.55 1.95-.25 2-.15 1.8 3.15-.05 1.05.35 1.9 1.3 2.85.75.75 1.5 1.35 1.7 1.35.2 0 .75.55 1.2 1.25 1.05 1.6.95 1.55-1.5-.5zm63.2-65.1c-.8-.1-1.4-.45-1.4-.7 0-.25.6-.45 1.4-.4 1.45.05 4.25.8 3.25.9-.3.05-.85.15-1.25.2-.35.1-1.25.1-2 0zM7.55 199.4c1.3-1.8 1.75-2 2.4-1.25.8 1-.7 2.85-2.2 2.75l-1.15-.1.95-1.4zM12 196c0-.35-.35-.5-.75-.3-1.2.45-.85-.4.75-1.95.85-.8 1.5-1.25 1.5-1s.5-.05 1.15-.6c.85-.8 1.25-.9 1.65-.45.4.4-.1 1.15-1.9 2.75-1.3 1.15-2.4 1.85-2.4 1.55zm88.8-2.95c-1.05-.7-1.2-1-.65-1.2.4-.15 1.15.15 1.65.7 1.2 1.35.7 1.6-1 .5zm-67.95-1.7c-.3-.85 4.7-3.45 5.6-2.9.4.3.1.6-.9 1.05-.85.35-1.55.95-1.55 1.35 0 .5-.3.65-.8.45-.45-.2-1.1-.1-1.45.2-.45.4-.7.35-.9-.15zm6.75-3.95c.3-.9 1.4-1.05 1.4-.2 0 .45-.35.8-.8.8-.45 0-.7-.25-.6-.6zm2.9-1.6c0-.4 4.1-2.85 4.35-2.6.35.35-1.1 1.8-1.8 1.8-.3 0-.55.25-.55.5 0 .3-.45.5-1 .5s-1-.1-1-.2zm69-1.25c0-.35-.25-.55-.6-.45-.3.1-1.45-1.5-2.5-3.65s-2.15-4.05-2.4-4.2c-.3-.2-.4-.55-.25-.8.65-.95 1.55-.35 2.9 1.85 1 1.6 1.15 2.25.65 2.05-.95-.4-.95-.25-.2 1.4.3.7.85 1.25 1.25 1.25.7 0 1.9 2.45 1.4 2.9-.15.15-.25 0-.25-.35zm21.55-20.65c-2.95-6.3-4.7-10.25-6.4-14.65-.95-2.45-1.95-4.95-2.15-5.5-.25-.55-.9-2.55-1.5-4.4-.85-2.75-.9-3.6-.45-4.2.5-.6 1.15.75 3.45 7.45 2.9 8.3 4.95 13.2 8.15 19.85 1.7 3.5 1.9 4.55.85 4.55-.25 0-1.1-1.4-1.95-3.1zM89 80.7c0-.7.2-1.15.5-.95.3.15.5.75.5 1.3 0 .5-.2.95-.5.95-.25 0-.5-.6-.5-1.3zm56.65-36.35c.2-1.4.1-2-.45-2.2-.35-.15-.7-.55-.7-.95 0-.4-.2-.7-.4-.7s-.35-.6-.3-1.35c.05-1.05.3-1.4 1-1.3.5.05 1.1-.2 1.3-.5.65-1.05 1.1.15 1.3 3.3.15 2.65.05 3.3-.9 4.35l-1.15 1.25.3-1.9zm-39.4-15.85c.15-.25.65-.5 1.05-.5s.6.25.45.5c-.15.3-.65.5-1.05.5s-.6-.2-.45-.5zm18.65-3.05c-.4-.3.05-.45 1.25-.45 1 0 1.85.1 1.85.2 0 .45-2.5.6-3.1.25z" fill="#333"/>
</svg>
