<svg version="1.0" xmlns="http://www.w3.org/2000/svg" preserveAspectRatio="xMidYMid meet" viewBox="0 0 1252 1199">
  <g fill="#fff">
    <path d="M598 1192.3c-41.1-2.2-76-7.3-114.5-16.8-121.5-29.9-232.2-99.2-312.2-195.4C93.1 886.2 47.2 775.8 35.4 653.6c-2.2-22.6-3-74.1-1.5-94.6 3.9-52.8 13.6-101.2 30.5-150.5 42.2-123.7 125.5-231.3 235.2-303.7 84-55.5 178.7-88.2 279.2-96.3 21.5-1.8 68.7-2 90-.4 172.7 12.5 331.1 100.1 434.7 240.4 65.6 88.7 104.1 192.1 113.7 305 1.9 23.1 1.6 83.2-.5 103-11.2 102.2-42.3 189.3-97 271.5-48.7 73.2-117.4 138.3-192.2 182.2-17.8 10.4-19.2 11.2-38.1 20.6-72.6 36.3-148.4 56.3-231.4 61.2-15.1.9-46.4 1.1-60 .3zm70.6-28.8c102.6-8.3 198-42.4 280.4-100.1 35.6-24.9 74.1-59.3 102.1-91.4 52.5-60 93.4-133.2 115.7-207 22-72.8 28.9-142.5 21.6-219-15.3-163.2-101.5-312.2-235.7-407.3C890.1 94.2 822.1 63.9 748 47.5 645 24.7 534.6 31.8 434.7 67.6 321.4 108.3 220.9 187.3 154.5 288c-45.7 69.3-73.9 141.6-87 222.3-5.6 34.8-7.3 62.2-6.4 102.2 2.1 85.5 21.2 163.1 58.9 239 28.1 56.6 63.8 105.5 110.1 151 48.9 48 97.3 81.7 157.9 110.1 63.9 29.9 125.5 45.4 205.5 51.7 12.7 1.1 58.5.5 75.1-.8z"/>
    <path d="M582 1026.8c0-.7 3.4-11.4 7.5-23.7 5.1-15.5 7.2-22.8 6.5-23.6-.6-.7-10-7.7-21-15.6l-20-14.4 25.9-.3 25.9-.2 5.8-17.3c6.7-20.2 10-28.1 11.4-27.2 1 .6 6.4 17 11.5 34.6l2.8 9.6 12.6.6c6.9.4 18.3.7 25.4.7 7 0 12.7.4 12.7.8s-2.8 2.8-6.2 5.2c-3.5 2.4-12.1 8.7-19.2 13.9-15.2 11.4-14.6 7.6-6.1 36 3.2 10.5 5.5 19.4 5.1 19.8-.3.3-7.9-4.3-16.8-10.4-18.4-12.4-22.3-14.7-24.7-14-.9.2-8.8 5.6-17.6 11.9-21.3 15.2-21.5 15.3-21.5 13.6zm-177.4-64c.9-2.9 4.2-13.4 7.5-23.2 3.2-9.9 5.9-18.5 5.9-19.2 0-1-13.5-11-34.2-25.3-2.1-1.4-3.8-2.9-3.8-3.2 0-.3 9.1-.9 20.3-1.3 11.1-.4 22-.9 24.3-1.2l4.1-.6 5.7-18c3.2-9.8 6.6-20 7.7-22.6 1.9-4.4 2.1-4.6 3.4-2.8.8 1 4.6 11.4 8.4 22.9 3.9 11.6 7.6 21.4 8.3 21.9.7.4 11.6.8 24.1.7 12.6 0 23 .1 23.2.3.2.2-5.3 4.4-12.3 9.3-18.7 13.4-25.7 18.6-26 19.4-.1.5 2.2 8.4 5.2 17.7 8.8 27.4 8.8 27.4 6.6 27.4-1.8 0-9.7-5.1-27.9-18-4.6-3.3-9.2-6-10.1-6-2.3 0-11.2 5.5-25.3 15.8-6.7 4.9-13.2 9.4-14.4 10.1l-2.2 1.1 1.5-5.2zm356.6 4.1c.8-2 12.8-39.8 14-43.8.5-1.8.6-3.7.1-4.1-.4-.4-7.7-5.6-16-11.5-8.4-5.9-17-12.3-19-14.2l-3.8-3.4 24.6.4 24.6.3 5.3-16c2.9-8.9 6.6-19.2 8.3-23 2.7-5.9 3.2-6.6 4.3-5.1.7.9 4.2 10.8 7.9 21.9l6.7 20.3 6.6.7c3.7.3 12.8.6 20.2.7 7.4 0 15.6.4 18.3.7l4.8.7-19.6 14c-13.3 9.5-19.4 14.4-19.1 15.5.2.8 2.8 9.2 5.7 18.5 6.1 19.9 7.9 26.5 7.3 26.5-1.6 0-9.8-5.2-21.9-13.9-7.7-5.6-15-10.4-16.2-10.7-3-.8-9.6 3-25 14.2-14.5 10.6-18.9 13.3-18.1 11.3zM274 856.3c0-.5 3.2-10.7 7-22.8 3.9-12.1 7-22.6 7-23.4 0-1.6 1.3-.6-21.3-16.8l-17.8-12.8 9.8-.6c5.4-.4 16.6-.7 25-.8l15.1-.1 7.1-21.7c7.2-22.3 8.4-25.3 9.7-24 .4.4 4.2 11 8.4 23.5l7.7 22.7 24.5.5 24.5.5-19.4 14c-11.6 8.4-19.3 14.7-19.3 15.7 0 .9 2.7 9.9 5.9 20 3.2 10 6.2 19.8 6.6 21.6l.7 3.3-4.4-2.2c-4.3-2.1-22.3-14.3-30.7-20.6-2.5-1.9-5-3.2-5.7-2.9-.7.3-5.4 3.5-10.6 7.2-22.5 16.4-29.8 21.2-29.8 19.7zm614-1.7c0-1.1 10-33.3 13.5-43.3.5-1.5-9.6-9.8-25.9-21.4l-11.8-8.4 4.8-.7c2.7-.4 13.5-1.1 23.9-1.5l19-.8 8-23.7c4.4-13 8.2-23.9 8.5-24.2.3-.3 4.1 10.2 8.4 23.2 4.3 13 8.3 24.3 8.9 25 .7.9 5.7 1.2 18.1 1.3 9.4.1 19.9.4 23.4.8l6.3.6-12.9 9.2C965.1 801.4 956 809.5 956 812c0 1.1 2.7 10.4 6 20.7 3.3 10.3 6 19.8 6 21.1 0 2-.2 2.2-2.2 1.1-1.3-.6-9-6-17.3-11.9-18.5-13.2-18.7-13.3-22-12-3.1 1.2-15.4 9.3-25.5 17-10.5 7.9-13 9.2-13 6.6zM298 669.2c-11.9-9-30.2-21.2-32-21.2-2 0-11.5 6-21.5 13.5-9 6.8-17.4 11.9-18.2 11.1-.8-.8 2-10.9 7.8-28.5 2.6-7.9 4.5-15 4.2-15.7-.6-1.8-12.4-11.2-27.1-22-6.8-4.9-11.7-9-11-9.2.7-.1 12.3-.6 25.7-1l24.4-.7 1.3-4c8.3-26.7 11.5-36.3 12.8-38 1.4-1.9 1.6-1.7 4 3.6 1.3 3.1 4.8 12.8 7.6 21.7l5.1 16 15.7.7c8.6.3 20.1.9 25.5 1.3l9.7.7-19.9 14.8c-19.4 14.3-20 14.8-19.1 17.5.5 1.5 3.6 11.7 7 22.7s6.3 20.6 6.5 21.3c.8 2.1-.8 1.3-8.5-4.6zm647 5.5c0-.1 3.3-10.8 7.4-23.7 4.1-12.8 7.3-23.7 7-24.1-.2-.4-9.2-7.1-20-15l-19.5-14.4 9.8-.7c5.4-.4 16.8-1 25.4-1.4l15.7-.6 6.6-20.3c3.7-11.2 7.4-20.9 8.2-21.5 1.9-1.6 3.1 1.3 10.4 24.5l5.7 18 24.4.7c13.4.4 24.9.9 25.6 1 .7.2-4.2 4.3-11 9.2-15.8 11.6-25.6 19.5-26.7 21.6-.7 1.3-.1 4.4 2.1 10.6 4.5 13 10 32.6 9.4 33.3-1 .9-8.2-3.4-19.5-11.5-16.1-11.5-18.7-12.9-22.1-11.7-1.5.6-10.6 6.7-20.2 13.7-15.6 11.2-18.7 13.3-18.7 12.3zm-57-184c0-.8 2.5-9.5 5.5-19.3 3.1-9.9 5.9-20.2 6.2-22.9l.5-5.1-19.1-13.9c-10.5-7.6-19.1-14.1-19.1-14.4 0-.3 11.4-.6 25.2-.6h25.3l6.1-19.5c3.4-10.7 6.8-21.1 7.7-23l1.5-3.5 3 6.5c1.6 3.6 5.3 13.8 8.1 22.7 3.7 11.5 5.6 16.3 6.9 16.7.9.3 12.4.5 25.5.3 13-.1 23.7.1 23.7.4 0 .4-7 5.5-15.5 11.4-8.6 6-17.1 12.6-19 14.7-5.1 5.6-5 6.2 3.9 35.3 2 6.5 3.6 12.7 3.4 13.8-.2 1.4-4.2-1-20-12.3l-19.6-14-18.4 13.1c-21 15.1-21.8 15.5-21.8 13.6zm-612.6-3c.4-1.9 3.3-11.8 6.6-22.1s6-19.2 6-19.9c0-.7-8.6-7.6-19.1-15.2-16.7-12.2-18.8-14-16.7-14.6 1.3-.3 10.2-.9 19.8-1.3 9.6-.3 19.8-.9 22.6-1.2l5.1-.6 3.8-12.6c4.4-14.7 9.2-28.3 10.5-29.6 1.3-1.3 3.8 4.7 10.7 25.1l5.7 17.1 4.1.6c2.2.3 12.3.8 22.4 1.2 10.2.4 19.6 1 20.9 1.3 2.1.6.1 2.4-17.1 14.9l-19.4 14.3 1.2 3.7c3.4 9.6 11.5 37.5 11.5 39.2 0 1.1-.4 2-.8 2-1.1 0-15.1-9.4-26.6-17.9-5-3.7-9.7-7.1-10.4-7.5-1.5-.9-3.2.1-16.2 9.8-13 9.6-23.2 16.6-24.3 16.6-.5 0-.6-1.5-.3-3.3zm487.1-128.9c.4-1.8 3.6-12.2 7.2-23.1 3.5-10.8 6.2-20.1 5.9-20.6-.3-.4-9.2-7.1-19.7-14.7l-19.1-13.9 9.3-.7c5.2-.4 16.5-1 25.1-1.4l15.7-.6 5.2-16.2c5.1-16.3 9.6-27.6 10.9-27.6.4 0 4 9.9 8.1 21.9l7.3 21.9 15.6.7c8.5.3 19.7.9 24.8 1.3l9.3.7-10.8 7.9c-16 11.8-27.3 21.5-27.3 23.4 0 .9 2.5 9.5 5.5 19.1 6.7 21.3 7.4 24.7 5.1 23.8-2-.8-12.9-8.2-27.1-18.5-6.1-4.4-11.4-7.7-12-7.2-2.6 2-33.3 23.7-35.7 25.3-3.7 2.3-4.1 2.2-3.3-1.5zm-357.5-.3c0-1.4 3-11.6 6.6-22.7l6.6-20.2-2.4-2.1c-1.4-1.1-9.2-6.8-17.4-12.8-8.2-5.9-16-11.6-17.3-12.6-2.4-1.8-2.3-1.8 8.5-2.4 6-.4 17.3-1 25-1.3l14.2-.6 4.1-13.2c6.9-21.6 11.1-32.1 12.4-30.5.2.2 3.7 10.1 7.7 22.1l7.3 21.6 15.6.7c8.6.3 19.8.9 25 1.3l9.3.7-19.1 13.9c-10.6 7.7-19.4 14.3-19.6 14.6-.2.4 1.4 6.4 3.5 13.4 5.8 18.7 9.2 31.7 8.6 32.4-.7.6-14.5-8.5-29.6-19.6l-9.5-7-4.5 3.1c-2.5 1.7-10.9 7.7-18.7 13.4-7.8 5.7-14.6 10.3-15.2 10.3-.6 0-1.1-1.1-1.1-2.5zm178-51.8c0-.7 2.5-9.2 5.5-18.8 3.1-9.6 5.8-19.3 6.2-21.6.5-4 .4-4.3-5-9.4-3-2.8-11.6-9.5-19-14.9l-13.5-9.7 12-.7c6.7-.3 17.8-.6 24.8-.6h12.7l6.2-18.7c7-21.2 9.7-27.7 11-26.9.9.6 7.5 20 12.6 36.9l2.6 8.7 15.2.1c8.4.1 19.6.4 25 .8l9.8.6-19 13.4c-21.7 15.3-20.7 13.6-16.7 26.7 1.2 4.4 4 13.6 6.1 20.6 2.1 7.1 3.5 13.1 3.2 13.4-.8.8-5-1.9-24.4-15.8l-15.2-10.9-14.3 10.4c-13.1 9.4-21.3 15.2-24.5 17.1-.8.4-1.3.2-1.3-.7z"/>
  </g>
</svg>
