<svg version="1.0" xmlns="http://www.w3.org/2000/svg" preserveAspectRatio="xMidYMid meet" viewBox="0 0 1000 600">
  <g fill="#fff">
    <path d="M258.5 592.25c-3.9-.6-8.15-1.8-9.8-2.65-.55-.3-2.65-1.35-4.75-2.4-2.15-1-4.5-2.45-5.25-3.2-.8-.7-2.05-1.7-2.8-2.2-1.6-1.05-1.8-2.35-.55-3.35.45-.4 1.85-2.25 3.1-4.15 1.25-1.9 2.7-4.05 3.15-4.75.5-.7 1.35-2.15 1.9-3.15.55-1.05 1.25-1.9 1.5-1.9.3 0 .5-.3.5-.65 0-.4.45-1.1 1.05-1.65.95-.85 1.05-.85 1.5-.1.65 1.15 5 4 8.7 5.75 2.65 1.2 3.6 1.4 7.75 1.4 4.3 0 4.95-.15 6.75-1.3 2.55-1.7 2.9-2.1 4.1-5.45 1.15-3.05.95-6.25-.45-9.5-.7-1.65-4.5-5.5-5.4-5.5-.2 0-.65-.35-1.05-.8-.35-.4-2-1.4-3.65-2.2-5.5-2.65-12-6.4-13.5-7.7-.8-.7-1.55-1.3-1.75-1.35-.15 0-1.55-1.45-3.05-3.15-5.05-5.7-7.1-11.5-7.3-20.55-.2-9.85 1.2-15.45 5.55-22 1.95-2.95 6.95-8.25 7.8-8.25.25 0 .85-.4 1.35-.9.95-.95 5.45-2.9 10.35-4.4 4.35-1.35 15.55-1.25 20.5.15 4.15 1.2 10.75 4.1 10.75 4.7 0 .25.3.45.65.45.35 0 1.85 1.1 3.35 2.4 2.45 2.2 2.6 2.45 1.8 3.2-.45.45-.8.95-.8 1.1 0 .5-2.95 4.6-3.95 5.5-.6.55-1.05 1.2-1.05 1.55 0 .6-2.5 4.2-4.35 6.25-.65.7-1.15 1.5-1.15 1.85 0 .3-.2.7-.45.85-.7.45-2.05-.2-2.05-1 0-.4-.3-.7-.7-.7-.35 0-.95-.35-1.3-.75-1.6-1.9-7.4-3.9-11.15-3.85-4 .1-7.45 1.9-9.35 4.95-1.35 2.05-1.5 2.8-1.5 6.15 0 3.35.2 4.1 1.45 6.1 1.3 2.05 6.7 6.4 7.95 6.4.25 0 .85.45 1.35 1 .5.55 1.2 1 1.55 1 1.3 0 12.2 6.4 12.55 7.35.15.35.45.65.65.65.4 0 3.6 3.15 6.05 6 2.35 2.65 4.8 9.05 5.45 14.05 1 7.55-.25 16.65-3.05 22.2-2.85 5.7-5.1 8.45-9.6 12-3.95 3.1-11.8 6.7-13.45 6.15-.35-.15-1.65.05-2.85.45-2.6.75-7.85.75-13.05-.1zm89.2.15c-.8-.25-2.4-.5-3.6-.6-1.2-.1-2.4-.4-2.75-.75-.3-.3-.95-.55-1.45-.55-1.2 0-6.05-2.65-9.5-5.2-9.05-6.7-15.6-18.8-18.45-34.05-1-5.15-1.15-7.65-1.1-17.5 0-13.05.25-15.05 3.6-28.15.3-1.15.8-2.5 1.05-3 .25-.45.95-1.95 1.55-3.35 1.65-3.85 6-10.25 8.75-12.85 3.5-3.3 5.5-4.9 6.15-4.9.3 0 .55-.15.55-.4 0-.35 2.7-1.8 6-3.25 6.25-2.7 17.4-3.45 24.5-1.65 9.3 2.35 16.45 7.3 22.05 15.3 3.15 4.4 6.95 11.95 6.95 13.65 0 .5.2 1.25.5 1.75.7 1.3 1.85 5.85 2.8 11.35.65 3.75.9 7.6.85 15.5-.05 10.05-.5 15.05-2.15 21.65-.25 1.15-.7 2.95-.95 4-1.3 5.3-5.15 13.25-8.55 17.7-2.5 3.3-7.6 8.4-8.4 8.4-.25 0-.85.45-1.35 1-.5.55-1.1 1-1.3 1-.25 0-1.55.7-2.95 1.5-1.4.85-2.95 1.5-3.4 1.5-.5 0-1.1.2-1.35.45-.3.2-2.55.8-5 1.25-4.6.85-10.35.95-13.05.2zm10.6-25.45c4.1-1.9 6.95-6 9.3-13.2 2.1-6.4 2.65-10.7 2.6-20.75 0-7.75-.2-10.1-1.15-14.5-3.1-14.15-10.75-21.35-19.5-18.25-2.35.8-2.95 1.25-5.65 4-2.6 2.6-4 5.65-5.95 12.85-1.05 3.8-1.15 5.2-1.15 16.4 0 11.1.1 12.65 1.15 16.75 2.65 10.35 7.55 16.7 13.8 17.9 1.65.3 4.35-.2 6.55-1.2zm267.95 24.1c-4.85-1.45-8.15-3.5-12.25-7.65-3.7-3.7-8-9.95-8-11.6 0-.4-.2-.85-.45-1.05-1-.6-3.9-10.8-4.6-16.25-1.6-12.1-1.8-30.7-.45-38.25.35-1.65.65-3.65.75-4.5.5-4.3 3.55-14.25 4.8-15.45.25-.3.45-.8.45-1.2 0-1.1 4.15-7.15 7.05-10.25 5.9-6.3 12.55-9 22.45-9 6.7 0 12.15 1.25 16.25 3.75 4.75 2.85 11.15 10.3 13.45 15.65.5 1.1 1.15 2.55 1.5 3.25 1.5 2.95 4.95 17.4 4.65 19.5-.05.4.2 3.5.6 6.8 1.25 11.2-.5 30.5-3.65 40.2-2.1 6.35-4.95 12.5-5.85 12.5-.25 0-.45.3-.45.65 0 .3-.9 1.55-2 2.75s-2 2.35-2 2.6c0 .3-.15.5-.4.5-.2 0-.95.55-1.65 1.15-2.05 1.95-5.05 3.75-8.45 5.15-2.9 1.2-4.05 1.35-11 1.5-6.45.15-8.25.05-10.75-.75zm14.05-22.6c1.85-1.75 4.6-7.7 5.45-11.85 2.4-11.55 2.4-34.25 0-45.25-1.1-5-4.05-10.8-6.2-12.2-3.05-2.05-6.9-1.15-9.35 2.2-1.45 2-3.5 8.15-4.5 13.7-.7 3.75-.85 7.65-.85 19.2 0 13.75.05 14.8 1.3 20.7 1.55 7.3 3.8 12.2 6.4 13.95 2.25 1.55 5.85 1.35 7.75-.45zm70.45 22.75c-5.15-1.6-8.85-3.85-12.6-7.65-2-2.05-3.65-3.95-3.65-4.3 0-.35-.35-.95-.8-1.3-.45-.35-1-1.1-1.25-1.7-.25-.55-1-1.95-1.7-3.15-1.4-2.5-3.6-8.95-4.6-13.6-1.65-7.6-2.25-14.35-2.25-25.5 0-25.65 4.35-39.95 15.3-50.5 3.45-3.35 5.6-4.7 9.55-6 9.15-3 21.3-1.9 28.4 2.6 2.95 1.9 9.95 9.3 11.15 11.8.45 1 1 1.95 1.15 2.1.75.65 4.15 10.35 5 14.25 2 9.65 2.45 14.6 2.45 25.75.05 13.6-.9 20.75-4.15 31.5-1.1 3.75-1.9 5.55-5.1 11.65-1.15 2.15-8.6 9.75-10.9 11.1-4.7 2.75-7.5 3.4-15.75 3.55-6.05.15-8.3 0-10.25-.6zm13.5-22.4c3.05-2 6.4-12.6 7-22.3.7-11.1.75-13.3.2-21.75-.9-14.65-3.8-23.8-8.2-25.9-2.35-1.1-3.85-1.05-6.25.15-4.05 2.1-6.7 9.9-7.95 23.5-.5 5.75-.2 25.3.45 27.5.25.95.5 2.8.5 4.1 0 1.3.2 2.45.45 2.6.25.2.6 1.25.8 2.4.5 2.95 3.1 7.65 5.15 9.5 1.55 1.35 2.05 1.5 4.15 1.3 1.3-.15 3-.65 3.7-1.1zM198 534.5c0-30.5-.05-55.65-.1-55.85-.1-.25 5.65-.45 12.75-.45l12.85-.1V590H198v-55.5zm273.95 54.4v-41c0-42.25.05-41.35-2.25-38.85-.5.6-1.6 1.4-2.4 1.8-1.5.8-8.95 6.65-9.2 7.3-.1.2-.45.35-.75.35s-.95.35-1.45.85c-.5.45-1 .7-1.05.6-.4-.5-3.15-5.4-4.35-7.7-.7-1.35-1.9-3.5-2.7-4.7-.8-1.25-1.75-2.9-2.1-3.75-.4-.85-1-1.95-1.35-2.5-.5-.75-.45-1 .3-1.5.5-.3 3.45-2.4 6.5-4.65 3.1-2.3 8.1-5.95 11.1-8.15 3.05-2.2 5.9-4.3 6.4-4.75.45-.4.95-.75 1.1-.75.15 0 1.25-.75 2.45-1.7l2.2-1.65h22.1V590H472l-.05-1.1zM556 578.75V567.5h-41v-11.2c0-9.3.1-11.3.75-11.8.4-.35.75-.9.75-1.25 0-.65 3.05-7.3 3.85-8.4.25-.35 1-1.95 1.65-3.6.65-1.65 1.95-4.3 2.85-5.9.9-1.65 1.65-3.1 1.65-3.3 0-.3 1.2-2.8 2.4-5.05.45-.75 3.85-7.8 6.3-13 .7-1.5 1.5-3.1 1.75-3.5.45-.75 1.1-2.25 2.05-4.5.25-.7.7-1.6.95-2 .55-1 4.6-9.45 6.2-13.05l1.25-2.8 15.45.05 15.4.05.05 33.25c.05 18.3.1 33.65.15 34.1.05.75.8.9 5.7 1l5.6.15.05 10.4.05 10.35h-11.6V590H556v-11.25zm.45-54.35v-22.15l-1.4 3c-.8 1.65-2.25 5.05-3.3 7.5-1 2.5-2.15 5.05-2.5 5.75-.35.7-1.25 2.7-2 4.5-1.25 2.9-2.95 6.85-4.25 9.75-.25.55-.9 2.15-1.5 3.5-.55 1.4-1.35 3.05-1.75 3.75-.35.7-1.15 2.45-1.7 3.9l-1.05 2.6h19.5l-.05-22.1zM794 549c0-22.55-.15-41-.3-41s-2.55 1.7-5.3 3.75-5.15 3.75-5.4 3.75-.5.15-.6.4c-.05.2-1.25 1.25-2.55 2.35-2.75 2.2-2.2 2.45-4.9-2.25-.7-1.25-1.8-3.15-2.45-4.25-.65-1.1-1.65-2.9-2.2-4-.6-1.1-1.2-2.1-1.35-2.25-.8-.7-2.55-4.5-2.35-5.1.15-.4 1.25-1.35 2.45-2.15 1.2-.85 4.9-3.5 8.25-6 3.3-2.45 6.55-4.85 7.2-5.25 1.6-1.05 10.1-7.35 11-8.1.55-.5 3.7-.65 12.1-.75l11.4-.05V590h-25v-41zM274.75 434.1l-20.5-.1-.9-2.4c-3.7-9.65-6.6-17.95-8.05-23.25-1.2-4.2-3.8-14.25-4.3-16.6-2.7-12.7-3.05-14.6-5.6-34-.45-3.45-.65-11.5-.65-25.75 0-20.8.05-21.85 2.1-36.25.45-3 .95-6.75 1.2-8.25.65-4.5 2.7-14.15 4.55-21.5.55-2.05 1.2-4.75 1.45-5.95.25-1.2.65-2.45.9-2.75.25-.3.6-1.5.8-2.7.2-1.2.65-2.8 1.05-3.5.4-.75.7-1.75.7-2.2 0-.5.3-1.6.7-2.5.35-.9.95-2.45 1.3-3.4.3-.95 1.05-2.85 1.55-4.25.55-1.35 1.35-3.5 1.8-4.75.4-1.25 1.4-3.65 2.2-5.4.8-1.75 1.6-3.7 1.75-4.35.15-.65.6-1.45 1-1.8.4-.3.7-.9.7-1.3 0-1 8.45-17.4 11.6-22.65.6-.95 1.65-2.75 2.3-4 1.25-2.3 11.85-18.1 13.8-20.6.55-.75 1.85-2.4 2.8-3.7.95-1.3 2.1-2.7 2.5-3.15.4-.45 1.55-1.85 2.5-3.05 3.15-4.05 7.1-8.75 8.3-9.8.65-.6 1.2-1.2 1.2-1.4 0-1.3 27.15-26.8 30.9-29.05.5-.25 1-.75 1.2-1.05.2-.3 1.3-1.2 2.5-2s2.25-1.6 2.4-1.75c.15-.2 2.5-1.9 5.25-3.85 2.75-1.95 5.25-3.75 5.5-3.95.8-.65 4.8-3.3 5.75-3.9.5-.25 2.2-1.3 3.75-2.25 5.35-3.25 6-3.65 12.25-7.15 6.75-3.75 15.55-8.05 22.75-11.1 2.5-1.05 5.2-2.2 6-2.55 7.65-3.4 28.55-10.05 37.25-11.9 1.8-.4 5.5-1.2 8.25-1.8 5.15-1.1 6.95-1.45 15.5-2.7 19.7-2.85 39.15-3.55 59.25-2 9 .65 20.5 1.95 22.25 2.55.55.15 2.35.45 4 .7 1.65.2 5.15.85 7.75 1.45 2.6.6 5.75 1.25 7 1.45 3 .55 15.45 4 20.25 5.6.85.3 2.2.7 3 .9.85.2 1.95.65 2.5.95.55.3 2.45 1 4.25 1.6 1.8.6 3.7 1.3 4.25 1.55.55.25 2.25.9 3.75 1.5 1.5.55 3.55 1.35 4.5 1.8.95.4 2.2.95 2.75 1.15 1.2.5 8.75 4 13.25 6.15 1.8.85 5.8 2.95 8.9 4.7 3.1 1.75 5.85 3.15 6.1 3.15.3 0 .5.2.5.45s1 .95 2.25 1.55c1.25.6 2.55 1.35 2.9 1.7.65.55 1.05.85 4.85 3.1 1.25.75 4.25 2.8 6.65 4.55 2.4 1.75 4.5 3.15 4.65 3.15.3 0 1.55 1 2.6 2.1.45.5 1.05.9 1.35.9.25 0 1.2.65 2 1.4.85.75 2.9 2.4 4.6 3.7 1.7 1.25 2.95 2.4 2.8 2.6-.2.15-.05.3.35.3.35 0 1.55.8 2.7 1.8 15.1 13.35 25.9 24.6 36.35 37.75 6.8 8.6 13.45 17.85 13.45 18.8 0 .3.3.8.65 1 .4.2 1.3 1.4 2.05 2.65.75 1.25 2.25 3.7 3.3 5.45 1.1 1.7 2 3.35 2 3.55 0 .25.3.75.65 1.1 2.4 2.4 15.3 29.2 18.55 38.5.4 1.2 1.35 3.75 2.05 5.65 1.4 3.75 2.35 6.55 3.45 10.5.4 1.4 1.05 3.65 1.5 5 1.85 6.35 5.55 22.2 6.35 27.25 4.55 29.55 5.15 51.5 2.1 77.25-1.65 14.25-2.9 21.6-5.25 31-.55 2.2-1.2 4.9-1.45 6-.5 2-1.35 4.95-3.5 12.25-.6 2.05-1.3 4.2-1.6 4.75-.3.55-.6 1.35-.65 1.75-.05.4-.6 2-1.15 3.5-.6 1.5-1.65 4.4-2.35 6.45-.7 2.05-1.65 4.15-2.1 4.75l-.85 1.05h-123.6l7.1-7c7.55-7.5 14.25-15.2 18.3-21.2 3.2-4.7 4.65-6.75 4.95-7.05 1.6-1.6 13.45-23.9 13.5-25.35 0-.3.3-1.2.7-2 .65-1.3 2.45-5.65 3.3-7.9 1-2.75 4.05-12.8 4.45-14.75.3-1.25.85-3.8 1.3-5.75.4-1.9 1.1-5.5 1.5-8 .4-2.45.85-4.8 1-5.15.1-.35.35-2.5.5-4.75.15-2.25.4-4.7.55-5.45.5-2.5.3-24.05-.25-29.65-.95-9-3.95-25.15-5.55-29.75-.25-.7-1.25-3.95-2.3-7.25-1.75-5.8-3.75-11.1-5.85-15.75-1.9-4.25-7.9-16.25-8.85-17.75-.55-.8-1.15-1.85-1.35-2.25-1.5-3.15-11.95-17.5-12.75-17.5-.25 0-.4-.25-.4-.55 0-.65-12.3-13-16-16.05-5.4-4.4-11.35-8.8-12.4-9.1-.6-.2-1.1-.6-1.1-.85s-.5-.65-1.1-.9c-.65-.25-1.95-1-2.9-1.65-.95-.65-2.8-1.7-4.15-2.4-1.3-.7-2.35-1.4-2.35-1.6 0-.25-.35-.4-.75-.4s-1.85-.7-3.25-1.5c-1.4-.85-2.65-1.5-2.8-1.5-.15 0-1.9-.75-3.85-1.7-4.85-2.25-11.55-4.85-17.6-6.8-2.75-.9-5.45-1.85-6-2.05-1.35-.6-12.9-3.45-15.95-4-1.35-.2-2.5-.5-2.6-.55-.1-.1.2-1.35.6-2.8.85-2.8.75-6.95-.25-11.3-.65-2.9-4.1-10.1-5.55-11.7-.55-.55-1-1.25-1-1.5 0-.6-8.2-8.95-10.7-10.85-2.15-1.65-3.7-2.9-4.8-3.85-.4-.35-1.2-.9-1.85-1.25-.6-.3-1.4-.8-1.75-1.15-1.95-1.65-10.8-7.05-14.65-8.85-1.35-.65-2.6-1.4-2.75-1.65-.15-.25-1.15-.75-2.25-1.15-1.1-.4-5.5-2.35-9.75-4.35-4.25-1.95-8.55-3.85-9.5-4.25-.95-.35-4.35-1.65-7.5-2.85-10.4-4.05-24.45-8.65-24.9-8.15-.3.25.9 22.85 1.25 23.35.1.2.4 2.3.65 4.6.3 2.35 1 6.55 1.55 9.4.6 2.85 1.15 5.7 1.3 6.4.1.7.4 1.7.65 2.25.75 1.8 1.1 2.95 1.5 4.75.5 2.1 1.65 5.3 3.15 8.75s6.3 12.7 6.85 13.25c.15.15 1.45 1.85 2.85 3.75 5.25 7.15 13.35 14 20.05 16.95 1.15.55 2.1 1.1 2.1 1.35 0 .2.7.55 1.6.7.9.2 1.95.55 2.4.75 2.95 1.45 12.1 3.35 18.25 3.8 4.3.35 12.25-.55 12.25-1.35 0-.25-.35-.45-.75-.45s-.75-.2-.75-.45-.95-.95-2.05-1.5c-5.5-2.9-15.9-10.25-22.95-16.3-10.2-8.75-19.3-20.95-20.75-27.75l-.35-1.75.9 1.25c3.8 5.35 13.4 15.35 18.4 19.25 1.1.85 2.55 2 3.35 2.65.75.6 1.5 1.1 1.7 1.1.2 0 1.2.7 2.25 1.5 1.05.85 2.05 1.5 2.25 1.5.2 0 1.35.7 2.6 1.5 1.2.85 2.5 1.5 2.85 1.5.3 0 .8.2 1.1.45.25.2 2.5 1.25 5.05 2.25 5.75 2.3 12.75 3.8 17.6 3.85 3.95.05 7.9.9 15.55 3.45 4.35 1.5 6.45 2.3 10.85 4.3.85.4 1.7.7 1.9.7.35 0 10 4.7 11.25 5.45.4.25 2.8 1.65 5.25 3.1 2.5 1.45 4.7 2.95 4.9 3.3.2.35.6.65.9.65.65 0 6.7 4.25 10 7 5.7 4.8 7.25 6.2 9.2 8.05 1.1 1.1 2.15 1.95 2.35 1.95.25 0 .4.2.4.4s1.45 1.95 3.25 3.8c5.9 6.15 6.9 7.55 6.5 9.3-.4 1.8-2.35 3-4.9 3-1.55 0-1.85-.25-2.7-1.95l-1-2 1.4.75c1.5.75 2.9.9 4.15.4 1.45-.55.15-1.8-6.05-5.95-1.05-.7-2.25-1.5-2.65-1.85-.45-.4-2.25-.65-5-.65-3.45 0-4.7.2-6.75 1.2-2.65 1.25-5.65 2.25-10.25 3.3-3.95.9-6.35 2-8.9 4.15-1.25 1-2.5 2-2.8 2.2-.3.2-.25.6.15 1.1.75.9 3.15 1.05 4.65.25 1.3-.7 1.7-.2.95 1.2-.35.65-.65 1.95-.7 2.9-.1 2.2 1.25 2.5 3.65.7 4.35-3.15 7.85-3.6 8.7-1.1.45 1.25.3 1.6-2.1 4-2 1.95-2.75 2.45-3.05 1.95-.25-.45-2.45-.9-6.35-1.25-9.35-.85-11.15-.7-14.95 1.3-5.1 2.7-7.35 3.45-11 3.6-2.15.1-2.5.3-2.65 1.2-.15 1-.4 1.05-2.4.75-2.4-.35-2.85.25-1.45 2.1 1.1 1.45.9 3.6-.6 5.7-1.7 2.3-2.95 2.6-8.2 1.9-4.85-.7-6.35-.1-7.45 3-.45 1.2-1.55 2.85-2.4 3.65-2.6 2.4-1.85 6.55 1.5 8.25 3.6 1.85 9.2-.25 14.35-5.5 1.95-2 3.9-3.5 5-3.85 1-.3 2.5-.85 3.3-1.2.85-.35 2.85-.9 4.5-1.25 1.65-.3 3.6-.9 4.35-1.3.7-.4 1.55-.7 1.9-.7.95 0 6.3 5.65 7.45 7.9.6 1.15 1.05 2.95 1.05 4.1 0 2.15.25 2.35 1.65 1.3.65-.5.8-1.05.55-2.05-.35-1.35-.3-1.4 1.25-1.1.85.2 1.55.1 1.55-.15s-1-1.65-2.25-3.1c-1.2-1.45-2.8-3.6-3.5-4.7-2.1-3.4-.4-5 2.55-2.45.8.7 1.6 1.25 1.85 1.25.2 0 .35.4.35.9s.2 1.1.4 1.4c.25.25.7 1.45 1.05 2.7.35 1.25.85 2.75 1.1 3.4.25.65.45 1.65.45 2.3 0 .6.3 1.55.7 2.1.6.8.6 1.05.05 1.7-.9 1-.4 3.4.85 3.8 1.55.5 2.25-.6 2.55-4.15.15-2.25.5-3.55 1.05-3.95.45-.3.8-1.05.8-1.65 0-.85.3-1.05 1.65-1.05 2.9.05 3.55 1 3.2 4.75-.25 2.8-.15 3.7.8 5.75.9 1.9 1.3 2.35 1.85 1.95.8-.45 9-.05 9.6.5.15.15-.75 2.6-2.1 5.45-2.15 4.5-2.6 5.1-3.7 5.1-1.25 0-1.3.15-1.3 2.65 0 2.15.25 3 1.25 4.15.7.8 1.25 1.6 1.25 1.85 0 .8 1.1.3 1.35-.65.45-1.65 1.05-1.15 1.3 1.15.35 2.6 1.05 5.8 2.1 9.35.45 1.5 1.1 5 1.45 7.75.35 2.75 1.35 7.25 2.2 10 1.9 5.95 4.1 13.55 4.45 15.15.15.65.6 1.3.95 1.45.35.15 3-1.55 5.8-3.7 2.85-2.15 6.2-4.4 7.45-5.05 2-.95 4.05-2.95 7.55-7.4.5-.6 1.25-2.5 1.7-4.2.7-2.7.7-3.2.05-3.9-1.5-1.75-3.35-5.7-3.35-7.25-.05-1.5-.05-1.55-.75-.65-.4.55-.75 1.35-.75 1.85 0 1.3-1.05 1.85-3.1 1.6-1.85-.25-1.9-.3-1.9-2.45 0-2.35-.3-2.7-1.25-1.4-.5.75-.7.55-1.45-1.35-1-2.55-2.1-11.35-1.5-11.95.25-.2.95-.55 1.5-.7.95-.3 1.1-.1 1.4 2.05.9 6.4 4.5 10.45 7.55 8.45 1.05-.7 1.15-.7 1.45.35.15.6.3 1.6.3 2.2 0 1.55 2.2 2.1 4.15.95 1.4-.8 1.5-.8 2.45.45.6.8 1.7 1.35 3 1.55 1.8.3 2.1.6 2.95 2.55.5 1.25.95 2.45.95 2.7 0 .3.55 1.35 1.25 2.35s1.25 2.55 1.25 3.45c0 1.75.8 2.55 1.65 1.7 1.1-1.1 1.35-.5 1.35 3.4 0 2.15.25 5.15.5 6.6.3 1.5.55 4.5.6 6.7.05 7.3-3.9 22.9-9.4 36.75-2.1 5.4-7.8 17-9.75 19.9-.8 1.2-1.45 2.25-1.45 2.35 0 .75-10.55 15.3-12.5 17.25-.15.15-1.7 1.9-3.45 3.9-4.05 4.65-7.5 8.1-12.15 12.15-2 1.75-3.75 3.3-3.9 3.45-.15.15-1.25 1.05-2.5 2s-2.5 1.95-2.85 2.25c-1.45 1.25-7 5.1-10.15 6.95l-3.4 2.05-8.6-.15c-6.4-.1-8.5-.3-8.35-.75.1-.35 1.1-.9 2.3-1.3 2.65-.85 6.05-4.9 7.3-8.65 1.05-3.2 1.4-3.7 3.75-4.9 1.65-.85 1.95-1.3 2.9-4.6.55-2 1.15-4.5 1.35-5.5.25-1.5.95-2.4 3.9-4.95 5.8-4.95 7.9-8 10-14.7.75-2.3.75-2.55-.05-3.4-.45-.55-1.05-2.6-1.4-5-.55-3.7-.5-4.35.35-6.7.55-1.4 1.35-2.85 1.8-3.2 1.05-.9 6.65-8.3 6.65-8.8 0-.25 1.95-2.45 4.3-4.9 5.35-5.55 6.6-7.55 7.75-11.95.6-2.4 1.35-3.9 2.4-5 .85-.9 1.55-1.95 1.55-2.4 0-.45.2-.95.45-1.1.55-.35 1.8-6.25 1.4-6.65-.2-.15-.6-.05-1 .25-1.4 1.15-4.5 1.2-7.4.15-5.9-2.25-9.05-7.3-11.2-17.9-1.2-5.9-2.9-11.7-3.8-12.9-.2-.25-.6-4.45-.95-9.25-.35-5.4-.8-9.15-1.25-9.75-.35-.6-.6-2.25-.55-3.85l.05-2.8-2.2-.3c-1.2-.15-3.15-.3-4.3-.3-1.3 0-3.1-.55-5-1.5-2.55-1.3-3.15-1.45-4.7-1-1 .25-2.65 1.05-3.65 1.75s-2 1.25-2.2 1.25c-.15 0-1.15-.65-2.15-1.45-1-.75-2.95-2.05-4.35-2.85-1.45-.8-3.65-2.45-4.9-3.6l-2.35-2.15 1.1-1.5c.6-.85 1-1.55.9-1.65-.1-.05-1-.45-1.95-.85-1.4-.55-4.25-.65-13.7-.55-10.8.15-12 .05-12.9-.75-.75-.7-1.15-.75-1.8-.3-.45.35-1.85 1.1-3.1 1.7-3.95 1.95-11.2 8.45-15.75 14.2-1.1 1.4-2.15 2.6-2.3 2.75-.8.65-5.45 7.05-5.45 7.5 0 .25-.15.5-.35.5-.25 0-.95.85-1.65 1.85-.7 1.05-1.6 2.2-2 2.65-.95.95-3.3 6.8-5.75 14.25-1 3.05-2.75 7.3-3.85 9.5l-2 4 .55 3.3c.4 2.55 1.55 5.3 4.9 11.75 4.5 8.75 4.85 9.3 7.5 10.45.85.4 1.85 1 2.25 1.35 2.9 2.85 8.85 2.6 20.9-.85 3.6-1 5.8-.6 6.8 1.3.6 1.2 1.05 1.45 2.55 1.45 2.65 0 4.95 1.65 5.9 4.25.8 2 .8 2.35.05 4.65-.45 1.35-1.15 2.9-1.55 3.4-.4.5-.75 1.35-.75 1.9 0 .9 2.65 6.35 4.85 9.9.95 1.55 1.2 2.9 1.5 7.5.5 8.8.3 11.85-.85 15.4-2.1 6.4-2.1 12.9 0 18.9.7 1.95 1 4.1 1 7.1 0 3.1.2 4.6.8 5.4 1.05 1.5 3.75 9.8 3.3 10.1-.2.15-23.05.15-50.85 0-27.75-.15-50.2-.3-49.85-.4.3-.05.6-.75.6-1.55 0-1.65.45-3.05.95-3.05.2 0 .35.5.35 1.15-.1 1.85 1.35 1.25 2.45-1 .55-1.15 1.85-2.95 2.9-3.95 1.5-1.4 1.85-2.05 1.6-2.85-.15-.6-.35-1.35-.4-1.65-.1-.55 2.35-2.5 7.1-5.7 1.25-.85 2.85-1.5 3.6-1.5 1.35 0 3.45-2.1 3.45-3.45 0-.3.75-1.4 1.65-2.4 2.05-2.35 4.85-6.5 4.85-7.25 0-.35-.25-1.3-.6-2.2-.5-1.45-.45-1.85.7-3.55.7-1.05 1.75-2.85 2.35-4.05.6-1.15 1.4-2.1 1.8-2.1.45 0 1-.6 1.3-1.35.3-.8 1.25-2 2.15-2.75 1.55-1.25 1.7-1.7 2.05-5.1.15-2.05.2-4.2 0-4.75-.15-.55-1.45-1.85-2.9-2.85-1.45-1.05-3.5-2.7-4.65-3.75-1.9-1.7-2.25-1.85-6.6-2.15-4.4-.35-4.55-.4-5.5-1.95-.75-1.3-1.7-1.85-5.05-3.05-3.55-1.25-4.25-1.35-5.55-.8-.85.35-1.5.8-1.5 1.05 0 .55-1.55.55-2.35.05-.85-.55-.1-3.15 1.65-5.65l1.3-1.9-1.6-3.85c-2.25-5.4-4.65-7.2-9.7-7.2-2.6 0-5.15-1.75-5.6-3.75-.4-2.05-2.45-5.1-3.7-5.5-.7-.25-1-.7-.9-1.65.1-1.65-.5-3.6-1.15-3.6-.25 0-.45-.2-.45-.5 0-.9-1.7-2.45-2.2-2.05-.3.2-2.2.8-4.25 1.35l-3.65.9-.95-1.1c-.6-.8-1.65-1.25-3.35-1.45-2.25-.25-2.55-.15-3.15.9-.35.65-.8 2-.95 2.95l-.35 1.75-.9-2c-.65-1.5-.7-2.2-.3-2.85 1.55-2.5-.45-2.55-3.55-.1-2.35 1.8-3.25 3.45-2.35 4.5.55.65-.25 1.5-1.8 1.8-.95.15-1 .5-.8 6.3l.15 6.1-1.65 1.65c-.95.85-2.1 2.35-2.55 3.25-1.15 2.15-1.2 6.95-.15 8.5.75 1 .7 1.2-.3 2.6-1.5 2-1.45 4.2.2 5.9.7.75 1.9 2.7 2.6 4.35.7 1.65 2.05 4.6 3 6.5.9 1.95 2 4.5 2.45 5.7.7 1.8 2.7 4.9 4.8 7.4.65.75.65 5.75 0 9.1-.25 1.45-.5 4.55-.55 6.95-.05 3.9.1 4.7 1.5 7.6.85 1.8 1.55 3.6 1.55 4 0 1.25 1.7 2.4 8.9 6.1 5.3 2.7 8.6 5.85 8.6 8.2v1.7h-2.6c-2.45 0-3.05-.3-7.65-3.4-15-10.05-27.95-22.3-37.85-35.65-3.1-4.25-7.9-11.4-7.9-11.8 0-.2-.35-.7-.75-1.15-1.1-1.2-6.35-11.6-8.95-17.65-6.05-14.15-9.8-28.95-11.3-44.3-1.1-11.5-.15-36.6 1.45-38.2.95-.95 1.55.3 1.95 3.85.3 2.15.75 3.65 1.3 4.2.85.8.9.75.6-.9-.2-.95-.55-3-.8-4.5s-.7-4.1-1-5.75c-.3-1.6-.5-3.75-.4-4.75.15-1.6.2-1.5.85 1.25.35 1.65.95 3.6 1.35 4.3.35.7.8 2.3.95 3.5.3 2.05 1.3 5.1 2.3 7.05.25.5.65 2.75.9 5.1.3 2.35.85 4.9 1.25 5.7 1.05 2 3.25 4.6 3.95 4.6.3 0 1.6 1.05 2.9 2.3 2.25 2.25 2.35 2.3 3.55 1.5 1.15-.75 1.25-.75 2.3.7.6.8 1.1 1.7 1.1 1.95 0 .3.6.85 1.4 1.25.75.4 2.25 1.65 3.35 2.75 1.6 1.7 2.25 2 3.25 1.8 1.2-.25 1.25-.2 1.1 1.6-.15 1.55.2 2.45 1.95 5.1 1.2 1.75 2.45 3.25 2.8 3.4.35.15.65.55.65.95 0 .4.35.7.75.7s.75.2.75.5c0 .7 2.9 2.1 3.2 1.55.5-.8 2.95-1.15 3.35-.45.5.75.7.55 1.15-1.2.4-1.7-.85-2.2-3.55-1.45-1.6.45-2 .4-2.75-.4-.45-.55-1.4-1.35-2-1.75-1.1-.8-1.15-1.1-1.15-7.2 0-7.9-.25-8.35-4.5-7.85l-2.8.35.3-3.65c.3-3.95.95-8.65 1.55-11.35l.35-1.65-2.2 1.1c-1.7.8-2.5 1.65-3.45 3.6-1.1 2.2-1.55 2.6-3.35 3.15-1.5.4-2.15.45-2.15.05 0-.3-.4-.95-.85-1.5-.8-.85-.9-2.1-.8-11.8.05-10.2.15-10.95 1.15-12.7 1.45-2.45 2.3-2.85 6.1-2.85 2.65 0 3.45-.2 4.4-1.1 1.05-1 1.7-1.15 4.7-1 1.95.05 3.65.35 3.85.65.15.3.35 2 .35 3.8.1 4.1 1.05 8.65 1.85 8.65 1.45 0 1.6-1.25 1-6.5l-.6-5.25 1.6-3.25c.85-1.8 2.5-5.05 3.6-7.25 1.15-2.2 2.3-5.35 2.6-6.95.6-3.15 1.05-4.2 1.05-2.35 0 1.75 1.15.95 1.6-1.1.3-1.35 1.25-2.65 3.6-4.85 1.75-1.7 3.35-3.65 3.55-4.4.35-1.5 1.7-2.55 4.25-3.45 2.15-.75 3.05-.15 2.1 1.4-.4.6-.6 1.1-.5 1.2.2.2 4.4-3.45 4.4-3.85 0-.15-.9-.65-2-1.15-1.65-.75-2-1.15-2-2.35 0-1.2-.2-1.4-1.3-1.4-.75 0-2.45.7-3.8 1.5-1.3.85-2.55 1.5-2.7 1.5-.2 0 .5-.9 1.45-2 1-1.05 2.4-2.85 3.1-3.95 1.35-2.2 1.75-2.35 6.95-2.75 2.65-.2 3.9-.6 5.4-1.6 2-1.4 2.3-2.1 1.3-3.1-.85-.85-1.9-.75-3 .25-1 .9-1.95.5-1-.45 1.1-1.1.6-2.15-1.4-3.3-1.1-.6-2.95-2.3-4.05-3.75-1.15-1.45-2.2-2.65-2.4-2.7-.15-.1-.85.65-1.5 1.6-1.35 2.05-1.5 2.05-3.15.75-.9-.65-1.2-1.3-1.05-2.1.4-2.15-3.35-4.15-6.55-3.55-1.1.25-1.3.5-1.3 2.15 0 1.05-.35 2.7-.75 3.7-.45 1.05-.55 1.8-.25 1.8.75 0 .6 3.05-.25 4.5-.4.7-.7 2.55-.75 4.15 0 3.25-.5 3.55-3.25 1.85-1.4-.9-1.65-1.3-1.55-2.7l.15-1.7h-3.55c-6.9 0-6.35.3-6-3 .2-1.55.75-3.55 1.25-4.4 1.15-1.95 1.25-3.7.15-3.7-.45 0-.7-.35-.6-.85.1-.6.7-.85 2.4-.85 1.95-.05 2.35-.25 3.25-1.65.55-.9 1.6-1.75 2.35-1.9.8-.2 1.55-.6 1.75-1 .25-.35 1.2-1.1 2.15-1.65 1.6-.85 2-.9 4.25-.35 1.4.35 2.15.65 1.7.7-1.2.1-2.25 1.45-1.6 2.1.4.4 1 .3 2.1-.3 1.7-.85 2.55-.65 2.55.65 0 .7.5.85 2.45.9 2 .05 2.4-.1 2.15-.7-.2-.6.05-.7 1.05-.5 1.65.3 1.75-.2.25-1.25-1.05-.65-.25-.7 8.35-.5l9.5.25 1.75 1.65c1.35 1.25 2.3 1.7 4.25 1.9 1.4.1 2.85.35 3.25.55.6.25.7-.15.6-2.3l-.2-2.65 2.1-.15c2.85-.2 11.85-2 13-2.6.5-.25 1.3-.5 1.75-.5 1.85 0 9.3-4.15 11.9-6.65 3.25-3.15 4.5-5.2 5.35-8.95.7-3.15.45-9-.5-10.1-.3-.4-2.2-1.25-4.15-1.9-3.2-1.05-4.5-1.15-12.1-1.1-5.5.05-9.05.25-10 .65-.8.35-2.75.95-4.25 1.35-3.3.85-6.55 2.15-11.1 4.5-1.9 1-3.4 1.55-3.4 1.3 0-.75 3.8-3.9 7-5.85 7-4.25 16.25-7 30.75-9.1l3-.45-2.75-1.45c-3.5-1.85-5.7-2.75-10.6-4.25-3.75-1.15-10.3-1.15-15.35-.05-4.45 1-11.05 3.6-12.45 4.9-.3.3-1.05.75-1.6.9-.55.15-1 .5-1 .75s-.5.6-1.05.75c-1.6.55-10.4 9.5-13.85 14.15-1.7 2.25-3.1 4.25-3.1 4.45 0 .2-.35.7-.75 1.15-.75.85-3.8 6.25-5 8.9-.8 1.7-1.5 1.95-3.45 1-1.75-.75-3.3.6-3.3 2.95 0 1.85.3 2 1.8.95 1.35-.95 2.4-.3 1.95 1.2-.25.8-.65 1-1.35.85-.6-.2-1.05.05-1.25.55-.2.45-.55 1-.85 1.2-.85.6-2.3.45-2.15-.15.05-.3-.2-.7-.5-.8-.35-.15-.65 0-.65.35 0 .3-.2.4-.5.25-.25-.15-.5-.75-.5-1.3 0-.5-.2-.95-.5-.95-.25 0-.5-.2-.5-.5 0-.25.35-.5.75-.5 1.65 0 .5-1.95-3.5-6l-4.2-4.25-2.7 2.75c-3.95 4.05-10.35 11.35-12.7 14.5-5.05 6.7-10.2 14.2-11.75 17.15-.75 1.4-1.55 2.65-1.75 2.8-.75.55-7.9 14.75-9.95 19.75-.7 1.7-1.45 3.5-1.75 4.05-.55 1.15-4.85 13.7-5.45 16-2.35 8.55-4.25 18.2-5.55 27.9-.3 2.45-.55 10.1-.5 17.25 0 11.25.15 13.85 1.3 21.1 1.85 11.65 2.05 12.75 3.25 17.25.6 2.2 1.25 4.8 1.45 5.75.55 2.25 4.45 13.55 5.85 16.75 10.05 23.15 21.15 40.1 35.9 54.8 3.2 3.2 5.8 5.9 5.8 6 0 .2-89.3.25-120.75.05zm326.65-17.05c.45-.25 1.25-.6 1.7-.75.5-.15 1-.9 1.15-1.65.2-.75.55-1.85.85-2.4 1.35-2.4 1.9-3.6 2.15-4.9.15-.75.65-1.75 1.15-2.25 1.1-1.1 2.4-4.65 2.85-7.7.2-1.7.75-2.8 1.8-3.9 1.4-1.35 1.5-1.7 1.15-3.75-.15-1.25-.45-2.25-.65-2.25-.15 0-.85 1.05-1.55 2.35-.9 1.7-2.15 2.95-4.5 4.5-3.2 2.15-3.25 2.2-3.85 5.3-.35 1.7-.6 3.8-.65 4.6 0 1-.55 2-1.55 3-2.8 2.7-3.6 5.4-3 9.9.05.5 1.9.45 2.95-.1zm-180.75-110.7c1.65-1.15 1.35-1.7-1.5-2.7-2.85-.95-3.65-.85-3.65.6 0 .95-.25 1.25-1.15 1.25-.6 0-1.4.45-1.7.95-.6.95-.45 1 2 1.15 3.25.25 4.2.05 6-1.25zm-10.25-5.3c.85-.85 1.6-1.7 1.6-2 0-.7-3.9-3.95-6-5.05-2.15-1.05-5.2-1.65-6.5-1.25-.55.2-1.25.8-1.55 1.35-.5.95-.45 1 1.35.8 2.2-.25 4.85.85 6.65 2.8.9.95 1.1 1.6.9 2.75-.3 1.4.05 1.9 1.4 2 .3.05 1.25-.6 2.15-1.4zM484 263.9c1.5-.75 3.1-1.45 3.5-1.6.4-.15 1.1-.5 1.5-.8.4-.25 3.1-1.75 6-3.3 2.9-1.55 6.15-3.35 7.25-4 1.1-.65 2.55-1.45 3.25-1.8.7-.3 2.3-1.35 3.55-2.25 1.3-.9 2.55-1.65 2.8-1.65.3 0 .9-.45 1.4-1 .5-.55 1.1-1 1.35-1 .3 0 1-.4 1.65-.85.6-.5 1.65-1.25 2.25-1.65 8.75-5.75 21.35-17.4 25.65-23.65 1.3-1.85 2.35-3.5 2.35-3.65 0-.15.4-.85.85-1.55 2-3.05 3.65-8.95 3.65-13.2 0-5.05-2.45-11.8-5.4-14.9-.35-.4-1-1.2-1.45-1.85-1.3-2-6-1.5-12.55 1.35-1.15.55-2.45.95-2.85.95-.4 0-.75.2-.75.45s-.8.75-1.75 1.1c-.95.35-1.75.85-1.75 1.05 0 .2-.25.4-.5.4-.6 0-3.65 2.05-3.9 2.65-.1.2-.5.35-.9.35-1.1 0-11.85 10.9-15.15 15.45-1.7 2.3-4 5.7-5.05 7.6-2.15 3.65-3.4 5-2.8 2.9.2-.65.6-2.15.85-3.35.55-2.75 3.75-9.1 6.75-13.45s9.1-11.65 10-12c.4-.15.7-.55.7-.9s.2-.75.45-.85c.25-.05 2-1.6 3.9-3.4 1.85-1.8 5.05-4.6 7.05-6.2 1.95-1.65 3.6-3.2 3.6-3.45 0-1.15-14.25 1.1-18.35 2.95-.85.4-1.8.7-2.1.7-.25 0-1.65.7-3.05 1.5-1.4.85-2.7 1.5-2.95 1.5-.75 0-7.55 5.4-9.8 7.8-5.45 5.8-10 14.05-12.7 22.95-2.55 8.55-3.6 15.85-3.8 27-.05 4.4.05 9.9.25 12.25.2 2.35.55 6.15.75 8.5.45 5.75.45 5.7 2.1 4.85.8-.35 2.65-1.25 4.15-1.95zm79.15-37.95c.7-.85.85-1.8.7-4.7-.2-3.5-.15-3.6 1.15-4.15 1.05-.5 1.35-.95 1.3-2.1-.05-1.65-.75-1.85-3.15-.95-1.75.65-2 1.1-2.4 4.2-.35 2.55-1.4 4.25-2.55 4.25-.35 0-1.1.7-1.7 1.5-.6.85-1.35 1.5-1.7 1.5-.75 0-1.95 1.2-1.6 1.55.15.1 2.2.15 4.65.1 3.85-.05 4.5-.2 5.3-1.2zm-9.75-2.25c.6-.4 1.1-.9 1.1-1.15 0-.25.8-.95 1.75-1.55 2-1.25 2.15-1.75.75-2.5s-6.5 1.6-6.5 2.95c0 .5-.6 1.15-1.3 1.5-1.1.5-1.2.7-.65 1.35.7.85 2.95.55 4.85-.6zm-146-13.85c.1-.2-.1-.75-.4-1.25-.45-.75-.65-.7-2 .8-.8.9-1.5 1.85-1.5 2.1 0 .5 3.75-1.05 3.9-1.65zm154.4-5.65c2.3-.8 4.2-2 4.2-2.65 0-.15-.9-.6-2-.95-1.5-.45-2.3-.45-3.05-.05-.55.3-1.35.4-1.8.25-.85-.35-2.6.5-3.5 1.65-.85 1.1-.8 1.3.5 1.95 1.55.75 2.85.7 5.65-.2z"/>
    <path d="M443 433c-.3-.55-.45-1-.35-1 .05 0 1 .45 2.1 1l1.95 1h-1.6c-1.05 0-1.75-.3-2.1-1zm389.25-40.25c-1.9-.4-4.3-.8-5.25-.95-.95-.15-3.2-.5-5-.8-10.45-1.75-16.75-2.75-23-3.6-2.35-.3-4.5-.75-4.8-1-.45-.3-.4-1.05.1-2.75.4-1.25.7-3.15.7-4.2 0-1.05.2-2 .4-2.15.2-.1 2.4.1 4.85.45 2.5.4 6.95 1.1 10 1.5 3 .45 5.65.95 5.85 1.05.2.15 1.9.45 3.8.7 5.05.65 12.6 1.9 14.95 2.5 1.15.25 2.8.5 3.6.5 1.4 0 1.55.15 1.5 1.65 0 .85-.3 2.95-.65 4.6-.6 2.8-.7 3-2.1 3.1-.8.05-3-.25-4.95-.6zm-657.75-.6c-2.7-.7-7-3.65-7-4.75 0-.3-.3-.95-.7-1.35-1.05-1.25-1.95-6.75-1.6-9.55.35-2.45 2-6 2.85-6 .2 0 1.9.7 3.7 1.55 3.2 1.55 3.95 2.55 2.75 3.75-.3.3-.55 1.55-.6 2.85-.15 2.95 1.4 4.85 3.9 4.85 2.4 0 4.05-1.7 5.5-5.75 2.85-8 6.75-11.1 14.05-11.2 1.7-.05 3.2.15 3.35.4.15.2.9.55 1.7.7.75.15 2.55 1.45 3.95 2.85 2.05 2.05 2.7 3.1 3.1 5.05.95 4.35.7 8.9-.65 11.75-1.5 3.2-1.95 3.5-3.7 2.3-.75-.5-1.9-1.1-2.6-1.3-.7-.15-1.7-.65-2.25-1.05-.95-.75-.95-.8-.05-2.3 1.2-2.05 1.25-6.65.05-7.95-1.1-1.2-4.05-1.35-5.65-.2-1.2.8-3.1 4.15-3.1 5.4 0 1.1-1.65 4.45-2.35 4.95-.35.2-.65.65-.65 1-.05 1.2-4.05 3.45-7.4 4.15-1.85.4-3.45.7-3.6.65-.15 0-1.5-.4-3-.8zm630.55-20.55l-8.65-.8.3-2.2c.15-1.25.3-3 .3-4 0-1.65.05-1.7 1.5-1.4 1.85.35 1.85 0 0-2.2-1.2-1.35-1.5-2.2-1.5-4 0-2.45 1.6-6.5 2.6-6.5.3 0 1-.4 1.55-.85.75-.7 1.85-.9 5.1-.85 3.8 0 4.3.15 6.1 1.45 1.05.8 2.15 1.8 2.5 2.25 1.15 1.45 2.15 5.45 2.15 8.45 0 2.95.05 3.05 1.25 3.05 3.2 0 4.75-4.2 2.75-7.25-.55-.8-1-1.65-1-1.85 0-.35 5.25-3.4 5.85-3.4.8 0 2.65 3.35 3.4 6.25.9 3.5.45 6.6-1.55 10.1-2.5 4.4-7.25 5.2-22.65 3.75zm5.95-10.2c-.05-3.2-1.3-4.55-4.3-4.6-2.15-.05-2.5.1-3.05 1.3-1.4 2.8 1.2 5.35 5.5 5.4H811v-2.1zm-635.75.05c-.15-2.5-.25-4.65-.1-4.75.2-.25 7.75-2.45 10.85-3.2 6.2-1.5 8.3-2.1 8.65-2.45.25-.25-1.2-.6-3.25-.8-2-.2-4.65-.55-5.9-.8-1.2-.3-3.7-.6-5.5-.75-5.45-.45-5.7-.7-6-5.8l-.25-4.35 2 .25c1.1.15 3.9.7 6.25 1.2s5.95 1.3 8 1.75c23.7 5 26.2 5.85 29.15 10.05 1.25 1.8 1.45 2.5 1.5 6.1.05 2.2-.05 4.15-.25 4.35-.15.2-2.05.2-4.1 0l-3.8-.35-.3-2.4c-.25-2.05-.5-2.45-2-3.2-.95-.45-2.1-.8-2.55-.8-.85 0-9.8 2.85-11.25 3.55-.5.25-2.65 1.05-4.75 1.75-2.15.7-4.35 1.55-4.9 1.85-.55.25-1.65.7-2.5.9-.8.2-2.75.85-4.25 1.4-4.35 1.65-4.3 1.7-4.75-3.5zm647.6-15.75c-.2-.2-.35-1.4-.35-2.7v-2.35l-6.25-.3c-7.85-.35-9.45-.1-10.2 1.5-.3.7-.45 1.7-.3 2.2.3.85 0 .95-3.4.95-4.4 0-4.35.05-4.35-5.15 0-4.2 1-6.3 3.6-7.7 1.4-.75 3.05-.85 11.15-.9h9.5l.25-1.75c.2-1.5.45-1.75 1.7-1.9.85-.1 2.45-.05 3.65.15 2.05.3 2.15.4 2.15 2.05v1.7h7.75l-.15 4.5-.15 4.5H830v5.3l-3.4.1c-1.85.1-3.55 0-3.75-.2zM200.7 335.3c-.15-.45-.6-.8-1-.8s-.7-.2-.7-.45c0-.3-.65-.9-1.45-1.35l-1.5-.9 1.4-1.75c2.7-3.45 2.3-7.05-.8-7.05-1.35 0-1.85.3-2.65 1.65-.55.85-1 1.95-1 2.4 0 .45-.35 1.1-.75 1.45-.4.35-.75 1-.75 1.45-.05.45-1.05 1.55-2.25 2.45-2 1.45-2.55 1.6-5.6 1.6-2.95 0-3.65-.2-5.7-1.6-3.4-2.3-4.2-4.15-4.15-9.45 0-3.4.2-4.65.85-5.35.45-.5.85-1.25.85-1.7 0-.4.4-1.1.9-1.55.95-.9 2.1-1.15 2.1-.45 0 .2 1 1.05 2.25 1.85 1.2.85 2.25 1.65 2.25 1.85 0 .2-.45 1.1-1 2-1.05 1.7-1.3 4.15-.6 5.3.25.35 1.05.7 1.85.75 1.2.1 1.55-.2 2.4-1.9 3.55-7.35 3.85-7.75 7.55-8.95 2.05-.7 2.9-.75 5.25-.25 2.3.45 3.2.95 5.1 2.95 2 2.05 2.35 2.7 2.65 5.2.2 1.55.2 4 .05 5.5-.55 4.45-4.6 9.6-5.55 7.1zM798.4 322c-.05-1.1-.1-3.2-.1-4.6l-.05-2.65 3.25-.35c1.8-.2 6.45-.55 10.35-.8 3.9-.3 7.7-.8 8.5-1.2 1.8-.85 2.1-2.6.6-4.2-1.05-1.1-1.5-1.2-5.9-1.15-2.65 0-7.6.3-11.05.65-7.3.7-6.9.95-6.95-4.75l-.05-3.8 1.65-.35c.85-.2 5-.55 9.2-.8 4.15-.3 10.3-.75 13.7-1 3.35-.3 6.25-.4 6.35-.25.15.15.4 2 .6 4.1.4 4.45 0 5.4-2.1 4.95-1.95-.4-2.15.4-.2 1.1.9.35 2.15 1.35 2.85 2.2 1 1.35 1.2 2.25 1.2 4.95 0 2.85-.2 3.5-1.25 4.65-2.7 2.9-5.3 3.6-16 4.3-4.25.25-9.25.6-11.1.75l-3.4.3-.1-2.05zm-623.05-13.35c-.1-.25-.15-1.1-.1-1.95l.15-1.6-3.5-.5c-1.95-.3-3.6-.65-3.75-.8-.15-.15-.05-2.1.15-4.4l.45-4.15 2.5.2c5.3.45 4.95.6 5.45-2.35.45-2.65.5-2.7 1.95-2.4.8.15 2.4.3 3.5.3h2l-.25 2.5c-.15 1.55-.05 2.65.3 2.85.6.4 10.1 1.6 12.95 1.6 2.3.05 3.85-1.35 3.85-3.5 0-1.1.2-1.5.65-1.3.4.15 1.95.4 3.5.6 2.65.35 2.75.4 3.1 2.05.4 2.2-.6 7.15-1.65 8.45-1.85 2.2-3.4 2.75-7.85 2.75-2.35 0-5.8-.2-7.65-.45-1.85-.25-4.55-.6-5.95-.75l-2.65-.25V309h-3.45c-1.95 0-3.6-.15-3.7-.35zm622.6-18.3c-3.5-2.4-4.7-4.95-4.7-10 .05-3.55.2-4.35 1.35-6.15 1.3-2 6.15-5.7 7.5-5.7.4 0 .9-.2 1.2-.45.25-.25 2.25-.7 4.45-1 10.75-1.5 17.75 2.5 18.6 10.7.4 3.65-.55 6.1-3.35 8.8-2.7 2.6-6.95 4.35-11.2 4.55l-2.45.15-.6-3.25c-.35-1.8-.9-4.8-1.25-6.75-1-5.4-.9-5.3-3.85-3.9-3.25 1.5-3.45 5.4-.35 6.9 1 .45 1.7 1.1 1.55 1.4-.1.35-.65 1.9-1.15 3.45-.8 2.5-1.1 2.9-2.2 2.9-.7 0-2.3-.75-3.55-1.65zM817.4 281c1.25-.75 1.6-1.35 1.6-2.5s-.35-1.75-1.6-2.5c-.9-.55-2.25-1-3-1-1.65 0-1.8 1-.8 4.75.7 2.55 1.3 2.75 3.8 1.25zm-623.9 7.95c-1.25-.25-2.95-.6-3.85-.75-.9-.2-1.9-.6-2.2-1-.3-.4-.9-.7-1.3-.7-1.15 0-4.1-2.5-5.8-4.95-1.4-2.05-1.6-2.7-1.65-6.15-.1-3.6 0-3.95 1.65-6.4 1.35-2 2.4-2.9 4.5-3.85 2.5-1.15 3.2-1.25 8.15-1.05 3.15.1 5.7.4 6.05.75.4.4.25 1.95-.5 5.95-.55 3-1.2 6.45-1.35 7.65l-.35 2.2 2.15-.3c4.55-.6 6.3-3.7 3.65-6.45-.95-1.05-1.2-1.6-.75-1.75.3-.15.6-.4.6-.65 0-.2.9-1.35 1.95-2.5 1.8-2 2-2.1 3-1.4 2.7 1.9 4.55 5.55 4.55 9.05 0 4.75-2.8 9.2-7.1 11.25-2.55 1.25-8.1 1.75-11.4 1.05zm-2.05-13.1c.3-1.75.55-3.35.55-3.5 0-.2-1-.35-2.25-.35-2.4 0-4.25 1.25-4.25 2.8 0 1.15 1.9 3.4 3.15 3.8 2.05.6 2.25.4 2.8-2.75zm-24.45.3c.7-3.3 1-3.9 2.05-4.2.65-.2 2.65-.95 4.4-1.65 1.8-.7 3.35-1.2 3.45-1.05.15.1-.05 1.55-.4 3.15-.6 2.55-.9 3-2.2 3.6-.85.35-2.85 1.4-4.45 2.3-1.6.95-3.1 1.7-3.3 1.7-.2 0 0-1.75.45-3.85zm624.35-11.55c-1.15-3.75-2.35-8.25-2.25-8.3.55-.3 4.3-1.45 6.75-2.1 5.45-1.4 11.4-3.3 13.55-4.35 2-1 2.15-1.2 1.9-2.55-.4-2-.8-2.35-3.25-2.65-1.35-.2-3.1.05-5.2.7-1.7.6-4.45 1.4-6.1 1.9-1.65.45-3.9 1.15-5 1.55-1.1.35-2.65.75-3.5.8-1.4.15-1.5.05-2.35-3.1-.45-1.8-1.1-3.6-1.35-4.1-.6-1-1.15-.8 14.45-5.45 6.6-1.95 7.35-2.3 7.7-3.75.75-2.9-2.25-4.35-6.6-3.2-2.9.75-11.65 3.35-14.35 4.3-1.15.4-2.3.7-2.65.7-.45 0-1.65-3.2-2.9-8-.15-.55.7-1 2.95-1.7 1.7-.55 3.45-1.05 3.85-1.1.4-.05 3-.8 5.75-1.65 2.75-.9 5.7-1.8 6.5-2.05.85-.2 3.5-1.05 5.95-1.8 4.3-1.3 4.5-1.3 5.15-.4.35.5.65 1.35.65 1.9 0 .55.4 2 .85 3.2.8 2.15.8 2.25-.1 2.9-.5.4-1.25.7-1.65.7-.35 0-.5.25-.35.5.15.3.75.5 1.3.5.5 0 1.8.85 2.85 1.9 1.8 1.8 1.95 2.15 2.05 5.05.05 2.8-.05 3.3-1.5 5.1-1.55 1.95-1.55 1.95-.35 1.95 1.4 0 4.65 2.55 5.6 4.45.7 1.3 1 3.3.9 5.4-.15 1.6-3.35 5-5.8 6.05-2.3 1.05-11.2 3.9-17.95 5.85-2.45.7-4.6 1.35-4.85 1.5-.2.15-.5-.15-.65-.65zm-579.1-2.1c-.55-.25-4.05-1.4-7.75-2.55s-9.1-2.85-12-3.8c-2.9-.9-6.1-1.9-7.1-2.2-1.05-.25-1.9-.65-1.9-.85.05-.2.65-2.15 1.45-4.35 1.4-4.1 1.6-4.25 4.05-3.5l1.25.35-1.05-1.15c-2.4-2.7-2.85-5.45-1.3-8.55.85-1.75 3.15-4 3.95-3.85.2.05 1.05.05 1.8 0l1.4-.05-1.35-1.75c-2.8-3.7-2.35-9.3.95-11.8 1.4-1.05 2.15-1.2 5.85-1.2 3.8 0 5.15.3 12.5 2.65 13.4 4.35 12.45 3.9 12.15 6.05-.15 1-.6 2.4-.95 3.15-.4.75-.7 1.65-.7 2 0 1.4-.8 1.95-2.05 1.45-.65-.25-3.55-1.2-6.45-2.05-2.9-.9-6.05-1.9-7-2.3-2.7-1.1-6.55-1.65-7.85-1.15-.85.3-1.15.8-1.15 1.85 0 2.4 1.6 3.85 5.6 5.1 2 .6 6 1.85 8.85 2.8 2.85.95 5.65 1.7 6.2 1.7.85 0 .95.25.65 2.15-.2 1.15-.75 3.25-1.2 4.65l-.9 2.55-2.45-.75c-1.4-.4-5.1-1.6-8.3-2.65-9.75-3.2-12.55-3.5-13.2-1.45-.8 2.55 1.25 4.5 6.25 6 1.25.35 5.2 1.65 8.75 2.8 6.4 2.1 6.5 2.2 6.35 3.55-.15 1.15-2.1 7.75-2.3 7.6 0 0-.5-.2-1.05-.45zm568.9-43.55c-7.6-1.35-12.35-9.85-9.2-16.7 1-2.2 6-7.1 8.35-8.2.8-.35 1.9-.9 2.45-1.2 1.3-.7 4.35-1.4 7.45-1.7 3.55-.35 8.2 1.1 10.35 3.35 2.75 2.85 4.05 7.65 2.9 11.15-.75 2.5-3.65 6.25-5.2 6.85-.65.25-1.3.7-1.5.95-.35.6-5.3 3.05-6.15 3.05-.3 0-1.05-1.05-1.65-2.35-.6-1.35-1.75-3.8-2.55-5.55-.8-1.75-1.65-3.7-1.9-4.4-.25-.65-.75-1.2-1.15-1.2-1.05 0-2.8 1.45-3.6 3-1.25 2.4.45 5.2 3.15 5.25 1.25 0 1.3.05 1.15 3.2-.2 4.6-.4 4.9-2.9 4.5zm12.35-12.8c0-.25.7-.85 1.5-1.4 3.35-2.25.9-6.15-3.45-5.45l-1.95.3.65 1.9c1 2.8 2.2 5 2.75 5 .3 0 .5-.15.5-.35zm-576.75 8.9c-4.1-1.5-6.75-3-9.35-5.45-3.6-3.35-4.65-5.6-4.6-9.85 0-3.15.2-3.8 1.75-6.25 2.55-3.95 5.3-5.25 10.15-4.85 3.35.3 9.9 2.25 10.95 3.3.45.45.1 1.3-3.85 9.65-2.45 5.2-2.4 5.4.85 5.4 2.9 0 3.45-.25 4.3-1.9.45-.8.45-1.6.05-3-.7-2.55-.75-2.45 1.4-3.8 1.1-.65 2.35-1.6 2.8-2.1.85-.85.95-.85 1.85.35 1.2 1.55 2.65 5.85 2.55 7.45-.45 4.85-3.5 9.35-7.5 11.05-2.8 1.2-7.95 1.2-11.35 0zM215 201.5c.35-1.1.95-2.25 1.35-2.55 1.6-1.4-.1-2.45-3.9-2.45-2.65 0-3.15 3.4-.85 5.9 1.6 1.65 2.65 1.4 3.4-.9zm410.35 11.2c-.4-.4.05-1.2.7-1.2.25 0 .45.35.45.75 0 .75-.6 1-1.15.45zm-228.85-6.55c0-.25.6-1 1.3-1.7 1.15-1.05 1.3-1.1 1.15-.25-.2.95-2.45 2.8-2.45 1.95zm368.35-12.5c-.65-1.05-1.5-2.65-1.9-3.5-.4-.9-.85-1.65-1.05-1.65-.25 0-.4-.3-.4-.65 0-.55 2-1.85 8-5.25.95-.55 3.35-1.9 5.35-3.05 2-1.1 3.75-2.05 3.95-2.05.7 0 2.15-2.35 2.2-3.5 0-1.95-.75-2.7-2.65-2.65-1.95.05-6.1 2.05-13.1 6.25-3.2 1.9-6.25 3.4-6.95 3.4-.35 0-1.05-.75-1.5-1.6-.4-.9-1.35-2.6-2.05-3.75l-1.3-2.1 1.9-1.25c1.05-.75 2.15-1.3 2.45-1.3.3 0 .85-.35 1.2-.75s1.05-.75 1.55-.75c.55 0 .95-.15.95-.4 0-.2 1.05-.9 2.4-1.55 1.3-.7 2.7-1.5 3.1-1.85.4-.3 2.55-1.5 4.75-2.7 4.7-2.45 5.6-2.95 7.2-4.15 1.15-.85 1.25-.85 2.4.25.6.6 1.15 1.45 1.15 1.95s.2 1 .45 1.15c.25.15.9 1.1 1.5 2.05l1 1.75-1.6.85-1.6.8 1.25.4c.7.2 1.85.5 2.55.65 3.05.65 5.85 5.25 5.2 8.6-.4 2.15-3.8 6-6.6 7.45-1.05.5-2.25 1.2-2.65 1.55-.4.35-3.65 2.25-7.25 4.25-3.55 1.95-7 3.9-7.6 4.3-1 .7-1.15.6-2.3-1.2zm-529.75-1.5c-1.9-4.55-1.9-4.55.35-5.45 3.9-1.55 5.1-6.1 1.85-6.9-1.5-.35-2.55.2-5.45 2.8-4 3.65-9.45 3.35-13.35-.7-2.15-2.25-3.35-6.15-2.8-9.15.7-3.75 5.9-9.3 8.85-9.45 1.35-.05 1.55.2 2.7 2.95.7 1.65 1.25 3.05 1.25 3.15 0 .05-.45.1-.95.1-1.25 0-4.05 3.25-4.05 4.65 0 2.6 3.05 3.2 5.05 1.05 4.4-4.8 10.4-5.4 14.75-1.55 5.05 4.4 4.9 10.9-.3 16.55-1.6 1.75-5.55 4.3-6.7 4.3-.1 0-.65-1.05-1.2-2.35zm514.4-25c-1.3-1.55-4.5-6.15-4.5-6.45 0-.4 2.15-2.15 2.65-2.2.2 0 .8-.4 1.3-.85.55-.5 2.6-2 4.6-3.4 7.95-5.5 9.3-6.65 9.65-8 .25-.95.1-1.65-.5-2.3-1.4-1.55-3.6-1.2-7.2 1.2-3.65 2.4-6.6 4.45-7 4.85-.15.15-1.5 1.05-3 2-1.5.9-3 2-3.35 2.35-.45.6-.75.6-1.6.05-.6-.35-1.05-.9-1.05-1.25s-.2-.65-.4-.65c-.25 0-.75-.6-1.15-1.35-.4-.75-1.1-1.8-1.6-2.3-.85-.85-.85-.95.6-2.1.8-.7 1.7-1.25 2-1.25.3 0 .55-.2.55-.45s2.25-2 5.05-3.85c2.8-1.9 5.35-3.75 5.75-4.1.35-.35 2.95-2.2 5.8-4.1l5.1-3.5 1.15 1.4c.6.75 1.1 1.6 1.15 1.95 0 .3.15.65.4.75.2.1.85.9 1.5 1.8l1.15 1.6-1.3.5c-1.9.7-1.5 1.4.95 1.75 3.1.5 5 1.8 6.25 4.45 1.75 3.6 1.15 6-2.4 9.65-1.55 1.6-4.1 3.8-5.7 4.9-2.7 1.9-9.5 6.75-10.6 7.6-.75.6-3.2 2.15-3.35 2.15-.1 0-.5-.4-.9-.85zM253.7 159c-3.45-1.2-4.45-1.75-7.9-4.4-3.15-2.4-6.25-5.55-6.3-6.3 0-.25-.35-.85-.8-1.35-2.15-2.4-1.75-8.5.75-11 1.55-1.5 4.2-2.7 5.3-2.3 1.5.6 1.25-.65-.3-1.45-1.4-.7-6.3-4.35-9.2-6.8-.55-.5-1.4-1.15-1.9-1.5-.8-.6-.75-.8 1-2.95 1.05-1.25 2.4-2.95 3-3.75 1-1.25 1.2-1.35 1.75-.7.4.4 1.05 1 1.45 1.25.85.5 5.25 3.95 7.35 5.75.65.55 1.3 1 1.4 1 .3 0 6.55 4.85 8.2 6.35.7.65 1.4 1.15 1.6 1.15.15 0 .65.3 1 .65.35.3 2.55 2.05 4.9 3.85 2.35 1.75 4.45 3.5 4.65 3.85.2.35.65.65 1 .65.35.05 1.35.65 2.2 1.45l1.65 1.35-1.5 1.45c-.85.8-1.5 1.75-1.5 2.1 0 .35-.2.65-.4.65-.25 0-.7.55-1 1.25-.7 1.55-1.45 1.55-3 .15-1.15-1.05-1.25-1.1-.85-.15.2.55.5 1.95.6 3.1.25 1.8.05 2.45-1.05 3.9-2.75 3.6-7.05 4.6-12.1 2.75zm6.8-9.25c.4-.45.55-1.5.35-2.7-.2-1.5-.8-2.45-2.6-4.1-4.8-4.5-9.1-6.05-10.95-4-.8.85-.8 1.25-.3 2.85.7 2.1 4.85 6.35 7.5 7.7 2.2 1.1 5.15 1.25 6 .25zM727.3 138c-4-1.85-7.3-6.9-7.3-11.1 0-1.55 1.5-5.8 2.75-7.7 4.25-6.55 10.7-10.45 17-10.4 3.8.05 5 .55 8.45 3.65 2.9 2.6 4.1 8.05 2.7 12.05-1.2 3.45-6.4 10-7.95 10-.25 0-.45.2-.45.5 0 .25-1.65 1.3-3.7 2.25-4.3 2.05-8.2 2.3-11.5.75zm7.45-8.75c.85-.35 2.9-1.9 4.6-3.45 3.75-3.45 4.5-5.7 2.5-7.7-1.15-1.15-1.35-1.15-3.15-.6-2.4.8-6.55 3.9-8.15 6.05-.65.9-1.3 2.55-1.45 3.75-.2 1.95-.1 2.25.95 2.65 1.25.5 2.15.35 4.7-.7zm-460 5.3c-2.35-.6-4.45-1.85-7.65-4.5-5.6-4.65-8.4-10.8-7.5-16.2.45-2.45.85-3.2 3.1-5.45 2.5-2.55 5.2-3.9 7.8-3.9 1.85 0 6.65 1.95 8.55 3.5 1.05.8 2 1.5 2.15 1.5.6 0 3.25 3.15 3 3.55-.15.25-2.45 2.75-5.1 5.5-2.65 2.8-4.9 5.25-5 5.45-.1.25.8.95 1.95 1.5 3.95 2.05 6.85.4 6.3-3.55-.2-1.5-.1-1.95.45-1.95.4 0 1.25-.3 1.85-.7.6-.4 2-.8 3.1-.9 1.85-.15 2-.05 2.3 1.35.65 3 .45 6.25-.5 8.15-1.15 2.25-3.7 4.85-5.8 5.95-1.65.9-6.8 1.3-9 .7zm-2-18.1l1.75-1.9-2.55-1.3-2.55-1.3-1.2 1.1c-1.7 1.6-1.5 3.6.7 6.1.75.85.85.85 1.45.1.3-.5 1.4-1.75 2.4-2.8zm432.3-1.75l-3.2-3.15 6.95-7.35c3.8-4.05 8.7-9.15 10.8-11.35l3.85-4 3.3 3.15 3.25 3.2-1.6 1.7c-1.2 1.25-1.35 1.65-.65 1.35.55-.25 2.15-.5 3.5-.65 2.15-.15 2.65 0 3.65 1.05l1.15 1.25-3.1 3.05c-1.75 1.7-3.25 3.05-3.35 3.05-.1 0-.75-.45-1.45-1-1.9-1.45-4.6-1.3-6.95.4-1.05.8-4.3 3.95-7.2 7-2.9 3.05-5.35 5.55-5.5 5.5-.15 0-1.7-1.45-3.45-3.2zm-399.4-6c-.15-.45-.75-1.3-1.25-1.9-1.2-1.3-4.7-5.85-6.55-8.4-.75-1.1-1.85-2.45-2.4-3.05-.55-.6-1.6-2.05-2.3-3.2-.7-1.2-1.45-2.15-1.7-2.15s-.75-.6-1.15-1.35c-.4-.8-1.15-1.9-1.7-2.45l-1.05-1.1 2.1-1.65c4.75-3.85 6.35-4.5 6.35-2.75 0 .4.35.95.75 1.3.65.55.7.35.45-1.55-.3-2.7.8-4.7 3.85-6.95 2.3-1.65 4-1.85 6.15-.75 2 1.05 2.4.95 2.05-.65-.85-4.1 3.4-9.1 7.75-9.1 4.45 0 6.9 2.05 14.05 11.7 5.35 7.25 6.5 8.8 7.35 9.6.7.7.8 1.7.15 1.7-.2 0-1.95 1.2-3.8 2.6-2.3 1.75-3.5 2.45-3.65 2-.1-.35-.95-1.65-1.9-2.9-.95-1.2-1.7-2.4-1.7-2.7 0-.25-.4-.75-.9-1.1-.5-.35-1.45-1.45-2.1-2.4-.65-.95-1.35-1.85-1.5-2-.2-.15-1.25-1.55-2.45-3.1-2.6-3.45-4.65-4.25-6.2-2.35-1.65 2.05-.8 3.95 5.7 12.45 1.4 1.8 2.95 3.8 3.45 4.5.55.7 1.4 1.85 1.95 2.55l1.05 1.35-3.4 2.55c-3.5 2.7-4.4 2.95-5.3 1.3-.3-.5-.85-1.25-1.15-1.65-1.35-1.45-5.15-6.55-5.15-6.9 0-.15-.4-.7-.9-1.15-.5-.45-1.45-1.6-2.1-2.55-1.3-1.85-4-4.5-4.65-4.5-.75 0-2.85 2.45-2.85 3.3 0 1.25 1.75 4.7 3.1 6.2.65.7 1.5 1.75 1.9 2.35.4.55 2.25 3 4.15 5.35 1.85 2.4 3.35 4.6 3.35 4.95 0 .75-5.85 5.35-6.85 5.35-.35 0-.8-.35-1-.8zm390.3-2.05c-.4-.5-2-1.9-3.55-3.05l-2.85-2.2 5-6.05c2.8-3.35 5.65-6.8 6.35-7.6.75-.85 2.2-2.6 3.25-3.85 1.05-1.3 2.2-2.65 2.55-3 .35-.35 1-1.25 1.5-2 .5-.8 1.1-1.4 1.35-1.4.85 0 6.95 5.25 6.95 6 0 .4-.85 1.65-1.8 2.75-1 1.1-2.8 3.1-4 4.45-1.2 1.35-2.2 2.6-2.2 2.75 0 .15-.85 1.2-1.9 2.3-1 1.1-2.45 2.8-3.15 3.75-.75.95-2.05 2.45-2.9 3.25-.85.85-1.55 1.75-1.55 2.05 0 .3-.55 1.05-1.2 1.65-1.15 1.1-1.2 1.1-1.85.2zm-17.75-14c-5.2-3.65-6.7-4.9-6.7-5.55 0-.65 2.25-6.75 5.6-15.35.55-1.35 1.15-3.05 1.4-3.75.25-.7.9-2.5 1.5-4s1.3-3.45 1.55-4.35c.25-.9.7-1.75.95-1.9.5-.3 5.55 2.8 7.15 4.45.95.9.9 1-.45 4.25-.75 1.8-1.65 3.65-2.05 4.1-.35.4-.65 1.05-.65 1.35 0 .35-.2 1-.45 1.5-1.2 2.2-4.05 8.75-4.05 9.2 0 .3.55 0 1.15-.65.65-.65 4.15-4.1 7.7-7.6l6.55-6.45 1.55.8c.85.45 1.55 1.05 1.55 1.3 0 .3.2.5.5.5.25 0 1.35.6 2.4 1.35l1.9 1.35-1.85 1.65c-1 .9-2.1 1.65-2.4 1.65-.3 0-.55.2-.55.4s-1.6 1.7-3.55 3.35c-1.95 1.65-3.8 3.25-4.15 3.5-.3.3-1.8 1.5-3.3 2.75-1.5 1.25-3.65 3.1-4.75 4.1-1.1 1.05-2.25 1.9-2.55 1.9-.35 0-.7.35-.9.75-.4 1.05-.85.95-3.1-.6zm-19.6-13.1c-1.7-1.05-3.35-2.1-3.65-2.4-.35-.35.55-2.35 2.8-6.35 1.8-3.2 3.25-6.05 3.25-6.3 0-.3.2-.5.4-.5.6 0 3.6-6.25 3.6-7.35-.05-3.65-5.45-2.95-7.25.95-.4.9-1.15 2.35-1.6 3.15-.5.85-2.35 4.05-4.05 7.15-1.75 3.05-3.5 5.6-3.85 5.6-.35 0-.9-.35-1.25-.75s-.9-.75-1.25-.75-.9-.35-1.25-.75-1-.75-1.5-.75c-.45 0-1.2-.4-1.65-.9-.75-.8-.75-1 .1-2.45.55-.85 1.8-3.05 2.8-4.95 1-1.9 2.1-3.75 2.35-4.1.6-.7 1.9-3.05 3.25-5.85.55-1.1 1.35-2.3 1.8-2.7.5-.35.85-.95.85-1.3 0-.35.7-1.9 1.6-3.45 1.55-2.7 2.5-3.35 3.15-2.3.15.3 1.25.95 2.4 1.5 3.6 1.7 4.1 2.25 3.4 3.8-.75 1.7-.4 2 1.05 1 2.4-1.7 7.4-.4 9.6 2.45 1.05 1.4 1.3 2.25 1.3 4.7 0 3.25-1.25 6.1-7.45 16.8-3.55 6.15-3.35 5.85-4.1 7.4-.35.75-.85 1.35-1.15 1.3-.3 0-1.95-.9-3.7-1.9zM343 80.65c-1.1-.4-4.5-3.75-4.5-4.45 0-.35-.25-.7-.55-.8-.8-.25-1.5-4.3-1.15-6.65.15-1.15.7-2.7 1.15-3.45 1-1.5 5.9-5.8 6.6-5.8 1 0 .35-1.3-1.25-2.4-1.6-1.1-1.8-1.15-3.2-.4-1.5.8-3.6 3.25-3.6 4.2 0 1.1-.95 1.05-3.45-.15-1.4-.7-2.75-1.25-3-1.25-.65 0 .35-3.5 1.25-4.55.4-.4.7-1 .7-1.3 0-.65 3.7-3.75 5.85-4.85 1.75-.9 5.9-1.05 7.85-.3 2.7 1 5.9 4.7 9.7 11.25 7.55 12.85 6.95 11.55 5.85 12.75-.5.55-1.15 1-1.45 1-.3 0-1.1.45-1.8 1-1.65 1.25-3 1.3-3 .05 0-.55-.2-1.15-.5-1.3-.3-.2-.5.3-.5 1.15 0 1.65-2.1 4.6-4.1 5.8-1.25.75-5.3 1.05-6.9.45zm6.35-7.9c.55-.4 1.15-1.3 1.3-2.05.25-1.55-1.5-6.2-2.35-6.2-1.05 0-4.3 3.05-4.3 4.05 0 1.95 2.1 4.95 3.45 4.95.45 0 1.3-.35 1.9-.75zM716.2 78.5c-1.5-.6-2.7-2.7-2.7-4.7 0-2.15 2.55-5.05 4.7-5.45 3.05-.5 5.75 1.75 5.8 4.8 0 4.4-3.75 7-7.8 5.35zM367 67.25c-.7-1.8-2.95-6.75-3.8-8.35-.4-.7-.7-1.65-.7-2.1 0-.45-.2-.8-.45-.8s-.65-.5-.85-1.1c-.25-.95-3.5-8.2-5.85-13.25-.6-1.35-.85-1.15 2.95-2.8 4.5-1.95 5.2-1.95 6 .15.45 1.25.65 1.45.65.7.05-1.25 1.25-4.05 2.15-5.25 1.6-1.95 4.05-2.75 7.95-2.5 2.9.15 7.3 6.75 12.55 19.05.3.7 1.05 2.25 1.65 3.5 1.5 3 1.95 4.5 1.3 4.5-.3 0-2.15.8-4.1 1.75-2.75 1.35-3.75 1.6-4.3 1.2-.35-.3-.65-.75-.65-1 0-.55-1.25-3.3-4.55-10.3-1.35-2.85-2.45-5.25-2.45-5.4 0-.15-.5-1.05-1.1-2-1.3-1.95-2.55-2.2-4.35-.95-1.05.75-1.15 1.15-.9 3.15.15 1.3 1.3 4.45 2.5 7.05 4.45 9.5 5.9 12.65 5.75 12.7-.1.05-1.65.85-3.45 1.7-4.05 1.95-5.3 2.05-5.95.35zm258.3-3.75c-6.3-2.45-8.9-8.5-7.1-16.4 1.3-5.75 4.4-10.3 9.5-13.95 1.85-1.35 7.35-2.15 8.45-1.2.4.3.8.4.95.25.45-.4 2.9 1 4.6 2.6 3.1 2.9 4.05 7.7 2.6 12.95-.9 3.25-2.15 6.1-2.85 6.55-.3.15-1.6-.15-2.9-.7-8.6-3.85-10.7-4.65-11.35-4.4-.8.3-.95 3.55-.25 5.45.65 1.7 3 2.2 5.15 1.15.85-.45 1.7-.65 1.9-.45 3.3 4.15 4.05 5.3 3.8 5.95-.45 1.2-5.3 3.2-7.8 3.15-1.25 0-3.35-.45-4.7-.95zm11.4-19.1c.5-1.85.35-4.15-.3-4.8-1.5-1.5-5.15-.15-6.2 2.35-.6 1.4-.55 1.55.2 1.55.45 0 1.75.45 2.85.95 2.65 1.25 3.1 1.25 3.45-.05zM427 59.3c-3.5-.85-3.55-.95-2.2-4.15.65-1.6 1.2-3.2 1.2-3.5 0-.8.3-.8 3.35-.1 3.55.8 6.3 0 7.35-2.25.8-1.75 1.05-4.65.5-6.7-.3-1.05-.4-1.05-1.8.85-2.1 2.85-6.7 3.95-9.8 2.35-3-1.55-6.45-6.7-8.1-12-.35-1.05-.65-4.2-.65-7 0-4.1.2-5.5 1.05-7.4 2.4-5.2 8.15-6.9 11.75-3.5l1.5 1.35-.35-1.85c-.3-1.7-.25-1.85 1.15-2.15.85-.2 1.75-.2 2.05 0 .25.15.5.1.5-.15 0-.3.75-.6 1.65-.7.85-.15 1.9-.35 2.3-.45.75-.2.8.05 6.05 21.8 2.1 8.6 2.5 12.2 1.75 16.1-.95 5.05-3.85 7.95-9.5 9.45-2.95.8-6.6.8-9.75 0zm6.05-21.3c.65 0 1.95-3.35 1.95-5.05 0-2.7-2.3-8.8-3.8-10.15-4.25-3.7-6.7 1.95-4.2 9.7 1.2 3.7 3.4 6.35 4.85 5.8.4-.2.95-.3 1.2-.3zM396.9 54.8c-3.1-1.35-5.15-5.1-5.35-9.7-.1-2.25.1-3.5.7-4.5 1.45-2.3 4.8-5 7.35-5.95 2.7-.95 2.95-1.65 1.15-3.45-1.05-1.05-1.55-1.2-2.85-.9-2.15.45-3.15 1.1-4.1 2.8-1 1.65-1.3 1.7-2.7.4-.6-.55-1.25-1-1.45-1-.2-.05-.95-.5-1.6-1.05l-1.2-1 1.45-2.1c3.15-4.45 7.55-6.65 12.7-6.25 2.15.15 3.25.55 4.65 1.65 1 .85 1.85 1.8 1.85 2.15 0 .35.35.75.75.9.4.2.75.55.75.9 0 .3.35 1.2.75 2s2.1 5.45 3.8 10.4c3.4 10.15 3.45 9.6-1 11.15-3 1-3.55.95-3.55-.4 0-2.05-.65-1.95-1.45.2-1.35 3.65-6.7 5.5-10.65 3.75zm8.1-8.4c.75-1.2.95-2.1.7-3.4-.5-3.05-1-3.5-2.85-2.9-1.85.6-3.85 2.55-3.85 3.8 0 .45.45 1.6 1 2.5.75 1.25 1.35 1.6 2.5 1.6s1.75-.35 2.5-1.6zm189.7 5.35c-3.15-1-4-1.55-5.2-3.5-1.45-2.3-1.45-6.05-.05-10.8.65-2.05 1.45-4.95 1.9-6.45.4-1.5.95-3.25 1.2-3.9.7-1.75.6-1.95-1.3-2.3-1.6-.3-1.7-.45-1.4-1.95.15-.9.65-2.45 1.1-3.45.75-1.8.85-1.85 2.65-1.55 1.5.2 1.9.1 1.9-.5s1.45-5.75 1.75-6.25c.05-.05 1.5.35 3.25.9 1.7.55 3.4 1 3.75 1 1.55 0 1.75 1.3.65 4.25l-1.05 2.95 1.15.9c.6.5 1.65.9 2.3.9 1.55 0 1.8.55 1.15 2.55-1.4 4.4-1.5 4.55-3.15 4.3-.85-.15-2.05-.4-2.65-.6-.95-.3-1.15-.15-1.4 1.05-.45 2.25-2.3 8.35-2.8 9.3-.65 1.3-.55 5.1.15 5.8.35.35 1.25.6 2.05.6 1.2 0 1.4.15 1.1.9-.2.45-.55 1.65-.75 2.6-.75 3.95-2.05 4.6-6.3 3.25zm-21.2-6.45l-2.75-.6.15-2.5c.1-1.35.5-3.6.85-5 1.4-5.4 2.8-13.85 2.55-15-.65-2.6-3.95-2.7-5.4-.15-.5.85-1.45 4.35-2.15 7.85-.75 3.5-1.5 7.25-1.75 8.35-.25 1.1-.6 2.65-.75 3.45-.25 1.25-.45 1.4-1.9 1.1-.9-.15-2.75-.45-4.1-.65-3.55-.6-3.75-.8-3.15-3 .25-1.05 1.55-7.2 2.85-13.65 3.1-14.85 3-14.5 4-14.5 1.7 0 7.3 1.1 7.7 1.45.25.25.2 1.25-.05 2.25-.3 1-.45 1.8-.35 1.8.1 0 .95-.8 1.9-1.75 1.65-1.65 1.9-1.75 5.3-1.75 2.35 0 3.65.2 3.9.65.2.4.75.8 1.2.95 1.45.55 2.45 3.6 2.4 7.25 0 1.9-.95 7.95-2.1 13.65l-2.1 10.25-1.75.05c-.95.05-3-.2-4.5-.5zM459 40.6c-4-1.1-7.15-4.65-9-10.2-.95-2.9-1.1-4.1-.9-8.75.15-3.35.5-5.85.95-6.65 1.35-2.4 4.05-5.5 4.75-5.5.4 0 .7-.2.7-.4 0-.8 5-1.7 7.4-1.35 5.9.9 8.75 4.6 10.6 13.9.65 3.2.55 3.45-1.1 3.65-.65.05-3.15.4-5.65.7-2.45.35-5.35.75-6.45.85-1.85.25-1.9.3-1.6 1.85.35 1.9 2.9 4.3 4.55 4.3 1.05 0 3.25-1.65 3.25-2.45.05-1.05.95-1.6 1.8-1.1.55.25 2 .95 3.35 1.5 2.6 1.1 2.9 2 1.5 4.05-1.05 1.6-3.2 3.65-4.8 4.75-1.35.85-7.3 1.4-9.35.85zm3.3-20.15c1.95-.5 2.25-.75 2-1.65-.15-.6-.3-1.3-.3-1.65 0-1-2.1-2.65-3.35-2.65-1.2 0-2.4 1.45-2.9 3.6-.7 2.9.3 3.4 4.55 2.35zm72.7 19.3c-2.45-1.15-4.85-3.05-5.7-4.65-1.9-3.5-2-3.95-2.05-10.35 0-5.85.1-6.7 1.15-8.4.6-1.05 1.1-2.25 1.1-2.65 0-.4.25-.7.5-.7.3 0 .5-.3.5-.7 0-.95 3.15-3.65 5.4-4.6 2.3-.95 7.6-.7 9.95.5.9.5 2.25 1.7 3.05 2.7 2.6 3.3 3.1 5.95 2.7 14.6l-.1 1.8-3.85-.4c-11.45-1.05-11.5-1.05-11.75-.3-.5 1.2.15 3.3 1.4 4.65 1.55 1.65 3.8 1.7 5.1 0 .55-.7 1.15-1.25 1.4-1.25.4 0 4.2 2.45 4.7 3.05.15.15.7.45 1.2.65.95.3.95.35-.05 1.25-.55.5-1.4 1.45-1.95 2.1-1.75 2.2-3.6 3-7.35 3.25-2.6.15-4.1 0-5.35-.55zm8.25-23.6c-.4-1.7-2.55-2.4-4.1-1.4-1.3.85-3.05 4.05-2.5 4.55.2.2 1.75.5 3.45.65l3.15.3.15-1.45c.1-.8.05-2-.15-2.65zm-62.85 21.6c-.2-.2-.35-7.1-.4-15.35 0-8.3-.15-15.25-.3-15.5-.15-.2.95-.45 2.4-.5 1.45-.05 3.6-.1 4.8-.15 2.1-.1 2.1-.1 2.1 1.7v1.8l1.65-1.85c2.05-2.35 3.25-2.9 6.1-2.9 2.95 0 4.85 1 6.25 3.25 1.15 1.9 1.3 1.9 2.2.2 1.05-2.15 3.15-3.15 6.7-3.35 3.1-.2 3.55-.1 5 1.15.9.75 1.95 1.95 2.3 2.7 1.2 2.25 1.75 8 1.85 18.05l.05 9.75-4.5.15-4.45.15-.3-2.4c-.15-1.3-.3-5.9-.35-10.15 0-8.8-.45-10.7-2.4-11.4-1.1-.35-1.55-.25-2.6.75-1.25 1.15-1.25 1.2-1.5 12.3l-.25 11.1-4.1.15c-2.25.1-4.15-.05-4.3-.25-.15-.2-.4-5.3-.55-11.35-.3-10.4-.35-10.95-1.35-11.85-1.35-1.2-2.6-1.2-3.55-.05-1.75 2.1-1.9 3.45-1.6 13.6l.35 10h-3.45c-1.9 0-3.9.15-4.45.3-.55.15-1.15.1-1.35-.05z"/>
  </g>
</svg>
